<svg width="167" height="164" viewBox="0 0 167 164" fill="none" xmlns="http://www.w3.org/2000/svg">
<circle cx="83" cy="80" r="80" fill="white"/>
<path d="M75.7513 49.3996C77.6288 48.2355 78.2072 45.7698 77.0431 43.8922C75.8791 42.0147 73.4133 41.4363 71.5358 42.6004L75.7513 49.3996ZM38.8755 95.0304L42.714 93.9053L38.8755 95.0304ZM83.5125 103.443L80.6409 100.659L83.5125 103.443ZM77.1904 71.0346C75.1219 70.2589 72.8162 71.3069 72.0406 73.3754C71.2649 75.4439 72.3129 77.7495 74.3814 78.5252L77.1904 71.0346ZM88.2279 76.5505C90.1803 75.5169 90.9251 73.0962 89.8915 71.1438C88.8578 69.1914 86.4372 68.4466 84.4848 69.4802L88.2279 76.5505ZM78.6595 80.409C78.6595 82.6181 80.4503 84.409 82.6595 84.409C84.8686 84.409 86.6595 82.6181 86.6595 80.409H78.6595ZM36.8372 107.43C35.7326 105.516 33.2863 104.861 31.3731 105.965C29.4599 107.07 28.8044 109.516 29.909 111.43L36.8372 107.43ZM42.9208 122.918C44.9762 123.727 47.2988 122.718 48.1086 120.662C48.9183 118.607 47.9085 116.284 45.8531 115.474L42.9208 122.918ZM125.319 71.0805C125.984 73.187 128.231 74.3555 130.337 73.6902C132.444 73.025 133.613 70.778 132.947 68.6714L125.319 71.0805ZM122.207 54.6557C120.397 53.3886 117.903 53.8284 116.636 55.638C115.368 57.4476 115.808 59.9418 117.618 61.2089L122.207 54.6557ZM119.912 78.134L123.725 76.9251L119.912 78.134ZM75.3773 42.1734C73.2639 41.53 71.0291 42.7217 70.3857 44.8351C69.7423 46.9484 70.934 49.1832 73.0474 49.8266L75.3773 42.1734ZM87.1478 98.7008C85.2859 97.5118 82.8127 98.0573 81.6238 99.9192C80.4348 101.781 80.9803 104.254 82.8422 105.443L87.1478 98.7008ZM71.5358 42.6004C65.317 46.456 54.893 54.1739 46.6717 63.483C42.5583 68.1407 38.8627 73.3457 36.5729 78.8018C34.2747 84.2781 33.303 90.2395 35.037 96.1555L42.714 93.9053C41.6469 90.2647 42.1244 86.2467 43.9496 81.8976C45.7833 77.5282 48.8854 73.0618 52.668 68.7787C60.2387 60.2062 69.9998 52.9655 75.7513 49.3996L71.5358 42.6004ZM35.037 96.1555C38.2657 107.171 47.7705 113.377 57.773 115.014C67.7247 116.644 78.9308 113.914 86.3841 106.228L80.6409 100.659C75.3119 106.154 66.8911 108.401 59.0655 107.12C51.2909 105.847 44.8684 101.255 42.714 93.9053L35.037 96.1555ZM86.3841 106.228C91.6271 100.821 91.5448 92.6518 89.5994 86.2818C87.656 79.9179 83.2559 73.3092 77.1904 71.0346L74.3814 78.5252C77.1425 79.5606 80.3587 83.4133 81.9483 88.6184C83.536 93.8175 82.9036 98.3251 80.6409 100.659L86.3841 106.228ZM84.4848 69.4802C82.1754 70.7028 80.7593 72.8438 79.9483 74.6541C79.1161 76.512 78.6595 78.5945 78.6595 80.409H86.6595C86.6595 79.8127 86.8391 78.8401 87.2492 77.9247C87.6806 76.9617 88.1129 76.6113 88.2279 76.5505L84.4848 69.4802ZM29.909 111.43C33.0504 116.871 37.9633 120.965 42.9208 122.918L45.8531 115.474C42.6238 114.202 39.0988 111.347 36.8372 107.43L29.909 111.43ZM132.947 68.6714C130.882 62.131 125.869 57.2205 122.207 54.6557L117.618 61.2089C120.453 63.194 123.972 66.8147 125.319 71.0805L132.947 68.6714ZM123.725 76.9251C121.814 70.8988 117.559 65.7831 112.688 61.5769C107.784 57.3429 101.977 53.7913 96.5062 50.9533C91.0183 48.1062 85.7558 45.9192 81.8734 44.4452C79.9284 43.7068 78.3204 43.1437 77.1917 42.7632C76.6271 42.5728 76.1819 42.4279 75.8737 42.3294C75.7196 42.2801 75.5997 42.2424 75.5163 42.2164C75.4745 42.2033 75.4419 42.1932 75.4186 42.1861C75.407 42.1825 75.3977 42.1796 75.3908 42.1775C75.3874 42.1765 75.3845 42.1756 75.3823 42.1749C75.3811 42.1746 75.3799 42.1742 75.3793 42.174C75.3782 42.1737 75.3773 42.1734 74.2123 46C73.0474 49.8266 73.0467 49.8264 73.0463 49.8263C73.0463 49.8263 73.0459 49.8262 73.046 49.8262C73.0461 49.8262 73.0469 49.8264 73.0482 49.8268C73.0508 49.8276 73.0558 49.8292 73.0631 49.8314C73.0776 49.8359 73.1015 49.8433 73.1343 49.8535C73.2 49.874 73.3016 49.9059 73.4369 49.9492C73.7076 50.0358 74.113 50.1677 74.6357 50.3439C75.6815 50.6965 77.1942 51.2259 79.0339 51.9243C82.721 53.3242 87.6845 55.3891 92.8222 58.0545C97.9774 60.729 103.195 63.9503 107.46 67.6322C111.756 71.342 114.813 75.2851 116.099 79.343L123.725 76.9251ZM111.762 107.583C118.858 104.001 122.777 98.7279 124.376 92.9526C125.932 87.3308 125.202 81.5826 123.725 76.9251L116.099 79.343C117.269 83.0331 117.686 87.1331 116.666 90.818C115.688 94.3493 113.307 97.8414 108.157 100.441L111.762 107.583ZM84.995 102.072C82.8422 105.443 82.8435 105.444 82.8449 105.445C82.8455 105.445 82.8469 105.446 82.848 105.447C82.8501 105.448 82.8524 105.45 82.8549 105.451C82.8599 105.455 82.8658 105.458 82.8724 105.462C82.8856 105.471 82.902 105.481 82.9214 105.493C82.9604 105.517 83.0118 105.549 83.0753 105.587C83.2021 105.664 83.3774 105.767 83.5978 105.891C84.0381 106.14 84.6614 106.475 85.4413 106.85C86.9948 107.596 89.2042 108.517 91.8529 109.225C97.115 110.63 104.454 111.271 111.762 107.583L108.157 100.441C103.218 102.934 98.0749 102.606 93.9166 101.495C91.855 100.945 90.1195 100.222 88.9058 99.639C88.3021 99.3489 87.8361 99.0975 87.5331 98.9263C87.3818 98.8409 87.2718 98.7758 87.2064 98.7363C87.1737 98.7166 87.1522 98.7033 87.1423 98.6972C87.1374 98.6941 87.1353 98.6928 87.1362 98.6934C87.1367 98.6937 87.1378 98.6944 87.1398 98.6956C87.1407 98.6963 87.1419 98.697 87.1432 98.6978C87.1439 98.6983 87.1451 98.699 87.1454 98.6992C87.1466 98.7 87.1478 98.7008 84.995 102.072Z" fill="black"/>
<path d="M61.5047 160.241C112.777 165.938 160.905 139.446 162.941 84.4769C164.502 42.3497 140.526 8.08643 90.9339 8.08643C47.9331 8.08643 13.5451 27.7288 4.52476 71.3277C-2.98898 107.645 18.4593 145.41 42.7201 151.475" stroke="black" stroke-width="6" stroke-linecap="round"/>
</svg>
