<svg width="80" height="34" viewBox="0 0 80 34" fill="none" xmlns="http://www.w3.org/2000/svg">
<path d="M12.5864 17.072C11.8824 16.688 10.8744 16.496 9.56238 16.496C9.11438 16.496 8.77838 16.512 8.55438 16.544L7.35438 16.688V23.696L8.50638 23.456C9.37038 23.296 10.4424 22.832 11.7224 22.064C13.0344 21.264 13.8024 20.608 14.0264 20.096C14.1224 19.904 14.1704 19.696 14.1704 19.472C14.1704 19.024 14.0104 18.576 13.6904 18.128C13.4024 17.648 13.0344 17.296 12.5864 17.072ZM8.84238 6.368C8.84238 6.144 8.69838 6.032 8.41038 6.032C8.05838 6.032 7.73838 6.176 7.45038 6.464C7.16238 6.752 7.01838 7.28 7.01838 8.048C7.01838 8.656 7.13038 8.96 7.35438 8.96C7.54638 8.96 7.83438 8.608 8.21838 7.904C8.63438 7.2 8.84238 6.688 8.84238 6.368ZM5.33838 1.04C6.01038 0.719998 7.01838 0.559999 8.36238 0.559999C9.73838 0.559999 10.8104 0.719998 11.5784 1.04C12.2824 1.328 12.9064 1.872 13.4504 2.672C14.0264 3.44 14.3944 4.304 14.5544 5.264C14.5864 5.392 14.6024 5.584 14.6024 5.84C14.6024 6.16 14.3944 6.88 13.9784 8C13.5624 9.12 13.3544 10.016 13.3544 10.688C13.3544 11.008 13.8824 11.44 14.9384 11.984C17.0504 13.104 18.4744 14.56 19.2104 16.352C19.5944 17.28 19.7864 18.272 19.7864 19.328C19.7864 21.504 19.1464 23.264 17.8664 24.608C16.7464 25.792 15.0024 26.896 12.6344 27.92C10.2664 28.944 8.26638 29.456 6.63438 29.456C5.51438 29.456 4.61838 29.2 3.94638 28.688C3.30638 28.144 2.98638 27.424 2.98638 26.528C2.98638 25.76 2.76238 25.072 2.31438 24.464C2.05838 24.08 1.88238 23.392 1.78638 22.4C1.69038 21.408 1.57838 19.36 1.45038 16.256C1.29038 11.488 1.11438 8.656 0.922375 7.76C0.858375 7.184 0.826375 6.736 0.826375 6.416C0.826375 6.16 0.858375 5.872 0.922375 5.552C1.05038 5.04 1.64238 4.24 2.69838 3.152C3.75438 2.064 4.63438 1.36 5.33838 1.04ZM39.2721 14.432C38.4721 14.016 37.6561 13.808 36.8241 13.808C35.8001 13.808 34.9681 14.144 34.3281 14.816C31.7681 17.632 30.4881 20.16 30.4881 22.4C30.4881 23.872 31.0481 25.2 32.1681 26.384C32.7441 26.992 33.2081 27.392 33.5601 27.584C33.9121 27.744 34.4241 27.824 35.0961 27.824C36.8881 27.824 39.2561 26.672 42.2001 24.368C43.1281 23.632 43.7681 23.008 44.1201 22.496C44.4721 21.952 44.6481 21.344 44.6481 20.672C44.6481 20.224 44.6161 19.856 44.5521 19.568C44.4241 18.896 43.8001 18.032 42.6801 16.976C41.5921 15.888 40.4561 15.04 39.2721 14.432ZM33.2721 8.336C34.0081 7.952 34.9041 7.76 35.9601 7.76C37.6881 7.76 39.4321 8.192 41.1921 9.056C42.5681 9.728 44.0241 10.688 45.5601 11.936C47.0961 13.152 48.2001 14.24 48.8721 15.2C49.8321 16.576 50.3121 18.32 50.3121 20.432C50.3121 22.544 49.8001 24.336 48.7761 25.808C48.0721 26.768 46.8561 27.904 45.1281 29.216C43.4001 30.528 41.6881 31.616 39.9921 32.48C38.3601 33.312 37.1121 33.728 36.2481 33.728C36.0881 33.728 35.6561 33.696 34.9521 33.632C31.8161 33.408 29.1601 31.872 26.9841 29.024C25.6081 27.232 24.9201 25.552 24.9201 23.984C24.9201 22.896 25.1281 21.504 25.5441 19.808C26.1201 17.408 26.6961 15.728 27.2721 14.768C27.8801 13.712 28.8401 12.48 30.1521 11.072C31.4641 9.664 32.5041 8.752 33.2721 8.336ZM58.1718 2.432C58.8118 2.432 59.9478 2.336 61.5798 2.144C63.2438 1.952 65.0038 1.728 66.8598 1.472C68.7478 1.184 69.8998 1.024 70.3158 0.991999C71.6278 0.799999 73.1958 0.671999 75.0198 0.607998H75.5958C76.7798 0.607998 77.6598 0.911998 78.2358 1.52C78.8438 2.096 79.1478 2.784 79.1478 3.584C79.1478 4.224 78.9398 4.8 78.5238 5.312C78.1078 5.824 77.5478 6.144 76.8438 6.272C76.6838 6.304 75.9318 6.368 74.5878 6.464C73.2758 6.528 72.0118 6.624 70.7958 6.752C69.5798 6.88 68.9078 7.008 68.7798 7.136C68.5238 7.392 68.5398 7.84 68.8278 8.48C69.0198 9.056 69.1478 11.376 69.2118 15.44C69.2118 19.504 69.5158 23.04 70.1238 26.048C70.1878 26.272 70.2198 26.56 70.2198 26.912C70.2198 27.36 69.9638 27.84 69.4518 28.352C68.7478 28.992 68.0438 29.312 67.3398 29.312C66.5718 29.312 65.8358 28.96 65.1318 28.256C64.6838 27.808 64.3798 27.344 64.2198 26.864C64.0918 26.384 63.9638 25.472 63.8358 24.128C63.6758 22.528 63.5958 20.304 63.5958 17.456V16.4V15.392C63.5958 12.768 63.4838 10.928 63.2598 9.872L62.8278 7.952H60.0918C58.8758 7.952 58.0598 7.904 57.6438 7.808C57.2598 7.712 56.8758 7.456 56.4918 7.04C55.8838 6.496 55.5798 5.904 55.5798 5.264C55.5798 4.592 55.8518 3.952 56.3958 3.344C56.9718 2.736 57.5638 2.432 58.1718 2.432Z" fill="#194DF5"/>
</svg>
