<svg width="167" height="164" viewBox="0 0 167 164" fill="none" xmlns="http://www.w3.org/2000/svg">
<circle cx="83" cy="80" r="80" fill="white"/>
<path d="M43 88.6788L95.2591 86.3588V75.9988L43.7978 75.1587C44.5957 68.9187 52.5742 46.1183 76.6692 41.7183C100.764 37.3182 114.009 53.8784 120.631 71.0787C127.253 88.2789 121.508 116.439 83.8499 119.799C53.7231 122.487 44.0638 101.506 43 88.6788Z" stroke="black" stroke-width="8" stroke-linejoin="round"/>
<path d="M61.5047 160.241C112.777 165.938 160.905 139.446 162.941 84.4769C164.502 42.3497 140.526 8.08643 90.9339 8.08643C47.9331 8.08643 13.5451 27.7288 4.52476 71.3277C-2.98898 107.645 18.4593 145.41 42.7201 151.475" stroke="black" stroke-width="6" stroke-linecap="round"/>
</svg>
