<svg width="102" height="105" viewBox="0 0 102 105" fill="none" xmlns="http://www.w3.org/2000/svg">
<path d="M91.603 50.8863C91.603 74.7223 72.2801 94.0451 48.4442 94.0451C24.6083 94.0451 5.2854 74.7223 5.2854 50.8863C5.2854 27.0504 24.6083 7.72754 48.4442 7.72754C72.2801 7.72754 91.603 27.0504 91.603 50.8863Z" fill="white"/>
<path d="M8.5486 51.637C12.7313 79.1001 33.2191 100.441 62.0944 93.8393C84.2241 88.7795 98.7044 71.5332 91.7927 45.7383C85.7995 23.3717 70.79 8.2226 46.855 9.60718C26.9178 10.7605 10.2637 27.1802 10.4902 40.6446" stroke="black" stroke-width="6" stroke-linecap="round"/>
<path d="M53.01 34.7974C47.8395 34.7974 43.6479 42.5816 43.6479 52.184C43.6479 61.7863 47.8395 69.5705 53.01 69.5705C58.1805 69.5705 62.372 61.7863 62.372 52.184C62.372 45.9896 60.6277 40.5518 58.0016 37.4722" stroke="black" stroke-width="6" stroke-linecap="round"/>
<path d="M48.7642 36.8595C48.7642 36.8595 39.1897 45.7197 37.4064 45.7197C35.6232 45.7197 27.5987 44.6052 26.4841 47.0572C25.3695 49.5091 25.3696 56.4192 26.4841 59.094C27.5986 61.7689 35.8461 59.9857 38.7439 61.7689C41.6416 63.5521 50.5579 69.1248 50.5579 69.1248" stroke="black" stroke-width="6"/>
<path d="M36.7378 46.1655C35.8461 48.3946 34.8654 54.5022 38.0752 61.1002" stroke="black" stroke-width="6"/>
<path d="M66.1611 38.1409L71.2879 34.3516M68.836 51.2923L75.5231 52.184M67.7215 64.6666L73.7399 68.9018" stroke="black" stroke-width="6" stroke-linecap="round" stroke-linejoin="round"/>
<path d="M53.0098 47.5029C53.9014 49.0633 55.1497 53.1647 53.0098 57.0878" stroke="black" stroke-width="6" stroke-linecap="round" stroke-linejoin="round"/>
</svg>
