<svg width="222" height="219" viewBox="0 0 222 219" fill="none" xmlns="http://www.w3.org/2000/svg">
<circle cx="111" cy="103" r="80" fill="white"/>
<path d="M179.737 69.2209C147.511 28.9375 94.7455 13.6388 54.4372 51.0679C23.5455 79.753 16.2713 120.934 51.3379 156.001C81.7441 186.407 119.949 196.834 157.157 172.383C188.15 152.016 199.688 110.146 186.821 88.7022" stroke="black" stroke-width="6" stroke-linecap="round"/>
<path d="M82.998 87.9598C83.1411 86.8154 87.4998 87.364 88.2691 87.2934C97.0826 86.484 105.806 85.0301 114.655 84.4458C126.408 83.6696 138.288 84.1428 150.068 84.1428" stroke="black" stroke-width="10" stroke-linecap="round"/>
<path d="M77 106.5H144.615" stroke="black" stroke-width="10" stroke-linecap="round"/>
<path d="M83.5439 127.22C88.3101 127.22 93.0763 127.22 97.8424 127.22C107.344 127.22 117.431 126.119 126.833 127.553C131.377 128.247 136.268 131.037 140.799 131.037" stroke="black" stroke-width="10" stroke-linecap="round"/>
</svg>
