<svg width="93" height="93" viewBox="0 0 93 93" fill="none" xmlns="http://www.w3.org/2000/svg">
<path fill-rule="evenodd" clip-rule="evenodd" d="M51.2553 87.1014C51.8304 86.5263 52.5698 86.1453 53.3654 85.9763C72.878 81.8338 87.5173 64.5059 87.5173 43.7588C87.5173 19.9228 68.1945 0.599976 44.3585 0.599976C20.5226 0.599976 1.19971 19.9228 1.19971 43.7588C1.19971 64.2257 15.4463 81.3651 34.5637 85.8013C35.3297 85.9791 36.0398 86.3541 36.5958 86.9101L41.1928 91.5071C42.7549 93.0692 45.2875 93.0692 46.8496 91.5071L51.2553 87.1014Z" fill="white"/>
<path d="M35.2546 85.9061C62.8644 88.9738 88.7812 74.7077 89.8775 45.1075C90.7177 22.4223 77.8068 3.9718 51.102 3.9718C27.9464 3.9718 9.42873 14.5491 4.57132 38.0268C0.52522 57.5831 12.075 77.9195 25.1392 81.1856" stroke="#6A8BF7" stroke-width="6" stroke-linecap="round"/>
<path d="M27.3997 21.6C28.8321 23.1537 29.76 25.1295 31.0363 26.7949C32.7874 29.0798 35.0137 31.1566 37.4544 32.6841C40.199 34.4017 43.1207 35.9461 46.3457 36.4126C47.9339 36.6423 50.2145 36.7904 51.6697 36.0538C53.5049 35.1248 55.258 34.1298 56.986 33.0039C61.0597 30.3497 63.8636 26.5462 65.3997 21.8808" stroke="#6A8BF7" stroke-width="6" stroke-linecap="round"/>
<path d="M34.0354 27.2598C35.1471 26.3383 36.3864 25.3736 37.6932 24.7408C38.8388 24.1861 40.0621 23.6461 41.3027 23.3467C42.2171 23.126 43.1802 23.1408 44.1116 23.0361C46.0129 22.8225 48.2649 22.675 50.1711 22.9671C51.7077 23.2026 53.9083 24.0266 55.0504 25.1687C55.9093 26.0276 56.8377 26.5279 57.39 27.6325" stroke="#6A8BF7" stroke-width="6" stroke-linecap="round"/>
<path d="M30.3085 31.1046C25.8998 39.6 27.8516 45.2314 27.8999 50.1C27.9482 54.9685 24.9668 62.0371 24.9668 62.0371C24.9668 62.0371 27.8514 60.1935 29.294 59.2558C30.0183 58.785 33.4142 64.6941 33.4142 64.6941C33.4142 64.6941 37.1437 61.5452 38.1417 61.9819C40.8992 63.1882 43.3998 71.6 45.3998 71.6C47.3998 71.6 50.7156 61.771 52.5373 61.7296C54.3591 61.6882 56.686 65.336 56.686 65.336C56.686 65.336 60.5683 59.3686 61.3376 58.4345C61.6767 58.0228 66.8998 62.6 66.8998 62.6C66.8998 62.6 64.3998 55.1 64.3998 47.6C64.3998 41.6 66.3998 37.6 62.4833 33.2165" stroke="#6A8BF7" stroke-width="6" stroke-linecap="round" stroke-linejoin="round"/>
<path d="M34.599 34.1864C34.3958 37.0312 33.3999 37.9286 35.8999 40.6C38.3999 42.1 41.4744 40.7367 42.0515 38.4286" stroke="#6A8BF7" stroke-width="6" stroke-linecap="round"/>
<path d="M49.3999 38.9568C50.1823 42.6081 54.3999 44.1 56.967 41.4537C59.5341 38.8073 57.8569 36.3798 56.967 34.6" stroke="#6A8BF7" stroke-width="6" stroke-linecap="round"/>
<path d="M41.8997 43.1C41.6156 46.6148 36.8997 47.1 36.8997 49.1C36.8997 50.6 44.1975 51.1 45.4001 60.6C46.8996 51.6 55.4001 50.1 55.4001 48.6326C55.4001 47.1653 50.8801 46.6 50.8801 42.556" stroke="#6A8BF7" stroke-width="6" stroke-linecap="round" stroke-linejoin="round"/>
</svg>
