<svg width="93" height="93" viewBox="0 0 93 93" fill="none" xmlns="http://www.w3.org/2000/svg">
<path fill-rule="evenodd" clip-rule="evenodd" d="M51.2553 87.1014C51.8304 86.5263 52.5698 86.1453 53.3654 85.9763C72.878 81.8338 87.5173 64.5059 87.5173 43.7588C87.5173 19.9228 68.1945 0.599976 44.3585 0.599976C20.5226 0.599976 1.19971 19.9228 1.19971 43.7588C1.19971 64.2257 15.4463 81.3651 34.5637 85.8013C35.3297 85.9791 36.0398 86.3541 36.5958 86.9101L41.1928 91.5071C42.7549 93.0692 45.2875 93.0692 46.8496 91.5071L51.2553 87.1014Z" fill="white"/>
<path d="M35.2549 85.906C62.8647 88.9738 88.7815 74.7077 89.8778 45.1075C90.718 22.4223 77.8071 3.97174 51.1023 3.97174C27.9467 3.97174 9.42898 14.549 4.57156 38.0267C0.525464 57.5831 12.0752 77.9195 25.1395 81.1855" stroke="#DB00FF" stroke-width="6" stroke-linecap="round"/>
<path d="M27.3999 21.6C28.8323 23.1537 29.7602 25.1295 31.0366 26.7949C32.7877 29.0798 35.014 31.1566 37.4546 32.6841C40.1993 34.4017 43.121 35.9461 46.346 36.4126C47.9342 36.6423 50.2148 36.7904 51.67 36.0538C53.5052 35.1248 55.2582 34.1298 56.9863 33.0039C61.0599 30.3497 63.8638 26.5462 65.3999 21.8808" stroke="#DB00FF" stroke-width="6" stroke-linecap="round"/>
<path d="M34.0356 27.2598C35.1474 26.3382 36.3867 25.3735 37.6934 24.7407C38.839 24.186 40.0624 23.6461 41.3029 23.3466C42.2173 23.1259 43.1804 23.1407 44.1118 23.0361C46.0132 22.8224 48.2652 22.675 50.1713 22.9671C51.708 23.2025 53.9086 24.0265 55.0507 25.1686C55.9095 26.0275 56.838 26.5279 57.3903 27.6325" stroke="#DB00FF" stroke-width="6" stroke-linecap="round"/>
<path d="M30.3085 31.1046C25.8998 39.6 27.8516 45.2314 27.8999 50.1C27.9482 54.9685 24.9668 62.0371 24.9668 62.0371C24.9668 62.0371 27.8514 60.1935 29.294 59.2558C30.0183 58.785 33.4142 64.6941 33.4142 64.6941C33.4142 64.6941 37.1437 61.5452 38.1417 61.9819C40.8992 63.1882 43.3998 71.6 45.3998 71.6C47.3998 71.6 50.7156 61.771 52.5373 61.7296C54.3591 61.6882 56.686 65.336 56.686 65.336C56.686 65.336 60.5683 59.3686 61.3376 58.4345C61.6767 58.0228 66.8998 62.6 66.8998 62.6C66.8998 62.6 64.3998 55.1 64.3998 47.6C64.3998 41.6 66.3998 37.6 62.4833 33.2165" stroke="#DB00FF" stroke-width="6" stroke-linecap="round" stroke-linejoin="round"/>
<path d="M34.599 34.1863C34.3958 37.0311 33.3999 37.9285 35.8999 40.5999C38.3999 42.0999 41.4744 40.7366 42.0515 38.4285" stroke="#DB00FF" stroke-width="6" stroke-linecap="round"/>
<path d="M49.3999 38.9568C50.1823 42.6081 54.3999 44.1 56.967 41.4537C59.5341 38.8073 57.8569 36.3798 56.967 34.6" stroke="#DB00FF" stroke-width="6" stroke-linecap="round"/>
<path d="M41.8994 43.1C41.6154 46.6148 36.8994 47.1 36.8994 49.1C36.8994 50.6 44.1972 51.1 45.3998 60.6C46.8994 51.6 55.3999 50.1 55.3999 48.6326C55.3999 47.1653 50.8798 46.6 50.8798 42.556" stroke="#DB00FF" stroke-width="6" stroke-linecap="round" stroke-linejoin="round"/>
</svg>
