<svg width="93" height="89" viewBox="0 0 93 89" fill="none" xmlns="http://www.w3.org/2000/svg">
<path d="M87.1174 43.1588C87.1174 66.9947 67.7945 86.3176 43.9586 86.3176C20.1227 86.3176 0.799805 66.9947 0.799805 43.1588C0.799805 19.3229 20.1227 0 43.9586 0C67.7945 0 87.1174 19.3229 87.1174 43.1588Z" fill="white"/>
<path d="M58.0117 85.3061C30.4019 88.3738 4.48514 74.1077 3.38884 44.5075C2.54865 21.8223 15.4595 3.37177 42.1643 3.37177C65.3199 3.37177 83.8376 13.949 88.695 37.4268C92.7411 56.9831 81.1914 77.3195 68.1271 80.5856" stroke="black" stroke-width="6" stroke-linecap="round"/>
<path d="M27 21C28.4324 22.5538 29.3603 24.5295 30.6367 26.1949C32.3877 28.4798 34.6141 30.5566 37.0547 32.0841C39.7993 33.8018 42.7211 35.3462 45.9461 35.8126C47.5343 36.0423 49.8149 36.1904 51.2701 35.4538C53.1053 34.5248 54.8583 33.5298 56.5864 32.4039C60.66 29.7498 63.4639 25.9462 65 21.2808" stroke="black" stroke-width="6" stroke-linecap="round"/>
<path d="M33.6357 26.6598C34.7475 25.7382 35.9867 24.7735 37.2935 24.1408C38.4391 23.5861 39.6624 23.0461 40.903 22.7467C41.8174 22.5259 42.7805 22.5408 43.7119 22.4361C45.6133 22.2225 47.8653 22.075 49.7714 22.3671C51.3081 22.6025 53.5087 23.4265 54.6508 24.5687C55.5096 25.4275 56.4381 25.9279 56.9904 27.0325" stroke="black" stroke-width="6" stroke-linecap="round"/>
<path d="M29.9086 30.5046C25.4999 39 27.4517 44.6315 27.5 49.5C27.5483 54.3685 24.5669 61.4371 24.5669 61.4371C24.5669 61.4371 27.4515 59.5935 28.8941 58.6558C29.6184 58.185 33.0143 64.0942 33.0143 64.0942C33.0143 64.0942 36.7438 60.9452 37.7418 61.3819C40.4993 62.5883 42.9999 71 44.9999 71C46.9999 71 50.3157 61.171 52.1374 61.1296C53.9591 61.0882 56.2861 64.736 56.2861 64.736C56.2861 64.736 60.1684 58.7687 60.9377 57.8345C61.2768 57.4228 66.4999 62 66.4999 62C66.4999 62 63.9999 54.5 63.9999 47C63.9999 41 65.9999 37 62.0834 32.6165" stroke="black" stroke-width="6" stroke-linecap="round" stroke-linejoin="round"/>
<path d="M34.1991 33.5864C33.9959 36.4312 33 37.3285 35.5 40C38 41.5 41.0745 40.1367 41.6516 37.8285" stroke="black" stroke-width="6" stroke-linecap="round"/>
<path d="M49 38.3568C49.7824 42.0081 54 43.5 56.5671 40.8537C59.1342 38.2074 57.457 35.7798 56.5671 34" stroke="black" stroke-width="6" stroke-linecap="round"/>
<path d="M41.4995 42.5C41.2155 46.0148 36.4995 46.5 36.4995 48.5C36.4995 50 43.7973 50.5 44.9999 60C46.4995 51 55 49.5 55 48.0326C55 46.5653 50.4799 46 50.4799 41.9561" stroke="black" stroke-width="6" stroke-linecap="round" stroke-linejoin="round"/>
</svg>
