<svg width="128" height="128" viewBox="0 0 128 128" fill="none" xmlns="http://www.w3.org/2000/svg">
<path d="M56.5105 27.5398C44.5402 34.9614 16.1403 57.457 21.7424 76.5702C27.1255 94.9359 53.5972 98.1646 66.3794 84.9829C73.8853 77.2425 67.4795 59.6297 58.6528 56.3197M69.2233 54.5551C66.7989 55.8386 65.5264 59.538 65.5264 61.9488M16.24 90.9694C18.9416 95.6486 23.1605 99.1233 27.2539 100.736M112 51.4157C110.294 46.0126 106.028 41.7471 102.779 39.4721M57.0793 27.5398C57.0793 27.5398 96.3843 39.5055 102.779 59.6738C105.426 68.0215 105.072 79.3702 92.8261 85.5517C80.5798 91.7331 67.862 83.6118 67.862 83.6118" stroke="black" stroke-width="8" stroke-linecap="round"/>
</svg>
