<svg width="102" height="105" viewBox="0 0 102 105" fill="none" xmlns="http://www.w3.org/2000/svg">
<path d="M91.6032 50.8864C91.6032 74.7223 72.2804 94.0452 48.4444 94.0452C24.6085 94.0452 5.28564 74.7223 5.28564 50.8864C5.28564 27.0505 24.6085 7.7276 48.4444 7.7276C72.2804 7.7276 91.6032 27.0505 91.6032 50.8864Z" fill="white"/>
<path d="M8.5486 51.637C12.7313 79.1001 33.2191 100.441 62.0944 93.8393C84.2241 88.7795 98.7044 71.5332 91.7927 45.7383C85.7995 23.3717 70.79 8.2226 46.855 9.60718C26.9178 10.7605 10.2637 27.1802 10.4902 40.6446" stroke="black" stroke-width="6" stroke-linecap="round"/>
<path d="M53.01 34.7974C47.8395 34.7974 43.6479 42.5816 43.6479 52.184C43.6479 61.7863 47.8395 69.5705 53.01 69.5705C58.1805 69.5705 62.372 61.7863 62.372 52.184C62.372 45.9896 60.6277 40.5518 58.0016 37.4722" stroke="black" stroke-width="6" stroke-linecap="round"/>
<path d="M48.7645 36.8595C48.7645 36.8595 39.1899 45.7197 37.4067 45.7197C35.6235 45.7197 27.5989 44.6052 26.4844 47.0572C25.3698 49.5091 25.3698 56.4192 26.4844 59.094C27.5989 61.7689 35.8464 59.9857 38.7441 61.7689C41.6419 63.5521 50.5582 69.1248 50.5582 69.1248" stroke="black" stroke-width="6"/>
<path d="M36.738 46.1655C35.8464 48.3946 34.8656 54.5022 38.0754 61.1002" stroke="black" stroke-width="6"/>
<path d="M66.1616 38.1409L71.2884 34.3516M68.8365 51.2923L75.5236 52.184M67.722 64.6666L73.7404 68.9018" stroke="black" stroke-width="6" stroke-linecap="round" stroke-linejoin="round"/>
<path d="M53.0098 47.503C53.9014 49.0633 55.1497 53.1648 53.0098 57.0879" stroke="black" stroke-width="6" stroke-linecap="round" stroke-linejoin="round"/>
</svg>
