<svg width="166" height="95" viewBox="0 0 166 95" fill="none" xmlns="http://www.w3.org/2000/svg">
<rect y="4.6416" width="166" height="86" rx="43" fill="white"/>
<path d="M38.8392 33.4171C38.175 38.8983 37.2716 43.8025 35.599 48.9971C34.6642 51.9005 34.1212 54.8581 33.4577 57.8296C32.9981 59.8875 32.2892 61.843 32.2461 63.9689C32.2323 64.651 31.6015 66.7154 32.4152 67.0385C34.7015 67.9464 37.941 67.5598 40.3326 67.5598C43.9789 67.5598 43.9148 62.262 44.4744 59.5092C44.7728 58.0414 45.2371 56.665 45.8269 55.3101C46.022 54.8619 45.8525 54.1714 46.2495 53.8043C46.7962 53.2986 49.805 53.7463 50.3913 53.7463C51.5822 53.7463 53.1221 54.0029 54.3078 53.7463C55.2473 53.543 56.0992 50.8367 56.4491 50.0396C56.9338 48.9356 57.3315 47.7915 57.8579 46.7093C57.973 46.4727 58.6771 45.1941 58.506 44.9428C58.1359 44.3995 54.2116 44.8849 53.5189 44.8849C52.2457 44.8849 50.9598 44.9372 49.6869 44.8849C48.7226 44.8452 50.4981 41.567 50.7013 41.0333C51.09 40.0122 51.2615 38.3691 52.5327 38.3691C54.0917 38.3691 55.6196 38.5772 57.1535 38.6297C58.3912 38.6721 59.7138 38.4471 60.9009 38.8324C61.2146 38.9343 60.9014 33.4647 61.4644 32.6931C61.8332 32.1878 63.2623 29.2863 62.9578 28.8416C62.6238 28.3538 60.2462 28.9052 59.9429 28.9574C58.0612 29.2813 56.2313 29.8397 54.3641 30.2316C51.2742 30.8802 48.1476 31.1453 45.0098 31.39C43.9517 31.4725 42.9399 31.8533 41.8822 31.8533" stroke="#020202" stroke-width="5" stroke-linecap="round"/>
<path d="M59.0342 64.1115C60.8879 60.2348 62.7773 56.3618 64.5308 52.4384C65.8956 49.3848 66.5887 46.0601 67.7265 42.9186C68.9937 39.42 70.2817 36.1445 72.584 33.2005C73.8527 31.5781 75.3451 30.5633 76.8165 29.1773C77.396 28.6314 78.7199 28.9223 79.4867 28.9223C84.1934 28.9223 84.1818 37.5101 84.4862 40.7937C84.9345 45.6277 84.257 50.523 84.6567 55.3567C84.8659 57.8866 84.8555 60.3966 84.8555 62.9357C84.8555 64.2674 82.6089 64.3665 81.4042 64.3665C79.875 64.3665 78.3457 64.3665 76.8165 64.3665C75.709 64.3665 76.2008 59.638 76.149 58.9408C76.0848 58.0769 75.2764 55.9517 74.3168 55.9517C72.7666 55.9517 72.1758 56.1505 71.3057 57.6516C70.6133 58.8462 70.0616 60.2164 69.6581 61.5332C69.4038 62.3633 68.7491 63.372 68.7491 64.239C68.7491 65.2539 63.0063 64.1115 62.1021 64.1115" stroke="#020202" stroke-width="5" stroke-linecap="round"/>
<path d="M74.885 41.162C74.885 43.1159 74.1637 44.5698 73.4079 46.3468C72.9628 47.3931 73.0838 47.5368 74.1322 47.5368C74.3941 47.5368 75.7662 47.7192 75.8792 47.3527C76.1336 46.5281 75.734 45.1006 75.652 44.3069C75.5172 43.0034 75.3963 41.7076 75.3963 40.397" stroke="#020202" stroke-width="5" stroke-linecap="round"/>
<path d="M105.571 30.2878C100.923 32.6138 94.782 34.8543 93.147 40.3335C92.2822 43.2319 91.8556 46.4155 91.6242 49.4168C91.1542 55.5103 92.6996 60.2014 96.9013 64.5154C101.687 69.4292 111.582 67.6397 115.869 62.9063C116.76 61.9219 117.835 60.9247 118.538 59.7933C118.949 59.1299 120.016 60.6728 120.271 60.9513C121.534 62.3251 122.51 63.9366 123.815 65.2673C124.106 65.5642 125.178 66.9405 125.669 66.8915C126.402 66.8184 126.761 65.9046 127.313 65.4177C128.828 64.0802 130.439 62.5295 132.258 61.5979C133.299 61.065 133.246 61.6095 132.092 60.3798C130.066 58.2208 128.335 54.8065 125.277 53.8682C123.541 53.3352 125.744 51.3078 126.197 50.5296C127.272 48.6828 128.037 46.5237 128.489 44.4541C129.253 40.9573 130.306 36.984 126.8 34.6791C123.877 32.7577 121.309 31.4753 117.784 30.8894C115.827 30.5641 113.944 30.5425 111.964 30.5585C108.661 30.5853 105.563 31.6413 102.314 31.6413" stroke="#020202" stroke-width="5" stroke-linecap="round"/>
<path d="M111.27 38.1379C107.83 39.9277 102.515 41.7377 100.595 45.4767C99.7681 47.0881 99.5722 49.2894 99.6606 51.071C99.8417 54.7247 101.031 57.6656 104.998 58.109C109.537 58.6164 112.566 57.226 114.889 53.0711C116.241 50.6533 116.94 45.8844 115.854 43.1758C114.378 39.4962 108.998 38.95 105.571 38.95" stroke="#020202" stroke-width="5" stroke-linecap="round"/>
<path d="M89.999 91.1416C73.1657 92.3083 36.399 92.8416 23.999 85.6416C8.49904 76.6416 -4.50022 49.1415 11.4998 26.1416C23.9991 8.17394 53.3728 4.14161 78 4.1416C105.501 4.14158 159 -7.35844 160.5 42.6416C161.55 77.6416 134.999 90.7991 109.499 91.1416" stroke="black" stroke-width="5" stroke-linecap="round"/>
</svg>
