<svg width="167" height="164" viewBox="0 0 167 164" fill="none" xmlns="http://www.w3.org/2000/svg">
<circle cx="83" cy="80" r="80" fill="white"/>
<path d="M73.643 46C61.6728 53.4216 33.2729 75.9172 38.875 95.0304C44.2581 113.396 70.7297 116.625 83.512 103.443C91.0178 95.7027 84.6121 78.0899 75.7854 74.7799M86.3558 73.0153C83.9315 74.2988 82.659 77.9982 82.659 80.409M33.3726 109.43C36.0741 114.109 40.2931 117.584 44.3864 119.196M129.132 69.8759C127.426 64.4729 123.161 60.2073 119.912 57.9323M74.2118 46C74.2118 46 113.517 57.9657 119.912 78.134C122.559 86.4817 122.205 97.8304 109.959 104.012C97.7124 110.193 84.9945 102.072 84.9945 102.072" stroke="black" stroke-width="8" stroke-linecap="round"/>
<path d="M61.5047 160.241C112.777 165.938 160.905 139.446 162.941 84.4769C164.502 42.3497 140.526 8.08643 90.9339 8.08643C47.9331 8.08643 13.5451 27.7288 4.52476 71.3277C-2.98898 107.645 18.4593 145.41 42.7201 151.475" stroke="black" stroke-width="6" stroke-linecap="round"/>
</svg>
