<svg width="93" height="93" viewBox="0 0 93 93" fill="none" xmlns="http://www.w3.org/2000/svg">
<path fill-rule="evenodd" clip-rule="evenodd" d="M51.056 86.5013C51.6311 85.9262 52.3704 85.5452 53.166 85.3763C72.6784 81.2336 87.3176 63.9058 87.3176 43.1588C87.3176 19.3229 67.9947 0 44.1588 0C20.3229 0 1 19.3229 1 43.1588C1 63.6259 15.2468 80.7654 34.3644 85.2014C35.1304 85.3792 35.8405 85.7542 36.3965 86.3103L40.9934 90.9071C42.5555 92.4692 45.0881 92.4692 46.6502 90.9071L51.056 86.5013Z" fill="white"/>
<path d="M54.6849 39.6368C50.132 43.3036 37.5751 50.1624 33.5611 50.2738C28.5435 50.413 22.2715 46.7927 25.4772 45.4003C28.6829 44.0078 58.2308 29.2481 61.8546 31.1975C65.4784 33.1469 60.0427 61.831 55.722 62.6664C52.2655 63.3348 45.2637 56.9701 41.8722 52.9784" stroke="#194DF5" stroke-width="6" stroke-linecap="round"/>
<path d="M35.0549 85.3061C62.6647 88.3738 88.5815 74.1077 89.6778 44.5075C90.518 21.8223 77.6071 3.37177 50.9023 3.37177C27.7467 3.37177 9.22902 13.949 4.37161 37.4268C0.325513 56.9831 11.8753 77.3195 24.9395 80.5856" stroke="#194DF5" stroke-width="6" stroke-linecap="round"/>
</svg>
