<svg width="93" height="93" viewBox="0 0 93 93" fill="none" xmlns="http://www.w3.org/2000/svg">
<path fill-rule="evenodd" clip-rule="evenodd" d="M51.056 86.5013C51.6311 85.9262 52.3704 85.5452 53.166 85.3763C72.6784 81.2336 87.3176 63.9058 87.3176 43.1588C87.3176 19.3229 67.9947 0 44.1588 0C20.3229 0 1 19.3229 1 43.1588C1 63.6259 15.2468 80.7654 34.3644 85.2014C35.1304 85.3792 35.8405 85.7542 36.3965 86.3103L40.9934 90.9071C42.5555 92.4692 45.0881 92.4692 46.6502 90.9071L51.056 86.5013Z" fill="white"/>
<path d="M54.6847 39.6369C50.1317 43.3036 37.5749 50.1624 33.5608 50.2738C28.5433 50.413 22.2713 46.7927 25.477 45.4003C28.6826 44.0079 58.2306 29.2481 61.8544 31.1975C65.4782 33.1469 60.0425 61.831 55.7218 62.6665C52.2652 63.3348 45.2634 56.9701 41.8719 52.9785" stroke="#FF00E5" stroke-width="6" stroke-linecap="round"/>
<path d="M35.0552 85.3061C62.665 88.3738 88.5818 74.1077 89.6781 44.5075C90.5182 21.8223 77.6074 3.37177 50.9026 3.37177C27.747 3.37177 9.22927 13.949 4.37186 37.4268C0.325757 56.9831 11.8755 77.3195 24.9398 80.5856" stroke="#FF00E5" stroke-width="6" stroke-linecap="round"/>
</svg>
