<svg width="106" height="102" viewBox="0 0 106 102" fill="none" xmlns="http://www.w3.org/2000/svg">
<path d="M93.9177 49.5588C93.9177 73.3947 74.5948 92.7176 50.7589 92.7176C26.923 92.7176 7.6001 73.3947 7.6001 49.5588C7.6001 25.7228 26.923 6.39996 50.7589 6.39996C74.5948 6.39996 93.9177 25.7228 93.9177 49.5588Z" fill="white"/>
<path d="M61.2848 46.0368C56.7318 49.7035 44.175 56.5623 40.1609 56.6737C35.1434 56.813 28.8714 53.1927 32.0771 51.8002C35.2827 50.4078 64.8307 35.648 68.4545 37.5974C72.0783 39.5468 66.6426 68.2309 62.3219 69.0664C58.8653 69.7348 51.8635 63.3701 48.472 59.3784" stroke="black" stroke-width="6" stroke-linecap="round"/>
<path d="M53.8673 8.57259C26.4043 12.7553 5.06297 33.2431 11.6651 62.1184C16.7249 84.2481 33.9712 98.7284 59.7661 91.8166C82.1327 85.8235 97.2818 70.8139 95.8972 46.879C94.7439 26.9418 78.3242 10.2877 64.8598 10.5142" stroke="black" stroke-width="6" stroke-linecap="round"/>
</svg>
