<svg width="93" height="93" viewBox="0 0 93 93" fill="none" xmlns="http://www.w3.org/2000/svg">
<path fill-rule="evenodd" clip-rule="evenodd" d="M51.2561 87.1012C51.8312 86.5261 52.5705 86.1451 53.3661 85.9762C72.8783 81.8334 87.5173 64.5056 87.5173 43.7588C87.5173 19.9228 68.1945 0.599976 44.3585 0.599976C20.5226 0.599976 1.19971 19.9228 1.19971 43.7588C1.19971 64.2259 15.4467 81.3656 34.5644 85.8015C35.3304 85.9792 36.0406 86.3543 36.5966 86.9103L41.1934 91.5071C42.7555 93.0692 45.2881 93.0692 46.8502 91.5071L51.2561 87.1012Z" fill="white"/>
<path d="M35.2549 85.906C62.8647 88.9738 88.7815 74.7077 89.8778 45.1075C90.718 22.4223 77.8071 3.97174 51.1023 3.97174C27.9467 3.97174 9.42898 14.549 4.57156 38.0267C0.525464 57.5831 12.0752 77.9195 25.1395 81.1855" stroke="#FF0086" stroke-width="6" stroke-linecap="round"/>
<path d="M50.0399 35.632C51.7359 34.064 52.9519 33.008 53.6879 32.464C54.4239 31.888 55.0479 31.6 55.5599 31.6C56.0399 31.6 56.5679 31.84 57.1439 32.32C57.7839 32.832 58.1039 33.52 58.1039 34.384C58.1039 34.96 57.7999 35.616 57.1919 36.352C56.6159 37.056 55.0319 38.688 52.4399 41.248C48.6319 44.992 46.7279 47.056 46.7279 47.44C46.7279 47.76 47.3519 48.864 48.5999 50.752C49.8479 52.64 51.0159 54.272 52.1039 55.648C53.1279 56.896 53.6399 57.872 53.6399 58.576C53.6399 59.12 53.3999 59.68 52.9199 60.256C52.4399 60.896 51.7359 61.216 50.8079 61.216C50.1359 61.216 49.4959 60.992 48.8879 60.544C48.3439 60.16 47.1279 58.624 45.2399 55.936C43.4159 53.344 42.4399 52.048 42.3119 52.048C42.1519 52.048 41.8959 52.336 41.5439 52.912C41.1919 53.456 41.0159 53.856 41.0159 54.112C41.0159 54.528 40.7599 54.992 40.2479 55.504C39.6399 56.112 38.9359 56.416 38.1359 56.416C37.5279 56.416 36.9839 56.224 36.5039 55.84C36.0239 55.456 35.7199 54.928 35.5919 54.256C35.5919 54.224 35.5759 54.176 35.5439 54.112C35.5439 54.048 35.5439 54 35.5439 53.968C35.5439 53.264 35.8639 52.256 36.5039 50.944C37.1759 49.6 37.9279 48.432 38.7599 47.44C39.2399 46.8 39.4799 46.304 39.4799 45.952C39.4799 45.376 38.7119 43.536 37.1759 40.432C35.9919 38.192 35.3999 36.72 35.3999 36.016C35.3999 35.472 35.7039 34.896 36.3119 34.288C36.9519 33.68 37.5439 33.376 38.0879 33.376C38.8239 33.376 39.5119 33.728 40.1519 34.432C40.7919 35.136 41.5279 36.32 42.3599 37.984C43.3519 40.032 44.0879 41.056 44.5679 41.056C44.7919 41.056 45.0319 40.832 45.2879 40.384C45.4799 40.032 47.0639 38.448 50.0399 35.632Z" fill="#FF0086"/>
</svg>
