<svg width="93" height="89" viewBox="0 0 93 89" fill="none" xmlns="http://www.w3.org/2000/svg">
<path d="M87.1174 43.1588C87.1174 66.9947 67.7945 86.3176 43.9586 86.3176C20.1227 86.3176 0.799805 66.9947 0.799805 43.1588C0.799805 19.3229 20.1227 0 43.9586 0C67.7945 0 87.1174 19.3229 87.1174 43.1588Z" fill="white"/>
<path d="M34.855 85.3061C62.4648 88.3738 88.3816 74.1077 89.4779 44.5075C90.3181 21.8223 77.4072 3.37177 50.7024 3.37177C27.5468 3.37177 9.02907 13.949 4.17166 37.4268C0.125562 56.9831 11.6753 77.3195 24.7396 80.5856" stroke="black" stroke-width="6" stroke-linecap="round"/>
<path d="M49.64 35.032C51.336 33.464 52.552 32.408 53.288 31.864C54.024 31.288 54.648 31 55.16 31C55.64 31 56.168 31.24 56.744 31.72C57.384 32.232 57.704 32.92 57.704 33.784C57.704 34.36 57.4 35.016 56.792 35.752C56.216 36.456 54.632 38.088 52.04 40.648C48.232 44.392 46.328 46.456 46.328 46.84C46.328 47.16 46.952 48.264 48.2 50.152C49.448 52.04 50.616 53.672 51.704 55.048C52.728 56.296 53.24 57.272 53.24 57.976C53.24 58.52 53 59.08 52.52 59.656C52.04 60.296 51.336 60.616 50.408 60.616C49.736 60.616 49.096 60.392 48.488 59.944C47.944 59.56 46.728 58.024 44.84 55.336C43.016 52.744 42.04 51.448 41.912 51.448C41.752 51.448 41.496 51.736 41.144 52.312C40.792 52.856 40.616 53.256 40.616 53.512C40.616 53.928 40.36 54.392 39.848 54.904C39.24 55.512 38.536 55.816 37.736 55.816C37.128 55.816 36.584 55.624 36.104 55.24C35.624 54.856 35.32 54.328 35.192 53.656C35.192 53.624 35.176 53.576 35.144 53.512C35.144 53.448 35.144 53.4 35.144 53.368C35.144 52.664 35.464 51.656 36.104 50.344C36.776 49 37.528 47.832 38.36 46.84C38.84 46.2 39.08 45.704 39.08 45.352C39.08 44.776 38.312 42.936 36.776 39.832C35.592 37.592 35 36.12 35 35.416C35 34.872 35.304 34.296 35.912 33.688C36.552 33.08 37.144 32.776 37.688 32.776C38.424 32.776 39.112 33.128 39.752 33.832C40.392 34.536 41.128 35.72 41.96 37.384C42.952 39.432 43.688 40.456 44.168 40.456C44.392 40.456 44.632 40.232 44.888 39.784C45.08 39.432 46.664 37.848 49.64 35.032Z" fill="black"/>
</svg>
