<svg width="948" height="325" viewBox="0 0 948 325" fill="none" xmlns="http://www.w3.org/2000/svg">
<path d="M202.138 21.5462V112.273" stroke="black" stroke-width="7" stroke-linecap="round"/>
<path d="M277.519 161.474V252.2" stroke="black" stroke-width="7" stroke-linecap="round"/>
<path d="M201 113.752C212.795 113.752 224.591 113.752 236.386 113.752C239.536 113.752 239.083 112.995 239.027 109.923C238.96 106.239 237.988 102.681 237.245 99.0961C236.483 95.4208 236.893 91.769 236.518 88.0708C236.064 83.5815 235.926 79.0752 235.429 74.6029C235.204 72.575 233.684 68.9228 236.122 67.7039C246.425 62.5525 262.201 58.6369 267.217 47.1718C271.02 38.4813 266.455 25.7685 258.899 20.7311C251.174 15.5809 244.173 12.7427 234.835 12.7427C231.745 12.7427 228.835 13.1218 225.823 13.3369C222.811 13.5521 218.046 13.6444 215.26 14.6573C212.744 15.5723 205.259 15.5149 203.971 18.0903" stroke="black" stroke-width="7" stroke-linecap="round"/>
<path d="M276.381 253.68C288.176 253.68 289.972 253.68 301.767 253.68C304.917 253.68 304.464 252.922 304.408 249.851C304.189 237.794 305.733 225.096 304.408 213.17C304.183 211.142 309.065 208.85 311.503 207.631C321.806 202.48 337.582 198.564 342.598 187.099C346.4 178.409 341.836 165.696 334.28 160.659C326.555 155.508 319.554 152.67 310.216 152.67C307.126 152.67 304.216 153.049 301.204 153.264C298.192 153.479 293.427 153.572 290.641 154.585C288.125 155.5 280.639 155.442 279.352 158.018" stroke="black" stroke-width="7" stroke-linecap="round"/>
<path d="M283.659 112.391C283.659 87.637 283.659 62.8835 283.659 38.1299C283.659 33.6508 280.986 15.1833 286.404 14.6997C297.59 13.701 308.318 12.3403 319.691 12.7425C327.736 13.0271 339.055 22.8427 340.809 30.0775C342.763 38.1344 341.652 45.9041 335.798 52.3893C331.974 56.6251 327.513 60.4557 321.719 62.0074C315.678 63.6255 322.737 68.6392 325.06 71.9051C329.599 78.2864 333.533 84.9929 337.826 91.4768C339.677 94.272 349.022 105.156 347.908 108.812C347.341 110.672 326.595 109.371 324.523 109.371C319.346 109.371 316.813 111.692 313.964 106.351C311.713 102.131 310.124 97.4977 308.118 93.2662C307.803 92.6014 306.413 87.8734 305.374 90.4703C304.407 92.8877 303.541 96.3139 303.047 98.8582C302.239 103.027 302.021 107.762 300.78 111.831C300.332 113.303 288.588 112.391 286.881 112.391" stroke="black" stroke-width="7" stroke-linecap="round"/>
<path d="M113.04 252.391C113.04 227.637 113.04 202.883 113.04 178.13C113.04 173.651 110.367 155.183 115.784 154.7C126.971 153.701 137.699 152.34 149.072 152.743C157.117 153.027 168.436 162.843 170.19 170.078C172.143 178.134 171.033 185.904 165.179 192.389C161.355 196.625 156.894 200.456 151.1 202.007C145.059 203.625 152.118 208.639 154.441 211.905C158.979 218.286 162.914 224.993 167.207 231.477C169.058 234.272 178.403 245.156 177.289 248.812C176.722 250.672 155.976 249.371 153.904 249.371C148.727 249.371 146.194 251.692 143.345 246.351C141.094 242.131 139.505 237.498 137.499 233.266C137.184 232.601 135.794 227.873 134.755 230.47C133.788 232.888 132.922 236.314 132.428 238.858C131.62 243.027 131.402 247.762 130.161 251.831C129.713 253.303 117.969 252.391 116.262 252.391" stroke="black" stroke-width="7" stroke-linecap="round"/>
<path d="M227.424 36.5073C227.424 39.741 227.974 42.5458 228.775 45.6633C229.16 47.1595 228.631 48.1519 230.433 47.4968C232.76 46.6506 235.358 45.9185 237.79 45.44C239.622 45.0797 241.343 44.2083 242.186 42.4311C243.833 38.9604 242.474 34.3471 238.507 33.4514C235.226 32.7103 231.766 33.5955 228.905 35.0263" stroke="black" stroke-width="7" stroke-linecap="round"/>
<path d="M302.805 176.435C302.805 179.668 303.355 182.473 304.156 185.591C304.541 187.087 304.012 188.079 305.814 187.424C308.141 186.578 310.739 185.846 313.171 185.367C315.002 185.007 316.724 184.136 317.567 182.358C319.214 178.888 317.855 174.275 313.888 173.379C310.607 172.638 307.147 173.523 304.286 174.954" stroke="black" stroke-width="7" stroke-linecap="round"/>
<path d="M305.488 33.9685C305.488 37.0783 305.444 40.1913 305.488 43.3008C305.496 43.8732 305.7 44.403 305.7 44.9698C305.7 45.6307 306.257 45.356 306.781 45.2871C311.334 44.688 316.257 44.2989 319.287 40.4329C320.019 39.4991 320.918 38.5072 320.674 37.236C320.258 35.0722 317.124 34.0856 315.338 33.6511C312.933 33.0661 309.397 32.8604 307.181 33.9685" stroke="black" stroke-width="7" stroke-linecap="round"/>
<path d="M134.869 173.968C134.869 177.078 134.825 180.191 134.869 183.301C134.877 183.873 135.081 184.403 135.081 184.97C135.081 185.631 135.638 185.356 136.162 185.287C140.715 184.688 145.638 184.299 148.668 180.433C149.4 179.499 150.299 178.507 150.055 177.236C149.639 175.072 146.505 174.086 144.719 173.651C142.313 173.066 138.778 172.86 136.562 173.968" stroke="black" stroke-width="7" stroke-linecap="round"/>
<path d="M364.023 16.0668C364.023 41.9821 364.023 67.8974 364.023 93.8127C364.023 97.4028 363.957 101.003 364.048 104.592C364.054 104.824 364.044 110.967 364.713 111.15C366.205 111.558 368.466 111.173 370.008 111.173C373.574 111.173 377.183 111.463 380.748 111.622C384.303 111.78 387.776 112.627 391.314 112.966C394.249 113.247 397.271 113.424 400.182 113.815C405.531 114.534 410.843 114.57 416.241 114.57C417.073 114.57 419 115.05 419 113.91C419 112.156 419 110.403 419 108.649C419 105.302 418.113 102.012 418.113 98.6246C418.113 97.4781 418.807 94.1901 417.227 94.1901C413.973 94.1901 410.819 93.8277 407.571 93.7655C405.479 93.7254 403.099 93.5225 401.044 93.105C398.97 92.6838 396.949 91.432 394.861 91.2416C393.46 91.1137 389.243 91.546 388.211 90.5575C387.62 89.992 388.048 88.5612 387.866 87.8213C387.418 85.997 387.521 84.1805 387.521 82.3017C387.521 78.1974 387.521 74.0931 387.521 69.9888C387.521 66.6578 406.62 71.4189 407.005 70.1304C407.932 67.0207 408.058 63.4785 408.704 60.3178C408.969 59.0192 409.533 54.9828 407.891 54.4916C405.006 53.628 401.071 54.2793 398.063 54.2793C394.793 54.2793 391.132 54.7519 387.965 53.9491C385.742 53.3857 386.191 52.2991 386.191 50.2457C386.191 45.7842 386.635 41.322 386.635 36.895C386.635 33.5868 390.013 34.7485 392.792 34.7485C398.151 34.7485 403.281 36.0222 408.655 36.0222C409.292 36.0222 415.659 36.4987 415.872 35.7863C416.982 32.0661 416.34 27.6634 416.34 23.8037C416.34 21.8019 417.42 16.6133 415.798 14.8874C414.389 13.388 411.582 13.9439 409.689 13.9439C400.075 13.9439 390.461 13.9439 380.846 13.9439C376.753 13.9439 372.86 12.6702 368.9 12.6702" stroke="black" stroke-width="7" stroke-linecap="round"/>
<path d="M438 114.67C438 109.539 439.187 104.591 439.187 99.477C439.187 93.0897 439.187 86.7023 439.187 80.315C439.187 70.0679 439.781 59.9214 439.781 49.6806C439.781 38.7476 440.375 27.4589 440.375 16.7207C440.375 13.4663 451.767 13.7478 454.293 13.527C463.772 12.698 474.409 12.2513 483.91 13.2169C497.359 14.5838 511.614 19.367 511.614 34.1773C511.614 40.7461 513.655 49.6227 508.349 54.6106C504.199 58.5123 495.897 59.8413 490.275 60.5018C486.115 60.9907 481.315 62.2786 477.479 63.8815C476.463 64.306 474.609 64.9431 473.62 64.9978C471.058 65.1394 470.851 64.6023 470.619 67.2302C469.878 75.5833 467.925 83.9213 467.683 92.3455C467.55 96.9891 467.683 101.653 467.683 106.298C467.683 107.305 468.146 109.584 467.617 110.453C467.023 111.431 461.361 112.16 460.295 112.314C455.298 113.036 449.511 114.112 444.53 114.112" stroke="black" stroke-width="7" stroke-linecap="round"/>
<path d="M467 37.3274C467 39.5447 467 41.762 467 43.9793C467 46.235 467.659 45.7572 469.769 45.2344C474.136 44.1523 478.949 44.7823 480.373 40.1513C481.502 36.4795 481.42 35.194 477.468 34.0642C474.648 33.2579 470.573 33.9387 467.608 33.9387" stroke="black" stroke-width="7" stroke-linecap="round"/>
<path d="M506 117.67C506.358 111.275 509.835 104.662 511.114 98.4048C512.584 91.216 515.29 84.5887 517.071 77.566C520.421 64.3564 523.621 50.7293 527.66 37.8456C529.765 31.1332 531.654 24.4503 533.497 17.6592C535.565 10.0353 542.949 14.0517 548.057 14.0517C550.81 14.0517 553.611 14.2364 556.361 14.0517C558.742 13.8918 561.327 12.6702 563.671 12.6702C565.88 12.6702 567.683 19.3043 568.755 21.7272C572.139 29.3738 576.242 36.3164 579.916 43.7173C582.707 49.3388 583.949 56.0296 586.655 61.6395C589.106 66.721 590.921 72.9719 592.642 78.5254C595.062 86.3355 597.516 94.0621 599.802 101.936C600.457 104.193 602.259 105.236 599.561 105.236C595.63 105.236 591.699 105.236 587.768 105.236C584.012 105.236 580.437 105.927 576.697 105.927C574.739 105.927 572.636 107.125 570.711 106.579C569.091 106.12 567.577 100.081 566.92 98.4048C565.909 95.8245 565.313 93.2871 564.363 90.7294C563.569 88.5915 563.381 85.2559 562.016 83.5145C560.886 82.0731 556.163 83.1307 554.736 83.1307C552.57 83.1307 550.404 83.1307 548.238 83.1307C546.472 83.1307 545.318 88.224 544.989 90.1153C544.076 95.3538 541.785 100.373 540.627 105.543C539.286 111.528 530.29 109.94 526.818 110.609C521.83 111.569 516.488 111.453 511.415 111.453" stroke="black" stroke-width="7" stroke-linecap="round"/>
<path d="M549.241 47.2594C549.144 47.8747 544.011 58.5094 545.17 59.0977C547.664 60.3627 552.416 59.1365 555.055 59.1365C557.958 59.1365 562.095 60.1174 564.909 59.0977C565.856 58.7545 559.135 48.6677 558.482 47.2594C557.81 45.8096 555.862 42.3759 554.749 41.6702" stroke="black" stroke-width="7" stroke-linecap="round"/>
<path d="M615.351 50.7057C615.351 60.8326 615.351 70.9596 615.351 81.0865C615.351 86.3695 615.351 91.6526 615.351 96.9356C615.351 99.0049 615.039 101.062 616.092 102.905C617.572 105.494 631.993 102.903 634.617 102.575C636.256 102.37 638.362 100.796 640.174 100.394C643.784 99.5914 642.768 98.6471 642.768 94.4656C642.768 80.373 642.768 66.2803 642.768 52.1877C642.768 50.5772 644.696 48.126 642.356 47.7006C638.678 47.0318 635.431 46.2597 631.612 46.2597C627.433 46.2597 622.842 45.5187 619.056 45.5187" stroke="black" stroke-width="7" stroke-linecap="round"/>
<path d="M624.243 6.24594C622.849 6.24594 617.574 5.38481 617.574 7.35743C617.574 10.6972 616.204 13.8876 616.997 17.3609C618.829 25.3717 630.709 28.3433 637.539 24.3592C641.277 22.1787 643.1 12.7367 640.833 9.20992C637.07 3.35622 627.984 4.02295 622.02 4.02295" stroke="black" stroke-width="7" stroke-linecap="round"/>
<path d="M660 69.7008C660 48.3506 661.859 35.0842 661.859 13.6702C675.62 13.6702 689.371 15.1991 702.146 21.9924C710.493 26.4316 717.929 31.0724 724.458 38.8839C727.772 42.8487 731.895 48.0627 731.895 54.0452C731.895 61.8031 732.722 70.2764 729.726 77.4462C727.759 82.1528 724.563 84.8583 721.497 88.4051C718.484 91.8902 714.336 96.352 710.513 98.54C706.634 100.759 702.864 102.99 698.702 104.308C695.865 105.207 692.943 104.505 690.06 105.255C684.274 106.76 677.011 106.971 671.087 106.327C669.042 106.104 662.949 106.81 661.377 104.72C660.987 104.201 660.836 100.785 660.654 100.023C659.854 96.674 660.62 91.6688 660.62 88.1991C660.62 82.0316 660 75.9516 660 69.7008Z" stroke="black" stroke-width="7" stroke-linecap="round"/>
<path d="M681.611 41.6702C681.611 44.7969 680.593 76.5321 682.223 76.7921C686.46 77.4683 691.071 77.6702 695.333 77.6702C697.979 77.6702 702.266 75.9206 703.281 71.9628C705.973 61.4686 706.15 51.2977 699.036 45.6214C694.07 41.6593 686.534 42.5482 681 42.5482" stroke="black" stroke-width="7" stroke-linecap="round"/>
<path d="M78.6135 190.711C83.4761 190.711 88.3386 190.711 93.2011 190.711C98.9298 190.711 97.1049 186.359 97.1049 181.412C97.1049 166.388 83.5522 155.218 69.3678 151.862C62.7333 150.292 55.8686 150.725 49.0787 150.725C34.1411 150.725 20.5869 161 11.6337 172.578C-2.21791 190.49 3.94379 227.539 20.7766 241.391C33.2907 251.689 60.2211 258.229 75.3775 249.761C87.4593 243.01 88.7536 238.04 91.5061 225.583C92.6607 220.357 90.2616 220.468 86.0101 220.468C82.4659 220.468 78.9217 220.468 75.3775 220.468C72.441 220.468 69.9449 222.608 67.7242 224.395C56.5315 233.4 33.1397 221.11 32.3851 207.45C31.7957 196.78 38.0425 180.482 51.3388 180.482C63.2331 180.482 66.207 182.223 73.0661 192.571" stroke="black" stroke-width="7" stroke-linecap="round"/>
<path d="M794.659 246.391C794.659 221.637 794.659 196.883 794.659 172.13C794.659 167.651 791.986 149.183 797.404 148.7C808.59 147.701 819.318 146.34 830.691 146.743C838.736 147.027 850.055 156.843 851.809 164.078C853.763 172.134 852.652 179.904 846.798 186.389C842.974 190.625 838.513 194.456 832.719 196.007C826.678 197.625 833.737 202.639 836.06 205.905C840.599 212.286 844.533 218.993 848.826 225.477C850.677 228.272 860.022 239.156 858.908 242.812C858.341 244.672 837.595 243.371 835.523 243.371C830.346 243.371 827.813 245.692 824.964 240.351C822.713 236.131 821.124 231.498 819.118 227.266C818.803 226.601 817.413 221.873 816.374 224.47C815.407 226.888 814.541 230.314 814.047 232.858C813.239 237.027 813.021 241.762 811.78 245.831C811.332 247.303 799.588 246.391 797.881 246.391" stroke="black" stroke-width="7" stroke-linecap="round"/>
<path d="M816.488 167.968C816.488 171.078 816.444 174.191 816.488 177.301C816.496 177.873 816.7 178.403 816.7 178.97C816.7 179.631 817.257 179.356 817.781 179.287C822.334 178.688 827.257 178.299 830.287 174.433C831.019 173.499 831.918 172.507 831.674 171.236C831.258 169.072 828.124 168.086 826.338 167.651C823.933 167.066 820.397 166.86 818.181 167.968" stroke="black" stroke-width="7" stroke-linecap="round"/>
<path d="M686 253.67C686.358 247.275 689.835 240.662 691.114 234.405C692.584 227.216 695.29 220.589 697.071 213.566C700.421 200.356 703.621 186.729 707.66 173.846C709.765 167.133 711.654 160.45 713.497 153.659C715.565 146.035 722.949 150.052 728.057 150.052C730.81 150.052 733.611 150.236 736.361 150.052C738.742 149.892 741.327 148.67 743.671 148.67C745.88 148.67 747.683 155.304 748.755 157.727C752.139 165.374 756.242 172.316 759.916 179.717C762.707 185.339 763.949 192.03 766.655 197.639C769.106 202.721 770.921 208.972 772.642 214.525C775.062 222.336 777.516 230.062 779.802 237.936C780.457 240.193 782.259 241.236 779.561 241.236C775.63 241.236 771.699 241.236 767.768 241.236C764.012 241.236 760.437 241.927 756.697 241.927C754.739 241.927 752.636 243.125 750.711 242.579C749.091 242.12 747.577 236.081 746.92 234.405C745.909 231.825 745.313 229.287 744.363 226.729C743.569 224.592 743.381 221.256 742.016 219.514C740.886 218.073 736.163 219.131 734.736 219.131C732.57 219.131 730.404 219.131 728.238 219.131C726.472 219.131 725.318 224.224 724.989 226.115C724.076 231.354 721.785 236.373 720.627 241.543C719.286 247.528 710.29 245.94 706.818 246.609C701.83 247.569 696.488 247.453 691.415 247.453" stroke="black" stroke-width="7" stroke-linecap="round"/>
<path d="M729.241 183.259C729.144 183.875 724.011 194.509 725.17 195.098C727.664 196.363 732.416 195.137 735.055 195.137C737.958 195.137 742.095 196.117 744.909 195.098C745.856 194.755 739.135 184.668 738.482 183.259C737.81 181.81 735.862 178.376 734.749 177.67" stroke="black" stroke-width="7" stroke-linecap="round"/>
<path d="M872 205.701C872 184.351 873.859 171.084 873.859 149.67C887.62 149.67 901.371 151.199 914.146 157.992C922.493 162.432 929.929 167.072 936.458 174.884C939.772 178.849 943.895 184.063 943.895 190.045C943.895 197.803 944.722 206.276 941.726 213.446C939.759 218.153 936.563 220.858 933.497 224.405C930.484 227.89 926.336 232.352 922.513 234.54C918.634 236.759 914.864 238.99 910.702 240.308C907.865 241.207 904.943 240.505 902.06 241.255C896.274 242.76 889.011 242.971 883.087 242.327C881.042 242.104 874.949 242.81 873.377 240.72C872.987 240.201 872.836 236.785 872.654 236.023C871.854 232.674 872.62 227.669 872.62 224.199C872.62 218.032 872 211.952 872 205.701Z" stroke="black" stroke-width="7" stroke-linecap="round"/>
<path d="M893.611 177.67C893.611 180.797 892.593 212.532 894.223 212.792C898.46 213.468 903.071 213.67 907.333 213.67C909.979 213.67 914.266 211.921 915.281 207.963C917.973 197.469 918.15 187.298 911.036 181.621C906.07 177.659 898.534 178.548 893 178.548" stroke="black" stroke-width="7" stroke-linecap="round"/>
<path d="M667.614 183.711C672.476 183.711 677.339 183.711 682.201 183.711C687.93 183.711 686.105 179.359 686.105 174.412C686.105 159.388 672.552 148.218 658.368 144.862C651.733 143.292 644.869 143.725 638.079 143.725C623.141 143.725 609.587 154 600.634 165.578C586.782 183.49 592.944 220.539 609.777 234.391C622.291 244.689 649.221 251.229 664.378 242.761C676.459 236.01 677.754 231.04 680.506 218.583C681.661 213.357 679.262 213.468 675.01 213.468C671.466 213.468 667.922 213.468 664.378 213.468C661.441 213.468 658.945 215.608 656.724 217.395C645.531 226.4 622.14 214.11 621.385 200.45C620.796 189.78 627.043 173.482 640.339 173.482C652.233 173.482 655.207 175.223 662.066 185.571" stroke="black" stroke-width="7" stroke-linecap="round"/>
<path d="M359.381 155.67H438.381" stroke="black" stroke-width="7" stroke-linecap="round"/>
<path d="M441.926 152.67C441.926 159.003 441.926 165.336 441.926 171.67C441.926 173.781 443.064 182.118 441.74 183.557C439.419 186.079 429.22 182.846 426.314 182.846C420.991 182.846 415.916 183.433 410.796 183.76C407.464 183.973 409.113 228.479 409.113 234.764C409.113 240.623 409.113 246.482 409.113 252.341C409.113 254.769 409.555 255.998 407.01 255.998C403.288 255.998 399.725 255.814 396.119 256.71C394.374 257.143 382.276 258.516 382.189 256.913C381.698 247.845 381.348 238.786 381.348 229.684C381.348 216.908 383.031 204.582 383.031 191.99C383.031 186.424 378.281 188.332 373.963 188.332C369.777 188.332 366.083 187.418 361.996 187.418C357.015 187.418 358.631 180.795 358.631 176.953C358.631 170.687 358.631 164.422 358.631 158.157" stroke="black" stroke-width="7" stroke-linecap="round"/>
<path d="M492.236 161.376C490.259 158.234 481.198 161.729 478.762 162.679C473.159 164.864 467.343 169.641 463.269 174.054C457.17 180.66 455.291 189.241 452.722 197.404C447.499 213.997 458.43 233.413 470.031 244.356C476.351 250.317 488.483 250.67 496.829 250.67C506.007 250.67 519.28 245.887 526.049 239.646C537.124 229.435 540.381 220.328 540.381 205.021C540.381 192.546 539.631 181.377 530.389 172.2C520.754 162.634 510.263 158.67 496.778 158.67" stroke="black" stroke-width="7" stroke-linecap="round"/>
<path d="M480.42 213.722C480.064 207.379 482.013 189.67 490.842 189.67C499.969 189.67 506.621 190.568 512.585 197.942C513.938 199.615 513.259 208.718 512.778 210.858C512.056 214.074 507.797 221.027 504.737 222.63C498.743 225.768 480.858 221.52 480.42 213.722Z" stroke="black" stroke-width="7" stroke-linecap="round"/>
<path d="M235.157 222.38C234.312 222.954 233.309 223.366 232.698 224.104C231.138 225.985 229.143 226.304 226.707 226.008C227.791 227.394 228.621 228.73 229.715 229.795C231.901 231.924 232.26 234.91 233.577 237.438C233.306 239.907 233.836 242.361 233.116 244.884C231.408 250.87 230.456 252.444 228.175 256.034C226.179 259.176 223.926 262.088 221.438 264.839C220.177 266.234 220.007 267.24 220.938 268.92C222.011 270.859 223.297 272.681 224.361 274.626C225.265 276.279 226.257 277.889 227.12 279.55C227.993 281.232 228.903 282.864 229.953 284.439C230.627 285.449 231.056 286.619 231.665 287.677C232.122 288.471 232.691 289.201 233.156 289.881H235.959C236.34 290.262 236.713 290.635 237.086 291.008C238.596 297.354 238.787 302.45 237.702 307.099C237.16 307.29 236.52 307.352 236.103 307.689C234.226 309.209 232.024 310.13 229.903 311.202C229.616 311.347 229.286 311.46 228.969 311.483C228.049 311.547 227.157 311.443 226.25 311.954C225.841 312.185 225.022 311.69 224.425 311.533C223.716 310.588 223.468 309.58 223.542 308.444C223.61 307.394 223.548 306.336 223.558 305.281C223.569 304.272 223.785 303.313 224.006 302.319C224.539 299.916 223.577 297.618 222.221 295.74C219.26 291.639 216.326 287.54 213.859 283.111C212.785 281.183 211.877 279.168 210.544 277.21C210.426 277.452 210.28 277.751 209.872 278.587C209.928 279.565 209.562 281.13 208.942 282.73C208.551 283.736 208.362 284.995 208.298 286.143C208.184 288.166 207.404 290.017 206.891 291.915C206.614 292.942 207.232 294.211 206.151 295.022C205.934 296.876 205.718 298.73 205.508 300.528C207.917 302.747 208.731 305.487 208.783 308.52C208.812 310.189 208.698 311.865 208.817 313.526C208.912 314.858 209.261 316.172 209.446 317.206C208.829 318.103 208.405 318.719 207.855 319.519C207.361 319.336 206.76 319.113 206.203 318.906C206.034 317.32 206.508 315.787 205.241 314.627C203.619 314.862 203.792 316.456 203.598 317.378C203.019 320.122 201.749 321.971 199.102 323.17C197.234 324.017 195.538 325.052 192.99 324.528C191.805 324.091 190.784 322.979 190.424 321.908C190.61 320.284 190.776 319.214 190.847 318.137C191.047 315.136 190.903 312.072 191.483 309.149C191.912 306.987 191.54 304.838 191.967 302.769C192.481 300.284 192.379 297.815 192.461 295.331C192.476 294.872 192.794 294.423 192.987 293.931C192.837 293.746 192.678 293.55 192.599 293.452C192.727 292.31 192.988 291.24 192.928 290.188C192.857 288.96 193.271 287.865 193.487 286.712C193.702 285.562 193.074 284.301 193.995 283.22C194.169 283.016 194.024 282.538 194.019 282.186C193.997 280.409 194.427 278.718 194.969 277.044C195.072 276.729 195.043 276.371 195.075 276.033C195.251 274.172 195.253 272.273 195.658 270.463C195.975 269.044 196.468 267.641 196.886 266.232C197.228 265.077 197.33 263.857 198.068 262.752C198.502 262.102 198.41 260.821 198.094 260.002C197.276 257.885 196.581 255.779 196.657 253.481C194.936 248.896 195.661 244.115 195.677 239.418C195.684 237.409 196.678 235.422 196.925 233.389C197.171 231.366 198.42 229.776 198.918 227.861C199.213 226.726 199.288 225.919 198.885 224.775C197.963 222.157 197.388 219.417 196.646 216.734C196.539 216.347 196.287 216 196.249 215.924C194.037 215.171 192.108 214.515 190.093 213.829C187.584 212.133 185.811 209.703 184.578 206.509C183.962 203.158 184.954 199.768 187.147 196.904C189.319 194.068 192.457 192.39 196.109 190.937C196.732 190.463 197.676 189.746 198.686 188.979C199.042 187.673 198.506 186.6 197.617 185.617C197.103 185.048 196.656 184.416 196.12 183.871C195.68 183.425 195.075 183.131 194.677 182.657C193.37 181.105 192.125 179.502 190.855 177.919C190.696 177.721 190.543 177.517 190.373 177.328C187.887 174.547 184.775 172.351 182.731 169.157C180.95 168.463 180.005 166.807 178.678 165.596C177.95 164.931 177.45 164.021 176.748 163.32C176.03 162.604 175.158 162.043 174.412 161.351C173.167 160.196 172.27 158.763 171.331 157.362C171.046 156.937 170.664 156.573 170.301 156.206C167.331 153.201 164.941 149.773 162.9 146.089C161.988 144.442 161.212 142.791 160.723 140.916C159.744 137.17 160.858 133.934 164.177 132.24C164.537 132.056 164.925 131.927 165.546 131.67H168.277C168.858 132.062 169.325 132.634 169.832 132.672C171.276 132.779 171.638 134.417 172.923 134.66C173.592 136.352 174.854 137.681 175.672 139.316C177.271 142.512 179.11 145.616 181.738 148.155C182.521 148.912 183.145 149.839 183.796 150.723C184.372 151.502 185.497 151.715 185.822 152.736C188.201 153.85 189.404 156.349 191.693 157.638C193.155 158.46 194.31 159.823 195.61 160.935C195.982 161.254 196.378 161.547 196.804 161.884C197.266 160.761 197.664 159.793 198.239 158.395C198.239 157.214 198.234 155.552 198.241 153.89C198.246 152.779 198.975 151.312 199.444 150.171C200.191 148.358 201.453 147.006 202.863 145.8C205.774 143.311 209.011 141.49 212.819 140.544C214.903 140.026 216.919 140.108 218.948 140.167C220.201 140.203 221.429 140.871 222.601 141.479C223.323 141.854 224.288 141.764 224.759 142.624C224.955 142.981 225.14 143.344 225.384 143.808C226.478 143.658 227.707 144.153 228.758 143.264C229.516 143.558 230.266 143.87 231.031 144.143C234.008 145.205 235.805 147.518 237.252 150.136C238.366 152.152 238.995 154.321 239.482 156.612C239.954 158.828 239.677 161.03 240.041 163.547C241.975 160.573 244.604 158.547 246.292 155.714C246.548 155.284 247.11 154.852 247.532 154.441C250.813 151.247 253.196 147.26 256.632 144.217C257.716 143.257 258.765 142.222 259.981 141.461C260.778 140.961 261.831 140.8 262.794 140.656C263.654 140.527 264.548 140.629 265.427 140.629C266.354 141.36 267.388 141.994 268.177 142.852C268.888 143.625 269.33 144.643 269.963 145.671C270.258 150.062 268.486 153.762 265.813 157.262C264.381 159.136 262.671 160.695 261.107 162.415C258.835 164.914 256.579 167.428 254.095 170.181C254.275 170.666 254.386 171.56 254.875 172.129C255.496 172.851 255.705 173.797 256.287 174.448C258.072 176.449 258.21 179.115 259.263 181.405C259.599 182.138 259.416 183.109 259.498 184.392C260.921 186.023 262.584 187.929 264.168 189.744C264.168 190.623 264.089 191.336 264.186 192.023C264.34 193.105 263.934 194.017 263.426 194.88C262.106 197.125 260.28 198.898 258.037 200.204C257.135 200.729 256.125 201.069 255.069 201.535C255.247 201.914 255.385 202.208 255.562 202.585C255.466 202.902 255.222 203.338 255.219 203.775C255.182 208.458 253.021 212.207 250.079 215.621C249.851 215.887 249.569 216.106 249.339 216.371C247.373 218.641 245.072 220.416 242.196 221.409C238.414 222.713 238.689 223.379 235.157 222.38ZM221.446 283.017C221.526 283.416 221.185 284.026 221.974 284.071C221.974 284.243 221.907 284.455 221.984 284.579C223.284 286.697 224.591 288.812 225.931 290.905C226.091 291.154 226.453 291.274 227.13 291.44C226.978 291.448 226.826 291.456 226.674 291.464C226.742 291.807 226.809 292.151 226.876 292.494C226.989 292.479 227.103 292.464 227.217 292.448C227.188 292.112 227.159 291.776 226.721 291.454C226.665 291.135 226.685 290.776 226.541 290.503C225.754 289.009 224.893 287.566 223.887 286.197C223.311 285.412 222.953 284.479 221.974 284.071C221.894 283.672 222.235 283.062 221.446 283.017C221.367 282.617 221.708 282.007 220.919 281.962C220.839 281.562 221.18 280.952 220.391 280.907C220.216 280.731 220.04 280.555 219.864 280.38C219.949 279.561 219.642 279.004 219.01 278.667C218.698 278.187 218.387 277.706 217.956 277.043C217.515 278.263 218.223 278.492 218.809 278.798C218.724 279.616 219.031 280.173 219.864 280.38C220.04 280.555 220.216 280.731 220.391 280.907C220.471 281.307 220.13 281.917 220.919 281.962C220.998 282.362 220.657 282.972 221.446 283.017ZM230.349 298.703C229.508 299.276 230.036 300.083 229.943 300.728C229.94 300.748 230.16 300.801 230.349 300.862C230.349 300.154 230.349 299.496 230.357 298.79L230.46 298.893C230.604 298.77 230.748 298.648 230.891 298.525C230.836 298.47 230.78 298.414 230.725 298.359C230.602 298.502 230.48 298.646 230.349 298.703ZM220.772 200.337C221.719 198.855 222.808 197.498 223.523 195.967C225.365 192.024 228.413 188.987 231.053 185.653C232.711 183.561 234.731 181.755 236.374 179.653C236.891 178.991 237.697 178.698 238.051 178.039C239.373 175.58 242.024 174.258 243.298 171.779C247.586 167.316 251.881 162.859 256.159 158.385C257.645 156.832 259.343 155.481 260.472 153.587C261.03 152.653 261.744 151.782 262.518 151.013C263.806 149.733 264.585 148.357 263.926 146.246C262.765 146.711 261.65 147.157 260.619 147.57C260.443 147.972 260.384 148.337 260.173 148.557C258.563 150.236 256.931 151.877 255.481 153.721C253.888 155.747 251.925 157.463 250.241 159.448C248.187 161.869 245.909 164.118 243.8 166.51C241.973 168.583 239.775 170.3 238.182 172.614C237.398 173.753 236.204 174.604 235.243 175.629C234.305 176.629 233.576 177.903 232.48 178.654C231.417 179.382 230.535 180.347 229.81 181.235C228.946 182.294 228.016 183.135 226.951 183.926C226.188 184.493 225.924 185.486 224.957 185.996C224.083 186.456 223.492 187.454 222.928 188.052H221.144C220.359 187.268 219.613 186.522 218.868 185.776C219.039 185.516 219.211 185.256 219.368 185.019C218.692 183.862 218.823 182.251 217.11 181.723C215.341 182.055 214.085 183.493 212.365 184.495C210.829 184.079 209.163 183.627 207.533 183.185C206.763 184.76 205.961 186.077 205.304 187.49C204.269 189.714 202.695 191.697 201.266 193.723C200.899 194.244 200.234 194.567 199.679 194.943C197.417 196.476 195.244 198.181 192.848 199.467C190.377 200.793 189.949 202.888 189.829 204.164C190.322 207.354 192.473 207.457 193.683 208.587H196.905C197.816 208.091 197.942 207.269 197.665 206.698C197.175 205.688 197.785 204.898 197.892 204.018C197.927 203.725 198.189 203.46 198.299 203.268C198.007 202.874 197.812 202.611 197.72 202.487C198.306 200.729 198.983 199.295 200.096 197.96C201.13 196.72 202.185 195.653 203.456 194.65C205.617 192.947 205.971 192.539 206.988 192.384C207.654 192.721 208.048 192.92 208.388 193.092C207.493 195.36 206.168 197.083 204.737 198.683C203.246 200.35 202.774 202.445 201.954 204.397C201.797 204.77 201.756 205.387 201.961 205.685C202.972 207.15 203.296 209.191 205.397 209.783C206.007 209.955 206.53 210.433 206.749 210.564C210.466 211.333 213.346 210.454 215.647 207.837C215.774 207.213 215.466 206.548 215.972 205.874C216.27 205.479 216.239 204.699 216.114 204.147C215.61 201.931 215.669 201.958 216.05 200.04C216.304 198.756 216.441 197.395 215.753 196.101C216.435 195.485 217.122 194.864 217.842 194.213C218.592 195.024 219.185 195.665 219.935 196.477V199.5C220.214 199.78 220.401 199.966 220.772 200.337ZM247.036 178.589C244.867 180.757 242.751 182.963 240.516 185.041C240.004 185.518 240.194 186.447 239.105 186.63C238.399 186.748 237.846 187.778 237.225 188.399C236.604 189.02 235.716 189.54 235.429 190.289C235.077 191.21 234.069 191.194 233.727 191.914C233.032 193.375 231.87 194.493 230.982 195.796C228.403 199.58 226.516 203.764 224.694 207.945C224.288 208.875 223.618 209.863 223.596 210.899C223.554 212.949 222.579 214.719 222.146 216.644C221.902 217.727 221.917 219.389 222.338 220.651C222.522 220.136 222.556 219.358 222.936 219.111C224.009 218.412 224.566 217.424 225.178 216.367C225.732 215.409 226.619 214.643 227.676 213.429C227.676 214.75 227.79 215.598 227.643 216.398C227.505 217.142 227.088 217.833 226.797 218.542C227.308 218.754 227.73 218.928 228.092 219.077C229.807 217.707 231.337 216.124 231.904 214.063C232.192 213.015 232.747 212.463 233.258 211.947H235.448C235.108 212.674 234.768 213.162 234.659 213.697C234.54 214.288 234.674 214.926 234.619 215.536C234.573 216.049 234.416 216.553 234.259 217.29C235.439 216.6 236.251 215.938 236.796 214.764C237.28 213.722 238.31 212.947 238.943 211.955C239.552 211.002 239.972 209.927 240.455 208.896C240.938 207.866 241.397 206.824 242.043 205.396V203.528C242.127 203.581 242.211 203.635 242.295 203.688C242.446 203.391 242.596 203.094 242.681 202.927C243.075 203.216 243.351 203.418 243.474 203.508C243.325 204.055 243.211 204.472 243.055 205.043H244.606V209.497C244.252 209.851 243.941 210.162 243.721 210.382C243.477 211.612 243.26 212.712 243.027 213.89C244.674 213.641 245.016 212.29 245.856 211.453C248.394 208.926 249.144 205.695 249.338 202.361C249.466 200.171 249.001 197.948 248.808 195.803C249.128 195.483 249.376 195.235 249.501 195.11C250.775 195.38 251.956 195.629 253.32 195.918C254.173 195.558 255.379 195.311 256.224 194.621C257.161 193.856 257.766 192.686 258.528 191.675C256.394 190.604 255.347 188.773 254.129 187.068C252.765 185.16 253.163 183.011 253.087 180.967C252.732 180.611 252.421 180.301 252.24 180.12C252.321 179.552 252.387 179.093 252.529 178.1C251.679 178.821 251.263 179.174 250.769 179.593C251.41 181.176 251.991 182.608 252.602 184.118C252.255 184.421 251.889 184.74 251.587 185.004C248.885 183.577 248.506 180.748 247.036 178.589ZM209.597 177.569C212.862 177.603 215.34 175.952 217.731 174.125C218.603 173.459 219.173 172.463 220.296 172.038C220.778 171.855 221.095 171.186 221.441 170.705C222.407 169.361 223.077 167.76 224.593 166.956C225.584 167.326 225.778 168.017 225.727 168.448C227.263 169.984 228.615 171.336 230.095 172.815C231.617 171.36 233.391 169.927 234.104 167.143C234.104 166.744 234.144 165.864 234.097 164.988C233.946 162.162 234.461 159.316 233.633 156.496C233.363 155.573 233.141 154.536 232.915 153.602C232.699 152.713 231.786 151.85 231.37 150.84C231.067 150.101 229.851 150.252 229.684 149.198C229.64 148.919 228.889 148.641 228.428 148.56C226.871 148.286 225.299 148.101 223.922 147.909C222.95 148.881 221.915 149.501 221.527 150.4C220.929 151.789 219.758 152.333 218.719 153.161C217.67 153.997 216.769 154.914 215.441 155.45C213.281 156.323 211.157 157.159 208.701 157.026C209.111 157.863 209.31 158.992 209.298 160.413C208.861 160.854 208.428 161.29 208.093 161.629H206.187C206.063 159.707 206.114 157.979 208.301 157.214C206.573 156.332 205.501 157.921 204.247 158.136C203.816 158.979 203.445 159.704 203.011 160.552C203.199 162.199 202.174 163.869 202.443 165.701C202.701 167.456 202.831 169.231 203.018 171.013C203.64 171.974 204.276 172.936 204.889 173.914C205.552 174.972 207.369 174.87 207.373 176.489H208.526C208.833 176.798 209.142 177.11 209.597 177.569ZM200.349 302.793C200.349 301.597 200.338 300.371 200.352 299.145C200.366 297.879 200.39 296.652 200.811 295.388C201.167 294.316 201.13 293.079 201.301 291.923C201.644 289.606 202.035 287.297 202.47 284.997C202.761 283.462 203.107 281.933 203.528 280.428C204.033 278.62 205.15 276.99 205.096 275.017C206.329 273.55 206.214 271.433 207.724 270.015C209.052 268.769 209.939 267.066 211.141 265.668C212.312 264.305 213.78 263.198 214.664 261.584C215.742 261.441 215.79 260.288 216.467 259.718C217.201 259.102 217.711 258.219 218.265 257.521C215.375 255.53 211.937 254.556 210.002 251.544C209.689 252.18 209.467 252.915 209.027 253.479C206.924 256.168 206.307 259.579 204.596 262.461C204.067 263.352 203.934 264.469 203.5 265.428C202.515 267.603 202.157 269.969 201.499 272.232C201.047 273.786 200.67 275.421 200.359 277.041C200.122 278.275 200.486 279.502 199.921 280.817C199.428 281.965 199.707 283.432 199.362 284.79C198.703 287.387 198.584 290.121 198.344 292.779C198.024 296.331 197.742 299.87 197.323 303.42C196.923 306.807 196.896 310.289 196.66 313.728C196.602 314.562 196.803 315.414 196.169 316.178C196.015 316.364 196.353 316.959 196.464 317.365C198.076 314.742 199.247 312.1 200.316 309.418C200.495 308.968 200.456 308.485 200.853 308.049C201.805 307.004 201.98 305.682 201.926 304.369C201.373 303.817 200.876 303.32 200.349 302.793ZM221.85 230.425C221.006 229.579 220.505 228.764 219.78 228.417C218.392 227.754 217.421 226.651 216.521 225.548C215.304 224.059 213.712 222.512 215.117 220.263C215.047 218.685 216.264 217.195 215.418 215.529C213.982 216.05 212.58 216.807 211.097 217.035C209.387 217.298 207.604 217.096 205.853 217.096C204.546 216.656 203.613 215.047 201.805 215.737C202.241 216.684 202.857 217.47 202.942 218.309C203.227 221.131 204.985 223.653 204.588 226.604C204.563 226.794 204.902 227.011 204.934 227.236C205.016 227.818 205.281 228.647 205.004 228.951C204.419 229.593 204.666 230.25 204.563 230.903C204.448 231.63 204.289 232.351 204.114 233.259C206.256 235.472 209.123 236.56 212.021 237.22C215.258 234.837 217.872 232.053 221.85 230.425ZM226.59 244.686C226.975 243.64 226.495 242.661 227.117 241.6C227.535 240.886 227.444 239.657 226.949 238.633C226.387 237.472 226.095 236.182 225.661 234.957C225.4 234.222 224.549 233.627 224.116 234.011C223.154 234.864 221.781 234.871 220.891 235.821C220.142 236.621 219.32 237.323 218.367 237.939C217.305 238.626 216.369 239.662 215.682 240.74C214.459 242.656 213.465 244.717 212.397 246.679C217.986 253.088 218.461 251.928 222.176 252.957C223.843 250.349 225.547 247.762 226.59 244.686ZM166.781 137.331C166.244 139.149 166.597 140.75 167.305 141.976C167.87 142.954 168.48 143.954 169.094 144.931C171.629 148.957 174.807 152.491 178.031 155.96C179.449 157.485 180.887 159.014 182.37 160.489C183.304 161.418 184.059 162.612 185.053 163.543C185.53 163.99 186.339 164.183 186.638 164.699C187.112 165.518 187.876 165.918 188.492 166.523C189.205 167.224 189.704 168.139 190.383 168.881C192.78 171.497 195.216 174.078 197.632 176.676C198.322 177.417 199.157 178.018 199.536 179.047C199.652 179.362 200.266 179.492 200.652 179.707C199.391 176.239 197.151 173.354 196.572 169.818C194.796 168.219 193.178 166.52 191.318 165.151C188.974 163.426 186.834 161.471 184.749 159.487C182.058 156.925 179.354 154.366 177.01 151.426C175.536 149.577 174 147.753 172.656 145.82C171.316 143.891 170.351 141.7 169.235 139.616C168.968 139.116 168.756 138.587 168.532 138.101C167.99 137.863 167.471 137.634 166.781 137.331ZM205.887 152.231C207.384 152.231 208.893 152.363 210.365 152.187C211.475 152.055 212.518 151.379 213.63 151.229C214.34 151.134 214.725 150.791 215.126 150.363C215.675 149.777 216.135 149.104 216.713 148.551C217.32 147.969 218.021 147.485 218.632 146.997C219.433 146.949 220.183 146.903 220.911 146.859V146.078C220.685 146.021 220.43 146 220.22 145.892C219.997 145.778 219.816 145.581 219.597 145.404C213.733 144.888 208.985 147.108 205.109 151.453C205.331 151.674 205.517 151.861 205.887 152.231ZM205.654 245.866C206.278 244.801 206.933 243.686 207.68 242.413C206.766 241.758 205.816 240.894 204.71 240.345C203.896 239.94 203.352 239.459 202.972 238.671C202.793 238.298 202.466 237.996 201.979 237.371V244.216C202.428 244.702 202.84 245.148 203.136 245.467C204 245.604 204.714 245.717 205.654 245.866ZM224.945 178.514C225.218 177.416 225.434 176.548 225.691 175.514C225.19 175.482 224.717 175.452 224.025 175.407C223.702 176.964 222.085 177.799 222.008 179.459C223.45 180.326 223.868 178.457 224.945 178.514ZM201.805 248.5C201.937 250.124 202.027 251.238 202.118 252.352C202.18 252.342 202.242 252.331 202.465 252.293C202.937 251.4 203.456 250.419 204.087 249.223C203.382 249 202.78 248.809 201.805 248.5ZM235.249 305.596C235.4 305.587 235.551 305.577 235.701 305.567C235.637 305.274 235.573 304.98 235.509 304.686C235.423 304.698 235.336 304.71 235.249 304.722V305.596Z" fill="black"/>
<path d="M231.407 166.235C230.746 167.349 229.707 168.144 228.291 168.619C227.505 168.015 226.664 167.368 225.602 166.551C225.756 166.054 225.97 165.368 226.193 164.651C226.193 164.512 226.258 164.3 226.183 164.168C224.372 160.981 223.415 157.44 222.01 154.085C221.626 153.17 222.15 152.257 222.54 151.451C222.792 150.93 223.372 150.568 223.784 150.156C225.239 150.986 224.903 152.804 225.96 153.972C226.952 155.068 227.357 156.687 228.069 158.051C228.745 159.345 229.549 160.553 229.916 162.016C230.268 163.421 230.875 164.762 231.407 166.235Z" fill="black"/>
<path d="M207.75 174.338C206.94 173.074 206.088 171.742 205.166 170.303V165.834C208.35 167.05 211.505 167.768 214.859 167.484C215.074 167.746 215.295 168.016 215.525 168.298C214.385 171.828 212.655 174.758 207.75 174.338Z" fill="black"/>
<path d="M216.129 164.475C215.667 164.059 215.178 163.618 214.646 163.139V161.461C215.395 160.802 215.776 159.557 217.028 159.151L217.839 159.962C216.687 161.178 217.825 163.203 216.129 164.475Z" fill="black"/>
<path d="M209.774 228.885C209.589 229.249 209.331 229.755 209.044 230.318C208.822 230.252 208.492 230.258 208.376 230.103C207.78 229.31 207.191 228.504 206.697 227.647C206.419 227.165 206.21 226.584 206.175 226.034C206.097 224.836 206.151 223.63 206.151 222.034C207.172 223.353 207.927 224.328 208.426 224.973C208.944 226.475 209.341 227.628 209.774 228.885Z" fill="black"/>
</svg>
