<svg width="535" height="398" viewBox="0 0 535 398" fill="none" xmlns="http://www.w3.org/2000/svg">
<rect y="91" width="535" height="296" rx="148" fill="white"/>
<path fill-rule="evenodd" clip-rule="evenodd" d="M276.654 127.846C277.229 127.271 277.969 126.888 278.766 126.727C307.996 120.81 330 94.9746 330 64C330 28.6538 301.346 0 266 0C230.654 0 202 28.6538 202 64C202 94.5526 223.409 120.105 252.043 126.474C252.811 126.644 253.521 127.021 254.077 127.577L262.672 136.172C264.234 137.734 266.766 137.734 268.328 136.172L276.654 127.846Z" fill="white"/>
<path d="M252.5 126.5C256.961 126.996 259.52 138.111 265.69 138.765C272.213 139.457 270.5 125.778 292.5 121.5C319.343 116.281 332.355 96.9237 333.5 66C334.746 32.3602 315.6 5 276 5C241.663 5 214.203 20.685 207 55.5C201 84.5 218.127 114.657 237.5 119.5" stroke="black" stroke-width="10" stroke-linecap="round"/>
<path d="M242.622 36.4494C249.678 36.733 256.665 36.0675 263.719 36.0353C268.173 36.0149 272.621 35.8282 277.074 35.8282C277.897 35.8282 279.064 35.5665 279.685 36.2423C280.346 36.961 280.582 38.198 280.974 39.0721C281.836 40.9969 282.576 42.9581 282.883 45.0537C283.452 48.9307 283.205 52.9263 283.205 56.8328C283.205 60.1023 283.172 63.3453 283.044 66.6104C282.873 70.9774 282.795 75.2178 282.343 79.5629C282.18 81.1234 281.972 83.1964 280.376 83.9455C278.507 84.8228 276.314 85.1707 274.279 85.2684C268.49 85.5463 262.718 85.454 256.955 86.1426C253.315 86.5776 249.696 87.1915 246.062 87.6725C244.737 87.8479 244.178 87.979 243.888 86.4877C243.354 83.7415 243.685 80.8278 243.451 78.0445C243.186 74.8922 242.622 71.8915 242.622 68.704C242.622 64.6615 241.896 60.6465 242.013 56.6028C242.11 53.2457 242.534 49.8553 242.783 46.5031C243.072 42.6305 243.451 38.8959 243.451 35" stroke="black" stroke-width="10" stroke-linecap="round"/>
<path d="M256.081 51.6212C260.64 50.99 265.151 51 269.747 51" stroke="black" stroke-width="10" stroke-linecap="round"/>
<path d="M282.068 47.1931C284.991 46.8883 287.933 46.4602 290.877 46.4602C291.845 46.4602 292.96 46.1249 293.904 46.2701C295.643 46.5376 295.868 49.1981 296.212 50.573C296.862 53.173 297.198 55.7523 297.216 58.4321C297.258 64.7209 297.691 70.988 297.216 77.2722C296.797 82.8236 296.767 88.5084 296.728 94.0762C296.719 95.2485 296.972 96.7043 296.714 97.8633C296.649 98.1579 295.708 98.0103 295.533 98.0126C288.809 98.101 282.092 98.2569 275.363 98.2569C270.6 98.2569 265.894 98.8621 261.165 98.9899C259.738 99.0284 258.962 99.6666 258.857 97.8904C258.75 96.0577 258.613 94.2295 258.613 92.3931" stroke="black" stroke-width="10" stroke-linecap="round"/>
<path d="M255.253 65C257.963 65.3942 260.758 65.2071 263.489 65.2071C264.782 65.2071 266.718 64.8314 267.883 65.4141" stroke="black" stroke-width="10" stroke-linecap="round"/>
<path d="M145.8 168.048C146.824 167.376 147.672 167.04 148.344 167.04C148.696 167.04 148.968 167.056 149.16 167.088C150.92 167.344 152.616 168.192 154.248 169.632C154.792 170.112 155.064 170.704 155.064 171.408C155.064 172.176 154.76 172.848 154.152 173.424C153.576 174 152.968 174.288 152.328 174.288C151.816 174.288 151.256 174.112 150.648 173.76C150.072 173.408 149.528 173.232 149.016 173.232C148.408 173.232 147.976 173.552 147.72 174.192C147.496 174.8 147.384 175.264 147.384 175.584C147.384 176.192 147.928 177.2 149.016 178.608C150.488 180.528 151.512 182.176 152.088 183.552C152.696 184.928 153.048 186.528 153.144 188.352C153.144 188.512 153.144 188.72 153.144 188.976C153.176 189.232 153.192 189.424 153.192 189.552C153.192 190.96 152.984 192.096 152.568 192.96C152.184 193.824 151.464 194.736 150.408 195.696C149.384 196.592 147.976 197.184 146.184 197.472C144.84 197.696 144.04 197.808 143.784 197.808C143.272 197.808 142.76 197.664 142.248 197.376C140.776 196.576 140.04 195.6 140.04 194.448C140.04 193.84 140.28 193.216 140.76 192.576C141.048 192.192 141.32 191.952 141.576 191.856C141.832 191.728 142.264 191.664 142.872 191.664C142.968 191.664 143.128 191.68 143.352 191.712C143.576 191.712 143.768 191.712 143.928 191.712H144.696C145.432 191.712 145.944 191.664 146.232 191.568C146.52 191.44 146.792 191.2 147.048 190.848C147.432 190.368 147.624 189.76 147.624 189.024C147.624 187.008 146.312 184.352 143.688 181.056C142.216 179.2 141.48 177.472 141.48 175.872C141.48 175.168 141.576 174.432 141.768 173.664C142.408 171.232 143.752 169.36 145.8 168.048ZM172.286 168.576C172.958 168 173.598 167.712 174.206 167.712C174.846 167.712 175.454 168.016 176.03 168.624C176.478 169.072 176.734 169.536 176.798 170.016C176.894 170.496 176.942 171.744 176.942 173.76C176.942 175.616 176.974 176.848 177.038 177.456C177.134 178.064 177.342 178.576 177.662 178.992C178.142 179.568 178.382 180.16 178.382 180.768C178.382 181.408 178.142 182.016 177.662 182.592C177.214 183.168 176.99 183.84 176.99 184.608C176.99 185.344 177.022 185.984 177.086 186.528C177.182 187.424 177.23 188.08 177.23 188.496C177.23 189.168 176.958 189.776 176.414 190.32C175.806 190.928 175.15 191.232 174.446 191.232C173.742 191.232 173.102 190.928 172.526 190.32C171.982 189.68 171.646 188.832 171.518 187.776C171.39 186.656 171.182 186.096 170.894 186.096C170.606 186.096 169.742 186.384 168.302 186.96L166.094 187.776L166.046 191.424C166.046 193.184 165.998 194.272 165.902 194.688C165.806 195.072 165.518 195.472 165.038 195.888C164.302 196.496 163.774 196.8 163.454 196.8C163.006 196.8 162.446 196.592 161.774 196.176C161.134 195.76 160.75 195.376 160.622 195.024C160.494 194.48 160.398 191.088 160.334 184.848L160.238 175.296L161.246 174.48C161.918 173.904 162.462 173.616 162.878 173.616C163.166 173.616 163.614 173.744 164.222 174C164.83 174.288 165.326 174.928 165.71 175.92C166.094 176.88 166.286 178 166.286 179.28C166.286 179.696 166.286 180 166.286 180.192C166.286 180.352 166.302 180.528 166.334 180.72C166.398 180.912 166.462 181.04 166.526 181.104C166.622 181.168 166.734 181.2 166.862 181.2C167.15 181.2 167.934 180.896 169.214 180.288L171.23 179.28V169.488L172.286 168.576ZM199.28 182.736C199.088 181.296 198.912 180.496 198.752 180.336H198.704C198.448 180.336 197.824 180.96 196.832 182.208C195.872 183.456 195.392 184.24 195.392 184.56C195.392 184.752 196.08 184.848 197.456 184.848H199.52L199.28 182.736ZM205.28 185.232C205.28 185.648 205.584 187.264 206.192 190.08C206.8 192.896 207.104 194.528 207.104 194.976C207.104 195.808 206.864 196.464 206.384 196.944C205.904 197.424 205.248 197.664 204.416 197.664C202.816 197.664 201.744 196.336 201.2 193.68C200.912 192.24 200.624 191.376 200.336 191.088C200.08 190.768 199.36 190.608 198.176 190.608C198.016 190.608 197.712 190.624 197.264 190.656C196.816 190.656 196.432 190.656 196.112 190.656C193.744 190.688 192.32 190.848 191.84 191.136C191.392 191.424 190.864 192.464 190.256 194.256C189.808 195.568 189.232 196.656 188.528 197.52C187.824 198.352 187.152 198.768 186.512 198.768C185.872 198.768 185.232 198.512 184.592 198C183.984 197.456 183.68 196.896 183.68 196.32C183.68 195.776 183.952 194.72 184.496 193.152C185.072 191.552 185.648 190.224 186.224 189.168C186.736 188.208 186.992 187.504 186.992 187.056C186.992 186.64 187.328 186 188 185.136C188.832 184.176 189.52 183.168 190.064 182.112C190.928 180.672 192.032 179.072 193.376 177.312C195.04 175.168 196.064 173.68 196.448 172.848C196.96 171.856 197.424 171.232 197.84 170.976C198.288 170.72 198.848 170.592 199.52 170.592C200.352 170.592 201.024 170.768 201.536 171.12C202.112 171.504 202.624 172.352 203.072 173.664C203.456 174.656 203.92 176.592 204.464 179.472C205.008 182.352 205.28 184.272 205.28 185.232ZM223.36 172.224C223.072 172.128 222.784 172.08 222.496 172.08C221.696 172.08 220.912 172.352 220.144 172.896C219.376 173.408 218.912 174.032 218.752 174.768C218.56 175.632 218.464 176.528 218.464 177.456C218.464 179.152 218.752 180.912 219.328 182.736C219.968 184.656 220.288 185.968 220.288 186.672C220.288 187.248 220.4 187.536 220.624 187.536C220.816 187.536 221.104 187.472 221.488 187.344C222.448 187.088 223.184 186.784 223.696 186.432C224.24 186.048 224.832 185.408 225.472 184.512C226.016 183.712 226.352 183.088 226.48 182.64C226.608 182.16 226.672 181.248 226.672 179.904C226.672 178.528 226.592 177.584 226.432 177.072C226.304 176.528 225.92 175.744 225.28 174.72C224.384 173.152 223.744 172.32 223.36 172.224ZM218.128 167.472C219.44 166.832 220.816 166.512 222.256 166.512C224.304 166.512 226 167.072 227.344 168.192C228.688 169.312 230 171.248 231.28 174C231.728 174.96 232.016 175.68 232.144 176.16C232.272 176.608 232.336 177.248 232.336 178.08C232.336 178.912 232.32 179.616 232.288 180.192C232.224 182.72 231.856 184.64 231.184 185.952C230.672 187.008 229.84 188.176 228.688 189.456C227.536 190.736 226.528 191.584 225.664 192C224.928 192.384 223.76 192.752 222.16 193.104C220.592 193.456 219.296 193.632 218.272 193.632C217.088 193.632 216.208 193.44 215.632 193.056C215.088 192.672 214.736 192.032 214.576 191.136C214.352 190.048 214.08 189.248 213.76 188.736C213.44 188.064 213.072 185.6 212.656 181.344C212.4 178.208 212.272 176.352 212.272 175.776C212.272 174.944 212.416 174.144 212.704 173.376C213.12 172.256 213.84 171.136 214.864 170.016C215.92 168.896 217.008 168.048 218.128 167.472ZM256.786 170.832C256.978 170.8 257.234 170.784 257.554 170.784C258.546 170.784 259.314 171.12 259.858 171.792C260.402 172.464 260.674 173.44 260.674 174.72C260.674 176.832 260.226 178.832 259.33 180.72C258.466 182.576 257.298 184.032 255.826 185.088L254.002 186.432L254.194 188.448C254.514 191.968 254.674 194.256 254.674 195.312C254.674 196.528 254.562 197.408 254.338 197.952C254.114 198.496 253.73 198.96 253.186 199.344C252.802 199.6 252.354 199.728 251.842 199.728C251.074 199.728 250.354 199.376 249.682 198.672C249.17 198.064 248.914 197.12 248.914 195.84C248.914 194.656 248.85 192.848 248.722 190.416L248.482 187.056L246.322 186.432C244.85 186.016 243.65 185.376 242.722 184.512C241.922 183.776 240.866 182.256 239.554 179.952C238.242 177.648 237.586 176.144 237.586 175.44C237.586 174.736 237.922 174.112 238.594 173.568C239.266 173.024 239.986 172.752 240.754 172.752C241.266 172.752 241.714 172.896 242.098 173.184C242.386 173.376 243.17 174.64 244.45 176.976C245.346 178.608 245.954 179.6 246.274 179.952C246.626 180.304 247.314 180.656 248.338 181.008C249.298 181.36 249.97 181.536 250.354 181.536C250.674 181.536 251.138 181.36 251.746 181.008C252.77 180.464 253.506 179.744 253.954 178.848C254.402 177.92 254.626 176.672 254.626 175.104C254.626 173.664 254.786 172.624 255.106 171.984C255.426 171.344 255.986 170.96 256.786 170.832ZM288.457 178.848C288.361 178.144 288.105 177.456 287.689 176.784C287.305 176.112 286.857 175.776 286.345 175.776C285.897 175.776 285.401 176.032 284.857 176.544C284.345 177.024 283.977 177.584 283.753 178.224C283.657 178.512 283.609 179.088 283.609 179.952C283.609 180.976 283.673 182.016 283.801 183.072C283.929 184.096 284.073 184.608 284.233 184.608C284.969 184.608 285.977 183.76 287.257 182.064C288.089 180.976 288.505 180.128 288.505 179.52C288.505 179.232 288.489 179.008 288.457 178.848ZM284.377 170.4C285.497 170.112 286.329 169.968 286.873 169.968C287.513 169.968 288.265 170.176 289.129 170.592C290.921 171.36 292.361 172.96 293.449 175.392C293.865 176.32 294.073 177.376 294.073 178.56C294.073 178.688 294.057 178.896 294.025 179.184C294.025 179.44 294.025 179.648 294.025 179.808C293.961 181.184 293.833 182.128 293.641 182.64C293.449 183.12 292.857 184.032 291.865 185.376C290.489 187.2 289.577 188.32 289.129 188.736C288.745 189.088 288.377 189.344 288.025 189.504C287.705 189.632 286.937 189.856 285.721 190.176L284.137 190.56V192.48C284.137 193.76 284.377 194.768 284.857 195.504C285.369 196.272 285.625 197.536 285.625 199.296C285.625 200.512 285.577 201.312 285.481 201.696C285.385 202.048 285.113 202.432 284.665 202.848C284.057 203.424 283.385 203.712 282.649 203.712C282.009 203.712 281.433 203.504 280.921 203.088C279.385 201.936 278.441 195.6 278.089 184.08L277.849 177.072L278.857 175.104C280.105 172.64 281.945 171.072 284.377 170.4ZM314.968 182.736C314.776 181.296 314.6 180.496 314.44 180.336H314.392C314.136 180.336 313.512 180.96 312.52 182.208C311.56 183.456 311.08 184.24 311.08 184.56C311.08 184.752 311.768 184.848 313.144 184.848H315.208L314.968 182.736ZM320.968 185.232C320.968 185.648 321.272 187.264 321.88 190.08C322.488 192.896 322.792 194.528 322.792 194.976C322.792 195.808 322.552 196.464 322.072 196.944C321.592 197.424 320.936 197.664 320.104 197.664C318.504 197.664 317.432 196.336 316.888 193.68C316.6 192.24 316.312 191.376 316.024 191.088C315.768 190.768 315.048 190.608 313.864 190.608C313.704 190.608 313.4 190.624 312.952 190.656C312.504 190.656 312.12 190.656 311.8 190.656C309.432 190.688 308.008 190.848 307.528 191.136C307.08 191.424 306.552 192.464 305.944 194.256C305.496 195.568 304.92 196.656 304.216 197.52C303.512 198.352 302.84 198.768 302.2 198.768C301.56 198.768 300.92 198.512 300.28 198C299.672 197.456 299.368 196.896 299.368 196.32C299.368 195.776 299.64 194.72 300.184 193.152C300.76 191.552 301.336 190.224 301.912 189.168C302.424 188.208 302.68 187.504 302.68 187.056C302.68 186.64 303.016 186 303.688 185.136C304.52 184.176 305.208 183.168 305.752 182.112C306.616 180.672 307.72 179.072 309.064 177.312C310.728 175.168 311.752 173.68 312.136 172.848C312.648 171.856 313.112 171.232 313.528 170.976C313.976 170.72 314.536 170.592 315.208 170.592C316.04 170.592 316.712 170.768 317.224 171.12C317.8 171.504 318.312 172.352 318.76 173.664C319.144 174.656 319.608 176.592 320.152 179.472C320.696 182.352 320.968 184.272 320.968 185.232ZM338.519 178.848C338.423 178.144 338.167 177.456 337.751 176.784C337.367 176.112 336.919 175.776 336.407 175.776C335.959 175.776 335.463 176.032 334.919 176.544C334.407 177.024 334.039 177.584 333.815 178.224C333.719 178.512 333.671 179.088 333.671 179.952C333.671 180.976 333.735 182.016 333.863 183.072C333.991 184.096 334.135 184.608 334.295 184.608C335.031 184.608 336.039 183.76 337.319 182.064C338.151 180.976 338.567 180.128 338.567 179.52C338.567 179.232 338.551 179.008 338.519 178.848ZM334.439 170.4C335.559 170.112 336.391 169.968 336.935 169.968C337.575 169.968 338.327 170.176 339.191 170.592C340.983 171.36 342.423 172.96 343.511 175.392C343.927 176.32 344.135 177.376 344.135 178.56C344.135 178.688 344.119 178.896 344.087 179.184C344.087 179.44 344.087 179.648 344.087 179.808C344.023 181.184 343.895 182.128 343.703 182.64C343.511 183.12 342.919 184.032 341.927 185.376C340.551 187.2 339.639 188.32 339.191 188.736C338.807 189.088 338.439 189.344 338.087 189.504C337.767 189.632 336.999 189.856 335.783 190.176L334.199 190.56V192.48C334.199 193.76 334.439 194.768 334.919 195.504C335.431 196.272 335.687 197.536 335.687 199.296C335.687 200.512 335.639 201.312 335.543 201.696C335.447 202.048 335.175 202.432 334.727 202.848C334.119 203.424 333.447 203.712 332.711 203.712C332.071 203.712 331.495 203.504 330.983 203.088C329.447 201.936 328.503 195.6 328.151 184.08L327.911 177.072L328.919 175.104C330.167 172.64 332.007 171.072 334.439 170.4ZM360.998 165.072C362.182 164.816 363.046 164.688 363.59 164.688C364.454 164.688 365.142 164.944 365.654 165.456C366.198 165.968 366.47 166.576 366.47 167.28C366.47 167.856 366.278 168.416 365.894 168.96C365.542 169.472 365.046 169.856 364.406 170.112C363.99 170.304 362.486 170.656 359.894 171.168L356.438 171.792L355.958 173.808C355.67 175.184 355.526 176.176 355.526 176.784C355.526 177.488 355.734 177.84 356.15 177.84C356.31 177.84 357.27 177.632 359.03 177.216C360.79 176.8 361.926 176.592 362.438 176.592C362.598 176.592 362.694 176.608 362.726 176.64C364.006 177.056 364.646 177.936 364.646 179.28C364.646 180.24 364.294 180.992 363.59 181.536C362.886 182.048 361.478 182.576 359.366 183.12C357.67 183.568 356.534 183.904 355.958 184.128C355.414 184.352 355.142 184.608 355.142 184.896C355.142 185.056 355.222 185.248 355.382 185.472C355.606 185.824 356.23 186 357.254 186C357.926 186 358.486 185.984 358.934 185.952C359.158 185.952 359.446 185.952 359.798 185.952C360.15 185.92 360.39 185.904 360.518 185.904C361.222 185.904 361.718 185.968 362.006 186.096C362.326 186.192 362.662 186.416 363.014 186.768C363.622 187.376 363.926 188.08 363.926 188.88C363.926 189.52 363.702 190.112 363.254 190.656C362.998 191.008 362.614 191.264 362.102 191.424C361.59 191.552 360.678 191.68 359.366 191.808C358.406 191.904 357.574 191.952 356.87 191.952C354.662 191.952 352.934 191.28 351.686 189.936C350.086 188.304 349.286 185.856 349.286 182.592C349.286 180.864 349.478 178.736 349.862 176.208C350.118 174.672 350.246 173.552 350.246 172.848C350.246 172.336 350.118 171.904 349.862 171.552C349.51 171.072 349.334 170.496 349.334 169.824C349.334 169.056 349.542 168.448 349.958 168C350.438 167.456 352.102 166.896 354.95 166.32C356.55 166 358.566 165.584 360.998 165.072ZM381.915 178.704C381.915 178.352 381.659 177.92 381.147 177.408C380.635 176.896 379.995 176.64 379.227 176.64C378.715 176.64 378.395 176.768 378.267 177.024C378.203 177.152 378.171 177.392 378.171 177.744C378.171 178.448 378.235 179.28 378.363 180.24C378.523 181.2 378.667 181.68 378.795 181.68C378.987 181.68 379.419 181.44 380.091 180.96C380.763 180.48 381.211 180.08 381.435 179.76C381.755 179.344 381.915 178.992 381.915 178.704ZM374.187 172.368C375.083 171.568 375.947 171.056 376.779 170.832C377.611 170.608 378.299 170.496 378.843 170.496C379.643 170.496 380.667 170.688 381.915 171.072C383.707 171.584 385.115 172.56 386.139 174C387.195 175.44 387.723 177.024 387.723 178.752C387.723 180.96 386.907 182.816 385.275 184.32C384.603 184.992 384.267 185.392 384.267 185.52C384.267 185.68 384.939 186.08 386.283 186.72C387.659 187.36 389.163 187.984 390.795 188.592C392.139 189.104 393.179 189.712 393.915 190.416C394.651 191.12 395.019 191.856 395.019 192.624C395.019 193.36 394.699 194.048 394.059 194.688C393.547 195.2 393.051 195.456 392.571 195.456C391.835 195.456 389.579 194.672 385.803 193.104C382.347 191.664 380.475 190.944 380.187 190.944C380.027 190.944 379.947 191.12 379.947 191.472C379.947 191.824 380.011 192.304 380.139 192.912C380.235 193.456 380.283 193.952 380.283 194.4C380.283 195.904 379.579 196.864 378.171 197.28C377.819 197.376 377.499 197.424 377.211 197.424C376.155 197.424 375.291 196.688 374.619 195.216C373.979 193.744 373.291 191.104 372.555 187.296C372.043 184.64 371.787 182.016 371.787 179.424C371.787 177.184 371.995 175.584 372.411 174.624C372.731 173.888 373.323 173.136 374.187 172.368Z" fill="black"/>
<path d="M99.5309 238.709C99.5706 238.709 99.6896 238.712 99.8879 238.717C100.092 238.717 100.338 238.717 100.627 238.717C100.916 238.712 101.217 238.712 101.528 238.717C101.84 238.717 102.126 238.72 102.387 238.726C103.894 238.749 105.115 238.995 106.05 239.465C106.991 239.93 107.68 240.607 108.116 241.497C108.558 242.387 108.779 243.48 108.779 244.778C108.779 246.138 108.541 247.28 108.065 248.203C107.595 249.127 106.875 249.824 105.906 250.294C104.943 250.765 103.716 251 102.225 251H99.5309V238.709ZM101.146 240.06V249.648H102.225C103.24 249.648 104.112 249.493 104.843 249.181C105.574 248.864 106.135 248.351 106.526 247.642C106.923 246.934 107.121 245.988 107.121 244.803C107.121 243.619 106.929 242.681 106.543 241.99C106.164 241.299 105.614 240.806 104.894 240.511C104.175 240.211 103.308 240.06 102.293 240.06H101.146ZM112.525 242.211V251H111.004V242.211H112.525ZM112.559 238.717V240.349H110.953V238.717H112.559ZM121.989 242.211L118.818 251H117.39L114.211 242.211H115.69L118.028 249.028H118.172L120.518 242.211H121.989ZM124.307 246.971C124.307 247.526 124.398 248.031 124.579 248.484C124.766 248.932 125.047 249.289 125.421 249.555C125.8 249.821 126.274 249.954 126.84 249.954C127.401 249.954 127.883 249.824 128.285 249.563C128.693 249.303 128.954 248.926 129.067 248.433H130.555C130.447 249.028 130.209 249.529 129.841 249.938C129.472 250.345 129.028 250.654 128.506 250.864C127.985 251.068 127.441 251.17 126.874 251.17C126.053 251.17 125.33 250.992 124.707 250.634C124.083 250.277 123.596 249.765 123.245 249.096C122.893 248.427 122.718 247.625 122.718 246.69C122.718 245.767 122.876 244.956 123.194 244.259C123.511 243.562 123.97 243.018 124.571 242.627C125.177 242.236 125.905 242.041 126.755 242.041C127.583 242.041 128.282 242.219 128.855 242.576C129.427 242.933 129.861 243.438 130.155 244.089C130.456 244.735 130.606 245.503 130.606 246.393V246.971H124.307ZM124.316 245.908H129.093C129.093 245.404 129.008 244.951 128.838 244.548C128.668 244.14 128.407 243.82 128.056 243.588C127.71 243.35 127.274 243.231 126.747 243.231C126.197 243.231 125.741 243.364 125.378 243.63C125.021 243.891 124.752 244.228 124.571 244.642C124.395 245.05 124.31 245.472 124.316 245.908ZM137.943 242.211V251H136.421V242.211H137.943ZM137.977 238.717V240.349H136.37V238.717H137.977ZM140.638 251V242.211H142.16V243.486C142.301 243.242 142.497 243.013 142.746 242.797C143.001 242.582 143.307 242.409 143.664 242.279C144.027 242.149 144.443 242.083 144.914 242.083C145.469 242.083 145.979 242.194 146.444 242.415C146.914 242.636 147.288 242.982 147.566 243.452C147.849 243.917 147.991 244.517 147.991 245.254V251H146.418V245.407C146.418 244.721 146.237 244.214 145.874 243.885C145.517 243.551 145.052 243.384 144.48 243.384C144.083 243.384 143.712 243.449 143.367 243.579C143.021 243.704 142.74 243.897 142.525 244.157C142.31 244.412 142.202 244.735 142.202 245.126V251H140.638ZM154.33 243.358H152.349V248.824C152.349 249.136 152.381 249.365 152.443 249.512C152.511 249.654 152.621 249.745 152.774 249.784C152.933 249.824 153.148 249.844 153.42 249.844H154.381V250.898C154.273 250.938 154.109 250.972 153.888 251C153.673 251.028 153.403 251.043 153.08 251.043C152.474 251.043 152.004 250.96 151.669 250.796C151.335 250.632 151.1 250.388 150.964 250.065C150.834 249.742 150.768 249.345 150.768 248.875V243.358H149.34V242.211H150.811L151.193 239.652H152.349V242.202H154.33V243.358ZM159.679 251.17C158.869 251.17 158.161 250.997 157.554 250.651C156.948 250.3 156.478 249.787 156.143 249.113C155.809 248.439 155.642 247.614 155.642 246.639C155.642 245.721 155.798 244.917 156.109 244.225C156.421 243.534 156.877 242.999 157.478 242.619C158.084 242.234 158.818 242.041 159.679 242.041C160.49 242.041 161.192 242.219 161.787 242.576C162.388 242.928 162.853 243.446 163.181 244.132C163.51 244.818 163.674 245.653 163.674 246.639C163.674 247.535 163.521 248.322 163.215 249.002C162.915 249.682 162.467 250.215 161.872 250.6C161.283 250.98 160.552 251.17 159.679 251.17ZM159.679 249.929C160.206 249.929 160.651 249.796 161.014 249.529C161.376 249.263 161.651 248.881 161.838 248.382C162.025 247.883 162.119 247.291 162.119 246.605C162.119 245.976 162.037 245.413 161.872 244.914C161.708 244.41 161.444 244.01 161.082 243.715C160.725 243.421 160.257 243.273 159.679 243.273C159.147 243.273 158.696 243.407 158.328 243.673C157.959 243.934 157.679 244.313 157.486 244.812C157.299 245.311 157.206 245.908 157.206 246.605C157.206 247.223 157.291 247.784 157.461 248.288C157.631 248.793 157.897 249.192 158.26 249.487C158.622 249.782 159.096 249.929 159.679 249.929ZM173.673 251.17C172.375 251.17 171.298 250.892 170.443 250.337C169.593 249.776 169.085 248.949 168.921 247.855L170.57 247.753C170.751 248.444 171.114 248.963 171.658 249.308C172.202 249.654 172.871 249.827 173.664 249.827C174.14 249.827 174.585 249.745 174.999 249.58C175.418 249.416 175.755 249.187 176.01 248.892C176.271 248.597 176.401 248.249 176.401 247.846C176.401 247.308 176.24 246.877 175.917 246.554C175.599 246.231 175.092 245.976 174.395 245.789L172.279 245.237C171.366 245.005 170.644 244.639 170.111 244.14C169.578 243.642 169.309 242.973 169.304 242.134C169.298 241.426 169.482 240.803 169.856 240.264C170.236 239.726 170.757 239.307 171.42 239.006C172.089 238.706 172.859 238.556 173.732 238.556C174.571 238.556 175.293 238.717 175.9 239.04C176.512 239.358 176.985 239.78 177.319 240.307C177.659 240.834 177.84 241.409 177.863 242.032L176.265 242.117C176.14 241.386 175.871 240.834 175.458 240.46C175.05 240.08 174.474 239.89 173.732 239.89C173.381 239.89 173.041 239.936 172.712 240.026C172.389 240.111 172.097 240.242 171.837 240.417C171.582 240.593 171.378 240.811 171.225 241.072C171.072 241.333 170.995 241.636 170.995 241.981C170.995 242.423 171.151 242.775 171.463 243.035C171.774 243.29 172.335 243.543 173.146 243.792L175.186 244.37C176.228 244.659 176.971 245.109 177.413 245.721C177.86 246.328 178.084 247.03 178.084 247.829C178.084 248.481 177.9 249.059 177.532 249.563C177.163 250.062 176.645 250.456 175.976 250.745C175.313 251.028 174.545 251.17 173.673 251.17ZM173.01 236.873H174.463V239.066H173.01V236.873ZM172.908 250.583H174.361V252.777H172.908V250.583ZM185.075 238.539C185.942 238.539 186.709 238.72 187.378 239.083C188.047 239.44 188.585 239.919 188.993 240.519C189.401 241.12 189.642 241.78 189.716 242.5H188.041C187.95 242.018 187.778 241.582 187.523 241.191C187.268 240.8 186.933 240.488 186.52 240.256C186.106 240.024 185.61 239.907 185.032 239.907C184.29 239.907 183.661 240.083 183.145 240.434C182.635 240.78 182.247 241.316 181.981 242.041C181.72 242.766 181.59 243.696 181.59 244.829C181.59 246.54 181.881 247.798 182.465 248.603C183.054 249.402 183.91 249.801 185.032 249.801C185.61 249.801 186.106 249.68 186.52 249.436C186.933 249.192 187.268 248.866 187.523 248.458C187.778 248.05 187.95 247.608 188.041 247.132H189.716C189.653 247.654 189.512 248.158 189.291 248.645C189.075 249.127 188.778 249.558 188.398 249.938C188.018 250.317 187.551 250.617 186.996 250.838C186.446 251.06 185.806 251.17 185.075 251.17C183.97 251.17 183.026 250.918 182.244 250.413C181.468 249.909 180.873 249.184 180.459 248.237C180.051 247.291 179.847 246.149 179.847 244.812C179.847 243.48 180.051 242.347 180.459 241.412C180.867 240.477 181.459 239.766 182.236 239.278C183.018 238.785 183.964 238.539 185.075 238.539ZM192.095 238.709H193.702V249.589H199.507V251H192.087L192.095 238.709ZM210.314 246.75C210.314 247.696 210.158 248.498 209.847 249.155C209.535 249.813 209.048 250.314 208.385 250.66C207.727 251 206.872 251.17 205.818 251.17C204.752 251.17 203.888 250.994 203.225 250.643C202.568 250.292 202.086 249.776 201.78 249.096C201.48 248.416 201.33 247.58 201.33 246.588V238.709H202.962V246.826C202.962 247.818 203.208 248.56 203.701 249.053C204.194 249.546 204.9 249.793 205.818 249.793C206.435 249.793 206.96 249.685 207.39 249.47C207.827 249.255 208.158 248.929 208.385 248.492C208.617 248.05 208.733 247.495 208.733 246.826V238.709H210.314V246.75ZM213.063 251V238.709H217.016C218.512 238.709 219.642 238.984 220.407 239.533C221.178 240.083 221.563 240.876 221.563 241.913C221.563 242.565 221.393 243.123 221.053 243.588C220.719 244.053 220.129 244.435 219.285 244.735C219.767 244.837 220.172 244.985 220.501 245.177C220.835 245.37 221.101 245.597 221.3 245.857C221.504 246.112 221.648 246.396 221.733 246.708C221.824 247.019 221.869 247.348 221.869 247.693C221.869 248.804 221.472 249.634 220.679 250.184C219.891 250.728 218.713 251 217.143 251H213.063ZM214.636 249.691H217.126C218.152 249.691 218.931 249.524 219.464 249.189C220.002 248.849 220.271 248.328 220.271 247.625C220.271 247.11 220.138 246.693 219.872 246.376C219.611 246.053 219.257 245.818 218.809 245.67C218.361 245.523 217.863 245.449 217.313 245.449H214.636V249.691ZM214.636 244.115H217.313C217.636 244.115 217.956 244.084 218.274 244.021C218.591 243.959 218.883 243.851 219.149 243.698C219.415 243.545 219.631 243.341 219.795 243.086C219.959 242.826 220.042 242.5 220.042 242.109C220.042 241.395 219.767 240.868 219.217 240.528C218.673 240.182 217.965 240.009 217.092 240.009H214.636V244.115ZM239.184 242.211L236.523 251H234.976L232.97 244.514L231.066 251H229.528L226.816 242.211H228.27L230.284 248.968H230.42L232.401 242.211H233.591L235.648 248.951H235.784L237.713 242.211H239.184ZM243.979 251.17C243.169 251.17 242.461 250.997 241.854 250.651C241.248 250.3 240.778 249.787 240.443 249.113C240.109 248.439 239.942 247.614 239.942 246.639C239.942 245.721 240.098 244.917 240.409 244.225C240.721 243.534 241.177 242.999 241.778 242.619C242.384 242.234 243.118 242.041 243.979 242.041C244.79 242.041 245.492 242.219 246.087 242.576C246.688 242.928 247.153 243.446 247.481 244.132C247.81 244.818 247.974 245.653 247.974 246.639C247.974 247.535 247.821 248.322 247.515 249.002C247.215 249.682 246.767 250.215 246.172 250.6C245.583 250.98 244.852 251.17 243.979 251.17ZM243.979 249.929C244.506 249.929 244.951 249.796 245.314 249.529C245.677 249.263 245.951 248.881 246.138 248.382C246.325 247.883 246.419 247.291 246.419 246.605C246.419 245.976 246.337 245.413 246.172 244.914C246.008 244.41 245.745 244.01 245.382 243.715C245.025 243.421 244.557 243.273 243.979 243.273C243.447 243.273 242.996 243.407 242.628 243.673C242.26 243.934 241.979 244.313 241.786 244.812C241.599 245.311 241.506 245.908 241.506 246.605C241.506 247.223 241.591 247.784 241.761 248.288C241.931 248.793 242.197 249.192 242.56 249.487C242.923 249.782 243.396 249.929 243.979 249.929ZM249.862 251V242.211H251.358V243.902C251.505 243.483 251.712 243.137 251.978 242.865C252.245 242.588 252.548 242.381 252.888 242.245C253.233 242.109 253.59 242.041 253.959 242.041C254.089 242.041 254.217 242.049 254.341 242.067C254.466 242.083 254.562 242.112 254.63 242.151V243.673C254.545 243.633 254.435 243.608 254.299 243.596C254.168 243.579 254.058 243.571 253.967 243.571C253.616 243.548 253.287 243.571 252.981 243.639C252.675 243.701 252.406 243.812 252.174 243.97C251.941 244.129 251.757 244.339 251.621 244.599C251.491 244.854 251.426 245.166 251.426 245.534V251H249.862ZM258.501 251.111C258.025 251.111 257.64 251.045 257.345 250.915C257.056 250.785 256.832 250.609 256.674 250.388C256.521 250.167 256.416 249.915 256.359 249.631C256.308 249.342 256.283 249.045 256.283 248.739V238.369H257.83V248.586C257.83 249.028 257.915 249.359 258.085 249.58C258.26 249.801 258.504 249.923 258.816 249.946L259.292 249.954V250.974C259.161 251.014 259.025 251.045 258.884 251.068C258.742 251.096 258.614 251.111 258.501 251.111ZM264.214 251.17C263.075 251.17 262.171 250.779 261.502 249.997C260.834 249.215 260.499 248.073 260.499 246.571C260.499 245.659 260.632 244.863 260.899 244.183C261.171 243.503 261.573 242.976 262.106 242.602C262.638 242.228 263.301 242.041 264.095 242.041C264.514 242.041 264.885 242.095 265.208 242.202C265.537 242.31 265.82 242.446 266.058 242.61C266.296 242.775 266.489 242.945 266.636 243.12C266.789 243.296 266.903 243.458 266.976 243.605V238.369H268.557V251H267.359L267.189 249.198C267.132 249.368 267.041 249.566 266.917 249.793C266.792 250.014 266.616 250.232 266.39 250.447C266.163 250.657 265.871 250.83 265.514 250.966C265.163 251.102 264.729 251.17 264.214 251.17ZM264.494 249.963C265.384 249.963 266.019 249.694 266.398 249.155C266.784 248.611 266.976 247.725 266.976 246.495C266.971 245.809 266.883 245.226 266.713 244.744C266.548 244.262 266.288 243.897 265.931 243.647C265.579 243.392 265.112 243.265 264.528 243.265C263.803 243.265 263.214 243.523 262.76 244.038C262.307 244.554 262.08 245.373 262.08 246.495C262.08 247.594 262.284 248.447 262.692 249.053C263.106 249.66 263.707 249.963 264.494 249.963ZM286.192 242.211L283.531 251H281.984L279.978 244.514L278.074 251H276.536L273.824 242.211H275.278L277.292 248.968H277.428L279.409 242.211H280.599L282.656 248.951H282.792L284.721 242.211H286.192ZM289.51 242.211V251H287.988V242.211H289.51ZM289.544 238.717V240.349H287.937V238.717H289.544ZM296.687 243.358H294.706V248.824C294.706 249.136 294.738 249.365 294.8 249.512C294.868 249.654 294.978 249.745 295.131 249.784C295.29 249.824 295.505 249.844 295.777 249.844H296.738V250.898C296.63 250.938 296.466 250.972 296.245 251C296.03 251.028 295.76 251.043 295.437 251.043C294.831 251.043 294.361 250.96 294.026 250.796C293.692 250.632 293.457 250.388 293.321 250.065C293.191 249.742 293.125 249.345 293.125 248.875V243.358H291.697V242.211H293.168L293.55 239.652H294.706V242.202H296.687V243.358ZM298.775 251V238.369H300.305V243.503C300.453 243.259 300.651 243.033 300.9 242.823C301.15 242.608 301.453 242.435 301.81 242.304C302.167 242.168 302.58 242.1 303.051 242.1C303.623 242.1 304.142 242.208 304.606 242.423C305.071 242.633 305.439 242.933 305.711 243.324C305.983 243.715 306.119 244.18 306.119 244.718V251H304.547V245.033C304.547 244.506 304.365 244.101 304.003 243.817C303.646 243.528 303.178 243.384 302.6 243.384C302.209 243.384 301.841 243.449 301.495 243.579C301.15 243.704 300.869 243.897 300.654 244.157C300.444 244.412 300.339 244.738 300.339 245.135V251H298.775ZM315.426 251.17C314.616 251.17 313.907 250.997 313.301 250.651C312.695 250.3 312.224 249.787 311.89 249.113C311.556 248.439 311.388 247.614 311.388 246.639C311.388 245.721 311.544 244.917 311.856 244.225C312.168 243.534 312.624 242.999 313.224 242.619C313.831 242.234 314.565 242.041 315.426 242.041C316.236 242.041 316.939 242.219 317.534 242.576C318.135 242.928 318.599 243.446 318.928 244.132C319.257 244.818 319.421 245.653 319.421 246.639C319.421 247.535 319.268 248.322 318.962 249.002C318.662 249.682 318.214 250.215 317.619 250.6C317.03 250.98 316.299 251.17 315.426 251.17ZM315.426 249.929C315.953 249.929 316.398 249.796 316.76 249.529C317.123 249.263 317.398 248.881 317.585 248.382C317.772 247.883 317.865 247.291 317.865 246.605C317.865 245.976 317.783 245.413 317.619 244.914C317.455 244.41 317.191 244.01 316.828 243.715C316.471 243.421 316.004 243.273 315.426 243.273C314.893 243.273 314.443 243.407 314.074 243.673C313.706 243.934 313.426 244.313 313.233 244.812C313.046 245.311 312.952 245.908 312.952 246.605C312.952 247.223 313.037 247.784 313.207 248.288C313.377 248.793 313.644 249.192 314.006 249.487C314.369 249.782 314.842 249.929 315.426 249.929ZM324.406 251.17C323.947 251.164 323.513 251.099 323.105 250.974C322.703 250.844 322.346 250.654 322.034 250.405C321.722 250.156 321.476 249.847 321.295 249.478C321.119 249.104 321.031 248.671 321.031 248.178V242.211H322.604V248.016C322.604 248.589 322.779 249.053 323.131 249.41C323.488 249.767 324.023 249.946 324.737 249.946C325.383 249.946 325.902 249.779 326.293 249.444C326.689 249.104 326.888 248.6 326.888 247.931V242.211H328.452V251H327.202L327.041 249.317C326.933 249.759 326.749 250.116 326.488 250.388C326.233 250.66 325.924 250.861 325.562 250.991C325.205 251.116 324.819 251.176 324.406 251.17ZM330.834 251V242.211H332.33V243.902C332.477 243.483 332.684 243.137 332.95 242.865C333.216 242.588 333.52 242.381 333.86 242.245C334.205 242.109 334.562 242.041 334.931 242.041C335.061 242.041 335.188 242.049 335.313 242.067C335.438 242.083 335.534 242.112 335.602 242.151V243.673C335.517 243.633 335.407 243.608 335.271 243.596C335.14 243.579 335.03 243.571 334.939 243.571C334.588 243.548 334.259 243.571 333.953 243.639C333.647 243.701 333.378 243.812 333.146 243.97C332.913 244.129 332.729 244.339 332.593 244.599C332.463 244.854 332.398 245.166 332.398 245.534V251H330.834ZM344.708 253.907C343.326 253.907 342.249 253.706 341.478 253.304C340.713 252.907 340.331 252.337 340.331 251.595C340.331 251.278 340.405 251.009 340.552 250.787C340.699 250.561 340.875 250.374 341.079 250.226C341.283 250.079 341.473 249.963 341.648 249.878C341.824 249.787 341.937 249.722 341.988 249.682C341.892 249.626 341.77 249.555 341.623 249.47C341.481 249.385 341.357 249.272 341.249 249.13C341.141 248.988 341.087 248.804 341.087 248.577C341.087 248.3 341.218 248.045 341.478 247.812C341.739 247.58 342.124 247.407 342.634 247.294C342.119 247.033 341.716 246.688 341.427 246.257C341.138 245.826 340.994 245.359 340.994 244.854C340.994 244.288 341.147 243.795 341.453 243.375C341.765 242.956 342.207 242.636 342.779 242.415C343.351 242.188 344.031 242.075 344.819 242.075C345.391 242.075 345.873 242.143 346.264 242.279C346.655 242.409 347.018 242.596 347.352 242.84C347.443 242.8 347.584 242.741 347.777 242.661C347.975 242.576 348.193 242.486 348.431 242.389C348.669 242.293 348.89 242.202 349.094 242.117C349.304 242.027 349.471 241.959 349.596 241.913L349.587 243.367L348.049 243.656C348.134 243.837 348.202 244.036 348.253 244.251C348.31 244.466 348.338 244.667 348.338 244.854C348.338 245.37 348.202 245.838 347.93 246.257C347.664 246.676 347.258 247.011 346.714 247.26C346.17 247.509 345.49 247.634 344.674 247.634C344.606 247.634 344.519 247.634 344.411 247.634C344.309 247.628 344.221 247.623 344.147 247.617C343.547 247.634 343.133 247.702 342.906 247.821C342.68 247.934 342.566 248.062 342.566 248.203C342.566 248.368 342.694 248.481 342.949 248.543C343.204 248.606 343.637 248.66 344.249 248.705C344.47 248.716 344.742 248.73 345.065 248.747C345.394 248.764 345.757 248.787 346.153 248.816C347.077 248.872 347.788 249.107 348.287 249.521C348.786 249.935 349.035 250.493 349.035 251.196C349.035 251.995 348.678 252.646 347.964 253.151C347.25 253.655 346.165 253.907 344.708 253.907ZM344.989 252.896C345.799 252.896 346.42 252.774 346.85 252.53C347.281 252.286 347.496 251.918 347.496 251.425C347.496 251.074 347.363 250.787 347.097 250.566C346.836 250.34 346.437 250.209 345.898 250.175L343.433 250.014C343.212 250.003 342.983 250.059 342.745 250.184C342.507 250.303 342.303 250.47 342.133 250.685C341.969 250.901 341.886 251.145 341.886 251.417C341.886 251.881 342.139 252.244 342.643 252.505C343.153 252.765 343.935 252.896 344.989 252.896ZM344.717 246.622C345.352 246.622 345.862 246.475 346.247 246.18C346.638 245.886 346.833 245.449 346.833 244.871C346.833 244.276 346.638 243.823 346.247 243.511C345.862 243.2 345.352 243.044 344.717 243.044C344.077 243.044 343.558 243.203 343.161 243.52C342.77 243.832 342.575 244.282 342.575 244.871C342.575 245.427 342.762 245.857 343.136 246.163C343.51 246.469 344.037 246.622 344.717 246.622ZM354.372 251.17C353.913 251.164 353.479 251.099 353.071 250.974C352.669 250.844 352.312 250.654 352 250.405C351.689 250.156 351.442 249.847 351.261 249.478C351.085 249.104 350.997 248.671 350.997 248.178V242.211H352.57V248.016C352.57 248.589 352.746 249.053 353.097 249.41C353.454 249.767 353.989 249.946 354.703 249.946C355.349 249.946 355.868 249.779 356.259 249.444C356.656 249.104 356.854 248.6 356.854 247.931V242.211H358.418V251H357.168L357.007 249.317C356.899 249.759 356.715 250.116 356.454 250.388C356.199 250.66 355.891 250.861 355.528 250.991C355.171 251.116 354.786 251.176 354.372 251.17ZM362.5 242.211V251H360.979V242.211H362.5ZM362.534 238.717V240.349H360.928V238.717H362.534ZM368.266 251.17C367.127 251.17 366.224 250.779 365.555 249.997C364.886 249.215 364.552 248.073 364.552 246.571C364.552 245.659 364.685 244.863 364.951 244.183C365.223 243.503 365.626 242.976 366.158 242.602C366.691 242.228 367.354 242.041 368.147 242.041C368.567 242.041 368.938 242.095 369.261 242.202C369.59 242.31 369.873 242.446 370.111 242.61C370.349 242.775 370.542 242.945 370.689 243.12C370.842 243.296 370.955 243.458 371.029 243.605V238.369H372.61V251H371.411L371.241 249.198C371.185 249.368 371.094 249.566 370.969 249.793C370.845 250.014 370.669 250.232 370.442 250.447C370.216 250.657 369.924 250.83 369.567 250.966C369.216 251.102 368.782 251.17 368.266 251.17ZM368.547 249.963C369.437 249.963 370.071 249.694 370.451 249.155C370.836 248.611 371.029 247.725 371.029 246.495C371.023 245.809 370.935 245.226 370.765 244.744C370.601 244.262 370.34 243.897 369.983 243.647C369.632 243.392 369.165 243.265 368.581 243.265C367.856 243.265 367.266 243.523 366.813 244.038C366.36 244.554 366.133 245.373 366.133 246.495C366.133 247.594 366.337 248.447 366.745 249.053C367.159 249.66 367.759 249.963 368.547 249.963ZM376.158 246.971C376.158 247.526 376.249 248.031 376.43 248.484C376.617 248.932 376.898 249.289 377.272 249.555C377.651 249.821 378.125 249.954 378.691 249.954C379.252 249.954 379.734 249.824 380.136 249.563C380.544 249.303 380.805 248.926 380.918 248.433H382.406C382.298 249.028 382.06 249.529 381.692 249.938C381.323 250.345 380.879 250.654 380.357 250.864C379.836 251.068 379.292 251.17 378.725 251.17C377.904 251.17 377.181 250.992 376.558 250.634C375.934 250.277 375.447 249.765 375.096 249.096C374.744 248.427 374.569 247.625 374.569 246.69C374.569 245.767 374.727 244.956 375.045 244.259C375.362 243.562 375.821 243.018 376.422 242.627C377.028 242.236 377.756 242.041 378.606 242.041C379.434 242.041 380.133 242.219 380.706 242.576C381.278 242.933 381.712 243.438 382.006 244.089C382.307 244.735 382.457 245.503 382.457 246.393V246.971H376.158ZM376.167 245.908H380.944C380.944 245.404 380.859 244.951 380.689 244.548C380.519 244.14 380.258 243.82 379.907 243.588C379.561 243.35 379.125 243.231 378.598 243.231C378.048 243.231 377.592 243.364 377.229 243.63C376.872 243.891 376.603 244.228 376.422 244.642C376.246 245.05 376.161 245.472 376.167 245.908ZM391.371 251.17C390.561 251.17 389.853 250.997 389.246 250.651C388.64 250.3 388.17 249.787 387.835 249.113C387.501 248.439 387.334 247.614 387.334 246.639C387.334 245.721 387.49 244.917 387.801 244.225C388.113 243.534 388.569 242.999 389.17 242.619C389.776 242.234 390.51 242.041 391.371 242.041C392.182 242.041 392.884 242.219 393.479 242.576C394.08 242.928 394.545 243.446 394.873 244.132C395.202 244.818 395.366 245.653 395.366 246.639C395.366 247.535 395.213 248.322 394.907 249.002C394.607 249.682 394.159 250.215 393.564 250.6C392.975 250.98 392.244 251.17 391.371 251.17ZM391.371 249.929C391.898 249.929 392.343 249.796 392.706 249.529C393.069 249.263 393.343 248.881 393.53 248.382C393.717 247.883 393.811 247.291 393.811 246.605C393.811 245.976 393.729 245.413 393.564 244.914C393.4 244.41 393.137 244.01 392.774 243.715C392.417 243.421 391.949 243.273 391.371 243.273C390.839 243.273 390.388 243.407 390.02 243.673C389.652 243.934 389.371 244.313 389.178 244.812C388.991 245.311 388.898 245.908 388.898 246.605C388.898 247.223 388.983 247.784 389.153 248.288C389.323 248.793 389.589 249.192 389.952 249.487C390.315 249.782 390.788 249.929 391.371 249.929ZM397.254 251V242.211H398.775V243.486C398.917 243.242 399.112 243.013 399.362 242.797C399.617 242.582 399.923 242.409 400.28 242.279C400.642 242.149 401.059 242.083 401.529 242.083C402.085 242.083 402.595 242.194 403.059 242.415C403.53 242.636 403.904 242.982 404.181 243.452C404.465 243.917 404.606 244.517 404.606 245.254V251H403.034V245.407C403.034 244.721 402.852 244.214 402.49 243.885C402.133 243.551 401.668 243.384 401.096 243.384C400.699 243.384 400.328 243.449 399.982 243.579C399.637 243.704 399.356 243.897 399.141 244.157C398.925 244.412 398.818 244.735 398.818 245.126V251H397.254ZM413.763 251.17C413.151 251.17 412.581 251.077 412.054 250.889C411.533 250.697 411.099 250.399 410.754 249.997C410.408 249.589 410.19 249.07 410.099 248.441H411.527C411.607 248.787 411.748 249.076 411.952 249.308C412.162 249.535 412.423 249.708 412.734 249.827C413.046 249.94 413.386 249.997 413.754 249.997C414.344 249.997 414.82 249.886 415.182 249.665C415.545 249.444 415.726 249.104 415.726 248.645C415.726 248.322 415.63 248.065 415.437 247.872C415.25 247.674 414.958 247.529 414.562 247.438L412.743 246.988C412.034 246.818 411.468 246.552 411.043 246.189C410.618 245.826 410.405 245.319 410.405 244.667C410.4 244.152 410.521 243.698 410.771 243.307C411.02 242.916 411.394 242.608 411.893 242.381C412.391 242.154 413.012 242.041 413.754 242.041C414.706 242.041 415.474 242.256 416.058 242.687C416.647 243.112 416.953 243.738 416.976 244.565H415.59C415.534 244.146 415.344 243.815 415.021 243.571C414.703 243.322 414.276 243.197 413.737 243.197C413.176 243.197 412.72 243.31 412.369 243.537C412.017 243.758 411.842 244.104 411.842 244.574C411.842 244.886 411.966 245.132 412.216 245.313C412.465 245.489 412.833 245.636 413.321 245.755L415.08 246.198C415.488 246.305 415.823 246.447 416.083 246.622C416.35 246.798 416.559 246.994 416.712 247.209C416.871 247.424 416.981 247.651 417.044 247.889C417.112 248.121 417.146 248.345 417.146 248.56C417.146 249.099 417.01 249.563 416.738 249.954C416.471 250.34 416.086 250.64 415.582 250.855C415.083 251.065 414.477 251.17 413.763 251.17ZM420.295 246.971C420.295 247.526 420.385 248.031 420.567 248.484C420.754 248.932 421.034 249.289 421.408 249.555C421.788 249.821 422.261 249.954 422.828 249.954C423.389 249.954 423.87 249.824 424.273 249.563C424.681 249.303 424.941 248.926 425.055 248.433H426.542C426.434 249.028 426.196 249.529 425.828 249.938C425.46 250.345 425.015 250.654 424.494 250.864C423.972 251.068 423.428 251.17 422.862 251.17C422.04 251.17 421.317 250.992 420.694 250.634C420.071 250.277 419.583 249.765 419.232 249.096C418.881 248.427 418.705 247.625 418.705 246.69C418.705 245.767 418.864 244.956 419.181 244.259C419.498 243.562 419.957 243.018 420.558 242.627C421.164 242.236 421.893 242.041 422.743 242.041C423.57 242.041 424.27 242.219 424.842 242.576C425.414 242.933 425.848 243.438 426.143 244.089C426.443 244.735 426.593 245.503 426.593 246.393V246.971H420.295ZM420.303 245.908H425.08C425.08 245.404 424.995 244.951 424.825 244.548C424.655 244.14 424.394 243.82 424.043 243.588C423.697 243.35 423.261 243.231 422.734 243.231C422.184 243.231 421.728 243.364 421.366 243.63C421.009 243.891 420.739 244.228 420.558 244.642C420.382 245.05 420.297 245.472 420.303 245.908ZM435.736 251H434.027L431.469 247.557L428.927 251H427.202L430.593 246.435L427.474 242.211H429.191L431.469 245.296L433.755 242.211H435.472L432.344 246.435L435.736 251ZM185.426 277.737V266.211H186.99L187.007 267.741C187.109 267.56 187.239 267.37 187.398 267.171C187.562 266.973 187.761 266.789 187.993 266.619C188.231 266.449 188.506 266.31 188.817 266.202C189.135 266.095 189.495 266.041 189.897 266.041C190.6 266.041 191.217 266.202 191.75 266.525C192.288 266.843 192.708 267.33 193.008 267.987C193.308 268.645 193.458 269.478 193.458 270.486C193.458 271.495 193.311 272.348 193.016 273.045C192.727 273.736 192.308 274.263 191.758 274.626C191.209 274.989 190.546 275.17 189.769 275.17C189.378 275.17 189.03 275.113 188.724 275C188.424 274.892 188.16 274.751 187.933 274.575C187.712 274.394 187.525 274.201 187.372 273.997C187.225 273.793 187.103 273.597 187.007 273.41V277.737H185.426ZM189.472 273.946C190.197 273.946 190.789 273.671 191.248 273.121C191.707 272.566 191.937 271.705 191.937 270.537C191.937 269.534 191.727 268.738 191.308 268.149C190.889 267.56 190.277 267.265 189.472 267.265C188.656 267.265 188.038 267.568 187.619 268.174C187.2 268.775 186.99 269.563 186.99 270.537C186.99 271.166 187.083 271.739 187.27 272.254C187.457 272.77 187.735 273.181 188.103 273.487C188.472 273.793 188.928 273.946 189.472 273.946ZM198.843 275.17C198.033 275.17 197.324 274.997 196.718 274.651C196.112 274.3 195.641 273.787 195.307 273.113C194.973 272.439 194.806 271.614 194.806 270.639C194.806 269.721 194.961 268.917 195.273 268.225C195.585 267.534 196.041 266.999 196.642 266.619C197.248 266.234 197.982 266.041 198.843 266.041C199.653 266.041 200.356 266.219 200.951 266.576C201.552 266.928 202.016 267.446 202.345 268.132C202.674 268.818 202.838 269.653 202.838 270.639C202.838 271.535 202.685 272.322 202.379 273.002C202.079 273.682 201.631 274.215 201.036 274.6C200.447 274.98 199.716 275.17 198.843 275.17ZM198.843 273.929C199.37 273.929 199.815 273.796 200.178 273.529C200.54 273.263 200.815 272.881 201.002 272.382C201.189 271.883 201.283 271.291 201.283 270.605C201.283 269.976 201.2 269.413 201.036 268.914C200.872 268.41 200.608 268.01 200.246 267.715C199.889 267.421 199.421 267.273 198.843 267.273C198.31 267.273 197.86 267.407 197.492 267.673C197.123 267.934 196.843 268.313 196.65 268.812C196.463 269.311 196.37 269.908 196.37 270.605C196.37 271.223 196.455 271.784 196.625 272.288C196.795 272.793 197.061 273.192 197.424 273.487C197.786 273.782 198.259 273.929 198.843 273.929ZM207.795 275.17C207.183 275.17 206.614 275.077 206.087 274.889C205.565 274.697 205.132 274.399 204.786 273.997C204.441 273.589 204.222 273.07 204.132 272.441H205.56C205.639 272.787 205.781 273.076 205.985 273.308C206.194 273.535 206.455 273.708 206.767 273.827C207.078 273.94 207.418 273.997 207.787 273.997C208.376 273.997 208.852 273.886 209.215 273.665C209.577 273.444 209.759 273.104 209.759 272.645C209.759 272.322 209.662 272.065 209.47 271.872C209.283 271.674 208.991 271.529 208.594 271.438L206.775 270.988C206.067 270.818 205.5 270.552 205.075 270.189C204.65 269.826 204.438 269.319 204.438 268.667C204.432 268.152 204.554 267.698 204.803 267.307C205.053 266.916 205.427 266.608 205.925 266.381C206.424 266.154 207.044 266.041 207.787 266.041C208.739 266.041 209.507 266.256 210.09 266.687C210.68 267.112 210.986 267.738 211.008 268.565H209.623C209.566 268.146 209.376 267.815 209.053 267.571C208.736 267.322 208.308 267.197 207.77 267.197C207.209 267.197 206.753 267.31 206.401 267.537C206.05 267.758 205.874 268.104 205.874 268.574C205.874 268.886 205.999 269.132 206.248 269.313C206.498 269.489 206.866 269.636 207.353 269.755L209.113 270.198C209.521 270.305 209.855 270.447 210.116 270.622C210.382 270.798 210.592 270.994 210.745 271.209C210.903 271.424 211.014 271.651 211.076 271.889C211.144 272.121 211.178 272.345 211.178 272.56C211.178 273.099 211.042 273.563 210.77 273.954C210.504 274.34 210.119 274.64 209.614 274.855C209.116 275.065 208.509 275.17 207.795 275.17ZM214.905 266.211V275H213.383V266.211H214.905ZM214.939 262.717V264.349H213.332V262.717H214.939ZM222.082 267.358H220.102V272.824C220.102 273.136 220.133 273.365 220.195 273.512C220.263 273.654 220.374 273.745 220.527 273.784C220.685 273.824 220.901 273.844 221.173 273.844H222.133V274.898C222.026 274.938 221.861 274.972 221.64 275C221.425 275.028 221.156 275.043 220.833 275.043C220.226 275.043 219.756 274.96 219.422 274.796C219.087 274.632 218.852 274.388 218.716 274.065C218.586 273.742 218.521 273.345 218.521 272.875V267.358H217.093V266.211H218.563L218.946 263.652H220.102V266.202H222.082V267.358ZM225.871 266.211V275H224.349V266.211H225.871ZM225.905 262.717V264.349H224.298V262.717H225.905ZM231.96 275.17C231.15 275.17 230.441 274.997 229.835 274.651C229.229 274.3 228.758 273.787 228.424 273.113C228.09 272.439 227.922 271.614 227.922 270.639C227.922 269.721 228.078 268.917 228.39 268.225C228.702 267.534 229.158 266.999 229.758 266.619C230.365 266.234 231.099 266.041 231.96 266.041C232.77 266.041 233.473 266.219 234.068 266.576C234.669 266.928 235.133 267.446 235.462 268.132C235.791 268.818 235.955 269.653 235.955 270.639C235.955 271.535 235.802 272.322 235.496 273.002C235.196 273.682 234.748 274.215 234.153 274.6C233.564 274.98 232.833 275.17 231.96 275.17ZM231.96 273.929C232.487 273.929 232.932 273.796 233.294 273.529C233.657 273.263 233.932 272.881 234.119 272.382C234.306 271.883 234.399 271.291 234.399 270.605C234.399 269.976 234.317 269.413 234.153 268.914C233.989 268.41 233.725 268.01 233.362 267.715C233.005 267.421 232.538 267.273 231.96 267.273C231.427 267.273 230.977 267.407 230.608 267.673C230.24 267.934 229.96 268.313 229.767 268.812C229.58 269.311 229.486 269.908 229.486 270.605C229.486 271.223 229.571 271.784 229.741 272.288C229.911 272.793 230.178 273.192 230.54 273.487C230.903 273.782 231.376 273.929 231.96 273.929ZM237.842 275V266.211H239.364V267.486C239.505 267.242 239.701 267.013 239.95 266.797C240.205 266.582 240.511 266.409 240.868 266.279C241.231 266.149 241.647 266.083 242.118 266.083C242.673 266.083 243.183 266.194 243.648 266.415C244.118 266.636 244.492 266.982 244.77 267.452C245.053 267.917 245.195 268.517 245.195 269.254V275H243.622V269.407C243.622 268.721 243.441 268.214 243.078 267.885C242.721 267.551 242.257 267.384 241.684 267.384C241.288 267.384 240.916 267.449 240.571 267.579C240.225 267.704 239.945 267.897 239.729 268.157C239.514 268.412 239.406 268.735 239.406 269.126V275H237.842ZM250.47 275.17C249.858 275.17 249.289 275.077 248.762 274.889C248.241 274.697 247.807 274.399 247.461 273.997C247.116 273.589 246.898 273.07 246.807 272.441H248.235C248.314 272.787 248.456 273.076 248.66 273.308C248.87 273.535 249.13 273.708 249.442 273.827C249.754 273.94 250.094 273.997 250.462 273.997C251.051 273.997 251.527 273.886 251.89 273.665C252.253 273.444 252.434 273.104 252.434 272.645C252.434 272.322 252.338 272.065 252.145 271.872C251.958 271.674 251.666 271.529 251.269 271.438L249.45 270.988C248.742 270.818 248.175 270.552 247.75 270.189C247.325 269.826 247.113 269.319 247.113 268.667C247.107 268.152 247.229 267.698 247.478 267.307C247.728 266.916 248.102 266.608 248.6 266.381C249.099 266.154 249.72 266.041 250.462 266.041C251.414 266.041 252.182 266.256 252.765 266.687C253.355 267.112 253.661 267.738 253.683 268.565H252.298C252.241 268.146 252.051 267.815 251.728 267.571C251.411 267.322 250.983 267.197 250.445 267.197C249.884 267.197 249.428 267.31 249.076 267.537C248.725 267.758 248.549 268.104 248.549 268.574C248.549 268.886 248.674 269.132 248.923 269.313C249.173 269.489 249.541 269.636 250.028 269.755L251.788 270.198C252.196 270.305 252.53 270.447 252.791 270.622C253.057 270.798 253.267 270.994 253.42 271.209C253.579 271.424 253.689 271.651 253.751 271.889C253.819 272.121 253.853 272.345 253.853 272.56C253.853 273.099 253.717 273.563 253.445 273.954C253.179 274.34 252.794 274.64 252.289 274.855C251.791 275.065 251.184 275.17 250.47 275.17ZM261.993 275.17C261.426 275.17 260.925 275.071 260.488 274.872C260.052 274.668 259.709 274.377 259.46 273.997C259.216 273.617 259.094 273.158 259.094 272.62C259.094 271.645 259.434 270.92 260.114 270.444C260.794 269.968 261.885 269.713 263.387 269.679L264.959 269.636V268.948C264.959 268.41 264.798 267.985 264.475 267.673C264.152 267.356 263.65 267.197 262.97 267.197C262.466 267.203 262.021 267.322 261.636 267.554C261.256 267.786 261.01 268.166 260.896 268.693H259.511C259.545 268.121 259.706 267.639 259.995 267.248C260.284 266.851 260.687 266.551 261.202 266.347C261.724 266.143 262.338 266.041 263.047 266.041C263.812 266.041 264.446 266.149 264.951 266.364C265.461 266.579 265.84 266.897 266.09 267.316C266.345 267.735 266.472 268.251 266.472 268.863V275H265.129L265.019 273.351C264.679 274.037 264.245 274.513 263.718 274.779C263.197 275.04 262.622 275.17 261.993 275.17ZM262.469 274.039C262.763 274.039 263.055 273.986 263.344 273.878C263.639 273.77 263.908 273.626 264.152 273.444C264.395 273.257 264.588 273.051 264.73 272.824C264.877 272.592 264.954 272.354 264.959 272.11V270.605L263.65 270.631C262.982 270.642 262.421 270.71 261.967 270.835C261.52 270.96 261.182 271.155 260.956 271.421C260.735 271.688 260.624 272.036 260.624 272.467C260.624 272.96 260.794 273.345 261.134 273.623C261.48 273.901 261.925 274.039 262.469 274.039ZM268.987 275V266.211H270.509V267.486C270.651 267.242 270.846 267.013 271.095 266.797C271.35 266.582 271.656 266.409 272.013 266.279C272.376 266.149 272.793 266.083 273.263 266.083C273.818 266.083 274.328 266.194 274.793 266.415C275.263 266.636 275.637 266.982 275.915 267.452C276.198 267.917 276.34 268.517 276.34 269.254V275H274.767V269.407C274.767 268.721 274.586 268.214 274.223 267.885C273.866 267.551 273.402 267.384 272.829 267.384C272.433 267.384 272.062 267.449 271.716 267.579C271.37 267.704 271.09 267.897 270.874 268.157C270.659 268.412 270.551 268.735 270.551 269.126V275H268.987ZM281.799 275.17C280.66 275.17 279.757 274.779 279.088 273.997C278.419 273.215 278.085 272.073 278.085 270.571C278.085 269.659 278.218 268.863 278.484 268.183C278.756 267.503 279.159 266.976 279.691 266.602C280.224 266.228 280.887 266.041 281.68 266.041C282.1 266.041 282.471 266.095 282.794 266.202C283.123 266.31 283.406 266.446 283.644 266.61C283.882 266.775 284.075 266.945 284.222 267.12C284.375 267.296 284.488 267.458 284.562 267.605V262.369H286.143V275H284.944L284.774 273.198C284.718 273.368 284.627 273.566 284.502 273.793C284.378 274.014 284.202 274.232 283.975 274.447C283.749 274.657 283.457 274.83 283.1 274.966C282.749 275.102 282.315 275.17 281.799 275.17ZM282.08 273.963C282.97 273.963 283.604 273.694 283.984 273.155C284.369 272.611 284.562 271.725 284.562 270.495C284.556 269.809 284.468 269.226 284.298 268.744C284.134 268.262 283.873 267.897 283.516 267.647C283.165 267.392 282.698 267.265 282.114 267.265C281.389 267.265 280.799 267.523 280.346 268.038C279.893 268.554 279.666 269.373 279.666 270.495C279.666 271.594 279.87 272.447 280.278 273.053C280.692 273.66 281.292 273.963 282.08 273.963ZM292.317 277.737V266.211H293.881L293.898 267.741C294 267.56 294.131 267.37 294.289 267.171C294.454 266.973 294.652 266.789 294.884 266.619C295.122 266.449 295.397 266.31 295.709 266.202C296.026 266.095 296.386 266.041 296.788 266.041C297.491 266.041 298.109 266.202 298.641 266.525C299.18 266.843 299.599 267.33 299.899 267.987C300.2 268.645 300.35 269.478 300.35 270.486C300.35 271.495 300.202 272.348 299.908 273.045C299.619 273.736 299.199 274.263 298.65 274.626C298.1 274.989 297.437 275.17 296.661 275.17C296.27 275.17 295.921 275.113 295.615 275C295.315 274.892 295.051 274.751 294.825 274.575C294.604 274.394 294.417 274.201 294.264 273.997C294.116 273.793 293.995 273.597 293.898 273.41V277.737H292.317ZM296.363 273.946C297.089 273.946 297.681 273.671 298.14 273.121C298.599 272.566 298.828 271.705 298.828 270.537C298.828 269.534 298.619 268.738 298.199 268.149C297.78 267.56 297.168 267.265 296.363 267.265C295.547 267.265 294.93 267.568 294.51 268.174C294.091 268.775 293.881 269.563 293.881 270.537C293.881 271.166 293.975 271.739 294.162 272.254C294.349 272.77 294.626 273.181 294.995 273.487C295.363 273.793 295.819 273.946 296.363 273.946ZM302.241 275V266.211H303.737V267.902C303.884 267.483 304.091 267.137 304.358 266.865C304.624 266.588 304.927 266.381 305.267 266.245C305.613 266.109 305.97 266.041 306.338 266.041C306.468 266.041 306.596 266.049 306.721 266.067C306.845 266.083 306.942 266.112 307.01 266.151V267.673C306.925 267.633 306.814 267.608 306.678 267.596C306.548 267.579 306.437 267.571 306.347 267.571C305.995 267.548 305.667 267.571 305.361 267.639C305.055 267.701 304.785 267.812 304.553 267.97C304.321 268.129 304.137 268.339 304.001 268.599C303.87 268.854 303.805 269.166 303.805 269.534V275H302.241ZM310.362 266.211V275H308.84V266.211H310.362ZM310.396 262.717V264.349H308.789V262.717H310.396ZM319.826 266.211L316.655 275H315.227L312.048 266.211H313.527L315.865 273.028H316.009L318.355 266.211H319.826ZM323.453 275.17C322.886 275.17 322.385 275.071 321.949 274.872C321.512 274.668 321.169 274.377 320.92 273.997C320.676 273.617 320.555 273.158 320.555 272.62C320.555 271.645 320.895 270.92 321.575 270.444C322.255 269.968 323.345 269.713 324.847 269.679L326.42 269.636V268.948C326.42 268.41 326.258 267.985 325.935 267.673C325.612 267.356 325.111 267.197 324.431 267.197C323.926 267.203 323.481 267.322 323.096 267.554C322.716 267.786 322.47 268.166 322.357 268.693H320.971C321.005 268.121 321.167 267.639 321.456 267.248C321.745 266.851 322.147 266.551 322.663 266.347C323.184 266.143 323.799 266.041 324.507 266.041C325.272 266.041 325.907 266.149 326.411 266.364C326.921 266.579 327.301 266.897 327.55 267.316C327.805 267.735 327.933 268.251 327.933 268.863V275H326.59L326.479 273.351C326.139 274.037 325.706 274.513 325.179 274.779C324.657 275.04 324.082 275.17 323.453 275.17ZM323.929 274.039C324.224 274.039 324.516 273.986 324.805 273.878C325.099 273.77 325.368 273.626 325.612 273.444C325.856 273.257 326.048 273.051 326.19 272.824C326.337 272.592 326.414 272.354 326.42 272.11V270.605L325.111 270.631C324.442 270.642 323.881 270.71 323.428 270.835C322.98 270.96 322.643 271.155 322.416 271.421C322.195 271.688 322.085 272.036 322.085 272.467C322.085 272.96 322.255 273.345 322.595 273.623C322.94 273.901 323.385 274.039 323.929 274.039ZM333.95 266.041C334.579 266.041 335.145 266.163 335.65 266.406C336.154 266.644 336.565 266.984 336.882 267.426C337.205 267.868 337.406 268.39 337.486 268.99H336.092C336.041 268.684 335.922 268.404 335.735 268.149C335.553 267.894 335.313 267.69 335.012 267.537C334.712 267.384 334.361 267.307 333.958 267.307C333.205 267.307 332.593 267.579 332.122 268.123C331.652 268.667 331.417 269.5 331.417 270.622C331.417 271.637 331.632 272.45 332.063 273.062C332.499 273.668 333.139 273.971 333.984 273.971C334.386 273.971 334.735 273.895 335.029 273.742C335.33 273.583 335.57 273.376 335.752 273.121C335.933 272.861 336.049 272.583 336.1 272.288H337.469C337.395 272.878 337.197 273.388 336.874 273.818C336.551 274.249 336.137 274.583 335.633 274.821C335.134 275.054 334.573 275.17 333.95 275.17C333.162 275.17 332.462 274.997 331.85 274.651C331.244 274.306 330.768 273.796 330.422 273.121C330.077 272.447 329.904 271.62 329.904 270.639C329.904 269.721 330.06 268.92 330.371 268.234C330.689 267.543 331.148 267.004 331.748 266.619C332.355 266.234 333.088 266.041 333.95 266.041ZM340.159 277.805C339.644 277.805 339.29 277.768 339.097 277.695C338.904 277.621 338.808 277.584 338.808 277.584V276.564L339.7 276.581C340.029 276.592 340.301 276.57 340.516 276.513C340.732 276.456 340.905 276.38 341.035 276.284C341.165 276.187 341.264 276.08 341.332 275.961C341.406 275.842 341.466 275.728 341.511 275.621L341.817 274.787L338.383 266.211H339.972L342.565 272.994L345.14 266.211H346.679L342.973 275.663C342.746 276.218 342.491 276.652 342.208 276.964C341.93 277.275 341.619 277.493 341.273 277.618C340.933 277.743 340.562 277.805 340.159 277.805ZM346.975 275V272.994H348.845V275H346.975Z" fill="black"/>
<path d="M190.5 92.5001C143.333 87.6667 42.7 97.3001 17.5 174.5C-14 271 19 334 76 371C121.6 400.6 246.667 394 303.5 387C360.5 388.5 480.1 378.6 502.5 327C530.5 262.5 544 202.5 502.5 152C461 101.5 414.5 92.5001 355 92.5001" stroke="black" stroke-width="10" stroke-linecap="round"/>
</svg>
