<svg width="535" height="398" viewBox="0 0 535 398" fill="none" xmlns="http://www.w3.org/2000/svg">
<rect y="91" width="535" height="296" rx="148" fill="white"/>
<path fill-rule="evenodd" clip-rule="evenodd" d="M276.654 127.846C277.229 127.271 277.969 126.888 278.766 126.727C307.996 120.81 330 94.9746 330 64C330 28.6538 301.346 0 266 0C230.654 0 202 28.6538 202 64C202 94.5526 223.409 120.105 252.043 126.474C252.811 126.644 253.521 127.021 254.077 127.577L262.672 136.172C264.234 137.734 266.766 137.734 268.328 136.172L276.654 127.846Z" fill="white"/>
<path d="M252.5 126.5C256.961 126.996 259.52 138.111 265.69 138.765C272.213 139.457 270.5 125.778 292.5 121.5C319.343 116.281 332.355 96.9237 333.5 66C334.746 32.3602 315.6 5 276 5C241.663 5 214.203 20.685 207 55.5C201 84.5 218.127 114.657 237.5 119.5" stroke="black" stroke-width="10" stroke-linecap="round"/>
<path d="M234.956 59.5143C242.27 52.4149 252.924 57.3233 261.78 55.925C269.71 54.6729 277.553 52.165 284.591 48.2628C289.288 45.6583 293.79 43.353 297.982 40" stroke="black" stroke-width="10" stroke-linecap="round"/>
<path d="M297.88 40.2134C302.651 46.4766 305.481 54.7689 310.488 60.5252" stroke="black" stroke-width="10" stroke-linecap="round"/>
<path d="M231 61.8878C232.616 65.8835 233.953 69.7847 235.073 73.9304C235.822 76.7033 237.028 79.3644 237.651 82.1639C237.74 82.5628 238.069 86.7014 238.648 86.6762C240.387 86.6006 242.053 85.4016 243.658 84.8303C246.494 83.8207 249.866 84.3028 252.829 84.3028C256.636 84.3028 260.381 84.7746 264.168 84.8303C274.687 84.9849 286.596 85.5021 295.403 78.5892C299.307 75.5246 302.498 72.6211 304.838 68.2753C305.822 66.4482 308.754 62.1757 310.488 60.8755" stroke="black" stroke-width="10" stroke-linecap="round"/>
<path d="M273.71 61.8339C270.329 62.0869 265.57 61.8462 263.699 65.0937C261.137 69.5401 266.173 72.6634 269.86 74.7934C273.706 77.0152 279.921 76.177 282.182 72.2094C286.265 65.0438 274.092 58.2572 267.164 60.4028" stroke="black" stroke-width="10" stroke-linecap="round"/>
<path d="M291 47C291.966 48.265 293.829 48.972 295.81 48.972C296.361 48.972 297.054 49.0504 297.588 48.9447C298.102 48.8428 298.451 48.479 299 48.479" stroke="black" stroke-width="10" stroke-linecap="round"/>
<path d="M307 59C305.615 59.9425 303.271 61.0704 302.501 62.403C301.881 63.4754 301.801 65.2447 302.46 66.2985C302.774 66.8018 303.519 67.5347 304.227 67.806C304.494 67.9087 304.65 67.8095 304.781 68" stroke="black" stroke-width="10" stroke-linecap="round"/>
<path d="M238 80.5854C241.378 78.9275 245.636 77.2282 248 83" stroke="black" stroke-width="10" stroke-linecap="round"/>
<path d="M235 65C238.017 63.3241 240.175 60.6651 241 57" stroke="black" stroke-width="10" stroke-linecap="round"/>
<path d="M241.508 183.072C240.804 182.688 239.796 182.496 238.484 182.496C238.036 182.496 237.7 182.512 237.476 182.544L236.276 182.688V189.696L237.428 189.456C238.292 189.296 239.364 188.832 240.644 188.064C241.956 187.264 242.724 186.608 242.948 186.096C243.044 185.904 243.092 185.696 243.092 185.472C243.092 185.024 242.932 184.576 242.612 184.128C242.324 183.648 241.956 183.296 241.508 183.072ZM237.764 172.368C237.764 172.144 237.62 172.032 237.332 172.032C236.98 172.032 236.66 172.176 236.372 172.464C236.084 172.752 235.94 173.28 235.94 174.048C235.94 174.656 236.052 174.96 236.276 174.96C236.468 174.96 236.756 174.608 237.14 173.904C237.556 173.2 237.764 172.688 237.764 172.368ZM234.26 167.04C234.932 166.72 235.94 166.56 237.284 166.56C238.66 166.56 239.732 166.72 240.5 167.04C241.204 167.328 241.828 167.872 242.372 168.672C242.948 169.44 243.316 170.304 243.476 171.264C243.508 171.392 243.524 171.584 243.524 171.84C243.524 172.16 243.316 172.88 242.9 174C242.484 175.12 242.276 176.016 242.276 176.688C242.276 177.008 242.804 177.44 243.86 177.984C245.972 179.104 247.396 180.56 248.132 182.352C248.516 183.28 248.708 184.272 248.708 185.328C248.708 187.504 248.068 189.264 246.788 190.608C245.668 191.792 243.924 192.896 241.556 193.92C239.188 194.944 237.188 195.456 235.556 195.456C234.436 195.456 233.54 195.2 232.868 194.688C232.228 194.144 231.908 193.424 231.908 192.528C231.908 191.76 231.684 191.072 231.236 190.464C230.98 190.08 230.804 189.392 230.708 188.4C230.612 187.408 230.5 185.36 230.372 182.256C230.212 177.488 230.036 174.656 229.844 173.76C229.78 173.184 229.748 172.736 229.748 172.416C229.748 172.16 229.78 171.872 229.844 171.552C229.972 171.04 230.564 170.24 231.62 169.152C232.676 168.064 233.556 167.36 234.26 167.04ZM255.378 172.944C255.986 172.688 256.514 172.56 256.962 172.56C257.57 172.56 258.13 172.768 258.642 173.184C259.058 173.504 259.314 173.968 259.41 174.576C259.506 175.184 259.618 176.784 259.746 179.376C259.874 182.352 260.114 184.56 260.466 186C260.85 187.408 261.426 188.416 262.194 189.024C262.802 189.472 263.25 189.696 263.538 189.696C263.89 189.696 264.434 189.376 265.17 188.736C266.194 187.776 267.25 185.984 268.338 183.36C269.458 180.704 270.018 178.64 270.018 177.168C270.018 176.592 270.29 175.936 270.834 175.2C271.41 174.528 272.098 174.192 272.898 174.192C273.73 174.192 274.45 174.544 275.058 175.248C275.57 175.792 275.826 176.384 275.826 177.024C275.826 177.184 275.794 177.616 275.73 178.32C275.346 181.424 274.226 184.768 272.37 188.352C271.346 190.432 269.986 192.176 268.29 193.584C266.626 194.992 265.058 195.696 263.586 195.696C262.242 195.696 260.818 195.136 259.314 194.016C257.81 192.896 256.674 191.568 255.906 190.032C255.234 188.656 254.77 187.344 254.514 186.096C254.29 184.816 254.098 182.832 253.938 180.144C253.874 178.672 253.842 177.744 253.842 177.36C253.842 175.952 253.954 174.944 254.178 174.336C254.402 173.696 254.802 173.232 255.378 172.944ZM300.326 170.832C300.518 170.8 300.774 170.784 301.094 170.784C302.086 170.784 302.854 171.12 303.398 171.792C303.942 172.464 304.214 173.44 304.214 174.72C304.214 176.832 303.766 178.832 302.87 180.72C302.006 182.576 300.838 184.032 299.366 185.088L297.542 186.432L297.734 188.448C298.054 191.968 298.214 194.256 298.214 195.312C298.214 196.528 298.102 197.408 297.878 197.952C297.654 198.496 297.27 198.96 296.726 199.344C296.342 199.6 295.894 199.728 295.382 199.728C294.614 199.728 293.894 199.376 293.222 198.672C292.71 198.064 292.454 197.12 292.454 195.84C292.454 194.656 292.39 192.848 292.262 190.416L292.022 187.056L289.862 186.432C288.39 186.016 287.19 185.376 286.262 184.512C285.462 183.776 284.406 182.256 283.094 179.952C281.782 177.648 281.126 176.144 281.126 175.44C281.126 174.736 281.462 174.112 282.134 173.568C282.806 173.024 283.526 172.752 284.294 172.752C284.806 172.752 285.254 172.896 285.638 173.184C285.926 173.376 286.71 174.64 287.99 176.976C288.886 178.608 289.494 179.6 289.814 179.952C290.166 180.304 290.854 180.656 291.878 181.008C292.838 181.36 293.51 181.536 293.894 181.536C294.214 181.536 294.678 181.36 295.286 181.008C296.31 180.464 297.046 179.744 297.494 178.848C297.942 177.92 298.166 176.672 298.166 175.104C298.166 173.664 298.326 172.624 298.646 171.984C298.966 171.344 299.526 170.96 300.326 170.832Z" fill="black"/>
<path d="M173.814 250.709H175.387V263H173.814V250.709ZM178.136 263V254.211H179.657V255.486C179.799 255.242 179.994 255.013 180.244 254.797C180.499 254.582 180.805 254.409 181.162 254.279C181.524 254.149 181.941 254.083 182.411 254.083C182.967 254.083 183.477 254.194 183.941 254.415C184.412 254.636 184.786 254.982 185.063 255.452C185.347 255.917 185.488 256.517 185.488 257.254V263H183.916V257.407C183.916 256.721 183.734 256.214 183.372 255.885C183.015 255.551 182.55 255.384 181.978 255.384C181.581 255.384 181.21 255.449 180.864 255.579C180.519 255.704 180.238 255.897 180.023 256.157C179.807 256.412 179.7 256.735 179.7 257.126V263H178.136ZM190.764 263.17C190.152 263.17 189.582 263.077 189.055 262.889C188.534 262.697 188.101 262.399 187.755 261.997C187.409 261.589 187.191 261.07 187.1 260.441H188.528C188.608 260.787 188.749 261.076 188.953 261.308C189.163 261.535 189.424 261.708 189.735 261.827C190.047 261.94 190.387 261.997 190.755 261.997C191.345 261.997 191.821 261.886 192.183 261.665C192.546 261.444 192.727 261.104 192.727 260.645C192.727 260.322 192.631 260.065 192.438 259.872C192.251 259.674 191.96 259.529 191.563 259.438L189.744 258.988C189.036 258.818 188.469 258.552 188.044 258.189C187.619 257.826 187.406 257.319 187.406 256.667C187.401 256.152 187.523 255.698 187.772 255.307C188.021 254.916 188.395 254.608 188.894 254.381C189.393 254.154 190.013 254.041 190.755 254.041C191.707 254.041 192.475 254.256 193.059 254.687C193.648 255.112 193.954 255.738 193.977 256.565H192.591C192.535 256.146 192.345 255.815 192.022 255.571C191.705 255.322 191.277 255.197 190.738 255.197C190.177 255.197 189.721 255.31 189.37 255.537C189.019 255.758 188.843 256.104 188.843 256.574C188.843 256.886 188.968 257.132 189.217 257.313C189.466 257.489 189.835 257.636 190.322 257.755L192.081 258.198C192.489 258.305 192.824 258.447 193.084 258.622C193.351 258.798 193.56 258.994 193.713 259.209C193.872 259.424 193.983 259.651 194.045 259.889C194.113 260.121 194.147 260.345 194.147 260.56C194.147 261.099 194.011 261.563 193.739 261.954C193.473 262.34 193.087 262.64 192.583 262.855C192.084 263.065 191.478 263.17 190.764 263.17ZM200.44 255.358H198.459V260.824C198.459 261.136 198.49 261.365 198.553 261.512C198.621 261.654 198.731 261.745 198.884 261.784C199.043 261.824 199.258 261.844 199.53 261.844H200.491V262.898C200.383 262.938 200.219 262.972 199.998 263C199.782 263.028 199.513 263.043 199.19 263.043C198.584 263.043 198.114 262.96 197.779 262.796C197.445 262.632 197.21 262.388 197.074 262.065C196.943 261.742 196.878 261.345 196.878 260.875V255.358H195.45V254.211H196.921L197.303 251.652H198.459V254.202H200.44V255.358ZM204.909 263.17C204.343 263.17 203.841 263.071 203.405 262.872C202.968 262.668 202.626 262.377 202.376 261.997C202.133 261.617 202.011 261.158 202.011 260.62C202.011 259.645 202.351 258.92 203.031 258.444C203.711 257.968 204.802 257.713 206.303 257.679L207.876 257.636V256.948C207.876 256.41 207.714 255.985 207.391 255.673C207.068 255.356 206.567 255.197 205.887 255.197C205.382 255.203 204.938 255.322 204.552 255.554C204.173 255.786 203.926 256.166 203.813 256.693H202.427C202.461 256.121 202.623 255.639 202.912 255.248C203.201 254.851 203.603 254.551 204.119 254.347C204.64 254.143 205.255 254.041 205.963 254.041C206.728 254.041 207.363 254.149 207.867 254.364C208.377 254.579 208.757 254.897 209.006 255.316C209.261 255.735 209.389 256.251 209.389 256.863V263H208.046L207.935 261.351C207.595 262.037 207.162 262.513 206.635 262.779C206.113 263.04 205.538 263.17 204.909 263.17ZM205.385 262.039C205.68 262.039 205.972 261.986 206.261 261.878C206.555 261.77 206.825 261.626 207.068 261.444C207.312 261.257 207.505 261.051 207.646 260.824C207.794 260.592 207.87 260.354 207.876 260.11V258.605L206.567 258.631C205.898 258.642 205.337 258.71 204.884 258.835C204.436 258.96 204.099 259.155 203.872 259.421C203.651 259.688 203.541 260.036 203.541 260.467C203.541 260.96 203.711 261.345 204.051 261.623C204.396 261.901 204.841 262.039 205.385 262.039ZM211.904 263V254.211H213.426V255.486C213.567 255.242 213.763 255.013 214.012 254.797C214.267 254.582 214.573 254.409 214.93 254.279C215.293 254.149 215.709 254.083 216.18 254.083C216.735 254.083 217.245 254.194 217.71 254.415C218.18 254.636 218.554 254.982 218.832 255.452C219.115 255.917 219.257 256.517 219.257 257.254V263H217.684V257.407C217.684 256.721 217.503 256.214 217.14 255.885C216.783 255.551 216.318 255.384 215.746 255.384C215.349 255.384 214.978 255.449 214.633 255.579C214.287 255.704 214.006 255.897 213.791 256.157C213.576 256.412 213.468 256.735 213.468 257.126V263H211.904ZM225.596 255.358H223.615V260.824C223.615 261.136 223.646 261.365 223.709 261.512C223.777 261.654 223.887 261.745 224.04 261.784C224.199 261.824 224.414 261.844 224.686 261.844H225.647V262.898C225.539 262.938 225.375 262.972 225.154 263C224.938 263.028 224.669 263.043 224.346 263.043C223.74 263.043 223.27 262.96 222.935 262.796C222.601 262.632 222.366 262.388 222.23 262.065C222.099 261.742 222.034 261.345 222.034 260.875V255.358H220.606V254.211H222.077L222.459 251.652H223.615V254.202H225.596V255.358ZM233.863 263.17C233.296 263.17 232.795 263.071 232.359 262.872C231.922 262.668 231.579 262.377 231.33 261.997C231.086 261.617 230.965 261.158 230.965 260.62C230.965 259.645 231.305 258.92 231.985 258.444C232.665 257.968 233.755 257.713 235.257 257.679L236.83 257.636V256.948C236.83 256.41 236.668 255.985 236.345 255.673C236.022 255.356 235.521 255.197 234.841 255.197C234.336 255.203 233.891 255.322 233.506 255.554C233.126 255.786 232.88 256.166 232.767 256.693H231.381C231.415 256.121 231.577 255.639 231.866 255.248C232.155 254.851 232.557 254.551 233.073 254.347C233.594 254.143 234.209 254.041 234.917 254.041C235.682 254.041 236.317 254.149 236.821 254.364C237.331 254.579 237.711 254.897 237.96 255.316C238.215 255.735 238.343 256.251 238.343 256.863V263H237L236.889 261.351C236.549 262.037 236.116 262.513 235.589 262.779C235.067 263.04 234.492 263.17 233.863 263.17ZM234.339 262.039C234.634 262.039 234.926 261.986 235.215 261.878C235.509 261.77 235.778 261.626 236.022 261.444C236.266 261.257 236.458 261.051 236.6 260.824C236.747 260.592 236.824 260.354 236.83 260.11V258.605L235.521 258.631C234.852 258.642 234.291 258.71 233.838 258.835C233.39 258.96 233.053 259.155 232.826 259.421C232.605 259.688 232.495 260.036 232.495 260.467C232.495 260.96 232.665 261.345 233.005 261.623C233.35 261.901 233.795 262.039 234.339 262.039ZM244.36 254.041C244.989 254.041 245.555 254.163 246.06 254.406C246.564 254.644 246.975 254.984 247.292 255.426C247.615 255.868 247.816 256.39 247.896 256.99H246.502C246.451 256.684 246.332 256.404 246.145 256.149C245.963 255.894 245.723 255.69 245.422 255.537C245.122 255.384 244.771 255.307 244.368 255.307C243.615 255.307 243.003 255.579 242.532 256.123C242.062 256.667 241.827 257.5 241.827 258.622C241.827 259.637 242.042 260.45 242.473 261.062C242.909 261.668 243.549 261.971 244.394 261.971C244.796 261.971 245.145 261.895 245.439 261.742C245.74 261.583 245.98 261.376 246.162 261.121C246.343 260.861 246.459 260.583 246.51 260.288H247.879C247.805 260.878 247.607 261.388 247.284 261.818C246.961 262.249 246.547 262.583 246.043 262.821C245.544 263.054 244.983 263.17 244.36 263.17C243.572 263.17 242.872 262.997 242.26 262.651C241.654 262.306 241.178 261.796 240.832 261.121C240.487 260.447 240.314 259.62 240.314 258.639C240.314 257.721 240.47 256.92 240.781 256.234C241.099 255.543 241.558 255.004 242.158 254.619C242.765 254.234 243.498 254.041 244.36 254.041ZM253.354 254.041C253.983 254.041 254.55 254.163 255.054 254.406C255.558 254.644 255.969 254.984 256.286 255.426C256.609 255.868 256.811 256.39 256.89 256.99H255.496C255.445 256.684 255.326 256.404 255.139 256.149C254.958 255.894 254.717 255.69 254.416 255.537C254.116 255.384 253.765 255.307 253.362 255.307C252.609 255.307 251.997 255.579 251.526 256.123C251.056 256.667 250.821 257.5 250.821 258.622C250.821 259.637 251.036 260.45 251.467 261.062C251.903 261.668 252.544 261.971 253.388 261.971C253.79 261.971 254.139 261.895 254.433 261.742C254.734 261.583 254.975 261.376 255.156 261.121C255.337 260.861 255.453 260.583 255.504 260.288H256.873C256.799 260.878 256.601 261.388 256.278 261.818C255.955 262.249 255.541 262.583 255.037 262.821C254.538 263.054 253.977 263.17 253.354 263.17C252.566 263.17 251.866 262.997 251.254 262.651C250.648 262.306 250.172 261.796 249.826 261.121C249.481 260.447 249.308 259.62 249.308 258.639C249.308 257.721 249.464 256.92 249.775 256.234C250.093 255.543 250.552 255.004 251.152 254.619C251.759 254.234 252.493 254.041 253.354 254.041ZM259.968 258.971C259.968 259.526 260.059 260.031 260.24 260.484C260.427 260.932 260.707 261.289 261.081 261.555C261.461 261.821 261.934 261.954 262.501 261.954C263.062 261.954 263.544 261.824 263.946 261.563C264.354 261.303 264.615 260.926 264.728 260.433H266.215C266.108 261.028 265.87 261.529 265.501 261.938C265.133 262.345 264.688 262.654 264.167 262.864C263.646 263.068 263.102 263.17 262.535 263.17C261.713 263.17 260.991 262.992 260.367 262.634C259.744 262.277 259.257 261.765 258.905 261.096C258.554 260.427 258.378 259.625 258.378 258.69C258.378 257.767 258.537 256.956 258.854 256.259C259.172 255.562 259.631 255.018 260.231 254.627C260.838 254.236 261.566 254.041 262.416 254.041C263.243 254.041 263.943 254.219 264.515 254.576C265.088 254.933 265.521 255.438 265.816 256.089C266.116 256.735 266.266 257.503 266.266 258.393V258.971H259.968ZM259.976 257.908H264.753C264.753 257.404 264.668 256.951 264.498 256.548C264.328 256.14 264.068 255.82 263.716 255.588C263.371 255.35 262.934 255.231 262.407 255.231C261.858 255.231 261.402 255.364 261.039 255.63C260.682 255.891 260.413 256.228 260.231 256.642C260.056 257.05 259.971 257.472 259.976 257.908ZM271.325 263.17C270.713 263.17 270.143 263.077 269.616 262.889C269.095 262.697 268.661 262.399 268.316 261.997C267.97 261.589 267.752 261.07 267.661 260.441H269.089C269.169 260.787 269.31 261.076 269.514 261.308C269.724 261.535 269.985 261.708 270.296 261.827C270.608 261.94 270.948 261.997 271.316 261.997C271.906 261.997 272.382 261.886 272.744 261.665C273.107 261.444 273.288 261.104 273.288 260.645C273.288 260.322 273.192 260.065 272.999 259.872C272.812 259.674 272.52 259.529 272.124 259.438L270.305 258.988C269.596 258.818 269.03 258.552 268.605 258.189C268.18 257.826 267.967 257.319 267.967 256.667C267.962 256.152 268.083 255.698 268.333 255.307C268.582 254.916 268.956 254.608 269.455 254.381C269.953 254.154 270.574 254.041 271.316 254.041C272.268 254.041 273.036 254.256 273.62 254.687C274.209 255.112 274.515 255.738 274.538 256.565H273.152C273.096 256.146 272.906 255.815 272.583 255.571C272.265 255.322 271.838 255.197 271.299 255.197C270.738 255.197 270.282 255.31 269.931 255.537C269.579 255.758 269.404 256.104 269.404 256.574C269.404 256.886 269.528 257.132 269.778 257.313C270.027 257.489 270.395 257.636 270.883 257.755L272.642 258.198C273.05 258.305 273.385 258.447 273.645 258.622C273.912 258.798 274.121 258.994 274.274 259.209C274.433 259.424 274.543 259.651 274.606 259.889C274.674 260.121 274.708 260.345 274.708 260.56C274.708 261.099 274.572 261.563 274.3 261.954C274.033 262.34 273.648 262.64 273.144 262.855C272.645 263.065 272.039 263.17 271.325 263.17ZM279.721 263.17C279.109 263.17 278.54 263.077 278.013 262.889C277.491 262.697 277.058 262.399 276.712 261.997C276.366 261.589 276.148 261.07 276.058 260.441H277.486C277.565 260.787 277.707 261.076 277.911 261.308C278.12 261.535 278.381 261.708 278.693 261.827C279.004 261.94 279.344 261.997 279.713 261.997C280.302 261.997 280.778 261.886 281.141 261.665C281.503 261.444 281.685 261.104 281.685 260.645C281.685 260.322 281.588 260.065 281.396 259.872C281.209 259.674 280.917 259.529 280.52 259.438L278.701 258.988C277.993 258.818 277.426 258.552 277.001 258.189C276.576 257.826 276.364 257.319 276.364 256.667C276.358 256.152 276.48 255.698 276.729 255.307C276.978 254.916 277.352 254.608 277.851 254.381C278.35 254.154 278.97 254.041 279.713 254.041C280.665 254.041 281.432 254.256 282.016 254.687C282.605 255.112 282.911 255.738 282.934 256.565H281.549C281.492 256.146 281.302 255.815 280.979 255.571C280.662 255.322 280.234 255.197 279.696 255.197C279.135 255.197 278.678 255.31 278.327 255.537C277.976 255.758 277.8 256.104 277.8 256.574C277.8 256.886 277.925 257.132 278.174 257.313C278.423 257.489 278.792 257.636 279.279 257.755L281.039 258.198C281.447 258.305 281.781 258.447 282.042 258.622C282.308 258.798 282.518 258.994 282.671 259.209C282.829 259.424 282.94 259.651 283.002 259.889C283.07 260.121 283.104 260.345 283.104 260.56C283.104 261.099 282.968 261.563 282.696 261.954C282.43 262.34 282.044 262.64 281.54 262.855C281.041 263.065 280.435 263.17 279.721 263.17ZM293.294 255.358H291.314V260.824C291.314 261.136 291.345 261.365 291.407 261.512C291.475 261.654 291.586 261.745 291.739 261.784C291.897 261.824 292.113 261.844 292.385 261.844H293.345V262.898C293.238 262.938 293.073 262.972 292.852 263C292.637 263.028 292.368 263.043 292.045 263.043C291.438 263.043 290.968 262.96 290.634 262.796C290.299 262.632 290.064 262.388 289.928 262.065C289.798 261.742 289.733 261.345 289.733 260.875V255.358H288.305V254.211H289.775L290.158 251.652H291.314V254.202H293.294V255.358ZM298.644 263.17C297.833 263.17 297.125 262.997 296.519 262.651C295.912 262.3 295.442 261.787 295.108 261.113C294.773 260.439 294.606 259.614 294.606 258.639C294.606 257.721 294.762 256.917 295.074 256.225C295.385 255.534 295.842 254.999 296.442 254.619C297.049 254.234 297.782 254.041 298.644 254.041C299.454 254.041 300.157 254.219 300.752 254.576C301.352 254.928 301.817 255.446 302.146 256.132C302.474 256.818 302.639 257.653 302.639 258.639C302.639 259.535 302.486 260.322 302.18 261.002C301.879 261.682 301.432 262.215 300.837 262.6C300.247 262.98 299.516 263.17 298.644 263.17ZM298.644 261.929C299.171 261.929 299.616 261.796 299.978 261.529C300.341 261.263 300.616 260.881 300.803 260.382C300.99 259.883 301.083 259.291 301.083 258.605C301.083 257.976 301.001 257.413 300.837 256.914C300.672 256.41 300.409 256.01 300.046 255.715C299.689 255.421 299.222 255.273 298.644 255.273C298.111 255.273 297.661 255.407 297.292 255.673C296.924 255.934 296.643 256.313 296.451 256.812C296.264 257.311 296.17 257.908 296.17 258.605C296.17 259.223 296.255 259.784 296.425 260.288C296.595 260.793 296.862 261.192 297.224 261.487C297.587 261.782 298.06 261.929 298.644 261.929ZM312.637 263.17C311.339 263.17 310.263 262.892 309.407 262.337C308.557 261.776 308.05 260.949 307.885 259.855L309.534 259.753C309.716 260.444 310.078 260.963 310.622 261.308C311.166 261.654 311.835 261.827 312.628 261.827C313.104 261.827 313.549 261.745 313.963 261.58C314.382 261.416 314.719 261.187 314.974 260.892C315.235 260.597 315.365 260.249 315.365 259.846C315.365 259.308 315.204 258.877 314.881 258.554C314.564 258.231 314.056 257.976 313.359 257.789L311.243 257.237C310.331 257.005 309.608 256.639 309.075 256.14C308.543 255.642 308.274 254.973 308.268 254.134C308.262 253.426 308.446 252.803 308.82 252.264C309.2 251.726 309.721 251.307 310.384 251.006C311.053 250.706 311.824 250.556 312.696 250.556C313.535 250.556 314.258 250.717 314.864 251.04C315.476 251.358 315.949 251.78 316.283 252.307C316.623 252.834 316.805 253.409 316.827 254.032L315.229 254.117C315.105 253.386 314.836 252.834 314.422 252.46C314.014 252.08 313.439 251.89 312.696 251.89C312.345 251.89 312.005 251.936 311.676 252.026C311.353 252.111 311.062 252.242 310.801 252.417C310.546 252.593 310.342 252.811 310.189 253.072C310.036 253.333 309.959 253.636 309.959 253.981C309.959 254.423 310.115 254.775 310.427 255.035C310.739 255.29 311.3 255.543 312.11 255.792L314.15 256.37C315.193 256.659 315.935 257.109 316.377 257.721C316.825 258.328 317.048 259.03 317.048 259.829C317.048 260.481 316.864 261.059 316.496 261.563C316.128 262.062 315.609 262.456 314.94 262.745C314.277 263.028 313.51 263.17 312.637 263.17ZM311.974 248.873H313.427V251.066H311.974V248.873ZM311.872 262.583H313.325V264.777H311.872V262.583ZM324.039 250.539C324.906 250.539 325.674 250.72 326.342 251.083C327.011 251.44 327.549 251.919 327.957 252.519C328.365 253.12 328.606 253.78 328.68 254.5H327.005C326.915 254.018 326.742 253.582 326.487 253.191C326.232 252.8 325.898 252.488 325.484 252.256C325.07 252.024 324.574 251.907 323.996 251.907C323.254 251.907 322.625 252.083 322.109 252.434C321.599 252.78 321.211 253.316 320.945 254.041C320.684 254.766 320.554 255.696 320.554 256.829C320.554 258.54 320.846 259.798 321.429 260.603C322.019 261.402 322.874 261.801 323.996 261.801C324.574 261.801 325.07 261.68 325.484 261.436C325.898 261.192 326.232 260.866 326.487 260.458C326.742 260.05 326.915 259.608 327.005 259.132H328.68C328.618 259.654 328.476 260.158 328.255 260.645C328.04 261.127 327.742 261.558 327.362 261.938C326.983 262.317 326.515 262.617 325.96 262.838C325.41 263.06 324.77 263.17 324.039 263.17C322.934 263.17 321.99 262.918 321.208 262.413C320.432 261.909 319.837 261.184 319.423 260.237C319.015 259.291 318.811 258.149 318.811 256.812C318.811 255.48 319.015 254.347 319.423 253.412C319.831 252.477 320.424 251.766 321.2 251.278C321.982 250.785 322.928 250.539 324.039 250.539ZM331.06 250.709H332.666V261.589H338.472V263H331.051L331.06 250.709ZM349.279 258.75C349.279 259.696 349.123 260.498 348.811 261.155C348.499 261.813 348.012 262.314 347.349 262.66C346.692 263 345.836 263.17 344.782 263.17C343.717 263.17 342.853 262.994 342.19 262.643C341.532 262.292 341.051 261.776 340.745 261.096C340.444 260.416 340.294 259.58 340.294 258.588V250.709H341.926V258.826C341.926 259.818 342.173 260.56 342.666 261.053C343.159 261.546 343.864 261.793 344.782 261.793C345.4 261.793 345.924 261.685 346.355 261.47C346.791 261.255 347.122 260.929 347.349 260.492C347.581 260.05 347.698 259.495 347.698 258.826V250.709H349.279V258.75ZM352.027 263V250.709H355.98C357.476 250.709 358.606 250.984 359.371 251.533C360.142 252.083 360.527 252.876 360.527 253.913C360.527 254.565 360.357 255.123 360.017 255.588C359.683 256.053 359.094 256.435 358.249 256.735C358.731 256.837 359.136 256.985 359.465 257.177C359.799 257.37 360.066 257.597 360.264 257.857C360.468 258.112 360.612 258.396 360.697 258.708C360.788 259.019 360.833 259.348 360.833 259.693C360.833 260.804 360.437 261.634 359.643 262.184C358.856 262.728 357.677 263 356.107 263H352.027ZM353.6 261.691H356.09C357.116 261.691 357.895 261.524 358.428 261.189C358.966 260.849 359.235 260.328 359.235 259.625C359.235 259.11 359.102 258.693 358.836 258.376C358.575 258.053 358.221 257.818 357.773 257.67C357.326 257.523 356.827 257.449 356.277 257.449H353.6V261.691ZM353.6 256.115H356.277C356.6 256.115 356.921 256.084 357.238 256.021C357.555 255.959 357.847 255.851 358.113 255.698C358.38 255.545 358.595 255.341 358.759 255.086C358.924 254.826 359.006 254.5 359.006 254.109C359.006 253.395 358.731 252.868 358.181 252.528C357.637 252.182 356.929 252.009 356.056 252.009H353.6V256.115Z" fill="black"/>
<path d="M190.5 92.5001C143.333 87.6667 42.7 97.3001 17.5 174.5C-14 271 19 334 76 371C121.6 400.6 246.667 394 303.5 387C360.5 388.5 480.1 378.6 502.5 327C530.5 262.5 544 202.5 502.5 152C461 101.5 414.5 92.5001 355 92.5001" stroke="black" stroke-width="10" stroke-linecap="round"/>
</svg>
