<svg width="78" height="16" viewBox="0 0 78 16" fill="none" xmlns="http://www.w3.org/2000/svg">
<path d="M8.44922 6.76C8.60922 6.58667 8.85589 6.5 9.18922 6.5C9.60255 6.5 9.92255 6.60667 10.1492 6.82C10.3492 6.99333 10.4492 7.24 10.4492 7.56C10.4492 8.05333 10.1626 8.77333 9.58922 9.72C9.14922 10.4533 8.64255 11.42 8.06922 12.62C7.16255 14.54 6.27589 15.5 5.40922 15.5C5.00922 15.5 4.64255 15.3467 4.30922 15.04C3.98922 14.72 3.64255 14.1933 3.26922 13.46C2.92255 12.7533 2.60255 12.1933 2.30922 11.78C2.04255 11.42 1.68255 10.7733 1.22922 9.84C0.775885 8.90667 0.549219 8.34 0.549219 8.14C0.549219 7.88667 0.675885 7.62667 0.929219 7.36C1.19589 7.09333 1.46255 6.96 1.72922 6.96C2.06255 6.96 2.33589 7.06667 2.54922 7.28C2.76255 7.49333 3.02922 7.92667 3.34922 8.58C3.77589 9.42 4.14255 10.0533 4.44922 10.48C4.78255 10.9467 5.03589 11.36 5.20922 11.72L5.46922 12.2L6.14922 10.84C6.54922 10.0267 6.98922 9.19333 7.46922 8.34C7.96255 7.48667 8.28922 6.96 8.44922 6.76ZM13.0195 0.499999C13.2595 0.233332 13.5262 0.0999992 13.8195 0.0999992C14.1262 0.0999992 14.4195 0.259999 14.6995 0.579999C14.9262 0.846666 15.0395 1.07333 15.0395 1.26C15.0395 1.35333 15.0195 1.49333 14.9795 1.68C14.8195 2.64 14.4462 3.12 13.8595 3.12C13.8062 3.12 13.6995 3.10667 13.5395 3.08C12.9395 2.94667 12.6395 2.45333 12.6395 1.6C12.6395 1.16 12.7662 0.793332 13.0195 0.499999ZM13.6195 5.94C13.8862 5.71333 14.1462 5.6 14.3995 5.6C14.6529 5.6 14.9062 5.72667 15.1595 5.98C15.3329 6.15333 15.4395 6.34 15.4795 6.54C15.5195 6.72667 15.5395 7.18667 15.5395 7.92C15.5395 8.73333 15.6129 9.78667 15.7595 11.08C15.8395 11.7067 15.8795 12.1667 15.8795 12.46C15.8795 12.7267 15.8529 12.9067 15.7995 13C15.5595 13.4533 15.2129 13.68 14.7595 13.68C14.4929 13.68 14.2462 13.5867 14.0195 13.4C13.8062 13.2133 13.6595 12.96 13.5795 12.64C13.4862 12.2667 13.3795 11.4933 13.2595 10.32C13.1529 9.14667 13.0995 8.22667 13.0995 7.56C13.0995 7.50667 13.0995 7.43333 13.0995 7.34C13.1129 7.24667 13.1195 7.18667 13.1195 7.16C13.1462 6.81333 13.1929 6.56 13.2595 6.4C13.3262 6.24 13.4462 6.08667 13.6195 5.94ZM21.1502 1.56C21.8435 1.41333 22.4568 1.34 22.9902 1.34C23.5235 1.34 23.8835 1.40667 24.0702 1.54C24.3635 1.75333 24.5102 2.04 24.5102 2.4C24.5102 2.61333 24.4635 2.80667 24.3702 2.98C24.2235 3.23333 24.0702 3.4 23.9102 3.48C23.7502 3.56 23.4035 3.62667 22.8702 3.68C22.1235 3.78667 21.5902 3.86667 21.2702 3.92L20.4702 4.08L20.5102 5.34L20.5302 6.58L21.5102 6.56C22.1902 6.50667 22.6168 6.41333 22.7902 6.28C22.9768 6.14667 23.2035 6.08 23.4702 6.08C23.7902 6.08 24.0768 6.18 24.3302 6.38C24.5968 6.58 24.7302 6.82667 24.7302 7.12C24.7302 7.38667 24.5968 7.68 24.3302 8C24.0768 8.32 23.7902 8.52667 23.4702 8.62C23.2568 8.68667 22.7502 8.78667 21.9502 8.92C21.1635 9.04 20.6568 9.1 20.4302 9.1C20.3635 9.1 20.3302 9.22667 20.3302 9.48C20.3302 10.1333 20.4502 10.7533 20.6902 11.34C20.7968 11.6067 20.8902 11.7867 20.9702 11.88C21.0635 11.96 21.1968 12 21.3702 12C21.7702 12 22.2968 11.8867 22.9502 11.66C23.6168 11.4333 24.0568 11.2133 24.2702 11C24.5502 10.7333 24.8635 10.6 25.2102 10.6C25.5568 10.6 25.8435 10.7333 26.0702 11C26.2968 11.2667 26.4102 11.5133 26.4102 11.74C26.4102 11.9133 26.3368 12.18 26.1902 12.54C26.0568 12.8733 25.7768 13.1467 25.3502 13.36C24.9368 13.56 24.2168 13.7933 23.1902 14.06C22.2835 14.2867 21.5768 14.4 21.0702 14.4C20.2035 14.4 19.5102 14.02 18.9902 13.26C18.7635 12.94 18.5435 12.42 18.3302 11.7C18.1168 10.98 17.9968 10.3933 17.9702 9.94V9.5C17.9702 8.47333 18.0102 7.09333 18.0902 5.36C18.1835 3.62667 18.2568 2.67333 18.3102 2.5C18.4968 2.02 18.9435 1.78 19.6502 1.78C20.0368 1.75333 20.5368 1.68 21.1502 1.56ZM40.3561 6.18C40.6361 5.9 40.9161 5.76 41.1961 5.76C41.4761 5.76 41.7894 5.91333 42.1361 6.22C42.3761 6.43333 42.5228 6.60667 42.5761 6.74C42.6428 6.86 42.6761 7.06 42.6761 7.34C42.6761 7.74 42.5494 8.48 42.2961 9.56C42.0561 10.64 41.8294 11.42 41.6161 11.9C41.5628 12.0333 41.5161 12.1533 41.4761 12.26C41.4361 12.3667 41.4094 12.4533 41.3961 12.52C41.3828 12.5867 41.3828 12.62 41.3961 12.62C41.4094 12.62 41.4161 12.6333 41.4161 12.66C41.4161 12.8467 41.1428 13.24 40.5961 13.84C39.9294 14.5867 38.9494 14.96 37.6561 14.96C37.0961 14.96 36.6428 14.8933 36.2961 14.76C35.9628 14.6133 35.6228 14.3533 35.2761 13.98C34.8628 13.54 34.5694 13.32 34.3961 13.32C34.2761 13.32 34.1428 13.38 33.9961 13.5C33.8628 13.62 33.6494 13.8467 33.3561 14.18C32.9028 14.6733 32.5228 15.0133 32.2161 15.2C31.9228 15.3867 31.6028 15.48 31.2561 15.48C31.0961 15.48 30.9761 15.4733 30.8961 15.46C30.4561 15.3933 30.0961 15.2467 29.8161 15.02C29.5494 14.7933 29.2828 14.42 29.0161 13.9L28.5561 13V10.3C28.5694 9.04667 28.5894 8.26 28.6161 7.94C28.6561 7.60667 28.7428 7.34667 28.8761 7.16C29.1294 6.82667 29.4628 6.66 29.8761 6.66C30.2228 6.66 30.5028 6.76667 30.7161 6.98C30.8628 7.1 30.9494 7.24 30.9761 7.4C31.0161 7.56 31.0361 7.92667 31.0361 8.5V9.88V10.64C31.0361 11.88 31.0761 12.54 31.1561 12.62C31.1694 12.6333 31.1894 12.64 31.2161 12.64C31.4428 12.64 32.1761 11.8467 33.4161 10.26C33.6028 10.0333 33.7494 9.88667 33.8561 9.82C33.9761 9.75333 34.1561 9.72 34.3961 9.72C35.0894 9.72 35.6094 10.1 35.9561 10.86C36.1694 11.3533 36.4494 11.7467 36.7961 12.04C37.1561 12.32 37.5228 12.46 37.8961 12.46C38.2428 12.46 38.5428 12.3333 38.7961 12.08C39.2894 11.5867 39.5894 10.9267 39.6961 10.1C39.7628 9.66 39.8428 9.26667 39.9361 8.92C40.0028 8.65333 40.0361 8.32667 40.0361 7.94C40.0361 7.71333 40.0294 7.55333 40.0161 7.46C39.9761 7.23333 39.9561 7.05333 39.9561 6.92C39.9561 6.69333 40.0894 6.44667 40.3561 6.18ZM54.3856 5.6C54.119 5.37333 53.7123 5.26 53.1656 5.26C52.899 5.26 52.6856 5.30667 52.5256 5.4C52.4056 5.48 52.3456 5.8 52.3456 6.36C52.3456 6.41333 52.3456 6.5 52.3456 6.62C52.359 6.74 52.3656 6.83333 52.3656 6.9L52.4056 8.26L52.9456 8.22C53.3723 8.16667 53.7656 8.02667 54.1256 7.8C54.499 7.57333 54.7456 7.31333 54.8656 7.02C54.9456 6.82 54.9856 6.64667 54.9856 6.5C54.9856 6.22 54.7856 5.92 54.3856 5.6ZM51.7056 3.08C52.159 2.93333 52.679 2.86 53.2656 2.86C54.0123 2.86 54.6456 2.98 55.1656 3.22C55.859 3.55333 56.4256 4.03333 56.8656 4.66C57.3056 5.27333 57.5256 5.91333 57.5256 6.58C57.5256 7.59333 57.1323 8.48 56.3456 9.24C55.559 10 54.539 10.4867 53.2856 10.7C53.0056 10.7533 52.8056 10.8267 52.6856 10.92C52.579 11 52.5256 11.1267 52.5256 11.3C52.5256 11.4333 52.579 11.6733 52.6856 12.02C52.8456 12.46 52.9256 12.8133 52.9256 13.08C52.9256 13.3867 52.8056 13.66 52.5656 13.9C52.3123 14.1533 52.0656 14.28 51.8256 14.28C51.6523 14.28 51.4523 14.22 51.2256 14.1C50.7723 13.86 50.459 13.42 50.2856 12.78C50.1123 12.14 49.9856 10.94 49.9056 9.18C49.8523 8.23333 49.8256 7.24 49.8256 6.2C49.8256 5.72 49.8323 5.42 49.8456 5.3C49.8856 4.88667 49.939 4.59333 50.0056 4.42C50.0856 4.24667 50.239 4.04667 50.4656 3.82C50.8256 3.46 51.239 3.21333 51.7056 3.08ZM64.6094 3.62C64.436 3.44667 64.0694 3.36 63.5094 3.36C63.0827 3.36 62.736 3.41333 62.4694 3.52C62.3494 3.56 62.2627 3.59333 62.2094 3.62C62.1694 3.64667 62.1294 3.70667 62.0894 3.8C62.0627 3.89333 62.0494 4.03333 62.0494 4.22C62.0494 4.36667 62.096 5.03333 62.1894 6.22C62.2694 7.03333 62.3494 7.94 62.4294 8.94C62.4694 9.35333 62.5094 9.62 62.5494 9.74C62.5894 9.84667 62.676 9.9 62.8094 9.9C63.3427 9.9 63.8894 9.58 64.4494 8.94C65.0094 8.28667 65.4094 7.51333 65.6494 6.62C65.7294 6.34 65.7694 6.12667 65.7694 5.98C65.7694 5.79333 65.6294 5.42 65.3494 4.86C65.0427 4.22 64.796 3.80667 64.6094 3.62ZM61.4694 1.38C62.1494 1.16667 62.956 1.06 63.8894 1.06C64.476 1.06 64.9294 1.10667 65.2494 1.2C65.556 1.28 65.876 1.48667 66.2094 1.82C66.5427 2.14 66.8294 2.52 67.0694 2.96C67.576 3.96 67.8827 4.60667 67.9894 4.9C68.096 5.18 68.1494 5.50667 68.1494 5.88C68.1494 6.76 67.8894 7.71333 67.3694 8.74C66.8627 9.76667 66.2294 10.5867 65.4694 11.2C64.4694 12.0267 63.4227 12.44 62.3294 12.44C62.2894 12.44 62.236 12.44 62.1694 12.44C62.116 12.4267 62.076 12.42 62.0494 12.42C61.436 12.3533 61.0427 12.2867 60.8694 12.22C60.696 12.14 60.5494 11.98 60.4294 11.74C60.3227 11.5133 60.1694 10.3867 59.9694 8.36C59.7827 6.32 59.6894 4.82667 59.6894 3.88V3.7C59.716 3.03333 59.856 2.53333 60.1094 2.2C60.3627 1.86667 60.816 1.59333 61.4694 1.38ZM72.8339 2.62C73.1006 2.54 73.6206 2.5 74.3939 2.5C75.1539 2.5 75.7539 2.54 76.1939 2.62C76.5672 2.68667 76.8672 2.83333 77.0939 3.06C77.3206 3.28667 77.4339 3.54 77.4339 3.82C77.4339 4.1 77.3139 4.34667 77.0739 4.56C76.9272 4.70667 76.7206 4.80667 76.4539 4.86C76.2006 4.9 75.6739 4.92667 74.8739 4.94C73.6072 4.99333 72.9406 5.06 72.8739 5.14C72.7806 5.23333 72.6939 5.78 72.6139 6.78L72.5339 8.28H73.3339C73.8672 8.28 74.2806 8.38667 74.5739 8.6C74.8406 8.82667 74.9739 9.1 74.9739 9.42C74.9739 9.7 74.8806 9.96 74.6939 10.2C74.5072 10.44 74.2539 10.5933 73.9339 10.66C73.8672 10.6733 73.7806 10.6933 73.6739 10.72C73.5806 10.7333 73.4672 10.76 73.3339 10.8C73.2139 10.8267 73.1272 10.8467 73.0739 10.86L72.6139 10.98L72.6539 13.06C72.6539 13.2333 72.6539 13.4467 72.6539 13.7C72.6672 13.94 72.6739 14.1 72.6739 14.18C72.6739 14.6333 72.6539 14.9333 72.6139 15.08C72.5739 15.2267 72.4872 15.38 72.3539 15.54C72.1406 15.7667 71.8806 15.88 71.5739 15.88C71.3072 15.88 71.0672 15.7933 70.8539 15.62C70.5872 15.4067 70.4206 14.9267 70.3539 14.18C70.2872 13.42 70.2539 11.7067 70.2539 9.04V7.44C70.2539 5.28 70.3339 4.09333 70.4939 3.88C70.6006 3.72 70.9006 3.50667 71.3939 3.24C71.8872 2.97333 72.3672 2.76667 72.8339 2.62Z" fill="#194DF5"/>
</svg>
