<svg width="535" height="398" viewBox="0 0 535 398" fill="none" xmlns="http://www.w3.org/2000/svg">
<rect y="91" width="535" height="296" rx="148" fill="white"/>
<path fill-rule="evenodd" clip-rule="evenodd" d="M276.654 127.846C277.229 127.271 277.969 126.888 278.766 126.727C307.996 120.81 330 94.9746 330 64C330 28.6538 301.346 0 266 0C230.654 0 202 28.6538 202 64C202 94.5526 223.409 120.105 252.043 126.474C252.811 126.644 253.521 127.021 254.077 127.577L262.672 136.172C264.234 137.734 266.766 137.734 268.328 136.172L276.654 127.846Z" fill="white"/>
<path d="M270.319 45.2977C262.767 52.0753 235.645 76.4336 242.006 84.9138C244.04 87.6265 252.666 96.4728 256.006 96.4152C265.011 96.2599 289.973 78.1018 291.788 70.8423C292.773 66.9026 291.648 66.057 288.267 63.2456C281.419 57.5508 276.886 48.9091 269.552 44.0198" stroke="black" stroke-width="10" stroke-linecap="round"/>
<path d="M274.663 43.7643C279.229 39.1985 285.844 40.5185 290.055 44.7298C296.045 50.7193 299.431 55.0575 295.11 63.7001" stroke="black" stroke-width="10" stroke-linecap="round"/>
<path d="M257 37.6453C258.903 35.5959 260.916 33.9617 263.404 32.6613C264.655 32.0072 266.267 31 267.735 31" stroke="black" stroke-width="10" stroke-linecap="round"/>
<path d="M290 92.69C294.225 90.7507 297.067 88.1225 300.223 84" stroke="black" stroke-width="10" stroke-linecap="round"/>
<path d="M252.5 126.5C256.961 126.996 259.52 138.111 265.69 138.765C272.213 139.457 270.5 125.778 292.5 121.5C319.343 116.281 332.355 96.9237 333.5 66C334.746 32.3602 315.6 5 276 5C241.663 5 214.203 20.685 207 55.5C201 84.5 218.127 114.657 237.5 119.5" stroke="black" stroke-width="10" stroke-linecap="round"/>
<path d="M184.92 169.824C185.912 169.664 186.68 169.584 187.224 169.584C187.672 169.584 188.28 169.744 189.048 170.064C190.2 170.544 191.096 171.168 191.736 171.936C192.408 172.672 192.744 173.44 192.744 174.24C192.744 175.008 192.44 175.696 191.832 176.304C191.32 176.816 190.696 177.072 189.96 177.072C189.128 177.072 188.264 176.736 187.368 176.064C186.792 175.648 186.248 175.44 185.736 175.44C184.904 175.44 183.704 176.064 182.136 177.312C181.144 178.112 180.44 178.864 180.024 179.568C179.608 180.272 179.4 181.104 179.4 182.064C179.4 182.544 179.448 183.072 179.544 183.648C179.928 186.112 181.064 187.344 182.952 187.344C183.624 187.344 184.456 187.168 185.448 186.816C186.28 186.496 186.872 186.336 187.224 186.336C187.512 186.336 187.88 186.464 188.328 186.72C188.936 187.04 189.368 187.552 189.624 188.256C189.752 188.544 189.816 188.88 189.816 189.264C189.816 190.288 189.256 191.12 188.136 191.76C187.048 192.4 185.528 192.752 183.576 192.816C183.48 192.816 183.336 192.832 183.144 192.864C182.952 192.864 182.808 192.864 182.712 192.864C180.952 192.864 179.448 192.496 178.2 191.76C176.984 190.992 175.896 189.792 174.936 188.16C174.488 187.392 174.2 186.72 174.072 186.144C173.976 185.568 173.928 184.4 173.928 182.64C173.928 181.008 173.976 179.872 174.072 179.232C174.2 178.592 174.44 177.904 174.792 177.168C175.368 176.08 175.96 175.2 176.568 174.528C177.176 173.824 178.056 173.056 179.208 172.224C180.296 171.424 181.208 170.88 181.944 170.592C182.68 170.272 183.672 170.016 184.92 169.824ZM198.742 169.44C199.126 169.024 199.718 168.816 200.518 168.816C201.478 168.816 202.23 169.088 202.774 169.632C203.35 170.24 203.75 170.928 203.974 171.696C204.198 172.432 204.31 173.568 204.31 175.104C204.31 176.096 204.166 178.816 203.878 183.264C203.75 185.184 203.686 186.832 203.686 188.208C203.686 189.168 203.734 189.696 203.83 189.792C203.926 189.888 204.182 189.936 204.598 189.936C205.206 189.936 206.374 189.808 208.102 189.552C209.926 189.264 211.078 189.12 211.558 189.12C212.07 189.12 212.55 189.264 212.998 189.552C213.798 190.064 214.198 190.768 214.198 191.664C214.198 192.944 213.542 193.856 212.23 194.4C211.43 194.72 209.686 195.088 206.998 195.504C205.302 195.76 204.022 195.888 203.158 195.888C201.302 195.888 199.91 195.28 198.982 194.064C198.534 193.456 198.262 192.848 198.166 192.24C198.102 191.632 198.07 190.048 198.07 187.488C198.07 184.192 198.198 181.136 198.454 178.32C198.614 176.784 198.694 175.76 198.694 175.248C198.694 174.544 198.566 173.776 198.31 172.944C198.086 172.304 197.974 171.744 197.974 171.264C197.974 170.688 198.23 170.08 198.742 169.44ZM220.98 172.944C221.588 172.688 222.116 172.56 222.564 172.56C223.172 172.56 223.732 172.768 224.244 173.184C224.66 173.504 224.916 173.968 225.012 174.576C225.108 175.184 225.22 176.784 225.348 179.376C225.476 182.352 225.716 184.56 226.068 186C226.452 187.408 227.028 188.416 227.796 189.024C228.404 189.472 228.852 189.696 229.14 189.696C229.492 189.696 230.036 189.376 230.772 188.736C231.796 187.776 232.852 185.984 233.94 183.36C235.06 180.704 235.62 178.64 235.62 177.168C235.62 176.592 235.892 175.936 236.436 175.2C237.012 174.528 237.7 174.192 238.5 174.192C239.332 174.192 240.052 174.544 240.66 175.248C241.172 175.792 241.428 176.384 241.428 177.024C241.428 177.184 241.396 177.616 241.332 178.32C240.948 181.424 239.828 184.768 237.972 188.352C236.948 190.432 235.588 192.176 233.892 193.584C232.228 194.992 230.66 195.696 229.188 195.696C227.844 195.696 226.42 195.136 224.916 194.016C223.412 192.896 222.276 191.568 221.508 190.032C220.836 188.656 220.372 187.344 220.116 186.096C219.892 184.816 219.7 182.832 219.54 180.144C219.476 178.672 219.444 177.744 219.444 177.36C219.444 175.952 219.556 174.944 219.78 174.336C220.004 173.696 220.404 173.232 220.98 172.944ZM258.391 183.072C257.687 182.688 256.679 182.496 255.367 182.496C254.919 182.496 254.583 182.512 254.359 182.544L253.159 182.688V189.696L254.311 189.456C255.175 189.296 256.247 188.832 257.527 188.064C258.839 187.264 259.607 186.608 259.831 186.096C259.927 185.904 259.975 185.696 259.975 185.472C259.975 185.024 259.815 184.576 259.495 184.128C259.207 183.648 258.839 183.296 258.391 183.072ZM254.647 172.368C254.647 172.144 254.503 172.032 254.215 172.032C253.863 172.032 253.543 172.176 253.255 172.464C252.967 172.752 252.823 173.28 252.823 174.048C252.823 174.656 252.935 174.96 253.159 174.96C253.351 174.96 253.639 174.608 254.023 173.904C254.439 173.2 254.647 172.688 254.647 172.368ZM251.143 167.04C251.815 166.72 252.823 166.56 254.167 166.56C255.543 166.56 256.615 166.72 257.383 167.04C258.087 167.328 258.711 167.872 259.255 168.672C259.831 169.44 260.199 170.304 260.359 171.264C260.391 171.392 260.407 171.584 260.407 171.84C260.407 172.16 260.199 172.88 259.783 174C259.367 175.12 259.159 176.016 259.159 176.688C259.159 177.008 259.687 177.44 260.743 177.984C262.855 179.104 264.279 180.56 265.015 182.352C265.399 183.28 265.591 184.272 265.591 185.328C265.591 187.504 264.951 189.264 263.671 190.608C262.551 191.792 260.807 192.896 258.439 193.92C256.071 194.944 254.071 195.456 252.439 195.456C251.319 195.456 250.423 195.2 249.751 194.688C249.111 194.144 248.791 193.424 248.791 192.528C248.791 191.76 248.567 191.072 248.119 190.464C247.863 190.08 247.687 189.392 247.591 188.4C247.495 187.408 247.383 185.36 247.255 182.256C247.095 177.488 246.919 174.656 246.727 173.76C246.663 173.184 246.631 172.736 246.631 172.416C246.631 172.16 246.663 171.872 246.727 171.552C246.855 171.04 247.447 170.24 248.503 169.152C249.559 168.064 250.439 167.36 251.143 167.04ZM294.485 183.072C293.781 182.688 292.773 182.496 291.461 182.496C291.013 182.496 290.677 182.512 290.453 182.544L289.253 182.688V189.696L290.405 189.456C291.269 189.296 292.341 188.832 293.621 188.064C294.933 187.264 295.701 186.608 295.925 186.096C296.021 185.904 296.069 185.696 296.069 185.472C296.069 185.024 295.909 184.576 295.589 184.128C295.301 183.648 294.933 183.296 294.485 183.072ZM290.741 172.368C290.741 172.144 290.597 172.032 290.309 172.032C289.957 172.032 289.637 172.176 289.349 172.464C289.061 172.752 288.917 173.28 288.917 174.048C288.917 174.656 289.029 174.96 289.253 174.96C289.445 174.96 289.733 174.608 290.117 173.904C290.533 173.2 290.741 172.688 290.741 172.368ZM287.237 167.04C287.909 166.72 288.917 166.56 290.261 166.56C291.637 166.56 292.709 166.72 293.477 167.04C294.181 167.328 294.805 167.872 295.349 168.672C295.925 169.44 296.293 170.304 296.453 171.264C296.485 171.392 296.501 171.584 296.501 171.84C296.501 172.16 296.293 172.88 295.877 174C295.461 175.12 295.253 176.016 295.253 176.688C295.253 177.008 295.781 177.44 296.837 177.984C298.949 179.104 300.373 180.56 301.109 182.352C301.493 183.28 301.685 184.272 301.685 185.328C301.685 187.504 301.045 189.264 299.765 190.608C298.645 191.792 296.901 192.896 294.533 193.92C292.165 194.944 290.165 195.456 288.533 195.456C287.413 195.456 286.517 195.2 285.845 194.688C285.205 194.144 284.885 193.424 284.885 192.528C284.885 191.76 284.661 191.072 284.213 190.464C283.957 190.08 283.781 189.392 283.685 188.4C283.589 187.408 283.477 185.36 283.349 182.256C283.189 177.488 283.013 174.656 282.821 173.76C282.757 173.184 282.725 172.736 282.725 172.416C282.725 172.16 282.757 171.872 282.821 171.552C282.949 171.04 283.541 170.24 284.597 169.152C285.653 168.064 286.533 167.36 287.237 167.04ZM321.171 180.432C320.371 180.016 319.555 179.808 318.723 179.808C317.699 179.808 316.867 180.144 316.227 180.816C313.667 183.632 312.387 186.16 312.387 188.4C312.387 189.872 312.947 191.2 314.067 192.384C314.643 192.992 315.107 193.392 315.459 193.584C315.811 193.744 316.323 193.824 316.995 193.824C318.787 193.824 321.155 192.672 324.099 190.368C325.027 189.632 325.667 189.008 326.019 188.496C326.371 187.952 326.547 187.344 326.547 186.672C326.547 186.224 326.515 185.856 326.451 185.568C326.323 184.896 325.699 184.032 324.579 182.976C323.491 181.888 322.355 181.04 321.171 180.432ZM315.171 174.336C315.907 173.952 316.803 173.76 317.859 173.76C319.587 173.76 321.331 174.192 323.091 175.056C324.467 175.728 325.923 176.688 327.459 177.936C328.995 179.152 330.099 180.24 330.771 181.2C331.731 182.576 332.211 184.32 332.211 186.432C332.211 188.544 331.699 190.336 330.675 191.808C329.971 192.768 328.755 193.904 327.027 195.216C325.299 196.528 323.587 197.616 321.891 198.48C320.259 199.312 319.011 199.728 318.147 199.728C317.987 199.728 317.555 199.696 316.851 199.632C313.715 199.408 311.059 197.872 308.883 195.024C307.507 193.232 306.819 191.552 306.819 189.984C306.819 188.896 307.027 187.504 307.443 185.808C308.019 183.408 308.595 181.728 309.171 180.768C309.779 179.712 310.739 178.48 312.051 177.072C313.363 175.664 314.403 174.752 315.171 174.336ZM340.07 168.432C340.71 168.432 341.846 168.336 343.478 168.144C345.142 167.952 346.902 167.728 348.758 167.472C350.646 167.184 351.798 167.024 352.214 166.992C353.526 166.8 355.094 166.672 356.918 166.608H357.494C358.678 166.608 359.558 166.912 360.134 167.52C360.742 168.096 361.046 168.784 361.046 169.584C361.046 170.224 360.838 170.8 360.422 171.312C360.006 171.824 359.446 172.144 358.742 172.272C358.582 172.304 357.83 172.368 356.486 172.464C355.174 172.528 353.91 172.624 352.694 172.752C351.478 172.88 350.806 173.008 350.678 173.136C350.422 173.392 350.438 173.84 350.726 174.48C350.918 175.056 351.046 177.376 351.11 181.44C351.11 185.504 351.414 189.04 352.022 192.048C352.086 192.272 352.118 192.56 352.118 192.912C352.118 193.36 351.862 193.84 351.35 194.352C350.646 194.992 349.942 195.312 349.238 195.312C348.47 195.312 347.734 194.96 347.03 194.256C346.582 193.808 346.278 193.344 346.118 192.864C345.99 192.384 345.862 191.472 345.734 190.128C345.574 188.528 345.494 186.304 345.494 183.456V182.4V181.392C345.494 178.768 345.382 176.928 345.158 175.872L344.726 173.952H341.99C340.774 173.952 339.958 173.904 339.542 173.808C339.158 173.712 338.774 173.456 338.39 173.04C337.782 172.496 337.478 171.904 337.478 171.264C337.478 170.592 337.75 169.952 338.294 169.344C338.87 168.736 339.462 168.432 340.07 168.432Z" fill="black"/>
<path d="M67.4784 239.17C66.1807 239.17 65.104 238.892 64.2484 238.337C63.3984 237.776 62.8912 236.949 62.7269 235.855L64.3759 235.753C64.5572 236.444 64.9199 236.963 65.4639 237.308C66.0079 237.654 66.6765 237.827 67.4699 237.827C67.9459 237.827 68.3907 237.745 68.8044 237.58C69.2237 237.416 69.5609 237.187 69.8159 236.892C70.0765 236.597 70.2069 236.249 70.2069 235.846C70.2069 235.308 70.0454 234.877 69.7224 234.554C69.405 234.231 68.8979 233.976 68.2009 233.789L66.0844 233.237C65.172 233.005 64.4495 232.639 63.9169 232.14C63.3842 231.642 63.115 230.973 63.1094 230.134C63.1037 229.426 63.2879 228.803 63.6619 228.264C64.0415 227.726 64.5629 227.307 65.2259 227.006C65.8945 226.706 66.6652 226.556 67.5379 226.556C68.3765 226.556 69.099 226.717 69.7054 227.04C70.3174 227.358 70.7905 227.78 71.1249 228.307C71.4649 228.834 71.6462 229.409 71.6689 230.032L70.0709 230.117C69.9462 229.386 69.677 228.834 69.2634 228.46C68.8554 228.08 68.2802 227.89 67.5379 227.89C67.1865 227.89 66.8465 227.936 66.5179 228.026C66.1949 228.111 65.903 228.242 65.6424 228.417C65.3874 228.593 65.1834 228.811 65.0304 229.072C64.8774 229.333 64.8009 229.636 64.8009 229.981C64.8009 230.423 64.9567 230.775 65.2684 231.035C65.58 231.29 66.141 231.543 66.9514 231.792L68.9914 232.37C70.034 232.659 70.7764 233.109 71.2184 233.721C71.666 234.328 71.8899 235.03 71.8899 235.829C71.8899 236.481 71.7057 237.059 71.3374 237.563C70.969 238.062 70.4505 238.456 69.7819 238.745C69.1189 239.028 68.351 239.17 67.4784 239.17ZM66.8154 224.873H68.2689V227.066H66.8154V224.873ZM66.7134 238.583H68.1669V240.777H66.7134V238.583ZM78.8803 226.539C79.7473 226.539 80.5152 226.72 81.1838 227.083C81.8525 227.44 82.3908 227.919 82.7988 228.519C83.2068 229.12 83.4477 229.78 83.5213 230.5H81.8468C81.7562 230.018 81.5833 229.582 81.3283 229.191C81.0733 228.8 80.739 228.488 80.3253 228.256C79.9117 228.024 79.4158 227.907 78.8378 227.907C78.0955 227.907 77.4665 228.083 76.9508 228.434C76.4408 228.78 76.0527 229.316 75.7863 230.041C75.5257 230.766 75.3953 231.696 75.3953 232.829C75.3953 234.54 75.6872 235.798 76.2708 236.603C76.8602 237.402 77.7158 237.801 78.8378 237.801C79.4158 237.801 79.9117 237.68 80.3253 237.436C80.739 237.192 81.0733 236.866 81.3283 236.458C81.5833 236.05 81.7562 235.608 81.8468 235.132H83.5213C83.459 235.654 83.3173 236.158 83.0963 236.645C82.881 237.127 82.5835 237.558 82.2038 237.938C81.8242 238.317 81.3567 238.617 80.8013 238.838C80.2517 239.06 79.6113 239.17 78.8803 239.17C77.7753 239.17 76.8318 238.918 76.0498 238.413C75.2735 237.909 74.6785 237.184 74.2648 236.237C73.8568 235.291 73.6528 234.149 73.6528 232.812C73.6528 231.48 73.8568 230.347 74.2648 229.412C74.6728 228.477 75.265 227.766 76.0413 227.278C76.8233 226.785 77.7697 226.539 78.8803 226.539ZM85.9009 226.709H87.5074V237.589H93.3129V239H85.8924L85.9009 226.709ZM104.12 234.75C104.12 235.696 103.964 236.498 103.653 237.155C103.341 237.813 102.854 238.314 102.191 238.66C101.533 239 100.678 239.17 99.6235 239.17C98.5582 239.17 97.694 238.994 97.031 238.643C96.3737 238.292 95.892 237.776 95.586 237.096C95.2857 236.416 95.1355 235.58 95.1355 234.588V226.709H96.7675V234.826C96.7675 235.818 97.014 236.56 97.507 237.053C98 237.546 98.7055 237.793 99.6235 237.793C100.241 237.793 100.765 237.685 101.196 237.47C101.632 237.255 101.964 236.929 102.191 236.492C102.423 236.05 102.539 235.495 102.539 234.826V226.709H104.12V234.75ZM106.869 239V226.709H110.821C112.317 226.709 113.448 226.984 114.213 227.533C114.984 228.083 115.369 228.876 115.369 229.913C115.369 230.565 115.199 231.123 114.859 231.588C114.525 232.053 113.935 232.435 113.091 232.735C113.573 232.837 113.978 232.985 114.306 233.177C114.641 233.37 114.907 233.597 115.105 233.857C115.309 234.112 115.454 234.396 115.539 234.708C115.63 235.019 115.675 235.348 115.675 235.693C115.675 236.804 115.278 237.634 114.485 238.184C113.697 238.728 112.519 239 110.949 239H106.869ZM108.441 237.691H110.932C111.958 237.691 112.737 237.524 113.269 237.189C113.808 236.849 114.077 236.328 114.077 235.625C114.077 235.11 113.944 234.693 113.677 234.376C113.417 234.053 113.063 233.818 112.615 233.67C112.167 233.523 111.669 233.449 111.119 233.449H108.441V237.691ZM108.441 232.115H111.119C111.442 232.115 111.762 232.084 112.079 232.021C112.397 231.959 112.689 231.851 112.955 231.698C113.221 231.545 113.437 231.341 113.601 231.086C113.765 230.826 113.847 230.5 113.847 230.109C113.847 229.395 113.573 228.868 113.023 228.528C112.479 228.182 111.771 228.009 110.898 228.009H108.441V232.115ZM125.873 239.17C125.357 239.17 124.921 239.102 124.564 238.966C124.212 238.83 123.923 238.657 123.697 238.447C123.47 238.232 123.294 238.014 123.17 237.793C123.045 237.566 122.954 237.368 122.898 237.198L122.728 239H121.529V226.369H123.11V231.605C123.184 231.458 123.294 231.296 123.442 231.12C123.595 230.945 123.79 230.775 124.028 230.61C124.266 230.446 124.547 230.31 124.87 230.202C125.198 230.095 125.572 230.041 125.992 230.041C127.091 230.041 127.964 230.423 128.61 231.188C129.261 231.953 129.587 233.081 129.587 234.571C129.587 235.495 129.448 236.303 129.171 236.994C128.893 237.68 128.479 238.215 127.93 238.6C127.38 238.98 126.694 239.17 125.873 239.17ZM125.592 237.963C126.306 237.963 126.887 237.688 127.335 237.138C127.782 236.583 128.006 235.702 128.006 234.495C128.006 233.469 127.796 232.676 127.377 232.115C126.963 231.548 126.357 231.265 125.558 231.265C124.974 231.265 124.504 231.392 124.147 231.647C123.796 231.897 123.535 232.262 123.365 232.744C123.201 233.226 123.116 233.809 123.11 234.495C123.11 235.725 123.3 236.611 123.68 237.155C124.065 237.694 124.702 237.963 125.592 237.963ZM134.963 239.17C134.153 239.17 133.444 238.997 132.838 238.651C132.232 238.3 131.761 237.787 131.427 237.113C131.093 236.439 130.925 235.614 130.925 234.639C130.925 233.721 131.081 232.917 131.393 232.225C131.705 231.534 132.161 230.999 132.761 230.619C133.368 230.234 134.102 230.041 134.963 230.041C135.773 230.041 136.476 230.219 137.071 230.576C137.672 230.928 138.136 231.446 138.465 232.132C138.794 232.818 138.958 233.653 138.958 234.639C138.958 235.535 138.805 236.322 138.499 237.002C138.199 237.682 137.751 238.215 137.156 238.6C136.567 238.98 135.836 239.17 134.963 239.17ZM134.963 237.929C135.49 237.929 135.935 237.796 136.297 237.529C136.66 237.263 136.935 236.881 137.122 236.382C137.309 235.883 137.402 235.291 137.402 234.605C137.402 233.976 137.32 233.413 137.156 232.914C136.992 232.41 136.728 232.01 136.365 231.715C136.008 231.421 135.541 231.273 134.963 231.273C134.43 231.273 133.98 231.407 133.611 231.673C133.243 231.934 132.963 232.313 132.77 232.812C132.583 233.311 132.489 233.908 132.489 234.605C132.489 235.223 132.574 235.784 132.744 236.288C132.914 236.793 133.181 237.192 133.543 237.487C133.906 237.782 134.379 237.929 134.963 237.929ZM145.028 231.358H143.048V236.824C143.048 237.136 143.079 237.365 143.141 237.512C143.209 237.654 143.32 237.745 143.473 237.784C143.632 237.824 143.847 237.844 144.119 237.844H145.079V238.898C144.972 238.938 144.807 238.972 144.586 239C144.371 239.028 144.102 239.043 143.779 239.043C143.173 239.043 142.702 238.96 142.368 238.796C142.034 238.632 141.798 238.388 141.662 238.065C141.532 237.742 141.467 237.345 141.467 236.875V231.358H140.039V230.211H141.509L141.892 227.652H143.048V230.202H145.028V231.358ZM150.865 239V230.211H152.378V231.486C152.621 231.101 152.956 230.763 153.381 230.474C153.806 230.185 154.358 230.041 155.038 230.041C155.356 230.041 155.679 230.095 156.007 230.202C156.342 230.31 156.648 230.472 156.925 230.687C157.203 230.902 157.418 231.166 157.571 231.477C157.843 231.047 158.212 230.701 158.676 230.44C159.141 230.174 159.665 230.041 160.249 230.041C160.555 230.041 160.875 230.089 161.209 230.185C161.544 230.276 161.852 230.44 162.136 230.678C162.425 230.911 162.66 231.237 162.841 231.656C163.023 232.07 163.113 232.602 163.113 233.254V239H161.532V233.407C161.532 232.874 161.447 232.463 161.277 232.174C161.107 231.88 160.883 231.673 160.606 231.554C160.334 231.435 160.042 231.375 159.73 231.375C159.458 231.375 159.169 231.429 158.863 231.537C158.557 231.645 158.297 231.826 158.081 232.081C157.866 232.336 157.758 232.684 157.758 233.126V239H156.194V232.948C156.194 232.602 156.101 232.313 155.914 232.081C155.732 231.849 155.503 231.673 155.225 231.554C154.953 231.435 154.681 231.375 154.409 231.375C154.109 231.375 153.806 231.435 153.5 231.554C153.199 231.673 152.944 231.863 152.735 232.123C152.531 232.378 152.429 232.713 152.429 233.126V239H150.865ZM167.104 230.211V239H165.582V230.211H167.104ZM167.138 226.717V228.349H165.531V226.717H167.138ZM177.452 239H175.743L173.185 235.557L170.643 239H168.918L172.309 234.435L169.19 230.211H170.907L173.185 233.296L175.471 230.211H177.188L174.06 234.435L177.452 239ZM179.915 234.971C179.915 235.526 180.006 236.031 180.187 236.484C180.374 236.932 180.655 237.289 181.029 237.555C181.408 237.821 181.882 237.954 182.448 237.954C183.009 237.954 183.491 237.824 183.893 237.563C184.301 237.303 184.562 236.926 184.675 236.433H186.163C186.055 237.028 185.817 237.529 185.449 237.938C185.08 238.345 184.636 238.654 184.114 238.864C183.593 239.068 183.049 239.17 182.482 239.17C181.661 239.17 180.938 238.992 180.315 238.634C179.691 238.277 179.204 237.765 178.853 237.096C178.501 236.427 178.326 235.625 178.326 234.69C178.326 233.767 178.484 232.956 178.802 232.259C179.119 231.562 179.578 231.018 180.179 230.627C180.785 230.236 181.513 230.041 182.363 230.041C183.191 230.041 183.89 230.219 184.463 230.576C185.035 230.933 185.469 231.438 185.763 232.089C186.064 232.735 186.214 233.503 186.214 234.393V234.971H179.915ZM179.924 233.908H184.701C184.701 233.404 184.616 232.951 184.446 232.548C184.276 232.14 184.015 231.82 183.664 231.588C183.318 231.35 182.882 231.231 182.355 231.231C181.805 231.231 181.349 231.364 180.986 231.63C180.629 231.891 180.36 232.228 180.179 232.642C180.003 233.05 179.918 233.472 179.924 233.908ZM191.272 239.17C190.66 239.17 190.09 239.077 189.563 238.889C189.042 238.697 188.609 238.399 188.263 237.997C187.917 237.589 187.699 237.07 187.608 236.441H189.036C189.116 236.787 189.257 237.076 189.461 237.308C189.671 237.535 189.932 237.708 190.243 237.827C190.555 237.94 190.895 237.997 191.263 237.997C191.853 237.997 192.329 237.886 192.691 237.665C193.054 237.444 193.235 237.104 193.235 236.645C193.235 236.322 193.139 236.065 192.946 235.872C192.759 235.674 192.468 235.529 192.071 235.438L190.252 234.988C189.544 234.818 188.977 234.552 188.552 234.189C188.127 233.826 187.914 233.319 187.914 232.667C187.909 232.152 188.031 231.698 188.28 231.307C188.529 230.916 188.903 230.608 189.402 230.381C189.901 230.154 190.521 230.041 191.263 230.041C192.215 230.041 192.983 230.256 193.567 230.687C194.156 231.112 194.462 231.738 194.485 232.565H193.099C193.043 232.146 192.853 231.815 192.53 231.571C192.213 231.322 191.785 231.197 191.246 231.197C190.685 231.197 190.229 231.31 189.878 231.537C189.527 231.758 189.351 232.104 189.351 232.574C189.351 232.886 189.476 233.132 189.725 233.313C189.974 233.489 190.343 233.636 190.83 233.755L192.589 234.198C192.997 234.305 193.332 234.447 193.592 234.622C193.859 234.798 194.068 234.994 194.221 235.209C194.38 235.424 194.491 235.651 194.553 235.889C194.621 236.121 194.655 236.345 194.655 236.56C194.655 237.099 194.519 237.563 194.247 237.954C193.981 238.34 193.595 238.64 193.091 238.855C192.592 239.065 191.986 239.17 191.272 239.17ZM201.131 241.805C200.615 241.805 200.261 241.768 200.068 241.695C199.875 241.621 199.779 241.584 199.779 241.584V240.564L200.672 240.581C201 240.592 201.272 240.57 201.488 240.513C201.703 240.456 201.876 240.38 202.006 240.284C202.136 240.187 202.236 240.08 202.304 239.961C202.377 239.842 202.437 239.728 202.482 239.621L202.788 238.787L199.354 230.211H200.944L203.536 236.994L206.112 230.211H207.65L203.944 239.663C203.717 240.218 203.462 240.652 203.179 240.964C202.901 241.275 202.59 241.493 202.244 241.618C201.904 241.743 201.533 241.805 201.131 241.805ZM212.336 239.17C211.526 239.17 210.818 238.997 210.211 238.651C209.605 238.3 209.135 237.787 208.8 237.113C208.466 236.439 208.299 235.614 208.299 234.639C208.299 233.721 208.455 232.917 208.766 232.225C209.078 231.534 209.534 230.999 210.135 230.619C210.741 230.234 211.475 230.041 212.336 230.041C213.147 230.041 213.849 230.219 214.444 230.576C215.045 230.928 215.51 231.446 215.838 232.132C216.167 232.818 216.331 233.653 216.331 234.639C216.331 235.535 216.178 236.322 215.872 237.002C215.572 237.682 215.124 238.215 214.529 238.6C213.94 238.98 213.209 239.17 212.336 239.17ZM212.336 237.929C212.863 237.929 213.308 237.796 213.671 237.529C214.033 237.263 214.308 236.881 214.495 236.382C214.682 235.883 214.776 235.291 214.776 234.605C214.776 233.976 214.694 233.413 214.529 232.914C214.365 232.41 214.101 232.01 213.739 231.715C213.382 231.421 212.914 231.273 212.336 231.273C211.804 231.273 211.353 231.407 210.985 231.673C210.616 231.934 210.336 232.313 210.143 232.812C209.956 233.311 209.863 233.908 209.863 234.605C209.863 235.223 209.948 235.784 210.118 236.288C210.288 236.793 210.554 237.192 210.917 237.487C211.279 237.782 211.753 237.929 212.336 237.929ZM221.316 239.17C220.857 239.164 220.423 239.099 220.015 238.974C219.613 238.844 219.256 238.654 218.944 238.405C218.633 238.156 218.386 237.847 218.205 237.478C218.029 237.104 217.941 236.671 217.941 236.178V230.211H219.514V236.016C219.514 236.589 219.689 237.053 220.041 237.41C220.398 237.767 220.933 237.946 221.647 237.946C222.293 237.946 222.812 237.779 223.203 237.444C223.599 237.104 223.798 236.6 223.798 235.931V230.211H225.362V239H224.112L223.951 237.317C223.843 237.759 223.659 238.116 223.398 238.388C223.143 238.66 222.834 238.861 222.472 238.991C222.115 239.116 221.729 239.176 221.316 239.17ZM227.744 239V230.211H229.24V231.902C229.387 231.483 229.594 231.137 229.86 230.865C230.127 230.588 230.43 230.381 230.77 230.245C231.116 230.109 231.473 230.041 231.841 230.041C231.971 230.041 232.099 230.049 232.223 230.067C232.348 230.083 232.444 230.112 232.512 230.151V231.673C232.427 231.633 232.317 231.608 232.181 231.596C232.051 231.579 231.94 231.571 231.849 231.571C231.498 231.548 231.169 231.571 230.863 231.639C230.557 231.701 230.288 231.812 230.056 231.97C229.824 232.129 229.639 232.339 229.503 232.599C229.373 232.854 229.308 233.166 229.308 233.534V239H227.744ZM241.199 230.041C241.828 230.041 242.395 230.163 242.899 230.406C243.403 230.644 243.814 230.984 244.131 231.426C244.454 231.868 244.656 232.39 244.735 232.99H243.341C243.29 232.684 243.171 232.404 242.984 232.149C242.803 231.894 242.562 231.69 242.261 231.537C241.961 231.384 241.61 231.307 241.207 231.307C240.454 231.307 239.842 231.579 239.371 232.123C238.901 232.667 238.666 233.5 238.666 234.622C238.666 235.637 238.881 236.45 239.312 237.062C239.748 237.668 240.389 237.971 241.233 237.971C241.635 237.971 241.984 237.895 242.278 237.742C242.579 237.583 242.82 237.376 243.001 237.121C243.182 236.861 243.298 236.583 243.349 236.288H244.718C244.644 236.878 244.446 237.388 244.123 237.818C243.8 238.249 243.386 238.583 242.882 238.821C242.383 239.054 241.822 239.17 241.199 239.17C240.411 239.17 239.711 238.997 239.099 238.651C238.493 238.306 238.017 237.796 237.671 237.121C237.326 236.447 237.153 235.62 237.153 234.639C237.153 233.721 237.309 232.92 237.62 232.234C237.938 231.543 238.397 231.004 238.997 230.619C239.604 230.234 240.338 230.041 241.199 230.041ZM246.691 239V230.211H248.187V231.902C248.334 231.483 248.541 231.137 248.807 230.865C249.074 230.588 249.377 230.381 249.717 230.245C250.063 230.109 250.42 230.041 250.788 230.041C250.918 230.041 251.046 230.049 251.17 230.067C251.295 230.083 251.391 230.112 251.459 230.151V231.673C251.374 231.633 251.264 231.608 251.128 231.596C250.998 231.579 250.887 231.571 250.796 231.571C250.445 231.548 250.116 231.571 249.81 231.639C249.504 231.701 249.235 231.812 249.003 231.97C248.771 232.129 248.586 232.339 248.45 232.599C248.32 232.854 248.255 233.166 248.255 233.534V239H246.691ZM254.377 241.805C253.862 241.805 253.507 241.768 253.315 241.695C253.122 241.621 253.026 241.584 253.026 241.584V240.564L253.918 240.581C254.247 240.592 254.519 240.57 254.734 240.513C254.95 240.456 255.122 240.38 255.253 240.284C255.383 240.187 255.482 240.08 255.55 239.961C255.624 239.842 255.683 239.728 255.729 239.621L256.035 238.787L252.601 230.211H254.19L256.783 236.994L259.358 230.211H260.897L257.191 239.663C256.964 240.218 256.709 240.652 256.426 240.964C256.148 241.275 255.836 241.493 255.491 241.618C255.151 241.743 254.78 241.805 254.377 241.805ZM262.405 241.737V230.211H263.969L263.986 231.741C264.088 231.56 264.218 231.37 264.377 231.171C264.541 230.973 264.739 230.789 264.972 230.619C265.21 230.449 265.484 230.31 265.796 230.202C266.113 230.095 266.473 230.041 266.876 230.041C267.578 230.041 268.196 230.202 268.729 230.525C269.267 230.843 269.686 231.33 269.987 231.987C270.287 232.645 270.437 233.478 270.437 234.486C270.437 235.495 270.29 236.348 269.995 237.045C269.706 237.736 269.287 238.263 268.737 238.626C268.187 238.989 267.524 239.17 266.748 239.17C266.357 239.17 266.009 239.113 265.703 239C265.402 238.892 265.139 238.751 264.912 238.575C264.691 238.394 264.504 238.201 264.351 237.997C264.204 237.793 264.082 237.597 263.986 237.41V241.737H262.405ZM266.451 237.946C267.176 237.946 267.768 237.671 268.227 237.121C268.686 236.566 268.916 235.705 268.916 234.537C268.916 233.534 268.706 232.738 268.287 232.149C267.867 231.56 267.255 231.265 266.451 231.265C265.635 231.265 265.017 231.568 264.598 232.174C264.178 232.775 263.969 233.563 263.969 234.537C263.969 235.166 264.062 235.739 264.249 236.254C264.436 236.77 264.714 237.181 265.082 237.487C265.45 237.793 265.907 237.946 266.451 237.946ZM276.511 231.358H274.531V236.824C274.531 237.136 274.562 237.365 274.624 237.512C274.692 237.654 274.803 237.745 274.956 237.784C275.115 237.824 275.33 237.844 275.602 237.844H276.562V238.898C276.455 238.938 276.29 238.972 276.069 239C275.854 239.028 275.585 239.043 275.262 239.043C274.656 239.043 274.185 238.96 273.851 238.796C273.517 238.632 273.281 238.388 273.145 238.065C273.015 237.742 272.95 237.345 272.95 236.875V231.358H271.522V230.211H272.992L273.375 227.652H274.531V230.202H276.511V231.358ZM281.861 239.17C281.051 239.17 280.342 238.997 279.736 238.651C279.13 238.3 278.659 237.787 278.325 237.113C277.991 236.439 277.823 235.614 277.823 234.639C277.823 233.721 277.979 232.917 278.291 232.225C278.603 231.534 279.059 230.999 279.659 230.619C280.266 230.234 281 230.041 281.861 230.041C282.671 230.041 283.374 230.219 283.969 230.576C284.57 230.928 285.034 231.446 285.363 232.132C285.692 232.818 285.856 233.653 285.856 234.639C285.856 235.535 285.703 236.322 285.397 237.002C285.097 237.682 284.649 238.215 284.054 238.6C283.465 238.98 282.734 239.17 281.861 239.17ZM281.861 237.929C282.388 237.929 282.833 237.796 283.195 237.529C283.558 237.263 283.833 236.881 284.02 236.382C284.207 235.883 284.3 235.291 284.3 234.605C284.3 233.976 284.218 233.413 284.054 232.914C283.89 232.41 283.626 232.01 283.263 231.715C282.906 231.421 282.439 231.273 281.861 231.273C281.328 231.273 280.878 231.407 280.509 231.673C280.141 231.934 279.861 232.313 279.668 232.812C279.481 233.311 279.387 233.908 279.387 234.605C279.387 235.223 279.472 235.784 279.642 236.288C279.812 236.793 280.079 237.192 280.441 237.487C280.804 237.782 281.277 237.929 281.861 237.929ZM294.669 239.17C293.859 239.17 293.151 238.997 292.544 238.651C291.938 238.3 291.468 237.787 291.133 237.113C290.799 236.439 290.632 235.614 290.632 234.639C290.632 233.721 290.788 232.917 291.099 232.225C291.411 231.534 291.867 230.999 292.468 230.619C293.074 230.234 293.808 230.041 294.669 230.041C295.48 230.041 296.182 230.219 296.777 230.576C297.378 230.928 297.843 231.446 298.171 232.132C298.5 232.818 298.664 233.653 298.664 234.639C298.664 235.535 298.511 236.322 298.205 237.002C297.905 237.682 297.457 238.215 296.862 238.6C296.273 238.98 295.542 239.17 294.669 239.17ZM294.669 237.929C295.196 237.929 295.641 237.796 296.004 237.529C296.366 237.263 296.641 236.881 296.828 236.382C297.015 235.883 297.109 235.291 297.109 234.605C297.109 233.976 297.027 233.413 296.862 232.914C296.698 232.41 296.434 232.01 296.072 231.715C295.715 231.421 295.247 231.273 294.669 231.273C294.137 231.273 293.686 231.407 293.318 231.673C292.949 231.934 292.669 232.313 292.476 232.812C292.289 233.311 292.196 233.908 292.196 234.605C292.196 235.223 292.281 235.784 292.451 236.288C292.621 236.793 292.887 237.192 293.25 237.487C293.612 237.782 294.086 237.929 294.669 237.929ZM300.552 239V230.211H302.073V231.486C302.215 231.242 302.41 231.013 302.66 230.797C302.915 230.582 303.221 230.409 303.578 230.279C303.94 230.149 304.357 230.083 304.827 230.083C305.383 230.083 305.893 230.194 306.357 230.415C306.828 230.636 307.202 230.982 307.479 231.452C307.763 231.917 307.904 232.517 307.904 233.254V239H306.332V233.407C306.332 232.721 306.15 232.214 305.788 231.885C305.431 231.551 304.966 231.384 304.394 231.384C303.997 231.384 303.626 231.449 303.28 231.579C302.935 231.704 302.654 231.897 302.439 232.157C302.223 232.412 302.116 232.735 302.116 233.126V239H300.552ZM313.941 239V230.211H315.454V231.486C315.698 231.101 316.032 230.763 316.457 230.474C316.882 230.185 317.435 230.041 318.115 230.041C318.432 230.041 318.755 230.095 319.084 230.202C319.418 230.31 319.724 230.472 320.002 230.687C320.279 230.902 320.495 231.166 320.648 231.477C320.92 231.047 321.288 230.701 321.753 230.44C322.217 230.174 322.742 230.041 323.325 230.041C323.631 230.041 323.951 230.089 324.286 230.185C324.62 230.276 324.929 230.44 325.212 230.678C325.501 230.911 325.736 231.237 325.918 231.656C326.099 232.07 326.19 232.602 326.19 233.254V239H324.609V233.407C324.609 232.874 324.524 232.463 324.354 232.174C324.184 231.88 323.96 231.673 323.682 231.554C323.41 231.435 323.118 231.375 322.807 231.375C322.535 231.375 322.246 231.429 321.94 231.537C321.634 231.645 321.373 231.826 321.158 232.081C320.942 232.336 320.835 232.684 320.835 233.126V239H319.271V232.948C319.271 232.602 319.177 232.313 318.99 232.081C318.809 231.849 318.579 231.673 318.302 231.554C318.03 231.435 317.758 231.375 317.486 231.375C317.185 231.375 316.882 231.435 316.576 231.554C316.276 231.673 316.021 231.863 315.811 232.123C315.607 232.378 315.505 232.713 315.505 233.126V239H313.941ZM331.577 239.17C331.118 239.164 330.685 239.099 330.277 238.974C329.875 238.844 329.518 238.654 329.206 238.405C328.894 238.156 328.648 237.847 328.466 237.478C328.291 237.104 328.203 236.671 328.203 236.178V230.211H329.775V236.016C329.775 236.589 329.951 237.053 330.302 237.41C330.659 237.767 331.195 237.946 331.909 237.946C332.555 237.946 333.073 237.779 333.464 237.444C333.861 237.104 334.059 236.6 334.059 235.931V230.211H335.623V239H334.374L334.212 237.317C334.105 237.759 333.921 238.116 333.66 238.388C333.405 238.66 333.096 238.861 332.733 238.991C332.376 239.116 331.991 239.176 331.577 239.17ZM340.224 239.111C339.748 239.111 339.363 239.045 339.068 238.915C338.779 238.785 338.555 238.609 338.397 238.388C338.244 238.167 338.139 237.915 338.082 237.631C338.031 237.342 338.006 237.045 338.006 236.739V226.369H339.553V236.586C339.553 237.028 339.638 237.359 339.808 237.58C339.983 237.801 340.227 237.923 340.539 237.946L341.015 237.954V238.974C340.884 239.014 340.748 239.045 340.607 239.068C340.465 239.096 340.337 239.111 340.224 239.111ZM346.883 231.358H344.902V236.824C344.902 237.136 344.933 237.365 344.996 237.512C345.064 237.654 345.174 237.745 345.327 237.784C345.486 237.824 345.701 237.844 345.973 237.844H346.934V238.898C346.826 238.938 346.662 238.972 346.441 239C346.225 239.028 345.956 239.043 345.633 239.043C345.027 239.043 344.557 238.96 344.222 238.796C343.888 238.632 343.653 238.388 343.517 238.065C343.386 237.742 343.321 237.345 343.321 236.875V231.358H341.893V230.211H343.364L343.746 227.652H344.902V230.202H346.883V231.358ZM350.671 230.211V239H349.15V230.211H350.671ZM350.705 226.717V228.349H349.099V226.717H350.705ZM353.367 241.737V230.211H354.931L354.948 231.741C355.05 231.56 355.18 231.37 355.339 231.171C355.503 230.973 355.701 230.789 355.934 230.619C356.172 230.449 356.446 230.31 356.758 230.202C357.075 230.095 357.435 230.041 357.838 230.041C358.54 230.041 359.158 230.202 359.691 230.525C360.229 230.843 360.648 231.33 360.949 231.987C361.249 232.645 361.399 233.478 361.399 234.486C361.399 235.495 361.252 236.348 360.957 237.045C360.668 237.736 360.249 238.263 359.699 238.626C359.149 238.989 358.486 239.17 357.71 239.17C357.319 239.17 356.971 239.113 356.665 239C356.364 238.892 356.101 238.751 355.874 238.575C355.653 238.394 355.466 238.201 355.313 237.997C355.166 237.793 355.044 237.597 354.948 237.41V241.737H353.367ZM357.413 237.946C358.138 237.946 358.73 237.671 359.189 237.121C359.648 236.566 359.878 235.705 359.878 234.537C359.878 233.534 359.668 232.738 359.249 232.149C358.829 231.56 358.217 231.265 357.413 231.265C356.597 231.265 355.979 231.568 355.56 232.174C355.14 232.775 354.931 233.563 354.931 234.537C354.931 235.166 355.024 235.739 355.211 236.254C355.398 236.77 355.676 237.181 356.044 237.487C356.412 237.793 356.869 237.946 357.413 237.946ZM365.509 239.111C365.033 239.111 364.647 239.045 364.353 238.915C364.064 238.785 363.84 238.609 363.681 238.388C363.528 238.167 363.423 237.915 363.367 237.631C363.316 237.342 363.29 237.045 363.29 236.739V226.369H364.837V236.586C364.837 237.028 364.922 237.359 365.092 237.58C365.268 237.801 365.512 237.923 365.823 237.946L366.299 237.954V238.974C366.169 239.014 366.033 239.045 365.891 239.068C365.75 239.096 365.622 239.111 365.509 239.111ZM369.173 234.971C369.173 235.526 369.264 236.031 369.445 236.484C369.632 236.932 369.912 237.289 370.286 237.555C370.666 237.821 371.139 237.954 371.706 237.954C372.267 237.954 372.749 237.824 373.151 237.563C373.559 237.303 373.82 236.926 373.933 236.433H375.42C375.313 237.028 375.075 237.529 374.706 237.938C374.338 238.345 373.893 238.654 373.372 238.864C372.851 239.068 372.307 239.17 371.74 239.17C370.918 239.17 370.196 238.992 369.572 238.634C368.949 238.277 368.462 237.765 368.11 237.096C367.759 236.427 367.583 235.625 367.583 234.69C367.583 233.767 367.742 232.956 368.059 232.259C368.377 231.562 368.836 231.018 369.436 230.627C370.043 230.236 370.771 230.041 371.621 230.041C372.448 230.041 373.148 230.219 373.72 230.576C374.293 230.933 374.726 231.438 375.021 232.089C375.321 232.735 375.471 233.503 375.471 234.393V234.971H369.173ZM369.181 233.908H373.958C373.958 233.404 373.873 232.951 373.703 232.548C373.533 232.14 373.273 231.82 372.921 231.588C372.576 231.35 372.139 231.231 371.612 231.231C371.063 231.231 370.607 231.364 370.244 231.63C369.887 231.891 369.618 232.228 369.436 232.642C369.261 233.05 369.176 233.472 369.181 233.908ZM385.452 239.17C384.936 239.17 384.5 239.102 384.143 238.966C383.792 238.83 383.503 238.657 383.276 238.447C383.049 238.232 382.874 238.014 382.749 237.793C382.624 237.566 382.534 237.368 382.477 237.198L382.307 239H381.108V226.369H382.689V231.605C382.763 231.458 382.874 231.296 383.021 231.12C383.174 230.945 383.369 230.775 383.607 230.61C383.845 230.446 384.126 230.31 384.449 230.202C384.778 230.095 385.152 230.041 385.571 230.041C386.67 230.041 387.543 230.423 388.189 231.188C388.841 231.953 389.166 233.081 389.166 234.571C389.166 235.495 389.028 236.303 388.75 236.994C388.472 237.68 388.059 238.215 387.509 238.6C386.959 238.98 386.274 239.17 385.452 239.17ZM385.171 237.963C385.885 237.963 386.466 237.688 386.914 237.138C387.362 236.583 387.585 235.702 387.585 234.495C387.585 233.469 387.376 232.676 386.956 232.115C386.543 231.548 385.936 231.265 385.137 231.265C384.554 231.265 384.083 231.392 383.726 231.647C383.375 231.897 383.114 232.262 382.944 232.744C382.78 233.226 382.695 233.809 382.689 234.495C382.689 235.725 382.879 236.611 383.259 237.155C383.644 237.694 384.282 237.963 385.171 237.963ZM393.267 239.111C392.791 239.111 392.406 239.045 392.111 238.915C391.822 238.785 391.598 238.609 391.44 238.388C391.287 238.167 391.182 237.915 391.125 237.631C391.074 237.342 391.049 237.045 391.049 236.739V226.369H392.596V236.586C392.596 237.028 392.681 237.359 392.851 237.58C393.026 237.801 393.27 237.923 393.582 237.946L394.058 237.954V238.974C393.927 239.014 393.791 239.045 393.65 239.068C393.508 239.096 393.381 239.111 393.267 239.111ZM399.303 239.17C398.493 239.17 397.784 238.997 397.178 238.651C396.572 238.3 396.101 237.787 395.767 237.113C395.433 236.439 395.265 235.614 395.265 234.639C395.265 233.721 395.421 232.917 395.733 232.225C396.045 231.534 396.501 230.999 397.101 230.619C397.708 230.234 398.442 230.041 399.303 230.041C400.113 230.041 400.816 230.219 401.411 230.576C402.012 230.928 402.476 231.446 402.805 232.132C403.134 232.818 403.298 233.653 403.298 234.639C403.298 235.535 403.145 236.322 402.839 237.002C402.539 237.682 402.091 238.215 401.496 238.6C400.907 238.98 400.176 239.17 399.303 239.17ZM399.303 237.929C399.83 237.929 400.275 237.796 400.637 237.529C401 237.263 401.275 236.881 401.462 236.382C401.649 235.883 401.742 235.291 401.742 234.605C401.742 233.976 401.66 233.413 401.496 232.914C401.332 232.41 401.068 232.01 400.705 231.715C400.348 231.421 399.881 231.273 399.303 231.273C398.77 231.273 398.32 231.407 397.951 231.673C397.583 231.934 397.303 232.313 397.11 232.812C396.923 233.311 396.829 233.908 396.829 234.605C396.829 235.223 396.914 235.784 397.084 236.288C397.254 236.793 397.521 237.192 397.883 237.487C398.246 237.782 398.719 237.929 399.303 237.929ZM408.687 230.041C409.316 230.041 409.883 230.163 410.387 230.406C410.892 230.644 411.303 230.984 411.62 231.426C411.943 231.868 412.144 232.39 412.223 232.99H410.829C410.778 232.684 410.659 232.404 410.472 232.149C410.291 231.894 410.05 231.69 409.75 231.537C409.45 231.384 409.098 231.307 408.696 231.307C407.942 231.307 407.33 231.579 406.86 232.123C406.39 232.667 406.154 233.5 406.154 234.622C406.154 235.637 406.37 236.45 406.8 237.062C407.237 237.668 407.877 237.971 408.721 237.971C409.124 237.971 409.472 237.895 409.767 237.742C410.067 237.583 410.308 237.376 410.489 237.121C410.671 236.861 410.787 236.583 410.838 236.288H412.206C412.133 236.878 411.934 237.388 411.611 237.818C411.288 238.249 410.875 238.583 410.37 238.821C409.872 239.054 409.311 239.17 408.687 239.17C407.9 239.17 407.2 238.997 406.588 238.651C405.982 238.306 405.506 237.796 405.16 237.121C404.814 236.447 404.641 235.62 404.641 234.639C404.641 233.721 404.797 232.92 405.109 232.234C405.426 231.543 405.885 231.004 406.486 230.619C407.092 230.234 407.826 230.041 408.687 230.041ZM421.897 239H420.231L417.477 234.588L415.743 236.382V239H414.179V226.369H415.743V234.605L419.874 230.211H421.676L418.506 233.56L421.897 239ZM426.709 230.041C427.338 230.041 427.904 230.163 428.409 230.406C428.913 230.644 429.324 230.984 429.641 231.426C429.964 231.868 430.165 232.39 430.245 232.99H428.851C428.8 232.684 428.681 232.404 428.494 232.149C428.312 231.894 428.072 231.69 427.771 231.537C427.471 231.384 427.12 231.307 426.717 231.307C425.964 231.307 425.352 231.579 424.881 232.123C424.411 232.667 424.176 233.5 424.176 234.622C424.176 235.637 424.391 236.45 424.822 237.062C425.258 237.668 425.898 237.971 426.743 237.971C427.145 237.971 427.494 237.895 427.788 237.742C428.089 237.583 428.329 237.376 428.511 237.121C428.692 236.861 428.808 236.583 428.859 236.288H430.228C430.154 236.878 429.956 237.388 429.633 237.818C429.31 238.249 428.896 238.583 428.392 238.821C427.893 239.054 427.332 239.17 426.709 239.17C425.921 239.17 425.221 238.997 424.609 238.651C424.003 238.306 423.527 237.796 423.181 237.121C422.836 236.447 422.663 235.62 422.663 234.639C422.663 233.721 422.819 232.92 423.13 232.234C423.448 231.543 423.907 231.004 424.507 230.619C425.114 230.234 425.847 230.041 426.709 230.041ZM432.201 239V226.369H433.731V231.503C433.878 231.259 434.076 231.033 434.326 230.823C434.575 230.608 434.878 230.435 435.235 230.304C435.592 230.168 436.006 230.1 436.476 230.1C437.049 230.1 437.567 230.208 438.032 230.423C438.496 230.633 438.865 230.933 439.137 231.324C439.409 231.715 439.545 232.18 439.545 232.718V239H437.972V233.033C437.972 232.506 437.791 232.101 437.428 231.817C437.071 231.528 436.604 231.384 436.026 231.384C435.635 231.384 435.266 231.449 434.921 231.579C434.575 231.704 434.295 231.897 434.079 232.157C433.87 232.412 433.765 232.738 433.765 233.135V239H432.201ZM444.224 239.17C443.657 239.17 443.155 239.071 442.719 238.872C442.283 238.668 441.94 238.377 441.691 237.997C441.447 237.617 441.325 237.158 441.325 236.62C441.325 235.645 441.665 234.92 442.345 234.444C443.025 233.968 444.116 233.713 445.618 233.679L447.19 233.636V232.948C447.19 232.41 447.029 231.985 446.706 231.673C446.383 231.356 445.881 231.197 445.201 231.197C444.697 231.203 444.252 231.322 443.867 231.554C443.487 231.786 443.24 232.166 443.127 232.693H441.742C441.776 232.121 441.937 231.639 442.226 231.248C442.515 230.851 442.917 230.551 443.433 230.347C443.954 230.143 444.569 230.041 445.278 230.041C446.043 230.041 446.677 230.149 447.182 230.364C447.692 230.579 448.071 230.897 448.321 231.316C448.576 231.735 448.703 232.251 448.703 232.863V239H447.36L447.25 237.351C446.91 238.037 446.476 238.513 445.949 238.779C445.428 239.04 444.853 239.17 444.224 239.17ZM444.7 238.039C444.994 238.039 445.286 237.986 445.575 237.878C445.87 237.77 446.139 237.626 446.383 237.444C446.626 237.257 446.819 237.051 446.961 236.824C447.108 236.592 447.184 236.354 447.19 236.11V234.605L445.881 234.631C445.212 234.642 444.651 234.71 444.198 234.835C443.75 234.96 443.413 235.155 443.187 235.421C442.966 235.688 442.855 236.036 442.855 236.467C442.855 236.96 443.025 237.345 443.365 237.623C443.711 237.901 444.156 238.039 444.7 238.039ZM452.918 230.211V239H451.397V230.211H452.918ZM452.952 226.717V228.349H451.346V226.717H452.952ZM455.614 239V230.211H457.135V231.486C457.277 231.242 457.472 231.013 457.722 230.797C457.977 230.582 458.283 230.409 458.64 230.279C459.002 230.149 459.419 230.083 459.889 230.083C460.444 230.083 460.954 230.194 461.419 230.415C461.889 230.636 462.263 230.982 462.541 231.452C462.824 231.917 462.966 232.517 462.966 233.254V239H461.394V233.407C461.394 232.721 461.212 232.214 460.85 231.885C460.493 231.551 460.028 231.384 459.456 231.384C459.059 231.384 458.688 231.449 458.342 231.579C457.996 231.704 457.716 231.897 457.501 232.157C457.285 232.412 457.178 232.735 457.178 233.126V239H455.614ZM468.242 239.17C467.63 239.17 467.06 239.077 466.533 238.889C466.012 238.697 465.579 238.399 465.233 237.997C464.887 237.589 464.669 237.07 464.578 236.441H466.006C466.086 236.787 466.227 237.076 466.431 237.308C466.641 237.535 466.902 237.708 467.213 237.827C467.525 237.94 467.865 237.997 468.233 237.997C468.823 237.997 469.299 237.886 469.661 237.665C470.024 237.444 470.205 237.104 470.205 236.645C470.205 236.322 470.109 236.065 469.916 235.872C469.729 235.674 469.438 235.529 469.041 235.438L467.222 234.988C466.514 234.818 465.947 234.552 465.522 234.189C465.097 233.826 464.884 233.319 464.884 232.667C464.879 232.152 465.001 231.698 465.25 231.307C465.499 230.916 465.873 230.608 466.372 230.381C466.871 230.154 467.491 230.041 468.233 230.041C469.185 230.041 469.953 230.256 470.537 230.687C471.126 231.112 471.432 231.738 471.455 232.565H470.069C470.013 232.146 469.823 231.815 469.5 231.571C469.183 231.322 468.755 231.197 468.216 231.197C467.655 231.197 467.199 231.31 466.848 231.537C466.497 231.758 466.321 232.104 466.321 232.574C466.321 232.886 466.446 233.132 466.695 233.313C466.944 233.489 467.313 233.636 467.8 233.755L469.559 234.198C469.967 234.305 470.302 234.447 470.562 234.622C470.829 234.798 471.038 234.994 471.191 235.209C471.35 235.424 471.461 235.651 471.523 235.889C471.591 236.121 471.625 236.345 471.625 236.56C471.625 237.099 471.489 237.563 471.217 237.954C470.951 238.34 470.565 238.64 470.061 238.855C469.562 239.065 468.956 239.17 468.242 239.17ZM77.289 254.211V255.358H75.1555V263H73.5745V255.358H71.7215V254.211H73.5745V252.851C73.5745 252.154 73.753 251.624 74.11 251.261C74.467 250.893 74.9997 250.709 75.708 250.709H77.3655L77.374 251.822H76.0565C75.6995 251.822 75.4559 251.919 75.3255 252.111C75.1952 252.304 75.13 252.596 75.13 252.987V254.211H77.289ZM82.4552 263.17C81.6448 263.17 80.9365 262.997 80.3302 262.651C79.7238 262.3 79.2535 261.787 78.9192 261.113C78.5848 260.439 78.4177 259.614 78.4177 258.639C78.4177 257.721 78.5735 256.917 78.8852 256.225C79.1968 255.534 79.653 254.999 80.2537 254.619C80.86 254.234 81.5938 254.041 82.4552 254.041C83.2655 254.041 83.9682 254.219 84.5632 254.576C85.1638 254.928 85.6285 255.446 85.9572 256.132C86.2858 256.818 86.4502 257.653 86.4502 258.639C86.4502 259.535 86.2972 260.322 85.9912 261.002C85.6908 261.682 85.2432 262.215 84.6482 262.6C84.0588 262.98 83.3278 263.17 82.4552 263.17ZM82.4552 261.929C82.9822 261.929 83.427 261.796 83.7897 261.529C84.1523 261.263 84.4272 260.881 84.6142 260.382C84.8012 259.883 84.8947 259.291 84.8947 258.605C84.8947 257.976 84.8125 257.413 84.6482 256.914C84.4838 256.41 84.2203 256.01 83.8577 255.715C83.5007 255.421 83.0332 255.273 82.4552 255.273C81.9225 255.273 81.472 255.407 81.1037 255.673C80.7353 255.934 80.4548 256.313 80.2622 256.812C80.0752 257.311 79.9817 257.908 79.9817 258.605C79.9817 259.223 80.0667 259.784 80.2367 260.288C80.4067 260.793 80.673 261.192 81.0357 261.487C81.3983 261.782 81.8715 261.929 82.4552 261.929ZM88.3376 263V254.211H89.8336V255.902C89.9809 255.483 90.1877 255.137 90.4541 254.865C90.7204 254.588 91.0236 254.381 91.3636 254.245C91.7092 254.109 92.0662 254.041 92.4346 254.041C92.5649 254.041 92.6924 254.049 92.8171 254.067C92.9417 254.083 93.0381 254.112 93.1061 254.151V255.673C93.0211 255.633 92.9106 255.608 92.7746 255.596C92.6442 255.579 92.5337 255.571 92.4431 255.571C92.0917 255.548 91.7631 255.571 91.4571 255.639C91.1511 255.701 90.8819 255.812 90.6496 255.97C90.4172 256.129 90.2331 256.339 90.0971 256.599C89.9667 256.854 89.9016 257.166 89.9016 257.534V263H88.3376ZM98.5064 265.737V254.211H100.07L100.087 255.741C100.189 255.56 100.32 255.37 100.478 255.171C100.643 254.973 100.841 254.789 101.073 254.619C101.311 254.449 101.586 254.31 101.898 254.202C102.215 254.095 102.575 254.041 102.977 254.041C103.68 254.041 104.298 254.202 104.83 254.525C105.369 254.843 105.788 255.33 106.088 255.987C106.389 256.645 106.539 257.478 106.539 258.486C106.539 259.495 106.392 260.348 106.097 261.045C105.808 261.736 105.389 262.263 104.839 262.626C104.289 262.989 103.626 263.17 102.85 263.17C102.459 263.17 102.11 263.113 101.804 263C101.504 262.892 101.241 262.751 101.014 262.575C100.793 262.394 100.606 262.201 100.453 261.997C100.306 261.793 100.184 261.597 100.087 261.41V265.737H98.5064ZM102.552 261.946C103.278 261.946 103.87 261.671 104.329 261.121C104.788 260.566 105.017 259.705 105.017 258.537C105.017 257.534 104.808 256.738 104.388 256.149C103.969 255.56 103.357 255.265 102.552 255.265C101.736 255.265 101.119 255.568 100.699 256.174C100.28 256.775 100.07 257.563 100.07 258.537C100.07 259.166 100.164 259.739 100.351 260.254C100.538 260.77 100.816 261.181 101.184 261.487C101.552 261.793 102.008 261.946 102.552 261.946ZM108.43 263V254.211H109.926V255.902C110.073 255.483 110.28 255.137 110.547 254.865C110.813 254.588 111.116 254.381 111.456 254.245C111.802 254.109 112.159 254.041 112.527 254.041C112.657 254.041 112.785 254.049 112.91 254.067C113.034 254.083 113.131 254.112 113.199 254.151V255.673C113.114 255.633 113.003 255.608 112.867 255.596C112.737 255.579 112.626 255.571 112.536 255.571C112.184 255.548 111.856 255.571 111.55 255.639C111.244 255.701 110.974 255.812 110.742 255.97C110.51 256.129 110.326 256.339 110.19 256.599C110.059 256.854 109.994 257.166 109.994 257.534V263H108.43ZM116.551 254.211V263H115.029V254.211H116.551ZM116.585 250.717V252.349H114.978V250.717H116.585ZM126.015 254.211L122.844 263H121.416L118.237 254.211H119.716L122.054 261.028H122.198L124.544 254.211H126.015ZM129.642 263.17C129.075 263.17 128.574 263.071 128.138 262.872C127.701 262.668 127.358 262.377 127.109 261.997C126.865 261.617 126.744 261.158 126.744 260.62C126.744 259.645 127.084 258.92 127.764 258.444C128.444 257.968 129.534 257.713 131.036 257.679L132.609 257.636V256.948C132.609 256.41 132.447 255.985 132.124 255.673C131.801 255.356 131.3 255.197 130.62 255.197C130.115 255.203 129.67 255.322 129.285 255.554C128.905 255.786 128.659 256.166 128.546 256.693H127.16C127.194 256.121 127.356 255.639 127.645 255.248C127.934 254.851 128.336 254.551 128.852 254.347C129.373 254.143 129.988 254.041 130.696 254.041C131.461 254.041 132.096 254.149 132.6 254.364C133.11 254.579 133.49 254.897 133.739 255.316C133.994 255.735 134.122 256.251 134.122 256.863V263H132.779L132.668 261.351C132.328 262.037 131.895 262.513 131.368 262.779C130.846 263.04 130.271 263.17 129.642 263.17ZM130.118 262.039C130.413 262.039 130.705 261.986 130.994 261.878C131.288 261.77 131.557 261.626 131.801 261.444C132.045 261.257 132.237 261.051 132.379 260.824C132.526 260.592 132.603 260.354 132.609 260.11V258.605L131.3 258.631C130.631 258.642 130.07 258.71 129.617 258.835C129.169 258.96 128.832 259.155 128.605 259.421C128.384 259.688 128.274 260.036 128.274 260.467C128.274 260.96 128.444 261.345 128.784 261.623C129.129 261.901 129.574 262.039 130.118 262.039ZM140.139 254.041C140.768 254.041 141.335 254.163 141.839 254.406C142.343 254.644 142.754 254.984 143.071 255.426C143.394 255.868 143.596 256.39 143.675 256.99H142.281C142.23 256.684 142.111 256.404 141.924 256.149C141.743 255.894 141.502 255.69 141.201 255.537C140.901 255.384 140.55 255.307 140.147 255.307C139.394 255.307 138.782 255.579 138.311 256.123C137.841 256.667 137.606 257.5 137.606 258.622C137.606 259.637 137.821 260.45 138.252 261.062C138.688 261.668 139.329 261.971 140.173 261.971C140.575 261.971 140.924 261.895 141.218 261.742C141.519 261.583 141.76 261.376 141.941 261.121C142.122 260.861 142.238 260.583 142.289 260.288H143.658C143.584 260.878 143.386 261.388 143.063 261.818C142.74 262.249 142.326 262.583 141.822 262.821C141.323 263.054 140.762 263.17 140.139 263.17C139.351 263.17 138.651 262.997 138.039 262.651C137.433 262.306 136.957 261.796 136.611 261.121C136.266 260.447 136.093 259.62 136.093 258.639C136.093 257.721 136.249 256.92 136.56 256.234C136.878 255.543 137.337 255.004 137.937 254.619C138.544 254.234 139.278 254.041 140.139 254.041ZM146.348 265.805C145.833 265.805 145.479 265.768 145.286 265.695C145.093 265.621 144.997 265.584 144.997 265.584V264.564L145.889 264.581C146.218 264.592 146.49 264.57 146.705 264.513C146.921 264.456 147.094 264.38 147.224 264.284C147.354 264.187 147.453 264.08 147.521 263.961C147.595 263.842 147.655 263.728 147.7 263.621L148.006 262.787L144.572 254.211H146.161L148.754 260.994L151.329 254.211H152.868L149.162 263.663C148.935 264.218 148.68 264.652 148.397 264.964C148.119 265.275 147.808 265.493 147.462 265.618C147.122 265.743 146.751 265.805 146.348 265.805ZM152.968 265.134L153.92 263.034L153.181 262.991V261.113H155.144V262.745L153.699 265.134H152.968ZM172.569 254.211L169.908 263H168.361L166.355 256.514L164.451 263H162.913L160.201 254.211H161.655L163.669 260.968H163.805L165.786 254.211H166.976L169.033 260.951H169.169L171.098 254.211H172.569ZM175.886 254.211V263H174.365V254.211H175.886ZM175.92 250.717V252.349H174.314V250.717H175.92ZM183.064 255.358H181.083V260.824C181.083 261.136 181.114 261.365 181.177 261.512C181.245 261.654 181.355 261.745 181.508 261.784C181.667 261.824 181.882 261.844 182.154 261.844H183.115V262.898C183.007 262.938 182.843 262.972 182.622 263C182.406 263.028 182.137 263.043 181.814 263.043C181.208 263.043 180.737 262.96 180.403 262.796C180.069 262.632 179.834 262.388 179.698 262.065C179.567 261.742 179.502 261.345 179.502 260.875V255.358H178.074V254.211H179.545L179.927 251.652H181.083V254.202H183.064V255.358ZM185.152 263V250.369H186.682V255.503C186.829 255.259 187.028 255.033 187.277 254.823C187.526 254.608 187.829 254.435 188.186 254.304C188.543 254.168 188.957 254.1 189.427 254.1C190 254.1 190.518 254.208 190.983 254.423C191.448 254.633 191.816 254.933 192.088 255.324C192.36 255.715 192.496 256.18 192.496 256.718V263H190.923V257.033C190.923 256.506 190.742 256.101 190.379 255.817C190.022 255.528 189.555 255.384 188.977 255.384C188.586 255.384 188.218 255.449 187.872 255.579C187.526 255.704 187.246 255.897 187.03 256.157C186.821 256.412 186.716 256.738 186.716 257.135V263H185.152ZM200.956 263.17C200.389 263.17 199.888 263.071 199.451 262.872C199.015 262.668 198.672 262.377 198.423 261.997C198.179 261.617 198.057 261.158 198.057 260.62C198.057 259.645 198.397 258.92 199.077 258.444C199.757 257.968 200.848 257.713 202.35 257.679L203.922 257.636V256.948C203.922 256.41 203.761 255.985 203.438 255.673C203.115 255.356 202.613 255.197 201.933 255.197C201.429 255.203 200.984 255.322 200.599 255.554C200.219 255.786 199.973 256.166 199.859 256.693H198.474C198.508 256.121 198.669 255.639 198.958 255.248C199.247 254.851 199.65 254.551 200.165 254.347C200.687 254.143 201.301 254.041 202.01 254.041C202.775 254.041 203.409 254.149 203.914 254.364C204.424 254.579 204.803 254.897 205.053 255.316C205.308 255.735 205.435 256.251 205.435 256.863V263H204.092L203.982 261.351C203.642 262.037 203.208 262.513 202.681 262.779C202.16 263.04 201.585 263.17 200.956 263.17ZM201.432 262.039C201.726 262.039 202.018 261.986 202.307 261.878C202.602 261.77 202.871 261.626 203.115 261.444C203.358 261.257 203.551 261.051 203.693 260.824C203.84 260.592 203.917 260.354 203.922 260.11V258.605L202.613 258.631C201.945 258.642 201.384 258.71 200.93 258.835C200.483 258.96 200.145 259.155 199.919 259.421C199.698 259.688 199.587 260.036 199.587 260.467C199.587 260.96 199.757 261.345 200.097 261.623C200.443 261.901 200.888 262.039 201.432 262.039ZM214.818 263.17C214.206 263.17 213.636 263.077 213.109 262.889C212.588 262.697 212.155 262.399 211.809 261.997C211.463 261.589 211.245 261.07 211.154 260.441H212.582C212.662 260.787 212.803 261.076 213.007 261.308C213.217 261.535 213.478 261.708 213.789 261.827C214.101 261.94 214.441 261.997 214.809 261.997C215.399 261.997 215.875 261.886 216.237 261.665C216.6 261.444 216.781 261.104 216.781 260.645C216.781 260.322 216.685 260.065 216.492 259.872C216.305 259.674 216.014 259.529 215.617 259.438L213.798 258.988C213.09 258.818 212.523 258.552 212.098 258.189C211.673 257.826 211.46 257.319 211.46 256.667C211.455 256.152 211.577 255.698 211.826 255.307C212.075 254.916 212.449 254.608 212.948 254.381C213.447 254.154 214.067 254.041 214.809 254.041C215.761 254.041 216.529 254.256 217.113 254.687C217.702 255.112 218.008 255.738 218.031 256.565H216.645C216.589 256.146 216.399 255.815 216.076 255.571C215.759 255.322 215.331 255.197 214.792 255.197C214.231 255.197 213.775 255.31 213.424 255.537C213.073 255.758 212.897 256.104 212.897 256.574C212.897 256.886 213.022 257.132 213.271 257.313C213.52 257.489 213.889 257.636 214.376 257.755L216.135 258.198C216.543 258.305 216.878 258.447 217.138 258.622C217.405 258.798 217.614 258.994 217.767 259.209C217.926 259.424 218.037 259.651 218.099 259.889C218.167 260.121 218.201 260.345 218.201 260.56C218.201 261.099 218.065 261.563 217.793 261.954C217.527 262.34 217.141 262.64 216.637 262.855C216.138 263.065 215.532 263.17 214.818 263.17ZM222.446 263.111C221.97 263.111 221.585 263.045 221.29 262.915C221.001 262.785 220.777 262.609 220.619 262.388C220.466 262.167 220.361 261.915 220.304 261.631C220.253 261.342 220.228 261.045 220.228 260.739V250.369H221.775V260.586C221.775 261.028 221.86 261.359 222.03 261.58C222.205 261.801 222.449 261.923 222.761 261.946L223.237 261.954V262.974C223.106 263.014 222.97 263.045 222.829 263.068C222.687 263.096 222.56 263.111 222.446 263.111ZM226.11 258.971C226.11 259.526 226.201 260.031 226.382 260.484C226.569 260.932 226.85 261.289 227.224 261.555C227.604 261.821 228.077 261.954 228.643 261.954C229.204 261.954 229.686 261.824 230.088 261.563C230.496 261.303 230.757 260.926 230.87 260.433H232.358C232.25 261.028 232.012 261.529 231.644 261.938C231.276 262.345 230.831 262.654 230.309 262.864C229.788 263.068 229.244 263.17 228.677 263.17C227.856 263.17 227.133 262.992 226.51 262.634C225.887 262.277 225.399 261.765 225.048 261.096C224.697 260.427 224.521 259.625 224.521 258.69C224.521 257.767 224.68 256.956 224.997 256.259C225.314 255.562 225.773 255.018 226.374 254.627C226.98 254.236 227.708 254.041 228.558 254.041C229.386 254.041 230.086 254.219 230.658 254.576C231.23 254.933 231.664 255.438 231.958 256.089C232.259 256.735 232.409 257.503 232.409 258.393V258.971H226.11ZM226.119 257.908H230.896C230.896 257.404 230.811 256.951 230.641 256.548C230.471 256.14 230.21 255.82 229.859 255.588C229.513 255.35 229.077 255.231 228.55 255.231C228 255.231 227.544 255.364 227.181 255.63C226.824 255.891 226.555 256.228 226.374 256.642C226.198 257.05 226.113 257.472 226.119 257.908ZM235.519 258.971C235.519 259.526 235.61 260.031 235.791 260.484C235.978 260.932 236.259 261.289 236.633 261.555C237.013 261.821 237.486 261.954 238.052 261.954C238.613 261.954 239.095 261.824 239.497 261.563C239.905 261.303 240.166 260.926 240.279 260.433H241.767C241.659 261.028 241.421 261.529 241.053 261.938C240.685 262.345 240.24 262.654 239.718 262.864C239.197 263.068 238.653 263.17 238.086 263.17C237.265 263.17 236.542 262.992 235.919 262.634C235.296 262.277 234.808 261.765 234.457 261.096C234.106 260.427 233.93 259.625 233.93 258.69C233.93 257.767 234.089 256.956 234.406 256.259C234.723 255.562 235.182 255.018 235.783 254.627C236.389 254.236 237.117 254.041 237.967 254.041C238.795 254.041 239.495 254.219 240.067 254.576C240.639 254.933 241.073 255.438 241.367 256.089C241.668 256.735 241.818 257.503 241.818 258.393V258.971H235.519ZM235.528 257.908H240.305C240.305 257.404 240.22 256.951 240.05 256.548C239.88 256.14 239.619 255.82 239.268 255.588C238.922 255.35 238.486 255.231 237.959 255.231C237.409 255.231 236.953 255.364 236.59 255.63C236.233 255.891 235.964 256.228 235.783 256.642C235.607 257.05 235.522 257.472 235.528 257.908ZM251.525 263H249.859L247.105 258.588L245.371 260.382V263H243.807V250.369H245.371V258.605L249.502 254.211H251.304L248.133 257.56L251.525 263ZM260.89 250.539C262.222 250.539 263.282 251.074 264.069 252.145C264.863 253.211 265.259 254.789 265.259 256.88C265.259 258.96 264.865 260.532 264.078 261.597C263.29 262.657 262.222 263.187 260.873 263.187C259.53 263.187 258.465 262.66 257.677 261.606C256.89 260.546 256.496 258.979 256.496 256.905C256.496 255.506 256.677 254.333 257.04 253.386C257.402 252.44 257.912 251.729 258.57 251.253C259.227 250.777 260.001 250.539 260.89 250.539ZM260.89 261.827C261.769 261.827 262.432 261.442 262.879 260.671C263.333 259.895 263.559 258.634 263.559 256.888C263.559 255.109 263.33 253.829 262.871 253.046C262.417 252.259 261.754 251.865 260.882 251.865C260.015 251.865 259.346 252.262 258.876 253.055C258.411 253.843 258.179 255.12 258.179 256.888C258.179 258.628 258.411 259.886 258.876 260.662C259.34 261.439 260.012 261.827 260.89 261.827ZM266.854 263V260.994H268.724V263H266.854ZM271.573 250.709H278.908L278.866 252.069H272.916L272.601 256.038C273.009 255.659 273.454 255.39 273.936 255.231C274.423 255.067 274.95 254.984 275.517 254.984C276.259 254.984 276.942 255.137 277.565 255.443C278.194 255.744 278.699 256.191 279.078 256.786C279.458 257.376 279.648 258.107 279.648 258.979C279.648 259.829 279.464 260.569 279.095 261.198C278.727 261.827 278.209 262.317 277.54 262.668C276.871 263.014 276.086 263.187 275.185 263.187C274.426 263.187 273.723 263.054 273.077 262.787C272.431 262.521 271.876 262.15 271.411 261.674C270.952 261.198 270.615 260.651 270.4 260.033L271.76 259.464C271.964 259.929 272.219 260.342 272.525 260.705C272.837 261.068 273.205 261.351 273.63 261.555C274.055 261.759 274.537 261.861 275.075 261.861C275.948 261.861 276.647 261.609 277.174 261.104C277.707 260.594 277.973 259.903 277.973 259.03C277.973 258.486 277.849 258.013 277.599 257.611C277.35 257.203 277.013 256.886 276.588 256.659C276.169 256.432 275.704 256.319 275.194 256.319C274.86 256.319 274.548 256.35 274.259 256.412C273.97 256.469 273.684 256.582 273.4 256.752C273.117 256.922 272.82 257.18 272.508 257.526C272.474 257.543 272.448 257.551 272.431 257.551C272.414 257.546 272.386 257.534 272.346 257.517L271.02 257.101L271.573 250.709ZM284.13 250.522C284.679 250.522 285.172 250.666 285.609 250.955C286.045 251.244 286.388 251.652 286.637 252.179C286.886 252.706 287.011 253.327 287.011 254.041C287.011 254.755 286.886 255.373 286.637 255.894C286.393 256.415 286.053 256.82 285.617 257.109C285.181 257.393 284.685 257.534 284.13 257.534C283.569 257.534 283.067 257.393 282.625 257.109C282.189 256.82 281.843 256.415 281.588 255.894C281.333 255.373 281.206 254.755 281.206 254.041C281.206 253.327 281.333 252.706 281.588 252.179C281.843 251.652 282.189 251.244 282.625 250.955C283.067 250.666 283.569 250.522 284.13 250.522ZM284.113 256.659C284.657 256.659 285.073 256.418 285.362 255.936C285.657 255.455 285.804 254.823 285.804 254.041C285.804 253.248 285.657 252.61 285.362 252.128C285.067 251.641 284.651 251.397 284.113 251.397C283.75 251.397 283.441 251.511 283.186 251.737C282.937 251.958 282.744 252.267 282.608 252.664C282.478 253.061 282.413 253.52 282.413 254.041C282.413 254.817 282.56 255.449 282.855 255.936C283.149 256.418 283.569 256.659 284.113 256.659ZM291.822 256.14C292.377 256.14 292.873 256.288 293.31 256.582C293.746 256.871 294.089 257.279 294.338 257.806C294.587 258.333 294.712 258.951 294.712 259.659C294.712 260.373 294.587 260.994 294.338 261.521C294.094 262.048 293.754 262.456 293.318 262.745C292.882 263.028 292.383 263.17 291.822 263.17C291.261 263.17 290.76 263.028 290.318 262.745C289.876 262.456 289.53 262.048 289.281 261.521C289.031 260.994 288.907 260.373 288.907 259.659C288.907 258.951 289.031 258.333 289.281 257.806C289.536 257.279 289.884 256.871 290.326 256.582C290.768 256.288 291.267 256.14 291.822 256.14ZM291.805 262.277C292.156 262.277 292.46 262.167 292.715 261.946C292.97 261.719 293.165 261.41 293.301 261.019C293.437 260.628 293.505 260.181 293.505 259.676C293.505 259.161 293.434 258.705 293.293 258.308C293.157 257.906 292.961 257.591 292.706 257.364C292.451 257.138 292.151 257.024 291.805 257.024C291.459 257.024 291.159 257.141 290.904 257.373C290.649 257.6 290.454 257.914 290.318 258.317C290.182 258.713 290.114 259.166 290.114 259.676C290.114 260.181 290.182 260.628 290.318 261.019C290.454 261.41 290.646 261.719 290.896 261.946C291.151 262.167 291.454 262.277 291.805 262.277ZM292.528 250.573L284.266 263.068L283.203 263.06L291.499 250.573H292.528ZM305.52 254.211V255.358H303.387V263H301.806V255.358H299.953V254.211H301.806V252.851C301.806 252.154 301.984 251.624 302.341 251.261C302.698 250.893 303.231 250.709 303.939 250.709H305.597L305.605 251.822H304.288C303.931 251.822 303.687 251.919 303.557 252.111C303.426 252.304 303.361 252.596 303.361 252.987V254.211H305.52ZM308.315 258.971C308.315 259.526 308.405 260.031 308.587 260.484C308.774 260.932 309.054 261.289 309.428 261.555C309.808 261.821 310.281 261.954 310.848 261.954C311.409 261.954 311.89 261.824 312.293 261.563C312.701 261.303 312.961 260.926 313.075 260.433H314.562C314.454 261.028 314.216 261.529 313.848 261.938C313.48 262.345 313.035 262.654 312.514 262.864C311.992 263.068 311.448 263.17 310.882 263.17C310.06 263.17 309.337 262.992 308.714 262.634C308.091 262.277 307.603 261.765 307.252 261.096C306.901 260.427 306.725 259.625 306.725 258.69C306.725 257.767 306.884 256.956 307.201 256.259C307.518 255.562 307.977 255.018 308.578 254.627C309.184 254.236 309.913 254.041 310.763 254.041C311.59 254.041 312.29 254.219 312.862 254.576C313.434 254.933 313.868 255.438 314.163 256.089C314.463 256.735 314.613 257.503 314.613 258.393V258.971H308.315ZM308.323 257.908H313.1C313.1 257.404 313.015 256.951 312.845 256.548C312.675 256.14 312.414 255.82 312.063 255.588C311.717 255.35 311.281 255.231 310.754 255.231C310.204 255.231 309.748 255.364 309.386 255.63C309.029 255.891 308.759 256.228 308.578 256.642C308.402 257.05 308.317 257.472 308.323 257.908ZM317.724 258.971C317.724 259.526 317.814 260.031 317.996 260.484C318.183 260.932 318.463 261.289 318.837 261.555C319.217 261.821 319.69 261.954 320.257 261.954C320.818 261.954 321.299 261.824 321.702 261.563C322.11 261.303 322.37 260.926 322.484 260.433H323.971C323.864 261.028 323.626 261.529 323.257 261.938C322.889 262.345 322.444 262.654 321.923 262.864C321.401 263.068 320.857 263.17 320.291 263.17C319.469 263.17 318.747 262.992 318.123 262.634C317.5 262.277 317.013 261.765 316.661 261.096C316.31 260.427 316.134 259.625 316.134 258.69C316.134 257.767 316.293 256.956 316.61 256.259C316.928 255.562 317.387 255.018 317.987 254.627C318.594 254.236 319.322 254.041 320.172 254.041C320.999 254.041 321.699 254.219 322.271 254.576C322.844 254.933 323.277 255.438 323.572 256.089C323.872 256.735 324.022 257.503 324.022 258.393V258.971H317.724ZM317.732 257.908H322.509C322.509 257.404 322.424 256.951 322.254 256.548C322.084 256.14 321.824 255.82 321.472 255.588C321.127 255.35 320.69 255.231 320.163 255.231C319.614 255.231 319.157 255.364 318.795 255.63C318.438 255.891 318.169 256.228 317.987 256.642C317.812 257.05 317.727 257.472 317.732 257.908ZM325.45 265.134L326.402 263.034L325.662 262.991V261.113H327.626V262.745L326.181 265.134H325.45ZM335.29 254.211V263H333.768V254.211H335.29ZM335.324 250.717V252.349H333.717V250.717H335.324ZM337.985 263V254.211H339.507V255.486C339.648 255.242 339.844 255.013 340.093 254.797C340.348 254.582 340.654 254.409 341.011 254.279C341.374 254.149 341.79 254.083 342.261 254.083C342.816 254.083 343.326 254.194 343.791 254.415C344.261 254.636 344.635 254.982 344.913 255.452C345.196 255.917 345.338 256.517 345.338 257.254V263H343.765V257.407C343.765 256.721 343.584 256.214 343.221 255.885C342.864 255.551 342.4 255.384 341.827 255.384C341.431 255.384 341.059 255.449 340.714 255.579C340.368 255.704 340.088 255.897 339.872 256.157C339.657 256.412 339.549 256.735 339.549 257.126V263H337.985ZM354.652 263.17C353.842 263.17 353.134 262.997 352.527 262.651C351.921 262.3 351.451 261.787 351.116 261.113C350.782 260.439 350.615 259.614 350.615 258.639C350.615 257.721 350.771 256.917 351.082 256.225C351.394 255.534 351.85 254.999 352.451 254.619C353.057 254.234 353.791 254.041 354.652 254.041C355.463 254.041 356.165 254.219 356.76 254.576C357.361 254.928 357.826 255.446 358.154 256.132C358.483 256.818 358.647 257.653 358.647 258.639C358.647 259.535 358.494 260.322 358.188 261.002C357.888 261.682 357.44 262.215 356.845 262.6C356.256 262.98 355.525 263.17 354.652 263.17ZM354.652 261.929C355.179 261.929 355.624 261.796 355.987 261.529C356.35 261.263 356.624 260.881 356.811 260.382C356.998 259.883 357.092 259.291 357.092 258.605C357.092 257.976 357.01 257.413 356.845 256.914C356.681 256.41 356.418 256.01 356.055 255.715C355.698 255.421 355.23 255.273 354.652 255.273C354.12 255.273 353.669 255.407 353.301 255.673C352.933 255.934 352.652 256.313 352.459 256.812C352.272 257.311 352.179 257.908 352.179 258.605C352.179 259.223 352.264 259.784 352.434 260.288C352.604 260.793 352.87 261.192 353.233 261.487C353.596 261.782 354.069 261.929 354.652 261.929ZM363.632 263.17C363.173 263.164 362.74 263.099 362.332 262.974C361.929 262.844 361.572 262.654 361.261 262.405C360.949 262.156 360.702 261.847 360.521 261.478C360.345 261.104 360.258 260.671 360.258 260.178V254.211H361.83V260.016C361.83 260.589 362.006 261.053 362.357 261.41C362.714 261.767 363.25 261.946 363.964 261.946C364.61 261.946 365.128 261.779 365.519 261.444C365.916 261.104 366.114 260.6 366.114 259.931V254.211H367.678V263H366.429L366.267 261.317C366.159 261.759 365.975 262.116 365.715 262.388C365.46 262.66 365.151 262.861 364.788 262.991C364.431 263.116 364.046 263.176 363.632 263.17ZM370.06 263V254.211H371.556V255.902C371.703 255.483 371.91 255.137 372.177 254.865C372.443 254.588 372.746 254.381 373.086 254.245C373.432 254.109 373.789 254.041 374.157 254.041C374.287 254.041 374.415 254.049 374.54 254.067C374.664 254.083 374.761 254.112 374.829 254.151V255.673C374.744 255.633 374.633 255.608 374.497 255.596C374.367 255.579 374.256 255.571 374.166 255.571C373.814 255.548 373.486 255.571 373.18 255.639C372.874 255.701 372.604 255.812 372.372 255.97C372.14 256.129 371.956 256.339 371.82 256.599C371.689 256.854 371.624 257.166 371.624 257.534V263H370.06ZM394.348 250.709L390.761 263H389.308L386.613 253.471L383.876 263H382.465L378.921 250.709H380.51L383.23 260.492L386.001 250.709H387.234L389.996 260.492L392.767 250.709H394.348ZM396.239 258.971C396.239 259.526 396.329 260.031 396.511 260.484C396.698 260.932 396.978 261.289 397.352 261.555C397.732 261.821 398.205 261.954 398.772 261.954C399.333 261.954 399.814 261.824 400.217 261.563C400.625 261.303 400.885 260.926 400.999 260.433H402.486C402.378 261.028 402.14 261.529 401.772 261.938C401.404 262.345 400.959 262.654 400.438 262.864C399.916 263.068 399.372 263.17 398.806 263.17C397.984 263.17 397.261 262.992 396.638 262.634C396.015 262.277 395.527 261.765 395.176 261.096C394.825 260.427 394.649 259.625 394.649 258.69C394.649 257.767 394.808 256.956 395.125 256.259C395.442 255.562 395.901 255.018 396.502 254.627C397.108 254.236 397.837 254.041 398.687 254.041C399.514 254.041 400.214 254.219 400.786 254.576C401.358 254.933 401.792 255.438 402.087 256.089C402.387 256.735 402.537 257.503 402.537 258.393V258.971H396.239ZM396.247 257.908H401.024C401.024 257.404 400.939 256.951 400.769 256.548C400.599 256.14 400.338 255.82 399.987 255.588C399.641 255.35 399.205 255.231 398.678 255.231C398.128 255.231 397.672 255.364 397.31 255.63C396.953 255.891 396.683 256.228 396.502 256.642C396.326 257.05 396.241 257.472 396.247 257.908ZM408.869 263.17C408.353 263.17 407.917 263.102 407.56 262.966C407.209 262.83 406.92 262.657 406.693 262.447C406.466 262.232 406.291 262.014 406.166 261.793C406.041 261.566 405.951 261.368 405.894 261.198L405.724 263H404.526V250.369H406.107V255.605C406.18 255.458 406.291 255.296 406.438 255.12C406.591 254.945 406.787 254.775 407.025 254.61C407.263 254.446 407.543 254.31 407.866 254.202C408.195 254.095 408.569 254.041 408.988 254.041C410.087 254.041 410.96 254.423 411.606 255.188C412.258 255.953 412.584 257.081 412.584 258.571C412.584 259.495 412.445 260.303 412.167 260.994C411.889 261.68 411.476 262.215 410.926 262.6C410.376 262.98 409.691 263.17 408.869 263.17ZM408.589 261.963C409.303 261.963 409.883 261.688 410.331 261.138C410.779 260.583 411.003 259.702 411.003 258.495C411.003 257.469 410.793 256.676 410.374 256.115C409.96 255.548 409.354 255.265 408.555 255.265C407.971 255.265 407.501 255.392 407.144 255.647C406.792 255.897 406.532 256.262 406.362 256.744C406.197 257.226 406.112 257.809 406.107 258.495C406.107 259.725 406.296 260.611 406.676 261.155C407.061 261.694 407.699 261.963 408.589 261.963ZM414.143 254.287C414.143 253.494 414.336 252.82 414.721 252.264C415.106 251.703 415.619 251.276 416.259 250.981C416.905 250.686 417.617 250.539 418.393 250.539C419.243 250.539 419.994 250.664 420.645 250.913C421.297 251.157 421.807 251.514 422.175 251.984C422.544 252.454 422.728 253.029 422.728 253.709C422.728 254.316 422.535 254.865 422.15 255.358C421.765 255.846 421.175 256.228 420.382 256.506C420.92 256.653 421.391 256.869 421.793 257.152C422.195 257.435 422.507 257.784 422.728 258.198C422.949 258.605 423.059 259.076 423.059 259.608C423.059 260.169 422.94 260.674 422.702 261.121C422.47 261.563 422.141 261.94 421.716 262.252C421.291 262.558 420.79 262.793 420.212 262.957C419.634 263.116 419.005 263.193 418.325 263.187C417.481 263.181 416.735 263.026 416.089 262.72C415.449 262.413 414.945 261.986 414.576 261.436C414.208 260.881 414.01 260.223 413.981 259.464H415.554C415.673 260.229 415.985 260.815 416.489 261.223C416.993 261.631 417.625 261.835 418.384 261.835C418.985 261.835 419.509 261.742 419.957 261.555C420.405 261.362 420.75 261.099 420.994 260.764C421.238 260.43 421.359 260.039 421.359 259.591C421.359 259.098 421.223 258.682 420.951 258.342C420.679 258.002 420.308 257.744 419.838 257.568C419.368 257.387 418.843 257.294 418.265 257.288L417.16 257.262V255.928L418.214 255.902C418.753 255.891 419.234 255.789 419.659 255.596C420.084 255.398 420.419 255.14 420.662 254.823C420.912 254.5 421.036 254.146 421.036 253.76C421.036 253.42 420.932 253.106 420.722 252.817C420.512 252.522 420.209 252.287 419.812 252.111C419.421 251.936 418.945 251.848 418.384 251.848C417.942 251.848 417.52 251.936 417.118 252.111C416.716 252.281 416.384 252.545 416.123 252.902C415.863 253.259 415.724 253.721 415.707 254.287H414.143ZM431.871 263.17C431.259 263.17 430.69 263.077 430.163 262.889C429.642 262.697 429.208 262.399 428.862 261.997C428.517 261.589 428.299 261.07 428.208 260.441H429.636C429.715 260.787 429.857 261.076 430.061 261.308C430.271 261.535 430.531 261.708 430.843 261.827C431.155 261.94 431.495 261.997 431.863 261.997C432.452 261.997 432.928 261.886 433.291 261.665C433.654 261.444 433.835 261.104 433.835 260.645C433.835 260.322 433.739 260.065 433.546 259.872C433.359 259.674 433.067 259.529 432.67 259.438L430.851 258.988C430.143 258.818 429.576 258.552 429.151 258.189C428.726 257.826 428.514 257.319 428.514 256.667C428.508 256.152 428.63 255.698 428.879 255.307C429.129 254.916 429.503 254.608 430.001 254.381C430.5 254.154 431.121 254.041 431.863 254.041C432.815 254.041 433.583 254.256 434.166 254.687C434.756 255.112 435.062 255.738 435.084 256.565H433.699C433.642 256.146 433.452 255.815 433.129 255.571C432.812 255.322 432.384 255.197 431.846 255.197C431.285 255.197 430.829 255.31 430.477 255.537C430.126 255.758 429.95 256.104 429.95 256.574C429.95 256.886 430.075 257.132 430.324 257.313C430.574 257.489 430.942 257.636 431.429 257.755L433.189 258.198C433.597 258.305 433.931 258.447 434.192 258.622C434.458 258.798 434.668 258.994 434.821 259.209C434.98 259.424 435.09 259.651 435.152 259.889C435.22 260.121 435.254 260.345 435.254 260.56C435.254 261.099 435.118 261.563 434.846 261.954C434.58 262.34 434.195 262.64 433.69 262.855C433.192 263.065 432.585 263.17 431.871 263.17ZM441.547 255.358H439.567V260.824C439.567 261.136 439.598 261.365 439.66 261.512C439.728 261.654 439.839 261.745 439.992 261.784C440.15 261.824 440.366 261.844 440.638 261.844H441.598V262.898C441.491 262.938 441.326 262.972 441.105 263C440.89 263.028 440.621 263.043 440.298 263.043C439.691 263.043 439.221 262.96 438.887 262.796C438.552 262.632 438.317 262.388 438.181 262.065C438.051 261.742 437.986 261.345 437.986 260.875V255.358H436.558V254.211H438.028L438.411 251.652H439.567V254.202H441.547V255.358ZM443.636 263V254.211H445.132V255.902C445.279 255.483 445.486 255.137 445.752 254.865C446.018 254.588 446.322 254.381 446.662 254.245C447.007 254.109 447.364 254.041 447.733 254.041C447.863 254.041 447.99 254.049 448.115 254.067C448.24 254.083 448.336 254.112 448.404 254.151V255.673C448.319 255.633 448.209 255.608 448.073 255.596C447.942 255.579 447.832 255.571 447.741 255.571C447.39 255.548 447.061 255.571 446.755 255.639C446.449 255.701 446.18 255.812 445.948 255.97C445.715 256.129 445.531 256.339 445.395 256.599C445.265 256.854 445.2 257.166 445.2 257.534V263H443.636ZM451.756 254.211V263H450.235V254.211H451.756ZM451.79 250.717V252.349H450.184V250.717H451.79ZM454.452 265.737V254.211H456.016L456.033 255.741C456.135 255.56 456.265 255.37 456.424 255.171C456.588 254.973 456.787 254.789 457.019 254.619C457.257 254.449 457.532 254.31 457.843 254.202C458.161 254.095 458.521 254.041 458.923 254.041C459.626 254.041 460.243 254.202 460.776 254.525C461.314 254.843 461.734 255.33 462.034 255.987C462.334 256.645 462.484 257.478 462.484 258.486C462.484 259.495 462.337 260.348 462.042 261.045C461.753 261.736 461.334 262.263 460.784 262.626C460.235 262.989 459.572 263.17 458.795 263.17C458.404 263.17 458.056 263.113 457.75 263C457.45 262.892 457.186 262.751 456.959 262.575C456.738 262.394 456.551 262.201 456.398 261.997C456.251 261.793 456.129 261.597 456.033 261.41V265.737H454.452ZM458.498 261.946C459.223 261.946 459.815 261.671 460.274 261.121C460.733 260.566 460.963 259.705 460.963 258.537C460.963 257.534 460.753 256.738 460.334 256.149C459.915 255.56 459.303 255.265 458.498 255.265C457.682 255.265 457.064 255.568 456.645 256.174C456.226 256.775 456.016 257.563 456.016 258.537C456.016 259.166 456.109 259.739 456.296 260.254C456.483 260.77 456.761 261.181 457.129 261.487C457.498 261.793 457.954 261.946 458.498 261.946ZM235.446 278.041C236.075 278.041 236.642 278.163 237.146 278.406C237.651 278.644 238.062 278.984 238.379 279.426C238.702 279.868 238.903 280.39 238.982 280.99H237.588C237.537 280.684 237.418 280.404 237.231 280.149C237.05 279.894 236.809 279.69 236.509 279.537C236.209 279.384 235.857 279.307 235.455 279.307C234.701 279.307 234.089 279.579 233.619 280.123C233.149 280.667 232.913 281.5 232.913 282.622C232.913 283.637 233.129 284.45 233.559 285.062C233.996 285.668 234.636 285.971 235.48 285.971C235.883 285.971 236.231 285.895 236.526 285.742C236.826 285.583 237.067 285.376 237.248 285.121C237.43 284.861 237.546 284.583 237.597 284.288H238.965C238.892 284.878 238.693 285.388 238.37 285.818C238.047 286.249 237.634 286.583 237.129 286.821C236.631 287.054 236.07 287.17 235.446 287.17C234.659 287.17 233.959 286.997 233.347 286.651C232.741 286.306 232.265 285.796 231.919 285.121C231.573 284.447 231.4 283.62 231.4 282.639C231.4 281.721 231.556 280.92 231.868 280.234C232.185 279.543 232.644 279.004 233.245 278.619C233.851 278.234 234.585 278.041 235.446 278.041ZM243.157 287.111C242.681 287.111 242.296 287.045 242.001 286.915C241.712 286.785 241.488 286.609 241.329 286.388C241.176 286.167 241.072 285.915 241.015 285.631C240.964 285.342 240.938 285.045 240.938 284.739V274.369H242.485V284.586C242.485 285.028 242.57 285.359 242.74 285.58C242.916 285.801 243.16 285.923 243.471 285.946L243.947 285.954V286.974C243.817 287.014 243.681 287.045 243.539 287.068C243.398 287.096 243.27 287.111 243.157 287.111ZM248.78 287.17C248.321 287.164 247.887 287.099 247.479 286.974C247.077 286.844 246.72 286.654 246.408 286.405C246.097 286.156 245.85 285.847 245.669 285.478C245.493 285.104 245.405 284.671 245.405 284.178V278.211H246.978V284.016C246.978 284.589 247.153 285.053 247.505 285.41C247.862 285.767 248.397 285.946 249.111 285.946C249.757 285.946 250.276 285.779 250.667 285.444C251.063 285.104 251.262 284.6 251.262 283.931V278.211H252.826V287H251.576L251.415 285.317C251.307 285.759 251.123 286.116 250.862 286.388C250.607 286.66 250.298 286.861 249.936 286.991C249.579 287.116 249.193 287.176 248.78 287.17ZM259.551 287.17C259.036 287.17 258.599 287.102 258.242 286.966C257.891 286.83 257.602 286.657 257.375 286.447C257.149 286.232 256.973 286.014 256.848 285.793C256.724 285.566 256.633 285.368 256.576 285.198L256.406 287H255.208V274.369H256.789V279.605C256.863 279.458 256.973 279.296 257.12 279.12C257.273 278.945 257.469 278.775 257.707 278.61C257.945 278.446 258.225 278.31 258.548 278.202C258.877 278.095 259.251 278.041 259.67 278.041C260.77 278.041 261.642 278.423 262.288 279.188C262.94 279.953 263.266 281.081 263.266 282.571C263.266 283.495 263.127 284.303 262.849 284.994C262.572 285.68 262.158 286.215 261.608 286.6C261.059 286.98 260.373 287.17 259.551 287.17ZM259.271 285.963C259.985 285.963 260.566 285.688 261.013 285.138C261.461 284.583 261.685 283.702 261.685 282.495C261.685 281.469 261.475 280.676 261.056 280.115C260.642 279.548 260.036 279.265 259.237 279.265C258.653 279.265 258.183 279.392 257.826 279.647C257.475 279.897 257.214 280.262 257.044 280.744C256.88 281.226 256.795 281.809 256.789 282.495C256.789 283.725 256.979 284.611 257.358 285.155C257.744 285.694 258.381 285.963 259.271 285.963ZM275.565 278.211L272.394 287H270.966L267.787 278.211H269.266L271.604 285.028H271.748L274.094 278.211H275.565ZM278.777 278.211V287H277.255V278.211H278.777ZM278.811 274.717V276.349H277.204V274.717H278.811ZM285.816 287.17C285.3 287.17 284.864 287.102 284.507 286.966C284.155 286.83 283.866 286.657 283.64 286.447C283.413 286.232 283.237 286.014 283.113 285.793C282.988 285.566 282.897 285.368 282.841 285.198L282.671 287H281.472V274.369H283.053V279.605C283.127 279.458 283.237 279.296 283.385 279.12C283.538 278.945 283.733 278.775 283.971 278.61C284.209 278.446 284.49 278.31 284.813 278.202C285.141 278.095 285.515 278.041 285.935 278.041C287.034 278.041 287.907 278.423 288.553 279.188C289.204 279.953 289.53 281.081 289.53 282.571C289.53 283.495 289.391 284.303 289.114 284.994C288.836 285.68 288.422 286.215 287.873 286.6C287.323 286.98 286.637 287.17 285.816 287.17ZM285.535 285.963C286.249 285.963 286.83 285.688 287.278 285.138C287.725 284.583 287.949 283.702 287.949 282.495C287.949 281.469 287.74 280.676 287.32 280.115C286.907 279.548 286.3 279.265 285.501 279.265C284.918 279.265 284.447 279.392 284.09 279.647C283.739 279.897 283.478 280.262 283.308 280.744C283.144 281.226 283.059 281.809 283.053 282.495C283.053 283.725 283.243 284.611 283.623 285.155C284.008 285.694 284.646 285.963 285.535 285.963ZM292.535 282.971C292.535 283.526 292.625 284.031 292.807 284.484C292.994 284.932 293.274 285.289 293.648 285.555C294.028 285.821 294.501 285.954 295.068 285.954C295.629 285.954 296.11 285.824 296.513 285.563C296.921 285.303 297.181 284.926 297.295 284.433H298.782C298.674 285.028 298.436 285.529 298.068 285.938C297.7 286.345 297.255 286.654 296.734 286.864C296.212 287.068 295.668 287.17 295.102 287.17C294.28 287.17 293.557 286.992 292.934 286.634C292.311 286.277 291.823 285.765 291.472 285.096C291.121 284.427 290.945 283.625 290.945 282.69C290.945 281.767 291.104 280.956 291.421 280.259C291.738 279.562 292.197 279.018 292.798 278.627C293.404 278.236 294.133 278.041 294.983 278.041C295.81 278.041 296.51 278.219 297.082 278.576C297.654 278.933 298.088 279.438 298.383 280.089C298.683 280.735 298.833 281.503 298.833 282.393V282.971H292.535ZM292.543 281.908H297.32C297.32 281.404 297.235 280.951 297.065 280.548C296.895 280.14 296.634 279.82 296.283 279.588C295.937 279.35 295.501 279.231 294.974 279.231C294.424 279.231 293.968 279.364 293.606 279.63C293.249 279.891 292.979 280.228 292.798 280.642C292.622 281.05 292.537 281.472 292.543 281.908ZM300.456 287V284.994H302.326V287H300.456Z" fill="black"/>
<path d="M190.5 92.5001C143.333 87.6667 42.7 97.3001 17.5 174.5C-14 271 19 334 76 371C121.6 400.6 246.667 394 303.5 387C360.5 388.5 480.1 378.6 502.5 327C530.5 262.5 544 202.5 502.5 152C461 101.5 414.5 92.5001 355 92.5001" stroke="black" stroke-width="10" stroke-linecap="round"/>
</svg>
