<svg width="535" height="398" viewBox="0 0 535 398" fill="none" xmlns="http://www.w3.org/2000/svg">
<rect y="91" width="535" height="296" rx="148" fill="white"/>
<path fill-rule="evenodd" clip-rule="evenodd" d="M276.654 127.846C277.229 127.271 277.969 126.888 278.766 126.727C307.996 120.81 330 94.9746 330 64C330 28.6538 301.346 0 266 0C230.654 0 202 28.6538 202 64C202 94.5526 223.409 120.105 252.043 126.474C252.811 126.644 253.521 127.021 254.077 127.577L262.672 136.172C264.234 137.734 266.766 137.734 268.328 136.172L276.654 127.846Z" fill="white"/>
<path d="M270.319 45.2978C262.767 52.0753 235.645 76.4336 242.006 84.9138C244.04 87.6266 252.666 96.4728 256.006 96.4152C265.011 96.26 289.973 78.1019 291.788 70.8423C292.773 66.9027 291.648 66.0571 288.267 63.2457C281.419 57.5508 276.886 48.9091 269.552 44.0198" stroke="black" stroke-width="10" stroke-linecap="round"/>
<path d="M274.663 43.7643C279.229 39.1985 285.844 40.5186 290.055 44.7299C296.045 50.7193 299.431 55.0575 295.11 63.7001" stroke="black" stroke-width="10" stroke-linecap="round"/>
<path d="M257 37.6453C258.903 35.5959 260.916 33.9617 263.404 32.6613C264.655 32.0072 266.267 31 267.735 31" stroke="black" stroke-width="10" stroke-linecap="round"/>
<path d="M290 92.69C294.225 90.7507 297.067 88.1225 300.223 84" stroke="black" stroke-width="10" stroke-linecap="round"/>
<path d="M252.5 126.5C256.961 126.996 259.52 138.111 265.69 138.765C272.213 139.457 270.5 125.778 292.5 121.5C319.343 116.281 332.355 96.9237 333.5 66C334.746 32.3602 315.6 5 276 5C241.663 5 214.203 20.685 207 55.5C201 84.5 218.127 114.657 237.5 119.5" stroke="black" stroke-width="10" stroke-linecap="round"/>
<path d="M184.92 169.824C185.912 169.664 186.68 169.584 187.224 169.584C187.672 169.584 188.28 169.744 189.048 170.064C190.2 170.544 191.096 171.168 191.736 171.936C192.408 172.672 192.744 173.44 192.744 174.24C192.744 175.008 192.44 175.696 191.832 176.304C191.32 176.816 190.696 177.072 189.96 177.072C189.128 177.072 188.264 176.736 187.368 176.064C186.792 175.648 186.248 175.44 185.736 175.44C184.904 175.44 183.704 176.064 182.136 177.312C181.144 178.112 180.44 178.864 180.024 179.568C179.608 180.272 179.4 181.104 179.4 182.064C179.4 182.544 179.448 183.072 179.544 183.648C179.928 186.112 181.064 187.344 182.952 187.344C183.624 187.344 184.456 187.168 185.448 186.816C186.28 186.496 186.872 186.336 187.224 186.336C187.512 186.336 187.88 186.464 188.328 186.72C188.936 187.04 189.368 187.552 189.624 188.256C189.752 188.544 189.816 188.88 189.816 189.264C189.816 190.288 189.256 191.12 188.136 191.76C187.048 192.4 185.528 192.752 183.576 192.816C183.48 192.816 183.336 192.832 183.144 192.864C182.952 192.864 182.808 192.864 182.712 192.864C180.952 192.864 179.448 192.496 178.2 191.76C176.984 190.992 175.896 189.792 174.936 188.16C174.488 187.392 174.2 186.72 174.072 186.144C173.976 185.568 173.928 184.4 173.928 182.64C173.928 181.008 173.976 179.872 174.072 179.232C174.2 178.592 174.44 177.904 174.792 177.168C175.368 176.08 175.96 175.2 176.568 174.528C177.176 173.824 178.056 173.056 179.208 172.224C180.296 171.424 181.208 170.88 181.944 170.592C182.68 170.272 183.672 170.016 184.92 169.824ZM198.742 169.44C199.126 169.024 199.718 168.816 200.518 168.816C201.478 168.816 202.23 169.088 202.774 169.632C203.35 170.24 203.75 170.928 203.974 171.696C204.198 172.432 204.31 173.568 204.31 175.104C204.31 176.096 204.166 178.816 203.878 183.264C203.75 185.184 203.686 186.832 203.686 188.208C203.686 189.168 203.734 189.696 203.83 189.792C203.926 189.888 204.182 189.936 204.598 189.936C205.206 189.936 206.374 189.808 208.102 189.552C209.926 189.264 211.078 189.12 211.558 189.12C212.07 189.12 212.55 189.264 212.998 189.552C213.798 190.064 214.198 190.768 214.198 191.664C214.198 192.944 213.542 193.856 212.23 194.4C211.43 194.72 209.686 195.088 206.998 195.504C205.302 195.76 204.022 195.888 203.158 195.888C201.302 195.888 199.91 195.28 198.982 194.064C198.534 193.456 198.262 192.848 198.166 192.24C198.102 191.632 198.07 190.048 198.07 187.488C198.07 184.192 198.198 181.136 198.454 178.32C198.614 176.784 198.694 175.76 198.694 175.248C198.694 174.544 198.566 173.776 198.31 172.944C198.086 172.304 197.974 171.744 197.974 171.264C197.974 170.688 198.23 170.08 198.742 169.44ZM220.98 172.944C221.588 172.688 222.116 172.56 222.564 172.56C223.172 172.56 223.732 172.768 224.244 173.184C224.66 173.504 224.916 173.968 225.012 174.576C225.108 175.184 225.22 176.784 225.348 179.376C225.476 182.352 225.716 184.56 226.068 186C226.452 187.408 227.028 188.416 227.796 189.024C228.404 189.472 228.852 189.696 229.14 189.696C229.492 189.696 230.036 189.376 230.772 188.736C231.796 187.776 232.852 185.984 233.94 183.36C235.06 180.704 235.62 178.64 235.62 177.168C235.62 176.592 235.892 175.936 236.436 175.2C237.012 174.528 237.7 174.192 238.5 174.192C239.332 174.192 240.052 174.544 240.66 175.248C241.172 175.792 241.428 176.384 241.428 177.024C241.428 177.184 241.396 177.616 241.332 178.32C240.948 181.424 239.828 184.768 237.972 188.352C236.948 190.432 235.588 192.176 233.892 193.584C232.228 194.992 230.66 195.696 229.188 195.696C227.844 195.696 226.42 195.136 224.916 194.016C223.412 192.896 222.276 191.568 221.508 190.032C220.836 188.656 220.372 187.344 220.116 186.096C219.892 184.816 219.7 182.832 219.54 180.144C219.476 178.672 219.444 177.744 219.444 177.36C219.444 175.952 219.556 174.944 219.78 174.336C220.004 173.696 220.404 173.232 220.98 172.944ZM258.391 183.072C257.687 182.688 256.679 182.496 255.367 182.496C254.919 182.496 254.583 182.512 254.359 182.544L253.159 182.688V189.696L254.311 189.456C255.175 189.296 256.247 188.832 257.527 188.064C258.839 187.264 259.607 186.608 259.831 186.096C259.927 185.904 259.975 185.696 259.975 185.472C259.975 185.024 259.815 184.576 259.495 184.128C259.207 183.648 258.839 183.296 258.391 183.072ZM254.647 172.368C254.647 172.144 254.503 172.032 254.215 172.032C253.863 172.032 253.543 172.176 253.255 172.464C252.967 172.752 252.823 173.28 252.823 174.048C252.823 174.656 252.935 174.96 253.159 174.96C253.351 174.96 253.639 174.608 254.023 173.904C254.439 173.2 254.647 172.688 254.647 172.368ZM251.143 167.04C251.815 166.72 252.823 166.56 254.167 166.56C255.543 166.56 256.615 166.72 257.383 167.04C258.087 167.328 258.711 167.872 259.255 168.672C259.831 169.44 260.199 170.304 260.359 171.264C260.391 171.392 260.407 171.584 260.407 171.84C260.407 172.16 260.199 172.88 259.783 174C259.367 175.12 259.159 176.016 259.159 176.688C259.159 177.008 259.687 177.44 260.743 177.984C262.855 179.104 264.279 180.56 265.015 182.352C265.399 183.28 265.591 184.272 265.591 185.328C265.591 187.504 264.951 189.264 263.671 190.608C262.551 191.792 260.807 192.896 258.439 193.92C256.071 194.944 254.071 195.456 252.439 195.456C251.319 195.456 250.423 195.2 249.751 194.688C249.111 194.144 248.791 193.424 248.791 192.528C248.791 191.76 248.567 191.072 248.119 190.464C247.863 190.08 247.687 189.392 247.591 188.4C247.495 187.408 247.383 185.36 247.255 182.256C247.095 177.488 246.919 174.656 246.727 173.76C246.663 173.184 246.631 172.736 246.631 172.416C246.631 172.16 246.663 171.872 246.727 171.552C246.855 171.04 247.447 170.24 248.503 169.152C249.559 168.064 250.439 167.36 251.143 167.04ZM294.485 183.072C293.781 182.688 292.773 182.496 291.461 182.496C291.013 182.496 290.677 182.512 290.453 182.544L289.253 182.688V189.696L290.405 189.456C291.269 189.296 292.341 188.832 293.621 188.064C294.933 187.264 295.701 186.608 295.925 186.096C296.021 185.904 296.069 185.696 296.069 185.472C296.069 185.024 295.909 184.576 295.589 184.128C295.301 183.648 294.933 183.296 294.485 183.072ZM290.741 172.368C290.741 172.144 290.597 172.032 290.309 172.032C289.957 172.032 289.637 172.176 289.349 172.464C289.061 172.752 288.917 173.28 288.917 174.048C288.917 174.656 289.029 174.96 289.253 174.96C289.445 174.96 289.733 174.608 290.117 173.904C290.533 173.2 290.741 172.688 290.741 172.368ZM287.237 167.04C287.909 166.72 288.917 166.56 290.261 166.56C291.637 166.56 292.709 166.72 293.477 167.04C294.181 167.328 294.805 167.872 295.349 168.672C295.925 169.44 296.293 170.304 296.453 171.264C296.485 171.392 296.501 171.584 296.501 171.84C296.501 172.16 296.293 172.88 295.877 174C295.461 175.12 295.253 176.016 295.253 176.688C295.253 177.008 295.781 177.44 296.837 177.984C298.949 179.104 300.373 180.56 301.109 182.352C301.493 183.28 301.685 184.272 301.685 185.328C301.685 187.504 301.045 189.264 299.765 190.608C298.645 191.792 296.901 192.896 294.533 193.92C292.165 194.944 290.165 195.456 288.533 195.456C287.413 195.456 286.517 195.2 285.845 194.688C285.205 194.144 284.885 193.424 284.885 192.528C284.885 191.76 284.661 191.072 284.213 190.464C283.957 190.08 283.781 189.392 283.685 188.4C283.589 187.408 283.477 185.36 283.349 182.256C283.189 177.488 283.013 174.656 282.821 173.76C282.757 173.184 282.725 172.736 282.725 172.416C282.725 172.16 282.757 171.872 282.821 171.552C282.949 171.04 283.541 170.24 284.597 169.152C285.653 168.064 286.533 167.36 287.237 167.04ZM321.171 180.432C320.371 180.016 319.555 179.808 318.723 179.808C317.699 179.808 316.867 180.144 316.227 180.816C313.667 183.632 312.387 186.16 312.387 188.4C312.387 189.872 312.947 191.2 314.067 192.384C314.643 192.992 315.107 193.392 315.459 193.584C315.811 193.744 316.323 193.824 316.995 193.824C318.787 193.824 321.155 192.672 324.099 190.368C325.027 189.632 325.667 189.008 326.019 188.496C326.371 187.952 326.547 187.344 326.547 186.672C326.547 186.224 326.515 185.856 326.451 185.568C326.323 184.896 325.699 184.032 324.579 182.976C323.491 181.888 322.355 181.04 321.171 180.432ZM315.171 174.336C315.907 173.952 316.803 173.76 317.859 173.76C319.587 173.76 321.331 174.192 323.091 175.056C324.467 175.728 325.923 176.688 327.459 177.936C328.995 179.152 330.099 180.24 330.771 181.2C331.731 182.576 332.211 184.32 332.211 186.432C332.211 188.544 331.699 190.336 330.675 191.808C329.971 192.768 328.755 193.904 327.027 195.216C325.299 196.528 323.587 197.616 321.891 198.48C320.259 199.312 319.011 199.728 318.147 199.728C317.987 199.728 317.555 199.696 316.851 199.632C313.715 199.408 311.059 197.872 308.883 195.024C307.507 193.232 306.819 191.552 306.819 189.984C306.819 188.896 307.027 187.504 307.443 185.808C308.019 183.408 308.595 181.728 309.171 180.768C309.779 179.712 310.739 178.48 312.051 177.072C313.363 175.664 314.403 174.752 315.171 174.336ZM340.07 168.432C340.71 168.432 341.846 168.336 343.478 168.144C345.142 167.952 346.902 167.728 348.758 167.472C350.646 167.184 351.798 167.024 352.214 166.992C353.526 166.8 355.094 166.672 356.918 166.608H357.494C358.678 166.608 359.558 166.912 360.134 167.52C360.742 168.096 361.046 168.784 361.046 169.584C361.046 170.224 360.838 170.8 360.422 171.312C360.006 171.824 359.446 172.144 358.742 172.272C358.582 172.304 357.83 172.368 356.486 172.464C355.174 172.528 353.91 172.624 352.694 172.752C351.478 172.88 350.806 173.008 350.678 173.136C350.422 173.392 350.438 173.84 350.726 174.48C350.918 175.056 351.046 177.376 351.11 181.44C351.11 185.504 351.414 189.04 352.022 192.048C352.086 192.272 352.118 192.56 352.118 192.912C352.118 193.36 351.862 193.84 351.35 194.352C350.646 194.992 349.942 195.312 349.238 195.312C348.47 195.312 347.734 194.96 347.03 194.256C346.582 193.808 346.278 193.344 346.118 192.864C345.99 192.384 345.862 191.472 345.734 190.128C345.574 188.528 345.494 186.304 345.494 183.456V182.4V181.392C345.494 178.768 345.382 176.928 345.158 175.872L344.726 173.952H341.99C340.774 173.952 339.958 173.904 339.542 173.808C339.158 173.712 338.774 173.456 338.39 173.04C337.782 172.496 337.478 171.904 337.478 171.264C337.478 170.592 337.75 169.952 338.294 169.344C338.87 168.736 339.462 168.432 340.07 168.432Z" fill="black"/>
<path d="M85.4133 239V226.709H89.3658C90.8618 226.709 91.9923 226.984 92.7573 227.533C93.528 228.083 93.9133 228.876 93.9133 229.913C93.9133 230.565 93.7433 231.123 93.4033 231.588C93.069 232.053 92.4796 232.435 91.6353 232.735C92.117 232.837 92.5221 232.985 92.8508 233.177C93.1851 233.37 93.4515 233.597 93.6498 233.857C93.8538 234.112 93.9983 234.396 94.0833 234.708C94.174 235.019 94.2193 235.348 94.2193 235.693C94.2193 236.804 93.8226 237.634 93.0293 238.184C92.2416 238.728 91.063 239 89.4933 239H85.4133ZM86.9858 237.691H89.4763C90.502 237.691 91.2811 237.524 91.8138 237.189C92.3521 236.849 92.6213 236.328 92.6213 235.625C92.6213 235.11 92.4881 234.693 92.2218 234.376C91.9611 234.053 91.607 233.818 91.1593 233.67C90.7116 233.523 90.213 233.449 89.6633 233.449H86.9858V237.691ZM86.9858 232.115H89.6633C89.9863 232.115 90.3065 232.084 90.6238 232.021C90.9411 231.959 91.233 231.851 91.4993 231.698C91.7656 231.545 91.981 231.341 92.1453 231.086C92.3096 230.826 92.3918 230.5 92.3918 230.109C92.3918 229.395 92.117 228.868 91.5673 228.528C91.0233 228.182 90.315 228.009 89.4423 228.009H86.9858V232.115ZM95.6476 239L100.093 226.709H101.87L106.315 239H104.709L103.502 235.634H98.4781L97.2456 239H95.6476ZM98.8776 234.189H103.085L100.994 228.264L98.8776 234.189ZM112.389 239.17C111.811 239.17 111.25 239.099 110.706 238.957C110.162 238.81 109.669 238.592 109.227 238.303C108.785 238.014 108.417 237.657 108.122 237.232C107.833 236.801 107.652 236.303 107.578 235.736H109.227C109.329 236.201 109.531 236.592 109.831 236.909C110.137 237.226 110.508 237.464 110.944 237.623C111.386 237.782 111.865 237.861 112.381 237.861C112.959 237.861 113.475 237.782 113.928 237.623C114.387 237.459 114.747 237.226 115.007 236.926C115.274 236.626 115.407 236.266 115.407 235.846C115.407 235.478 115.322 235.158 115.152 234.886C114.988 234.614 114.747 234.387 114.429 234.206C114.112 234.025 113.727 233.883 113.273 233.781L110.859 233.22C109.953 233.022 109.242 232.667 108.726 232.157C108.216 231.647 107.955 230.973 107.944 230.134C107.944 229.426 108.131 228.803 108.505 228.264C108.885 227.726 109.403 227.307 110.06 227.006C110.723 226.706 111.48 226.556 112.33 226.556C113.31 226.556 114.135 226.723 114.803 227.057C115.472 227.392 115.976 227.831 116.316 228.375C116.656 228.919 116.829 229.5 116.835 230.117H115.211C115.16 229.562 114.996 229.123 114.718 228.8C114.446 228.471 114.104 228.239 113.69 228.103C113.276 227.961 112.826 227.89 112.338 227.89C111.987 227.89 111.647 227.936 111.318 228.026C110.995 228.111 110.704 228.242 110.443 228.417C110.188 228.593 109.984 228.811 109.831 229.072C109.678 229.333 109.601 229.636 109.601 229.981C109.601 230.423 109.752 230.783 110.052 231.061C110.358 231.339 110.91 231.577 111.709 231.775L114.047 232.336C114.659 232.466 115.158 232.659 115.543 232.914C115.934 233.169 116.234 233.458 116.444 233.781C116.659 234.104 116.807 234.441 116.886 234.792C116.971 235.144 117.013 235.489 117.013 235.829C117.013 236.447 116.829 237.011 116.461 237.521C116.093 238.025 115.563 238.428 114.871 238.728C114.186 239.023 113.358 239.17 112.389 239.17ZM119.451 239V226.709H127.203L127.195 228.094H121.032V232.106H126.583V233.483H121.024V237.58L127.365 237.597V239H119.451ZM137.711 239.17C136.413 239.17 135.336 238.892 134.481 238.337C133.631 237.776 133.123 236.949 132.959 235.855L134.608 235.753C134.789 236.444 135.152 236.963 135.696 237.308C136.24 237.654 136.909 237.827 137.702 237.827C138.178 237.827 138.623 237.745 139.037 237.58C139.456 237.416 139.793 237.187 140.048 236.892C140.309 236.597 140.439 236.249 140.439 235.846C140.439 235.308 140.278 234.877 139.955 234.554C139.637 234.231 139.13 233.976 138.433 233.789L136.317 233.237C135.404 233.005 134.682 232.639 134.149 232.14C133.616 231.642 133.347 230.973 133.342 230.134C133.336 229.426 133.52 228.803 133.894 228.264C134.274 227.726 134.795 227.307 135.458 227.006C136.127 226.706 136.897 226.556 137.77 226.556C138.609 226.556 139.331 226.717 139.938 227.04C140.55 227.358 141.023 227.78 141.357 228.307C141.697 228.834 141.878 229.409 141.901 230.032L140.303 230.117C140.178 229.386 139.909 228.834 139.496 228.46C139.088 228.08 138.512 227.89 137.77 227.89C137.419 227.89 137.079 227.936 136.75 228.026C136.427 228.111 136.135 228.242 135.875 228.417C135.62 228.593 135.416 228.811 135.263 229.072C135.11 229.333 135.033 229.636 135.033 229.981C135.033 230.423 135.189 230.775 135.501 231.035C135.812 231.29 136.373 231.543 137.184 231.792L139.224 232.37C140.266 232.659 141.009 233.109 141.451 233.721C141.898 234.328 142.122 235.03 142.122 235.829C142.122 236.481 141.938 237.059 141.57 237.563C141.201 238.062 140.683 238.456 140.014 238.745C139.351 239.028 138.583 239.17 137.711 239.17ZM137.048 224.873H138.501V227.066H137.048V224.873ZM136.946 238.583H138.399V240.777H136.946V238.583ZM149.113 226.539C149.98 226.539 150.747 226.72 151.416 227.083C152.085 227.44 152.623 227.919 153.031 228.519C153.439 229.12 153.68 229.78 153.754 230.5H152.079C151.988 230.018 151.816 229.582 151.561 229.191C151.306 228.8 150.971 228.488 150.558 228.256C150.144 228.024 149.648 227.907 149.07 227.907C148.328 227.907 147.699 228.083 147.183 228.434C146.673 228.78 146.285 229.316 146.019 230.041C145.758 230.766 145.628 231.696 145.628 232.829C145.628 234.54 145.919 235.798 146.503 236.603C147.092 237.402 147.948 237.801 149.07 237.801C149.648 237.801 150.144 237.68 150.558 237.436C150.971 237.192 151.306 236.866 151.561 236.458C151.816 236.05 151.988 235.608 152.079 235.132H153.754C153.691 235.654 153.55 236.158 153.329 236.645C153.113 237.127 152.816 237.558 152.436 237.938C152.056 238.317 151.589 238.617 151.034 238.838C150.484 239.06 149.844 239.17 149.113 239.17C148.008 239.17 147.064 238.918 146.282 238.413C145.506 237.909 144.911 237.184 144.497 236.237C144.089 235.291 143.885 234.149 143.885 232.812C143.885 231.48 144.089 230.347 144.497 229.412C144.905 228.477 145.497 227.766 146.274 227.278C147.056 226.785 148.002 226.539 149.113 226.539ZM156.133 226.709H157.74V237.589H163.545V239H156.125L156.133 226.709ZM174.352 234.75C174.352 235.696 174.196 236.498 173.885 237.155C173.573 237.813 173.086 238.314 172.423 238.66C171.765 239 170.91 239.17 169.856 239.17C168.79 239.17 167.926 238.994 167.263 238.643C166.606 238.292 166.124 237.776 165.818 237.096C165.518 236.416 165.368 235.58 165.368 234.588V226.709H167V234.826C167 235.818 167.246 236.56 167.739 237.053C168.232 237.546 168.938 237.793 169.856 237.793C170.473 237.793 170.998 237.685 171.428 237.47C171.865 237.255 172.196 236.929 172.423 236.492C172.655 236.05 172.771 235.495 172.771 234.826V226.709H174.352V234.75ZM177.101 239V226.709H181.054C182.55 226.709 183.68 226.984 184.445 227.533C185.216 228.083 185.601 228.876 185.601 229.913C185.601 230.565 185.431 231.123 185.091 231.588C184.757 232.053 184.167 232.435 183.323 232.735C183.805 232.837 184.21 232.985 184.539 233.177C184.873 233.37 185.139 233.597 185.338 233.857C185.542 234.112 185.686 234.396 185.771 234.708C185.862 235.019 185.907 235.348 185.907 235.693C185.907 236.804 185.51 237.634 184.717 238.184C183.929 238.728 182.751 239 181.181 239H177.101ZM178.674 237.691H181.164C182.19 237.691 182.969 237.524 183.502 237.189C184.04 236.849 184.309 236.328 184.309 235.625C184.309 235.11 184.176 234.693 183.91 234.376C183.649 234.053 183.295 233.818 182.847 233.67C182.399 233.523 181.901 233.449 181.351 233.449H178.674V237.691ZM178.674 232.115H181.351C181.674 232.115 181.994 232.084 182.312 232.021C182.629 231.959 182.921 231.851 183.187 231.698C183.453 231.545 183.669 231.341 183.833 231.086C183.997 230.826 184.08 230.5 184.08 230.109C184.08 229.395 183.805 228.868 183.255 228.528C182.711 228.182 182.003 228.009 181.13 228.009H178.674V232.115ZM196.105 239.17C195.589 239.17 195.153 239.102 194.796 238.966C194.444 238.83 194.155 238.657 193.929 238.447C193.702 238.232 193.526 238.014 193.402 237.793C193.277 237.566 193.186 237.368 193.13 237.198L192.96 239H191.761V226.369H193.342V231.605C193.416 231.458 193.526 231.296 193.674 231.12C193.827 230.945 194.022 230.775 194.26 230.61C194.498 230.446 194.779 230.31 195.102 230.202C195.43 230.095 195.804 230.041 196.224 230.041C197.323 230.041 198.196 230.423 198.842 231.188C199.493 231.953 199.819 233.081 199.819 234.571C199.819 235.495 199.68 236.303 199.403 236.994C199.125 237.68 198.711 238.215 198.162 238.6C197.612 238.98 196.926 239.17 196.105 239.17ZM195.824 237.963C196.538 237.963 197.119 237.688 197.567 237.138C198.014 236.583 198.238 235.702 198.238 234.495C198.238 233.469 198.029 232.676 197.609 232.115C197.196 231.548 196.589 231.265 195.79 231.265C195.207 231.265 194.736 231.392 194.379 231.647C194.028 231.897 193.767 232.262 193.597 232.744C193.433 233.226 193.348 233.809 193.342 234.495C193.342 235.725 193.532 236.611 193.912 237.155C194.297 237.694 194.935 237.963 195.824 237.963ZM205.195 239.17C204.385 239.17 203.677 238.997 203.07 238.651C202.464 238.3 201.994 237.787 201.659 237.113C201.325 236.439 201.158 235.614 201.158 234.639C201.158 233.721 201.314 232.917 201.625 232.225C201.937 231.534 202.393 230.999 202.994 230.619C203.6 230.234 204.334 230.041 205.195 230.041C206.006 230.041 206.708 230.219 207.303 230.576C207.904 230.928 208.369 231.446 208.697 232.132C209.026 232.818 209.19 233.653 209.19 234.639C209.19 235.535 209.037 236.322 208.731 237.002C208.431 237.682 207.983 238.215 207.388 238.6C206.799 238.98 206.068 239.17 205.195 239.17ZM205.195 237.929C205.722 237.929 206.167 237.796 206.53 237.529C206.892 237.263 207.167 236.881 207.354 236.382C207.541 235.883 207.635 235.291 207.635 234.605C207.635 233.976 207.553 233.413 207.388 232.914C207.224 232.41 206.96 232.01 206.598 231.715C206.241 231.421 205.773 231.273 205.195 231.273C204.663 231.273 204.212 231.407 203.844 231.673C203.475 231.934 203.195 232.313 203.002 232.812C202.815 233.311 202.722 233.908 202.722 234.605C202.722 235.223 202.807 235.784 202.977 236.288C203.147 236.793 203.413 237.192 203.776 237.487C204.138 237.782 204.612 237.929 205.195 237.929ZM215.261 231.358H213.28V236.824C213.28 237.136 213.311 237.365 213.374 237.512C213.442 237.654 213.552 237.745 213.705 237.784C213.864 237.824 214.079 237.844 214.351 237.844H215.312V238.898C215.204 238.938 215.04 238.972 214.819 239C214.603 239.028 214.334 239.043 214.011 239.043C213.405 239.043 212.934 238.96 212.6 238.796C212.266 238.632 212.031 238.388 211.895 238.065C211.764 237.742 211.699 237.345 211.699 236.875V231.358H210.271V230.211H211.742L212.124 227.652H213.28V230.202H215.261V231.358ZM221.097 239V230.211H222.61V231.486C222.854 231.101 223.188 230.763 223.613 230.474C224.038 230.185 224.59 230.041 225.27 230.041C225.588 230.041 225.911 230.095 226.239 230.202C226.574 230.31 226.88 230.472 227.157 230.687C227.435 230.902 227.65 231.166 227.803 231.477C228.075 231.047 228.444 230.701 228.908 230.44C229.373 230.174 229.897 230.041 230.481 230.041C230.787 230.041 231.107 230.089 231.441 230.185C231.776 230.276 232.085 230.44 232.368 230.678C232.657 230.911 232.892 231.237 233.073 231.656C233.255 232.07 233.345 232.602 233.345 233.254V239H231.764V233.407C231.764 232.874 231.679 232.463 231.509 232.174C231.339 231.88 231.116 231.673 230.838 231.554C230.566 231.435 230.274 231.375 229.962 231.375C229.69 231.375 229.401 231.429 229.095 231.537C228.789 231.645 228.529 231.826 228.313 232.081C228.098 232.336 227.99 232.684 227.99 233.126V239H226.426V232.948C226.426 232.602 226.333 232.313 226.146 232.081C225.965 231.849 225.735 231.673 225.457 231.554C225.185 231.435 224.913 231.375 224.641 231.375C224.341 231.375 224.038 231.435 223.732 231.554C223.432 231.673 223.177 231.863 222.967 232.123C222.763 232.378 222.661 232.713 222.661 233.126V239H221.097ZM237.336 230.211V239H235.814V230.211H237.336ZM237.37 226.717V228.349H235.763V226.717H237.37ZM247.684 239H245.975L243.417 235.557L240.875 239H239.15L242.541 234.435L239.422 230.211H241.139L243.417 233.296L245.703 230.211H247.42L244.292 234.435L247.684 239ZM250.147 234.971C250.147 235.526 250.238 236.031 250.419 236.484C250.606 236.932 250.887 237.289 251.261 237.555C251.641 237.821 252.114 237.954 252.68 237.954C253.241 237.954 253.723 237.824 254.125 237.563C254.533 237.303 254.794 236.926 254.907 236.433H256.395C256.287 237.028 256.049 237.529 255.681 237.938C255.313 238.345 254.868 238.654 254.346 238.864C253.825 239.068 253.281 239.17 252.714 239.17C251.893 239.17 251.17 238.992 250.547 238.634C249.924 238.277 249.436 237.765 249.085 237.096C248.734 236.427 248.558 235.625 248.558 234.69C248.558 233.767 248.717 232.956 249.034 232.259C249.351 231.562 249.81 231.018 250.411 230.627C251.017 230.236 251.745 230.041 252.595 230.041C253.423 230.041 254.123 230.219 254.695 230.576C255.267 230.933 255.701 231.438 255.995 232.089C256.296 232.735 256.446 233.503 256.446 234.393V234.971H250.147ZM250.156 233.908H254.933C254.933 233.404 254.848 232.951 254.678 232.548C254.508 232.14 254.247 231.82 253.896 231.588C253.55 231.35 253.114 231.231 252.587 231.231C252.037 231.231 251.581 231.364 251.218 231.63C250.861 231.891 250.592 232.228 250.411 232.642C250.235 233.05 250.15 233.472 250.156 233.908ZM261.504 239.17C260.892 239.17 260.323 239.077 259.796 238.889C259.274 238.697 258.841 238.399 258.495 237.997C258.15 237.589 257.931 237.07 257.841 236.441H259.269C259.348 236.787 259.49 237.076 259.694 237.308C259.903 237.535 260.164 237.708 260.476 237.827C260.787 237.94 261.127 237.997 261.496 237.997C262.085 237.997 262.561 237.886 262.924 237.665C263.286 237.444 263.468 237.104 263.468 236.645C263.468 236.322 263.371 236.065 263.179 235.872C262.992 235.674 262.7 235.529 262.303 235.438L260.484 234.988C259.776 234.818 259.209 234.552 258.784 234.189C258.359 233.826 258.147 233.319 258.147 232.667C258.141 232.152 258.263 231.698 258.512 231.307C258.762 230.916 259.136 230.608 259.634 230.381C260.133 230.154 260.753 230.041 261.496 230.041C262.448 230.041 263.216 230.256 263.799 230.687C264.389 231.112 264.695 231.738 264.717 232.565H263.332C263.275 232.146 263.085 231.815 262.762 231.571C262.445 231.322 262.017 231.197 261.479 231.197C260.918 231.197 260.462 231.31 260.11 231.537C259.759 231.758 259.583 232.104 259.583 232.574C259.583 232.886 259.708 233.132 259.957 233.313C260.207 233.489 260.575 233.636 261.062 233.755L262.822 234.198C263.23 234.305 263.564 234.447 263.825 234.622C264.091 234.798 264.301 234.994 264.454 235.209C264.612 235.424 264.723 235.651 264.785 235.889C264.853 236.121 264.887 236.345 264.887 236.56C264.887 237.099 264.751 237.563 264.479 237.954C264.213 238.34 263.828 238.64 263.323 238.855C262.825 239.065 262.218 239.17 261.504 239.17ZM271.363 241.805C270.847 241.805 270.493 241.768 270.3 241.695C270.108 241.621 270.011 241.584 270.011 241.584V240.564L270.904 240.581C271.233 240.592 271.505 240.57 271.72 240.513C271.935 240.456 272.108 240.38 272.238 240.284C272.369 240.187 272.468 240.08 272.536 239.961C272.61 239.842 272.669 239.728 272.714 239.621L273.02 238.787L269.586 230.211H271.176L273.768 236.994L276.344 230.211H277.882L274.176 239.663C273.95 240.218 273.695 240.652 273.411 240.964C273.134 241.275 272.822 241.493 272.476 241.618C272.136 241.743 271.765 241.805 271.363 241.805ZM282.568 239.17C281.758 239.17 281.05 238.997 280.443 238.651C279.837 238.3 279.367 237.787 279.032 237.113C278.698 236.439 278.531 235.614 278.531 234.639C278.531 233.721 278.687 232.917 278.998 232.225C279.31 231.534 279.766 230.999 280.367 230.619C280.973 230.234 281.707 230.041 282.568 230.041C283.379 230.041 284.081 230.219 284.676 230.576C285.277 230.928 285.742 231.446 286.07 232.132C286.399 232.818 286.563 233.653 286.563 234.639C286.563 235.535 286.41 236.322 286.104 237.002C285.804 237.682 285.356 238.215 284.761 238.6C284.172 238.98 283.441 239.17 282.568 239.17ZM282.568 237.929C283.095 237.929 283.54 237.796 283.903 237.529C284.266 237.263 284.54 236.881 284.727 236.382C284.914 235.883 285.008 235.291 285.008 234.605C285.008 233.976 284.926 233.413 284.761 232.914C284.597 232.41 284.334 232.01 283.971 231.715C283.614 231.421 283.146 231.273 282.568 231.273C282.036 231.273 281.585 231.407 281.217 231.673C280.849 231.934 280.568 232.313 280.375 232.812C280.188 233.311 280.095 233.908 280.095 234.605C280.095 235.223 280.18 235.784 280.35 236.288C280.52 236.793 280.786 237.192 281.149 237.487C281.512 237.782 281.985 237.929 282.568 237.929ZM291.548 239.17C291.089 239.164 290.656 239.099 290.248 238.974C289.845 238.844 289.488 238.654 289.177 238.405C288.865 238.156 288.618 237.847 288.437 237.478C288.261 237.104 288.174 236.671 288.174 236.178V230.211H289.746V236.016C289.746 236.589 289.922 237.053 290.273 237.41C290.63 237.767 291.166 237.946 291.88 237.946C292.526 237.946 293.044 237.779 293.435 237.444C293.832 237.104 294.03 236.6 294.03 235.931V230.211H295.594V239H294.345L294.183 237.317C294.075 237.759 293.891 238.116 293.631 238.388C293.376 238.66 293.067 238.861 292.704 238.991C292.347 239.116 291.962 239.176 291.548 239.17ZM297.976 239V230.211H299.472V231.902C299.619 231.483 299.826 231.137 300.093 230.865C300.359 230.588 300.662 230.381 301.002 230.245C301.348 230.109 301.705 230.041 302.073 230.041C302.203 230.041 302.331 230.049 302.456 230.067C302.58 230.083 302.677 230.112 302.745 230.151V231.673C302.66 231.633 302.549 231.608 302.413 231.596C302.283 231.579 302.172 231.571 302.082 231.571C301.73 231.548 301.402 231.571 301.096 231.639C300.79 231.701 300.52 231.812 300.288 231.97C300.056 232.129 299.872 232.339 299.736 232.599C299.605 232.854 299.54 233.166 299.54 233.534V239H297.976ZM311.431 230.041C312.06 230.041 312.627 230.163 313.131 230.406C313.635 230.644 314.046 230.984 314.364 231.426C314.687 231.868 314.888 232.39 314.967 232.99H313.573C313.522 232.684 313.403 232.404 313.216 232.149C313.035 231.894 312.794 231.69 312.494 231.537C312.193 231.384 311.842 231.307 311.44 231.307C310.686 231.307 310.074 231.579 309.604 232.123C309.133 232.667 308.898 233.5 308.898 234.622C308.898 235.637 309.113 236.45 309.544 237.062C309.98 237.668 310.621 237.971 311.465 237.971C311.867 237.971 312.216 237.895 312.511 237.742C312.811 237.583 313.052 237.376 313.233 237.121C313.414 236.861 313.531 236.583 313.582 236.288H314.95C314.876 236.878 314.678 237.388 314.355 237.818C314.032 238.249 313.618 238.583 313.114 238.821C312.615 239.054 312.054 239.17 311.431 239.17C310.643 239.17 309.944 238.997 309.332 238.651C308.725 238.306 308.249 237.796 307.904 237.121C307.558 236.447 307.385 235.62 307.385 234.639C307.385 233.721 307.541 232.92 307.853 232.234C308.17 231.543 308.629 231.004 309.23 230.619C309.836 230.234 310.57 230.041 311.431 230.041ZM316.923 239V230.211H318.419V231.902C318.566 231.483 318.773 231.137 319.04 230.865C319.306 230.588 319.609 230.381 319.949 230.245C320.295 230.109 320.652 230.041 321.02 230.041C321.15 230.041 321.278 230.049 321.403 230.067C321.527 230.083 321.624 230.112 321.692 230.151V231.673C321.607 231.633 321.496 231.608 321.36 231.596C321.23 231.579 321.119 231.571 321.029 231.571C320.677 231.548 320.349 231.571 320.043 231.639C319.737 231.701 319.467 231.812 319.235 231.97C319.003 232.129 318.819 232.339 318.683 232.599C318.552 232.854 318.487 233.166 318.487 233.534V239H316.923ZM324.609 241.805C324.094 241.805 323.74 241.768 323.547 241.695C323.354 241.621 323.258 241.584 323.258 241.584V240.564L324.15 240.581C324.479 240.592 324.751 240.57 324.966 240.513C325.182 240.456 325.355 240.38 325.485 240.284C325.615 240.187 325.714 240.08 325.782 239.961C325.856 239.842 325.916 239.728 325.961 239.621L326.267 238.787L322.833 230.211H324.422L327.015 236.994L329.59 230.211H331.129L327.423 239.663C327.196 240.218 326.941 240.652 326.658 240.964C326.38 241.275 326.069 241.493 325.723 241.618C325.383 241.743 325.012 241.805 324.609 241.805ZM332.637 241.737V230.211H334.201L334.218 231.741C334.32 231.56 334.45 231.37 334.609 231.171C334.773 230.973 334.972 230.789 335.204 230.619C335.442 230.449 335.717 230.31 336.028 230.202C336.346 230.095 336.706 230.041 337.108 230.041C337.811 230.041 338.428 230.202 338.961 230.525C339.499 230.843 339.919 231.33 340.219 231.987C340.519 232.645 340.669 233.478 340.669 234.486C340.669 235.495 340.522 236.348 340.227 237.045C339.938 237.736 339.519 238.263 338.969 238.626C338.42 238.989 337.757 239.17 336.98 239.17C336.589 239.17 336.241 239.113 335.935 239C335.635 238.892 335.371 238.751 335.144 238.575C334.923 238.394 334.736 238.201 334.583 237.997C334.436 237.793 334.314 237.597 334.218 237.41V241.737H332.637ZM336.683 237.946C337.408 237.946 338 237.671 338.459 237.121C338.918 236.566 339.148 235.705 339.148 234.537C339.148 233.534 338.938 232.738 338.519 232.149C338.1 231.56 337.488 231.265 336.683 231.265C335.867 231.265 335.249 231.568 334.83 232.174C334.411 232.775 334.201 233.563 334.201 234.537C334.201 235.166 334.294 235.739 334.481 236.254C334.668 236.77 334.946 237.181 335.314 237.487C335.683 237.793 336.139 237.946 336.683 237.946ZM346.744 231.358H344.763V236.824C344.763 237.136 344.794 237.365 344.857 237.512C344.925 237.654 345.035 237.745 345.188 237.784C345.347 237.824 345.562 237.844 345.834 237.844H346.795V238.898C346.687 238.938 346.523 238.972 346.302 239C346.086 239.028 345.817 239.043 345.494 239.043C344.888 239.043 344.418 238.96 344.083 238.796C343.749 238.632 343.514 238.388 343.378 238.065C343.247 237.742 343.182 237.345 343.182 236.875V231.358H341.754V230.211H343.225L343.607 227.652H344.763V230.202H346.744V231.358ZM352.093 239.17C351.283 239.17 350.574 238.997 349.968 238.651C349.362 238.3 348.891 237.787 348.557 237.113C348.223 236.439 348.056 235.614 348.056 234.639C348.056 233.721 348.211 232.917 348.523 232.225C348.835 231.534 349.291 230.999 349.892 230.619C350.498 230.234 351.232 230.041 352.093 230.041C352.903 230.041 353.606 230.219 354.201 230.576C354.802 230.928 355.266 231.446 355.595 232.132C355.924 232.818 356.088 233.653 356.088 234.639C356.088 235.535 355.935 236.322 355.629 237.002C355.329 237.682 354.881 238.215 354.286 238.6C353.697 238.98 352.966 239.17 352.093 239.17ZM352.093 237.929C352.62 237.929 353.065 237.796 353.428 237.529C353.79 237.263 354.065 236.881 354.252 236.382C354.439 235.883 354.533 235.291 354.533 234.605C354.533 233.976 354.45 233.413 354.286 232.914C354.122 232.41 353.858 232.01 353.496 231.715C353.139 231.421 352.671 231.273 352.093 231.273C351.56 231.273 351.11 231.407 350.742 231.673C350.373 231.934 350.093 232.313 349.9 232.812C349.713 233.311 349.62 233.908 349.62 234.605C349.62 235.223 349.705 235.784 349.875 236.288C350.045 236.793 350.311 237.192 350.674 237.487C351.036 237.782 351.509 237.929 352.093 237.929ZM364.902 239.17C364.091 239.17 363.383 238.997 362.777 238.651C362.17 238.3 361.7 237.787 361.366 237.113C361.031 236.439 360.864 235.614 360.864 234.639C360.864 233.721 361.02 232.917 361.332 232.225C361.643 231.534 362.099 230.999 362.7 230.619C363.306 230.234 364.04 230.041 364.902 230.041C365.712 230.041 366.415 230.219 367.01 230.576C367.61 230.928 368.075 231.446 368.404 232.132C368.732 232.818 368.897 233.653 368.897 234.639C368.897 235.535 368.744 236.322 368.438 237.002C368.137 237.682 367.69 238.215 367.095 238.6C366.505 238.98 365.774 239.17 364.902 239.17ZM364.902 237.929C365.429 237.929 365.873 237.796 366.236 237.529C366.599 237.263 366.874 236.881 367.061 236.382C367.248 235.883 367.341 235.291 367.341 234.605C367.341 233.976 367.259 233.413 367.095 232.914C366.93 232.41 366.667 232.01 366.304 231.715C365.947 231.421 365.48 231.273 364.902 231.273C364.369 231.273 363.918 231.407 363.55 231.673C363.182 231.934 362.901 232.313 362.709 232.812C362.522 233.311 362.428 233.908 362.428 234.605C362.428 235.223 362.513 235.784 362.683 236.288C362.853 236.793 363.119 237.192 363.482 237.487C363.845 237.782 364.318 237.929 364.902 237.929ZM370.784 239V230.211H372.305V231.486C372.447 231.242 372.643 231.013 372.892 230.797C373.147 230.582 373.453 230.409 373.81 230.279C374.173 230.149 374.589 230.083 375.059 230.083C375.615 230.083 376.125 230.194 376.589 230.415C377.06 230.636 377.434 230.982 377.711 231.452C377.995 231.917 378.136 232.517 378.136 233.254V239H376.564V233.407C376.564 232.721 376.383 232.214 376.02 231.885C375.663 231.551 375.198 231.384 374.626 231.384C374.229 231.384 373.858 231.449 373.512 231.579C373.167 231.704 372.886 231.897 372.671 232.157C372.456 232.412 372.348 232.735 372.348 233.126V239H370.784ZM384.173 239V230.211H385.686V231.486C385.93 231.101 386.264 230.763 386.689 230.474C387.114 230.185 387.667 230.041 388.347 230.041C388.664 230.041 388.987 230.095 389.316 230.202C389.65 230.31 389.956 230.472 390.234 230.687C390.512 230.902 390.727 231.166 390.88 231.477C391.152 231.047 391.52 230.701 391.985 230.44C392.45 230.174 392.974 230.041 393.557 230.041C393.863 230.041 394.184 230.089 394.518 230.185C394.852 230.276 395.161 230.44 395.444 230.678C395.733 230.911 395.969 231.237 396.15 231.656C396.331 232.07 396.422 232.602 396.422 233.254V239H394.841V233.407C394.841 232.874 394.756 232.463 394.586 232.174C394.416 231.88 394.192 231.673 393.914 231.554C393.642 231.435 393.351 231.375 393.039 231.375C392.767 231.375 392.478 231.429 392.172 231.537C391.866 231.645 391.605 231.826 391.39 232.081C391.175 232.336 391.067 232.684 391.067 233.126V239H389.503V232.948C389.503 232.602 389.409 232.313 389.222 232.081C389.041 231.849 388.812 231.673 388.534 231.554C388.262 231.435 387.99 231.375 387.718 231.375C387.418 231.375 387.114 231.435 386.808 231.554C386.508 231.673 386.253 231.863 386.043 232.123C385.839 232.378 385.737 232.713 385.737 233.126V239H384.173ZM401.81 239.17C401.351 239.164 400.917 239.099 400.509 238.974C400.107 238.844 399.75 238.654 399.438 238.405C399.126 238.156 398.88 237.847 398.699 237.478C398.523 237.104 398.435 236.671 398.435 236.178V230.211H400.008V236.016C400.008 236.589 400.183 237.053 400.535 237.41C400.892 237.767 401.427 237.946 402.141 237.946C402.787 237.946 403.306 237.779 403.697 237.444C404.093 237.104 404.292 236.6 404.292 235.931V230.211H405.856V239H404.606L404.445 237.317C404.337 237.759 404.153 238.116 403.892 238.388C403.637 238.66 403.328 238.861 402.966 238.991C402.609 239.116 402.223 239.176 401.81 239.17ZM410.456 239.111C409.98 239.111 409.595 239.045 409.3 238.915C409.011 238.785 408.787 238.609 408.629 238.388C408.476 238.167 408.371 237.915 408.314 237.631C408.263 237.342 408.238 237.045 408.238 236.739V226.369H409.785V236.586C409.785 237.028 409.87 237.359 410.04 237.58C410.215 237.801 410.459 237.923 410.771 237.946L411.247 237.954V238.974C411.116 239.014 410.98 239.045 410.839 239.068C410.697 239.096 410.57 239.111 410.456 239.111ZM417.115 231.358H415.135V236.824C415.135 237.136 415.166 237.365 415.228 237.512C415.296 237.654 415.407 237.745 415.56 237.784C415.718 237.824 415.934 237.844 416.206 237.844H417.166V238.898C417.058 238.938 416.894 238.972 416.673 239C416.458 239.028 416.189 239.043 415.866 239.043C415.259 239.043 414.789 238.96 414.455 238.796C414.12 238.632 413.885 238.388 413.749 238.065C413.619 237.742 413.554 237.345 413.554 236.875V231.358H412.126V230.211H413.596L413.979 227.652H415.135V230.202H417.115V231.358ZM420.903 230.211V239H419.382V230.211H420.903ZM420.937 226.717V228.349H419.331V226.717H420.937ZM423.599 241.737V230.211H425.163L425.18 231.741C425.282 231.56 425.412 231.37 425.571 231.171C425.735 230.973 425.934 230.789 426.166 230.619C426.404 230.449 426.679 230.31 426.99 230.202C427.308 230.095 427.668 230.041 428.07 230.041C428.773 230.041 429.39 230.202 429.923 230.525C430.461 230.843 430.881 231.33 431.181 231.987C431.481 232.645 431.631 233.478 431.631 234.486C431.631 235.495 431.484 236.348 431.189 237.045C430.9 237.736 430.481 238.263 429.931 238.626C429.382 238.989 428.719 239.17 427.942 239.17C427.551 239.17 427.203 239.113 426.897 239C426.597 238.892 426.333 238.751 426.106 238.575C425.885 238.394 425.698 238.201 425.545 237.997C425.398 237.793 425.276 237.597 425.18 237.41V241.737H423.599ZM427.645 237.946C428.37 237.946 428.962 237.671 429.421 237.121C429.88 236.566 430.11 235.705 430.11 234.537C430.11 233.534 429.9 232.738 429.481 232.149C429.062 231.56 428.45 231.265 427.645 231.265C426.829 231.265 426.211 231.568 425.792 232.174C425.373 232.775 425.163 233.563 425.163 234.537C425.163 235.166 425.256 235.739 425.443 236.254C425.63 236.77 425.908 237.181 426.276 237.487C426.645 237.793 427.101 237.946 427.645 237.946ZM435.741 239.111C435.265 239.111 434.88 239.045 434.585 238.915C434.296 238.785 434.072 238.609 433.914 238.388C433.761 238.167 433.656 237.915 433.599 237.631C433.548 237.342 433.523 237.045 433.523 236.739V226.369H435.07V236.586C435.07 237.028 435.155 237.359 435.325 237.58C435.5 237.801 435.744 237.923 436.056 237.946L436.532 237.954V238.974C436.401 239.014 436.265 239.045 436.124 239.068C435.982 239.096 435.854 239.111 435.741 239.111ZM439.405 234.971C439.405 235.526 439.496 236.031 439.677 236.484C439.864 236.932 440.145 237.289 440.519 237.555C440.898 237.821 441.372 237.954 441.938 237.954C442.499 237.954 442.981 237.824 443.383 237.563C443.791 237.303 444.052 236.926 444.165 236.433H445.653C445.545 237.028 445.307 237.529 444.939 237.938C444.57 238.345 444.126 238.654 443.604 238.864C443.083 239.068 442.539 239.17 441.972 239.17C441.151 239.17 440.428 238.992 439.805 238.634C439.181 238.277 438.694 237.765 438.343 237.096C437.991 236.427 437.816 235.625 437.816 234.69C437.816 233.767 437.974 232.956 438.292 232.259C438.609 231.562 439.068 231.018 439.669 230.627C440.275 230.236 441.003 230.041 441.853 230.041C442.681 230.041 443.38 230.219 443.953 230.576C444.525 230.933 444.959 231.438 445.253 232.089C445.554 232.735 445.704 233.503 445.704 234.393V234.971H439.405ZM439.414 233.908H444.191C444.191 233.404 444.106 232.951 443.936 232.548C443.766 232.14 443.505 231.82 443.154 231.588C442.808 231.35 442.372 231.231 441.845 231.231C441.295 231.231 440.839 231.364 440.476 231.63C440.119 231.891 439.85 232.228 439.669 232.642C439.493 233.05 439.408 233.472 439.414 233.908ZM72.4537 263.17C71.9381 263.17 71.5017 263.102 71.1447 262.966C70.7934 262.83 70.5044 262.657 70.2777 262.447C70.0511 262.232 69.8754 262.014 69.7507 261.793C69.6261 261.566 69.5354 261.368 69.4787 261.198L69.3087 263H68.1102V250.369H69.6912V255.605C69.7649 255.458 69.8754 255.296 70.0227 255.12C70.1757 254.945 70.3712 254.775 70.6092 254.61C70.8472 254.446 71.1277 254.31 71.4507 254.202C71.7794 254.095 72.1534 254.041 72.5727 254.041C73.6721 254.041 74.5447 254.423 75.1907 255.188C75.8424 255.953 76.1682 257.081 76.1682 258.571C76.1682 259.495 76.0294 260.303 75.7517 260.994C75.4741 261.68 75.0604 262.215 74.5107 262.6C73.9611 262.98 73.2754 263.17 72.4537 263.17ZM72.1732 261.963C72.8872 261.963 73.4681 261.688 73.9157 261.138C74.3634 260.583 74.5872 259.702 74.5872 258.495C74.5872 257.469 74.3776 256.676 73.9582 256.115C73.5446 255.548 72.9382 255.265 72.1392 255.265C71.5556 255.265 71.0852 255.392 70.7282 255.647C70.3769 255.897 70.1162 256.262 69.9462 256.744C69.7819 257.226 69.6969 257.809 69.6912 258.495C69.6912 259.725 69.8811 260.611 70.2607 261.155C70.6461 261.694 71.2836 261.963 72.1732 261.963ZM80.2691 263.111C79.7931 263.111 79.4077 263.045 79.1131 262.915C78.8241 262.785 78.6002 262.609 78.4416 262.388C78.2886 262.167 78.1837 261.915 78.1271 261.631C78.0761 261.342 78.0506 261.045 78.0506 260.739V250.369H79.5976V260.586C79.5976 261.028 79.6826 261.359 79.8526 261.58C80.0282 261.801 80.2719 261.923 80.5836 261.946L81.0596 261.954V262.974C80.9292 263.014 80.7932 263.045 80.6516 263.068C80.5099 263.096 80.3824 263.111 80.2691 263.111ZM86.3047 263.17C85.4944 263.17 84.7861 262.997 84.1797 262.651C83.5734 262.3 83.1031 261.787 82.7687 261.113C82.4344 260.439 82.2672 259.614 82.2672 258.639C82.2672 257.721 82.4231 256.917 82.7347 256.225C83.0464 255.534 83.5026 254.999 84.1032 254.619C84.7096 254.234 85.4434 254.041 86.3047 254.041C87.1151 254.041 87.8177 254.219 88.4127 254.576C89.0134 254.928 89.4781 255.446 89.8067 256.132C90.1354 256.818 90.2997 257.653 90.2997 258.639C90.2997 259.535 90.1467 260.322 89.8407 261.002C89.5404 261.682 89.0927 262.215 88.4977 262.6C87.9084 262.98 87.1774 263.17 86.3047 263.17ZM86.3047 261.929C86.8317 261.929 87.2766 261.796 87.6392 261.529C88.0019 261.263 88.2767 260.881 88.4637 260.382C88.6507 259.883 88.7442 259.291 88.7442 258.605C88.7442 257.976 88.6621 257.413 88.4977 256.914C88.3334 256.41 88.0699 256.01 87.7072 255.715C87.3502 255.421 86.8827 255.273 86.3047 255.273C85.7721 255.273 85.3216 255.407 84.9532 255.673C84.5849 255.934 84.3044 256.313 84.1117 256.812C83.9247 257.311 83.8312 257.908 83.8312 258.605C83.8312 259.223 83.9162 259.784 84.0862 260.288C84.2562 260.793 84.5226 261.192 84.8852 261.487C85.2479 261.782 85.7211 261.929 86.3047 261.929ZM95.6891 254.041C96.3181 254.041 96.8848 254.163 97.3891 254.406C97.8935 254.644 98.3043 254.984 98.6216 255.426C98.9446 255.868 99.1458 256.39 99.2251 256.99H97.8311C97.7801 256.684 97.6611 256.404 97.4741 256.149C97.2928 255.894 97.052 255.69 96.7516 255.537C96.4513 255.384 96.1 255.307 95.6976 255.307C94.944 255.307 94.332 255.579 93.8616 256.123C93.3913 256.667 93.1561 257.5 93.1561 258.622C93.1561 259.637 93.3715 260.45 93.8021 261.062C94.2385 261.668 94.8788 261.971 95.7231 261.971C96.1255 261.971 96.474 261.895 96.7686 261.742C97.069 261.583 97.3098 261.376 97.4911 261.121C97.6725 260.861 97.7886 260.583 97.8396 260.288H99.2081C99.1345 260.878 98.9361 261.388 98.6131 261.818C98.2901 262.249 97.8765 262.583 97.3721 262.821C96.8735 263.054 96.3125 263.17 95.6891 263.17C94.9015 263.17 94.2016 262.997 93.5896 262.651C92.9833 262.306 92.5073 261.796 92.1616 261.121C91.816 260.447 91.6431 259.62 91.6431 258.639C91.6431 257.721 91.799 256.92 92.1106 256.234C92.428 255.543 92.887 255.004 93.4876 254.619C94.094 254.234 94.8278 254.041 95.6891 254.041ZM108.899 263H107.233L104.479 258.588L102.745 260.382V263H101.181V250.369H102.745V258.605L106.876 254.211H108.678L105.508 257.56L108.899 263ZM113.71 254.041C114.339 254.041 114.906 254.163 115.41 254.406C115.915 254.644 116.326 254.984 116.643 255.426C116.966 255.868 117.167 256.39 117.246 256.99H115.852C115.801 256.684 115.682 256.404 115.495 256.149C115.314 255.894 115.073 255.69 114.773 255.537C114.473 255.384 114.121 255.307 113.719 255.307C112.965 255.307 112.353 255.579 111.883 256.123C111.413 256.667 111.177 257.5 111.177 258.622C111.177 259.637 111.393 260.45 111.823 261.062C112.26 261.668 112.9 261.971 113.744 261.971C114.147 261.971 114.495 261.895 114.79 261.742C115.09 261.583 115.331 261.376 115.512 261.121C115.694 260.861 115.81 260.583 115.861 260.288H117.229C117.156 260.878 116.957 261.388 116.634 261.818C116.311 262.249 115.898 262.583 115.393 262.821C114.895 263.054 114.334 263.17 113.71 263.17C112.923 263.17 112.223 262.997 111.611 262.651C111.005 262.306 110.529 261.796 110.183 261.121C109.837 260.447 109.664 259.62 109.664 258.639C109.664 257.721 109.82 256.92 110.132 256.234C110.449 255.543 110.908 255.004 111.509 254.619C112.115 254.234 112.849 254.041 113.71 254.041ZM119.203 263V250.369H120.733V255.503C120.88 255.259 121.078 255.033 121.328 254.823C121.577 254.608 121.88 254.435 122.237 254.304C122.594 254.168 123.008 254.1 123.478 254.1C124.05 254.1 124.569 254.208 125.034 254.423C125.498 254.633 125.867 254.933 126.139 255.324C126.411 255.715 126.547 256.18 126.547 256.718V263H124.974V257.033C124.974 256.506 124.793 256.101 124.43 255.817C124.073 255.528 123.606 255.384 123.028 255.384C122.637 255.384 122.268 255.449 121.923 255.579C121.577 255.704 121.296 255.897 121.081 256.157C120.871 256.412 120.767 256.738 120.767 257.135V263H119.203ZM131.225 263.17C130.659 263.17 130.157 263.071 129.721 262.872C129.284 262.668 128.942 262.377 128.692 261.997C128.449 261.617 128.327 261.158 128.327 260.62C128.327 259.645 128.667 258.92 129.347 258.444C130.027 257.968 131.118 257.713 132.619 257.679L134.192 257.636V256.948C134.192 256.41 134.03 255.985 133.707 255.673C133.384 255.356 132.883 255.197 132.203 255.197C131.698 255.203 131.254 255.322 130.868 255.554C130.489 255.786 130.242 256.166 130.129 256.693H128.743C128.777 256.121 128.939 255.639 129.228 255.248C129.517 254.851 129.919 254.551 130.435 254.347C130.956 254.143 131.571 254.041 132.279 254.041C133.044 254.041 133.679 254.149 134.183 254.364C134.693 254.579 135.073 254.897 135.322 255.316C135.577 255.735 135.705 256.251 135.705 256.863V263H134.362L134.251 261.351C133.911 262.037 133.478 262.513 132.951 262.779C132.429 263.04 131.854 263.17 131.225 263.17ZM131.701 262.039C131.996 262.039 132.288 261.986 132.577 261.878C132.871 261.77 133.141 261.626 133.384 261.444C133.628 261.257 133.821 261.051 133.962 260.824C134.11 260.592 134.186 260.354 134.192 260.11V258.605L132.883 258.631C132.214 258.642 131.653 258.71 131.2 258.835C130.752 258.96 130.415 259.155 130.188 259.421C129.967 259.688 129.857 260.036 129.857 260.467C129.857 260.96 130.027 261.345 130.367 261.623C130.712 261.901 131.157 262.039 131.701 262.039ZM139.92 254.211V263H138.398V254.211H139.92ZM139.954 250.717V252.349H138.347V250.717H139.954ZM142.615 263V254.211H144.137V255.486C144.279 255.242 144.474 255.013 144.723 254.797C144.978 254.582 145.284 254.409 145.641 254.279C146.004 254.149 146.421 254.083 146.891 254.083C147.446 254.083 147.956 254.194 148.421 254.415C148.891 254.636 149.265 254.982 149.543 255.452C149.826 255.917 149.968 256.517 149.968 257.254V263H148.395V257.407C148.395 256.721 148.214 256.214 147.851 255.885C147.494 255.551 147.03 255.384 146.457 255.384C146.061 255.384 145.69 255.449 145.344 255.579C144.998 255.704 144.718 255.897 144.502 256.157C144.287 256.412 144.179 256.735 144.179 257.126V263H142.615ZM155.244 263.17C154.632 263.17 154.062 263.077 153.535 262.889C153.014 262.697 152.58 262.399 152.235 261.997C151.889 261.589 151.671 261.07 151.58 260.441H153.008C153.087 260.787 153.229 261.076 153.433 261.308C153.643 261.535 153.903 261.708 154.215 261.827C154.527 261.94 154.867 261.997 155.235 261.997C155.824 261.997 156.3 261.886 156.663 261.665C157.026 261.444 157.207 261.104 157.207 260.645C157.207 260.322 157.111 260.065 156.918 259.872C156.731 259.674 156.439 259.529 156.043 259.438L154.224 258.988C153.515 258.818 152.949 258.552 152.524 258.189C152.099 257.826 151.886 257.319 151.886 256.667C151.88 256.152 152.002 255.698 152.252 255.307C152.501 254.916 152.875 254.608 153.374 254.381C153.872 254.154 154.493 254.041 155.235 254.041C156.187 254.041 156.955 254.256 157.539 254.687C158.128 255.112 158.434 255.738 158.457 256.565H157.071C157.014 256.146 156.825 255.815 156.502 255.571C156.184 255.322 155.756 255.197 155.218 255.197C154.657 255.197 154.201 255.31 153.85 255.537C153.498 255.758 153.323 256.104 153.323 256.574C153.323 256.886 153.447 257.132 153.697 257.313C153.946 257.489 154.314 257.636 154.802 257.755L156.561 258.198C156.969 258.305 157.303 258.447 157.564 258.622C157.83 258.798 158.04 258.994 158.193 259.209C158.352 259.424 158.462 259.651 158.525 259.889C158.593 260.121 158.627 260.345 158.627 260.56C158.627 261.099 158.491 261.563 158.219 261.954C157.952 262.34 157.567 262.64 157.063 262.855C156.564 263.065 155.958 263.17 155.244 263.17ZM169.299 254.211V255.358H167.165V263H165.584V255.358H163.731V254.211H165.584V252.851C165.584 252.154 165.763 251.624 166.12 251.261C166.477 250.893 167.01 250.709 167.718 250.709H169.375L169.384 251.822H168.066C167.709 251.822 167.466 251.919 167.335 252.111C167.205 252.304 167.14 252.596 167.14 252.987V254.211H169.299ZM174.465 263.17C173.655 263.17 172.946 262.997 172.34 262.651C171.734 262.3 171.263 261.787 170.929 261.113C170.595 260.439 170.428 259.614 170.428 258.639C170.428 257.721 170.583 256.917 170.895 256.225C171.207 255.534 171.663 254.999 172.264 254.619C172.87 254.234 173.604 254.041 174.465 254.041C175.275 254.041 175.978 254.219 176.573 254.576C177.174 254.928 177.638 255.446 177.967 256.132C178.296 256.818 178.46 257.653 178.46 258.639C178.46 259.535 178.307 260.322 178.001 261.002C177.701 261.682 177.253 262.215 176.658 262.6C176.069 262.98 175.338 263.17 174.465 263.17ZM174.465 261.929C174.992 261.929 175.437 261.796 175.8 261.529C176.162 261.263 176.437 260.881 176.624 260.382C176.811 259.883 176.905 259.291 176.905 258.605C176.905 257.976 176.822 257.413 176.658 256.914C176.494 256.41 176.23 256.01 175.868 255.715C175.511 255.421 175.043 255.273 174.465 255.273C173.932 255.273 173.482 255.407 173.114 255.673C172.745 255.934 172.465 256.313 172.272 256.812C172.085 257.311 171.992 257.908 171.992 258.605C171.992 259.223 172.077 259.784 172.247 260.288C172.417 260.793 172.683 261.192 173.046 261.487C173.408 261.782 173.881 261.929 174.465 261.929ZM180.347 263V254.211H181.843V255.902C181.991 255.483 182.198 255.137 182.464 254.865C182.73 254.588 183.033 254.381 183.373 254.245C183.719 254.109 184.076 254.041 184.444 254.041C184.575 254.041 184.702 254.049 184.827 254.067C184.952 254.083 185.048 254.112 185.116 254.151V255.673C185.031 255.633 184.92 255.608 184.784 255.596C184.654 255.579 184.544 255.571 184.453 255.571C184.102 255.548 183.773 255.571 183.467 255.639C183.161 255.701 182.892 255.812 182.659 255.97C182.427 256.129 182.243 256.339 182.107 256.599C181.977 256.854 181.911 257.166 181.911 257.534V263H180.347ZM190.516 265.737V254.211H192.08L192.097 255.741C192.199 255.56 192.33 255.37 192.488 255.171C192.653 254.973 192.851 254.789 193.083 254.619C193.321 254.449 193.596 254.31 193.908 254.202C194.225 254.095 194.585 254.041 194.987 254.041C195.69 254.041 196.308 254.202 196.84 254.525C197.379 254.843 197.798 255.33 198.098 255.987C198.399 256.645 198.549 257.478 198.549 258.486C198.549 259.495 198.401 260.348 198.107 261.045C197.818 261.736 197.398 262.263 196.849 262.626C196.299 262.989 195.636 263.17 194.86 263.17C194.469 263.17 194.12 263.113 193.814 263C193.514 262.892 193.25 262.751 193.024 262.575C192.803 262.394 192.616 262.201 192.463 261.997C192.315 261.793 192.194 261.597 192.097 261.41V265.737H190.516ZM194.562 261.946C195.288 261.946 195.88 261.671 196.339 261.121C196.798 260.566 197.027 259.705 197.027 258.537C197.027 257.534 196.818 256.738 196.398 256.149C195.979 255.56 195.367 255.265 194.562 255.265C193.746 255.265 193.129 255.568 192.709 256.174C192.29 256.775 192.08 257.563 192.08 258.537C192.08 259.166 192.174 259.739 192.361 260.254C192.548 260.77 192.825 261.181 193.194 261.487C193.562 261.793 194.018 261.946 194.562 261.946ZM200.44 263V254.211H201.936V255.902C202.083 255.483 202.29 255.137 202.556 254.865C202.823 254.588 203.126 254.381 203.466 254.245C203.812 254.109 204.169 254.041 204.537 254.041C204.667 254.041 204.795 254.049 204.919 254.067C205.044 254.083 205.14 254.112 205.208 254.151V255.673C205.123 255.633 205.013 255.608 204.877 255.596C204.747 255.579 204.636 255.571 204.545 255.571C204.194 255.548 203.865 255.571 203.559 255.639C203.253 255.701 202.984 255.812 202.752 255.97C202.52 256.129 202.335 256.339 202.199 256.599C202.069 256.854 202.004 257.166 202.004 257.534V263H200.44ZM208.561 254.211V263H207.039V254.211H208.561ZM208.595 250.717V252.349H206.988V250.717H208.595ZM218.025 254.211L214.854 263H213.426L210.247 254.211H211.726L214.064 261.028H214.208L216.554 254.211H218.025ZM221.652 263.17C221.085 263.17 220.584 263.071 220.147 262.872C219.711 262.668 219.368 262.377 219.119 261.997C218.875 261.617 218.753 261.158 218.753 260.62C218.753 259.645 219.093 258.92 219.773 258.444C220.453 257.968 221.544 257.713 223.046 257.679L224.618 257.636V256.948C224.618 256.41 224.457 255.985 224.134 255.673C223.811 255.356 223.309 255.197 222.629 255.197C222.125 255.203 221.68 255.322 221.295 255.554C220.915 255.786 220.669 256.166 220.555 256.693H219.17C219.204 256.121 219.365 255.639 219.654 255.248C219.943 254.851 220.346 254.551 220.861 254.347C221.383 254.143 221.998 254.041 222.706 254.041C223.471 254.041 224.106 254.149 224.61 254.364C225.12 254.579 225.5 254.897 225.749 255.316C226.004 255.735 226.131 256.251 226.131 256.863V263H224.788L224.678 261.351C224.338 262.037 223.904 262.513 223.377 262.779C222.856 263.04 222.281 263.17 221.652 263.17ZM222.128 262.039C222.423 262.039 222.714 261.986 223.003 261.878C223.298 261.77 223.567 261.626 223.811 261.444C224.055 261.257 224.247 261.051 224.389 260.824C224.536 260.592 224.613 260.354 224.618 260.11V258.605L223.309 258.631C222.641 258.642 222.08 258.71 221.626 258.835C221.179 258.96 220.842 259.155 220.615 259.421C220.394 259.688 220.283 260.036 220.283 260.467C220.283 260.96 220.453 261.345 220.793 261.623C221.139 261.901 221.584 262.039 222.128 262.039ZM232.149 254.041C232.778 254.041 233.344 254.163 233.849 254.406C234.353 254.644 234.764 254.984 235.081 255.426C235.404 255.868 235.605 256.39 235.685 256.99H234.291C234.24 256.684 234.121 256.404 233.934 256.149C233.752 255.894 233.511 255.69 233.211 255.537C232.911 255.384 232.559 255.307 232.157 255.307C231.403 255.307 230.791 255.579 230.321 256.123C229.851 256.667 229.616 257.5 229.616 258.622C229.616 259.637 229.831 260.45 230.262 261.062C230.698 261.668 231.338 261.971 232.183 261.971C232.585 261.971 232.933 261.895 233.228 261.742C233.528 261.583 233.769 261.376 233.951 261.121C234.132 260.861 234.248 260.583 234.299 260.288H235.668C235.594 260.878 235.396 261.388 235.073 261.818C234.75 262.249 234.336 262.583 233.832 262.821C233.333 263.054 232.772 263.17 232.149 263.17C231.361 263.17 230.661 262.997 230.049 262.651C229.443 262.306 228.967 261.796 228.621 261.121C228.275 260.447 228.103 259.62 228.103 258.639C228.103 257.721 228.258 256.92 228.57 256.234C228.887 255.543 229.346 255.004 229.947 254.619C230.553 254.234 231.287 254.041 232.149 254.041ZM238.358 265.805C237.843 265.805 237.488 265.768 237.296 265.695C237.103 265.621 237.007 265.584 237.007 265.584V264.564L237.899 264.581C238.228 264.592 238.5 264.57 238.715 264.513C238.931 264.456 239.103 264.38 239.234 264.284C239.364 264.187 239.463 264.08 239.531 263.961C239.605 263.842 239.664 263.728 239.71 263.621L240.016 262.787L236.582 254.211H238.171L240.764 260.994L243.339 254.211H244.878L241.172 263.663C240.945 264.218 240.69 264.652 240.407 264.964C240.129 265.275 239.817 265.493 239.472 265.618C239.132 265.743 238.761 265.805 238.358 265.805ZM244.978 265.134L245.93 263.034L245.191 262.991V261.113H247.154V262.745L245.709 265.134H244.978ZM264.578 254.211L261.918 263H260.371L258.365 256.514L256.461 263H254.922L252.211 254.211H253.664L255.679 260.968H255.815L257.795 254.211H258.985L261.042 260.951H261.178L263.108 254.211H264.578ZM267.896 254.211V263H266.375V254.211H267.896ZM267.93 250.717V252.349H266.324V250.717H267.93ZM275.073 255.358H273.093V260.824C273.093 261.136 273.124 261.365 273.186 261.512C273.254 261.654 273.365 261.745 273.518 261.784C273.677 261.824 273.892 261.844 274.164 261.844H275.124V262.898C275.017 262.938 274.852 262.972 274.631 263C274.416 263.028 274.147 263.043 273.824 263.043C273.218 263.043 272.747 262.96 272.413 262.796C272.079 262.632 271.843 262.388 271.707 262.065C271.577 261.742 271.512 261.345 271.512 260.875V255.358H270.084V254.211H271.554L271.937 251.652H273.093V254.202H275.073V255.358ZM277.162 263V250.369H278.692V255.503C278.839 255.259 279.037 255.033 279.287 254.823C279.536 254.608 279.839 254.435 280.196 254.304C280.553 254.168 280.967 254.1 281.437 254.1C282.01 254.1 282.528 254.208 282.993 254.423C283.457 254.633 283.826 254.933 284.098 255.324C284.37 255.715 284.506 256.18 284.506 256.718V263H282.933V257.033C282.933 256.506 282.752 256.101 282.389 255.817C282.032 255.528 281.565 255.384 280.987 255.384C280.596 255.384 280.227 255.449 279.882 255.579C279.536 255.704 279.256 255.897 279.04 256.157C278.831 256.412 278.726 256.738 278.726 257.135V263H277.162ZM292.966 263.17C292.399 263.17 291.897 263.071 291.461 262.872C291.025 262.668 290.682 262.377 290.433 261.997C290.189 261.617 290.067 261.158 290.067 260.62C290.067 259.645 290.407 258.92 291.087 258.444C291.767 257.968 292.858 257.713 294.36 257.679L295.932 257.636V256.948C295.932 256.41 295.771 255.985 295.448 255.673C295.125 255.356 294.623 255.197 293.943 255.197C293.439 255.203 292.994 255.322 292.609 255.554C292.229 255.786 291.982 256.166 291.869 256.693H290.484C290.518 256.121 290.679 255.639 290.968 255.248C291.257 254.851 291.659 254.551 292.175 254.347C292.696 254.143 293.311 254.041 294.02 254.041C294.785 254.041 295.419 254.149 295.924 254.364C296.434 254.579 296.813 254.897 297.063 255.316C297.318 255.735 297.445 256.251 297.445 256.863V263H296.102L295.992 261.351C295.652 262.037 295.218 262.513 294.691 262.779C294.17 263.04 293.595 263.17 292.966 263.17ZM293.442 262.039C293.736 262.039 294.028 261.986 294.317 261.878C294.612 261.77 294.881 261.626 295.125 261.444C295.368 261.257 295.561 261.051 295.703 260.824C295.85 260.592 295.926 260.354 295.932 260.11V258.605L294.623 258.631C293.954 258.642 293.393 258.71 292.94 258.835C292.492 258.96 292.155 259.155 291.929 259.421C291.708 259.688 291.597 260.036 291.597 260.467C291.597 260.96 291.767 261.345 292.107 261.623C292.453 261.901 292.898 262.039 293.442 262.039ZM306.828 263.17C306.216 263.17 305.646 263.077 305.119 262.889C304.598 262.697 304.164 262.399 303.819 261.997C303.473 261.589 303.255 261.07 303.164 260.441H304.592C304.672 260.787 304.813 261.076 305.017 261.308C305.227 261.535 305.488 261.708 305.799 261.827C306.111 261.94 306.451 261.997 306.819 261.997C307.409 261.997 307.885 261.886 308.247 261.665C308.61 261.444 308.791 261.104 308.791 260.645C308.791 260.322 308.695 260.065 308.502 259.872C308.315 259.674 308.023 259.529 307.627 259.438L305.808 258.988C305.099 258.818 304.533 258.552 304.108 258.189C303.683 257.826 303.47 257.319 303.47 256.667C303.465 256.152 303.586 255.698 303.836 255.307C304.085 254.916 304.459 254.608 304.958 254.381C305.456 254.154 306.077 254.041 306.819 254.041C307.771 254.041 308.539 254.256 309.123 254.687C309.712 255.112 310.018 255.738 310.041 256.565H308.655C308.599 256.146 308.409 255.815 308.086 255.571C307.768 255.322 307.341 255.197 306.802 255.197C306.241 255.197 305.785 255.31 305.434 255.537C305.082 255.758 304.907 256.104 304.907 256.574C304.907 256.886 305.031 257.132 305.281 257.313C305.53 257.489 305.898 257.636 306.386 257.755L308.145 258.198C308.553 258.305 308.888 258.447 309.148 258.622C309.415 258.798 309.624 258.994 309.777 259.209C309.936 259.424 310.046 259.651 310.109 259.889C310.177 260.121 310.211 260.345 310.211 260.56C310.211 261.099 310.075 261.563 309.803 261.954C309.536 262.34 309.151 262.64 308.647 262.855C308.148 263.065 307.542 263.17 306.828 263.17ZM314.456 263.111C313.98 263.111 313.595 263.045 313.3 262.915C313.011 262.785 312.787 262.609 312.629 262.388C312.476 262.167 312.371 261.915 312.314 261.631C312.263 261.342 312.238 261.045 312.238 260.739V250.369H313.785V260.586C313.785 261.028 313.87 261.359 314.04 261.58C314.215 261.801 314.459 261.923 314.771 261.946L315.247 261.954V262.974C315.116 263.014 314.98 263.045 314.839 263.068C314.697 263.096 314.569 263.111 314.456 263.111ZM318.12 258.971C318.12 259.526 318.211 260.031 318.392 260.484C318.579 260.932 318.86 261.289 319.234 261.555C319.613 261.821 320.087 261.954 320.653 261.954C321.214 261.954 321.696 261.824 322.098 261.563C322.506 261.303 322.767 260.926 322.88 260.433H324.368C324.26 261.028 324.022 261.529 323.654 261.938C323.285 262.345 322.841 262.654 322.319 262.864C321.798 263.068 321.254 263.17 320.687 263.17C319.866 263.17 319.143 262.992 318.52 262.634C317.896 262.277 317.409 261.765 317.058 261.096C316.706 260.427 316.531 259.625 316.531 258.69C316.531 257.767 316.689 256.956 317.007 256.259C317.324 255.562 317.783 255.018 318.384 254.627C318.99 254.236 319.718 254.041 320.568 254.041C321.396 254.041 322.095 254.219 322.668 254.576C323.24 254.933 323.674 255.438 323.968 256.089C324.269 256.735 324.419 257.503 324.419 258.393V258.971H318.12ZM318.129 257.908H322.906C322.906 257.404 322.821 256.951 322.651 256.548C322.481 256.14 322.22 255.82 321.869 255.588C321.523 255.35 321.087 255.231 320.56 255.231C320.01 255.231 319.554 255.364 319.191 255.63C318.834 255.891 318.565 256.228 318.384 256.642C318.208 257.05 318.123 257.472 318.129 257.908ZM327.529 258.971C327.529 259.526 327.62 260.031 327.801 260.484C327.988 260.932 328.269 261.289 328.643 261.555C329.022 261.821 329.496 261.954 330.062 261.954C330.623 261.954 331.105 261.824 331.507 261.563C331.915 261.303 332.176 260.926 332.289 260.433H333.777C333.669 261.028 333.431 261.529 333.063 261.938C332.694 262.345 332.25 262.654 331.728 262.864C331.207 263.068 330.663 263.17 330.096 263.17C329.275 263.17 328.552 262.992 327.929 262.634C327.305 262.277 326.818 261.765 326.467 261.096C326.115 260.427 325.94 259.625 325.94 258.69C325.94 257.767 326.098 256.956 326.416 256.259C326.733 255.562 327.192 255.018 327.793 254.627C328.399 254.236 329.127 254.041 329.977 254.041C330.805 254.041 331.504 254.219 332.077 254.576C332.649 254.933 333.083 255.438 333.377 256.089C333.678 256.735 333.828 257.503 333.828 258.393V258.971H327.529ZM327.538 257.908H332.315C332.315 257.404 332.23 256.951 332.06 256.548C331.89 256.14 331.629 255.82 331.278 255.588C330.932 255.35 330.496 255.231 329.969 255.231C329.419 255.231 328.963 255.364 328.6 255.63C328.243 255.891 327.974 256.228 327.793 256.642C327.617 257.05 327.532 257.472 327.538 257.908ZM343.534 263H341.868L339.114 258.588L337.38 260.382V263H335.816V250.369H337.38V258.605L341.511 254.211H343.313L340.143 257.56L343.534 263ZM352.9 250.539C354.232 250.539 355.291 251.074 356.079 252.145C356.872 253.211 357.269 254.789 357.269 256.88C357.269 258.96 356.875 260.532 356.088 261.597C355.3 262.657 354.232 263.187 352.883 263.187C351.54 263.187 350.475 262.66 349.687 261.606C348.899 260.546 348.506 258.979 348.506 256.905C348.506 255.506 348.687 254.333 349.05 253.386C349.412 252.44 349.922 251.729 350.58 251.253C351.237 250.777 352.01 250.539 352.9 250.539ZM352.9 261.827C353.778 261.827 354.441 261.442 354.889 260.671C355.342 259.895 355.569 258.634 355.569 256.888C355.569 255.109 355.34 253.829 354.881 253.046C354.427 252.259 353.764 251.865 352.892 251.865C352.025 251.865 351.356 252.262 350.886 253.055C350.421 253.843 350.189 255.12 350.189 256.888C350.189 258.628 350.421 259.886 350.886 260.662C351.35 261.439 352.022 261.827 352.9 261.827ZM358.864 263V260.994H360.734V263H358.864ZM363.583 250.709H370.918L370.876 252.069H364.926L364.611 256.038C365.019 255.659 365.464 255.39 365.946 255.231C366.433 255.067 366.96 254.984 367.527 254.984C368.269 254.984 368.952 255.137 369.575 255.443C370.204 255.744 370.709 256.191 371.088 256.786C371.468 257.376 371.658 258.107 371.658 258.979C371.658 259.829 371.474 260.569 371.105 261.198C370.737 261.827 370.218 262.317 369.55 262.668C368.881 263.014 368.096 263.187 367.195 263.187C366.436 263.187 365.733 263.054 365.087 262.787C364.441 262.521 363.886 262.15 363.421 261.674C362.962 261.198 362.625 260.651 362.41 260.033L363.77 259.464C363.974 259.929 364.229 260.342 364.535 260.705C364.846 261.068 365.215 261.351 365.64 261.555C366.065 261.759 366.546 261.861 367.085 261.861C367.957 261.861 368.657 261.609 369.184 261.104C369.717 260.594 369.983 259.903 369.983 259.03C369.983 258.486 369.859 258.013 369.609 257.611C369.36 257.203 369.023 256.886 368.598 256.659C368.178 256.432 367.714 256.319 367.204 256.319C366.869 256.319 366.558 256.35 366.269 256.412C365.98 256.469 365.694 256.582 365.41 256.752C365.127 256.922 364.829 257.18 364.518 257.526C364.484 257.543 364.458 257.551 364.441 257.551C364.424 257.546 364.396 257.534 364.356 257.517L363.03 257.101L363.583 250.709ZM376.139 250.522C376.689 250.522 377.182 250.666 377.618 250.955C378.055 251.244 378.397 251.652 378.647 252.179C378.896 252.706 379.021 253.327 379.021 254.041C379.021 254.755 378.896 255.373 378.647 255.894C378.403 256.415 378.063 256.82 377.627 257.109C377.19 257.393 376.695 257.534 376.139 257.534C375.578 257.534 375.077 257.393 374.635 257.109C374.198 256.82 373.853 256.415 373.598 255.894C373.343 255.373 373.215 254.755 373.215 254.041C373.215 253.327 373.343 252.706 373.598 252.179C373.853 251.652 374.198 251.244 374.635 250.955C375.077 250.666 375.578 250.522 376.139 250.522ZM376.122 256.659C376.666 256.659 377.083 256.418 377.372 255.936C377.666 255.455 377.814 254.823 377.814 254.041C377.814 253.248 377.666 252.61 377.372 252.128C377.077 251.641 376.661 251.397 376.122 251.397C375.76 251.397 375.451 251.511 375.196 251.737C374.946 251.958 374.754 252.267 374.618 252.664C374.487 253.061 374.422 253.52 374.422 254.041C374.422 254.817 374.57 255.449 374.864 255.936C375.159 256.418 375.578 256.659 376.122 256.659ZM383.832 256.14C384.387 256.14 384.883 256.288 385.319 256.582C385.756 256.871 386.098 257.279 386.348 257.806C386.597 258.333 386.722 258.951 386.722 259.659C386.722 260.373 386.597 260.994 386.348 261.521C386.104 262.048 385.764 262.456 385.328 262.745C384.891 263.028 384.393 263.17 383.832 263.17C383.271 263.17 382.769 263.028 382.327 262.745C381.885 262.456 381.54 262.048 381.29 261.521C381.041 260.994 380.916 260.373 380.916 259.659C380.916 258.951 381.041 258.333 381.29 257.806C381.545 257.279 381.894 256.871 382.336 256.582C382.778 256.288 383.276 256.14 383.832 256.14ZM383.815 262.277C384.166 262.277 384.469 262.167 384.724 261.946C384.979 261.719 385.175 261.41 385.311 261.019C385.447 260.628 385.515 260.181 385.515 259.676C385.515 259.161 385.444 258.705 385.302 258.308C385.166 257.906 384.971 257.591 384.716 257.364C384.461 257.138 384.16 257.024 383.815 257.024C383.469 257.024 383.169 257.141 382.914 257.373C382.659 257.6 382.463 257.914 382.327 258.317C382.191 258.713 382.123 259.166 382.123 259.676C382.123 260.181 382.191 260.628 382.327 261.019C382.463 261.41 382.656 261.719 382.905 261.946C383.16 262.167 383.463 262.277 383.815 262.277ZM384.537 250.573L376.275 263.068L375.213 263.06L383.509 250.573H384.537ZM397.53 254.211V255.358H395.396V263H393.815V255.358H391.962V254.211H393.815V252.851C393.815 252.154 393.994 251.624 394.351 251.261C394.708 250.893 395.241 250.709 395.949 250.709H397.606L397.615 251.822H396.297C395.94 251.822 395.697 251.919 395.566 252.111C395.436 252.304 395.371 252.596 395.371 252.987V254.211H397.53ZM400.324 258.971C400.324 259.526 400.415 260.031 400.596 260.484C400.783 260.932 401.064 261.289 401.438 261.555C401.818 261.821 402.291 261.954 402.857 261.954C403.418 261.954 403.9 261.824 404.302 261.563C404.71 261.303 404.971 260.926 405.084 260.433H406.572C406.464 261.028 406.226 261.529 405.858 261.938C405.49 262.345 405.045 262.654 404.523 262.864C404.002 263.068 403.458 263.17 402.891 263.17C402.07 263.17 401.347 262.992 400.724 262.634C400.101 262.277 399.613 261.765 399.262 261.096C398.911 260.427 398.735 259.625 398.735 258.69C398.735 257.767 398.894 256.956 399.211 256.259C399.528 255.562 399.987 255.018 400.588 254.627C401.194 254.236 401.922 254.041 402.772 254.041C403.6 254.041 404.3 254.219 404.872 254.576C405.444 254.933 405.878 255.438 406.172 256.089C406.473 256.735 406.623 257.503 406.623 258.393V258.971H400.324ZM400.333 257.908H405.11C405.11 257.404 405.025 256.951 404.855 256.548C404.685 256.14 404.424 255.82 404.073 255.588C403.727 255.35 403.291 255.231 402.764 255.231C402.214 255.231 401.758 255.364 401.395 255.63C401.038 255.891 400.769 256.228 400.588 256.642C400.412 257.05 400.327 257.472 400.333 257.908ZM409.734 258.971C409.734 259.526 409.824 260.031 410.006 260.484C410.193 260.932 410.473 261.289 410.847 261.555C411.227 261.821 411.7 261.954 412.267 261.954C412.828 261.954 413.309 261.824 413.712 261.563C414.12 261.303 414.38 260.926 414.494 260.433H415.981C415.873 261.028 415.635 261.529 415.267 261.938C414.899 262.345 414.454 262.654 413.933 262.864C413.411 263.068 412.867 263.17 412.301 263.17C411.479 263.17 410.756 262.992 410.133 262.634C409.51 262.277 409.022 261.765 408.671 261.096C408.32 260.427 408.144 259.625 408.144 258.69C408.144 257.767 408.303 256.956 408.62 256.259C408.937 255.562 409.396 255.018 409.997 254.627C410.603 254.236 411.332 254.041 412.182 254.041C413.009 254.041 413.709 254.219 414.281 254.576C414.853 254.933 415.287 255.438 415.582 256.089C415.882 256.735 416.032 257.503 416.032 258.393V258.971H409.734ZM409.742 257.908H414.519C414.519 257.404 414.434 256.951 414.264 256.548C414.094 256.14 413.833 255.82 413.482 255.588C413.136 255.35 412.7 255.231 412.173 255.231C411.623 255.231 411.167 255.364 410.805 255.63C410.448 255.891 410.178 256.228 409.997 256.642C409.821 257.05 409.736 257.472 409.742 257.908ZM417.46 265.134L418.412 263.034L417.672 262.991V261.113H419.636V262.745L418.191 265.134H417.46ZM427.3 254.211V263H425.778V254.211H427.3ZM427.334 250.717V252.349H425.727V250.717H427.334ZM429.995 263V254.211H431.517V255.486C431.658 255.242 431.854 255.013 432.103 254.797C432.358 254.582 432.664 254.409 433.021 254.279C433.384 254.149 433.8 254.083 434.271 254.083C434.826 254.083 435.336 254.194 435.801 254.415C436.271 254.636 436.645 254.982 436.923 255.452C437.206 255.917 437.348 256.517 437.348 257.254V263H435.775V257.407C435.775 256.721 435.594 256.214 435.231 255.885C434.874 255.551 434.409 255.384 433.837 255.384C433.44 255.384 433.069 255.449 432.724 255.579C432.378 255.704 432.097 255.897 431.882 256.157C431.667 256.412 431.559 256.735 431.559 257.126V263H429.995ZM446.662 263.17C445.852 263.17 445.144 262.997 444.537 262.651C443.931 262.3 443.461 261.787 443.126 261.113C442.792 260.439 442.625 259.614 442.625 258.639C442.625 257.721 442.781 256.917 443.092 256.225C443.404 255.534 443.86 254.999 444.461 254.619C445.067 254.234 445.801 254.041 446.662 254.041C447.473 254.041 448.175 254.219 448.77 254.576C449.371 254.928 449.836 255.446 450.164 256.132C450.493 256.818 450.657 257.653 450.657 258.639C450.657 259.535 450.504 260.322 450.198 261.002C449.898 261.682 449.45 262.215 448.855 262.6C448.266 262.98 447.535 263.17 446.662 263.17ZM446.662 261.929C447.189 261.929 447.634 261.796 447.997 261.529C448.359 261.263 448.634 260.881 448.821 260.382C449.008 259.883 449.102 259.291 449.102 258.605C449.102 257.976 449.02 257.413 448.855 256.914C448.691 256.41 448.427 256.01 448.065 255.715C447.708 255.421 447.24 255.273 446.662 255.273C446.13 255.273 445.679 255.407 445.311 255.673C444.942 255.934 444.662 256.313 444.469 256.812C444.282 257.311 444.189 257.908 444.189 258.605C444.189 259.223 444.274 259.784 444.444 260.288C444.614 260.793 444.88 261.192 445.243 261.487C445.605 261.782 446.079 261.929 446.662 261.929ZM455.642 263.17C455.183 263.164 454.749 263.099 454.341 262.974C453.939 262.844 453.582 262.654 453.27 262.405C452.959 262.156 452.712 261.847 452.531 261.478C452.355 261.104 452.267 260.671 452.267 260.178V254.211H453.84V260.016C453.84 260.589 454.015 261.053 454.367 261.41C454.724 261.767 455.259 261.946 455.973 261.946C456.619 261.946 457.138 261.779 457.529 261.444C457.925 261.104 458.124 260.6 458.124 259.931V254.211H459.688V263H458.438L458.277 261.317C458.169 261.759 457.985 262.116 457.724 262.388C457.469 262.66 457.16 262.861 456.798 262.991C456.441 263.116 456.055 263.176 455.642 263.17ZM462.07 263V254.211H463.566V255.902C463.713 255.483 463.92 255.137 464.186 254.865C464.453 254.588 464.756 254.381 465.096 254.245C465.442 254.109 465.799 254.041 466.167 254.041C466.297 254.041 466.425 254.049 466.549 254.067C466.674 254.083 466.77 254.112 466.838 254.151V255.673C466.753 255.633 466.643 255.608 466.507 255.596C466.377 255.579 466.266 255.571 466.175 255.571C465.824 255.548 465.495 255.571 465.189 255.639C464.883 255.701 464.614 255.812 464.382 255.97C464.15 256.129 463.965 256.339 463.829 256.599C463.699 256.854 463.634 257.166 463.634 257.534V263H462.07ZM202.474 274.709L198.887 287H197.433L194.739 277.471L192.002 287H190.591L187.046 274.709H188.636L191.356 284.492L194.127 274.709H195.359L198.122 284.492L200.893 274.709H202.474ZM204.364 282.971C204.364 283.526 204.454 284.031 204.636 284.484C204.823 284.932 205.103 285.289 205.477 285.555C205.857 285.821 206.33 285.954 206.897 285.954C207.458 285.954 207.939 285.824 208.342 285.563C208.75 285.303 209.01 284.926 209.124 284.433H210.611C210.503 285.028 210.265 285.529 209.897 285.938C209.529 286.345 209.084 286.654 208.563 286.864C208.041 287.068 207.497 287.17 206.931 287.17C206.109 287.17 205.386 286.992 204.763 286.634C204.14 286.277 203.652 285.765 203.301 285.096C202.95 284.427 202.774 283.625 202.774 282.69C202.774 281.767 202.933 280.956 203.25 280.259C203.567 279.562 204.026 279.018 204.627 278.627C205.233 278.236 205.962 278.041 206.812 278.041C207.639 278.041 208.339 278.219 208.911 278.576C209.483 278.933 209.917 279.438 210.212 280.089C210.512 280.735 210.662 281.503 210.662 282.393V282.971H204.364ZM204.372 281.908H209.149C209.149 281.404 209.064 280.951 208.894 280.548C208.724 280.14 208.463 279.82 208.112 279.588C207.766 279.35 207.33 279.231 206.803 279.231C206.253 279.231 205.797 279.364 205.435 279.63C205.078 279.891 204.808 280.228 204.627 280.642C204.451 281.05 204.366 281.472 204.372 281.908ZM216.994 287.17C216.479 287.17 216.042 287.102 215.685 286.966C215.334 286.83 215.045 286.657 214.818 286.447C214.592 286.232 214.416 286.014 214.291 285.793C214.167 285.566 214.076 285.368 214.019 285.198L213.849 287H212.651V274.369H214.232V279.605C214.305 279.458 214.416 279.296 214.563 279.12C214.716 278.945 214.912 278.775 215.15 278.61C215.388 278.446 215.668 278.31 215.991 278.202C216.32 278.095 216.694 278.041 217.113 278.041C218.213 278.041 219.085 278.423 219.731 279.188C220.383 279.953 220.709 281.081 220.709 282.571C220.709 283.495 220.57 284.303 220.292 284.994C220.015 285.68 219.601 286.215 219.051 286.6C218.502 286.98 217.816 287.17 216.994 287.17ZM216.714 285.963C217.428 285.963 218.009 285.688 218.456 285.138C218.904 284.583 219.128 283.702 219.128 282.495C219.128 281.469 218.918 280.676 218.499 280.115C218.085 279.548 217.479 279.265 216.68 279.265C216.096 279.265 215.626 279.392 215.269 279.647C214.917 279.897 214.657 280.262 214.487 280.744C214.322 281.226 214.237 281.809 214.232 282.495C214.232 283.725 214.422 284.611 214.801 285.155C215.187 285.694 215.824 285.963 216.714 285.963ZM222.268 278.287C222.268 277.494 222.461 276.82 222.846 276.264C223.231 275.703 223.744 275.276 224.385 274.981C225.031 274.686 225.742 274.539 226.518 274.539C227.368 274.539 228.119 274.664 228.771 274.913C229.422 275.157 229.932 275.514 230.301 275.984C230.669 276.454 230.853 277.029 230.853 277.709C230.853 278.316 230.66 278.865 230.275 279.358C229.89 279.846 229.3 280.228 228.507 280.506C229.045 280.653 229.516 280.869 229.918 281.152C230.32 281.435 230.632 281.784 230.853 282.198C231.074 282.605 231.185 283.076 231.185 283.608C231.185 284.169 231.066 284.674 230.828 285.121C230.595 285.563 230.267 285.94 229.842 286.252C229.417 286.558 228.915 286.793 228.337 286.957C227.759 287.116 227.13 287.193 226.45 287.187C225.606 287.181 224.861 287.026 224.215 286.72C223.574 286.413 223.07 285.986 222.702 285.436C222.333 284.881 222.135 284.223 222.107 283.464H223.679C223.798 284.229 224.11 284.815 224.614 285.223C225.118 285.631 225.75 285.835 226.51 285.835C227.11 285.835 227.634 285.742 228.082 285.555C228.53 285.362 228.875 285.099 229.119 284.764C229.363 284.43 229.485 284.039 229.485 283.591C229.485 283.098 229.349 282.682 229.077 282.342C228.805 282.002 228.433 281.744 227.963 281.568C227.493 281.387 226.969 281.294 226.391 281.288L225.286 281.262V279.928L226.34 279.902C226.878 279.891 227.36 279.789 227.785 279.596C228.21 279.398 228.544 279.14 228.788 278.823C229.037 278.5 229.162 278.146 229.162 277.76C229.162 277.42 229.057 277.106 228.847 276.817C228.637 276.522 228.334 276.287 227.938 276.111C227.547 275.936 227.071 275.848 226.51 275.848C226.068 275.848 225.645 275.936 225.243 276.111C224.841 276.281 224.509 276.545 224.249 276.902C223.988 277.259 223.849 277.721 223.832 278.287H222.268ZM239.997 287.17C239.385 287.17 238.815 287.077 238.288 286.889C237.767 286.697 237.333 286.399 236.988 285.997C236.642 285.589 236.424 285.07 236.333 284.441H237.761C237.84 284.787 237.982 285.076 238.186 285.308C238.396 285.535 238.656 285.708 238.968 285.827C239.28 285.94 239.62 285.997 239.988 285.997C240.577 285.997 241.053 285.886 241.416 285.665C241.779 285.444 241.96 285.104 241.96 284.645C241.96 284.322 241.864 284.065 241.671 283.872C241.484 283.674 241.192 283.529 240.796 283.438L238.977 282.988C238.268 282.818 237.702 282.552 237.277 282.189C236.852 281.826 236.639 281.319 236.639 280.667C236.633 280.152 236.755 279.698 237.005 279.307C237.254 278.916 237.628 278.608 238.127 278.381C238.625 278.154 239.246 278.041 239.988 278.041C240.94 278.041 241.708 278.256 242.292 278.687C242.881 279.112 243.187 279.738 243.21 280.565H241.824C241.767 280.146 241.578 279.815 241.255 279.571C240.937 279.322 240.509 279.197 239.971 279.197C239.41 279.197 238.954 279.31 238.603 279.537C238.251 279.758 238.076 280.104 238.076 280.574C238.076 280.886 238.2 281.132 238.45 281.313C238.699 281.489 239.067 281.636 239.555 281.755L241.314 282.198C241.722 282.305 242.056 282.447 242.317 282.622C242.583 282.798 242.793 282.994 242.946 283.209C243.105 283.424 243.215 283.651 243.278 283.889C243.346 284.121 243.38 284.345 243.38 284.56C243.38 285.099 243.244 285.563 242.972 285.954C242.705 286.34 242.32 286.64 241.816 286.855C241.317 287.065 240.711 287.17 239.997 287.17ZM249.672 279.358H247.692V284.824C247.692 285.136 247.723 285.365 247.785 285.512C247.853 285.654 247.964 285.745 248.117 285.784C248.276 285.824 248.491 285.844 248.763 285.844H249.723V286.898C249.616 286.938 249.451 286.972 249.23 287C249.015 287.028 248.746 287.043 248.423 287.043C247.817 287.043 247.346 286.96 247.012 286.796C246.678 286.632 246.442 286.388 246.306 286.065C246.176 285.742 246.111 285.345 246.111 284.875V279.358H244.683V278.211H246.153L246.536 275.652H247.692V278.202H249.672V279.358ZM251.761 287V278.211H253.257V279.902C253.404 279.483 253.611 279.137 253.877 278.865C254.144 278.588 254.447 278.381 254.787 278.245C255.132 278.109 255.489 278.041 255.858 278.041C255.988 278.041 256.116 278.049 256.24 278.067C256.365 278.083 256.461 278.112 256.529 278.151V279.673C256.444 279.633 256.334 279.608 256.198 279.596C256.067 279.579 255.957 279.571 255.866 279.571C255.515 279.548 255.186 279.571 254.88 279.639C254.574 279.701 254.305 279.812 254.073 279.97C253.84 280.129 253.656 280.339 253.52 280.599C253.39 280.854 253.325 281.166 253.325 281.534V287H251.761ZM259.882 278.211V287H258.36V278.211H259.882ZM259.916 274.717V276.349H258.309V274.717H259.916ZM262.577 289.737V278.211H264.141L264.158 279.741C264.26 279.56 264.39 279.37 264.549 279.171C264.713 278.973 264.912 278.789 265.144 278.619C265.382 278.449 265.657 278.31 265.968 278.202C266.286 278.095 266.646 278.041 267.048 278.041C267.751 278.041 268.368 278.202 268.901 278.525C269.439 278.843 269.859 279.33 270.159 279.987C270.459 280.645 270.609 281.478 270.609 282.486C270.609 283.495 270.462 284.348 270.167 285.045C269.878 285.736 269.459 286.263 268.909 286.626C268.36 286.989 267.697 287.17 266.92 287.17C266.529 287.17 266.181 287.113 265.875 287C265.575 286.892 265.311 286.751 265.084 286.575C264.863 286.394 264.676 286.201 264.523 285.997C264.376 285.793 264.254 285.597 264.158 285.41V289.737H262.577ZM266.623 285.946C267.348 285.946 267.94 285.671 268.399 285.121C268.858 284.566 269.088 283.705 269.088 282.537C269.088 281.534 268.878 280.738 268.459 280.149C268.04 279.56 267.428 279.265 266.623 279.265C265.807 279.265 265.189 279.568 264.77 280.174C264.351 280.775 264.141 281.563 264.141 282.537C264.141 283.166 264.234 283.739 264.421 284.254C264.608 284.77 264.886 285.181 265.254 285.487C265.623 285.793 266.079 285.946 266.623 285.946ZM279.435 278.041C280.064 278.041 280.631 278.163 281.135 278.406C281.64 278.644 282.05 278.984 282.368 279.426C282.691 279.868 282.892 280.39 282.971 280.99H281.577C281.526 280.684 281.407 280.404 281.22 280.149C281.039 279.894 280.798 279.69 280.498 279.537C280.197 279.384 279.846 279.307 279.444 279.307C278.69 279.307 278.078 279.579 277.608 280.123C277.137 280.667 276.902 281.5 276.902 282.622C276.902 283.637 277.118 284.45 277.548 285.062C277.985 285.668 278.625 285.971 279.469 285.971C279.872 285.971 280.22 285.895 280.515 285.742C280.815 285.583 281.056 285.376 281.237 285.121C281.419 284.861 281.535 284.583 281.586 284.288H282.954C282.881 284.878 282.682 285.388 282.359 285.818C282.036 286.249 281.623 286.583 281.118 286.821C280.62 287.054 280.059 287.17 279.435 287.17C278.648 287.17 277.948 286.997 277.336 286.651C276.729 286.306 276.253 285.796 275.908 285.121C275.562 284.447 275.389 283.62 275.389 282.639C275.389 281.721 275.545 280.92 275.857 280.234C276.174 279.543 276.633 279.004 277.234 278.619C277.84 278.234 278.574 278.041 279.435 278.041ZM287.146 287.111C286.67 287.111 286.284 287.045 285.99 286.915C285.701 286.785 285.477 286.609 285.318 286.388C285.165 286.167 285.06 285.915 285.004 285.631C284.953 285.342 284.927 285.045 284.927 284.739V274.369H286.474V284.586C286.474 285.028 286.559 285.359 286.729 285.58C286.905 285.801 287.149 285.923 287.46 285.946L287.936 285.954V286.974C287.806 287.014 287.67 287.045 287.528 287.068C287.387 287.096 287.259 287.111 287.146 287.111ZM292.769 287.17C292.31 287.164 291.876 287.099 291.468 286.974C291.066 286.844 290.709 286.654 290.397 286.405C290.085 286.156 289.839 285.847 289.658 285.478C289.482 285.104 289.394 284.671 289.394 284.178V278.211H290.967V284.016C290.967 284.589 291.142 285.053 291.494 285.41C291.851 285.767 292.386 285.946 293.1 285.946C293.746 285.946 294.265 285.779 294.656 285.444C295.052 285.104 295.251 284.6 295.251 283.931V278.211H296.815V287H295.565L295.404 285.317C295.296 285.759 295.112 286.116 294.851 286.388C294.596 286.66 294.287 286.861 293.925 286.991C293.568 287.116 293.182 287.176 292.769 287.17ZM303.54 287.17C303.025 287.17 302.588 287.102 302.231 286.966C301.88 286.83 301.591 286.657 301.364 286.447C301.138 286.232 300.962 286.014 300.837 285.793C300.713 285.566 300.622 285.368 300.565 285.198L300.395 287H299.197V274.369H300.778V279.605C300.851 279.458 300.962 279.296 301.109 279.12C301.262 278.945 301.458 278.775 301.696 278.61C301.934 278.446 302.214 278.31 302.537 278.202C302.866 278.095 303.24 278.041 303.659 278.041C304.759 278.041 305.631 278.423 306.277 279.188C306.929 279.953 307.255 281.081 307.255 282.571C307.255 283.495 307.116 284.303 306.838 284.994C306.561 285.68 306.147 286.215 305.597 286.6C305.048 286.98 304.362 287.17 303.54 287.17ZM303.26 285.963C303.974 285.963 304.555 285.688 305.002 285.138C305.45 284.583 305.674 283.702 305.674 282.495C305.674 281.469 305.464 280.676 305.045 280.115C304.631 279.548 304.025 279.265 303.226 279.265C302.642 279.265 302.172 279.392 301.815 279.647C301.463 279.897 301.203 280.262 301.033 280.744C300.868 281.226 300.783 281.809 300.778 282.495C300.778 283.725 300.968 284.611 301.347 285.155C301.733 285.694 302.37 285.963 303.26 285.963ZM319.554 278.211L316.383 287H314.955L311.776 278.211H313.255L315.593 285.028H315.737L318.083 278.211H319.554ZM322.766 278.211V287H321.244V278.211H322.766ZM322.8 274.717V276.349H321.193V274.717H322.8ZM329.805 287.17C329.289 287.17 328.853 287.102 328.496 286.966C328.144 286.83 327.855 286.657 327.629 286.447C327.402 286.232 327.226 286.014 327.102 285.793C326.977 285.566 326.886 285.368 326.83 285.198L326.66 287H325.461V274.369H327.042V279.605C327.116 279.458 327.226 279.296 327.374 279.12C327.527 278.945 327.722 278.775 327.96 278.61C328.198 278.446 328.479 278.31 328.802 278.202C329.13 278.095 329.504 278.041 329.924 278.041C331.023 278.041 331.896 278.423 332.542 279.188C333.193 279.953 333.519 281.081 333.519 282.571C333.519 283.495 333.38 284.303 333.103 284.994C332.825 285.68 332.411 286.215 331.862 286.6C331.312 286.98 330.626 287.17 329.805 287.17ZM329.524 285.963C330.238 285.963 330.819 285.688 331.267 285.138C331.714 284.583 331.938 283.702 331.938 282.495C331.938 281.469 331.728 280.676 331.309 280.115C330.895 279.548 330.289 279.265 329.49 279.265C328.906 279.265 328.436 279.392 328.079 279.647C327.728 279.897 327.467 280.262 327.297 280.744C327.133 281.226 327.048 281.809 327.042 282.495C327.042 283.725 327.232 284.611 327.612 285.155C327.997 285.694 328.634 285.963 329.524 285.963ZM336.523 282.971C336.523 283.526 336.614 284.031 336.795 284.484C336.982 284.932 337.263 285.289 337.637 285.555C338.017 285.821 338.49 285.954 339.056 285.954C339.617 285.954 340.099 285.824 340.501 285.563C340.909 285.303 341.17 284.926 341.283 284.433H342.771C342.663 285.028 342.425 285.529 342.057 285.938C341.689 286.345 341.244 286.654 340.722 286.864C340.201 287.068 339.657 287.17 339.09 287.17C338.269 287.17 337.546 286.992 336.923 286.634C336.3 286.277 335.812 285.765 335.461 285.096C335.11 284.427 334.934 283.625 334.934 282.69C334.934 281.767 335.093 280.956 335.41 280.259C335.727 279.562 336.186 279.018 336.787 278.627C337.393 278.236 338.121 278.041 338.971 278.041C339.799 278.041 340.499 278.219 341.071 278.576C341.643 278.933 342.077 279.438 342.371 280.089C342.672 280.735 342.822 281.503 342.822 282.393V282.971H336.523ZM336.532 281.908H341.309C341.309 281.404 341.224 280.951 341.054 280.548C340.884 280.14 340.623 279.82 340.272 279.588C339.926 279.35 339.49 279.231 338.963 279.231C338.413 279.231 337.957 279.364 337.594 279.63C337.237 279.891 336.968 280.228 336.787 280.642C336.611 281.05 336.526 281.472 336.532 281.908ZM344.445 287V284.994H346.315V287H344.445Z" fill="black"/>
<path d="M190.5 92.5C143.333 87.6667 42.7 97.3 17.5 174.5C-14 271 19 334 76 371C121.6 400.6 246.667 394 303.5 387C360.5 388.5 480.1 378.6 502.5 327C530.5 262.5 544 202.5 502.5 152C461 101.5 414.5 92.5 355 92.5" stroke="black" stroke-width="10" stroke-linecap="round"/>
</svg>
