<svg width="535" height="398" viewBox="0 0 535 398" fill="none" xmlns="http://www.w3.org/2000/svg">
<rect y="91" width="535" height="296" rx="148" fill="white"/>
<path fill-rule="evenodd" clip-rule="evenodd" d="M276.654 127.846C277.229 127.271 277.969 126.888 278.766 126.727C307.996 120.81 330 94.9746 330 64C330 28.6538 301.346 0 266 0C230.654 0 202 28.6538 202 64C202 94.5526 223.409 120.105 252.043 126.474C252.811 126.644 253.521 127.021 254.077 127.577L262.672 136.172C264.234 137.734 266.766 137.734 268.328 136.172L276.654 127.846Z" fill="white"/>
<path d="M252.5 126.5C256.961 126.996 259.52 138.111 265.69 138.765C272.213 139.457 270.5 125.778 292.5 121.5C319.343 116.281 332.355 96.9237 333.5 66C334.746 32.3602 315.6 5 276 5C241.663 5 214.203 20.685 207 55.5C201 84.5 218.127 114.657 237.5 119.5" stroke="black" stroke-width="10" stroke-linecap="round"/>
<path d="M242.622 36.4494C249.678 36.733 256.665 36.0675 263.719 36.0353C268.173 36.0149 272.621 35.8282 277.074 35.8282C277.897 35.8282 279.064 35.5665 279.685 36.2423C280.346 36.961 280.582 38.198 280.974 39.0721C281.836 40.9969 282.576 42.9581 282.883 45.0537C283.452 48.9307 283.205 52.9263 283.205 56.8328C283.205 60.1023 283.172 63.3453 283.044 66.6104C282.873 70.9774 282.795 75.2178 282.343 79.5629C282.18 81.1234 281.972 83.1964 280.376 83.9455C278.507 84.8228 276.314 85.1707 274.279 85.2684C268.49 85.5463 262.718 85.454 256.955 86.1426C253.315 86.5776 249.696 87.1915 246.062 87.6725C244.737 87.8479 244.178 87.979 243.888 86.4877C243.354 83.7415 243.685 80.8278 243.451 78.0445C243.186 74.8922 242.622 71.8915 242.622 68.704C242.622 64.6615 241.896 60.6465 242.013 56.6028C242.11 53.2457 242.534 49.8553 242.783 46.5031C243.072 42.6305 243.451 38.8959 243.451 35" stroke="black" stroke-width="10" stroke-linecap="round"/>
<path d="M256.081 51.6212C260.64 50.99 265.151 51 269.747 51" stroke="black" stroke-width="10" stroke-linecap="round"/>
<path d="M282.068 47.1931C284.991 46.8883 287.934 46.4601 290.878 46.4601C291.845 46.4601 292.96 46.1248 293.905 46.2701C295.643 46.5375 295.868 49.1981 296.212 50.5729C296.862 53.173 297.199 55.7523 297.217 58.432C297.258 64.7208 297.691 70.9879 297.217 77.2721C296.798 82.8236 296.767 88.5083 296.728 94.0762C296.72 95.2484 296.972 96.7043 296.714 97.8632C296.649 98.1578 295.708 98.0102 295.533 98.0125C288.81 98.101 282.092 98.2569 275.363 98.2569C270.6 98.2569 265.894 98.862 261.165 98.9898C259.738 99.0284 258.962 99.6666 258.858 97.8904C258.75 96.0576 258.613 94.2295 258.613 92.3931" stroke="black" stroke-width="10" stroke-linecap="round"/>
<path d="M255.253 65C257.963 65.3942 260.758 65.2071 263.489 65.2071C264.782 65.2071 266.718 64.8314 267.883 65.4141" stroke="black" stroke-width="10" stroke-linecap="round"/>
<path d="M145.8 168.048C146.824 167.376 147.672 167.04 148.344 167.04C148.696 167.04 148.968 167.056 149.16 167.088C150.92 167.344 152.616 168.192 154.248 169.632C154.792 170.112 155.064 170.704 155.064 171.408C155.064 172.176 154.76 172.848 154.152 173.424C153.576 174 152.968 174.288 152.328 174.288C151.816 174.288 151.256 174.112 150.648 173.76C150.072 173.408 149.528 173.232 149.016 173.232C148.408 173.232 147.976 173.552 147.72 174.192C147.496 174.8 147.384 175.264 147.384 175.584C147.384 176.192 147.928 177.2 149.016 178.608C150.488 180.528 151.512 182.176 152.088 183.552C152.696 184.928 153.048 186.528 153.144 188.352C153.144 188.512 153.144 188.72 153.144 188.976C153.176 189.232 153.192 189.424 153.192 189.552C153.192 190.96 152.984 192.096 152.568 192.96C152.184 193.824 151.464 194.736 150.408 195.696C149.384 196.592 147.976 197.184 146.184 197.472C144.84 197.696 144.04 197.808 143.784 197.808C143.272 197.808 142.76 197.664 142.248 197.376C140.776 196.576 140.04 195.6 140.04 194.448C140.04 193.84 140.28 193.216 140.76 192.576C141.048 192.192 141.32 191.952 141.576 191.856C141.832 191.728 142.264 191.664 142.872 191.664C142.968 191.664 143.128 191.68 143.352 191.712C143.576 191.712 143.768 191.712 143.928 191.712H144.696C145.432 191.712 145.944 191.664 146.232 191.568C146.52 191.44 146.792 191.2 147.048 190.848C147.432 190.368 147.624 189.76 147.624 189.024C147.624 187.008 146.312 184.352 143.688 181.056C142.216 179.2 141.48 177.472 141.48 175.872C141.48 175.168 141.576 174.432 141.768 173.664C142.408 171.232 143.752 169.36 145.8 168.048ZM172.286 168.576C172.958 168 173.598 167.712 174.206 167.712C174.846 167.712 175.454 168.016 176.03 168.624C176.478 169.072 176.734 169.536 176.798 170.016C176.894 170.496 176.942 171.744 176.942 173.76C176.942 175.616 176.974 176.848 177.038 177.456C177.134 178.064 177.342 178.576 177.662 178.992C178.142 179.568 178.382 180.16 178.382 180.768C178.382 181.408 178.142 182.016 177.662 182.592C177.214 183.168 176.99 183.84 176.99 184.608C176.99 185.344 177.022 185.984 177.086 186.528C177.182 187.424 177.23 188.08 177.23 188.496C177.23 189.168 176.958 189.776 176.414 190.32C175.806 190.928 175.15 191.232 174.446 191.232C173.742 191.232 173.102 190.928 172.526 190.32C171.982 189.68 171.646 188.832 171.518 187.776C171.39 186.656 171.182 186.096 170.894 186.096C170.606 186.096 169.742 186.384 168.302 186.96L166.094 187.776L166.046 191.424C166.046 193.184 165.998 194.272 165.902 194.688C165.806 195.072 165.518 195.472 165.038 195.888C164.302 196.496 163.774 196.8 163.454 196.8C163.006 196.8 162.446 196.592 161.774 196.176C161.134 195.76 160.75 195.376 160.622 195.024C160.494 194.48 160.398 191.088 160.334 184.848L160.238 175.296L161.246 174.48C161.918 173.904 162.462 173.616 162.878 173.616C163.166 173.616 163.614 173.744 164.222 174C164.83 174.288 165.326 174.928 165.71 175.92C166.094 176.88 166.286 178 166.286 179.28C166.286 179.696 166.286 180 166.286 180.192C166.286 180.352 166.302 180.528 166.334 180.72C166.398 180.912 166.462 181.04 166.526 181.104C166.622 181.168 166.734 181.2 166.862 181.2C167.15 181.2 167.934 180.896 169.214 180.288L171.23 179.28V169.488L172.286 168.576ZM199.28 182.736C199.088 181.296 198.912 180.496 198.752 180.336H198.704C198.448 180.336 197.824 180.96 196.832 182.208C195.872 183.456 195.392 184.24 195.392 184.56C195.392 184.752 196.08 184.848 197.456 184.848H199.52L199.28 182.736ZM205.28 185.232C205.28 185.648 205.584 187.264 206.192 190.08C206.8 192.896 207.104 194.528 207.104 194.976C207.104 195.808 206.864 196.464 206.384 196.944C205.904 197.424 205.248 197.664 204.416 197.664C202.816 197.664 201.744 196.336 201.2 193.68C200.912 192.24 200.624 191.376 200.336 191.088C200.08 190.768 199.36 190.608 198.176 190.608C198.016 190.608 197.712 190.624 197.264 190.656C196.816 190.656 196.432 190.656 196.112 190.656C193.744 190.688 192.32 190.848 191.84 191.136C191.392 191.424 190.864 192.464 190.256 194.256C189.808 195.568 189.232 196.656 188.528 197.52C187.824 198.352 187.152 198.768 186.512 198.768C185.872 198.768 185.232 198.512 184.592 198C183.984 197.456 183.68 196.896 183.68 196.32C183.68 195.776 183.952 194.72 184.496 193.152C185.072 191.552 185.648 190.224 186.224 189.168C186.736 188.208 186.992 187.504 186.992 187.056C186.992 186.64 187.328 186 188 185.136C188.832 184.176 189.52 183.168 190.064 182.112C190.928 180.672 192.032 179.072 193.376 177.312C195.04 175.168 196.064 173.68 196.448 172.848C196.96 171.856 197.424 171.232 197.84 170.976C198.288 170.72 198.848 170.592 199.52 170.592C200.352 170.592 201.024 170.768 201.536 171.12C202.112 171.504 202.624 172.352 203.072 173.664C203.456 174.656 203.92 176.592 204.464 179.472C205.008 182.352 205.28 184.272 205.28 185.232ZM223.36 172.224C223.072 172.128 222.784 172.08 222.496 172.08C221.696 172.08 220.912 172.352 220.144 172.896C219.376 173.408 218.912 174.032 218.752 174.768C218.56 175.632 218.464 176.528 218.464 177.456C218.464 179.152 218.752 180.912 219.328 182.736C219.968 184.656 220.288 185.968 220.288 186.672C220.288 187.248 220.4 187.536 220.624 187.536C220.816 187.536 221.104 187.472 221.488 187.344C222.448 187.088 223.184 186.784 223.696 186.432C224.24 186.048 224.832 185.408 225.472 184.512C226.016 183.712 226.352 183.088 226.48 182.64C226.608 182.16 226.672 181.248 226.672 179.904C226.672 178.528 226.592 177.584 226.432 177.072C226.304 176.528 225.92 175.744 225.28 174.72C224.384 173.152 223.744 172.32 223.36 172.224ZM218.128 167.472C219.44 166.832 220.816 166.512 222.256 166.512C224.304 166.512 226 167.072 227.344 168.192C228.688 169.312 230 171.248 231.28 174C231.728 174.96 232.016 175.68 232.144 176.16C232.272 176.608 232.336 177.248 232.336 178.08C232.336 178.912 232.32 179.616 232.288 180.192C232.224 182.72 231.856 184.64 231.184 185.952C230.672 187.008 229.84 188.176 228.688 189.456C227.536 190.736 226.528 191.584 225.664 192C224.928 192.384 223.76 192.752 222.16 193.104C220.592 193.456 219.296 193.632 218.272 193.632C217.088 193.632 216.208 193.44 215.632 193.056C215.088 192.672 214.736 192.032 214.576 191.136C214.352 190.048 214.08 189.248 213.76 188.736C213.44 188.064 213.072 185.6 212.656 181.344C212.4 178.208 212.272 176.352 212.272 175.776C212.272 174.944 212.416 174.144 212.704 173.376C213.12 172.256 213.84 171.136 214.864 170.016C215.92 168.896 217.008 168.048 218.128 167.472ZM256.786 170.832C256.978 170.8 257.234 170.784 257.554 170.784C258.546 170.784 259.314 171.12 259.858 171.792C260.402 172.464 260.674 173.44 260.674 174.72C260.674 176.832 260.226 178.832 259.33 180.72C258.466 182.576 257.298 184.032 255.826 185.088L254.002 186.432L254.194 188.448C254.514 191.968 254.674 194.256 254.674 195.312C254.674 196.528 254.562 197.408 254.338 197.952C254.114 198.496 253.73 198.96 253.186 199.344C252.802 199.6 252.354 199.728 251.842 199.728C251.074 199.728 250.354 199.376 249.682 198.672C249.17 198.064 248.914 197.12 248.914 195.84C248.914 194.656 248.85 192.848 248.722 190.416L248.482 187.056L246.322 186.432C244.85 186.016 243.65 185.376 242.722 184.512C241.922 183.776 240.866 182.256 239.554 179.952C238.242 177.648 237.586 176.144 237.586 175.44C237.586 174.736 237.922 174.112 238.594 173.568C239.266 173.024 239.986 172.752 240.754 172.752C241.266 172.752 241.714 172.896 242.098 173.184C242.386 173.376 243.17 174.64 244.45 176.976C245.346 178.608 245.954 179.6 246.274 179.952C246.626 180.304 247.314 180.656 248.338 181.008C249.298 181.36 249.97 181.536 250.354 181.536C250.674 181.536 251.138 181.36 251.746 181.008C252.77 180.464 253.506 179.744 253.954 178.848C254.402 177.92 254.626 176.672 254.626 175.104C254.626 173.664 254.786 172.624 255.106 171.984C255.426 171.344 255.986 170.96 256.786 170.832ZM288.457 178.848C288.361 178.144 288.105 177.456 287.689 176.784C287.305 176.112 286.857 175.776 286.345 175.776C285.897 175.776 285.401 176.032 284.857 176.544C284.345 177.024 283.977 177.584 283.753 178.224C283.657 178.512 283.609 179.088 283.609 179.952C283.609 180.976 283.673 182.016 283.801 183.072C283.929 184.096 284.073 184.608 284.233 184.608C284.969 184.608 285.977 183.76 287.257 182.064C288.089 180.976 288.505 180.128 288.505 179.52C288.505 179.232 288.489 179.008 288.457 178.848ZM284.377 170.4C285.497 170.112 286.329 169.968 286.873 169.968C287.513 169.968 288.265 170.176 289.129 170.592C290.921 171.36 292.361 172.96 293.449 175.392C293.865 176.32 294.073 177.376 294.073 178.56C294.073 178.688 294.057 178.896 294.025 179.184C294.025 179.44 294.025 179.648 294.025 179.808C293.961 181.184 293.833 182.128 293.641 182.64C293.449 183.12 292.857 184.032 291.865 185.376C290.489 187.2 289.577 188.32 289.129 188.736C288.745 189.088 288.377 189.344 288.025 189.504C287.705 189.632 286.937 189.856 285.721 190.176L284.137 190.56V192.48C284.137 193.76 284.377 194.768 284.857 195.504C285.369 196.272 285.625 197.536 285.625 199.296C285.625 200.512 285.577 201.312 285.481 201.696C285.385 202.048 285.113 202.432 284.665 202.848C284.057 203.424 283.385 203.712 282.649 203.712C282.009 203.712 281.433 203.504 280.921 203.088C279.385 201.936 278.441 195.6 278.089 184.08L277.849 177.072L278.857 175.104C280.105 172.64 281.945 171.072 284.377 170.4ZM314.968 182.736C314.776 181.296 314.6 180.496 314.44 180.336H314.392C314.136 180.336 313.512 180.96 312.52 182.208C311.56 183.456 311.08 184.24 311.08 184.56C311.08 184.752 311.768 184.848 313.144 184.848H315.208L314.968 182.736ZM320.968 185.232C320.968 185.648 321.272 187.264 321.88 190.08C322.488 192.896 322.792 194.528 322.792 194.976C322.792 195.808 322.552 196.464 322.072 196.944C321.592 197.424 320.936 197.664 320.104 197.664C318.504 197.664 317.432 196.336 316.888 193.68C316.6 192.24 316.312 191.376 316.024 191.088C315.768 190.768 315.048 190.608 313.864 190.608C313.704 190.608 313.4 190.624 312.952 190.656C312.504 190.656 312.12 190.656 311.8 190.656C309.432 190.688 308.008 190.848 307.528 191.136C307.08 191.424 306.552 192.464 305.944 194.256C305.496 195.568 304.92 196.656 304.216 197.52C303.512 198.352 302.84 198.768 302.2 198.768C301.56 198.768 300.92 198.512 300.28 198C299.672 197.456 299.368 196.896 299.368 196.32C299.368 195.776 299.64 194.72 300.184 193.152C300.76 191.552 301.336 190.224 301.912 189.168C302.424 188.208 302.68 187.504 302.68 187.056C302.68 186.64 303.016 186 303.688 185.136C304.52 184.176 305.208 183.168 305.752 182.112C306.616 180.672 307.72 179.072 309.064 177.312C310.728 175.168 311.752 173.68 312.136 172.848C312.648 171.856 313.112 171.232 313.528 170.976C313.976 170.72 314.536 170.592 315.208 170.592C316.04 170.592 316.712 170.768 317.224 171.12C317.8 171.504 318.312 172.352 318.76 173.664C319.144 174.656 319.608 176.592 320.152 179.472C320.696 182.352 320.968 184.272 320.968 185.232ZM338.519 178.848C338.423 178.144 338.167 177.456 337.751 176.784C337.367 176.112 336.919 175.776 336.407 175.776C335.959 175.776 335.463 176.032 334.919 176.544C334.407 177.024 334.039 177.584 333.815 178.224C333.719 178.512 333.671 179.088 333.671 179.952C333.671 180.976 333.735 182.016 333.863 183.072C333.991 184.096 334.135 184.608 334.295 184.608C335.031 184.608 336.039 183.76 337.319 182.064C338.151 180.976 338.567 180.128 338.567 179.52C338.567 179.232 338.551 179.008 338.519 178.848ZM334.439 170.4C335.559 170.112 336.391 169.968 336.935 169.968C337.575 169.968 338.327 170.176 339.191 170.592C340.983 171.36 342.423 172.96 343.511 175.392C343.927 176.32 344.135 177.376 344.135 178.56C344.135 178.688 344.119 178.896 344.087 179.184C344.087 179.44 344.087 179.648 344.087 179.808C344.023 181.184 343.895 182.128 343.703 182.64C343.511 183.12 342.919 184.032 341.927 185.376C340.551 187.2 339.639 188.32 339.191 188.736C338.807 189.088 338.439 189.344 338.087 189.504C337.767 189.632 336.999 189.856 335.783 190.176L334.199 190.56V192.48C334.199 193.76 334.439 194.768 334.919 195.504C335.431 196.272 335.687 197.536 335.687 199.296C335.687 200.512 335.639 201.312 335.543 201.696C335.447 202.048 335.175 202.432 334.727 202.848C334.119 203.424 333.447 203.712 332.711 203.712C332.071 203.712 331.495 203.504 330.983 203.088C329.447 201.936 328.503 195.6 328.151 184.08L327.911 177.072L328.919 175.104C330.167 172.64 332.007 171.072 334.439 170.4ZM360.998 165.072C362.182 164.816 363.046 164.688 363.59 164.688C364.454 164.688 365.142 164.944 365.654 165.456C366.198 165.968 366.47 166.576 366.47 167.28C366.47 167.856 366.278 168.416 365.894 168.96C365.542 169.472 365.046 169.856 364.406 170.112C363.99 170.304 362.486 170.656 359.894 171.168L356.438 171.792L355.958 173.808C355.67 175.184 355.526 176.176 355.526 176.784C355.526 177.488 355.734 177.84 356.15 177.84C356.31 177.84 357.27 177.632 359.03 177.216C360.79 176.8 361.926 176.592 362.438 176.592C362.598 176.592 362.694 176.608 362.726 176.64C364.006 177.056 364.646 177.936 364.646 179.28C364.646 180.24 364.294 180.992 363.59 181.536C362.886 182.048 361.478 182.576 359.366 183.12C357.67 183.568 356.534 183.904 355.958 184.128C355.414 184.352 355.142 184.608 355.142 184.896C355.142 185.056 355.222 185.248 355.382 185.472C355.606 185.824 356.23 186 357.254 186C357.926 186 358.486 185.984 358.934 185.952C359.158 185.952 359.446 185.952 359.798 185.952C360.15 185.92 360.39 185.904 360.518 185.904C361.222 185.904 361.718 185.968 362.006 186.096C362.326 186.192 362.662 186.416 363.014 186.768C363.622 187.376 363.926 188.08 363.926 188.88C363.926 189.52 363.702 190.112 363.254 190.656C362.998 191.008 362.614 191.264 362.102 191.424C361.59 191.552 360.678 191.68 359.366 191.808C358.406 191.904 357.574 191.952 356.87 191.952C354.662 191.952 352.934 191.28 351.686 189.936C350.086 188.304 349.286 185.856 349.286 182.592C349.286 180.864 349.478 178.736 349.862 176.208C350.118 174.672 350.246 173.552 350.246 172.848C350.246 172.336 350.118 171.904 349.862 171.552C349.51 171.072 349.334 170.496 349.334 169.824C349.334 169.056 349.542 168.448 349.958 168C350.438 167.456 352.102 166.896 354.95 166.32C356.55 166 358.566 165.584 360.998 165.072ZM381.915 178.704C381.915 178.352 381.659 177.92 381.147 177.408C380.635 176.896 379.995 176.64 379.227 176.64C378.715 176.64 378.395 176.768 378.267 177.024C378.203 177.152 378.171 177.392 378.171 177.744C378.171 178.448 378.235 179.28 378.363 180.24C378.523 181.2 378.667 181.68 378.795 181.68C378.987 181.68 379.419 181.44 380.091 180.96C380.763 180.48 381.211 180.08 381.435 179.76C381.755 179.344 381.915 178.992 381.915 178.704ZM374.187 172.368C375.083 171.568 375.947 171.056 376.779 170.832C377.611 170.608 378.299 170.496 378.843 170.496C379.643 170.496 380.667 170.688 381.915 171.072C383.707 171.584 385.115 172.56 386.139 174C387.195 175.44 387.723 177.024 387.723 178.752C387.723 180.96 386.907 182.816 385.275 184.32C384.603 184.992 384.267 185.392 384.267 185.52C384.267 185.68 384.939 186.08 386.283 186.72C387.659 187.36 389.163 187.984 390.795 188.592C392.139 189.104 393.179 189.712 393.915 190.416C394.651 191.12 395.019 191.856 395.019 192.624C395.019 193.36 394.699 194.048 394.059 194.688C393.547 195.2 393.051 195.456 392.571 195.456C391.835 195.456 389.579 194.672 385.803 193.104C382.347 191.664 380.475 190.944 380.187 190.944C380.027 190.944 379.947 191.12 379.947 191.472C379.947 191.824 380.011 192.304 380.139 192.912C380.235 193.456 380.283 193.952 380.283 194.4C380.283 195.904 379.579 196.864 378.171 197.28C377.819 197.376 377.499 197.424 377.211 197.424C376.155 197.424 375.291 196.688 374.619 195.216C373.979 193.744 373.291 191.104 372.555 187.296C372.043 184.64 371.787 182.016 371.787 179.424C371.787 177.184 371.995 175.584 372.411 174.624C372.731 173.888 373.323 173.136 374.187 172.368Z" fill="black"/>
<path d="M69.8364 238.709C69.8761 238.709 69.9951 238.712 70.1934 238.717C70.3974 238.717 70.6439 238.717 70.9329 238.717C71.2219 238.712 71.5222 238.712 71.8339 238.717C72.1456 238.717 72.4317 238.72 72.6924 238.726C74.1997 238.749 75.4209 238.995 76.3559 239.465C77.2966 239.93 77.9851 240.607 78.4214 241.497C78.8634 242.387 79.0844 243.48 79.0844 244.778C79.0844 246.138 78.8464 247.28 78.3704 248.203C77.9001 249.127 77.1804 249.824 76.2114 250.294C75.2481 250.765 74.0212 251 72.5309 251H69.8364V238.709ZM71.4514 240.06V249.648H72.5309C73.5452 249.648 74.4179 249.493 75.1489 249.181C75.8799 248.864 76.4409 248.351 76.8319 247.642C77.2286 246.934 77.4269 245.988 77.4269 244.803C77.4269 243.619 77.2342 242.681 76.8489 241.99C76.4692 241.299 75.9196 240.806 75.1999 240.511C74.4802 240.211 73.6132 240.06 72.5989 240.06H71.4514ZM82.8305 242.211V251H81.309V242.211H82.8305ZM82.8645 238.717V240.349H81.258V238.717H82.8645ZM92.2943 242.211L89.1238 251H87.6958L84.5168 242.211H85.9958L88.3333 249.028H88.4778L90.8238 242.211H92.2943ZM94.6127 246.971C94.6127 247.526 94.7034 248.031 94.8847 248.484C95.0717 248.932 95.3522 249.289 95.7262 249.555C96.1059 249.821 96.579 249.954 97.1457 249.954C97.7067 249.954 98.1884 249.824 98.5907 249.563C98.9987 249.303 99.2594 248.926 99.3727 248.433H100.86C100.753 249.028 100.515 249.529 100.146 249.938C99.7779 250.345 99.333 250.654 98.8117 250.864C98.2904 251.068 97.7464 251.17 97.1797 251.17C96.358 251.17 95.6355 250.992 95.0122 250.634C94.3889 250.277 93.9015 249.765 93.5502 249.096C93.1989 248.427 93.0232 247.625 93.0232 246.69C93.0232 245.767 93.1819 244.956 93.4992 244.259C93.8165 243.562 94.2755 243.018 94.8762 242.627C95.4825 242.236 96.2107 242.041 97.0607 242.041C97.888 242.041 98.5879 242.219 99.1602 242.576C99.7325 242.933 100.166 243.438 100.461 244.089C100.761 244.735 100.911 245.503 100.911 246.393V246.971H94.6127ZM94.6212 245.908H99.3982C99.3982 245.404 99.3132 244.951 99.1432 244.548C98.9732 244.14 98.7125 243.82 98.3612 243.588C98.0155 243.35 97.5792 243.231 97.0522 243.231C96.5025 243.231 96.0464 243.364 95.6837 243.63C95.3267 243.891 95.0575 244.228 94.8762 244.642C94.7005 245.05 94.6155 245.472 94.6212 245.908ZM108.248 242.211V251H106.727V242.211H108.248ZM108.282 238.717V240.349H106.676V238.717H108.282ZM110.944 251V242.211H112.465V243.486C112.607 243.242 112.802 243.013 113.052 242.797C113.307 242.582 113.613 242.409 113.97 242.279C114.332 242.149 114.749 242.083 115.219 242.083C115.774 242.083 116.284 242.194 116.749 242.415C117.219 242.636 117.593 242.982 117.871 243.452C118.154 243.917 118.296 244.517 118.296 245.254V251H116.724V245.407C116.724 244.721 116.542 244.214 116.18 243.885C115.823 243.551 115.358 243.384 114.786 243.384C114.389 243.384 114.018 243.449 113.672 243.579C113.326 243.704 113.046 243.897 112.831 244.157C112.615 244.412 112.508 244.735 112.508 245.126V251H110.944ZM124.635 243.358H122.655V248.824C122.655 249.136 122.686 249.365 122.748 249.512C122.816 249.654 122.927 249.745 123.08 249.784C123.239 249.824 123.454 249.844 123.726 249.844H124.686V250.898C124.579 250.938 124.414 250.972 124.193 251C123.978 251.028 123.709 251.043 123.386 251.043C122.78 251.043 122.309 250.96 121.975 250.796C121.641 250.632 121.405 250.388 121.269 250.065C121.139 249.742 121.074 249.345 121.074 248.875V243.358H119.646V242.211H121.116L121.499 239.652H122.655V242.202H124.635V243.358ZM129.985 251.17C129.174 251.17 128.466 250.997 127.86 250.651C127.253 250.3 126.783 249.787 126.449 249.113C126.114 248.439 125.947 247.614 125.947 246.639C125.947 245.721 126.103 244.917 126.415 244.225C126.726 243.534 127.183 242.999 127.783 242.619C128.39 242.234 129.123 242.041 129.985 242.041C130.795 242.041 131.498 242.219 132.093 242.576C132.693 242.928 133.158 243.446 133.487 244.132C133.815 244.818 133.98 245.653 133.98 246.639C133.98 247.535 133.827 248.322 133.521 249.002C133.22 249.682 132.773 250.215 132.178 250.6C131.588 250.98 130.857 251.17 129.985 251.17ZM129.985 249.929C130.512 249.929 130.957 249.796 131.319 249.529C131.682 249.263 131.957 248.881 132.144 248.382C132.331 247.883 132.424 247.291 132.424 246.605C132.424 245.976 132.342 245.413 132.178 244.914C132.013 244.41 131.75 244.01 131.387 243.715C131.03 243.421 130.563 243.273 129.985 243.273C129.452 243.273 129.002 243.407 128.633 243.673C128.265 243.934 127.984 244.313 127.792 244.812C127.605 245.311 127.511 245.908 127.511 246.605C127.511 247.223 127.596 247.784 127.766 248.288C127.936 248.793 128.203 249.192 128.565 249.487C128.928 249.782 129.401 249.929 129.985 249.929ZM139.839 251V238.709H143.791C145.287 238.709 146.418 238.984 147.183 239.533C147.953 240.083 148.339 240.876 148.339 241.913C148.339 242.565 148.169 243.123 147.829 243.588C147.494 244.053 146.905 244.435 146.061 244.735C146.542 244.837 146.947 244.985 147.276 245.177C147.61 245.37 147.877 245.597 148.075 245.857C148.279 246.112 148.424 246.396 148.509 246.708C148.599 247.019 148.645 247.348 148.645 247.693C148.645 248.804 148.248 249.634 147.455 250.184C146.667 250.728 145.488 251 143.919 251H139.839ZM141.411 249.691H143.902C144.927 249.691 145.706 249.524 146.239 249.189C146.777 248.849 147.047 248.328 147.047 247.625C147.047 247.11 146.913 246.693 146.647 246.376C146.386 246.053 146.032 245.818 145.585 245.67C145.137 245.523 144.638 245.449 144.089 245.449H141.411V249.691ZM141.411 244.115H144.089C144.412 244.115 144.732 244.084 145.049 244.021C145.366 243.959 145.658 243.851 145.925 243.698C146.191 243.545 146.406 243.341 146.571 243.086C146.735 242.826 146.817 242.5 146.817 242.109C146.817 241.395 146.542 240.868 145.993 240.528C145.449 240.182 144.74 240.009 143.868 240.009H141.411V244.115ZM150.073 251L154.518 238.709H156.295L160.74 251H159.134L157.927 247.634H152.903L151.671 251H150.073ZM153.303 246.189H157.51L155.419 240.264L153.303 246.189ZM166.815 251.17C166.237 251.17 165.676 251.099 165.132 250.957C164.588 250.81 164.095 250.592 163.653 250.303C163.211 250.014 162.842 249.657 162.548 249.232C162.259 248.801 162.077 248.303 162.004 247.736H163.653C163.755 248.201 163.956 248.592 164.256 248.909C164.562 249.226 164.933 249.464 165.37 249.623C165.812 249.782 166.29 249.861 166.806 249.861C167.384 249.861 167.9 249.782 168.353 249.623C168.812 249.459 169.172 249.226 169.433 248.926C169.699 248.626 169.832 248.266 169.832 247.846C169.832 247.478 169.747 247.158 169.577 246.886C169.413 246.614 169.172 246.387 168.855 246.206C168.537 246.025 168.152 245.883 167.699 245.781L165.285 245.22C164.378 245.022 163.667 244.667 163.151 244.157C162.641 243.647 162.38 242.973 162.369 242.134C162.369 241.426 162.556 240.803 162.93 240.264C163.31 239.726 163.828 239.307 164.486 239.006C165.149 238.706 165.905 238.556 166.755 238.556C167.735 238.556 168.56 238.723 169.229 239.057C169.897 239.392 170.402 239.831 170.742 240.375C171.082 240.919 171.254 241.5 171.26 242.117H169.637C169.586 241.562 169.421 241.123 169.144 240.8C168.872 240.471 168.529 240.239 168.115 240.103C167.701 239.961 167.251 239.89 166.764 239.89C166.412 239.89 166.072 239.936 165.744 240.026C165.421 240.111 165.129 240.242 164.868 240.417C164.613 240.593 164.409 240.811 164.256 241.072C164.103 241.333 164.027 241.636 164.027 241.981C164.027 242.423 164.177 242.783 164.477 243.061C164.783 243.339 165.336 243.577 166.135 243.775L168.472 244.336C169.084 244.466 169.583 244.659 169.968 244.914C170.359 245.169 170.659 245.458 170.869 245.781C171.084 246.104 171.232 246.441 171.311 246.792C171.396 247.144 171.439 247.489 171.439 247.829C171.439 248.447 171.254 249.011 170.886 249.521C170.518 250.025 169.988 250.428 169.297 250.728C168.611 251.023 167.784 251.17 166.815 251.17ZM173.876 251V238.709H181.628L181.62 240.094H175.457V244.106H181.008V245.483H175.449V249.58L181.79 249.597V251H173.876ZM192.136 251.17C190.838 251.17 189.762 250.892 188.906 250.337C188.056 249.776 187.549 248.949 187.384 247.855L189.033 247.753C189.215 248.444 189.577 248.963 190.121 249.308C190.665 249.654 191.334 249.827 192.127 249.827C192.603 249.827 193.048 249.745 193.462 249.58C193.881 249.416 194.218 249.187 194.473 248.892C194.734 248.597 194.864 248.249 194.864 247.846C194.864 247.308 194.703 246.877 194.38 246.554C194.063 246.231 193.555 245.976 192.858 245.789L190.742 245.237C189.83 245.005 189.107 244.639 188.574 244.14C188.042 243.642 187.773 242.973 187.767 242.134C187.761 241.426 187.945 240.803 188.319 240.264C188.699 239.726 189.22 239.307 189.883 239.006C190.552 238.706 191.323 238.556 192.195 238.556C193.034 238.556 193.757 238.717 194.363 239.04C194.975 239.358 195.448 239.78 195.782 240.307C196.122 240.834 196.304 241.409 196.326 242.032L194.728 242.117C194.604 241.386 194.335 240.834 193.921 240.46C193.513 240.08 192.938 239.89 192.195 239.89C191.844 239.89 191.504 239.936 191.175 240.026C190.852 240.111 190.561 240.242 190.3 240.417C190.045 240.593 189.841 240.811 189.688 241.072C189.535 241.333 189.458 241.636 189.458 241.981C189.458 242.423 189.614 242.775 189.926 243.035C190.238 243.29 190.799 243.543 191.609 243.792L193.649 244.37C194.692 244.659 195.434 245.109 195.876 245.721C196.324 246.328 196.547 247.03 196.547 247.829C196.547 248.481 196.363 249.059 195.995 249.563C195.627 250.062 195.108 250.456 194.439 250.745C193.776 251.028 193.009 251.17 192.136 251.17ZM191.473 236.873H192.926V239.066H191.473V236.873ZM191.371 250.583H192.824V252.777H191.371V250.583ZM203.538 238.539C204.405 238.539 205.173 238.72 205.841 239.083C206.51 239.44 207.048 239.919 207.456 240.519C207.864 241.12 208.105 241.78 208.179 242.5H206.504C206.414 242.018 206.241 241.582 205.986 241.191C205.731 240.8 205.396 240.488 204.983 240.256C204.569 240.024 204.073 239.907 203.495 239.907C202.753 239.907 202.124 240.083 201.608 240.434C201.098 240.78 200.71 241.316 200.444 242.041C200.183 242.766 200.053 243.696 200.053 244.829C200.053 246.54 200.345 247.798 200.928 248.603C201.518 249.402 202.373 249.801 203.495 249.801C204.073 249.801 204.569 249.68 204.983 249.436C205.396 249.192 205.731 248.866 205.986 248.458C206.241 248.05 206.414 247.608 206.504 247.132H208.179C208.116 247.654 207.975 248.158 207.754 248.645C207.538 249.127 207.241 249.558 206.861 249.938C206.482 250.317 206.014 250.617 205.459 250.838C204.909 251.06 204.269 251.17 203.538 251.17C202.433 251.17 201.489 250.918 200.707 250.413C199.931 249.909 199.336 249.184 198.922 248.237C198.514 247.291 198.31 246.149 198.31 244.812C198.31 243.48 198.514 242.347 198.922 241.412C199.33 240.477 199.922 239.766 200.699 239.278C201.481 238.785 202.427 238.539 203.538 238.539ZM210.558 238.709H212.165V249.589H217.97V251H210.55L210.558 238.709ZM228.777 246.75C228.777 247.696 228.622 248.498 228.31 249.155C227.998 249.813 227.511 250.314 226.848 250.66C226.191 251 225.335 251.17 224.281 251.17C223.216 251.17 222.351 250.994 221.688 250.643C221.031 250.292 220.549 249.776 220.243 249.096C219.943 248.416 219.793 247.58 219.793 246.588V238.709H221.425V246.826C221.425 247.818 221.671 248.56 222.164 249.053C222.657 249.546 223.363 249.793 224.281 249.793C224.899 249.793 225.423 249.685 225.853 249.47C226.29 249.255 226.621 248.929 226.848 248.492C227.08 248.05 227.196 247.495 227.196 246.826V238.709H228.777V246.75ZM231.526 251V238.709H235.479C236.975 238.709 238.105 238.984 238.87 239.533C239.641 240.083 240.026 240.876 240.026 241.913C240.026 242.565 239.856 243.123 239.516 243.588C239.182 244.053 238.593 244.435 237.748 244.735C238.23 244.837 238.635 244.985 238.964 245.177C239.298 245.37 239.564 245.597 239.763 245.857C239.967 246.112 240.111 246.396 240.196 246.708C240.287 247.019 240.332 247.348 240.332 247.693C240.332 248.804 239.936 249.634 239.142 250.184C238.355 250.728 237.176 251 235.606 251H231.526ZM233.099 249.691H235.589C236.615 249.691 237.394 249.524 237.927 249.189C238.465 248.849 238.734 248.328 238.734 247.625C238.734 247.11 238.601 246.693 238.335 246.376C238.074 246.053 237.72 245.818 237.272 245.67C236.825 245.523 236.326 245.449 235.776 245.449H233.099V249.691ZM233.099 244.115H235.776C236.099 244.115 236.419 244.084 236.737 244.021C237.054 243.959 237.346 243.851 237.612 243.698C237.879 243.545 238.094 243.341 238.258 243.086C238.423 242.826 238.505 242.5 238.505 242.109C238.505 241.395 238.23 240.868 237.68 240.528C237.136 240.182 236.428 240.009 235.555 240.009H233.099V244.115ZM244.198 238.709L243.688 242.678H242.787L242.294 238.709H244.198ZM248.327 251.17C247.715 251.17 247.145 251.077 246.618 250.889C246.097 250.697 245.663 250.399 245.318 249.997C244.972 249.589 244.754 249.07 244.663 248.441H246.091C246.17 248.787 246.312 249.076 246.516 249.308C246.726 249.535 246.986 249.708 247.298 249.827C247.61 249.94 247.95 249.997 248.318 249.997C248.907 249.997 249.383 249.886 249.746 249.665C250.109 249.444 250.29 249.104 250.29 248.645C250.29 248.322 250.194 248.065 250.001 247.872C249.814 247.674 249.522 247.529 249.126 247.438L247.307 246.988C246.598 246.818 246.032 246.552 245.607 246.189C245.182 245.826 244.969 245.319 244.969 244.667C244.963 244.152 245.085 243.698 245.335 243.307C245.584 242.916 245.958 242.608 246.457 242.381C246.955 242.154 247.576 242.041 248.318 242.041C249.27 242.041 250.038 242.256 250.622 242.687C251.211 243.112 251.517 243.738 251.54 244.565H250.154C250.097 244.146 249.908 243.815 249.585 243.571C249.267 243.322 248.839 243.197 248.301 243.197C247.74 243.197 247.284 243.31 246.933 243.537C246.581 243.758 246.406 244.104 246.406 244.574C246.406 244.886 246.53 245.132 246.78 245.313C247.029 245.489 247.397 245.636 247.885 245.755L249.644 246.198C250.052 246.305 250.386 246.447 250.647 246.622C250.913 246.798 251.123 246.994 251.276 247.209C251.435 247.424 251.545 247.651 251.608 247.889C251.676 248.121 251.71 248.345 251.71 248.56C251.71 249.099 251.574 249.563 251.302 249.954C251.035 250.34 250.65 250.64 250.146 250.855C249.647 251.065 249.041 251.17 248.327 251.17ZM268.878 242.211L266.218 251H264.671L262.665 244.514L260.761 251H259.222L256.511 242.211H257.964L259.979 248.968H260.115L262.095 242.211H263.285L265.342 248.951H265.478L267.408 242.211H268.878ZM273.674 251.17C272.864 251.17 272.155 250.997 271.549 250.651C270.943 250.3 270.472 249.787 270.138 249.113C269.804 248.439 269.636 247.614 269.636 246.639C269.636 245.721 269.792 244.917 270.104 244.225C270.416 243.534 270.872 242.999 271.472 242.619C272.079 242.234 272.813 242.041 273.674 242.041C274.484 242.041 275.187 242.219 275.782 242.576C276.383 242.928 276.847 243.446 277.176 244.132C277.505 244.818 277.669 245.653 277.669 246.639C277.669 247.535 277.516 248.322 277.21 249.002C276.91 249.682 276.462 250.215 275.867 250.6C275.278 250.98 274.547 251.17 273.674 251.17ZM273.674 249.929C274.201 249.929 274.646 249.796 275.008 249.529C275.371 249.263 275.646 248.881 275.833 248.382C276.02 247.883 276.113 247.291 276.113 246.605C276.113 245.976 276.031 245.413 275.867 244.914C275.703 244.41 275.439 244.01 275.076 243.715C274.719 243.421 274.252 243.273 273.674 243.273C273.141 243.273 272.691 243.407 272.322 243.673C271.954 243.934 271.674 244.313 271.481 244.812C271.294 245.311 271.2 245.908 271.2 246.605C271.2 247.223 271.285 247.784 271.455 248.288C271.625 248.793 271.892 249.192 272.254 249.487C272.617 249.782 273.09 249.929 273.674 249.929ZM279.556 251V242.211H281.052V243.902C281.2 243.483 281.407 243.137 281.673 242.865C281.939 242.588 282.242 242.381 282.582 242.245C282.928 242.109 283.285 242.041 283.653 242.041C283.784 242.041 283.911 242.049 284.036 242.067C284.161 242.083 284.257 242.112 284.325 242.151V243.673C284.24 243.633 284.129 243.608 283.993 243.596C283.863 243.579 283.753 243.571 283.662 243.571C283.311 243.548 282.982 243.571 282.676 243.639C282.37 243.701 282.101 243.812 281.868 243.97C281.636 244.129 281.452 244.339 281.316 244.599C281.186 244.854 281.12 245.166 281.12 245.534V251H279.556ZM288.196 251.111C287.72 251.111 287.334 251.045 287.04 250.915C286.751 250.785 286.527 250.609 286.368 250.388C286.215 250.167 286.11 249.915 286.054 249.631C286.003 249.342 285.977 249.045 285.977 248.739V238.369H287.524V248.586C287.524 249.028 287.609 249.359 287.779 249.58C287.955 249.801 288.199 249.923 288.51 249.946L288.986 249.954V250.974C288.856 251.014 288.72 251.045 288.578 251.068C288.437 251.096 288.309 251.111 288.196 251.111ZM293.908 251.17C292.769 251.17 291.866 250.779 291.197 249.997C290.528 249.215 290.194 248.073 290.194 246.571C290.194 245.659 290.327 244.863 290.593 244.183C290.865 243.503 291.268 242.976 291.8 242.602C292.333 242.228 292.996 242.041 293.789 242.041C294.209 242.041 294.58 242.095 294.903 242.202C295.232 242.31 295.515 242.446 295.753 242.61C295.991 242.775 296.184 242.945 296.331 243.12C296.484 243.296 296.597 243.458 296.671 243.605V238.369H298.252V251H297.053L296.883 249.198C296.827 249.368 296.736 249.566 296.611 249.793C296.487 250.014 296.311 250.232 296.084 250.447C295.858 250.657 295.566 250.83 295.209 250.966C294.858 251.102 294.424 251.17 293.908 251.17ZM294.189 249.963C295.079 249.963 295.713 249.694 296.093 249.155C296.478 248.611 296.671 247.725 296.671 246.495C296.665 245.809 296.577 245.226 296.407 244.744C296.243 244.262 295.982 243.897 295.625 243.647C295.274 243.392 294.807 243.265 294.223 243.265C293.498 243.265 292.908 243.523 292.455 244.038C292.002 244.554 291.775 245.373 291.775 246.495C291.775 247.594 291.979 248.447 292.387 249.053C292.801 249.66 293.401 249.963 294.189 249.963ZM315.887 242.211L313.226 251H311.679L309.673 244.514L307.769 251H306.231L303.519 242.211H304.973L306.987 248.968H307.123L309.104 242.211H310.294L312.351 248.951H312.487L314.416 242.211H315.887ZM319.204 242.211V251H317.683V242.211H319.204ZM319.238 238.717V240.349H317.632V238.717H319.238ZM326.382 243.358H324.401V248.824C324.401 249.136 324.432 249.365 324.495 249.512C324.563 249.654 324.673 249.745 324.826 249.784C324.985 249.824 325.2 249.844 325.472 249.844H326.433V250.898C326.325 250.938 326.161 250.972 325.94 251C325.724 251.028 325.455 251.043 325.132 251.043C324.526 251.043 324.055 250.96 323.721 250.796C323.387 250.632 323.152 250.388 323.016 250.065C322.885 249.742 322.82 249.345 322.82 248.875V243.358H321.392V242.211H322.863L323.245 239.652H324.401V242.202H326.382V243.358ZM328.47 251V238.369H330V243.503C330.147 243.259 330.346 243.033 330.595 242.823C330.844 242.608 331.147 242.435 331.504 242.304C331.861 242.168 332.275 242.1 332.745 242.1C333.318 242.1 333.836 242.208 334.301 242.423C334.766 242.633 335.134 242.933 335.406 243.324C335.678 243.715 335.814 244.18 335.814 244.718V251H334.241V245.033C334.241 244.506 334.06 244.101 333.697 243.817C333.34 243.528 332.873 243.384 332.295 243.384C331.904 243.384 331.536 243.449 331.19 243.579C330.844 243.704 330.564 243.897 330.348 244.157C330.139 244.412 330.034 244.738 330.034 245.135V251H328.47ZM345.12 251.17C344.31 251.17 343.602 250.997 342.995 250.651C342.389 250.3 341.919 249.787 341.584 249.113C341.25 248.439 341.083 247.614 341.083 246.639C341.083 245.721 341.239 244.917 341.55 244.225C341.862 243.534 342.318 242.999 342.919 242.619C343.525 242.234 344.259 242.041 345.12 242.041C345.931 242.041 346.633 242.219 347.228 242.576C347.829 242.928 348.294 243.446 348.622 244.132C348.951 244.818 349.115 245.653 349.115 246.639C349.115 247.535 348.962 248.322 348.656 249.002C348.356 249.682 347.908 250.215 347.313 250.6C346.724 250.98 345.993 251.17 345.12 251.17ZM345.12 249.929C345.647 249.929 346.092 249.796 346.455 249.529C346.818 249.263 347.092 248.881 347.279 248.382C347.466 247.883 347.56 247.291 347.56 246.605C347.56 245.976 347.478 245.413 347.313 244.914C347.149 244.41 346.886 244.01 346.523 243.715C346.166 243.421 345.698 243.273 345.12 243.273C344.588 243.273 344.137 243.407 343.769 243.673C343.401 243.934 343.12 244.313 342.927 244.812C342.74 245.311 342.647 245.908 342.647 246.605C342.647 247.223 342.732 247.784 342.902 248.288C343.072 248.793 343.338 249.192 343.701 249.487C344.064 249.782 344.537 249.929 345.12 249.929ZM354.1 251.17C353.641 251.164 353.208 251.099 352.8 250.974C352.397 250.844 352.04 250.654 351.729 250.405C351.417 250.156 351.17 249.847 350.989 249.478C350.813 249.104 350.726 248.671 350.726 248.178V242.211H352.298V248.016C352.298 248.589 352.474 249.053 352.825 249.41C353.182 249.767 353.718 249.946 354.432 249.946C355.078 249.946 355.596 249.779 355.987 249.444C356.384 249.104 356.582 248.6 356.582 247.931V242.211H358.146V251H356.897L356.735 249.317C356.627 249.759 356.443 250.116 356.183 250.388C355.928 250.66 355.619 250.861 355.256 250.991C354.899 251.116 354.514 251.176 354.1 251.17ZM360.528 251V242.211H362.024V243.902C362.171 243.483 362.378 243.137 362.645 242.865C362.911 242.588 363.214 242.381 363.554 242.245C363.9 242.109 364.257 242.041 364.625 242.041C364.755 242.041 364.883 242.049 365.008 242.067C365.132 242.083 365.229 242.112 365.297 242.151V243.673C365.212 243.633 365.101 243.608 364.965 243.596C364.835 243.579 364.724 243.571 364.634 243.571C364.282 243.548 363.954 243.571 363.648 243.639C363.342 243.701 363.072 243.812 362.84 243.97C362.608 244.129 362.424 244.339 362.288 244.599C362.157 244.854 362.092 245.166 362.092 245.534V251H360.528ZM374.403 253.907C373.02 253.907 371.944 253.706 371.173 253.304C370.408 252.907 370.025 252.337 370.025 251.595C370.025 251.278 370.099 251.009 370.246 250.787C370.394 250.561 370.569 250.374 370.773 250.226C370.977 250.079 371.167 249.963 371.343 249.878C371.519 249.787 371.632 249.722 371.683 249.682C371.587 249.626 371.465 249.555 371.317 249.47C371.176 249.385 371.051 249.272 370.943 249.13C370.836 248.988 370.782 248.804 370.782 248.577C370.782 248.3 370.912 248.045 371.173 247.812C371.434 247.58 371.819 247.407 372.329 247.294C371.813 247.033 371.411 246.688 371.122 246.257C370.833 245.826 370.688 245.359 370.688 244.854C370.688 244.288 370.841 243.795 371.147 243.375C371.459 242.956 371.901 242.636 372.473 242.415C373.046 242.188 373.726 242.075 374.513 242.075C375.086 242.075 375.567 242.143 375.958 242.279C376.349 242.409 376.712 242.596 377.046 242.84C377.137 242.8 377.279 242.741 377.471 242.661C377.67 242.576 377.888 242.486 378.126 242.389C378.364 242.293 378.585 242.202 378.789 242.117C378.999 242.027 379.166 241.959 379.29 241.913L379.282 243.367L377.743 243.656C377.828 243.837 377.896 244.036 377.947 244.251C378.004 244.466 378.032 244.667 378.032 244.854C378.032 245.37 377.896 245.838 377.624 246.257C377.358 246.676 376.953 247.011 376.409 247.26C375.865 247.509 375.185 247.634 374.369 247.634C374.301 247.634 374.213 247.634 374.105 247.634C374.003 247.628 373.916 247.623 373.842 247.617C373.241 247.634 372.828 247.702 372.601 247.821C372.374 247.934 372.261 248.062 372.261 248.203C372.261 248.368 372.388 248.481 372.643 248.543C372.898 248.606 373.332 248.66 373.944 248.705C374.165 248.716 374.437 248.73 374.76 248.747C375.089 248.764 375.451 248.787 375.848 248.816C376.772 248.872 377.483 249.107 377.981 249.521C378.48 249.935 378.729 250.493 378.729 251.196C378.729 251.995 378.372 252.646 377.658 253.151C376.944 253.655 375.859 253.907 374.403 253.907ZM374.683 252.896C375.494 252.896 376.114 252.774 376.545 252.53C376.976 252.286 377.191 251.918 377.191 251.425C377.191 251.074 377.058 250.787 376.791 250.566C376.531 250.34 376.131 250.209 375.593 250.175L373.128 250.014C372.907 250.003 372.677 250.059 372.439 250.184C372.201 250.303 371.997 250.47 371.827 250.685C371.663 250.901 371.581 251.145 371.581 251.417C371.581 251.881 371.833 252.244 372.337 252.505C372.847 252.765 373.629 252.896 374.683 252.896ZM374.411 246.622C375.046 246.622 375.556 246.475 375.941 246.18C376.332 245.886 376.528 245.449 376.528 244.871C376.528 244.276 376.332 243.823 375.941 243.511C375.556 243.2 375.046 243.044 374.411 243.044C373.771 243.044 373.253 243.203 372.856 243.52C372.465 243.832 372.269 244.282 372.269 244.871C372.269 245.427 372.456 245.857 372.83 246.163C373.204 246.469 373.731 246.622 374.411 246.622ZM384.067 251.17C383.608 251.164 383.174 251.099 382.766 250.974C382.364 250.844 382.007 250.654 381.695 250.405C381.383 250.156 381.137 249.847 380.956 249.478C380.78 249.104 380.692 248.671 380.692 248.178V242.211H382.265V248.016C382.265 248.589 382.44 249.053 382.792 249.41C383.149 249.767 383.684 249.946 384.398 249.946C385.044 249.946 385.563 249.779 385.954 249.444C386.35 249.104 386.549 248.6 386.549 247.931V242.211H388.113V251H386.863L386.702 249.317C386.594 249.759 386.41 250.116 386.149 250.388C385.894 250.66 385.585 250.861 385.223 250.991C384.866 251.116 384.48 251.176 384.067 251.17ZM392.195 242.211V251H390.673V242.211H392.195ZM392.229 238.717V240.349H390.622V238.717H392.229ZM397.961 251.17C396.822 251.17 395.918 250.779 395.249 249.997C394.581 249.215 394.246 248.073 394.246 246.571C394.246 245.659 394.38 244.863 394.646 244.183C394.918 243.503 395.32 242.976 395.853 242.602C396.386 242.228 397.049 242.041 397.842 242.041C398.261 242.041 398.632 242.095 398.955 242.202C399.284 242.31 399.567 242.446 399.805 242.61C400.043 242.775 400.236 242.945 400.383 243.12C400.536 243.296 400.65 243.458 400.723 243.605V238.369H402.304V251H401.106L400.936 249.198C400.879 249.368 400.789 249.566 400.664 249.793C400.539 250.014 400.364 250.232 400.137 250.447C399.91 250.657 399.618 250.83 399.261 250.966C398.91 251.102 398.477 251.17 397.961 251.17ZM398.241 249.963C399.131 249.963 399.766 249.694 400.145 249.155C400.531 248.611 400.723 247.725 400.723 246.495C400.718 245.809 400.63 245.226 400.46 244.744C400.296 244.262 400.035 243.897 399.678 243.647C399.327 243.392 398.859 243.265 398.275 243.265C397.55 243.265 396.961 243.523 396.507 244.038C396.054 244.554 395.827 245.373 395.827 246.495C395.827 247.594 396.031 248.447 396.439 249.053C396.853 249.66 397.454 249.963 398.241 249.963ZM405.853 246.971C405.853 247.526 405.943 248.031 406.125 248.484C406.312 248.932 406.592 249.289 406.966 249.555C407.346 249.821 407.819 249.954 408.386 249.954C408.947 249.954 409.428 249.824 409.831 249.563C410.239 249.303 410.499 248.926 410.613 248.433H412.1C411.993 249.028 411.755 249.529 411.386 249.938C411.018 250.345 410.573 250.654 410.052 250.864C409.53 251.068 408.986 251.17 408.42 251.17C407.598 251.17 406.876 250.992 406.252 250.634C405.629 250.277 405.142 249.765 404.79 249.096C404.439 248.427 404.263 247.625 404.263 246.69C404.263 245.767 404.422 244.956 404.739 244.259C405.057 243.562 405.516 243.018 406.116 242.627C406.723 242.236 407.451 242.041 408.301 242.041C409.128 242.041 409.828 242.219 410.4 242.576C410.973 242.933 411.406 243.438 411.701 244.089C412.001 244.735 412.151 245.503 412.151 246.393V246.971H405.853ZM405.861 245.908H410.638C410.638 245.404 410.553 244.951 410.383 244.548C410.213 244.14 409.953 243.82 409.601 243.588C409.256 243.35 408.819 243.231 408.292 243.231C407.743 243.231 407.286 243.364 406.924 243.63C406.567 243.891 406.298 244.228 406.116 244.642C405.941 245.05 405.856 245.472 405.861 245.908ZM421.066 251.17C420.256 251.17 419.547 250.997 418.941 250.651C418.335 250.3 417.864 249.787 417.53 249.113C417.196 248.439 417.028 247.614 417.028 246.639C417.028 245.721 417.184 244.917 417.496 244.225C417.808 243.534 418.264 242.999 418.864 242.619C419.471 242.234 420.205 242.041 421.066 242.041C421.876 242.041 422.579 242.219 423.174 242.576C423.775 242.928 424.239 243.446 424.568 244.132C424.897 244.818 425.061 245.653 425.061 246.639C425.061 247.535 424.908 248.322 424.602 249.002C424.302 249.682 423.854 250.215 423.259 250.6C422.67 250.98 421.939 251.17 421.066 251.17ZM421.066 249.929C421.593 249.929 422.038 249.796 422.4 249.529C422.763 249.263 423.038 248.881 423.225 248.382C423.412 247.883 423.505 247.291 423.505 246.605C423.505 245.976 423.423 245.413 423.259 244.914C423.095 244.41 422.831 244.01 422.468 243.715C422.111 243.421 421.644 243.273 421.066 243.273C420.533 243.273 420.083 243.407 419.714 243.673C419.346 243.934 419.066 244.313 418.873 244.812C418.686 245.311 418.592 245.908 418.592 246.605C418.592 247.223 418.677 247.784 418.847 248.288C419.017 248.793 419.284 249.192 419.646 249.487C420.009 249.782 420.482 249.929 421.066 249.929ZM426.948 251V242.211H428.47V243.486C428.612 243.242 428.807 243.013 429.056 242.797C429.311 242.582 429.617 242.409 429.974 242.279C430.337 242.149 430.754 242.083 431.224 242.083C431.779 242.083 432.289 242.194 432.754 242.415C433.224 242.636 433.598 242.982 433.876 243.452C434.159 243.917 434.301 244.517 434.301 245.254V251H432.728V245.407C432.728 244.721 432.547 244.214 432.184 243.885C431.827 243.551 431.363 243.384 430.79 243.384C430.394 243.384 430.023 243.449 429.677 243.579C429.331 243.704 429.051 243.897 428.835 244.157C428.62 244.412 428.512 244.735 428.512 245.126V251H426.948ZM443.457 251.17C442.845 251.17 442.276 251.077 441.749 250.889C441.228 250.697 440.794 250.399 440.448 249.997C440.103 249.589 439.885 249.07 439.794 248.441H441.222C441.301 248.787 441.443 249.076 441.647 249.308C441.857 249.535 442.117 249.708 442.429 249.827C442.741 249.94 443.081 249.997 443.449 249.997C444.038 249.997 444.514 249.886 444.877 249.665C445.24 249.444 445.421 249.104 445.421 248.645C445.421 248.322 445.325 248.065 445.132 247.872C444.945 247.674 444.653 247.529 444.256 247.438L442.437 246.988C441.729 246.818 441.162 246.552 440.737 246.189C440.312 245.826 440.1 245.319 440.1 244.667C440.094 244.152 440.216 243.698 440.465 243.307C440.715 242.916 441.089 242.608 441.587 242.381C442.086 242.154 442.707 242.041 443.449 242.041C444.401 242.041 445.169 242.256 445.752 242.687C446.342 243.112 446.648 243.738 446.67 244.565H445.285C445.228 244.146 445.038 243.815 444.715 243.571C444.398 243.322 443.97 243.197 443.432 243.197C442.871 243.197 442.415 243.31 442.063 243.537C441.712 243.758 441.536 244.104 441.536 244.574C441.536 244.886 441.661 245.132 441.91 245.313C442.16 245.489 442.528 245.636 443.015 245.755L444.775 246.198C445.183 246.305 445.517 246.447 445.778 246.622C446.044 246.798 446.254 246.994 446.407 247.209C446.566 247.424 446.676 247.651 446.738 247.889C446.806 248.121 446.84 248.345 446.84 248.56C446.84 249.099 446.704 249.563 446.432 249.954C446.166 250.34 445.781 250.64 445.276 250.855C444.778 251.065 444.171 251.17 443.457 251.17ZM449.989 246.971C449.989 247.526 450.08 248.031 450.261 248.484C450.448 248.932 450.729 249.289 451.103 249.555C451.482 249.821 451.955 249.954 452.522 249.954C453.083 249.954 453.565 249.824 453.967 249.563C454.375 249.303 454.636 248.926 454.749 248.433H456.237C456.129 249.028 455.891 249.529 455.523 249.938C455.154 250.345 454.709 250.654 454.188 250.864C453.667 251.068 453.123 251.17 452.556 251.17C451.734 251.17 451.012 250.992 450.389 250.634C449.765 250.277 449.278 249.765 448.927 249.096C448.575 248.427 448.4 247.625 448.4 246.69C448.4 245.767 448.558 244.956 448.876 244.259C449.193 243.562 449.652 243.018 450.253 242.627C450.859 242.236 451.587 242.041 452.437 242.041C453.264 242.041 453.964 242.219 454.537 242.576C455.109 242.933 455.542 243.438 455.837 244.089C456.137 244.735 456.288 245.503 456.288 246.393V246.971H449.989ZM449.998 245.908H454.775C454.775 245.404 454.69 244.951 454.52 244.548C454.35 244.14 454.089 243.82 453.738 243.588C453.392 243.35 452.956 243.231 452.429 243.231C451.879 243.231 451.423 243.364 451.06 243.63C450.703 243.891 450.434 244.228 450.253 244.642C450.077 245.05 449.992 245.472 449.998 245.908ZM465.431 251H463.722L461.164 247.557L458.622 251H456.897L460.288 246.435L457.169 242.211H458.886L461.164 245.296L463.45 242.211H465.167L462.039 246.435L465.431 251ZM185.426 277.737V266.211H186.99L187.007 267.741C187.109 267.56 187.239 267.37 187.398 267.171C187.562 266.973 187.761 266.789 187.993 266.619C188.231 266.449 188.506 266.31 188.817 266.202C189.135 266.095 189.495 266.041 189.897 266.041C190.6 266.041 191.217 266.202 191.75 266.525C192.288 266.843 192.708 267.33 193.008 267.987C193.308 268.645 193.458 269.478 193.458 270.486C193.458 271.495 193.311 272.348 193.016 273.045C192.727 273.736 192.308 274.263 191.758 274.626C191.209 274.989 190.546 275.17 189.769 275.17C189.378 275.17 189.03 275.113 188.724 275C188.424 274.892 188.16 274.751 187.933 274.575C187.712 274.394 187.525 274.201 187.372 273.997C187.225 273.793 187.103 273.597 187.007 273.41V277.737H185.426ZM189.472 273.946C190.197 273.946 190.789 273.671 191.248 273.121C191.707 272.566 191.937 271.705 191.937 270.537C191.937 269.534 191.727 268.738 191.308 268.149C190.889 267.56 190.277 267.265 189.472 267.265C188.656 267.265 188.038 267.568 187.619 268.174C187.2 268.775 186.99 269.563 186.99 270.537C186.99 271.166 187.083 271.739 187.27 272.254C187.457 272.77 187.735 273.181 188.103 273.487C188.472 273.793 188.928 273.946 189.472 273.946ZM198.843 275.17C198.033 275.17 197.324 274.997 196.718 274.651C196.112 274.3 195.641 273.787 195.307 273.113C194.973 272.439 194.806 271.614 194.806 270.639C194.806 269.721 194.961 268.917 195.273 268.225C195.585 267.534 196.041 266.999 196.642 266.619C197.248 266.234 197.982 266.041 198.843 266.041C199.653 266.041 200.356 266.219 200.951 266.576C201.552 266.928 202.016 267.446 202.345 268.132C202.674 268.818 202.838 269.653 202.838 270.639C202.838 271.535 202.685 272.322 202.379 273.002C202.079 273.682 201.631 274.215 201.036 274.6C200.447 274.98 199.716 275.17 198.843 275.17ZM198.843 273.929C199.37 273.929 199.815 273.796 200.178 273.529C200.54 273.263 200.815 272.881 201.002 272.382C201.189 271.883 201.283 271.291 201.283 270.605C201.283 269.976 201.2 269.413 201.036 268.914C200.872 268.41 200.608 268.01 200.246 267.715C199.889 267.421 199.421 267.273 198.843 267.273C198.31 267.273 197.86 267.407 197.492 267.673C197.123 267.934 196.843 268.313 196.65 268.812C196.463 269.311 196.37 269.908 196.37 270.605C196.37 271.223 196.455 271.784 196.625 272.288C196.795 272.793 197.061 273.192 197.424 273.487C197.786 273.782 198.259 273.929 198.843 273.929ZM207.795 275.17C207.183 275.17 206.614 275.077 206.087 274.889C205.565 274.697 205.132 274.399 204.786 273.997C204.441 273.589 204.222 273.07 204.132 272.441H205.56C205.639 272.787 205.781 273.076 205.985 273.308C206.194 273.535 206.455 273.708 206.767 273.827C207.078 273.94 207.418 273.997 207.787 273.997C208.376 273.997 208.852 273.886 209.215 273.665C209.577 273.444 209.759 273.104 209.759 272.645C209.759 272.322 209.662 272.065 209.47 271.872C209.283 271.674 208.991 271.529 208.594 271.438L206.775 270.988C206.067 270.818 205.5 270.552 205.075 270.189C204.65 269.826 204.438 269.319 204.438 268.667C204.432 268.152 204.554 267.698 204.803 267.307C205.053 266.916 205.427 266.608 205.925 266.381C206.424 266.154 207.044 266.041 207.787 266.041C208.739 266.041 209.507 266.256 210.09 266.687C210.68 267.112 210.986 267.738 211.008 268.565H209.623C209.566 268.146 209.376 267.815 209.053 267.571C208.736 267.322 208.308 267.197 207.77 267.197C207.209 267.197 206.753 267.31 206.401 267.537C206.05 267.758 205.874 268.104 205.874 268.574C205.874 268.886 205.999 269.132 206.248 269.313C206.498 269.489 206.866 269.636 207.353 269.755L209.113 270.198C209.521 270.305 209.855 270.447 210.116 270.622C210.382 270.798 210.592 270.994 210.745 271.209C210.903 271.424 211.014 271.651 211.076 271.889C211.144 272.121 211.178 272.345 211.178 272.56C211.178 273.099 211.042 273.563 210.77 273.954C210.504 274.34 210.119 274.64 209.614 274.855C209.116 275.065 208.509 275.17 207.795 275.17ZM214.905 266.211V275H213.383V266.211H214.905ZM214.939 262.717V264.349H213.332V262.717H214.939ZM222.082 267.358H220.102V272.824C220.102 273.136 220.133 273.365 220.195 273.512C220.263 273.654 220.374 273.745 220.527 273.784C220.685 273.824 220.901 273.844 221.173 273.844H222.133V274.898C222.026 274.938 221.861 274.972 221.64 275C221.425 275.028 221.156 275.043 220.833 275.043C220.226 275.043 219.756 274.96 219.422 274.796C219.087 274.632 218.852 274.388 218.716 274.065C218.586 273.742 218.521 273.345 218.521 272.875V267.358H217.093V266.211H218.563L218.946 263.652H220.102V266.202H222.082V267.358ZM225.871 266.211V275H224.349V266.211H225.871ZM225.905 262.717V264.349H224.298V262.717H225.905ZM231.96 275.17C231.15 275.17 230.441 274.997 229.835 274.651C229.229 274.3 228.758 273.787 228.424 273.113C228.09 272.439 227.922 271.614 227.922 270.639C227.922 269.721 228.078 268.917 228.39 268.225C228.702 267.534 229.158 266.999 229.758 266.619C230.365 266.234 231.099 266.041 231.96 266.041C232.77 266.041 233.473 266.219 234.068 266.576C234.669 266.928 235.133 267.446 235.462 268.132C235.791 268.818 235.955 269.653 235.955 270.639C235.955 271.535 235.802 272.322 235.496 273.002C235.196 273.682 234.748 274.215 234.153 274.6C233.564 274.98 232.833 275.17 231.96 275.17ZM231.96 273.929C232.487 273.929 232.932 273.796 233.294 273.529C233.657 273.263 233.932 272.881 234.119 272.382C234.306 271.883 234.399 271.291 234.399 270.605C234.399 269.976 234.317 269.413 234.153 268.914C233.989 268.41 233.725 268.01 233.362 267.715C233.005 267.421 232.538 267.273 231.96 267.273C231.427 267.273 230.977 267.407 230.608 267.673C230.24 267.934 229.96 268.313 229.767 268.812C229.58 269.311 229.486 269.908 229.486 270.605C229.486 271.223 229.571 271.784 229.741 272.288C229.911 272.793 230.178 273.192 230.54 273.487C230.903 273.782 231.376 273.929 231.96 273.929ZM237.842 275V266.211H239.364V267.486C239.505 267.242 239.701 267.013 239.95 266.797C240.205 266.582 240.511 266.409 240.868 266.279C241.231 266.149 241.647 266.083 242.118 266.083C242.673 266.083 243.183 266.194 243.648 266.415C244.118 266.636 244.492 266.982 244.77 267.452C245.053 267.917 245.195 268.517 245.195 269.254V275H243.622V269.407C243.622 268.721 243.441 268.214 243.078 267.885C242.721 267.551 242.257 267.384 241.684 267.384C241.288 267.384 240.916 267.449 240.571 267.579C240.225 267.704 239.945 267.897 239.729 268.157C239.514 268.412 239.406 268.735 239.406 269.126V275H237.842ZM250.47 275.17C249.858 275.17 249.289 275.077 248.762 274.889C248.241 274.697 247.807 274.399 247.461 273.997C247.116 273.589 246.898 273.07 246.807 272.441H248.235C248.314 272.787 248.456 273.076 248.66 273.308C248.87 273.535 249.13 273.708 249.442 273.827C249.754 273.94 250.094 273.997 250.462 273.997C251.051 273.997 251.527 273.886 251.89 273.665C252.253 273.444 252.434 273.104 252.434 272.645C252.434 272.322 252.338 272.065 252.145 271.872C251.958 271.674 251.666 271.529 251.269 271.438L249.45 270.988C248.742 270.818 248.175 270.552 247.75 270.189C247.325 269.826 247.113 269.319 247.113 268.667C247.107 268.152 247.229 267.698 247.478 267.307C247.728 266.916 248.102 266.608 248.6 266.381C249.099 266.154 249.72 266.041 250.462 266.041C251.414 266.041 252.182 266.256 252.765 266.687C253.355 267.112 253.661 267.738 253.683 268.565H252.298C252.241 268.146 252.051 267.815 251.728 267.571C251.411 267.322 250.983 267.197 250.445 267.197C249.884 267.197 249.428 267.31 249.076 267.537C248.725 267.758 248.549 268.104 248.549 268.574C248.549 268.886 248.674 269.132 248.923 269.313C249.173 269.489 249.541 269.636 250.028 269.755L251.788 270.198C252.196 270.305 252.53 270.447 252.791 270.622C253.057 270.798 253.267 270.994 253.42 271.209C253.579 271.424 253.689 271.651 253.751 271.889C253.819 272.121 253.853 272.345 253.853 272.56C253.853 273.099 253.717 273.563 253.445 273.954C253.179 274.34 252.794 274.64 252.289 274.855C251.791 275.065 251.184 275.17 250.47 275.17ZM261.993 275.17C261.426 275.17 260.925 275.071 260.488 274.872C260.052 274.668 259.709 274.377 259.46 273.997C259.216 273.617 259.094 273.158 259.094 272.62C259.094 271.645 259.434 270.92 260.114 270.444C260.794 269.968 261.885 269.713 263.387 269.679L264.959 269.636V268.948C264.959 268.41 264.798 267.985 264.475 267.673C264.152 267.356 263.65 267.197 262.97 267.197C262.466 267.203 262.021 267.322 261.636 267.554C261.256 267.786 261.01 268.166 260.896 268.693H259.511C259.545 268.121 259.706 267.639 259.995 267.248C260.284 266.851 260.687 266.551 261.202 266.347C261.724 266.143 262.338 266.041 263.047 266.041C263.812 266.041 264.446 266.149 264.951 266.364C265.461 266.579 265.84 266.897 266.09 267.316C266.345 267.735 266.472 268.251 266.472 268.863V275H265.129L265.019 273.351C264.679 274.037 264.245 274.513 263.718 274.779C263.197 275.04 262.622 275.17 261.993 275.17ZM262.469 274.039C262.763 274.039 263.055 273.986 263.344 273.878C263.639 273.77 263.908 273.626 264.152 273.444C264.395 273.257 264.588 273.051 264.73 272.824C264.877 272.592 264.954 272.354 264.959 272.11V270.605L263.65 270.631C262.982 270.642 262.421 270.71 261.967 270.835C261.52 270.96 261.182 271.155 260.956 271.421C260.735 271.688 260.624 272.036 260.624 272.467C260.624 272.96 260.794 273.345 261.134 273.623C261.48 273.901 261.925 274.039 262.469 274.039ZM268.987 275V266.211H270.509V267.486C270.651 267.242 270.846 267.013 271.095 266.797C271.35 266.582 271.656 266.409 272.013 266.279C272.376 266.149 272.793 266.083 273.263 266.083C273.818 266.083 274.328 266.194 274.793 266.415C275.263 266.636 275.637 266.982 275.915 267.452C276.198 267.917 276.34 268.517 276.34 269.254V275H274.767V269.407C274.767 268.721 274.586 268.214 274.223 267.885C273.866 267.551 273.402 267.384 272.829 267.384C272.433 267.384 272.062 267.449 271.716 267.579C271.37 267.704 271.09 267.897 270.874 268.157C270.659 268.412 270.551 268.735 270.551 269.126V275H268.987ZM281.799 275.17C280.66 275.17 279.757 274.779 279.088 273.997C278.419 273.215 278.085 272.073 278.085 270.571C278.085 269.659 278.218 268.863 278.484 268.183C278.756 267.503 279.159 266.976 279.691 266.602C280.224 266.228 280.887 266.041 281.68 266.041C282.1 266.041 282.471 266.095 282.794 266.202C283.123 266.31 283.406 266.446 283.644 266.61C283.882 266.775 284.075 266.945 284.222 267.12C284.375 267.296 284.488 267.458 284.562 267.605V262.369H286.143V275H284.944L284.774 273.198C284.718 273.368 284.627 273.566 284.502 273.793C284.378 274.014 284.202 274.232 283.975 274.447C283.749 274.657 283.457 274.83 283.1 274.966C282.749 275.102 282.315 275.17 281.799 275.17ZM282.08 273.963C282.97 273.963 283.604 273.694 283.984 273.155C284.369 272.611 284.562 271.725 284.562 270.495C284.556 269.809 284.468 269.226 284.298 268.744C284.134 268.262 283.873 267.897 283.516 267.647C283.165 267.392 282.698 267.265 282.114 267.265C281.389 267.265 280.799 267.523 280.346 268.038C279.893 268.554 279.666 269.373 279.666 270.495C279.666 271.594 279.87 272.447 280.278 273.053C280.692 273.66 281.292 273.963 282.08 273.963ZM292.317 277.737V266.211H293.881L293.898 267.741C294 267.56 294.131 267.37 294.289 267.171C294.454 266.973 294.652 266.789 294.884 266.619C295.122 266.449 295.397 266.31 295.709 266.202C296.026 266.095 296.386 266.041 296.788 266.041C297.491 266.041 298.109 266.202 298.641 266.525C299.18 266.843 299.599 267.33 299.899 267.987C300.2 268.645 300.35 269.478 300.35 270.486C300.35 271.495 300.202 272.348 299.908 273.045C299.619 273.736 299.199 274.263 298.65 274.626C298.1 274.989 297.437 275.17 296.661 275.17C296.27 275.17 295.921 275.113 295.615 275C295.315 274.892 295.051 274.751 294.825 274.575C294.604 274.394 294.417 274.201 294.264 273.997C294.116 273.793 293.995 273.597 293.898 273.41V277.737H292.317ZM296.363 273.946C297.089 273.946 297.681 273.671 298.14 273.121C298.599 272.566 298.828 271.705 298.828 270.537C298.828 269.534 298.619 268.738 298.199 268.149C297.78 267.56 297.168 267.265 296.363 267.265C295.547 267.265 294.93 267.568 294.51 268.174C294.091 268.775 293.881 269.563 293.881 270.537C293.881 271.166 293.975 271.739 294.162 272.254C294.349 272.77 294.626 273.181 294.995 273.487C295.363 273.793 295.819 273.946 296.363 273.946ZM302.241 275V266.211H303.737V267.902C303.884 267.483 304.091 267.137 304.358 266.865C304.624 266.588 304.927 266.381 305.267 266.245C305.613 266.109 305.97 266.041 306.338 266.041C306.468 266.041 306.596 266.049 306.721 266.067C306.845 266.083 306.942 266.112 307.01 266.151V267.673C306.925 267.633 306.814 267.608 306.678 267.596C306.548 267.579 306.437 267.571 306.347 267.571C305.995 267.548 305.667 267.571 305.361 267.639C305.055 267.701 304.785 267.812 304.553 267.97C304.321 268.129 304.137 268.339 304.001 268.599C303.87 268.854 303.805 269.166 303.805 269.534V275H302.241ZM310.362 266.211V275H308.84V266.211H310.362ZM310.396 262.717V264.349H308.789V262.717H310.396ZM319.826 266.211L316.655 275H315.227L312.048 266.211H313.527L315.865 273.028H316.009L318.355 266.211H319.826ZM323.453 275.17C322.886 275.17 322.385 275.071 321.949 274.872C321.512 274.668 321.169 274.377 320.92 273.997C320.676 273.617 320.555 273.158 320.555 272.62C320.555 271.645 320.895 270.92 321.575 270.444C322.255 269.968 323.345 269.713 324.847 269.679L326.42 269.636V268.948C326.42 268.41 326.258 267.985 325.935 267.673C325.612 267.356 325.111 267.197 324.431 267.197C323.926 267.203 323.481 267.322 323.096 267.554C322.716 267.786 322.47 268.166 322.357 268.693H320.971C321.005 268.121 321.167 267.639 321.456 267.248C321.745 266.851 322.147 266.551 322.663 266.347C323.184 266.143 323.799 266.041 324.507 266.041C325.272 266.041 325.907 266.149 326.411 266.364C326.921 266.579 327.301 266.897 327.55 267.316C327.805 267.735 327.933 268.251 327.933 268.863V275H326.59L326.479 273.351C326.139 274.037 325.706 274.513 325.179 274.779C324.657 275.04 324.082 275.17 323.453 275.17ZM323.929 274.039C324.224 274.039 324.516 273.986 324.805 273.878C325.099 273.77 325.368 273.626 325.612 273.444C325.856 273.257 326.048 273.051 326.19 272.824C326.337 272.592 326.414 272.354 326.42 272.11V270.605L325.111 270.631C324.442 270.642 323.881 270.71 323.428 270.835C322.98 270.96 322.643 271.155 322.416 271.421C322.195 271.688 322.085 272.036 322.085 272.467C322.085 272.96 322.255 273.345 322.595 273.623C322.94 273.901 323.385 274.039 323.929 274.039ZM333.95 266.041C334.579 266.041 335.145 266.163 335.65 266.406C336.154 266.644 336.565 266.984 336.882 267.426C337.205 267.868 337.406 268.39 337.486 268.99H336.092C336.041 268.684 335.922 268.404 335.735 268.149C335.553 267.894 335.313 267.69 335.012 267.537C334.712 267.384 334.361 267.307 333.958 267.307C333.205 267.307 332.593 267.579 332.122 268.123C331.652 268.667 331.417 269.5 331.417 270.622C331.417 271.637 331.632 272.45 332.063 273.062C332.499 273.668 333.139 273.971 333.984 273.971C334.386 273.971 334.735 273.895 335.029 273.742C335.33 273.583 335.57 273.376 335.752 273.121C335.933 272.861 336.049 272.583 336.1 272.288H337.469C337.395 272.878 337.197 273.388 336.874 273.818C336.551 274.249 336.137 274.583 335.633 274.821C335.134 275.054 334.573 275.17 333.95 275.17C333.162 275.17 332.462 274.997 331.85 274.651C331.244 274.306 330.768 273.796 330.422 273.121C330.077 272.447 329.904 271.62 329.904 270.639C329.904 269.721 330.06 268.92 330.371 268.234C330.689 267.543 331.148 267.004 331.748 266.619C332.355 266.234 333.088 266.041 333.95 266.041ZM340.159 277.805C339.644 277.805 339.29 277.768 339.097 277.695C338.904 277.621 338.808 277.584 338.808 277.584V276.564L339.7 276.581C340.029 276.592 340.301 276.57 340.516 276.513C340.732 276.456 340.905 276.38 341.035 276.284C341.165 276.187 341.264 276.08 341.332 275.961C341.406 275.842 341.466 275.728 341.511 275.621L341.817 274.787L338.383 266.211H339.972L342.565 272.994L345.14 266.211H346.679L342.973 275.663C342.746 276.218 342.491 276.652 342.208 276.964C341.93 277.275 341.619 277.493 341.273 277.618C340.933 277.743 340.562 277.805 340.159 277.805ZM346.975 275V272.994H348.845V275H346.975Z" fill="black"/>
<path d="M190.5 92.5C143.333 87.6667 42.7 97.3 17.5 174.5C-14 271 19 334 76 371C121.6 400.6 246.667 394 303.5 387C360.5 388.5 480.1 378.6 502.5 327C530.5 262.5 544 202.5 502.5 152C461 101.5 414.5 92.5 355 92.5" stroke="black" stroke-width="10" stroke-linecap="round"/>
</svg>
