<svg width="535" height="398" viewBox="0 0 535 398" fill="none" xmlns="http://www.w3.org/2000/svg">
<rect y="91" width="535" height="296" rx="148" fill="white"/>
<path fill-rule="evenodd" clip-rule="evenodd" d="M276.654 127.846C277.229 127.271 277.969 126.888 278.766 126.727C307.996 120.81 330 94.9746 330 64C330 28.6538 301.346 0 266 0C230.654 0 202 28.6538 202 64C202 94.5526 223.409 120.105 252.043 126.474C252.811 126.644 253.521 127.021 254.077 127.577L262.672 136.172C264.234 137.734 266.766 137.734 268.328 136.172L276.654 127.846Z" fill="white"/>
<path d="M252.5 126.5C256.961 126.996 259.52 138.111 265.69 138.765C272.213 139.457 270.5 125.778 292.5 121.5C319.343 116.281 332.355 96.9237 333.5 66C334.746 32.3602 315.6 5 276 5C241.663 5 214.203 20.685 207 55.5C201 84.5 218.127 114.657 237.5 119.5" stroke="black" stroke-width="10" stroke-linecap="round"/>
<path d="M234.956 59.5143C242.27 52.4149 252.924 57.3233 261.78 55.925C269.71 54.6729 277.553 52.165 284.591 48.2628C289.288 45.6583 293.79 43.353 297.982 40" stroke="black" stroke-width="10" stroke-linecap="round"/>
<path d="M297.88 40.2134C302.651 46.4765 305.481 54.7689 310.488 60.5252" stroke="black" stroke-width="10" stroke-linecap="round"/>
<path d="M231 61.8877C232.616 65.8834 233.953 69.7846 235.073 73.9303C235.822 76.7032 237.028 79.3643 237.651 82.1638C237.74 82.5628 238.069 86.7013 238.648 86.6761C240.387 86.6005 242.053 85.4016 243.658 84.8302C246.494 83.8206 249.866 84.3028 252.829 84.3028C256.636 84.3028 260.381 84.7745 264.168 84.8302C274.687 84.9849 286.596 85.5021 295.403 78.5891C299.307 75.5245 302.498 72.621 304.838 68.2752C305.822 66.4481 308.754 62.1756 310.488 60.8754" stroke="black" stroke-width="10" stroke-linecap="round"/>
<path d="M273.71 61.8339C270.329 62.0869 265.57 61.8462 263.699 65.0937C261.137 69.5401 266.173 72.6634 269.86 74.7934C273.706 77.0152 279.921 76.177 282.182 72.2094C286.265 65.0438 274.092 58.2572 267.164 60.4028" stroke="black" stroke-width="10" stroke-linecap="round"/>
<path d="M291 47C291.966 48.265 293.829 48.972 295.81 48.972C296.361 48.972 297.054 49.0504 297.588 48.9447C298.102 48.8428 298.451 48.479 299 48.479" stroke="black" stroke-width="10" stroke-linecap="round"/>
<path d="M307 59C305.615 59.9425 303.271 61.0704 302.501 62.403C301.881 63.4754 301.801 65.2447 302.46 66.2985C302.774 66.8018 303.519 67.5347 304.227 67.806C304.494 67.9087 304.65 67.8095 304.781 68" stroke="black" stroke-width="10" stroke-linecap="round"/>
<path d="M238 80.5854C241.378 78.9275 245.636 77.2282 248 83" stroke="black" stroke-width="10" stroke-linecap="round"/>
<path d="M235 65C238.017 63.3241 240.175 60.6651 241 57" stroke="black" stroke-width="10" stroke-linecap="round"/>
<path d="M241.508 183.072C240.804 182.688 239.796 182.496 238.484 182.496C238.036 182.496 237.7 182.512 237.476 182.544L236.276 182.688V189.696L237.428 189.456C238.292 189.296 239.364 188.832 240.644 188.064C241.956 187.264 242.724 186.608 242.948 186.096C243.044 185.904 243.092 185.696 243.092 185.472C243.092 185.024 242.932 184.576 242.612 184.128C242.324 183.648 241.956 183.296 241.508 183.072ZM237.764 172.368C237.764 172.144 237.62 172.032 237.332 172.032C236.98 172.032 236.66 172.176 236.372 172.464C236.084 172.752 235.94 173.28 235.94 174.048C235.94 174.656 236.052 174.96 236.276 174.96C236.468 174.96 236.756 174.608 237.14 173.904C237.556 173.2 237.764 172.688 237.764 172.368ZM234.26 167.04C234.932 166.72 235.94 166.56 237.284 166.56C238.66 166.56 239.732 166.72 240.5 167.04C241.204 167.328 241.828 167.872 242.372 168.672C242.948 169.44 243.316 170.304 243.476 171.264C243.508 171.392 243.524 171.584 243.524 171.84C243.524 172.16 243.316 172.88 242.9 174C242.484 175.12 242.276 176.016 242.276 176.688C242.276 177.008 242.804 177.44 243.86 177.984C245.972 179.104 247.396 180.56 248.132 182.352C248.516 183.28 248.708 184.272 248.708 185.328C248.708 187.504 248.068 189.264 246.788 190.608C245.668 191.792 243.924 192.896 241.556 193.92C239.188 194.944 237.188 195.456 235.556 195.456C234.436 195.456 233.54 195.2 232.868 194.688C232.228 194.144 231.908 193.424 231.908 192.528C231.908 191.76 231.684 191.072 231.236 190.464C230.98 190.08 230.804 189.392 230.708 188.4C230.612 187.408 230.5 185.36 230.372 182.256C230.212 177.488 230.036 174.656 229.844 173.76C229.78 173.184 229.748 172.736 229.748 172.416C229.748 172.16 229.78 171.872 229.844 171.552C229.972 171.04 230.564 170.24 231.62 169.152C232.676 168.064 233.556 167.36 234.26 167.04ZM255.378 172.944C255.986 172.688 256.514 172.56 256.962 172.56C257.57 172.56 258.13 172.768 258.642 173.184C259.058 173.504 259.314 173.968 259.41 174.576C259.506 175.184 259.618 176.784 259.746 179.376C259.874 182.352 260.114 184.56 260.466 186C260.85 187.408 261.426 188.416 262.194 189.024C262.802 189.472 263.25 189.696 263.538 189.696C263.89 189.696 264.434 189.376 265.17 188.736C266.194 187.776 267.25 185.984 268.338 183.36C269.458 180.704 270.018 178.64 270.018 177.168C270.018 176.592 270.29 175.936 270.834 175.2C271.41 174.528 272.098 174.192 272.898 174.192C273.73 174.192 274.45 174.544 275.058 175.248C275.57 175.792 275.826 176.384 275.826 177.024C275.826 177.184 275.794 177.616 275.73 178.32C275.346 181.424 274.226 184.768 272.37 188.352C271.346 190.432 269.986 192.176 268.29 193.584C266.626 194.992 265.058 195.696 263.586 195.696C262.242 195.696 260.818 195.136 259.314 194.016C257.81 192.896 256.674 191.568 255.906 190.032C255.234 188.656 254.77 187.344 254.514 186.096C254.29 184.816 254.098 182.832 253.938 180.144C253.874 178.672 253.842 177.744 253.842 177.36C253.842 175.952 253.954 174.944 254.178 174.336C254.402 173.696 254.802 173.232 255.378 172.944ZM300.326 170.832C300.518 170.8 300.774 170.784 301.094 170.784C302.086 170.784 302.854 171.12 303.398 171.792C303.942 172.464 304.214 173.44 304.214 174.72C304.214 176.832 303.766 178.832 302.87 180.72C302.006 182.576 300.838 184.032 299.366 185.088L297.542 186.432L297.734 188.448C298.054 191.968 298.214 194.256 298.214 195.312C298.214 196.528 298.102 197.408 297.878 197.952C297.654 198.496 297.27 198.96 296.726 199.344C296.342 199.6 295.894 199.728 295.382 199.728C294.614 199.728 293.894 199.376 293.222 198.672C292.71 198.064 292.454 197.12 292.454 195.84C292.454 194.656 292.39 192.848 292.262 190.416L292.022 187.056L289.862 186.432C288.39 186.016 287.19 185.376 286.262 184.512C285.462 183.776 284.406 182.256 283.094 179.952C281.782 177.648 281.126 176.144 281.126 175.44C281.126 174.736 281.462 174.112 282.134 173.568C282.806 173.024 283.526 172.752 284.294 172.752C284.806 172.752 285.254 172.896 285.638 173.184C285.926 173.376 286.71 174.64 287.99 176.976C288.886 178.608 289.494 179.6 289.814 179.952C290.166 180.304 290.854 180.656 291.878 181.008C292.838 181.36 293.51 181.536 293.894 181.536C294.214 181.536 294.678 181.36 295.286 181.008C296.31 180.464 297.046 179.744 297.494 178.848C297.942 177.92 298.166 176.672 298.166 175.104C298.166 173.664 298.326 172.624 298.646 171.984C298.966 171.344 299.526 170.96 300.326 170.832Z" fill="black"/>
<path d="M149.735 250.709H151.308V263H149.735V250.709ZM154.057 263V254.211H155.578V255.486C155.72 255.242 155.916 255.013 156.165 254.797C156.42 254.582 156.726 254.409 157.083 254.279C157.446 254.149 157.862 254.083 158.332 254.083C158.888 254.083 159.398 254.194 159.862 254.415C160.333 254.636 160.707 254.982 160.984 255.452C161.268 255.917 161.409 256.517 161.409 257.254V263H159.837V257.407C159.837 256.721 159.656 256.214 159.293 255.885C158.936 255.551 158.471 255.384 157.899 255.384C157.502 255.384 157.131 255.449 156.785 255.579C156.44 255.704 156.159 255.897 155.944 256.157C155.729 256.412 155.621 256.735 155.621 257.126V263H154.057ZM166.685 263.17C166.073 263.17 165.504 263.077 164.977 262.889C164.455 262.697 164.022 262.399 163.676 261.997C163.33 261.589 163.112 261.07 163.022 260.441H164.45C164.529 260.787 164.671 261.076 164.875 261.308C165.084 261.535 165.345 261.708 165.657 261.827C165.968 261.94 166.308 261.997 166.677 261.997C167.266 261.997 167.742 261.886 168.105 261.665C168.467 261.444 168.649 261.104 168.649 260.645C168.649 260.322 168.552 260.065 168.36 259.872C168.173 259.674 167.881 259.529 167.484 259.438L165.665 258.988C164.957 258.818 164.39 258.552 163.965 258.189C163.54 257.826 163.328 257.319 163.328 256.667C163.322 256.152 163.444 255.698 163.693 255.307C163.942 254.916 164.316 254.608 164.815 254.381C165.314 254.154 165.934 254.041 166.677 254.041C167.629 254.041 168.396 254.256 168.98 254.687C169.569 255.112 169.875 255.738 169.898 256.565H168.513C168.456 256.146 168.266 255.815 167.943 255.571C167.626 255.322 167.198 255.197 166.66 255.197C166.099 255.197 165.642 255.31 165.291 255.537C164.94 255.758 164.764 256.104 164.764 256.574C164.764 256.886 164.889 257.132 165.138 257.313C165.387 257.489 165.756 257.636 166.243 257.755L168.003 258.198C168.411 258.305 168.745 258.447 169.006 258.622C169.272 258.798 169.482 258.994 169.635 259.209C169.793 259.424 169.904 259.651 169.966 259.889C170.034 260.121 170.068 260.345 170.068 260.56C170.068 261.099 169.932 261.563 169.66 261.954C169.394 262.34 169.008 262.64 168.504 262.855C168.005 263.065 167.399 263.17 166.685 263.17ZM176.361 255.358H174.38V260.824C174.38 261.136 174.412 261.365 174.474 261.512C174.542 261.654 174.652 261.745 174.805 261.784C174.964 261.824 175.179 261.844 175.451 261.844H176.412V262.898C176.304 262.938 176.14 262.972 175.919 263C175.704 263.028 175.434 263.043 175.111 263.043C174.505 263.043 174.035 262.96 173.7 262.796C173.366 262.632 173.131 262.388 172.995 262.065C172.865 261.742 172.799 261.345 172.799 260.875V255.358H171.371V254.211H172.842L173.224 251.652H174.38V254.202H176.361V255.358ZM180.83 263.17C180.264 263.17 179.762 263.071 179.326 262.872C178.89 262.668 178.547 262.377 178.297 261.997C178.054 261.617 177.932 261.158 177.932 260.62C177.932 259.645 178.272 258.92 178.952 258.444C179.632 257.968 180.723 257.713 182.224 257.679L183.797 257.636V256.948C183.797 256.41 183.635 255.985 183.312 255.673C182.989 255.356 182.488 255.197 181.808 255.197C181.304 255.203 180.859 255.322 180.473 255.554C180.094 255.786 179.847 256.166 179.734 256.693H178.348C178.382 256.121 178.544 255.639 178.833 255.248C179.122 254.851 179.524 254.551 180.04 254.347C180.561 254.143 181.176 254.041 181.884 254.041C182.649 254.041 183.284 254.149 183.788 254.364C184.298 254.579 184.678 254.897 184.927 255.316C185.182 255.735 185.31 256.251 185.31 256.863V263H183.967L183.856 261.351C183.516 262.037 183.083 262.513 182.556 262.779C182.035 263.04 181.459 263.17 180.83 263.17ZM181.306 262.039C181.601 262.039 181.893 261.986 182.182 261.878C182.477 261.77 182.746 261.626 182.989 261.444C183.233 261.257 183.426 261.051 183.567 260.824C183.715 260.592 183.791 260.354 183.797 260.11V258.605L182.488 258.631C181.819 258.642 181.258 258.71 180.805 258.835C180.357 258.96 180.02 259.155 179.793 259.421C179.572 259.688 179.462 260.036 179.462 260.467C179.462 260.96 179.632 261.345 179.972 261.623C180.318 261.901 180.762 262.039 181.306 262.039ZM187.825 263V254.211H189.347V255.486C189.488 255.242 189.684 255.013 189.933 254.797C190.188 254.582 190.494 254.409 190.851 254.279C191.214 254.149 191.63 254.083 192.101 254.083C192.656 254.083 193.166 254.194 193.631 254.415C194.101 254.636 194.475 254.982 194.753 255.452C195.036 255.917 195.178 256.517 195.178 257.254V263H193.605V257.407C193.605 256.721 193.424 256.214 193.061 255.885C192.704 255.551 192.239 255.384 191.667 255.384C191.27 255.384 190.899 255.449 190.554 255.579C190.208 255.704 189.927 255.897 189.712 256.157C189.497 256.412 189.389 256.735 189.389 257.126V263H187.825ZM201.517 255.358H199.536V260.824C199.536 261.136 199.568 261.365 199.63 261.512C199.698 261.654 199.808 261.745 199.961 261.784C200.12 261.824 200.335 261.844 200.607 261.844H201.568V262.898C201.46 262.938 201.296 262.972 201.075 263C200.86 263.028 200.59 263.043 200.267 263.043C199.661 263.043 199.191 262.96 198.856 262.796C198.522 262.632 198.287 262.388 198.151 262.065C198.021 261.742 197.955 261.345 197.955 260.875V255.358H196.527V254.211H197.998L198.38 251.652H199.536V254.202H201.517V255.358ZM209.784 263.17C209.218 263.17 208.716 263.071 208.28 262.872C207.843 262.668 207.501 262.377 207.251 261.997C207.008 261.617 206.886 261.158 206.886 260.62C206.886 259.645 207.226 258.92 207.906 258.444C208.586 257.968 209.677 257.713 211.178 257.679L212.751 257.636V256.948C212.751 256.41 212.589 255.985 212.266 255.673C211.943 255.356 211.442 255.197 210.762 255.197C210.257 255.203 209.813 255.322 209.427 255.554C209.048 255.786 208.801 256.166 208.688 256.693H207.302C207.336 256.121 207.498 255.639 207.787 255.248C208.076 254.851 208.478 254.551 208.994 254.347C209.515 254.143 210.13 254.041 210.838 254.041C211.603 254.041 212.238 254.149 212.742 254.364C213.252 254.579 213.632 254.897 213.881 255.316C214.136 255.735 214.264 256.251 214.264 256.863V263H212.921L212.81 261.351C212.47 262.037 212.037 262.513 211.51 262.779C210.988 263.04 210.413 263.17 209.784 263.17ZM210.26 262.039C210.555 262.039 210.847 261.986 211.136 261.878C211.43 261.77 211.7 261.626 211.943 261.444C212.187 261.257 212.38 261.051 212.521 260.824C212.669 260.592 212.745 260.354 212.751 260.11V258.605L211.442 258.631C210.773 258.642 210.212 258.71 209.759 258.835C209.311 258.96 208.974 259.155 208.747 259.421C208.526 259.688 208.416 260.036 208.416 260.467C208.416 260.96 208.586 261.345 208.926 261.623C209.271 261.901 209.716 262.039 210.26 262.039ZM220.281 254.041C220.91 254.041 221.477 254.163 221.981 254.406C222.485 254.644 222.896 254.984 223.213 255.426C223.536 255.868 223.738 256.39 223.817 256.99H222.423C222.372 256.684 222.253 256.404 222.066 256.149C221.885 255.894 221.644 255.69 221.343 255.537C221.043 255.384 220.692 255.307 220.289 255.307C219.536 255.307 218.924 255.579 218.453 256.123C217.983 256.667 217.748 257.5 217.748 258.622C217.748 259.637 217.963 260.45 218.394 261.062C218.83 261.668 219.471 261.971 220.315 261.971C220.717 261.971 221.066 261.895 221.36 261.742C221.661 261.583 221.902 261.376 222.083 261.121C222.264 260.861 222.38 260.583 222.431 260.288H223.8C223.726 260.878 223.528 261.388 223.205 261.818C222.882 262.249 222.468 262.583 221.964 262.821C221.465 263.054 220.904 263.17 220.281 263.17C219.493 263.17 218.793 262.997 218.181 262.651C217.575 262.306 217.099 261.796 216.753 261.121C216.408 260.447 216.235 259.62 216.235 258.639C216.235 257.721 216.391 256.92 216.702 256.234C217.02 255.543 217.479 255.004 218.079 254.619C218.686 254.234 219.42 254.041 220.281 254.041ZM229.275 254.041C229.904 254.041 230.471 254.163 230.975 254.406C231.479 254.644 231.89 254.984 232.207 255.426C232.53 255.868 232.732 256.39 232.811 256.99H231.417C231.366 256.684 231.247 256.404 231.06 256.149C230.879 255.894 230.638 255.69 230.337 255.537C230.037 255.384 229.686 255.307 229.283 255.307C228.53 255.307 227.918 255.579 227.447 256.123C226.977 256.667 226.742 257.5 226.742 258.622C226.742 259.637 226.957 260.45 227.388 261.062C227.824 261.668 228.465 261.971 229.309 261.971C229.711 261.971 230.06 261.895 230.354 261.742C230.655 261.583 230.896 261.376 231.077 261.121C231.258 260.861 231.374 260.583 231.425 260.288H232.794C232.72 260.878 232.522 261.388 232.199 261.818C231.876 262.249 231.462 262.583 230.958 262.821C230.459 263.054 229.898 263.17 229.275 263.17C228.487 263.17 227.787 262.997 227.175 262.651C226.569 262.306 226.093 261.796 225.747 261.121C225.402 260.447 225.229 259.62 225.229 258.639C225.229 257.721 225.385 256.92 225.696 256.234C226.014 255.543 226.473 255.004 227.073 254.619C227.68 254.234 228.414 254.041 229.275 254.041ZM235.889 258.971C235.889 259.526 235.98 260.031 236.161 260.484C236.348 260.932 236.628 261.289 237.002 261.555C237.382 261.821 237.855 261.954 238.422 261.954C238.983 261.954 239.465 261.824 239.867 261.563C240.275 261.303 240.536 260.926 240.649 260.433H242.136C242.029 261.028 241.791 261.529 241.422 261.938C241.054 262.345 240.609 262.654 240.088 262.864C239.567 263.068 239.023 263.17 238.456 263.17C237.634 263.17 236.912 262.992 236.288 262.634C235.665 262.277 235.178 261.765 234.826 261.096C234.475 260.427 234.299 259.625 234.299 258.69C234.299 257.767 234.458 256.956 234.775 256.259C235.093 255.562 235.552 255.018 236.152 254.627C236.759 254.236 237.487 254.041 238.337 254.041C239.164 254.041 239.864 254.219 240.436 254.576C241.009 254.933 241.442 255.438 241.737 256.089C242.037 256.735 242.187 257.503 242.187 258.393V258.971H235.889ZM235.897 257.908H240.674C240.674 257.404 240.589 256.951 240.419 256.548C240.249 256.14 239.989 255.82 239.637 255.588C239.292 255.35 238.855 255.231 238.328 255.231C237.779 255.231 237.323 255.364 236.96 255.63C236.603 255.891 236.334 256.228 236.152 256.642C235.977 257.05 235.892 257.472 235.897 257.908ZM247.246 263.17C246.634 263.17 246.064 263.077 245.537 262.889C245.016 262.697 244.582 262.399 244.237 261.997C243.891 261.589 243.673 261.07 243.582 260.441H245.01C245.09 260.787 245.231 261.076 245.435 261.308C245.645 261.535 245.906 261.708 246.217 261.827C246.529 261.94 246.869 261.997 247.237 261.997C247.827 261.997 248.303 261.886 248.665 261.665C249.028 261.444 249.209 261.104 249.209 260.645C249.209 260.322 249.113 260.065 248.92 259.872C248.733 259.674 248.441 259.529 248.045 259.438L246.226 258.988C245.517 258.818 244.951 258.552 244.526 258.189C244.101 257.826 243.888 257.319 243.888 256.667C243.883 256.152 244.004 255.698 244.254 255.307C244.503 254.916 244.877 254.608 245.376 254.381C245.874 254.154 246.495 254.041 247.237 254.041C248.189 254.041 248.957 254.256 249.541 254.687C250.13 255.112 250.436 255.738 250.459 256.565H249.073C249.017 256.146 248.827 255.815 248.504 255.571C248.186 255.322 247.759 255.197 247.22 255.197C246.659 255.197 246.203 255.31 245.852 255.537C245.5 255.758 245.325 256.104 245.325 256.574C245.325 256.886 245.449 257.132 245.699 257.313C245.948 257.489 246.316 257.636 246.804 257.755L248.563 258.198C248.971 258.305 249.306 258.447 249.566 258.622C249.833 258.798 250.042 258.994 250.195 259.209C250.354 259.424 250.464 259.651 250.527 259.889C250.595 260.121 250.629 260.345 250.629 260.56C250.629 261.099 250.493 261.563 250.221 261.954C249.954 262.34 249.569 262.64 249.065 262.855C248.566 263.065 247.96 263.17 247.246 263.17ZM255.642 263.17C255.03 263.17 254.461 263.077 253.934 262.889C253.412 262.697 252.979 262.399 252.633 261.997C252.288 261.589 252.069 261.07 251.979 260.441H253.407C253.486 260.787 253.628 261.076 253.832 261.308C254.041 261.535 254.302 261.708 254.614 261.827C254.925 261.94 255.265 261.997 255.634 261.997C256.223 261.997 256.699 261.886 257.062 261.665C257.424 261.444 257.606 261.104 257.606 260.645C257.606 260.322 257.509 260.065 257.317 259.872C257.13 259.674 256.838 259.529 256.441 259.438L254.622 258.988C253.914 258.818 253.347 258.552 252.922 258.189C252.497 257.826 252.285 257.319 252.285 256.667C252.279 256.152 252.401 255.698 252.65 255.307C252.9 254.916 253.274 254.608 253.772 254.381C254.271 254.154 254.891 254.041 255.634 254.041C256.586 254.041 257.354 254.256 257.937 254.687C258.527 255.112 258.833 255.738 258.855 256.565H257.47C257.413 256.146 257.223 255.815 256.9 255.571C256.583 255.322 256.155 255.197 255.617 255.197C255.056 255.197 254.6 255.31 254.248 255.537C253.897 255.758 253.721 256.104 253.721 256.574C253.721 256.886 253.846 257.132 254.095 257.313C254.345 257.489 254.713 257.636 255.2 257.755L256.96 258.198C257.368 258.305 257.702 258.447 257.963 258.622C258.229 258.798 258.439 258.994 258.592 259.209C258.75 259.424 258.861 259.651 258.923 259.889C258.991 260.121 259.025 260.345 259.025 260.56C259.025 261.099 258.889 261.563 258.617 261.954C258.351 262.34 257.966 262.64 257.461 262.855C256.963 263.065 256.356 263.17 255.642 263.17ZM269.215 255.358H267.235V260.824C267.235 261.136 267.266 261.365 267.328 261.512C267.396 261.654 267.507 261.745 267.66 261.784C267.819 261.824 268.034 261.844 268.306 261.844H269.266V262.898C269.159 262.938 268.994 262.972 268.773 263C268.558 263.028 268.289 263.043 267.966 263.043C267.36 263.043 266.889 262.96 266.555 262.796C266.221 262.632 265.985 262.388 265.849 262.065C265.719 261.742 265.654 261.345 265.654 260.875V255.358H264.226V254.211H265.696L266.079 251.652H267.235V254.202H269.215V255.358ZM274.565 263.17C273.754 263.17 273.046 262.997 272.44 262.651C271.833 262.3 271.363 261.787 271.029 261.113C270.694 260.439 270.527 259.614 270.527 258.639C270.527 257.721 270.683 256.917 270.995 256.225C271.306 255.534 271.763 254.999 272.363 254.619C272.97 254.234 273.703 254.041 274.565 254.041C275.375 254.041 276.078 254.219 276.673 254.576C277.273 254.928 277.738 255.446 278.067 256.132C278.395 256.818 278.56 257.653 278.56 258.639C278.56 259.535 278.407 260.322 278.101 261.002C277.8 261.682 277.353 262.215 276.758 262.6C276.168 262.98 275.437 263.17 274.565 263.17ZM274.565 261.929C275.092 261.929 275.537 261.796 275.899 261.529C276.262 261.263 276.537 260.881 276.724 260.382C276.911 259.883 277.004 259.291 277.004 258.605C277.004 257.976 276.922 257.413 276.758 256.914C276.593 256.41 276.33 256.01 275.967 255.715C275.61 255.421 275.143 255.273 274.565 255.273C274.032 255.273 273.582 255.407 273.213 255.673C272.845 255.934 272.564 256.313 272.372 256.812C272.185 257.311 272.091 257.908 272.091 258.605C272.091 259.223 272.176 259.784 272.346 260.288C272.516 260.793 272.783 261.192 273.145 261.487C273.508 261.782 273.981 261.929 274.565 261.929ZM284.419 263V250.709H288.371C289.867 250.709 290.998 250.984 291.763 251.533C292.533 252.083 292.919 252.876 292.919 253.913C292.919 254.565 292.749 255.123 292.409 255.588C292.074 256.053 291.485 256.435 290.641 256.735C291.122 256.837 291.527 256.985 291.856 257.177C292.19 257.37 292.457 257.597 292.655 257.857C292.859 258.112 293.004 258.396 293.089 258.708C293.179 259.019 293.225 259.348 293.225 259.693C293.225 260.804 292.828 261.634 292.035 262.184C291.247 262.728 290.068 263 288.499 263H284.419ZM285.991 261.691H288.482C289.507 261.691 290.286 261.524 290.819 261.189C291.357 260.849 291.627 260.328 291.627 259.625C291.627 259.11 291.493 258.693 291.227 258.376C290.966 258.053 290.612 257.818 290.165 257.67C289.717 257.523 289.218 257.449 288.669 257.449H285.991V261.691ZM285.991 256.115H288.669C288.992 256.115 289.312 256.084 289.629 256.021C289.946 255.959 290.238 255.851 290.505 255.698C290.771 255.545 290.986 255.341 291.151 255.086C291.315 254.826 291.397 254.5 291.397 254.109C291.397 253.395 291.122 252.868 290.573 252.528C290.029 252.182 289.32 252.009 288.448 252.009H285.991V256.115ZM294.653 263L299.098 250.709H300.875L305.32 263H303.714L302.507 259.634H297.483L296.251 263H294.653ZM297.883 258.189H302.09L299.999 252.264L297.883 258.189ZM311.395 263.17C310.817 263.17 310.256 263.099 309.712 262.957C309.168 262.81 308.675 262.592 308.233 262.303C307.791 262.014 307.422 261.657 307.128 261.232C306.839 260.801 306.657 260.303 306.584 259.736H308.233C308.335 260.201 308.536 260.592 308.836 260.909C309.142 261.226 309.513 261.464 309.95 261.623C310.392 261.782 310.87 261.861 311.386 261.861C311.964 261.861 312.48 261.782 312.933 261.623C313.392 261.459 313.752 261.226 314.013 260.926C314.279 260.626 314.412 260.266 314.412 259.846C314.412 259.478 314.327 259.158 314.157 258.886C313.993 258.614 313.752 258.387 313.435 258.206C313.117 258.025 312.732 257.883 312.279 257.781L309.865 257.22C308.958 257.022 308.247 256.667 307.731 256.157C307.221 255.647 306.96 254.973 306.949 254.134C306.949 253.426 307.136 252.803 307.51 252.264C307.89 251.726 308.408 251.307 309.066 251.006C309.729 250.706 310.485 250.556 311.335 250.556C312.315 250.556 313.14 250.723 313.809 251.057C314.477 251.392 314.982 251.831 315.322 252.375C315.662 252.919 315.834 253.5 315.84 254.117H314.217C314.166 253.562 314.001 253.123 313.724 252.8C313.452 252.471 313.109 252.239 312.695 252.103C312.281 251.961 311.831 251.89 311.344 251.89C310.992 251.89 310.652 251.936 310.324 252.026C310.001 252.111 309.709 252.242 309.448 252.417C309.193 252.593 308.989 252.811 308.836 253.072C308.683 253.333 308.607 253.636 308.607 253.981C308.607 254.423 308.757 254.783 309.057 255.061C309.363 255.339 309.916 255.577 310.715 255.775L313.052 256.336C313.664 256.466 314.163 256.659 314.548 256.914C314.939 257.169 315.239 257.458 315.449 257.781C315.664 258.104 315.812 258.441 315.891 258.792C315.976 259.144 316.019 259.489 316.019 259.829C316.019 260.447 315.834 261.011 315.466 261.521C315.098 262.025 314.568 262.428 313.877 262.728C313.191 263.023 312.364 263.17 311.395 263.17ZM318.456 263V250.709H326.208L326.2 252.094H320.037V256.106H325.588V257.483H320.029V261.58L326.37 261.597V263H318.456ZM336.716 263.17C335.418 263.17 334.342 262.892 333.486 262.337C332.636 261.776 332.129 260.949 331.964 259.855L333.613 259.753C333.795 260.444 334.157 260.963 334.701 261.308C335.245 261.654 335.914 261.827 336.707 261.827C337.183 261.827 337.628 261.745 338.042 261.58C338.461 261.416 338.798 261.187 339.053 260.892C339.314 260.597 339.444 260.249 339.444 259.846C339.444 259.308 339.283 258.877 338.96 258.554C338.643 258.231 338.135 257.976 337.438 257.789L335.322 257.237C334.41 257.005 333.687 256.639 333.154 256.14C332.622 255.642 332.353 254.973 332.347 254.134C332.341 253.426 332.525 252.803 332.899 252.264C333.279 251.726 333.8 251.307 334.463 251.006C335.132 250.706 335.903 250.556 336.775 250.556C337.614 250.556 338.337 250.717 338.943 251.04C339.555 251.358 340.028 251.78 340.362 252.307C340.702 252.834 340.884 253.409 340.906 254.032L339.308 254.117C339.184 253.386 338.915 252.834 338.501 252.46C338.093 252.08 337.518 251.89 336.775 251.89C336.424 251.89 336.084 251.936 335.755 252.026C335.432 252.111 335.141 252.242 334.88 252.417C334.625 252.593 334.421 252.811 334.268 253.072C334.115 253.333 334.038 253.636 334.038 253.981C334.038 254.423 334.194 254.775 334.506 255.035C334.818 255.29 335.379 255.543 336.189 255.792L338.229 256.37C339.272 256.659 340.014 257.109 340.456 257.721C340.904 258.328 341.127 259.03 341.127 259.829C341.127 260.481 340.943 261.059 340.575 261.563C340.207 262.062 339.688 262.456 339.019 262.745C338.356 263.028 337.589 263.17 336.716 263.17ZM336.053 248.873H337.506V251.066H336.053V248.873ZM335.951 262.583H337.404V264.777H335.951V262.583ZM348.118 250.539C348.985 250.539 349.753 250.72 350.421 251.083C351.09 251.44 351.628 251.919 352.036 252.519C352.444 253.12 352.685 253.78 352.759 254.5H351.084C350.994 254.018 350.821 253.582 350.566 253.191C350.311 252.8 349.976 252.488 349.563 252.256C349.149 252.024 348.653 251.907 348.075 251.907C347.333 251.907 346.704 252.083 346.188 252.434C345.678 252.78 345.29 253.316 345.024 254.041C344.763 254.766 344.633 255.696 344.633 256.829C344.633 258.54 344.925 259.798 345.508 260.603C346.098 261.402 346.953 261.801 348.075 261.801C348.653 261.801 349.149 261.68 349.563 261.436C349.976 261.192 350.311 260.866 350.566 260.458C350.821 260.05 350.994 259.608 351.084 259.132H352.759C352.696 259.654 352.555 260.158 352.334 260.645C352.118 261.127 351.821 261.558 351.441 261.938C351.062 262.317 350.594 262.617 350.039 262.838C349.489 263.06 348.849 263.17 348.118 263.17C347.013 263.17 346.069 262.918 345.287 262.413C344.511 261.909 343.916 261.184 343.502 260.237C343.094 259.291 342.89 258.149 342.89 256.812C342.89 255.48 343.094 254.347 343.502 253.412C343.91 252.477 344.502 251.766 345.279 251.278C346.061 250.785 347.007 250.539 348.118 250.539ZM355.138 250.709H356.745V261.589H362.55V263H355.13L355.138 250.709ZM373.358 258.75C373.358 259.696 373.202 260.498 372.89 261.155C372.578 261.813 372.091 262.314 371.428 262.66C370.771 263 369.915 263.17 368.861 263.17C367.796 263.17 366.932 262.994 366.269 262.643C365.611 262.292 365.13 261.776 364.824 261.096C364.523 260.416 364.373 259.58 364.373 258.588V250.709H366.005V258.826C366.005 259.818 366.252 260.56 366.745 261.053C367.238 261.546 367.943 261.793 368.861 261.793C369.479 261.793 370.003 261.685 370.434 261.47C370.87 261.255 371.201 260.929 371.428 260.492C371.66 260.05 371.777 259.495 371.777 258.826V250.709H373.358V258.75ZM376.106 263V250.709H380.059C381.555 250.709 382.685 250.984 383.45 251.533C384.221 252.083 384.606 252.876 384.606 253.913C384.606 254.565 384.436 255.123 384.096 255.588C383.762 256.053 383.173 256.435 382.328 256.735C382.81 256.837 383.215 256.985 383.544 257.177C383.878 257.37 384.145 257.597 384.343 257.857C384.547 258.112 384.691 258.396 384.776 258.708C384.867 259.019 384.912 259.348 384.912 259.693C384.912 260.804 384.516 261.634 383.722 262.184C382.935 262.728 381.756 263 380.186 263H376.106ZM377.679 261.691H380.169C381.195 261.691 381.974 261.524 382.507 261.189C383.045 260.849 383.314 260.328 383.314 259.625C383.314 259.11 383.181 258.693 382.915 258.376C382.654 258.053 382.3 257.818 381.852 257.67C381.405 257.523 380.906 257.449 380.356 257.449H377.679V261.691ZM377.679 256.115H380.356C380.679 256.115 381 256.084 381.317 256.021C381.634 255.959 381.926 255.851 382.192 255.698C382.459 255.545 382.674 255.341 382.838 255.086C383.003 254.826 383.085 254.5 383.085 254.109C383.085 253.395 382.81 252.868 382.26 252.528C381.716 252.182 381.008 252.009 380.135 252.009H377.679V256.115Z" fill="black"/>
<path d="M190.5 92.5C143.333 87.6667 42.7 97.3 17.5 174.5C-14 271 19 334 76 371C121.6 400.6 246.667 394 303.5 387C360.5 388.5 480.1 378.6 502.5 327C530.5 262.5 544 202.5 502.5 152C461 101.5 414.5 92.5 355 92.5" stroke="black" stroke-width="10" stroke-linecap="round"/>
</svg>
