<svg width="756" height="188" viewBox="0 0 756 188" fill="none" xmlns="http://www.w3.org/2000/svg">
<path d="M293.377 10.8398C292.27 19.7328 290.763 27.6895 287.974 36.1175C286.415 40.8281 285.51 45.6266 284.403 50.4477C283.637 53.7866 282.455 56.9593 282.383 60.4084C282.36 61.5152 281.308 64.8646 282.665 65.3888C286.477 66.8618 291.879 66.2345 295.868 66.2345C301.948 66.2345 301.841 57.6391 302.774 53.1728C303.272 50.7914 304.046 48.5582 305.03 46.3601C305.355 45.6328 305.072 44.5126 305.734 43.9169C306.646 43.0964 311.663 43.8229 312.641 43.8229C314.627 43.8229 317.195 44.2392 319.172 43.8229C320.739 43.4931 322.159 39.1021 322.743 37.8089C323.551 36.0177 324.214 34.1614 325.092 32.4057C325.284 32.0218 326.458 29.9474 326.173 29.5396C325.556 28.6581 319.012 29.4457 317.856 29.4457C315.733 29.4457 313.589 29.5306 311.466 29.4457C309.858 29.3813 312.819 24.0626 313.158 23.1967C313.806 21.54 314.092 18.8742 316.212 18.8742C318.811 18.8742 321.359 19.2117 323.917 19.297C325.981 19.3658 328.187 19.0007 330.166 19.6259C330.689 19.7911 330.167 10.917 331.106 9.66519C331.721 8.84536 334.104 4.13785 333.596 3.41626C333.039 2.6248 329.074 3.5195 328.569 3.6042C325.431 4.12975 322.379 5.03563 319.266 5.67151C314.113 6.7238 308.899 7.15395 303.667 7.55089C301.903 7.68474 300.215 8.30264 298.452 8.30264" stroke="#020202" stroke-width="6" stroke-linecap="round"/>
<path d="M326.688 61.4831C329.754 55.0543 332.879 48.6317 335.779 42.1255C338.036 37.0617 339.183 31.5482 341.065 26.3387C343.161 20.5369 345.291 15.105 349.099 10.223C351.198 7.53266 353.666 5.84977 356.1 3.55124C357.058 2.64604 359.248 3.12838 360.516 3.12838C368.301 3.12838 368.282 17.3697 368.786 22.8149C369.527 30.8313 368.406 38.9492 369.067 46.9649C369.414 51.1603 369.396 55.3227 369.396 59.5332C369.396 61.7416 365.68 61.906 363.688 61.906C361.158 61.906 358.629 61.906 356.1 61.906C354.268 61.906 355.081 54.0646 354.996 52.9084C354.89 51.4759 353.552 47.9516 351.965 47.9516C349.401 47.9516 348.424 48.2813 346.985 50.7706C345.84 52.7516 344.927 55.0238 344.26 57.2075C343.839 58.5841 342.756 60.2567 342.756 61.6945C342.756 63.3775 333.257 61.4831 331.762 61.4831" stroke="#020202" stroke-width="6" stroke-linecap="round"/>
<path d="M352.905 23.4256C352.905 26.6659 351.712 29.0769 350.462 32.0237C349.726 33.7588 349.926 33.9971 351.66 33.9971C352.093 33.9971 354.362 34.2995 354.55 33.6917C354.97 32.3243 354.309 29.957 354.174 28.6408C353.951 26.4792 353.751 24.3305 353.751 22.157" stroke="#020202" stroke-width="6" stroke-linecap="round"/>
<path d="M403.659 5.39282C395.972 9.25006 385.814 12.9654 383.11 22.0517C381.68 26.858 380.974 32.1374 380.591 37.1146C379.814 47.2196 382.37 54.9988 389.32 62.1528C397.236 70.3013 413.603 67.3339 420.692 59.4844C422.167 57.852 423.945 56.1982 425.107 54.3221C425.788 53.2219 427.551 55.7805 427.974 56.2424C430.063 58.5206 431.676 61.1929 433.835 63.3997C434.317 63.8919 436.089 66.1744 436.902 66.0931C438.115 65.9718 438.708 64.4565 439.621 63.6491C442.127 61.4311 444.792 58.8595 447.801 57.3147C449.522 56.4309 449.435 57.3339 447.526 55.2947C444.174 51.7143 441.311 46.0524 436.254 44.4963C433.382 43.6125 437.026 40.2505 437.775 38.96C439.554 35.8973 440.818 32.3169 441.566 28.8849C442.83 23.0861 444.572 16.4972 438.773 12.6749C433.938 9.4886 429.69 7.36205 423.86 6.39036C420.623 5.85091 417.509 5.81508 414.233 5.84171C408.771 5.88612 403.646 7.63728 398.273 7.63728" stroke="#020202" stroke-width="6" stroke-linecap="round"/>
<path d="M413.086 18.4106C407.396 21.3787 398.605 24.3801 395.43 30.5806C394.062 33.2527 393.738 36.9032 393.884 39.8577C394.183 45.9166 396.15 50.7935 402.712 51.5289C410.219 52.3703 415.229 50.0645 419.072 43.1745C421.308 39.165 422.464 31.2566 420.668 26.765C418.227 20.663 409.329 19.7573 403.66 19.7573" stroke="#020202" stroke-width="6" stroke-linecap="round"/>
<rect y="108" width="755.05" height="77" rx="38.5" fill="white"/>
<path d="M85.1517 140.7C85.235 140.467 85.5767 140.167 86.1767 139.8C86.7767 139.417 87.2267 139.225 87.5267 139.225C88.06 139.225 88.9933 139.342 90.3267 139.575C91.6767 139.808 92.4517 139.983 92.6517 140.1C93.0517 140.367 93.2517 140.742 93.2517 141.225C93.2517 141.442 93.2017 141.658 93.1017 141.875C92.9683 142.192 92.8017 142.417 92.6017 142.55C92.4017 142.667 92.0933 142.725 91.6767 142.725C91.41 142.725 90.9267 142.683 90.2267 142.6C89.5267 142.5 88.985 142.45 88.6017 142.45C88.485 142.45 88.4183 142.458 88.4017 142.475C88.3517 142.525 88.2767 142.9 88.1767 143.6L88.0517 144.575H89.5267C91.0767 144.575 91.9683 144.867 92.2017 145.45C92.2683 145.633 92.3017 145.842 92.3017 146.075C92.3017 146.475 92.185 146.817 91.9517 147.1C91.785 147.3 91.5767 147.433 91.3267 147.5C91.0933 147.567 90.585 147.617 89.8017 147.65L88.0267 147.75L87.9267 150.2C87.8767 151.333 87.8183 152.05 87.7517 152.35C87.7017 152.633 87.5683 152.867 87.3517 153.05C87.0683 153.283 86.7517 153.4 86.4017 153.4C86.0017 153.4 85.6433 153.242 85.3267 152.925C85.11 152.708 84.9767 152.492 84.9267 152.275C84.8767 152.042 84.8517 151.508 84.8517 150.675C84.8517 149.675 84.9517 148.192 85.1517 146.225C85.2683 145.158 85.3267 144.283 85.3267 143.6C85.3267 143.083 85.2933 142.65 85.2267 142.3C85.16 141.917 85.1267 141.5 85.1267 141.05C85.1267 140.867 85.135 140.75 85.1517 140.7ZM96.5112 135.125C96.8112 134.792 97.1446 134.625 97.5112 134.625C97.8946 134.625 98.2612 134.825 98.6112 135.225C98.8946 135.558 99.0362 135.842 99.0362 136.075C99.0362 136.192 99.0112 136.367 98.9612 136.6C98.7612 137.8 98.2946 138.4 97.5612 138.4C97.4946 138.4 97.3612 138.383 97.1612 138.35C96.4112 138.183 96.0362 137.567 96.0362 136.5C96.0362 135.95 96.1946 135.492 96.5112 135.125ZM97.2612 141.925C97.5946 141.642 97.9196 141.5 98.2362 141.5C98.5529 141.5 98.8696 141.658 99.1862 141.975C99.4029 142.192 99.5362 142.425 99.5862 142.675C99.6362 142.908 99.6612 143.483 99.6612 144.4C99.6612 145.417 99.7529 146.733 99.9362 148.35C100.036 149.133 100.086 149.708 100.086 150.075C100.086 150.408 100.053 150.633 99.9862 150.75C99.6862 151.317 99.2529 151.6 98.6862 151.6C98.3529 151.6 98.0446 151.483 97.7612 151.25C97.4946 151.017 97.3112 150.7 97.2112 150.3C97.0946 149.833 96.9612 148.867 96.8112 147.4C96.6779 145.933 96.6112 144.783 96.6112 143.95C96.6112 143.883 96.6112 143.792 96.6112 143.675C96.6279 143.558 96.6362 143.483 96.6362 143.45C96.6696 143.017 96.7279 142.7 96.8112 142.5C96.8946 142.3 97.0446 142.108 97.2612 141.925ZM114.8 140.2C115 140.05 115.3 139.975 115.7 139.975C116.05 139.975 116.316 140.033 116.5 140.15C116.933 140.367 117.15 140.742 117.15 141.275C117.15 141.675 117.033 142.275 116.8 143.075C116.7 143.425 116.383 144.658 115.85 146.775C115.583 147.925 115.25 148.942 114.85 149.825C114.45 150.708 114.066 151.292 113.7 151.575C113.383 151.842 112.916 151.975 112.3 151.975C111.033 151.975 109.858 151.567 108.775 150.75C108.325 150.433 107.808 149.867 107.225 149.05C106.625 148.3 106.291 147.925 106.225 147.925C106.175 147.925 106.066 148.575 105.9 149.875C105.816 150.675 105.733 151.233 105.65 151.55C105.566 151.85 105.441 152.092 105.275 152.275C104.975 152.592 104.608 152.75 104.175 152.75C103.791 152.75 103.45 152.625 103.15 152.375C102.866 152.142 102.725 151.767 102.725 151.25C102.725 151.183 102.725 151.067 102.725 150.9C102.741 150.733 102.75 150.6 102.75 150.5C102.783 149.4 102.9 148.242 103.1 147.025C103.3 145.808 103.508 145 103.725 144.6C104.358 143.367 105.083 142.75 105.9 142.75C106.316 142.75 106.641 142.858 106.875 143.075C107.125 143.275 107.475 143.758 107.925 144.525C109.541 147.325 110.833 148.725 111.8 148.725C112.066 148.725 112.625 146.958 113.475 143.425C113.775 142.242 113.991 141.467 114.125 141.1C114.275 140.733 114.5 140.433 114.8 140.2ZM126.013 139.025C125.797 138.808 125.338 138.7 124.638 138.7C124.105 138.7 123.672 138.767 123.338 138.9C123.188 138.95 123.08 138.992 123.013 139.025C122.963 139.058 122.913 139.133 122.863 139.25C122.83 139.367 122.813 139.542 122.813 139.775C122.813 139.958 122.872 140.792 122.988 142.275C123.088 143.292 123.188 144.425 123.288 145.675C123.338 146.192 123.388 146.525 123.438 146.675C123.488 146.808 123.597 146.875 123.763 146.875C124.43 146.875 125.113 146.475 125.813 145.675C126.513 144.858 127.013 143.892 127.313 142.775C127.413 142.425 127.463 142.158 127.463 141.975C127.463 141.742 127.288 141.275 126.938 140.575C126.555 139.775 126.247 139.258 126.013 139.025ZM122.088 136.225C122.938 135.958 123.947 135.825 125.113 135.825C125.847 135.825 126.413 135.883 126.813 136C127.197 136.1 127.597 136.358 128.013 136.775C128.43 137.175 128.788 137.65 129.088 138.2C129.722 139.45 130.105 140.258 130.238 140.625C130.372 140.975 130.438 141.383 130.438 141.85C130.438 142.95 130.113 144.142 129.463 145.425C128.83 146.708 128.038 147.733 127.088 148.5C125.838 149.533 124.53 150.05 123.163 150.05C123.113 150.05 123.047 150.05 122.963 150.05C122.897 150.033 122.847 150.025 122.813 150.025C122.047 149.942 121.555 149.858 121.338 149.775C121.122 149.675 120.938 149.475 120.788 149.175C120.655 148.892 120.463 147.483 120.213 144.95C119.98 142.4 119.863 140.533 119.863 139.35V139.125C119.897 138.292 120.072 137.667 120.388 137.25C120.705 136.833 121.272 136.492 122.088 136.225ZM147.094 144.425C146.694 143.492 146.411 143.025 146.244 143.025C146.161 143.025 146.094 143.1 146.044 143.25C146.027 143.283 145.994 143.383 145.944 143.55C145.894 143.7 145.819 143.9 145.719 144.15C145.636 144.4 145.552 144.633 145.469 144.85C145.169 145.7 145.019 146.233 145.019 146.45C145.019 146.683 145.202 146.8 145.569 146.8H145.719C147.002 146.75 147.644 146.525 147.644 146.125C147.644 145.875 147.461 145.308 147.094 144.425ZM145.119 138.475C145.519 138.075 145.919 137.875 146.319 137.875C147.286 137.875 148.186 139.075 149.019 141.475C149.252 142.125 149.436 142.533 149.569 142.7C149.636 142.767 149.952 143.625 150.519 145.275C151.002 146.725 151.486 147.917 151.969 148.85C152.402 149.65 152.619 150.317 152.619 150.85C152.619 151.417 152.352 151.833 151.819 152.1C151.552 152.233 151.327 152.3 151.144 152.3C150.577 152.3 150.061 151.783 149.594 150.75C149.227 149.95 148.977 149.508 148.844 149.425C148.811 149.408 148.727 149.4 148.594 149.4C148.327 149.4 147.969 149.442 147.519 149.525C147.019 149.625 146.186 149.733 145.019 149.85L143.619 149.975L142.994 151.5C142.311 153.217 141.602 154.075 140.869 154.075C140.536 154.075 140.219 153.933 139.919 153.65C139.619 153.367 139.469 153.075 139.469 152.775C139.469 152.442 139.844 151.358 140.594 149.525C141.294 147.758 141.869 146.225 142.319 144.925C142.602 144.042 142.869 143.292 143.119 142.675C143.386 142.042 143.636 141.392 143.869 140.725C144.269 139.658 144.686 138.908 145.119 138.475ZM167.412 140.2C167.612 140.05 167.912 139.975 168.312 139.975C168.662 139.975 168.928 140.033 169.112 140.15C169.545 140.367 169.762 140.742 169.762 141.275C169.762 141.675 169.645 142.275 169.412 143.075C169.312 143.425 168.995 144.658 168.462 146.775C168.195 147.925 167.862 148.942 167.462 149.825C167.062 150.708 166.678 151.292 166.312 151.575C165.995 151.842 165.528 151.975 164.912 151.975C163.645 151.975 162.47 151.567 161.387 150.75C160.937 150.433 160.42 149.867 159.837 149.05C159.237 148.3 158.903 147.925 158.837 147.925C158.787 147.925 158.678 148.575 158.512 149.875C158.428 150.675 158.345 151.233 158.262 151.55C158.178 151.85 158.053 152.092 157.887 152.275C157.587 152.592 157.22 152.75 156.787 152.75C156.403 152.75 156.062 152.625 155.762 152.375C155.478 152.142 155.337 151.767 155.337 151.25C155.337 151.183 155.337 151.067 155.337 150.9C155.353 150.733 155.362 150.6 155.362 150.5C155.395 149.4 155.512 148.242 155.712 147.025C155.912 145.808 156.12 145 156.337 144.6C156.97 143.367 157.695 142.75 158.512 142.75C158.928 142.75 159.253 142.858 159.487 143.075C159.737 143.275 160.087 143.758 160.537 144.525C162.153 147.325 163.445 148.725 164.412 148.725C164.678 148.725 165.237 146.958 166.087 143.425C166.387 142.242 166.603 141.467 166.737 141.1C166.887 140.733 167.112 140.433 167.412 140.2ZM177.025 141.325C177.409 141.042 177.917 140.9 178.55 140.9C179.117 140.9 179.642 141.017 180.125 141.25C180.625 141.483 180.95 141.792 181.1 142.175C181.217 142.492 181.275 142.708 181.275 142.825C181.275 143.058 181.117 143.342 180.8 143.675C180.517 143.992 180.075 144.15 179.475 144.15C179.092 144.15 178.85 144.175 178.75 144.225C178.667 144.275 178.609 144.392 178.575 144.575V144.925C178.575 145.608 178.734 146.467 179.05 147.5C179.334 148.433 179.475 149.392 179.475 150.375C179.475 151.358 179.334 152.117 179.05 152.65C178.367 153.95 177.309 154.6 175.875 154.6C175.575 154.6 175.35 154.592 175.2 154.575C173.784 154.425 172.95 154.033 172.7 153.4C172.584 153.083 172.525 152.858 172.525 152.725C172.525 152.508 172.675 152.217 172.975 151.85C173.209 151.6 173.417 151.45 173.6 151.4C173.784 151.333 174.192 151.3 174.825 151.3H176.225L176.275 150.5V150.325C176.275 149.775 176.159 149.075 175.925 148.225C175.625 147.175 175.475 146.108 175.475 145.025V144.575C175.475 144.025 175.509 143.633 175.575 143.4C175.642 143.15 175.775 142.858 175.975 142.525C176.325 141.958 176.675 141.558 177.025 141.325ZM198.748 142.225C199.098 141.875 199.448 141.7 199.798 141.7C200.148 141.7 200.54 141.892 200.973 142.275C201.273 142.542 201.457 142.758 201.523 142.925C201.607 143.075 201.648 143.325 201.648 143.675C201.648 144.175 201.49 145.1 201.173 146.45C200.873 147.8 200.59 148.775 200.323 149.375C200.257 149.542 200.198 149.692 200.148 149.825C200.098 149.958 200.065 150.067 200.048 150.15C200.032 150.233 200.032 150.275 200.048 150.275C200.065 150.275 200.073 150.292 200.073 150.325C200.073 150.558 199.732 151.05 199.048 151.8C198.215 152.733 196.99 153.2 195.373 153.2C194.673 153.2 194.107 153.117 193.673 152.95C193.257 152.767 192.832 152.442 192.398 151.975C191.882 151.425 191.515 151.15 191.298 151.15C191.148 151.15 190.982 151.225 190.798 151.375C190.632 151.525 190.365 151.808 189.998 152.225C189.432 152.842 188.957 153.267 188.573 153.5C188.207 153.733 187.807 153.85 187.373 153.85C187.173 153.85 187.023 153.842 186.923 153.825C186.373 153.742 185.923 153.558 185.573 153.275C185.24 152.992 184.907 152.525 184.573 151.875L183.998 150.75V147.375C184.015 145.808 184.04 144.825 184.073 144.425C184.123 144.008 184.232 143.683 184.398 143.45C184.715 143.033 185.132 142.825 185.648 142.825C186.082 142.825 186.432 142.958 186.698 143.225C186.882 143.375 186.99 143.55 187.023 143.75C187.073 143.95 187.098 144.408 187.098 145.125V146.85V147.8C187.098 149.35 187.148 150.175 187.248 150.275C187.265 150.292 187.29 150.3 187.323 150.3C187.607 150.3 188.523 149.308 190.073 147.325C190.307 147.042 190.49 146.858 190.623 146.775C190.773 146.692 190.998 146.65 191.298 146.65C192.165 146.65 192.815 147.125 193.248 148.075C193.515 148.692 193.865 149.183 194.298 149.55C194.748 149.9 195.207 150.075 195.673 150.075C196.107 150.075 196.482 149.917 196.798 149.6C197.415 148.983 197.79 148.158 197.923 147.125C198.007 146.575 198.107 146.083 198.223 145.65C198.307 145.317 198.348 144.908 198.348 144.425C198.348 144.142 198.34 143.942 198.323 143.825C198.273 143.542 198.248 143.317 198.248 143.15C198.248 142.867 198.415 142.558 198.748 142.225ZM208.31 136.45C209.177 136.267 209.944 136.175 210.61 136.175C211.277 136.175 211.727 136.258 211.96 136.425C212.327 136.692 212.51 137.05 212.51 137.5C212.51 137.767 212.452 138.008 212.335 138.225C212.152 138.542 211.96 138.75 211.76 138.85C211.56 138.95 211.127 139.033 210.46 139.1C209.527 139.233 208.86 139.333 208.46 139.4L207.46 139.6L207.51 141.175L207.535 142.725L208.76 142.7C209.61 142.633 210.144 142.517 210.36 142.35C210.594 142.183 210.877 142.1 211.21 142.1C211.61 142.1 211.969 142.225 212.285 142.475C212.619 142.725 212.785 143.033 212.785 143.4C212.785 143.733 212.619 144.1 212.285 144.5C211.969 144.9 211.61 145.158 211.21 145.275C210.944 145.358 210.31 145.483 209.31 145.65C208.327 145.8 207.694 145.875 207.41 145.875C207.327 145.875 207.285 146.033 207.285 146.35C207.285 147.167 207.435 147.942 207.735 148.675C207.869 149.008 207.985 149.233 208.085 149.35C208.202 149.45 208.369 149.5 208.585 149.5C209.085 149.5 209.744 149.358 210.56 149.075C211.394 148.792 211.944 148.517 212.21 148.25C212.56 147.917 212.952 147.75 213.385 147.75C213.819 147.75 214.177 147.917 214.46 148.25C214.744 148.583 214.885 148.892 214.885 149.175C214.885 149.392 214.794 149.725 214.61 150.175C214.444 150.592 214.094 150.933 213.56 151.2C213.044 151.45 212.144 151.742 210.86 152.075C209.727 152.358 208.844 152.5 208.21 152.5C207.127 152.5 206.26 152.025 205.61 151.075C205.327 150.675 205.052 150.025 204.785 149.125C204.519 148.225 204.369 147.492 204.335 146.925V146.375C204.335 145.092 204.385 143.367 204.485 141.2C204.602 139.033 204.694 137.842 204.76 137.625C204.994 137.025 205.552 136.725 206.435 136.725C206.919 136.692 207.544 136.6 208.31 136.45ZM223.543 143.7C223.276 143.5 222.934 143.4 222.518 143.4C222.218 143.4 222.068 143.467 222.068 143.6C222.068 143.717 221.943 143.95 221.693 144.3C221.409 144.633 221.268 145.167 221.268 145.9C221.268 146.133 221.309 146.25 221.393 146.25C221.493 146.25 221.768 146.125 222.218 145.875C222.684 145.625 223.068 145.392 223.368 145.175C223.751 144.875 223.943 144.592 223.943 144.325C223.943 144.075 223.809 143.867 223.543 143.7ZM220.818 140.375C221.218 140.242 221.626 140.175 222.043 140.175C222.893 140.175 223.743 140.392 224.593 140.825C225.459 141.242 226.109 141.775 226.543 142.425C226.876 142.908 227.043 143.583 227.043 144.45C227.043 145.1 226.926 145.65 226.693 146.1C226.459 146.533 226.051 146.992 225.468 147.475L224.668 148.125L225.293 148.425C225.793 148.692 226.551 149.3 227.568 150.25C228.584 151.183 229.126 151.783 229.193 152.05C229.226 152.183 229.243 152.292 229.243 152.375C229.243 152.658 229.176 152.925 229.043 153.175C228.909 153.425 228.734 153.608 228.518 153.725C228.234 153.875 227.984 153.95 227.768 153.95C227.268 153.95 226.551 153.517 225.618 152.65C224.718 151.817 223.709 151.108 222.593 150.525C221.759 150.108 221.259 149.9 221.093 149.9C220.909 149.9 220.793 150.017 220.743 150.25C220.709 150.483 220.693 150.958 220.693 151.675V152.025C220.693 152.742 220.668 153.208 220.618 153.425C220.568 153.642 220.418 153.875 220.168 154.125C219.818 154.475 219.459 154.65 219.093 154.65C218.759 154.65 218.443 154.5 218.143 154.2C217.759 153.817 217.568 153.142 217.568 152.175C217.568 151.492 217.659 150.342 217.843 148.725C218.093 146.708 218.234 145.15 218.268 144.05C218.301 143.083 218.351 142.492 218.418 142.275C218.484 142.025 218.784 141.692 219.318 141.275C219.851 140.858 220.351 140.558 220.818 140.375ZM236.547 141.325C236.93 141.042 237.439 140.9 238.072 140.9C238.639 140.9 239.164 141.017 239.647 141.25C240.147 141.483 240.472 141.792 240.622 142.175C240.739 142.492 240.797 142.708 240.797 142.825C240.797 143.058 240.639 143.342 240.322 143.675C240.039 143.992 239.597 144.15 238.997 144.15C238.614 144.15 238.372 144.175 238.272 144.225C238.189 144.275 238.13 144.392 238.097 144.575V144.925C238.097 145.608 238.255 146.467 238.572 147.5C238.855 148.433 238.997 149.392 238.997 150.375C238.997 151.358 238.855 152.117 238.572 152.65C237.889 153.95 236.83 154.6 235.397 154.6C235.097 154.6 234.872 154.592 234.722 154.575C233.305 154.425 232.472 154.033 232.222 153.4C232.105 153.083 232.047 152.858 232.047 152.725C232.047 152.508 232.197 152.217 232.497 151.85C232.73 151.6 232.939 151.45 233.122 151.4C233.305 151.333 233.714 151.3 234.347 151.3H235.747L235.797 150.5V150.325C235.797 149.775 235.68 149.075 235.447 148.225C235.147 147.175 234.997 146.108 234.997 145.025V144.575C234.997 144.025 235.03 143.633 235.097 143.4C235.164 143.15 235.297 142.858 235.497 142.525C235.847 141.958 236.197 141.558 236.547 141.325ZM252.92 137.775C253.253 137.675 253.903 137.625 254.87 137.625C255.82 137.625 256.57 137.675 257.12 137.775C257.586 137.858 257.961 138.042 258.245 138.325C258.528 138.608 258.67 138.925 258.67 139.275C258.67 139.625 258.52 139.933 258.22 140.2C258.036 140.383 257.778 140.508 257.445 140.575C257.128 140.625 256.47 140.658 255.47 140.675C253.886 140.742 253.053 140.825 252.97 140.925C252.853 141.042 252.745 141.725 252.645 142.975L252.545 144.85H253.545C254.211 144.85 254.728 144.983 255.095 145.25C255.428 145.533 255.595 145.875 255.595 146.275C255.595 146.625 255.478 146.95 255.245 147.25C255.011 147.55 254.695 147.742 254.295 147.825C254.211 147.842 254.103 147.867 253.97 147.9C253.853 147.917 253.711 147.95 253.545 148C253.395 148.033 253.286 148.058 253.22 148.075L252.645 148.225L252.695 150.825C252.695 151.042 252.695 151.308 252.695 151.625C252.711 151.925 252.72 152.125 252.72 152.225C252.72 152.792 252.695 153.167 252.645 153.35C252.595 153.533 252.486 153.725 252.32 153.925C252.053 154.208 251.728 154.35 251.345 154.35C251.011 154.35 250.711 154.242 250.445 154.025C250.111 153.758 249.903 153.158 249.82 152.225C249.736 151.275 249.695 149.133 249.695 145.8V143.8C249.695 141.1 249.795 139.617 249.995 139.35C250.128 139.15 250.503 138.883 251.12 138.55C251.736 138.217 252.336 137.958 252.92 137.775ZM267.966 143.75C267.699 143.517 267.491 143.4 267.341 143.4C267.158 143.4 266.849 143.65 266.416 144.15C265.999 144.633 265.583 145.225 265.166 145.925C264.733 146.658 264.516 147.183 264.516 147.5C264.516 147.65 264.524 147.767 264.541 147.85C264.658 148.767 265.149 149.467 266.016 149.95L266.716 150.35L268.166 150C269.116 149.767 269.649 149.575 269.766 149.425C270.116 148.992 270.291 148.3 270.291 147.35C270.291 147.1 270.283 146.917 270.266 146.8C270.199 146.267 270.074 145.883 269.891 145.65C269.708 145.4 269.066 144.767 267.966 143.75ZM265.441 140.875C265.858 140.642 266.274 140.525 266.691 140.525C267.241 140.525 267.666 140.692 267.966 141.025C268.283 141.342 268.699 141.5 269.216 141.5C269.733 141.5 270.141 141.583 270.441 141.75C270.758 141.917 271.166 142.267 271.666 142.8C272.199 143.383 272.558 143.867 272.741 144.25C272.941 144.617 273.099 145.167 273.216 145.9C273.349 146.733 273.416 147.35 273.416 147.75C273.416 148.317 273.291 148.942 273.041 149.625C272.658 150.692 272.183 151.45 271.616 151.9C271.049 152.333 270.041 152.733 268.591 153.1C267.724 153.317 267.116 153.425 266.766 153.425C266.233 153.425 265.508 153.183 264.591 152.7C263.574 152.15 262.791 151.442 262.241 150.575C261.691 149.692 261.416 148.742 261.416 147.725C261.416 146.825 261.641 145.925 262.091 145.025C262.441 144.325 262.991 143.508 263.741 142.575C264.491 141.642 265.058 141.075 265.441 140.875ZM282.014 143.7C281.748 143.5 281.406 143.4 280.989 143.4C280.689 143.4 280.539 143.467 280.539 143.6C280.539 143.717 280.414 143.95 280.164 144.3C279.881 144.633 279.739 145.167 279.739 145.9C279.739 146.133 279.781 146.25 279.864 146.25C279.964 146.25 280.239 146.125 280.689 145.875C281.156 145.625 281.539 145.392 281.839 145.175C282.223 144.875 282.414 144.592 282.414 144.325C282.414 144.075 282.281 143.867 282.014 143.7ZM279.289 140.375C279.689 140.242 280.098 140.175 280.514 140.175C281.364 140.175 282.214 140.392 283.064 140.825C283.931 141.242 284.581 141.775 285.014 142.425C285.348 142.908 285.514 143.583 285.514 144.45C285.514 145.1 285.398 145.65 285.164 146.1C284.931 146.533 284.523 146.992 283.939 147.475L283.139 148.125L283.764 148.425C284.264 148.692 285.023 149.3 286.039 150.25C287.056 151.183 287.598 151.783 287.664 152.05C287.698 152.183 287.714 152.292 287.714 152.375C287.714 152.658 287.648 152.925 287.514 153.175C287.381 153.425 287.206 153.608 286.989 153.725C286.706 153.875 286.456 153.95 286.239 153.95C285.739 153.95 285.023 153.517 284.089 152.65C283.189 151.817 282.181 151.108 281.064 150.525C280.231 150.108 279.731 149.9 279.564 149.9C279.381 149.9 279.264 150.017 279.214 150.25C279.181 150.483 279.164 150.958 279.164 151.675V152.025C279.164 152.742 279.139 153.208 279.089 153.425C279.039 153.642 278.889 153.875 278.639 154.125C278.289 154.475 277.931 154.65 277.564 154.65C277.231 154.65 276.914 154.5 276.614 154.2C276.231 153.817 276.039 153.142 276.039 152.175C276.039 151.492 276.131 150.342 276.314 148.725C276.564 146.708 276.706 145.15 276.739 144.05C276.773 143.083 276.823 142.492 276.889 142.275C276.956 142.025 277.256 141.692 277.789 141.275C278.323 140.858 278.823 140.558 279.289 140.375ZM306.919 139.65C307.219 139.55 307.519 139.5 307.819 139.5C308.652 139.5 309.385 139.917 310.019 140.75C310.535 141.45 310.994 143.317 311.394 146.35C311.594 147.85 311.694 148.925 311.694 149.575C311.694 150.308 311.535 150.825 311.219 151.125C310.902 151.442 310.544 151.6 310.144 151.6C309.76 151.6 309.427 151.45 309.144 151.15C308.96 150.983 308.827 150.725 308.744 150.375C308.677 150.025 308.594 149.292 308.494 148.175C308.227 145.542 307.944 143.925 307.644 143.325C307.56 143.158 307.494 143.075 307.444 143.075C307.394 143.075 307.302 143.142 307.169 143.275C306.969 143.475 306.502 144.292 305.769 145.725C305.269 146.725 304.919 147.358 304.719 147.625C304.519 147.892 304.227 148.125 303.844 148.325C303.427 148.558 303.119 148.675 302.919 148.675C302.819 148.675 302.619 148.617 302.319 148.5C301.869 148.3 301.352 147.942 300.769 147.425C300.185 146.908 299.86 146.65 299.794 146.65C299.71 146.65 299.669 146.875 299.669 147.325C299.669 148.175 299.777 149.033 299.994 149.9C300.144 150.533 300.219 150.925 300.219 151.075C300.219 151.258 300.119 151.483 299.919 151.75C299.552 152.25 299.144 152.5 298.694 152.5C298.444 152.5 298.21 152.417 297.994 152.25C297.494 151.867 297.16 151.383 296.994 150.8C296.827 150.217 296.735 149.242 296.719 147.875C296.719 146.658 296.744 145.883 296.794 145.55C296.844 145.217 297.019 144.742 297.319 144.125C297.902 142.875 298.544 142.25 299.244 142.25C299.86 142.25 300.585 142.7 301.419 143.6C302.169 144.35 302.577 144.725 302.644 144.725C302.777 144.725 303.06 144.267 303.494 143.35C303.877 142.55 304.419 141.775 305.119 141.025C305.819 140.275 306.419 139.817 306.919 139.65ZM320.896 143.75C320.629 143.517 320.421 143.4 320.271 143.4C320.087 143.4 319.779 143.65 319.346 144.15C318.929 144.633 318.512 145.225 318.096 145.925C317.662 146.658 317.446 147.183 317.446 147.5C317.446 147.65 317.454 147.767 317.471 147.85C317.587 148.767 318.079 149.467 318.946 149.95L319.646 150.35L321.096 150C322.046 149.767 322.579 149.575 322.696 149.425C323.046 148.992 323.221 148.3 323.221 147.35C323.221 147.1 323.212 146.917 323.196 146.8C323.129 146.267 323.004 145.883 322.821 145.65C322.637 145.4 321.996 144.767 320.896 143.75ZM318.371 140.875C318.787 140.642 319.204 140.525 319.621 140.525C320.171 140.525 320.596 140.692 320.896 141.025C321.212 141.342 321.629 141.5 322.146 141.5C322.662 141.5 323.071 141.583 323.371 141.75C323.687 141.917 324.096 142.267 324.596 142.8C325.129 143.383 325.487 143.867 325.671 144.25C325.871 144.617 326.029 145.167 326.146 145.9C326.279 146.733 326.346 147.35 326.346 147.75C326.346 148.317 326.221 148.942 325.971 149.625C325.587 150.692 325.112 151.45 324.546 151.9C323.979 152.333 322.971 152.733 321.521 153.1C320.654 153.317 320.046 153.425 319.696 153.425C319.162 153.425 318.437 153.183 317.521 152.7C316.504 152.15 315.721 151.442 315.171 150.575C314.621 149.692 314.346 148.742 314.346 147.725C314.346 146.825 314.571 145.925 315.021 145.025C315.371 144.325 315.921 143.508 316.671 142.575C317.421 141.642 317.987 141.075 318.371 140.875ZM333.544 141.325C333.927 141.042 334.436 140.9 335.069 140.9C335.636 140.9 336.161 141.017 336.644 141.25C337.144 141.483 337.469 141.792 337.619 142.175C337.736 142.492 337.794 142.708 337.794 142.825C337.794 143.058 337.636 143.342 337.319 143.675C337.036 143.992 336.594 144.15 335.994 144.15C335.611 144.15 335.369 144.175 335.269 144.225C335.186 144.275 335.127 144.392 335.094 144.575V144.925C335.094 145.608 335.252 146.467 335.569 147.5C335.852 148.433 335.994 149.392 335.994 150.375C335.994 151.358 335.852 152.117 335.569 152.65C334.886 153.95 333.827 154.6 332.394 154.6C332.094 154.6 331.869 154.592 331.719 154.575C330.302 154.425 329.469 154.033 329.219 153.4C329.102 153.083 329.044 152.858 329.044 152.725C329.044 152.508 329.194 152.217 329.494 151.85C329.727 151.6 329.936 151.45 330.119 151.4C330.302 151.333 330.711 151.3 331.344 151.3H332.744L332.794 150.5V150.325C332.794 149.775 332.677 149.075 332.444 148.225C332.144 147.175 331.994 146.108 331.994 145.025V144.575C331.994 144.025 332.027 143.633 332.094 143.4C332.161 143.15 332.294 142.858 332.494 142.525C332.844 141.958 333.194 141.558 333.544 141.325ZM348.042 141.725C350.092 141.592 351.284 141.517 351.617 141.5H351.692C352.059 141.5 352.434 141.683 352.817 142.05C353.167 142.4 353.342 142.717 353.342 143C353.342 143.167 353.292 143.392 353.192 143.675C353.059 144.058 352.784 144.317 352.367 144.45C351.967 144.567 351.159 144.658 349.942 144.725L347.742 144.825L347.642 147.2C347.625 147.533 347.617 148.017 347.617 148.65C347.617 149.967 347.725 151.333 347.942 152.75C347.975 152.95 347.992 153.083 347.992 153.15C347.992 153.383 347.817 153.65 347.467 153.95C347.1 154.267 346.75 154.425 346.417 154.425C346.05 154.425 345.667 154.225 345.267 153.825C344.984 153.542 344.8 153.283 344.717 153.05C344.634 152.8 344.559 152.283 344.492 151.5C344.425 150.6 344.392 149.65 344.392 148.65C344.392 148.117 344.4 147.733 344.417 147.5L344.492 145.2L343.742 145.15C342.509 145.083 341.675 144.942 341.242 144.725C340.809 144.492 340.592 144.108 340.592 143.575C340.592 142.942 340.775 142.483 341.142 142.2C341.509 141.917 342.109 141.775 342.942 141.775C343.225 141.775 343.442 141.783 343.592 141.8C343.775 141.817 344.159 141.825 344.742 141.825C345.992 141.825 347.092 141.792 348.042 141.725ZM368.169 137.675C368.336 137.625 368.544 137.6 368.794 137.6C369.711 137.6 370.686 137.825 371.719 138.275C372.786 138.742 373.319 139.283 373.319 139.9C373.319 140.233 373.169 140.592 372.869 140.975C372.603 141.342 372.186 141.525 371.619 141.525C371.169 141.525 370.694 141.417 370.194 141.2C369.744 141.033 369.336 140.95 368.969 140.95C368.319 140.95 367.703 141.117 367.119 141.45C366.553 141.783 366.128 142.233 365.844 142.8C365.644 143.167 365.544 143.742 365.544 144.525C365.544 145.075 365.594 145.45 365.694 145.65C365.794 145.833 366.086 146.158 366.569 146.625C367.503 147.508 368.536 147.95 369.669 147.95C369.853 147.95 370.144 147.933 370.544 147.9C370.778 147.867 371.044 147.85 371.344 147.85C371.694 147.85 371.994 147.975 372.244 148.225C372.528 148.508 372.669 148.867 372.669 149.3C372.669 149.8 372.486 150.225 372.119 150.575C371.886 150.808 371.628 150.95 371.344 151C371.078 151.05 370.486 151.075 369.569 151.075C368.669 151.075 368.036 151.042 367.669 150.975C367.319 150.908 366.878 150.742 366.344 150.475C364.944 149.792 363.778 148.742 362.844 147.325C362.611 146.992 362.461 146.708 362.394 146.475C362.328 146.225 362.294 145.825 362.294 145.275C362.294 145.208 362.294 145.083 362.294 144.9C362.311 144.717 362.319 144.567 362.319 144.45C362.336 143.517 362.378 142.875 362.444 142.525C362.528 142.175 362.728 141.7 363.044 141.1C363.561 140.133 364.178 139.417 364.894 138.95C365.611 138.467 366.703 138.042 368.169 137.675ZM382.614 143.75C382.348 143.517 382.139 143.4 381.989 143.4C381.806 143.4 381.498 143.65 381.064 144.15C380.648 144.633 380.231 145.225 379.814 145.925C379.381 146.658 379.164 147.183 379.164 147.5C379.164 147.65 379.173 147.767 379.189 147.85C379.306 148.767 379.798 149.467 380.664 149.95L381.364 150.35L382.814 150C383.764 149.767 384.298 149.575 384.414 149.425C384.764 148.992 384.939 148.3 384.939 147.35C384.939 147.1 384.931 146.917 384.914 146.8C384.848 146.267 384.723 145.883 384.539 145.65C384.356 145.4 383.714 144.767 382.614 143.75ZM380.089 140.875C380.506 140.642 380.923 140.525 381.339 140.525C381.889 140.525 382.314 140.692 382.614 141.025C382.931 141.342 383.348 141.5 383.864 141.5C384.381 141.5 384.789 141.583 385.089 141.75C385.406 141.917 385.814 142.267 386.314 142.8C386.848 143.383 387.206 143.867 387.389 144.25C387.589 144.617 387.748 145.167 387.864 145.9C387.998 146.733 388.064 147.35 388.064 147.75C388.064 148.317 387.939 148.942 387.689 149.625C387.306 150.692 386.831 151.45 386.264 151.9C385.698 152.333 384.689 152.733 383.239 153.1C382.373 153.317 381.764 153.425 381.414 153.425C380.881 153.425 380.156 153.183 379.239 152.7C378.223 152.15 377.439 151.442 376.889 150.575C376.339 149.692 376.064 148.742 376.064 147.725C376.064 146.825 376.289 145.925 376.739 145.025C377.089 144.325 377.639 143.508 378.389 142.575C379.139 141.642 379.706 141.075 380.089 140.875ZM400.913 139.65C401.213 139.55 401.513 139.5 401.813 139.5C402.646 139.5 403.379 139.917 404.013 140.75C404.529 141.45 404.988 143.317 405.388 146.35C405.588 147.85 405.688 148.925 405.688 149.575C405.688 150.308 405.529 150.825 405.213 151.125C404.896 151.442 404.538 151.6 404.138 151.6C403.754 151.6 403.421 151.45 403.138 151.15C402.954 150.983 402.821 150.725 402.738 150.375C402.671 150.025 402.588 149.292 402.488 148.175C402.221 145.542 401.938 143.925 401.638 143.325C401.554 143.158 401.488 143.075 401.438 143.075C401.388 143.075 401.296 143.142 401.163 143.275C400.963 143.475 400.496 144.292 399.763 145.725C399.263 146.725 398.913 147.358 398.713 147.625C398.513 147.892 398.221 148.125 397.838 148.325C397.421 148.558 397.113 148.675 396.913 148.675C396.813 148.675 396.613 148.617 396.313 148.5C395.863 148.3 395.346 147.942 394.763 147.425C394.179 146.908 393.854 146.65 393.788 146.65C393.704 146.65 393.663 146.875 393.663 147.325C393.663 148.175 393.771 149.033 393.988 149.9C394.138 150.533 394.213 150.925 394.213 151.075C394.213 151.258 394.113 151.483 393.913 151.75C393.546 152.25 393.138 152.5 392.688 152.5C392.438 152.5 392.204 152.417 391.988 152.25C391.488 151.867 391.154 151.383 390.988 150.8C390.821 150.217 390.729 149.242 390.713 147.875C390.713 146.658 390.738 145.883 390.788 145.55C390.838 145.217 391.013 144.742 391.313 144.125C391.896 142.875 392.538 142.25 393.238 142.25C393.854 142.25 394.579 142.7 395.413 143.6C396.163 144.35 396.571 144.725 396.638 144.725C396.771 144.725 397.054 144.267 397.488 143.35C397.871 142.55 398.413 141.775 399.113 141.025C399.813 140.275 400.413 139.817 400.913 139.65ZM418.54 139.65C418.84 139.55 419.14 139.5 419.44 139.5C420.273 139.5 421.006 139.917 421.64 140.75C422.156 141.45 422.615 143.317 423.015 146.35C423.215 147.85 423.315 148.925 423.315 149.575C423.315 150.308 423.156 150.825 422.84 151.125C422.523 151.442 422.165 151.6 421.765 151.6C421.381 151.6 421.048 151.45 420.765 151.15C420.581 150.983 420.448 150.725 420.365 150.375C420.298 150.025 420.215 149.292 420.115 148.175C419.848 145.542 419.565 143.925 419.265 143.325C419.181 143.158 419.115 143.075 419.065 143.075C419.015 143.075 418.923 143.142 418.79 143.275C418.59 143.475 418.123 144.292 417.39 145.725C416.89 146.725 416.54 147.358 416.34 147.625C416.14 147.892 415.848 148.125 415.465 148.325C415.048 148.558 414.74 148.675 414.54 148.675C414.44 148.675 414.24 148.617 413.94 148.5C413.49 148.3 412.973 147.942 412.39 147.425C411.806 146.908 411.481 146.65 411.415 146.65C411.331 146.65 411.29 146.875 411.29 147.325C411.29 148.175 411.398 149.033 411.615 149.9C411.765 150.533 411.84 150.925 411.84 151.075C411.84 151.258 411.74 151.483 411.54 151.75C411.173 152.25 410.765 152.5 410.315 152.5C410.065 152.5 409.831 152.417 409.615 152.25C409.115 151.867 408.781 151.383 408.615 150.8C408.448 150.217 408.356 149.242 408.34 147.875C408.34 146.658 408.365 145.883 408.415 145.55C408.465 145.217 408.64 144.742 408.94 144.125C409.523 142.875 410.165 142.25 410.865 142.25C411.481 142.25 412.206 142.7 413.04 143.6C413.79 144.35 414.198 144.725 414.265 144.725C414.398 144.725 414.681 144.267 415.115 143.35C415.498 142.55 416.04 141.775 416.74 141.025C417.44 140.275 418.04 139.817 418.54 139.65ZM432.517 143.75C432.25 143.517 432.042 143.4 431.892 143.4C431.708 143.4 431.4 143.65 430.967 144.15C430.55 144.633 430.133 145.225 429.717 145.925C429.283 146.658 429.067 147.183 429.067 147.5C429.067 147.65 429.075 147.767 429.092 147.85C429.208 148.767 429.7 149.467 430.567 149.95L431.267 150.35L432.717 150C433.667 149.767 434.2 149.575 434.317 149.425C434.667 148.992 434.842 148.3 434.842 147.35C434.842 147.1 434.833 146.917 434.817 146.8C434.75 146.267 434.625 145.883 434.442 145.65C434.258 145.4 433.617 144.767 432.517 143.75ZM429.992 140.875C430.408 140.642 430.825 140.525 431.242 140.525C431.792 140.525 432.217 140.692 432.517 141.025C432.833 141.342 433.25 141.5 433.767 141.5C434.283 141.5 434.692 141.583 434.992 141.75C435.308 141.917 435.717 142.267 436.217 142.8C436.75 143.383 437.108 143.867 437.292 144.25C437.492 144.617 437.65 145.167 437.767 145.9C437.9 146.733 437.967 147.35 437.967 147.75C437.967 148.317 437.842 148.942 437.592 149.625C437.208 150.692 436.733 151.45 436.167 151.9C435.6 152.333 434.592 152.733 433.142 153.1C432.275 153.317 431.667 153.425 431.317 153.425C430.783 153.425 430.058 153.183 429.142 152.7C428.125 152.15 427.342 151.442 426.792 150.575C426.242 149.692 425.967 148.742 425.967 147.725C425.967 146.825 426.192 145.925 426.642 145.025C426.992 144.325 427.542 143.508 428.292 142.575C429.042 141.642 429.608 141.075 429.992 140.875ZM452.69 140.2C452.89 140.05 453.19 139.975 453.59 139.975C453.94 139.975 454.207 140.033 454.39 140.15C454.823 140.367 455.04 140.742 455.04 141.275C455.04 141.675 454.923 142.275 454.69 143.075C454.59 143.425 454.273 144.658 453.74 146.775C453.473 147.925 453.14 148.942 452.74 149.825C452.34 150.708 451.957 151.292 451.59 151.575C451.273 151.842 450.807 151.975 450.19 151.975C448.923 151.975 447.748 151.567 446.665 150.75C446.215 150.433 445.698 149.867 445.115 149.05C444.515 148.3 444.182 147.925 444.115 147.925C444.065 147.925 443.957 148.575 443.79 149.875C443.707 150.675 443.623 151.233 443.54 151.55C443.457 151.85 443.332 152.092 443.165 152.275C442.865 152.592 442.498 152.75 442.065 152.75C441.682 152.75 441.34 152.625 441.04 152.375C440.757 152.142 440.615 151.767 440.615 151.25C440.615 151.183 440.615 151.067 440.615 150.9C440.632 150.733 440.64 150.6 440.64 150.5C440.673 149.4 440.79 148.242 440.99 147.025C441.19 145.808 441.398 145 441.615 144.6C442.248 143.367 442.973 142.75 443.79 142.75C444.207 142.75 444.532 142.858 444.765 143.075C445.015 143.275 445.365 143.758 445.815 144.525C447.432 147.325 448.723 148.725 449.69 148.725C449.957 148.725 450.515 146.958 451.365 143.425C451.665 142.242 451.882 141.467 452.015 141.1C452.165 140.733 452.39 140.433 452.69 140.2ZM470.604 141.65C469.954 141.433 469.529 141.325 469.329 141.325C469.029 141.325 468.704 141.508 468.354 141.875C467.554 142.725 467.154 143.642 467.154 144.625C467.154 145.042 467.254 145.417 467.454 145.75C467.62 146.017 467.954 146.3 468.454 146.6C468.97 146.883 469.379 147.025 469.679 147.025C469.829 147.025 469.929 146.983 469.979 146.9C470.045 146.817 470.079 146.65 470.079 146.4C470.079 145.967 470.229 145.617 470.529 145.35C470.845 145.067 471.204 144.925 471.604 144.925C472.02 144.925 472.379 145.067 472.679 145.35C472.895 145.55 473.037 145.65 473.104 145.65C473.17 145.65 473.237 145.6 473.304 145.5C473.437 145.3 473.504 145.05 473.504 144.75C473.504 144.183 473.229 143.6 472.679 143C472.145 142.4 471.454 141.95 470.604 141.65ZM468.154 138.3C468.52 138.167 468.904 138.1 469.304 138.1C470.087 138.1 470.712 138.267 471.179 138.6C471.529 138.867 471.812 139 472.029 139C472.279 139 472.687 139.183 473.254 139.55C473.837 139.917 474.362 140.333 474.829 140.8C475.945 141.883 476.562 143.083 476.679 144.4C476.695 144.55 476.704 144.733 476.704 144.95C476.704 145.367 476.512 145.95 476.129 146.7C475.779 147.35 475.604 147.767 475.604 147.95C475.604 148.017 475.62 148.05 475.654 148.05C476.987 148.433 477.762 148.875 477.979 149.375C478.079 149.592 478.129 149.817 478.129 150.05C478.129 150.533 477.904 150.95 477.454 151.3C477.204 151.483 476.987 151.575 476.804 151.575C476.62 151.575 476.229 151.492 475.629 151.325C474.795 151.108 474.129 150.833 473.629 150.5C473.179 150.217 472.779 150.075 472.429 150.075C472.345 150.075 472.137 150.092 471.804 150.125C471.504 150.158 471.245 150.175 471.029 150.175C469.545 150.175 468.295 149.958 467.279 149.525C466.629 149.242 466.029 148.817 465.479 148.25C464.945 147.683 464.562 147.092 464.329 146.475C464.112 145.892 464.004 145.283 464.004 144.65C464.004 143.25 464.545 141.833 465.629 140.4C466.429 139.333 467.27 138.633 468.154 138.3ZM491.125 142.875C491.392 142.592 491.733 142.45 492.15 142.45C492.6 142.45 492.975 142.608 493.275 142.925C493.492 143.142 493.625 143.367 493.675 143.6C493.725 143.817 493.75 144.325 493.75 145.125C493.75 147.642 493.258 149.817 492.275 151.65C491.775 152.583 491.325 153.267 490.925 153.7C490.542 154.117 490.05 154.475 489.45 154.775C488.867 155.075 488.367 155.225 487.95 155.225C487.833 155.225 487.608 155.208 487.275 155.175C486.258 155.092 485.342 154.792 484.525 154.275C483.708 153.758 483.083 153.092 482.65 152.275C482.333 151.675 482.033 150.925 481.75 150.025C481.483 149.108 481.317 148.358 481.25 147.775C481.2 147.125 481.092 146.417 480.925 145.65C480.858 145.317 480.825 145.025 480.825 144.775C480.825 144.542 480.9 144.308 481.05 144.075C481.4 143.525 481.825 143.25 482.325 143.25C482.408 143.25 482.533 143.267 482.7 143.3C483.483 143.483 483.958 144.275 484.125 145.675C484.292 147.142 484.55 148.417 484.9 149.5C485.25 150.583 485.625 151.258 486.025 151.525C486.558 151.875 487.033 152.05 487.45 152.05C488.117 152.05 488.733 151.567 489.3 150.6C490.067 149.317 490.508 147.55 490.625 145.3C490.658 144.45 490.708 143.875 490.775 143.575C490.842 143.275 490.958 143.042 491.125 142.875ZM500.351 136.45C501.218 136.267 501.985 136.175 502.651 136.175C503.318 136.175 503.768 136.258 504.001 136.425C504.368 136.692 504.551 137.05 504.551 137.5C504.551 137.767 504.493 138.008 504.376 138.225C504.193 138.542 504.001 138.75 503.801 138.85C503.601 138.95 503.168 139.033 502.501 139.1C501.568 139.233 500.901 139.333 500.501 139.4L499.501 139.6L499.551 141.175L499.576 142.725L500.801 142.7C501.651 142.633 502.185 142.517 502.401 142.35C502.635 142.183 502.918 142.1 503.251 142.1C503.651 142.1 504.01 142.225 504.326 142.475C504.66 142.725 504.826 143.033 504.826 143.4C504.826 143.733 504.66 144.1 504.326 144.5C504.01 144.9 503.651 145.158 503.251 145.275C502.985 145.358 502.351 145.483 501.351 145.65C500.368 145.8 499.735 145.875 499.451 145.875C499.368 145.875 499.326 146.033 499.326 146.35C499.326 147.167 499.476 147.942 499.776 148.675C499.91 149.008 500.026 149.233 500.126 149.35C500.243 149.45 500.41 149.5 500.626 149.5C501.126 149.5 501.785 149.358 502.601 149.075C503.435 148.792 503.985 148.517 504.251 148.25C504.601 147.917 504.993 147.75 505.426 147.75C505.86 147.75 506.218 147.917 506.501 148.25C506.785 148.583 506.926 148.892 506.926 149.175C506.926 149.392 506.835 149.725 506.651 150.175C506.485 150.592 506.135 150.933 505.601 151.2C505.085 151.45 504.185 151.742 502.901 152.075C501.768 152.358 500.885 152.5 500.251 152.5C499.168 152.5 498.301 152.025 497.651 151.075C497.368 150.675 497.093 150.025 496.826 149.125C496.56 148.225 496.41 147.492 496.376 146.925V146.375C496.376 145.092 496.426 143.367 496.526 141.2C496.643 139.033 496.735 137.842 496.801 137.625C497.035 137.025 497.593 136.725 498.476 136.725C498.96 136.692 499.585 136.6 500.351 136.45ZM514.184 141.325C514.567 141.042 515.075 140.9 515.709 140.9C516.275 140.9 516.8 141.017 517.284 141.25C517.784 141.483 518.109 141.792 518.259 142.175C518.375 142.492 518.434 142.708 518.434 142.825C518.434 143.058 518.275 143.342 517.959 143.675C517.675 143.992 517.234 144.15 516.634 144.15C516.25 144.15 516.009 144.175 515.909 144.225C515.825 144.275 515.767 144.392 515.734 144.575V144.925C515.734 145.608 515.892 146.467 516.209 147.5C516.492 148.433 516.634 149.392 516.634 150.375C516.634 151.358 516.492 152.117 516.209 152.65C515.525 153.95 514.467 154.6 513.034 154.6C512.734 154.6 512.509 154.592 512.359 154.575C510.942 154.425 510.109 154.033 509.859 153.4C509.742 153.083 509.684 152.858 509.684 152.725C509.684 152.508 509.834 152.217 510.134 151.85C510.367 151.6 510.575 151.45 510.759 151.4C510.942 151.333 511.35 151.3 511.984 151.3H513.384L513.434 150.5V150.325C513.434 149.775 513.317 149.075 513.084 148.225C512.784 147.175 512.634 146.108 512.634 145.025V144.575C512.634 144.025 512.667 143.633 512.734 143.4C512.8 143.15 512.934 142.858 513.134 142.525C513.484 141.958 513.834 141.558 514.184 141.325ZM528.682 141.725C530.732 141.592 531.923 141.517 532.257 141.5H532.332C532.698 141.5 533.073 141.683 533.457 142.05C533.807 142.4 533.982 142.717 533.982 143C533.982 143.167 533.932 143.392 533.832 143.675C533.698 144.058 533.423 144.317 533.007 144.45C532.607 144.567 531.798 144.658 530.582 144.725L528.382 144.825L528.282 147.2C528.265 147.533 528.257 148.017 528.257 148.65C528.257 149.967 528.365 151.333 528.582 152.75C528.615 152.95 528.632 153.083 528.632 153.15C528.632 153.383 528.457 153.65 528.107 153.95C527.74 154.267 527.39 154.425 527.057 154.425C526.69 154.425 526.307 154.225 525.907 153.825C525.623 153.542 525.44 153.283 525.357 153.05C525.273 152.8 525.198 152.283 525.132 151.5C525.065 150.6 525.032 149.65 525.032 148.65C525.032 148.117 525.04 147.733 525.057 147.5L525.132 145.2L524.382 145.15C523.148 145.083 522.315 144.942 521.882 144.725C521.448 144.492 521.232 144.108 521.232 143.575C521.232 142.942 521.415 142.483 521.782 142.2C522.148 141.917 522.748 141.775 523.582 141.775C523.865 141.775 524.082 141.783 524.232 141.8C524.415 141.817 524.798 141.825 525.382 141.825C526.632 141.825 527.732 141.792 528.682 141.725ZM537.234 135.125C537.534 134.792 537.867 134.625 538.234 134.625C538.617 134.625 538.984 134.825 539.334 135.225C539.617 135.558 539.759 135.842 539.759 136.075C539.759 136.192 539.734 136.367 539.684 136.6C539.484 137.8 539.017 138.4 538.284 138.4C538.217 138.4 538.084 138.383 537.884 138.35C537.134 138.183 536.759 137.567 536.759 136.5C536.759 135.95 536.917 135.492 537.234 135.125ZM537.984 141.925C538.317 141.642 538.642 141.5 538.959 141.5C539.276 141.5 539.592 141.658 539.909 141.975C540.126 142.192 540.259 142.425 540.309 142.675C540.359 142.908 540.384 143.483 540.384 144.4C540.384 145.417 540.476 146.733 540.659 148.35C540.759 149.133 540.809 149.708 540.809 150.075C540.809 150.408 540.776 150.633 540.709 150.75C540.409 151.317 539.976 151.6 539.409 151.6C539.076 151.6 538.767 151.483 538.484 151.25C538.217 151.017 538.034 150.7 537.934 150.3C537.817 149.833 537.684 148.867 537.534 147.4C537.401 145.933 537.334 144.783 537.334 143.95C537.334 143.883 537.334 143.792 537.334 143.675C537.351 143.558 537.359 143.483 537.359 143.45C537.392 143.017 537.451 142.7 537.534 142.5C537.617 142.3 537.767 142.108 537.984 141.925ZM549.997 143.75C549.731 143.517 549.522 143.4 549.372 143.4C549.189 143.4 548.881 143.65 548.447 144.15C548.031 144.633 547.614 145.225 547.197 145.925C546.764 146.658 546.547 147.183 546.547 147.5C546.547 147.65 546.556 147.767 546.572 147.85C546.689 148.767 547.181 149.467 548.047 149.95L548.747 150.35L550.197 150C551.147 149.767 551.681 149.575 551.797 149.425C552.147 148.992 552.322 148.3 552.322 147.35C552.322 147.1 552.314 146.917 552.297 146.8C552.231 146.267 552.106 145.883 551.922 145.65C551.739 145.4 551.097 144.767 549.997 143.75ZM547.472 140.875C547.889 140.642 548.306 140.525 548.722 140.525C549.272 140.525 549.697 140.692 549.997 141.025C550.314 141.342 550.731 141.5 551.247 141.5C551.764 141.5 552.172 141.583 552.472 141.75C552.789 141.917 553.197 142.267 553.697 142.8C554.231 143.383 554.589 143.867 554.772 144.25C554.972 144.617 555.131 145.167 555.247 145.9C555.381 146.733 555.447 147.35 555.447 147.75C555.447 148.317 555.322 148.942 555.072 149.625C554.689 150.692 554.214 151.45 553.647 151.9C553.081 152.333 552.072 152.733 550.622 153.1C549.756 153.317 549.147 153.425 548.797 153.425C548.264 153.425 547.539 153.183 546.622 152.7C545.606 152.15 544.822 151.442 544.272 150.575C543.722 149.692 543.447 148.742 543.447 147.725C543.447 146.825 543.672 145.925 544.122 145.025C544.472 144.325 545.022 143.508 545.772 142.575C546.522 141.642 547.089 141.075 547.472 140.875ZM570.171 140.2C570.371 140.05 570.671 139.975 571.071 139.975C571.421 139.975 571.687 140.033 571.871 140.15C572.304 140.367 572.521 140.742 572.521 141.275C572.521 141.675 572.404 142.275 572.171 143.075C572.071 143.425 571.754 144.658 571.221 146.775C570.954 147.925 570.621 148.942 570.221 149.825C569.821 150.708 569.437 151.292 569.071 151.575C568.754 151.842 568.287 151.975 567.671 151.975C566.404 151.975 565.229 151.567 564.146 150.75C563.696 150.433 563.179 149.867 562.596 149.05C561.996 148.3 561.662 147.925 561.596 147.925C561.546 147.925 561.437 148.575 561.271 149.875C561.187 150.675 561.104 151.233 561.021 151.55C560.937 151.85 560.812 152.092 560.646 152.275C560.346 152.592 559.979 152.75 559.546 152.75C559.162 152.75 558.821 152.625 558.521 152.375C558.237 152.142 558.096 151.767 558.096 151.25C558.096 151.183 558.096 151.067 558.096 150.9C558.112 150.733 558.121 150.6 558.121 150.5C558.154 149.4 558.271 148.242 558.471 147.025C558.671 145.808 558.879 145 559.096 144.6C559.729 143.367 560.454 142.75 561.271 142.75C561.687 142.75 562.012 142.858 562.246 143.075C562.496 143.275 562.846 143.758 563.296 144.525C564.912 147.325 566.204 148.725 567.171 148.725C567.437 148.725 567.996 146.958 568.846 143.425C569.146 142.242 569.362 141.467 569.496 141.1C569.646 140.733 569.871 140.433 570.171 140.2ZM579.784 141.325C580.168 141.042 580.676 140.9 581.309 140.9C581.876 140.9 582.401 141.017 582.884 141.25C583.384 141.483 583.709 141.792 583.859 142.175C583.976 142.492 584.034 142.708 584.034 142.825C584.034 143.058 583.876 143.342 583.559 143.675C583.276 143.992 582.834 144.15 582.234 144.15C581.851 144.15 581.609 144.175 581.509 144.225C581.426 144.275 581.368 144.392 581.334 144.575V144.925C581.334 145.608 581.493 146.467 581.809 147.5C582.093 148.433 582.234 149.392 582.234 150.375C582.234 151.358 582.093 152.117 581.809 152.65C581.126 153.95 580.068 154.6 578.634 154.6C578.334 154.6 578.109 154.592 577.959 154.575C576.543 154.425 575.709 154.033 575.459 153.4C575.343 153.083 575.284 152.858 575.284 152.725C575.284 152.508 575.434 152.217 575.734 151.85C575.968 151.6 576.176 151.45 576.359 151.4C576.543 151.333 576.951 151.3 577.584 151.3H578.984L579.034 150.5V150.325C579.034 149.775 578.918 149.075 578.684 148.225C578.384 147.175 578.234 146.108 578.234 145.025V144.575C578.234 144.025 578.268 143.633 578.334 143.4C578.401 143.15 578.534 142.858 578.734 142.525C579.084 141.958 579.434 141.558 579.784 141.325ZM593.507 136.275C593.79 135.942 594.132 135.775 594.532 135.775C594.932 135.775 595.299 135.942 595.632 136.275L596.107 136.75C596.09 137.3 596.049 138.133 595.982 139.25C595.915 140.35 595.874 141.175 595.857 141.725L598.107 141.575C599.624 141.492 600.39 141.433 600.407 141.4C600.44 141.383 600.507 140.592 600.607 139.025C600.674 137.875 600.732 137.183 600.782 136.95C600.832 136.7 600.99 136.467 601.257 136.25C601.607 135.95 601.957 135.8 602.307 135.8C602.64 135.8 602.965 135.958 603.282 136.275C603.565 136.558 603.707 136.85 603.707 137.15C603.707 137.183 603.674 137.567 603.607 138.3C603.54 139.067 603.474 141.308 603.407 145.025C603.374 147.558 603.34 149.067 603.307 149.55C603.274 150.017 603.157 150.333 602.957 150.5C602.707 150.717 602.424 150.825 602.107 150.825C600.89 150.825 600.282 149.35 600.282 146.4V144.55H598.907C598.04 144.55 597.324 144.6 596.757 144.7C596.207 144.8 595.932 145.033 595.932 145.4C595.932 145.683 596.049 146.033 596.282 146.45C596.499 146.833 596.607 147.217 596.607 147.6C596.607 147.7 596.59 147.917 596.557 148.25C596.374 149.467 595.957 150.192 595.307 150.425C595.057 150.508 594.84 150.55 594.657 150.55C593.807 150.55 593.299 149.6 593.132 147.7C593.032 146.9 592.982 144.108 592.982 139.325C592.982 138.025 592.99 137.275 593.007 137.075C593.007 136.875 593.174 136.608 593.507 136.275ZM610.288 136.45C611.154 136.267 611.921 136.175 612.588 136.175C613.254 136.175 613.704 136.258 613.938 136.425C614.304 136.692 614.488 137.05 614.488 137.5C614.488 137.767 614.429 138.008 614.313 138.225C614.129 138.542 613.938 138.75 613.738 138.85C613.538 138.95 613.104 139.033 612.438 139.1C611.504 139.233 610.838 139.333 610.438 139.4L609.438 139.6L609.488 141.175L609.513 142.725L610.738 142.7C611.588 142.633 612.121 142.517 612.338 142.35C612.571 142.183 612.854 142.1 613.188 142.1C613.588 142.1 613.946 142.225 614.263 142.475C614.596 142.725 614.763 143.033 614.763 143.4C614.763 143.733 614.596 144.1 614.263 144.5C613.946 144.9 613.588 145.158 613.188 145.275C612.921 145.358 612.288 145.483 611.288 145.65C610.304 145.8 609.671 145.875 609.388 145.875C609.304 145.875 609.263 146.033 609.263 146.35C609.263 147.167 609.413 147.942 609.713 148.675C609.846 149.008 609.963 149.233 610.063 149.35C610.179 149.45 610.346 149.5 610.563 149.5C611.063 149.5 611.721 149.358 612.538 149.075C613.371 148.792 613.921 148.517 614.188 148.25C614.538 147.917 614.929 147.75 615.363 147.75C615.796 147.75 616.154 147.917 616.438 148.25C616.721 148.583 616.863 148.892 616.863 149.175C616.863 149.392 616.771 149.725 616.588 150.175C616.421 150.592 616.071 150.933 615.538 151.2C615.021 151.45 614.121 151.742 612.838 152.075C611.704 152.358 610.821 152.5 610.188 152.5C609.104 152.5 608.238 152.025 607.588 151.075C607.304 150.675 607.029 150.025 606.763 149.125C606.496 148.225 606.346 147.492 606.313 146.925V146.375C606.313 145.092 606.363 143.367 606.463 141.2C606.579 139.033 606.671 137.842 606.738 137.625C606.971 137.025 607.529 136.725 608.413 136.725C608.896 136.692 609.521 136.6 610.288 136.45ZM625.52 143.7C625.254 143.5 624.912 143.4 624.495 143.4C624.195 143.4 624.045 143.467 624.045 143.6C624.045 143.717 623.92 143.95 623.67 144.3C623.387 144.633 623.245 145.167 623.245 145.9C623.245 146.133 623.287 146.25 623.37 146.25C623.47 146.25 623.745 146.125 624.195 145.875C624.662 145.625 625.045 145.392 625.345 145.175C625.729 144.875 625.92 144.592 625.92 144.325C625.92 144.075 625.787 143.867 625.52 143.7ZM622.795 140.375C623.195 140.242 623.604 140.175 624.02 140.175C624.87 140.175 625.72 140.392 626.57 140.825C627.437 141.242 628.087 141.775 628.52 142.425C628.854 142.908 629.02 143.583 629.02 144.45C629.02 145.1 628.904 145.65 628.67 146.1C628.437 146.533 628.029 146.992 627.445 147.475L626.645 148.125L627.27 148.425C627.77 148.692 628.529 149.3 629.545 150.25C630.562 151.183 631.104 151.783 631.17 152.05C631.204 152.183 631.22 152.292 631.22 152.375C631.22 152.658 631.154 152.925 631.02 153.175C630.887 153.425 630.712 153.608 630.495 153.725C630.212 153.875 629.962 153.95 629.745 153.95C629.245 153.95 628.529 153.517 627.595 152.65C626.695 151.817 625.687 151.108 624.57 150.525C623.737 150.108 623.237 149.9 623.07 149.9C622.887 149.9 622.77 150.017 622.72 150.25C622.687 150.483 622.67 150.958 622.67 151.675V152.025C622.67 152.742 622.645 153.208 622.595 153.425C622.545 153.642 622.395 153.875 622.145 154.125C621.795 154.475 621.437 154.65 621.07 154.65C620.737 154.65 620.42 154.5 620.12 154.2C619.737 153.817 619.545 153.142 619.545 152.175C619.545 151.492 619.637 150.342 619.82 148.725C620.07 146.708 620.212 145.15 620.245 144.05C620.279 143.083 620.329 142.492 620.395 142.275C620.462 142.025 620.762 141.692 621.295 141.275C621.829 140.858 622.329 140.558 622.795 140.375ZM637.925 136.45C638.791 136.267 639.558 136.175 640.225 136.175C640.891 136.175 641.341 136.258 641.575 136.425C641.941 136.692 642.125 137.05 642.125 137.5C642.125 137.767 642.066 138.008 641.95 138.225C641.766 138.542 641.575 138.75 641.375 138.85C641.175 138.95 640.741 139.033 640.075 139.1C639.141 139.233 638.475 139.333 638.075 139.4L637.075 139.6L637.125 141.175L637.15 142.725L638.375 142.7C639.225 142.633 639.758 142.517 639.975 142.35C640.208 142.183 640.491 142.1 640.825 142.1C641.225 142.1 641.583 142.225 641.9 142.475C642.233 142.725 642.4 143.033 642.4 143.4C642.4 143.733 642.233 144.1 641.9 144.5C641.583 144.9 641.225 145.158 640.825 145.275C640.558 145.358 639.925 145.483 638.925 145.65C637.941 145.8 637.308 145.875 637.025 145.875C636.941 145.875 636.9 146.033 636.9 146.35C636.9 147.167 637.05 147.942 637.35 148.675C637.483 149.008 637.6 149.233 637.7 149.35C637.816 149.45 637.983 149.5 638.2 149.5C638.7 149.5 639.358 149.358 640.175 149.075C641.008 148.792 641.558 148.517 641.825 148.25C642.175 147.917 642.566 147.75 643 147.75C643.433 147.75 643.791 147.917 644.075 148.25C644.358 148.583 644.5 148.892 644.5 149.175C644.5 149.392 644.408 149.725 644.225 150.175C644.058 150.592 643.708 150.933 643.175 151.2C642.658 151.45 641.758 151.742 640.475 152.075C639.341 152.358 638.458 152.5 637.825 152.5C636.741 152.5 635.875 152.025 635.225 151.075C634.941 150.675 634.666 150.025 634.4 149.125C634.133 148.225 633.983 147.492 633.95 146.925V146.375C633.95 145.092 634 143.367 634.1 141.2C634.216 139.033 634.308 137.842 634.375 137.625C634.608 137.025 635.166 136.725 636.05 136.725C636.533 136.692 637.158 136.6 637.925 136.45ZM648.032 149.775C648.282 149.675 648.524 149.625 648.757 149.625C649.14 149.625 649.457 149.758 649.707 150.025C649.957 150.292 650.082 150.65 650.082 151.1C650.082 151.517 649.94 151.867 649.657 152.15C649.374 152.417 649.04 152.55 648.657 152.55C648.24 152.55 647.899 152.383 647.632 152.05C647.365 151.717 647.232 151.358 647.232 150.975C647.232 150.408 647.499 150.008 648.032 149.775Z" fill="#379FFF"/>
<path d="M105.078 106.91C82.1099 106.91 58.219 104.91 36.1525 110.575C-0.862264 120.079 -4.98932 152.5 19.9573 171C44.9038 189.5 113.27 183.55 167.975 183.55C218.941 183.55 318.525 186.268 369.183 183.766C414.445 181.53 459.856 180.7 505.209 180.7C528.121 180.7 564.347 180.7 585.967 180.7C607.588 180.7 651.202 185.903 691.297 180.7C716.499 177.429 741.313 175.137 747.843 151.5C753.969 129.329 730.268 112.229 707.928 107.881C690.565 104.501 656.087 104.97 638.369 104.97C583.624 104.97 528.714 104 473.873 104C439.487 104 404.959 106.346 370.616 105.94C287.503 104.958 204.643 107.881 121.495 107.881" stroke="#379FFF" stroke-width="6" stroke-linecap="round"/>
</svg>
