<svg width="535" height="398" viewBox="0 0 535 398" fill="none" xmlns="http://www.w3.org/2000/svg">
<rect y="91" width="535" height="296" rx="148" fill="white"/>
<path fill-rule="evenodd" clip-rule="evenodd" d="M276.654 127.846C277.229 127.271 277.969 126.888 278.766 126.727C307.996 120.81 330 94.9746 330 64C330 28.6538 301.346 0 266 0C230.654 0 202 28.6538 202 64C202 94.5526 223.409 120.105 252.043 126.474C252.811 126.644 253.521 127.021 254.077 127.577L262.672 136.172C264.234 137.734 266.766 137.734 268.328 136.172L276.654 127.846Z" fill="white"/>
<path d="M252.5 126.5C256.961 126.996 259.52 138.111 265.69 138.765C272.213 139.457 270.5 125.778 292.5 121.5C319.343 116.281 332.355 96.9237 333.5 66C334.746 32.3602 315.6 5 276 5C241.663 5 214.203 20.685 207 55.5C201 84.5 218.127 114.657 237.5 119.5" stroke="black" stroke-width="10" stroke-linecap="round"/>
<path d="M264.123 41.8919C265.386 49.9101 265.561 56.8579 262.979 64.5018C260.886 70.6979 258.616 76.1519 255.391 81.5943C254.061 83.8378 252.697 86.5549 251.063 88.4854C250.276 89.4147 248.101 91.7508 246.964 91.7508" stroke="black" stroke-width="10" stroke-linecap="round"/>
<path d="M246 92.1633C255.441 92.1633 265.15 89.4336 273.747 85.6801C277.494 84.044 279.592 81.1526 280.98 77.3623C283.064 71.6726 283.148 64.7625 283.148 58.7673" stroke="black" stroke-width="10" stroke-linecap="round"/>
<path d="M283 59C288.535 59 291.879 62.2431 294.575 64.0526C297.888 66.2757 304.149 68.4071 306 71" stroke="black" stroke-width="10" stroke-linecap="round"/>
<path d="M263.297 62.5232C266.536 62.5232 270.146 62.3587 272.414 50.0358C273.472 44.2906 274.207 36.598 275.332 31.5763" stroke="black" stroke-width="10" stroke-linecap="round"/>
<path d="M275.644 31C279.364 32.1871 282.153 35.9261 284.733 38.6715C287.934 42.0775 290.698 46.0897 293.03 50.137C297.094 57.1919 300.928 64.3873 306.038 70.775" stroke="black" stroke-width="10" stroke-linecap="round"/>
<path d="M163.632 169.44C164.016 169.024 164.608 168.816 165.408 168.816C166.368 168.816 167.12 169.088 167.664 169.632C168.24 170.24 168.64 170.928 168.864 171.696C169.088 172.432 169.2 173.568 169.2 175.104C169.2 176.096 169.056 178.816 168.768 183.264C168.64 185.184 168.576 186.832 168.576 188.208C168.576 189.168 168.624 189.696 168.72 189.792C168.816 189.888 169.072 189.936 169.488 189.936C170.096 189.936 171.264 189.808 172.992 189.552C174.816 189.264 175.968 189.12 176.448 189.12C176.96 189.12 177.44 189.264 177.888 189.552C178.688 190.064 179.088 190.768 179.088 191.664C179.088 192.944 178.432 193.856 177.12 194.4C176.32 194.72 174.576 195.088 171.888 195.504C170.192 195.76 168.912 195.888 168.048 195.888C166.192 195.888 164.8 195.28 163.872 194.064C163.424 193.456 163.152 192.848 163.056 192.24C162.992 191.632 162.96 190.048 162.96 187.488C162.96 184.192 163.088 181.136 163.344 178.32C163.504 176.784 163.584 175.76 163.584 175.248C163.584 174.544 163.456 173.776 163.2 172.944C162.976 172.304 162.864 171.744 162.864 171.264C162.864 170.688 163.12 170.08 163.632 169.44ZM200.03 182.736C199.838 181.296 199.662 180.496 199.502 180.336H199.454C199.198 180.336 198.574 180.96 197.582 182.208C196.622 183.456 196.142 184.24 196.142 184.56C196.142 184.752 196.83 184.848 198.206 184.848H200.27L200.03 182.736ZM206.03 185.232C206.03 185.648 206.334 187.264 206.942 190.08C207.55 192.896 207.854 194.528 207.854 194.976C207.854 195.808 207.614 196.464 207.134 196.944C206.654 197.424 205.998 197.664 205.166 197.664C203.566 197.664 202.494 196.336 201.95 193.68C201.662 192.24 201.374 191.376 201.086 191.088C200.83 190.768 200.11 190.608 198.926 190.608C198.766 190.608 198.462 190.624 198.014 190.656C197.566 190.656 197.182 190.656 196.862 190.656C194.494 190.688 193.07 190.848 192.59 191.136C192.142 191.424 191.614 192.464 191.006 194.256C190.558 195.568 189.982 196.656 189.278 197.52C188.574 198.352 187.902 198.768 187.262 198.768C186.622 198.768 185.982 198.512 185.342 198C184.734 197.456 184.43 196.896 184.43 196.32C184.43 195.776 184.702 194.72 185.246 193.152C185.822 191.552 186.398 190.224 186.974 189.168C187.486 188.208 187.742 187.504 187.742 187.056C187.742 186.64 188.078 186 188.75 185.136C189.582 184.176 190.27 183.168 190.814 182.112C191.678 180.672 192.782 179.072 194.126 177.312C195.79 175.168 196.814 173.68 197.198 172.848C197.71 171.856 198.174 171.232 198.59 170.976C199.038 170.72 199.598 170.592 200.27 170.592C201.102 170.592 201.774 170.768 202.286 171.12C202.862 171.504 203.374 172.352 203.822 173.664C204.206 174.656 204.67 176.592 205.214 179.472C205.758 182.352 206.03 184.272 206.03 185.232ZM223.582 178.848C223.486 178.144 223.23 177.456 222.814 176.784C222.43 176.112 221.982 175.776 221.47 175.776C221.022 175.776 220.526 176.032 219.982 176.544C219.47 177.024 219.102 177.584 218.878 178.224C218.782 178.512 218.734 179.088 218.734 179.952C218.734 180.976 218.798 182.016 218.926 183.072C219.054 184.096 219.198 184.608 219.358 184.608C220.094 184.608 221.102 183.76 222.382 182.064C223.214 180.976 223.63 180.128 223.63 179.52C223.63 179.232 223.614 179.008 223.582 178.848ZM219.502 170.4C220.622 170.112 221.454 169.968 221.998 169.968C222.638 169.968 223.39 170.176 224.254 170.592C226.046 171.36 227.486 172.96 228.574 175.392C228.99 176.32 229.198 177.376 229.198 178.56C229.198 178.688 229.182 178.896 229.15 179.184C229.15 179.44 229.15 179.648 229.15 179.808C229.086 181.184 228.958 182.128 228.766 182.64C228.574 183.12 227.982 184.032 226.99 185.376C225.614 187.2 224.702 188.32 224.254 188.736C223.87 189.088 223.502 189.344 223.15 189.504C222.83 189.632 222.062 189.856 220.846 190.176L219.262 190.56V192.48C219.262 193.76 219.502 194.768 219.982 195.504C220.494 196.272 220.75 197.536 220.75 199.296C220.75 200.512 220.702 201.312 220.606 201.696C220.51 202.048 220.238 202.432 219.79 202.848C219.182 203.424 218.51 203.712 217.774 203.712C217.134 203.712 216.558 203.504 216.046 203.088C214.51 201.936 213.566 195.6 213.214 184.08L212.974 177.072L213.982 175.104C215.23 172.64 217.07 171.072 219.502 170.4ZM257.485 172.224C257.197 172.128 256.909 172.08 256.621 172.08C255.821 172.08 255.037 172.352 254.269 172.896C253.501 173.408 253.037 174.032 252.877 174.768C252.685 175.632 252.589 176.528 252.589 177.456C252.589 179.152 252.877 180.912 253.453 182.736C254.093 184.656 254.413 185.968 254.413 186.672C254.413 187.248 254.525 187.536 254.749 187.536C254.941 187.536 255.229 187.472 255.613 187.344C256.573 187.088 257.309 186.784 257.821 186.432C258.365 186.048 258.957 185.408 259.597 184.512C260.141 183.712 260.477 183.088 260.605 182.64C260.733 182.16 260.797 181.248 260.797 179.904C260.797 178.528 260.717 177.584 260.557 177.072C260.429 176.528 260.045 175.744 259.405 174.72C258.509 173.152 257.869 172.32 257.485 172.224ZM252.253 167.472C253.565 166.832 254.941 166.512 256.381 166.512C258.429 166.512 260.125 167.072 261.469 168.192C262.813 169.312 264.125 171.248 265.405 174C265.853 174.96 266.141 175.68 266.269 176.16C266.397 176.608 266.461 177.248 266.461 178.08C266.461 178.912 266.445 179.616 266.413 180.192C266.349 182.72 265.981 184.64 265.309 185.952C264.797 187.008 263.965 188.176 262.813 189.456C261.661 190.736 260.653 191.584 259.789 192C259.053 192.384 257.885 192.752 256.285 193.104C254.717 193.456 253.421 193.632 252.397 193.632C251.213 193.632 250.333 193.44 249.757 193.056C249.213 192.672 248.861 192.032 248.701 191.136C248.477 190.048 248.205 189.248 247.885 188.736C247.565 188.064 247.197 185.6 246.781 181.344C246.525 178.208 246.397 176.352 246.397 175.776C246.397 174.944 246.541 174.144 246.829 173.376C247.245 172.256 247.965 171.136 248.989 170.016C250.045 168.896 251.133 168.048 252.253 167.472ZM287.311 182.736C287.119 181.296 286.943 180.496 286.783 180.336H286.735C286.479 180.336 285.855 180.96 284.863 182.208C283.903 183.456 283.423 184.24 283.423 184.56C283.423 184.752 284.111 184.848 285.487 184.848H287.551L287.311 182.736ZM293.311 185.232C293.311 185.648 293.615 187.264 294.223 190.08C294.831 192.896 295.135 194.528 295.135 194.976C295.135 195.808 294.895 196.464 294.415 196.944C293.935 197.424 293.279 197.664 292.447 197.664C290.847 197.664 289.775 196.336 289.231 193.68C288.943 192.24 288.655 191.376 288.367 191.088C288.111 190.768 287.391 190.608 286.207 190.608C286.047 190.608 285.743 190.624 285.295 190.656C284.847 190.656 284.463 190.656 284.143 190.656C281.775 190.688 280.351 190.848 279.871 191.136C279.423 191.424 278.895 192.464 278.287 194.256C277.839 195.568 277.263 196.656 276.559 197.52C275.855 198.352 275.183 198.768 274.543 198.768C273.903 198.768 273.263 198.512 272.623 198C272.015 197.456 271.711 196.896 271.711 196.32C271.711 195.776 271.983 194.72 272.527 193.152C273.103 191.552 273.679 190.224 274.255 189.168C274.767 188.208 275.023 187.504 275.023 187.056C275.023 186.64 275.359 186 276.031 185.136C276.863 184.176 277.551 183.168 278.095 182.112C278.959 180.672 280.063 179.072 281.407 177.312C283.071 175.168 284.095 173.68 284.479 172.848C284.991 171.856 285.455 171.232 285.871 170.976C286.319 170.72 286.879 170.592 287.551 170.592C288.383 170.592 289.055 170.768 289.567 171.12C290.143 171.504 290.655 172.352 291.103 173.664C291.487 174.656 291.951 176.592 292.495 179.472C293.039 182.352 293.311 184.272 293.311 185.232ZM320.607 171.504C321.183 170.896 321.855 170.592 322.623 170.592C323.967 170.592 324.863 171.264 325.311 172.608C325.471 173.088 325.551 173.52 325.551 173.904C325.551 174.576 324.991 177.456 323.871 182.544C323.135 185.968 322.367 188.256 321.567 189.408C320.799 190.528 319.615 191.088 318.015 191.088C316.991 191.088 315.519 190.704 313.599 189.936C311.711 189.168 310.159 188.32 308.943 187.392C307.471 186.272 306.591 185.712 306.303 185.712C305.983 185.712 305.823 186.72 305.823 188.736C305.823 190.048 305.775 190.944 305.679 191.424C305.583 191.872 305.359 192.272 305.007 192.624C304.495 193.2 303.855 193.488 303.087 193.488C302.223 193.488 301.535 193.136 301.023 192.432C300.543 191.824 300.303 190.784 300.303 189.312C300.303 188.288 300.319 187.408 300.351 186.672C300.415 183.984 300.607 182.224 300.927 181.392C301.247 180.528 301.951 179.84 303.039 179.328C303.551 179.072 304.079 178.944 304.623 178.944C306.031 178.944 308.383 180.064 311.679 182.304C314.271 184.096 316.047 184.992 317.007 184.992C317.231 184.992 317.743 183.264 318.543 179.808C319.375 176.352 319.791 174.16 319.791 173.232C319.791 172.688 320.063 172.112 320.607 171.504ZM341.717 169.824C342.709 169.664 343.477 169.584 344.021 169.584C344.469 169.584 345.077 169.744 345.845 170.064C346.997 170.544 347.893 171.168 348.533 171.936C349.205 172.672 349.541 173.44 349.541 174.24C349.541 175.008 349.237 175.696 348.629 176.304C348.117 176.816 347.493 177.072 346.757 177.072C345.925 177.072 345.061 176.736 344.165 176.064C343.589 175.648 343.045 175.44 342.533 175.44C341.701 175.44 340.501 176.064 338.933 177.312C337.941 178.112 337.237 178.864 336.821 179.568C336.405 180.272 336.197 181.104 336.197 182.064C336.197 182.544 336.245 183.072 336.341 183.648C336.725 186.112 337.861 187.344 339.749 187.344C340.421 187.344 341.253 187.168 342.245 186.816C343.077 186.496 343.669 186.336 344.021 186.336C344.309 186.336 344.677 186.464 345.125 186.72C345.733 187.04 346.165 187.552 346.421 188.256C346.549 188.544 346.613 188.88 346.613 189.264C346.613 190.288 346.053 191.12 344.933 191.76C343.845 192.4 342.325 192.752 340.373 192.816C340.277 192.816 340.133 192.832 339.941 192.864C339.749 192.864 339.605 192.864 339.509 192.864C337.749 192.864 336.245 192.496 334.997 191.76C333.781 190.992 332.693 189.792 331.733 188.16C331.285 187.392 330.997 186.72 330.869 186.144C330.773 185.568 330.725 184.4 330.725 182.64C330.725 181.008 330.773 179.872 330.869 179.232C330.997 178.592 331.237 177.904 331.589 177.168C332.165 176.08 332.757 175.2 333.365 174.528C333.973 173.824 334.853 173.056 336.005 172.224C337.093 171.424 338.005 170.88 338.741 170.592C339.477 170.272 340.469 170.016 341.717 169.824ZM366.483 165.072C367.667 164.816 368.531 164.688 369.075 164.688C369.939 164.688 370.627 164.944 371.139 165.456C371.683 165.968 371.955 166.576 371.955 167.28C371.955 167.856 371.763 168.416 371.379 168.96C371.027 169.472 370.531 169.856 369.891 170.112C369.475 170.304 367.971 170.656 365.379 171.168L361.923 171.792L361.443 173.808C361.155 175.184 361.011 176.176 361.011 176.784C361.011 177.488 361.219 177.84 361.635 177.84C361.795 177.84 362.755 177.632 364.515 177.216C366.275 176.8 367.411 176.592 367.923 176.592C368.083 176.592 368.179 176.608 368.211 176.64C369.491 177.056 370.131 177.936 370.131 179.28C370.131 180.24 369.779 180.992 369.075 181.536C368.371 182.048 366.963 182.576 364.851 183.12C363.155 183.568 362.019 183.904 361.443 184.128C360.899 184.352 360.627 184.608 360.627 184.896C360.627 185.056 360.707 185.248 360.867 185.472C361.091 185.824 361.715 186 362.739 186C363.411 186 363.971 185.984 364.419 185.952C364.643 185.952 364.931 185.952 365.283 185.952C365.635 185.92 365.875 185.904 366.003 185.904C366.707 185.904 367.203 185.968 367.491 186.096C367.811 186.192 368.147 186.416 368.499 186.768C369.107 187.376 369.411 188.08 369.411 188.88C369.411 189.52 369.187 190.112 368.739 190.656C368.483 191.008 368.099 191.264 367.587 191.424C367.075 191.552 366.163 191.68 364.851 191.808C363.891 191.904 363.059 191.952 362.355 191.952C360.147 191.952 358.419 191.28 357.171 189.936C355.571 188.304 354.771 185.856 354.771 182.592C354.771 180.864 354.963 178.736 355.347 176.208C355.603 174.672 355.731 173.552 355.731 172.848C355.731 172.336 355.603 171.904 355.347 171.552C354.995 171.072 354.819 170.496 354.819 169.824C354.819 169.056 355.027 168.448 355.443 168C355.923 167.456 357.587 166.896 360.435 166.32C362.035 166 364.051 165.584 366.483 165.072Z" fill="black"/>
<path d="M109.212 252.154V250.709H118.511V252.154H114.762V263H113.181V252.154H109.212ZM120.045 263V250.369H121.575V255.503C121.723 255.259 121.921 255.033 122.17 254.823C122.42 254.608 122.723 254.435 123.08 254.304C123.437 254.168 123.85 254.1 124.321 254.1C124.893 254.1 125.412 254.208 125.876 254.423C126.341 254.633 126.709 254.933 126.981 255.324C127.253 255.715 127.389 256.18 127.389 256.718V263H125.817V257.033C125.817 256.506 125.635 256.101 125.273 255.817C124.916 255.528 124.448 255.384 123.87 255.384C123.479 255.384 123.111 255.449 122.765 255.579C122.42 255.704 122.139 255.897 121.924 256.157C121.714 256.412 121.609 256.738 121.609 257.135V263H120.045ZM130.792 258.971C130.792 259.526 130.883 260.031 131.064 260.484C131.251 260.932 131.532 261.289 131.906 261.555C132.285 261.821 132.758 261.954 133.325 261.954C133.886 261.954 134.368 261.824 134.77 261.563C135.178 261.303 135.439 260.926 135.552 260.433H137.04C136.932 261.028 136.694 261.529 136.326 261.938C135.957 262.345 135.512 262.654 134.991 262.864C134.47 263.068 133.926 263.17 133.359 263.17C132.537 263.17 131.815 262.992 131.192 262.634C130.568 262.277 130.081 261.765 129.73 261.096C129.378 260.427 129.203 259.625 129.203 258.69C129.203 257.767 129.361 256.956 129.679 256.259C129.996 255.562 130.455 255.018 131.056 254.627C131.662 254.236 132.39 254.041 133.24 254.041C134.067 254.041 134.767 254.219 135.34 254.576C135.912 254.933 136.345 255.438 136.64 256.089C136.94 256.735 137.091 257.503 137.091 258.393V258.971H130.792ZM130.801 257.908H135.578C135.578 257.404 135.493 256.951 135.323 256.548C135.153 256.14 134.892 255.82 134.541 255.588C134.195 255.35 133.759 255.231 133.232 255.231C132.682 255.231 132.226 255.364 131.863 255.63C131.506 255.891 131.237 256.228 131.056 256.642C130.88 257.05 130.795 257.472 130.801 257.908ZM142.728 263V250.369H144.258V255.503C144.405 255.259 144.603 255.033 144.853 254.823C145.102 254.608 145.405 254.435 145.762 254.304C146.119 254.168 146.533 254.1 147.003 254.1C147.575 254.1 148.094 254.208 148.559 254.423C149.023 254.633 149.392 254.933 149.664 255.324C149.936 255.715 150.072 256.18 150.072 256.718V263H148.499V257.033C148.499 256.506 148.318 256.101 147.955 255.817C147.598 255.528 147.131 255.384 146.553 255.384C146.162 255.384 145.793 255.449 145.448 255.579C145.102 255.704 144.821 255.897 144.606 256.157C144.396 256.412 144.292 256.738 144.292 257.135V263H142.728ZM155.846 263.17C155.036 263.17 154.327 262.997 153.721 262.651C153.115 262.3 152.644 261.787 152.31 261.113C151.976 260.439 151.809 259.614 151.809 258.639C151.809 257.721 151.964 256.917 152.276 256.225C152.588 255.534 153.044 254.999 153.645 254.619C154.251 254.234 154.985 254.041 155.846 254.041C156.656 254.041 157.359 254.219 157.954 254.576C158.555 254.928 159.019 255.446 159.348 256.132C159.677 256.818 159.841 257.653 159.841 258.639C159.841 259.535 159.688 260.322 159.382 261.002C159.082 261.682 158.634 262.215 158.039 262.6C157.45 262.98 156.719 263.17 155.846 263.17ZM155.846 261.929C156.373 261.929 156.818 261.796 157.181 261.529C157.543 261.263 157.818 260.881 158.005 260.382C158.192 259.883 158.286 259.291 158.286 258.605C158.286 257.976 158.203 257.413 158.039 256.914C157.875 256.41 157.611 256.01 157.249 255.715C156.892 255.421 156.424 255.273 155.846 255.273C155.313 255.273 154.863 255.407 154.495 255.673C154.126 255.934 153.846 256.313 153.653 256.812C153.466 257.311 153.373 257.908 153.373 258.605C153.373 259.223 153.458 259.784 153.628 260.288C153.798 260.793 154.064 261.192 154.427 261.487C154.789 261.782 155.262 261.929 155.846 261.929ZM165.911 255.358H163.931V260.824C163.931 261.136 163.962 261.365 164.024 261.512C164.092 261.654 164.203 261.745 164.356 261.784C164.515 261.824 164.73 261.844 165.002 261.844H165.962V262.898C165.855 262.938 165.69 262.972 165.469 263C165.254 263.028 164.985 263.043 164.662 263.043C164.056 263.043 163.585 262.96 163.251 262.796C162.917 262.632 162.681 262.388 162.545 262.065C162.415 261.742 162.35 261.345 162.35 260.875V255.358H160.922V254.211H162.392L162.775 251.652H163.931V254.202H165.911V255.358ZM172.366 255.358H170.385V260.824C170.385 261.136 170.416 261.365 170.479 261.512C170.547 261.654 170.657 261.745 170.81 261.784C170.969 261.824 171.184 261.844 171.456 261.844H172.417V262.898C172.309 262.938 172.145 262.972 171.924 263C171.708 263.028 171.439 263.043 171.116 263.043C170.51 263.043 170.039 262.96 169.705 262.796C169.371 262.632 169.136 262.388 169 262.065C168.869 261.742 168.804 261.345 168.804 260.875V255.358H167.376V254.211H168.847L169.229 251.652H170.385V254.202H172.366V255.358ZM175.343 258.971C175.343 259.526 175.434 260.031 175.615 260.484C175.802 260.932 176.083 261.289 176.457 261.555C176.837 261.821 177.31 261.954 177.876 261.954C178.437 261.954 178.919 261.824 179.321 261.563C179.729 261.303 179.99 260.926 180.103 260.433H181.591C181.483 261.028 181.245 261.529 180.877 261.938C180.509 262.345 180.064 262.654 179.542 262.864C179.021 263.068 178.477 263.17 177.91 263.17C177.089 263.17 176.366 262.992 175.743 262.634C175.12 262.277 174.632 261.765 174.281 261.096C173.93 260.427 173.754 259.625 173.754 258.69C173.754 257.767 173.913 256.956 174.23 256.259C174.547 255.562 175.006 255.018 175.607 254.627C176.213 254.236 176.941 254.041 177.791 254.041C178.619 254.041 179.319 254.219 179.891 254.576C180.463 254.933 180.897 255.438 181.191 256.089C181.492 256.735 181.642 257.503 181.642 258.393V258.971H175.343ZM175.352 257.908H180.129C180.129 257.404 180.044 256.951 179.874 256.548C179.704 256.14 179.443 255.82 179.092 255.588C178.746 255.35 178.31 255.231 177.783 255.231C177.233 255.231 176.777 255.364 176.414 255.63C176.057 255.891 175.788 256.228 175.607 256.642C175.431 257.05 175.346 257.472 175.352 257.908ZM186.7 263.17C186.088 263.17 185.519 263.077 184.992 262.889C184.47 262.697 184.037 262.399 183.691 261.997C183.346 261.589 183.127 261.07 183.037 260.441H184.465C184.544 260.787 184.686 261.076 184.89 261.308C185.099 261.535 185.36 261.708 185.672 261.827C185.983 261.94 186.323 261.997 186.692 261.997C187.281 261.997 187.757 261.886 188.12 261.665C188.482 261.444 188.664 261.104 188.664 260.645C188.664 260.322 188.567 260.065 188.375 259.872C188.188 259.674 187.896 259.529 187.499 259.438L185.68 258.988C184.972 258.818 184.405 258.552 183.98 258.189C183.555 257.826 183.343 257.319 183.343 256.667C183.337 256.152 183.459 255.698 183.708 255.307C183.958 254.916 184.332 254.608 184.83 254.381C185.329 254.154 185.949 254.041 186.692 254.041C187.644 254.041 188.412 254.256 188.995 254.687C189.585 255.112 189.891 255.738 189.913 256.565H188.528C188.471 256.146 188.281 255.815 187.958 255.571C187.641 255.322 187.213 255.197 186.675 255.197C186.114 255.197 185.658 255.31 185.306 255.537C184.955 255.758 184.779 256.104 184.779 256.574C184.779 256.886 184.904 257.132 185.153 257.313C185.403 257.489 185.771 257.636 186.258 257.755L188.018 258.198C188.426 258.305 188.76 258.447 189.021 258.622C189.287 258.798 189.497 258.994 189.65 259.209C189.808 259.424 189.919 259.651 189.981 259.889C190.049 260.121 190.083 260.345 190.083 260.56C190.083 261.099 189.947 261.563 189.675 261.954C189.409 262.34 189.024 262.64 188.519 262.855C188.021 263.065 187.414 263.17 186.7 263.17ZM196.376 255.358H194.396V260.824C194.396 261.136 194.427 261.365 194.489 261.512C194.557 261.654 194.668 261.745 194.821 261.784C194.979 261.824 195.195 261.844 195.467 261.844H196.427V262.898C196.319 262.938 196.155 262.972 195.934 263C195.719 263.028 195.45 263.043 195.127 263.043C194.52 263.043 194.05 262.96 193.716 262.796C193.381 262.632 193.146 262.388 193.01 262.065C192.88 261.742 192.815 261.345 192.815 260.875V255.358H191.387V254.211H192.857L193.24 251.652H194.396V254.202H196.376V255.358ZM205.918 265.907C204.536 265.907 203.459 265.706 202.688 265.304C201.923 264.907 201.541 264.337 201.541 263.595C201.541 263.278 201.615 263.009 201.762 262.787C201.909 262.561 202.085 262.374 202.289 262.226C202.493 262.079 202.683 261.963 202.858 261.878C203.034 261.787 203.147 261.722 203.198 261.682C203.102 261.626 202.98 261.555 202.833 261.47C202.691 261.385 202.567 261.272 202.459 261.13C202.351 260.988 202.297 260.804 202.297 260.577C202.297 260.3 202.428 260.045 202.688 259.812C202.949 259.58 203.334 259.407 203.844 259.294C203.329 259.033 202.926 258.688 202.637 258.257C202.348 257.826 202.204 257.359 202.204 256.854C202.204 256.288 202.357 255.795 202.663 255.375C202.975 254.956 203.417 254.636 203.989 254.415C204.561 254.188 205.241 254.075 206.029 254.075C206.601 254.075 207.083 254.143 207.474 254.279C207.865 254.409 208.228 254.596 208.562 254.84C208.653 254.8 208.794 254.741 208.987 254.661C209.185 254.576 209.403 254.486 209.641 254.389C209.879 254.293 210.1 254.202 210.304 254.117C210.514 254.027 210.681 253.959 210.806 253.913L210.797 255.367L209.259 255.656C209.344 255.837 209.412 256.036 209.463 256.251C209.52 256.466 209.548 256.667 209.548 256.854C209.548 257.37 209.412 257.838 209.14 258.257C208.874 258.676 208.468 259.011 207.924 259.26C207.38 259.509 206.7 259.634 205.884 259.634C205.816 259.634 205.729 259.634 205.621 259.634C205.519 259.628 205.431 259.623 205.357 259.617C204.757 259.634 204.343 259.702 204.116 259.821C203.89 259.934 203.776 260.062 203.776 260.203C203.776 260.368 203.904 260.481 204.159 260.543C204.414 260.606 204.847 260.66 205.459 260.705C205.68 260.716 205.952 260.73 206.275 260.747C206.604 260.764 206.967 260.787 207.363 260.816C208.287 260.872 208.998 261.107 209.497 261.521C209.996 261.935 210.245 262.493 210.245 263.196C210.245 263.995 209.888 264.646 209.174 265.151C208.46 265.655 207.375 265.907 205.918 265.907ZM206.199 264.896C207.009 264.896 207.63 264.774 208.06 264.53C208.491 264.286 208.706 263.918 208.706 263.425C208.706 263.074 208.573 262.787 208.307 262.566C208.046 262.34 207.647 262.209 207.108 262.175L204.643 262.014C204.422 262.003 204.193 262.059 203.955 262.184C203.717 262.303 203.513 262.47 203.343 262.685C203.179 262.901 203.096 263.145 203.096 263.417C203.096 263.881 203.349 264.244 203.853 264.505C204.363 264.765 205.145 264.896 206.199 264.896ZM205.927 258.622C206.562 258.622 207.072 258.475 207.457 258.18C207.848 257.886 208.043 257.449 208.043 256.871C208.043 256.276 207.848 255.823 207.457 255.511C207.072 255.2 206.562 255.044 205.927 255.044C205.287 255.044 204.768 255.203 204.371 255.52C203.98 255.832 203.785 256.282 203.785 256.871C203.785 257.427 203.972 257.857 204.346 258.163C204.72 258.469 205.247 258.622 205.927 258.622ZM214.301 254.211V263H212.779V254.211H214.301ZM214.335 250.717V252.349H212.728V250.717H214.335ZM216.996 263V254.211H218.492V255.902C218.64 255.483 218.847 255.137 219.113 254.865C219.379 254.588 219.682 254.381 220.022 254.245C220.368 254.109 220.725 254.041 221.093 254.041C221.224 254.041 221.351 254.049 221.476 254.067C221.601 254.083 221.697 254.112 221.765 254.151V255.673C221.68 255.633 221.569 255.608 221.433 255.596C221.303 255.579 221.193 255.571 221.102 255.571C220.751 255.548 220.422 255.571 220.116 255.639C219.81 255.701 219.541 255.812 219.308 255.97C219.076 256.129 218.892 256.339 218.756 256.599C218.626 256.854 218.56 257.166 218.56 257.534V263H216.996ZM225.636 263.111C225.16 263.111 224.774 263.045 224.48 262.915C224.191 262.785 223.967 262.609 223.808 262.388C223.655 262.167 223.55 261.915 223.494 261.631C223.443 261.342 223.417 261.045 223.417 260.739V250.369H224.964V260.586C224.964 261.028 225.049 261.359 225.219 261.58C225.395 261.801 225.639 261.923 225.95 261.946L226.426 261.954V262.974C226.296 263.014 226.16 263.045 226.018 263.068C225.877 263.096 225.749 263.111 225.636 263.111ZM231.181 263.17C230.569 263.17 230 263.077 229.473 262.889C228.951 262.697 228.518 262.399 228.172 261.997C227.826 261.589 227.608 261.07 227.518 260.441H228.946C229.025 260.787 229.167 261.076 229.371 261.308C229.58 261.535 229.841 261.708 230.153 261.827C230.464 261.94 230.804 261.997 231.173 261.997C231.762 261.997 232.238 261.886 232.601 261.665C232.963 261.444 233.145 261.104 233.145 260.645C233.145 260.322 233.048 260.065 232.856 259.872C232.669 259.674 232.377 259.529 231.98 259.438L230.161 258.988C229.453 258.818 228.886 258.552 228.461 258.189C228.036 257.826 227.824 257.319 227.824 256.667C227.818 256.152 227.94 255.698 228.189 255.307C228.438 254.916 228.812 254.608 229.311 254.381C229.81 254.154 230.43 254.041 231.173 254.041C232.125 254.041 232.892 254.256 233.476 254.687C234.065 255.112 234.371 255.738 234.394 256.565H233.009C232.952 256.146 232.762 255.815 232.439 255.571C232.122 255.322 231.694 255.197 231.156 255.197C230.595 255.197 230.138 255.31 229.787 255.537C229.436 255.758 229.26 256.104 229.26 256.574C229.26 256.886 229.385 257.132 229.634 257.313C229.883 257.489 230.252 257.636 230.739 257.755L232.499 258.198C232.907 258.305 233.241 258.447 233.502 258.622C233.768 258.798 233.978 258.994 234.131 259.209C234.289 259.424 234.4 259.651 234.462 259.889C234.53 260.121 234.564 260.345 234.564 260.56C234.564 261.099 234.428 261.563 234.156 261.954C233.89 262.34 233.504 262.64 233 262.855C232.501 263.065 231.895 263.17 231.181 263.17ZM242.703 263.17C242.137 263.17 241.635 263.071 241.199 262.872C240.763 262.668 240.42 262.377 240.17 261.997C239.927 261.617 239.805 261.158 239.805 260.62C239.805 259.645 240.145 258.92 240.825 258.444C241.505 257.968 242.596 257.713 244.097 257.679L245.67 257.636V256.948C245.67 256.41 245.508 255.985 245.185 255.673C244.862 255.356 244.361 255.197 243.681 255.197C243.177 255.203 242.732 255.322 242.346 255.554C241.967 255.786 241.72 256.166 241.607 256.693H240.221C240.255 256.121 240.417 255.639 240.706 255.248C240.995 254.851 241.397 254.551 241.913 254.347C242.434 254.143 243.049 254.041 243.757 254.041C244.522 254.041 245.157 254.149 245.661 254.364C246.171 254.579 246.551 254.897 246.8 255.316C247.055 255.735 247.183 256.251 247.183 256.863V263H245.84L245.729 261.351C245.389 262.037 244.956 262.513 244.429 262.779C243.908 263.04 243.332 263.17 242.703 263.17ZM243.179 262.039C243.474 262.039 243.766 261.986 244.055 261.878C244.35 261.77 244.619 261.626 244.862 261.444C245.106 261.257 245.299 261.051 245.44 260.824C245.588 260.592 245.664 260.354 245.67 260.11V258.605L244.361 258.631C243.692 258.642 243.131 258.71 242.678 258.835C242.23 258.96 241.893 259.155 241.666 259.421C241.445 259.688 241.335 260.036 241.335 260.467C241.335 260.96 241.505 261.345 241.845 261.623C242.191 261.901 242.635 262.039 243.179 262.039ZM249.698 263V254.211H251.194V255.902C251.341 255.483 251.548 255.137 251.815 254.865C252.081 254.588 252.384 254.381 252.724 254.245C253.07 254.109 253.427 254.041 253.795 254.041C253.925 254.041 254.053 254.049 254.178 254.067C254.302 254.083 254.399 254.112 254.467 254.151V255.673C254.382 255.633 254.271 255.608 254.135 255.596C254.005 255.579 253.894 255.571 253.804 255.571C253.452 255.548 253.124 255.571 252.818 255.639C252.512 255.701 252.242 255.812 252.01 255.97C251.778 256.129 251.594 256.339 251.458 256.599C251.327 256.854 251.262 257.166 251.262 257.534V263H249.698ZM257.058 258.971C257.058 259.526 257.149 260.031 257.33 260.484C257.517 260.932 257.798 261.289 258.172 261.555C258.552 261.821 259.025 261.954 259.591 261.954C260.152 261.954 260.634 261.824 261.036 261.563C261.444 261.303 261.705 260.926 261.818 260.433H263.306C263.198 261.028 262.96 261.529 262.592 261.938C262.224 262.345 261.779 262.654 261.257 262.864C260.736 263.068 260.192 263.17 259.625 263.17C258.804 263.17 258.081 262.992 257.458 262.634C256.835 262.277 256.347 261.765 255.996 261.096C255.645 260.427 255.469 259.625 255.469 258.69C255.469 257.767 255.628 256.956 255.945 256.259C256.262 255.562 256.721 255.018 257.322 254.627C257.928 254.236 258.656 254.041 259.506 254.041C260.334 254.041 261.034 254.219 261.606 254.576C262.178 254.933 262.612 255.438 262.906 256.089C263.207 256.735 263.357 257.503 263.357 258.393V258.971H257.058ZM257.067 257.908H261.844C261.844 257.404 261.759 256.951 261.589 256.548C261.419 256.14 261.158 255.82 260.807 255.588C260.461 255.35 260.025 255.231 259.498 255.231C258.948 255.231 258.492 255.364 258.129 255.63C257.772 255.891 257.503 256.228 257.322 256.642C257.146 257.05 257.061 257.472 257.067 257.908ZM280.454 254.211L277.794 263H276.247L274.241 256.514L272.337 263H270.798L268.087 254.211H269.54L271.555 260.968H271.691L273.671 254.211H274.861L276.918 260.951H277.054L278.984 254.211H280.454ZM284.187 263.17C283.621 263.17 283.119 263.071 282.683 262.872C282.247 262.668 281.904 262.377 281.654 261.997C281.411 261.617 281.289 261.158 281.289 260.62C281.289 259.645 281.629 258.92 282.309 258.444C282.989 257.968 284.08 257.713 285.581 257.679L287.154 257.636V256.948C287.154 256.41 286.992 255.985 286.669 255.673C286.346 255.356 285.845 255.197 285.165 255.197C284.661 255.203 284.216 255.322 283.83 255.554C283.451 255.786 283.204 256.166 283.091 256.693H281.705C281.739 256.121 281.901 255.639 282.19 255.248C282.479 254.851 282.881 254.551 283.397 254.347C283.918 254.143 284.533 254.041 285.241 254.041C286.006 254.041 286.641 254.149 287.145 254.364C287.655 254.579 288.035 254.897 288.284 255.316C288.539 255.735 288.667 256.251 288.667 256.863V263H287.324L287.213 261.351C286.873 262.037 286.44 262.513 285.913 262.779C285.392 263.04 284.816 263.17 284.187 263.17ZM284.663 262.039C284.958 262.039 285.25 261.986 285.539 261.878C285.834 261.77 286.103 261.626 286.346 261.444C286.59 261.257 286.783 261.051 286.924 260.824C287.072 260.592 287.148 260.354 287.154 260.11V258.605L285.845 258.631C285.176 258.642 284.615 258.71 284.162 258.835C283.714 258.96 283.377 259.155 283.15 259.421C282.929 259.688 282.819 260.036 282.819 260.467C282.819 260.96 282.989 261.345 283.329 261.623C283.675 261.901 284.119 262.039 284.663 262.039ZM292.882 254.211V263H291.361V254.211H292.882ZM292.916 250.717V252.349H291.31V250.717H292.916ZM300.059 255.358H298.079V260.824C298.079 261.136 298.11 261.365 298.172 261.512C298.24 261.654 298.351 261.745 298.504 261.784C298.663 261.824 298.878 261.844 299.15 261.844H300.11V262.898C300.003 262.938 299.838 262.972 299.617 263C299.402 263.028 299.133 263.043 298.81 263.043C298.204 263.043 297.733 262.96 297.399 262.796C297.065 262.632 296.829 262.388 296.693 262.065C296.563 261.742 296.498 261.345 296.498 260.875V255.358H295.07V254.211H296.54L296.923 251.652H298.079V254.202H300.059V255.358ZM303.848 254.211V263H302.326V254.211H303.848ZM303.882 250.717V252.349H302.275V250.717H303.882ZM306.543 263V254.211H308.065V255.486C308.206 255.242 308.402 255.013 308.651 254.797C308.906 254.582 309.212 254.409 309.569 254.279C309.932 254.149 310.348 254.083 310.819 254.083C311.374 254.083 311.884 254.194 312.349 254.415C312.819 254.636 313.193 254.982 313.471 255.452C313.754 255.917 313.896 256.517 313.896 257.254V263H312.323V257.407C312.323 256.721 312.142 256.214 311.779 255.885C311.422 255.551 310.958 255.384 310.385 255.384C309.989 255.384 309.617 255.449 309.272 255.579C308.926 255.704 308.646 255.897 308.43 256.157C308.215 256.412 308.107 256.735 308.107 257.126V263H306.543ZM319.891 265.907C318.508 265.907 317.431 265.706 316.661 265.304C315.896 264.907 315.513 264.337 315.513 263.595C315.513 263.278 315.587 263.009 315.734 262.787C315.882 262.561 316.057 262.374 316.261 262.226C316.465 262.079 316.655 261.963 316.831 261.878C317.006 261.787 317.12 261.722 317.171 261.682C317.074 261.626 316.953 261.555 316.805 261.47C316.664 261.385 316.539 261.272 316.431 261.13C316.324 260.988 316.27 260.804 316.27 260.577C316.27 260.3 316.4 260.045 316.661 259.812C316.921 259.58 317.307 259.407 317.817 259.294C317.301 259.033 316.899 258.688 316.61 258.257C316.321 257.826 316.176 257.359 316.176 256.854C316.176 256.288 316.329 255.795 316.635 255.375C316.947 254.956 317.389 254.636 317.961 254.415C318.534 254.188 319.214 254.075 320.001 254.075C320.574 254.075 321.055 254.143 321.446 254.279C321.837 254.409 322.2 254.596 322.534 254.84C322.625 254.8 322.767 254.741 322.959 254.661C323.158 254.576 323.376 254.486 323.614 254.389C323.852 254.293 324.073 254.202 324.277 254.117C324.486 254.027 324.654 253.959 324.778 253.913L324.77 255.367L323.231 255.656C323.316 255.837 323.384 256.036 323.435 256.251C323.492 256.466 323.52 256.667 323.52 256.854C323.52 257.37 323.384 257.838 323.112 258.257C322.846 258.676 322.441 259.011 321.897 259.26C321.353 259.509 320.673 259.634 319.857 259.634C319.789 259.634 319.701 259.634 319.593 259.634C319.491 259.628 319.403 259.623 319.33 259.617C318.729 259.634 318.315 259.702 318.089 259.821C317.862 259.934 317.749 260.062 317.749 260.203C317.749 260.368 317.876 260.481 318.131 260.543C318.386 260.606 318.82 260.66 319.432 260.705C319.653 260.716 319.925 260.73 320.248 260.747C320.576 260.764 320.939 260.787 321.336 260.816C322.259 260.872 322.971 261.107 323.469 261.521C323.968 261.935 324.217 262.493 324.217 263.196C324.217 263.995 323.86 264.646 323.146 265.151C322.432 265.655 321.347 265.907 319.891 265.907ZM320.171 264.896C320.982 264.896 321.602 264.774 322.033 264.53C322.463 264.286 322.679 263.918 322.679 263.425C322.679 263.074 322.546 262.787 322.279 262.566C322.019 262.34 321.619 262.209 321.081 262.175L318.616 262.014C318.395 262.003 318.165 262.059 317.927 262.184C317.689 262.303 317.485 262.47 317.315 262.685C317.151 262.901 317.069 263.145 317.069 263.417C317.069 263.881 317.321 264.244 317.825 264.505C318.335 264.765 319.117 264.896 320.171 264.896ZM319.899 258.622C320.534 258.622 321.044 258.475 321.429 258.18C321.82 257.886 322.016 257.449 322.016 256.871C322.016 256.276 321.82 255.823 321.429 255.511C321.044 255.2 320.534 255.044 319.899 255.044C319.259 255.044 318.74 255.203 318.344 255.52C317.953 255.832 317.757 256.282 317.757 256.871C317.757 257.427 317.944 257.857 318.318 258.163C318.692 258.469 319.219 258.622 319.899 258.622ZM335.285 254.211V255.358H333.152V263H331.571V255.358H329.718V254.211H331.571V252.851C331.571 252.154 331.749 251.624 332.106 251.261C332.463 250.893 332.996 250.709 333.704 250.709H335.362L335.37 251.822H334.053C333.696 251.822 333.452 251.919 333.322 252.111C333.191 252.304 333.126 252.596 333.126 252.987V254.211H335.285ZM340.451 263.17C339.641 263.17 338.933 262.997 338.326 262.651C337.72 262.3 337.25 261.787 336.915 261.113C336.581 260.439 336.414 259.614 336.414 258.639C336.414 257.721 336.57 256.917 336.881 256.225C337.193 255.534 337.649 254.999 338.25 254.619C338.856 254.234 339.59 254.041 340.451 254.041C341.262 254.041 341.964 254.219 342.559 254.576C343.16 254.928 343.625 255.446 343.953 256.132C344.282 256.818 344.446 257.653 344.446 258.639C344.446 259.535 344.293 260.322 343.987 261.002C343.687 261.682 343.239 262.215 342.644 262.6C342.055 262.98 341.324 263.17 340.451 263.17ZM340.451 261.929C340.978 261.929 341.423 261.796 341.786 261.529C342.149 261.263 342.423 260.881 342.61 260.382C342.797 259.883 342.891 259.291 342.891 258.605C342.891 257.976 342.809 257.413 342.644 256.914C342.48 256.41 342.217 256.01 341.854 255.715C341.497 255.421 341.029 255.273 340.451 255.273C339.919 255.273 339.468 255.407 339.1 255.673C338.732 255.934 338.451 256.313 338.258 256.812C338.071 257.311 337.978 257.908 337.978 258.605C337.978 259.223 338.063 259.784 338.233 260.288C338.403 260.793 338.669 261.192 339.032 261.487C339.395 261.782 339.868 261.929 340.451 261.929ZM346.334 263V254.211H347.83V255.902C347.977 255.483 348.184 255.137 348.45 254.865C348.717 254.588 349.02 254.381 349.36 254.245C349.705 254.109 350.062 254.041 350.431 254.041C350.561 254.041 350.689 254.049 350.813 254.067C350.938 254.083 351.034 254.112 351.102 254.151V255.673C351.017 255.633 350.907 255.608 350.771 255.596C350.64 255.579 350.53 255.571 350.439 255.571C350.088 255.548 349.759 255.571 349.453 255.639C349.147 255.701 348.878 255.812 348.646 255.97C348.413 256.129 348.229 256.339 348.093 256.599C347.963 256.854 347.898 257.166 347.898 257.534V263H346.334ZM357.27 265.805C356.754 265.805 356.4 265.768 356.208 265.695C356.015 265.621 355.919 265.584 355.919 265.584V264.564L356.811 264.581C357.14 264.592 357.412 264.57 357.627 264.513C357.842 264.456 358.015 264.38 358.146 264.284C358.276 264.187 358.375 264.08 358.443 263.961C358.517 263.842 358.576 263.728 358.622 263.621L358.928 262.787L355.494 254.211H357.083L359.676 260.994L362.251 254.211H363.79L360.084 263.663C359.857 264.218 359.602 264.652 359.319 264.964C359.041 265.275 358.729 265.493 358.384 265.618C358.044 265.743 357.672 265.805 357.27 265.805ZM368.476 263.17C367.665 263.17 366.957 262.997 366.351 262.651C365.744 262.3 365.274 261.787 364.94 261.113C364.605 260.439 364.438 259.614 364.438 258.639C364.438 257.721 364.594 256.917 364.906 256.225C365.217 255.534 365.673 254.999 366.274 254.619C366.88 254.234 367.614 254.041 368.476 254.041C369.286 254.041 369.989 254.219 370.584 254.576C371.184 254.928 371.649 255.446 371.978 256.132C372.306 256.818 372.471 257.653 372.471 258.639C372.471 259.535 372.318 260.322 372.012 261.002C371.711 261.682 371.264 262.215 370.669 262.6C370.079 262.98 369.348 263.17 368.476 263.17ZM368.476 261.929C369.003 261.929 369.447 261.796 369.81 261.529C370.173 261.263 370.448 260.881 370.635 260.382C370.822 259.883 370.915 259.291 370.915 258.605C370.915 257.976 370.833 257.413 370.669 256.914C370.504 256.41 370.241 256.01 369.878 255.715C369.521 255.421 369.054 255.273 368.476 255.273C367.943 255.273 367.492 255.407 367.124 255.673C366.756 255.934 366.475 256.313 366.283 256.812C366.096 257.311 366.002 257.908 366.002 258.605C366.002 259.223 366.087 259.784 366.257 260.288C366.427 260.793 366.693 261.192 367.056 261.487C367.419 261.782 367.892 261.929 368.476 261.929ZM377.455 263.17C376.996 263.164 376.563 263.099 376.155 262.974C375.752 262.844 375.395 262.654 375.084 262.405C374.772 262.156 374.525 261.847 374.344 261.478C374.168 261.104 374.081 260.671 374.081 260.178V254.211H375.653V260.016C375.653 260.589 375.829 261.053 376.18 261.41C376.537 261.767 377.073 261.946 377.787 261.946C378.433 261.946 378.951 261.779 379.342 261.444C379.739 261.104 379.937 260.6 379.937 259.931V254.211H381.501V263H380.252L380.09 261.317C379.982 261.759 379.798 262.116 379.538 262.388C379.283 262.66 378.974 262.861 378.611 262.991C378.254 263.116 377.869 263.176 377.455 263.17ZM387.532 263V250.369H389.062V255.503C389.209 255.259 389.407 255.033 389.657 254.823C389.906 254.608 390.209 254.435 390.566 254.304C390.923 254.168 391.337 254.1 391.807 254.1C392.379 254.1 392.898 254.208 393.363 254.423C393.827 254.633 394.196 254.933 394.468 255.324C394.74 255.715 394.876 256.18 394.876 256.718V263H393.303V257.033C393.303 256.506 393.122 256.101 392.759 255.817C392.402 255.528 391.935 255.384 391.357 255.384C390.966 255.384 390.597 255.449 390.252 255.579C389.906 255.704 389.625 255.897 389.41 256.157C389.2 256.412 389.096 256.738 389.096 257.135V263H387.532ZM398.279 258.971C398.279 259.526 398.369 260.031 398.551 260.484C398.738 260.932 399.018 261.289 399.392 261.555C399.772 261.821 400.245 261.954 400.812 261.954C401.373 261.954 401.854 261.824 402.257 261.563C402.665 261.303 402.925 260.926 403.039 260.433H404.526C404.418 261.028 404.18 261.529 403.812 261.938C403.444 262.345 402.999 262.654 402.478 262.864C401.956 263.068 401.412 263.17 400.846 263.17C400.024 263.17 399.301 262.992 398.678 262.634C398.055 262.277 397.567 261.765 397.216 261.096C396.865 260.427 396.689 259.625 396.689 258.69C396.689 257.767 396.848 256.956 397.165 256.259C397.482 255.562 397.941 255.018 398.542 254.627C399.148 254.236 399.877 254.041 400.727 254.041C401.554 254.041 402.254 254.219 402.826 254.576C403.398 254.933 403.832 255.438 404.127 256.089C404.427 256.735 404.577 257.503 404.577 258.393V258.971H398.279ZM398.287 257.908H403.064C403.064 257.404 402.979 256.951 402.809 256.548C402.639 256.14 402.378 255.82 402.027 255.588C401.681 255.35 401.245 255.231 400.718 255.231C400.168 255.231 399.712 255.364 399.35 255.63C398.993 255.891 398.723 256.228 398.542 256.642C398.366 257.05 398.281 257.472 398.287 257.908ZM406.566 263V254.211H408.062V255.902C408.209 255.483 408.416 255.137 408.682 254.865C408.948 254.588 409.252 254.381 409.592 254.245C409.937 254.109 410.294 254.041 410.663 254.041C410.793 254.041 410.92 254.049 411.045 254.067C411.17 254.083 411.266 254.112 411.334 254.151V255.673C411.249 255.633 411.139 255.608 411.003 255.596C410.872 255.579 410.762 255.571 410.671 255.571C410.32 255.548 409.991 255.571 409.685 255.639C409.379 255.701 409.11 255.812 408.878 255.97C408.645 256.129 408.461 256.339 408.325 256.599C408.195 256.854 408.13 257.166 408.13 257.534V263H406.566ZM413.926 258.971C413.926 259.526 414.016 260.031 414.198 260.484C414.385 260.932 414.665 261.289 415.039 261.555C415.419 261.821 415.892 261.954 416.459 261.954C417.02 261.954 417.501 261.824 417.904 261.563C418.312 261.303 418.572 260.926 418.686 260.433H420.173C420.066 261.028 419.828 261.529 419.459 261.938C419.091 262.345 418.646 262.654 418.125 262.864C417.603 263.068 417.059 263.17 416.493 263.17C415.671 263.17 414.949 262.992 414.325 262.634C413.702 262.277 413.215 261.765 412.863 261.096C412.512 260.427 412.336 259.625 412.336 258.69C412.336 257.767 412.495 256.956 412.812 256.259C413.13 255.562 413.589 255.018 414.189 254.627C414.796 254.236 415.524 254.041 416.374 254.041C417.201 254.041 417.901 254.219 418.473 254.576C419.046 254.933 419.479 255.438 419.774 256.089C420.074 256.735 420.224 257.503 420.224 258.393V258.971H413.926ZM413.934 257.908H418.711C418.711 257.404 418.626 256.951 418.456 256.548C418.286 256.14 418.026 255.82 417.674 255.588C417.329 255.35 416.892 255.231 416.365 255.231C415.816 255.231 415.359 255.364 414.997 255.63C414.64 255.891 414.371 256.228 414.189 256.642C414.014 257.05 413.929 257.472 413.934 257.908ZM423.938 261.019V263H422.068V261.019H423.938ZM423.947 250.709L423.539 259.88H422.485L422.068 250.709H423.947Z" fill="black"/>
<path d="M190.5 92.5C143.333 87.6667 42.7 97.3 17.5 174.5C-14 271 19 334 76 371C121.6 400.6 246.667 394 303.5 387C360.5 388.5 480.1 378.6 502.5 327C530.5 262.5 544 202.5 502.5 152C461 101.5 414.5 92.5 355 92.5" stroke="black" stroke-width="10" stroke-linecap="round"/>
</svg>
