<svg width="535" height="398" viewBox="0 0 535 398" fill="none" xmlns="http://www.w3.org/2000/svg">
<rect y="91" width="535" height="296" rx="148" fill="white"/>
<path fill-rule="evenodd" clip-rule="evenodd" d="M276.654 127.846C277.229 127.271 277.969 126.888 278.766 126.727C307.996 120.81 330 94.9746 330 64C330 28.6538 301.346 0 266 0C230.654 0 202 28.6538 202 64C202 94.5526 223.409 120.105 252.043 126.474C252.811 126.644 253.521 127.021 254.077 127.577L262.672 136.172C264.234 137.734 266.766 137.734 268.328 136.172L276.654 127.846Z" fill="white"/>
<path d="M252.5 126.5C256.961 126.996 259.52 138.111 265.69 138.765C272.213 139.457 270.5 125.778 292.5 121.5C319.343 116.281 332.355 96.9237 333.5 66C334.746 32.3602 315.6 5 276 5C241.663 5 214.203 20.685 207 55.5C201 84.5 218.127 114.657 237.5 119.5" stroke="black" stroke-width="10" stroke-linecap="round"/>
<path d="M242.622 36.4494C249.678 36.733 256.665 36.0675 263.719 36.0353C268.173 36.0149 272.621 35.8282 277.074 35.8282C277.897 35.8282 279.064 35.5665 279.685 36.2423C280.346 36.961 280.582 38.198 280.974 39.0721C281.836 40.9969 282.576 42.9581 282.883 45.0537C283.452 48.9307 283.205 52.9263 283.205 56.8328C283.205 60.1023 283.172 63.3453 283.044 66.6104C282.873 70.9774 282.795 75.2178 282.343 79.5629C282.18 81.1234 281.972 83.1964 280.376 83.9455C278.507 84.8228 276.314 85.1707 274.279 85.2684C268.49 85.5463 262.718 85.454 256.955 86.1426C253.315 86.5776 249.696 87.1915 246.062 87.6725C244.737 87.8479 244.178 87.979 243.888 86.4877C243.354 83.7415 243.685 80.8278 243.451 78.0445C243.186 74.8922 242.622 71.8915 242.622 68.704C242.622 64.6615 241.896 60.6465 242.013 56.6028C242.11 53.2457 242.534 49.8553 242.783 46.5031C243.072 42.6305 243.451 38.8959 243.451 35" stroke="black" stroke-width="10" stroke-linecap="round"/>
<path d="M256.081 51.6212C260.64 50.99 265.151 51 269.747 51" stroke="black" stroke-width="10" stroke-linecap="round"/>
<path d="M282.068 47.1931C284.991 46.8883 287.934 46.4601 290.878 46.4601C291.845 46.4601 292.96 46.1248 293.905 46.2701C295.643 46.5375 295.868 49.1981 296.212 50.5729C296.862 53.173 297.199 55.7523 297.217 58.432C297.258 64.7208 297.691 70.9879 297.217 77.2721C296.798 82.8236 296.767 88.5083 296.728 94.0762C296.72 95.2484 296.972 96.7043 296.714 97.8632C296.649 98.1578 295.708 98.0102 295.533 98.0125C288.81 98.101 282.092 98.2569 275.363 98.2569C270.6 98.2569 265.894 98.862 261.165 98.9898C259.738 99.0284 258.962 99.6666 258.858 97.8904C258.75 96.0576 258.613 94.2295 258.613 92.3931" stroke="black" stroke-width="10" stroke-linecap="round"/>
<path d="M255.253 65C257.963 65.3942 260.758 65.2071 263.489 65.2071C264.782 65.2071 266.718 64.8314 267.883 65.4141" stroke="black" stroke-width="10" stroke-linecap="round"/>
<path d="M145.8 168.048C146.824 167.376 147.672 167.04 148.344 167.04C148.696 167.04 148.968 167.056 149.16 167.088C150.92 167.344 152.616 168.192 154.248 169.632C154.792 170.112 155.064 170.704 155.064 171.408C155.064 172.176 154.76 172.848 154.152 173.424C153.576 174 152.968 174.288 152.328 174.288C151.816 174.288 151.256 174.112 150.648 173.76C150.072 173.408 149.528 173.232 149.016 173.232C148.408 173.232 147.976 173.552 147.72 174.192C147.496 174.8 147.384 175.264 147.384 175.584C147.384 176.192 147.928 177.2 149.016 178.608C150.488 180.528 151.512 182.176 152.088 183.552C152.696 184.928 153.048 186.528 153.144 188.352C153.144 188.512 153.144 188.72 153.144 188.976C153.176 189.232 153.192 189.424 153.192 189.552C153.192 190.96 152.984 192.096 152.568 192.96C152.184 193.824 151.464 194.736 150.408 195.696C149.384 196.592 147.976 197.184 146.184 197.472C144.84 197.696 144.04 197.808 143.784 197.808C143.272 197.808 142.76 197.664 142.248 197.376C140.776 196.576 140.04 195.6 140.04 194.448C140.04 193.84 140.28 193.216 140.76 192.576C141.048 192.192 141.32 191.952 141.576 191.856C141.832 191.728 142.264 191.664 142.872 191.664C142.968 191.664 143.128 191.68 143.352 191.712C143.576 191.712 143.768 191.712 143.928 191.712H144.696C145.432 191.712 145.944 191.664 146.232 191.568C146.52 191.44 146.792 191.2 147.048 190.848C147.432 190.368 147.624 189.76 147.624 189.024C147.624 187.008 146.312 184.352 143.688 181.056C142.216 179.2 141.48 177.472 141.48 175.872C141.48 175.168 141.576 174.432 141.768 173.664C142.408 171.232 143.752 169.36 145.8 168.048ZM172.286 168.576C172.958 168 173.598 167.712 174.206 167.712C174.846 167.712 175.454 168.016 176.03 168.624C176.478 169.072 176.734 169.536 176.798 170.016C176.894 170.496 176.942 171.744 176.942 173.76C176.942 175.616 176.974 176.848 177.038 177.456C177.134 178.064 177.342 178.576 177.662 178.992C178.142 179.568 178.382 180.16 178.382 180.768C178.382 181.408 178.142 182.016 177.662 182.592C177.214 183.168 176.99 183.84 176.99 184.608C176.99 185.344 177.022 185.984 177.086 186.528C177.182 187.424 177.23 188.08 177.23 188.496C177.23 189.168 176.958 189.776 176.414 190.32C175.806 190.928 175.15 191.232 174.446 191.232C173.742 191.232 173.102 190.928 172.526 190.32C171.982 189.68 171.646 188.832 171.518 187.776C171.39 186.656 171.182 186.096 170.894 186.096C170.606 186.096 169.742 186.384 168.302 186.96L166.094 187.776L166.046 191.424C166.046 193.184 165.998 194.272 165.902 194.688C165.806 195.072 165.518 195.472 165.038 195.888C164.302 196.496 163.774 196.8 163.454 196.8C163.006 196.8 162.446 196.592 161.774 196.176C161.134 195.76 160.75 195.376 160.622 195.024C160.494 194.48 160.398 191.088 160.334 184.848L160.238 175.296L161.246 174.48C161.918 173.904 162.462 173.616 162.878 173.616C163.166 173.616 163.614 173.744 164.222 174C164.83 174.288 165.326 174.928 165.71 175.92C166.094 176.88 166.286 178 166.286 179.28C166.286 179.696 166.286 180 166.286 180.192C166.286 180.352 166.302 180.528 166.334 180.72C166.398 180.912 166.462 181.04 166.526 181.104C166.622 181.168 166.734 181.2 166.862 181.2C167.15 181.2 167.934 180.896 169.214 180.288L171.23 179.28V169.488L172.286 168.576ZM199.28 182.736C199.088 181.296 198.912 180.496 198.752 180.336H198.704C198.448 180.336 197.824 180.96 196.832 182.208C195.872 183.456 195.392 184.24 195.392 184.56C195.392 184.752 196.08 184.848 197.456 184.848H199.52L199.28 182.736ZM205.28 185.232C205.28 185.648 205.584 187.264 206.192 190.08C206.8 192.896 207.104 194.528 207.104 194.976C207.104 195.808 206.864 196.464 206.384 196.944C205.904 197.424 205.248 197.664 204.416 197.664C202.816 197.664 201.744 196.336 201.2 193.68C200.912 192.24 200.624 191.376 200.336 191.088C200.08 190.768 199.36 190.608 198.176 190.608C198.016 190.608 197.712 190.624 197.264 190.656C196.816 190.656 196.432 190.656 196.112 190.656C193.744 190.688 192.32 190.848 191.84 191.136C191.392 191.424 190.864 192.464 190.256 194.256C189.808 195.568 189.232 196.656 188.528 197.52C187.824 198.352 187.152 198.768 186.512 198.768C185.872 198.768 185.232 198.512 184.592 198C183.984 197.456 183.68 196.896 183.68 196.32C183.68 195.776 183.952 194.72 184.496 193.152C185.072 191.552 185.648 190.224 186.224 189.168C186.736 188.208 186.992 187.504 186.992 187.056C186.992 186.64 187.328 186 188 185.136C188.832 184.176 189.52 183.168 190.064 182.112C190.928 180.672 192.032 179.072 193.376 177.312C195.04 175.168 196.064 173.68 196.448 172.848C196.96 171.856 197.424 171.232 197.84 170.976C198.288 170.72 198.848 170.592 199.52 170.592C200.352 170.592 201.024 170.768 201.536 171.12C202.112 171.504 202.624 172.352 203.072 173.664C203.456 174.656 203.92 176.592 204.464 179.472C205.008 182.352 205.28 184.272 205.28 185.232ZM223.36 172.224C223.072 172.128 222.784 172.08 222.496 172.08C221.696 172.08 220.912 172.352 220.144 172.896C219.376 173.408 218.912 174.032 218.752 174.768C218.56 175.632 218.464 176.528 218.464 177.456C218.464 179.152 218.752 180.912 219.328 182.736C219.968 184.656 220.288 185.968 220.288 186.672C220.288 187.248 220.4 187.536 220.624 187.536C220.816 187.536 221.104 187.472 221.488 187.344C222.448 187.088 223.184 186.784 223.696 186.432C224.24 186.048 224.832 185.408 225.472 184.512C226.016 183.712 226.352 183.088 226.48 182.64C226.608 182.16 226.672 181.248 226.672 179.904C226.672 178.528 226.592 177.584 226.432 177.072C226.304 176.528 225.92 175.744 225.28 174.72C224.384 173.152 223.744 172.32 223.36 172.224ZM218.128 167.472C219.44 166.832 220.816 166.512 222.256 166.512C224.304 166.512 226 167.072 227.344 168.192C228.688 169.312 230 171.248 231.28 174C231.728 174.96 232.016 175.68 232.144 176.16C232.272 176.608 232.336 177.248 232.336 178.08C232.336 178.912 232.32 179.616 232.288 180.192C232.224 182.72 231.856 184.64 231.184 185.952C230.672 187.008 229.84 188.176 228.688 189.456C227.536 190.736 226.528 191.584 225.664 192C224.928 192.384 223.76 192.752 222.16 193.104C220.592 193.456 219.296 193.632 218.272 193.632C217.088 193.632 216.208 193.44 215.632 193.056C215.088 192.672 214.736 192.032 214.576 191.136C214.352 190.048 214.08 189.248 213.76 188.736C213.44 188.064 213.072 185.6 212.656 181.344C212.4 178.208 212.272 176.352 212.272 175.776C212.272 174.944 212.416 174.144 212.704 173.376C213.12 172.256 213.84 171.136 214.864 170.016C215.92 168.896 217.008 168.048 218.128 167.472ZM256.786 170.832C256.978 170.8 257.234 170.784 257.554 170.784C258.546 170.784 259.314 171.12 259.858 171.792C260.402 172.464 260.674 173.44 260.674 174.72C260.674 176.832 260.226 178.832 259.33 180.72C258.466 182.576 257.298 184.032 255.826 185.088L254.002 186.432L254.194 188.448C254.514 191.968 254.674 194.256 254.674 195.312C254.674 196.528 254.562 197.408 254.338 197.952C254.114 198.496 253.73 198.96 253.186 199.344C252.802 199.6 252.354 199.728 251.842 199.728C251.074 199.728 250.354 199.376 249.682 198.672C249.17 198.064 248.914 197.12 248.914 195.84C248.914 194.656 248.85 192.848 248.722 190.416L248.482 187.056L246.322 186.432C244.85 186.016 243.65 185.376 242.722 184.512C241.922 183.776 240.866 182.256 239.554 179.952C238.242 177.648 237.586 176.144 237.586 175.44C237.586 174.736 237.922 174.112 238.594 173.568C239.266 173.024 239.986 172.752 240.754 172.752C241.266 172.752 241.714 172.896 242.098 173.184C242.386 173.376 243.17 174.64 244.45 176.976C245.346 178.608 245.954 179.6 246.274 179.952C246.626 180.304 247.314 180.656 248.338 181.008C249.298 181.36 249.97 181.536 250.354 181.536C250.674 181.536 251.138 181.36 251.746 181.008C252.77 180.464 253.506 179.744 253.954 178.848C254.402 177.92 254.626 176.672 254.626 175.104C254.626 173.664 254.786 172.624 255.106 171.984C255.426 171.344 255.986 170.96 256.786 170.832ZM288.457 178.848C288.361 178.144 288.105 177.456 287.689 176.784C287.305 176.112 286.857 175.776 286.345 175.776C285.897 175.776 285.401 176.032 284.857 176.544C284.345 177.024 283.977 177.584 283.753 178.224C283.657 178.512 283.609 179.088 283.609 179.952C283.609 180.976 283.673 182.016 283.801 183.072C283.929 184.096 284.073 184.608 284.233 184.608C284.969 184.608 285.977 183.76 287.257 182.064C288.089 180.976 288.505 180.128 288.505 179.52C288.505 179.232 288.489 179.008 288.457 178.848ZM284.377 170.4C285.497 170.112 286.329 169.968 286.873 169.968C287.513 169.968 288.265 170.176 289.129 170.592C290.921 171.36 292.361 172.96 293.449 175.392C293.865 176.32 294.073 177.376 294.073 178.56C294.073 178.688 294.057 178.896 294.025 179.184C294.025 179.44 294.025 179.648 294.025 179.808C293.961 181.184 293.833 182.128 293.641 182.64C293.449 183.12 292.857 184.032 291.865 185.376C290.489 187.2 289.577 188.32 289.129 188.736C288.745 189.088 288.377 189.344 288.025 189.504C287.705 189.632 286.937 189.856 285.721 190.176L284.137 190.56V192.48C284.137 193.76 284.377 194.768 284.857 195.504C285.369 196.272 285.625 197.536 285.625 199.296C285.625 200.512 285.577 201.312 285.481 201.696C285.385 202.048 285.113 202.432 284.665 202.848C284.057 203.424 283.385 203.712 282.649 203.712C282.009 203.712 281.433 203.504 280.921 203.088C279.385 201.936 278.441 195.6 278.089 184.08L277.849 177.072L278.857 175.104C280.105 172.64 281.945 171.072 284.377 170.4ZM314.968 182.736C314.776 181.296 314.6 180.496 314.44 180.336H314.392C314.136 180.336 313.512 180.96 312.52 182.208C311.56 183.456 311.08 184.24 311.08 184.56C311.08 184.752 311.768 184.848 313.144 184.848H315.208L314.968 182.736ZM320.968 185.232C320.968 185.648 321.272 187.264 321.88 190.08C322.488 192.896 322.792 194.528 322.792 194.976C322.792 195.808 322.552 196.464 322.072 196.944C321.592 197.424 320.936 197.664 320.104 197.664C318.504 197.664 317.432 196.336 316.888 193.68C316.6 192.24 316.312 191.376 316.024 191.088C315.768 190.768 315.048 190.608 313.864 190.608C313.704 190.608 313.4 190.624 312.952 190.656C312.504 190.656 312.12 190.656 311.8 190.656C309.432 190.688 308.008 190.848 307.528 191.136C307.08 191.424 306.552 192.464 305.944 194.256C305.496 195.568 304.92 196.656 304.216 197.52C303.512 198.352 302.84 198.768 302.2 198.768C301.56 198.768 300.92 198.512 300.28 198C299.672 197.456 299.368 196.896 299.368 196.32C299.368 195.776 299.64 194.72 300.184 193.152C300.76 191.552 301.336 190.224 301.912 189.168C302.424 188.208 302.68 187.504 302.68 187.056C302.68 186.64 303.016 186 303.688 185.136C304.52 184.176 305.208 183.168 305.752 182.112C306.616 180.672 307.72 179.072 309.064 177.312C310.728 175.168 311.752 173.68 312.136 172.848C312.648 171.856 313.112 171.232 313.528 170.976C313.976 170.72 314.536 170.592 315.208 170.592C316.04 170.592 316.712 170.768 317.224 171.12C317.8 171.504 318.312 172.352 318.76 173.664C319.144 174.656 319.608 176.592 320.152 179.472C320.696 182.352 320.968 184.272 320.968 185.232ZM338.519 178.848C338.423 178.144 338.167 177.456 337.751 176.784C337.367 176.112 336.919 175.776 336.407 175.776C335.959 175.776 335.463 176.032 334.919 176.544C334.407 177.024 334.039 177.584 333.815 178.224C333.719 178.512 333.671 179.088 333.671 179.952C333.671 180.976 333.735 182.016 333.863 183.072C333.991 184.096 334.135 184.608 334.295 184.608C335.031 184.608 336.039 183.76 337.319 182.064C338.151 180.976 338.567 180.128 338.567 179.52C338.567 179.232 338.551 179.008 338.519 178.848ZM334.439 170.4C335.559 170.112 336.391 169.968 336.935 169.968C337.575 169.968 338.327 170.176 339.191 170.592C340.983 171.36 342.423 172.96 343.511 175.392C343.927 176.32 344.135 177.376 344.135 178.56C344.135 178.688 344.119 178.896 344.087 179.184C344.087 179.44 344.087 179.648 344.087 179.808C344.023 181.184 343.895 182.128 343.703 182.64C343.511 183.12 342.919 184.032 341.927 185.376C340.551 187.2 339.639 188.32 339.191 188.736C338.807 189.088 338.439 189.344 338.087 189.504C337.767 189.632 336.999 189.856 335.783 190.176L334.199 190.56V192.48C334.199 193.76 334.439 194.768 334.919 195.504C335.431 196.272 335.687 197.536 335.687 199.296C335.687 200.512 335.639 201.312 335.543 201.696C335.447 202.048 335.175 202.432 334.727 202.848C334.119 203.424 333.447 203.712 332.711 203.712C332.071 203.712 331.495 203.504 330.983 203.088C329.447 201.936 328.503 195.6 328.151 184.08L327.911 177.072L328.919 175.104C330.167 172.64 332.007 171.072 334.439 170.4ZM360.998 165.072C362.182 164.816 363.046 164.688 363.59 164.688C364.454 164.688 365.142 164.944 365.654 165.456C366.198 165.968 366.47 166.576 366.47 167.28C366.47 167.856 366.278 168.416 365.894 168.96C365.542 169.472 365.046 169.856 364.406 170.112C363.99 170.304 362.486 170.656 359.894 171.168L356.438 171.792L355.958 173.808C355.67 175.184 355.526 176.176 355.526 176.784C355.526 177.488 355.734 177.84 356.15 177.84C356.31 177.84 357.27 177.632 359.03 177.216C360.79 176.8 361.926 176.592 362.438 176.592C362.598 176.592 362.694 176.608 362.726 176.64C364.006 177.056 364.646 177.936 364.646 179.28C364.646 180.24 364.294 180.992 363.59 181.536C362.886 182.048 361.478 182.576 359.366 183.12C357.67 183.568 356.534 183.904 355.958 184.128C355.414 184.352 355.142 184.608 355.142 184.896C355.142 185.056 355.222 185.248 355.382 185.472C355.606 185.824 356.23 186 357.254 186C357.926 186 358.486 185.984 358.934 185.952C359.158 185.952 359.446 185.952 359.798 185.952C360.15 185.92 360.39 185.904 360.518 185.904C361.222 185.904 361.718 185.968 362.006 186.096C362.326 186.192 362.662 186.416 363.014 186.768C363.622 187.376 363.926 188.08 363.926 188.88C363.926 189.52 363.702 190.112 363.254 190.656C362.998 191.008 362.614 191.264 362.102 191.424C361.59 191.552 360.678 191.68 359.366 191.808C358.406 191.904 357.574 191.952 356.87 191.952C354.662 191.952 352.934 191.28 351.686 189.936C350.086 188.304 349.286 185.856 349.286 182.592C349.286 180.864 349.478 178.736 349.862 176.208C350.118 174.672 350.246 173.552 350.246 172.848C350.246 172.336 350.118 171.904 349.862 171.552C349.51 171.072 349.334 170.496 349.334 169.824C349.334 169.056 349.542 168.448 349.958 168C350.438 167.456 352.102 166.896 354.95 166.32C356.55 166 358.566 165.584 360.998 165.072ZM381.915 178.704C381.915 178.352 381.659 177.92 381.147 177.408C380.635 176.896 379.995 176.64 379.227 176.64C378.715 176.64 378.395 176.768 378.267 177.024C378.203 177.152 378.171 177.392 378.171 177.744C378.171 178.448 378.235 179.28 378.363 180.24C378.523 181.2 378.667 181.68 378.795 181.68C378.987 181.68 379.419 181.44 380.091 180.96C380.763 180.48 381.211 180.08 381.435 179.76C381.755 179.344 381.915 178.992 381.915 178.704ZM374.187 172.368C375.083 171.568 375.947 171.056 376.779 170.832C377.611 170.608 378.299 170.496 378.843 170.496C379.643 170.496 380.667 170.688 381.915 171.072C383.707 171.584 385.115 172.56 386.139 174C387.195 175.44 387.723 177.024 387.723 178.752C387.723 180.96 386.907 182.816 385.275 184.32C384.603 184.992 384.267 185.392 384.267 185.52C384.267 185.68 384.939 186.08 386.283 186.72C387.659 187.36 389.163 187.984 390.795 188.592C392.139 189.104 393.179 189.712 393.915 190.416C394.651 191.12 395.019 191.856 395.019 192.624C395.019 193.36 394.699 194.048 394.059 194.688C393.547 195.2 393.051 195.456 392.571 195.456C391.835 195.456 389.579 194.672 385.803 193.104C382.347 191.664 380.475 190.944 380.187 190.944C380.027 190.944 379.947 191.12 379.947 191.472C379.947 191.824 380.011 192.304 380.139 192.912C380.235 193.456 380.283 193.952 380.283 194.4C380.283 195.904 379.579 196.864 378.171 197.28C377.819 197.376 377.499 197.424 377.211 197.424C376.155 197.424 375.291 196.688 374.619 195.216C373.979 193.744 373.291 191.104 372.555 187.296C372.043 184.64 371.787 182.016 371.787 179.424C371.787 177.184 371.995 175.584 372.411 174.624C372.731 173.888 373.323 173.136 374.187 172.368Z" fill="black"/>
<path d="M86.9031 238.709C86.9428 238.709 87.0618 238.712 87.2601 238.717C87.4641 238.717 87.7106 238.717 87.9996 238.717C88.2886 238.712 88.589 238.712 88.9006 238.717C89.2123 238.717 89.4985 238.72 89.7591 238.726C91.2665 238.749 92.4876 238.995 93.4226 239.465C94.3633 239.93 95.0518 240.607 95.4881 241.497C95.9301 242.387 96.1511 243.48 96.1511 244.778C96.1511 246.138 95.9131 247.28 95.4371 248.203C94.9668 249.127 94.2471 249.824 93.2781 250.294C92.3148 250.765 91.088 251 89.5976 251H86.9031V238.709ZM88.5181 240.06V249.648H89.5976C90.612 249.648 91.4846 249.493 92.2156 249.181C92.9466 248.864 93.5076 248.351 93.8986 247.642C94.2953 246.934 94.4936 245.988 94.4936 244.803C94.4936 243.619 94.301 242.681 93.9156 241.99C93.536 241.299 92.9863 240.806 92.2666 240.511C91.547 240.211 90.68 240.06 89.6656 240.06H88.5181ZM99.8972 242.211V251H98.3757V242.211H99.8972ZM99.9312 238.717V240.349H98.3247V238.717H99.9312ZM109.361 242.211L106.191 251H104.763L101.584 242.211H103.063L105.4 249.028H105.545L107.891 242.211H109.361ZM111.679 246.971C111.679 247.526 111.77 248.031 111.951 248.484C112.138 248.932 112.419 249.289 112.793 249.555C113.173 249.821 113.646 249.954 114.212 249.954C114.773 249.954 115.255 249.824 115.657 249.563C116.065 249.303 116.326 248.926 116.439 248.433H117.927C117.819 249.028 117.581 249.529 117.213 249.938C116.845 250.345 116.4 250.654 115.878 250.864C115.357 251.068 114.813 251.17 114.246 251.17C113.425 251.17 112.702 250.992 112.079 250.634C111.456 250.277 110.968 249.765 110.617 249.096C110.266 248.427 110.09 247.625 110.09 246.69C110.09 245.767 110.249 244.956 110.566 244.259C110.883 243.562 111.342 243.018 111.943 242.627C112.549 242.236 113.277 242.041 114.127 242.041C114.955 242.041 115.655 242.219 116.227 242.576C116.799 242.933 117.233 243.438 117.527 244.089C117.828 244.735 117.978 245.503 117.978 246.393V246.971H111.679ZM111.688 245.908H116.465C116.465 245.404 116.38 244.951 116.21 244.548C116.04 244.14 115.779 243.82 115.428 243.588C115.082 243.35 114.646 243.231 114.119 243.231C113.569 243.231 113.113 243.364 112.75 243.63C112.393 243.891 112.124 244.228 111.943 244.642C111.767 245.05 111.682 245.472 111.688 245.908ZM125.315 242.211V251H123.793V242.211H125.315ZM125.349 238.717V240.349H123.742V238.717H125.349ZM128.01 251V242.211H129.532V243.486C129.673 243.242 129.869 243.013 130.118 242.797C130.373 242.582 130.679 242.409 131.036 242.279C131.399 242.149 131.815 242.083 132.286 242.083C132.841 242.083 133.351 242.194 133.816 242.415C134.286 242.636 134.66 242.982 134.938 243.452C135.221 243.917 135.363 244.517 135.363 245.254V251H133.79V245.407C133.79 244.721 133.609 244.214 133.246 243.885C132.889 243.551 132.425 243.384 131.852 243.384C131.456 243.384 131.084 243.449 130.739 243.579C130.393 243.704 130.113 243.897 129.897 244.157C129.682 244.412 129.574 244.735 129.574 245.126V251H128.01ZM141.702 243.358H139.722V248.824C139.722 249.136 139.753 249.365 139.815 249.512C139.883 249.654 139.994 249.745 140.147 249.784C140.305 249.824 140.521 249.844 140.793 249.844H141.753V250.898C141.645 250.938 141.481 250.972 141.26 251C141.045 251.028 140.776 251.043 140.453 251.043C139.846 251.043 139.376 250.96 139.042 250.796C138.707 250.632 138.472 250.388 138.336 250.065C138.206 249.742 138.141 249.345 138.141 248.875V243.358H136.713V242.211H138.183L138.566 239.652H139.722V242.202H141.702V243.358ZM147.052 251.17C146.241 251.17 145.533 250.997 144.927 250.651C144.32 250.3 143.85 249.787 143.516 249.113C143.181 248.439 143.014 247.614 143.014 246.639C143.014 245.721 143.17 244.917 143.482 244.225C143.793 243.534 144.249 242.999 144.85 242.619C145.456 242.234 146.19 242.041 147.052 242.041C147.862 242.041 148.565 242.219 149.16 242.576C149.76 242.928 150.225 243.446 150.554 244.132C150.882 244.818 151.047 245.653 151.047 246.639C151.047 247.535 150.894 248.322 150.588 249.002C150.287 249.682 149.84 250.215 149.245 250.6C148.655 250.98 147.924 251.17 147.052 251.17ZM147.052 249.929C147.579 249.929 148.023 249.796 148.386 249.529C148.749 249.263 149.024 248.881 149.211 248.382C149.398 247.883 149.491 247.291 149.491 246.605C149.491 245.976 149.409 245.413 149.245 244.914C149.08 244.41 148.817 244.01 148.454 243.715C148.097 243.421 147.63 243.273 147.052 243.273C146.519 243.273 146.068 243.407 145.7 243.673C145.332 243.934 145.051 244.313 144.859 244.812C144.672 245.311 144.578 245.908 144.578 246.605C144.578 247.223 144.663 247.784 144.833 248.288C145.003 248.793 145.269 249.192 145.632 249.487C145.995 249.782 146.468 249.929 147.052 249.929ZM161.045 251.17C159.747 251.17 158.67 250.892 157.815 250.337C156.965 249.776 156.458 248.949 156.293 247.855L157.942 247.753C158.124 248.444 158.486 248.963 159.03 249.308C159.574 249.654 160.243 249.827 161.036 249.827C161.512 249.827 161.957 249.745 162.371 249.58C162.79 249.416 163.127 249.187 163.382 248.892C163.643 248.597 163.773 248.249 163.773 247.846C163.773 247.308 163.612 246.877 163.289 246.554C162.971 246.231 162.464 245.976 161.767 245.789L159.651 245.237C158.738 245.005 158.016 244.639 157.483 244.14C156.951 243.642 156.681 242.973 156.676 242.134C156.67 241.426 156.854 240.803 157.228 240.264C157.608 239.726 158.129 239.307 158.792 239.006C159.461 238.706 160.232 238.556 161.104 238.556C161.943 238.556 162.665 238.717 163.272 239.04C163.884 239.358 164.357 239.78 164.691 240.307C165.031 240.834 165.213 241.409 165.235 242.032L163.637 242.117C163.513 241.386 163.243 240.834 162.83 240.46C162.422 240.08 161.847 239.89 161.104 239.89C160.753 239.89 160.413 239.936 160.084 240.026C159.761 240.111 159.469 240.242 159.209 240.417C158.954 240.593 158.75 240.811 158.597 241.072C158.444 241.333 158.367 241.636 158.367 241.981C158.367 242.423 158.523 242.775 158.835 243.035C159.146 243.29 159.707 243.543 160.518 243.792L162.558 244.37C163.6 244.659 164.343 245.109 164.785 245.721C165.232 246.328 165.456 247.03 165.456 247.829C165.456 248.481 165.272 249.059 164.904 249.563C164.535 250.062 164.017 250.456 163.348 250.745C162.685 251.028 161.917 251.17 161.045 251.17ZM160.382 236.873H161.835V239.066H160.382V236.873ZM160.28 250.583H161.733V252.777H160.28V250.583ZM172.098 251.17C171.52 251.17 170.959 251.099 170.415 250.957C169.871 250.81 169.378 250.592 168.936 250.303C168.494 250.014 168.126 249.657 167.831 249.232C167.542 248.801 167.361 248.303 167.287 247.736H168.936C169.038 248.201 169.239 248.592 169.54 248.909C169.846 249.226 170.217 249.464 170.653 249.623C171.095 249.782 171.574 249.861 172.09 249.861C172.668 249.861 173.183 249.782 173.637 249.623C174.096 249.459 174.456 249.226 174.716 248.926C174.983 248.626 175.116 248.266 175.116 247.846C175.116 247.478 175.031 247.158 174.861 246.886C174.696 246.614 174.456 246.387 174.138 246.206C173.821 246.025 173.436 245.883 172.982 245.781L170.568 245.22C169.662 245.022 168.95 244.667 168.435 244.157C167.925 243.647 167.664 242.973 167.653 242.134C167.653 241.426 167.84 240.803 168.214 240.264C168.593 239.726 169.112 239.307 169.769 239.006C170.432 238.706 171.189 238.556 172.039 238.556C173.019 238.556 173.844 238.723 174.512 239.057C175.181 239.392 175.685 239.831 176.025 240.375C176.365 240.919 176.538 241.5 176.544 242.117H174.92C174.869 241.562 174.705 241.123 174.427 240.8C174.155 240.471 173.812 240.239 173.399 240.103C172.985 239.961 172.535 239.89 172.047 239.89C171.696 239.89 171.356 239.936 171.027 240.026C170.704 240.111 170.412 240.242 170.152 240.417C169.897 240.593 169.693 240.811 169.54 241.072C169.387 241.333 169.31 241.636 169.31 241.981C169.31 242.423 169.46 242.783 169.761 243.061C170.067 243.339 170.619 243.577 171.418 243.775L173.756 244.336C174.368 244.466 174.866 244.659 175.252 244.914C175.643 245.169 175.943 245.458 176.153 245.781C176.368 246.104 176.515 246.441 176.595 246.792C176.68 247.144 176.722 247.489 176.722 247.829C176.722 248.447 176.538 249.011 176.17 249.521C175.801 250.025 175.272 250.428 174.58 250.728C173.895 251.023 173.067 251.17 172.098 251.17ZM187.363 245.33H180.733V251H179.16V238.709H180.733V243.945H187.363V238.709H188.935V251H187.363V245.33ZM191.088 251L195.533 238.709H197.31L201.755 251H200.149L198.942 247.634H193.918L192.686 251H191.088ZM194.318 246.189H198.525L196.434 240.264L194.318 246.189ZM213.28 251H211.504L207.67 244.684L205.537 247.124V251H203.905V238.709H205.537V245.067L211.045 238.709H212.923L208.818 243.537L213.28 251ZM215.323 251V238.709H223.075L223.066 240.094H216.904V244.106H222.454V245.483H216.895V249.58L223.236 249.597V251H215.323ZM227.131 238.709L226.621 242.678H225.72L225.227 238.709H227.131ZM231.26 251.17C230.648 251.17 230.078 251.077 229.551 250.889C229.03 250.697 228.596 250.399 228.251 249.997C227.905 249.589 227.687 249.07 227.596 248.441H229.024C229.104 248.787 229.245 249.076 229.449 249.308C229.659 249.535 229.92 249.708 230.231 249.827C230.543 249.94 230.883 249.997 231.251 249.997C231.841 249.997 232.317 249.886 232.679 249.665C233.042 249.444 233.223 249.104 233.223 248.645C233.223 248.322 233.127 248.065 232.934 247.872C232.747 247.674 232.455 247.529 232.059 247.438L230.24 246.988C229.531 246.818 228.965 246.552 228.54 246.189C228.115 245.826 227.902 245.319 227.902 244.667C227.897 244.152 228.018 243.698 228.268 243.307C228.517 242.916 228.891 242.608 229.39 242.381C229.888 242.154 230.509 242.041 231.251 242.041C232.203 242.041 232.971 242.256 233.555 242.687C234.144 243.112 234.45 243.738 234.473 244.565H233.087C233.031 244.146 232.841 243.815 232.518 243.571C232.2 243.322 231.773 243.197 231.234 243.197C230.673 243.197 230.217 243.31 229.866 243.537C229.514 243.758 229.339 244.104 229.339 244.574C229.339 244.886 229.463 245.132 229.713 245.313C229.962 245.489 230.33 245.636 230.818 245.755L232.577 246.198C232.985 246.305 233.32 246.447 233.58 246.622C233.847 246.798 234.056 246.994 234.209 247.209C234.368 247.424 234.478 247.651 234.541 247.889C234.609 248.121 234.643 248.345 234.643 248.56C234.643 249.099 234.507 249.563 234.235 249.954C233.968 250.34 233.583 250.64 233.079 250.855C232.58 251.065 231.974 251.17 231.26 251.17ZM251.812 242.211L249.151 251H247.604L245.598 244.514L243.694 251H242.156L239.444 242.211H240.898L242.912 248.968H243.048L245.029 242.211H246.219L248.276 248.951H248.412L250.341 242.211H251.812ZM256.607 251.17C255.797 251.17 255.089 250.997 254.482 250.651C253.876 250.3 253.406 249.787 253.071 249.113C252.737 248.439 252.57 247.614 252.57 246.639C252.57 245.721 252.726 244.917 253.037 244.225C253.349 243.534 253.805 242.999 254.406 242.619C255.012 242.234 255.746 242.041 256.607 242.041C257.418 242.041 258.12 242.219 258.715 242.576C259.316 242.928 259.781 243.446 260.109 244.132C260.438 244.818 260.602 245.653 260.602 246.639C260.602 247.535 260.449 248.322 260.143 249.002C259.843 249.682 259.395 250.215 258.8 250.6C258.211 250.98 257.48 251.17 256.607 251.17ZM256.607 249.929C257.134 249.929 257.579 249.796 257.942 249.529C258.304 249.263 258.579 248.881 258.766 248.382C258.953 247.883 259.047 247.291 259.047 246.605C259.047 245.976 258.965 245.413 258.8 244.914C258.636 244.41 258.372 244.01 258.01 243.715C257.653 243.421 257.185 243.273 256.607 243.273C256.075 243.273 255.624 243.407 255.256 243.673C254.887 243.934 254.607 244.313 254.414 244.812C254.227 245.311 254.134 245.908 254.134 246.605C254.134 247.223 254.219 247.784 254.389 248.288C254.559 248.793 254.825 249.192 255.188 249.487C255.55 249.782 256.024 249.929 256.607 249.929ZM262.49 251V242.211H263.986V243.902C264.133 243.483 264.34 243.137 264.606 242.865C264.872 242.588 265.176 242.381 265.516 242.245C265.861 242.109 266.218 242.041 266.587 242.041C266.717 242.041 266.844 242.049 266.969 242.067C267.094 242.083 267.19 242.112 267.258 242.151V243.673C267.173 243.633 267.063 243.608 266.927 243.596C266.796 243.579 266.686 243.571 266.595 243.571C266.244 243.548 265.915 243.571 265.609 243.639C265.303 243.701 265.034 243.812 264.802 243.97C264.569 244.129 264.385 244.339 264.249 244.599C264.119 244.854 264.054 245.166 264.054 245.534V251H262.49ZM271.129 251.111C270.653 251.111 270.268 251.045 269.973 250.915C269.684 250.785 269.46 250.609 269.301 250.388C269.148 250.167 269.044 249.915 268.987 249.631C268.936 249.342 268.91 249.045 268.91 248.739V238.369H270.457V248.586C270.457 249.028 270.542 249.359 270.712 249.58C270.888 249.801 271.132 249.923 271.443 249.946L271.919 249.954V250.974C271.789 251.014 271.653 251.045 271.511 251.068C271.37 251.096 271.242 251.111 271.129 251.111ZM276.842 251.17C275.703 251.17 274.799 250.779 274.13 249.997C273.461 249.215 273.127 248.073 273.127 246.571C273.127 245.659 273.26 244.863 273.527 244.183C273.799 243.503 274.201 242.976 274.734 242.602C275.266 242.228 275.929 242.041 276.723 242.041C277.142 242.041 277.513 242.095 277.836 242.202C278.165 242.31 278.448 242.446 278.686 242.61C278.924 242.775 279.117 242.945 279.264 243.12C279.417 243.296 279.53 243.458 279.604 243.605V238.369H281.185V251H279.987L279.817 249.198C279.76 249.368 279.669 249.566 279.545 249.793C279.42 250.014 279.244 250.232 279.018 250.447C278.791 250.657 278.499 250.83 278.142 250.966C277.791 251.102 277.357 251.17 276.842 251.17ZM277.122 249.963C278.012 249.963 278.646 249.694 279.026 249.155C279.411 248.611 279.604 247.725 279.604 246.495C279.598 245.809 279.511 245.226 279.341 244.744C279.176 244.262 278.916 243.897 278.559 243.647C278.207 243.392 277.74 243.265 277.156 243.265C276.431 243.265 275.841 243.523 275.388 244.038C274.935 244.554 274.708 245.373 274.708 246.495C274.708 247.594 274.912 248.447 275.32 249.053C275.734 249.66 276.334 249.963 277.122 249.963ZM298.82 242.211L296.159 251H294.612L292.606 244.514L290.702 251H289.164L286.452 242.211H287.906L289.92 248.968H290.056L292.037 242.211H293.227L295.284 248.951H295.42L297.349 242.211H298.82ZM302.137 242.211V251H300.616V242.211H302.137ZM302.171 238.717V240.349H300.565V238.717H302.171ZM309.315 243.358H307.334V248.824C307.334 249.136 307.365 249.365 307.428 249.512C307.496 249.654 307.606 249.745 307.759 249.784C307.918 249.824 308.133 249.844 308.405 249.844H309.366V250.898C309.258 250.938 309.094 250.972 308.873 251C308.657 251.028 308.388 251.043 308.065 251.043C307.459 251.043 306.989 250.96 306.654 250.796C306.32 250.632 306.085 250.388 305.949 250.065C305.818 249.742 305.753 249.345 305.753 248.875V243.358H304.325V242.211H305.796L306.178 239.652H307.334V242.202H309.315V243.358ZM311.403 251V238.369H312.933V243.503C313.08 243.259 313.279 243.033 313.528 242.823C313.777 242.608 314.081 242.435 314.438 242.304C314.795 242.168 315.208 242.1 315.679 242.1C316.251 242.1 316.769 242.208 317.234 242.423C317.699 242.633 318.067 242.933 318.339 243.324C318.611 243.715 318.747 244.18 318.747 244.718V251H317.175V245.033C317.175 244.506 316.993 244.101 316.631 243.817C316.274 243.528 315.806 243.384 315.228 243.384C314.837 243.384 314.469 243.449 314.123 243.579C313.777 243.704 313.497 243.897 313.282 244.157C313.072 244.412 312.967 244.738 312.967 245.135V251H311.403ZM328.054 251.17C327.243 251.17 326.535 250.997 325.929 250.651C325.322 250.3 324.852 249.787 324.518 249.113C324.183 248.439 324.016 247.614 324.016 246.639C324.016 245.721 324.172 244.917 324.484 244.225C324.795 243.534 325.252 242.999 325.852 242.619C326.459 242.234 327.192 242.041 328.054 242.041C328.864 242.041 329.567 242.219 330.162 242.576C330.762 242.928 331.227 243.446 331.556 244.132C331.884 244.818 332.049 245.653 332.049 246.639C332.049 247.535 331.896 248.322 331.59 249.002C331.289 249.682 330.842 250.215 330.247 250.6C329.657 250.98 328.926 251.17 328.054 251.17ZM328.054 249.929C328.581 249.929 329.026 249.796 329.388 249.529C329.751 249.263 330.026 248.881 330.213 248.382C330.4 247.883 330.493 247.291 330.493 246.605C330.493 245.976 330.411 245.413 330.247 244.914C330.082 244.41 329.819 244.01 329.456 243.715C329.099 243.421 328.632 243.273 328.054 243.273C327.521 243.273 327.071 243.407 326.702 243.673C326.334 243.934 326.053 244.313 325.861 244.812C325.674 245.311 325.58 245.908 325.58 246.605C325.58 247.223 325.665 247.784 325.835 248.288C326.005 248.793 326.272 249.192 326.634 249.487C326.997 249.782 327.47 249.929 328.054 249.929ZM337.033 251.17C336.574 251.164 336.141 251.099 335.733 250.974C335.33 250.844 334.973 250.654 334.662 250.405C334.35 250.156 334.104 249.847 333.922 249.478C333.747 249.104 333.659 248.671 333.659 248.178V242.211H335.231V248.016C335.231 248.589 335.407 249.053 335.758 249.41C336.115 249.767 336.651 249.946 337.365 249.946C338.011 249.946 338.529 249.779 338.92 249.444C339.317 249.104 339.515 248.6 339.515 247.931V242.211H341.079V251H339.83L339.668 249.317C339.561 249.759 339.376 250.116 339.116 250.388C338.861 250.66 338.552 250.861 338.189 250.991C337.832 251.116 337.447 251.176 337.033 251.17ZM343.461 251V242.211H344.957V243.902C345.105 243.483 345.312 243.137 345.578 242.865C345.844 242.588 346.147 242.381 346.487 242.245C346.833 242.109 347.19 242.041 347.558 242.041C347.689 242.041 347.816 242.049 347.941 242.067C348.066 242.083 348.162 242.112 348.23 242.151V243.673C348.145 243.633 348.034 243.608 347.898 243.596C347.768 243.579 347.658 243.571 347.567 243.571C347.216 243.548 346.887 243.571 346.581 243.639C346.275 243.701 346.006 243.812 345.773 243.97C345.541 244.129 345.357 244.339 345.221 244.599C345.091 244.854 345.025 245.166 345.025 245.534V251H343.461ZM357.336 253.907C355.954 253.907 354.877 253.706 354.106 253.304C353.341 252.907 352.959 252.337 352.959 251.595C352.959 251.278 353.032 251.009 353.18 250.787C353.327 250.561 353.503 250.374 353.707 250.226C353.911 250.079 354.101 249.963 354.276 249.878C354.452 249.787 354.565 249.722 354.616 249.682C354.52 249.626 354.398 249.555 354.251 249.47C354.109 249.385 353.984 249.272 353.877 249.13C353.769 248.988 353.715 248.804 353.715 248.577C353.715 248.3 353.846 248.045 354.106 247.812C354.367 247.58 354.752 247.407 355.262 247.294C354.747 247.033 354.344 246.688 354.055 246.257C353.766 245.826 353.622 245.359 353.622 244.854C353.622 244.288 353.775 243.795 354.081 243.375C354.392 242.956 354.834 242.636 355.407 242.415C355.979 242.188 356.659 242.075 357.447 242.075C358.019 242.075 358.501 242.143 358.892 242.279C359.283 242.409 359.645 242.596 359.98 242.84C360.07 242.8 360.212 242.741 360.405 242.661C360.603 242.576 360.821 242.486 361.059 242.389C361.297 242.293 361.518 242.202 361.722 242.117C361.932 242.027 362.099 241.959 362.224 241.913L362.215 243.367L360.677 243.656C360.762 243.837 360.83 244.036 360.881 244.251C360.937 244.466 360.966 244.667 360.966 244.854C360.966 245.37 360.83 245.838 360.558 246.257C360.291 246.676 359.886 247.011 359.342 247.26C358.798 247.509 358.118 247.634 357.302 247.634C357.234 247.634 357.146 247.634 357.039 247.634C356.937 247.628 356.849 247.623 356.775 247.617C356.175 247.634 355.761 247.702 355.534 247.821C355.308 247.934 355.194 248.062 355.194 248.203C355.194 248.368 355.322 248.481 355.577 248.543C355.832 248.606 356.265 248.66 356.877 248.705C357.098 248.716 357.37 248.73 357.693 248.747C358.022 248.764 358.385 248.787 358.781 248.816C359.705 248.872 360.416 249.107 360.915 249.521C361.413 249.935 361.663 250.493 361.663 251.196C361.663 251.995 361.306 252.646 360.592 253.151C359.878 253.655 358.793 253.907 357.336 253.907ZM357.617 252.896C358.427 252.896 359.048 252.774 359.478 252.53C359.909 252.286 360.124 251.918 360.124 251.425C360.124 251.074 359.991 250.787 359.725 250.566C359.464 250.34 359.065 250.209 358.526 250.175L356.061 250.014C355.84 250.003 355.611 250.059 355.373 250.184C355.135 250.303 354.931 250.47 354.761 250.685C354.596 250.901 354.514 251.145 354.514 251.417C354.514 251.881 354.766 252.244 355.271 252.505C355.781 252.765 356.563 252.896 357.617 252.896ZM357.345 246.622C357.979 246.622 358.489 246.475 358.875 246.18C359.266 245.886 359.461 245.449 359.461 244.871C359.461 244.276 359.266 243.823 358.875 243.511C358.489 243.2 357.979 243.044 357.345 243.044C356.704 243.044 356.186 243.203 355.789 243.52C355.398 243.832 355.203 244.282 355.203 244.871C355.203 245.427 355.39 245.857 355.764 246.163C356.138 246.469 356.665 246.622 357.345 246.622ZM367 251.17C366.541 251.164 366.107 251.099 365.699 250.974C365.297 250.844 364.94 250.654 364.628 250.405C364.317 250.156 364.07 249.847 363.889 249.478C363.713 249.104 363.625 248.671 363.625 248.178V242.211H365.198V248.016C365.198 248.589 365.373 249.053 365.725 249.41C366.082 249.767 366.617 249.946 367.331 249.946C367.977 249.946 368.496 249.779 368.887 249.444C369.283 249.104 369.482 248.6 369.482 247.931V242.211H371.046V251H369.796L369.635 249.317C369.527 249.759 369.343 250.116 369.082 250.388C368.827 250.66 368.518 250.861 368.156 250.991C367.799 251.116 367.413 251.176 367 251.17ZM375.128 242.211V251H373.606V242.211H375.128ZM375.162 238.717V240.349H373.555V238.717H375.162ZM380.894 251.17C379.755 251.17 378.851 250.779 378.183 249.997C377.514 249.215 377.18 248.073 377.18 246.571C377.18 245.659 377.313 244.863 377.579 244.183C377.851 243.503 378.254 242.976 378.786 242.602C379.319 242.228 379.982 242.041 380.775 242.041C381.195 242.041 381.566 242.095 381.889 242.202C382.217 242.31 382.501 242.446 382.739 242.61C382.977 242.775 383.169 242.945 383.317 243.12C383.47 243.296 383.583 243.458 383.657 243.605V238.369H385.238V251H384.039L383.869 249.198C383.813 249.368 383.722 249.566 383.597 249.793C383.473 250.014 383.297 250.232 383.07 250.447C382.844 250.657 382.552 250.83 382.195 250.966C381.843 251.102 381.41 251.17 380.894 251.17ZM381.175 249.963C382.064 249.963 382.699 249.694 383.079 249.155C383.464 248.611 383.657 247.725 383.657 246.495C383.651 245.809 383.563 245.226 383.393 244.744C383.229 244.262 382.968 243.897 382.611 243.647C382.26 243.392 381.792 243.265 381.209 243.265C380.483 243.265 379.894 243.523 379.441 244.038C378.987 244.554 378.761 245.373 378.761 246.495C378.761 247.594 378.965 248.447 379.373 249.053C379.786 249.66 380.387 249.963 381.175 249.963ZM388.786 246.971C388.786 247.526 388.877 248.031 389.058 248.484C389.245 248.932 389.526 249.289 389.9 249.555C390.279 249.821 390.752 249.954 391.319 249.954C391.88 249.954 392.362 249.824 392.764 249.563C393.172 249.303 393.433 248.926 393.546 248.433H395.034C394.926 249.028 394.688 249.529 394.32 249.938C393.951 250.345 393.506 250.654 392.985 250.864C392.464 251.068 391.92 251.17 391.353 251.17C390.531 251.17 389.809 250.992 389.186 250.634C388.562 250.277 388.075 249.765 387.724 249.096C387.372 248.427 387.197 247.625 387.197 246.69C387.197 245.767 387.355 244.956 387.673 244.259C387.99 243.562 388.449 243.018 389.05 242.627C389.656 242.236 390.384 242.041 391.234 242.041C392.061 242.041 392.761 242.219 393.334 242.576C393.906 242.933 394.339 243.438 394.634 244.089C394.934 244.735 395.085 245.503 395.085 246.393V246.971H388.786ZM388.795 245.908H393.572C393.572 245.404 393.487 244.951 393.317 244.548C393.147 244.14 392.886 243.82 392.535 243.588C392.189 243.35 391.753 243.231 391.226 243.231C390.676 243.231 390.22 243.364 389.857 243.63C389.5 243.891 389.231 244.228 389.05 244.642C388.874 245.05 388.789 245.472 388.795 245.908ZM403.999 251.17C403.189 251.17 402.481 250.997 401.874 250.651C401.268 250.3 400.798 249.787 400.463 249.113C400.129 248.439 399.962 247.614 399.962 246.639C399.962 245.721 400.118 244.917 400.429 244.225C400.741 243.534 401.197 242.999 401.798 242.619C402.404 242.234 403.138 242.041 403.999 242.041C404.81 242.041 405.512 242.219 406.107 242.576C406.708 242.928 407.173 243.446 407.501 244.132C407.83 244.818 407.994 245.653 407.994 246.639C407.994 247.535 407.841 248.322 407.535 249.002C407.235 249.682 406.787 250.215 406.192 250.6C405.603 250.98 404.872 251.17 403.999 251.17ZM403.999 249.929C404.526 249.929 404.971 249.796 405.334 249.529C405.696 249.263 405.971 248.881 406.158 248.382C406.345 247.883 406.439 247.291 406.439 246.605C406.439 245.976 406.357 245.413 406.192 244.914C406.028 244.41 405.764 244.01 405.402 243.715C405.045 243.421 404.577 243.273 403.999 243.273C403.467 243.273 403.016 243.407 402.648 243.673C402.279 243.934 401.999 244.313 401.806 244.812C401.619 245.311 401.526 245.908 401.526 246.605C401.526 247.223 401.611 247.784 401.781 248.288C401.951 248.793 402.217 249.192 402.58 249.487C402.942 249.782 403.416 249.929 403.999 249.929ZM409.882 251V242.211H411.403V243.486C411.545 243.242 411.74 243.013 411.99 242.797C412.245 242.582 412.551 242.409 412.908 242.279C413.27 242.149 413.687 242.083 414.157 242.083C414.712 242.083 415.222 242.194 415.687 242.415C416.157 242.636 416.531 242.982 416.809 243.452C417.092 243.917 417.234 244.517 417.234 245.254V251H415.662V245.407C415.662 244.721 415.48 244.214 415.118 243.885C414.761 243.551 414.296 243.384 413.724 243.384C413.327 243.384 412.956 243.449 412.61 243.579C412.264 243.704 411.984 243.897 411.769 244.157C411.553 244.412 411.446 244.735 411.446 245.126V251H409.882ZM426.391 251.17C425.779 251.17 425.209 251.077 424.682 250.889C424.161 250.697 423.727 250.399 423.382 249.997C423.036 249.589 422.818 249.07 422.727 248.441H424.155C424.234 248.787 424.376 249.076 424.58 249.308C424.79 249.535 425.05 249.708 425.362 249.827C425.674 249.94 426.014 249.997 426.382 249.997C426.971 249.997 427.447 249.886 427.81 249.665C428.173 249.444 428.354 249.104 428.354 248.645C428.354 248.322 428.258 248.065 428.065 247.872C427.878 247.674 427.586 247.529 427.19 247.438L425.371 246.988C424.662 246.818 424.096 246.552 423.671 246.189C423.246 245.826 423.033 245.319 423.033 244.667C423.027 244.152 423.149 243.698 423.399 243.307C423.648 242.916 424.022 242.608 424.521 242.381C425.019 242.154 425.64 242.041 426.382 242.041C427.334 242.041 428.102 242.256 428.686 242.687C429.275 243.112 429.581 243.738 429.604 244.565H428.218C428.161 244.146 427.972 243.815 427.649 243.571C427.331 243.322 426.903 243.197 426.365 243.197C425.804 243.197 425.348 243.31 424.997 243.537C424.645 243.758 424.47 244.104 424.47 244.574C424.47 244.886 424.594 245.132 424.844 245.313C425.093 245.489 425.461 245.636 425.949 245.755L427.708 246.198C428.116 246.305 428.45 246.447 428.711 246.622C428.977 246.798 429.187 246.994 429.34 247.209C429.499 247.424 429.609 247.651 429.672 247.889C429.74 248.121 429.774 248.345 429.774 248.56C429.774 249.099 429.638 249.563 429.366 249.954C429.099 250.34 428.714 250.64 428.21 250.855C427.711 251.065 427.105 251.17 426.391 251.17ZM432.922 246.971C432.922 247.526 433.013 248.031 433.194 248.484C433.381 248.932 433.662 249.289 434.036 249.555C434.415 249.821 434.889 249.954 435.455 249.954C436.016 249.954 436.498 249.824 436.9 249.563C437.308 249.303 437.569 248.926 437.682 248.433H439.17C439.062 249.028 438.824 249.529 438.456 249.938C438.087 250.345 437.643 250.654 437.121 250.864C436.6 251.068 436.056 251.17 435.489 251.17C434.668 251.17 433.945 250.992 433.322 250.634C432.698 250.277 432.211 249.765 431.86 249.096C431.508 248.427 431.333 247.625 431.333 246.69C431.333 245.767 431.491 244.956 431.809 244.259C432.126 243.562 432.585 243.018 433.186 242.627C433.792 242.236 434.52 242.041 435.37 242.041C436.198 242.041 436.897 242.219 437.47 242.576C438.042 242.933 438.476 243.438 438.77 244.089C439.071 244.735 439.221 245.503 439.221 246.393V246.971H432.922ZM432.931 245.908H437.708C437.708 245.404 437.623 244.951 437.453 244.548C437.283 244.14 437.022 243.82 436.671 243.588C436.325 243.35 435.889 243.231 435.362 243.231C434.812 243.231 434.356 243.364 433.993 243.63C433.636 243.891 433.367 244.228 433.186 244.642C433.01 245.05 432.925 245.472 432.931 245.908ZM448.364 251H446.655L444.097 247.557L441.555 251H439.83L443.221 246.435L440.102 242.211H441.819L444.097 245.296L446.383 242.211H448.1L444.972 246.435L448.364 251ZM185.426 277.737V266.211H186.99L187.007 267.741C187.109 267.56 187.239 267.37 187.398 267.171C187.562 266.973 187.761 266.789 187.993 266.619C188.231 266.449 188.506 266.31 188.817 266.202C189.135 266.095 189.495 266.041 189.897 266.041C190.6 266.041 191.217 266.202 191.75 266.525C192.288 266.843 192.708 267.33 193.008 267.987C193.308 268.645 193.458 269.478 193.458 270.486C193.458 271.495 193.311 272.348 193.016 273.045C192.727 273.736 192.308 274.263 191.758 274.626C191.209 274.989 190.546 275.17 189.769 275.17C189.378 275.17 189.03 275.113 188.724 275C188.424 274.892 188.16 274.751 187.933 274.575C187.712 274.394 187.525 274.201 187.372 273.997C187.225 273.793 187.103 273.597 187.007 273.41V277.737H185.426ZM189.472 273.946C190.197 273.946 190.789 273.671 191.248 273.121C191.707 272.566 191.937 271.705 191.937 270.537C191.937 269.534 191.727 268.738 191.308 268.149C190.889 267.56 190.277 267.265 189.472 267.265C188.656 267.265 188.038 267.568 187.619 268.174C187.2 268.775 186.99 269.563 186.99 270.537C186.99 271.166 187.083 271.739 187.27 272.254C187.457 272.77 187.735 273.181 188.103 273.487C188.472 273.793 188.928 273.946 189.472 273.946ZM198.843 275.17C198.033 275.17 197.324 274.997 196.718 274.651C196.112 274.3 195.641 273.787 195.307 273.113C194.973 272.439 194.806 271.614 194.806 270.639C194.806 269.721 194.961 268.917 195.273 268.225C195.585 267.534 196.041 266.999 196.642 266.619C197.248 266.234 197.982 266.041 198.843 266.041C199.653 266.041 200.356 266.219 200.951 266.576C201.552 266.928 202.016 267.446 202.345 268.132C202.674 268.818 202.838 269.653 202.838 270.639C202.838 271.535 202.685 272.322 202.379 273.002C202.079 273.682 201.631 274.215 201.036 274.6C200.447 274.98 199.716 275.17 198.843 275.17ZM198.843 273.929C199.37 273.929 199.815 273.796 200.178 273.529C200.54 273.263 200.815 272.881 201.002 272.382C201.189 271.883 201.283 271.291 201.283 270.605C201.283 269.976 201.2 269.413 201.036 268.914C200.872 268.41 200.608 268.01 200.246 267.715C199.889 267.421 199.421 267.273 198.843 267.273C198.31 267.273 197.86 267.407 197.492 267.673C197.123 267.934 196.843 268.313 196.65 268.812C196.463 269.311 196.37 269.908 196.37 270.605C196.37 271.223 196.455 271.784 196.625 272.288C196.795 272.793 197.061 273.192 197.424 273.487C197.786 273.782 198.259 273.929 198.843 273.929ZM207.795 275.17C207.183 275.17 206.614 275.077 206.087 274.889C205.565 274.697 205.132 274.399 204.786 273.997C204.441 273.589 204.222 273.07 204.132 272.441H205.56C205.639 272.787 205.781 273.076 205.985 273.308C206.194 273.535 206.455 273.708 206.767 273.827C207.078 273.94 207.418 273.997 207.787 273.997C208.376 273.997 208.852 273.886 209.215 273.665C209.577 273.444 209.759 273.104 209.759 272.645C209.759 272.322 209.662 272.065 209.47 271.872C209.283 271.674 208.991 271.529 208.594 271.438L206.775 270.988C206.067 270.818 205.5 270.552 205.075 270.189C204.65 269.826 204.438 269.319 204.438 268.667C204.432 268.152 204.554 267.698 204.803 267.307C205.053 266.916 205.427 266.608 205.925 266.381C206.424 266.154 207.044 266.041 207.787 266.041C208.739 266.041 209.507 266.256 210.09 266.687C210.68 267.112 210.986 267.738 211.008 268.565H209.623C209.566 268.146 209.376 267.815 209.053 267.571C208.736 267.322 208.308 267.197 207.77 267.197C207.209 267.197 206.753 267.31 206.401 267.537C206.05 267.758 205.874 268.104 205.874 268.574C205.874 268.886 205.999 269.132 206.248 269.313C206.498 269.489 206.866 269.636 207.353 269.755L209.113 270.198C209.521 270.305 209.855 270.447 210.116 270.622C210.382 270.798 210.592 270.994 210.745 271.209C210.903 271.424 211.014 271.651 211.076 271.889C211.144 272.121 211.178 272.345 211.178 272.56C211.178 273.099 211.042 273.563 210.77 273.954C210.504 274.34 210.119 274.64 209.614 274.855C209.116 275.065 208.509 275.17 207.795 275.17ZM214.905 266.211V275H213.383V266.211H214.905ZM214.939 262.717V264.349H213.332V262.717H214.939ZM222.082 267.358H220.102V272.824C220.102 273.136 220.133 273.365 220.195 273.512C220.263 273.654 220.374 273.745 220.527 273.784C220.685 273.824 220.901 273.844 221.173 273.844H222.133V274.898C222.026 274.938 221.861 274.972 221.64 275C221.425 275.028 221.156 275.043 220.833 275.043C220.226 275.043 219.756 274.96 219.422 274.796C219.087 274.632 218.852 274.388 218.716 274.065C218.586 273.742 218.521 273.345 218.521 272.875V267.358H217.093V266.211H218.563L218.946 263.652H220.102V266.202H222.082V267.358ZM225.871 266.211V275H224.349V266.211H225.871ZM225.905 262.717V264.349H224.298V262.717H225.905ZM231.96 275.17C231.15 275.17 230.441 274.997 229.835 274.651C229.229 274.3 228.758 273.787 228.424 273.113C228.09 272.439 227.922 271.614 227.922 270.639C227.922 269.721 228.078 268.917 228.39 268.225C228.702 267.534 229.158 266.999 229.758 266.619C230.365 266.234 231.099 266.041 231.96 266.041C232.77 266.041 233.473 266.219 234.068 266.576C234.669 266.928 235.133 267.446 235.462 268.132C235.791 268.818 235.955 269.653 235.955 270.639C235.955 271.535 235.802 272.322 235.496 273.002C235.196 273.682 234.748 274.215 234.153 274.6C233.564 274.98 232.833 275.17 231.96 275.17ZM231.96 273.929C232.487 273.929 232.932 273.796 233.294 273.529C233.657 273.263 233.932 272.881 234.119 272.382C234.306 271.883 234.399 271.291 234.399 270.605C234.399 269.976 234.317 269.413 234.153 268.914C233.989 268.41 233.725 268.01 233.362 267.715C233.005 267.421 232.538 267.273 231.96 267.273C231.427 267.273 230.977 267.407 230.608 267.673C230.24 267.934 229.96 268.313 229.767 268.812C229.58 269.311 229.486 269.908 229.486 270.605C229.486 271.223 229.571 271.784 229.741 272.288C229.911 272.793 230.178 273.192 230.54 273.487C230.903 273.782 231.376 273.929 231.96 273.929ZM237.842 275V266.211H239.364V267.486C239.505 267.242 239.701 267.013 239.95 266.797C240.205 266.582 240.511 266.409 240.868 266.279C241.231 266.149 241.647 266.083 242.118 266.083C242.673 266.083 243.183 266.194 243.648 266.415C244.118 266.636 244.492 266.982 244.77 267.452C245.053 267.917 245.195 268.517 245.195 269.254V275H243.622V269.407C243.622 268.721 243.441 268.214 243.078 267.885C242.721 267.551 242.257 267.384 241.684 267.384C241.288 267.384 240.916 267.449 240.571 267.579C240.225 267.704 239.945 267.897 239.729 268.157C239.514 268.412 239.406 268.735 239.406 269.126V275H237.842ZM250.47 275.17C249.858 275.17 249.289 275.077 248.762 274.889C248.241 274.697 247.807 274.399 247.461 273.997C247.116 273.589 246.898 273.07 246.807 272.441H248.235C248.314 272.787 248.456 273.076 248.66 273.308C248.87 273.535 249.13 273.708 249.442 273.827C249.754 273.94 250.094 273.997 250.462 273.997C251.051 273.997 251.527 273.886 251.89 273.665C252.253 273.444 252.434 273.104 252.434 272.645C252.434 272.322 252.338 272.065 252.145 271.872C251.958 271.674 251.666 271.529 251.269 271.438L249.45 270.988C248.742 270.818 248.175 270.552 247.75 270.189C247.325 269.826 247.113 269.319 247.113 268.667C247.107 268.152 247.229 267.698 247.478 267.307C247.728 266.916 248.102 266.608 248.6 266.381C249.099 266.154 249.72 266.041 250.462 266.041C251.414 266.041 252.182 266.256 252.765 266.687C253.355 267.112 253.661 267.738 253.683 268.565H252.298C252.241 268.146 252.051 267.815 251.728 267.571C251.411 267.322 250.983 267.197 250.445 267.197C249.884 267.197 249.428 267.31 249.076 267.537C248.725 267.758 248.549 268.104 248.549 268.574C248.549 268.886 248.674 269.132 248.923 269.313C249.173 269.489 249.541 269.636 250.028 269.755L251.788 270.198C252.196 270.305 252.53 270.447 252.791 270.622C253.057 270.798 253.267 270.994 253.42 271.209C253.579 271.424 253.689 271.651 253.751 271.889C253.819 272.121 253.853 272.345 253.853 272.56C253.853 273.099 253.717 273.563 253.445 273.954C253.179 274.34 252.794 274.64 252.289 274.855C251.791 275.065 251.184 275.17 250.47 275.17ZM261.993 275.17C261.426 275.17 260.925 275.071 260.488 274.872C260.052 274.668 259.709 274.377 259.46 273.997C259.216 273.617 259.094 273.158 259.094 272.62C259.094 271.645 259.434 270.92 260.114 270.444C260.794 269.968 261.885 269.713 263.387 269.679L264.959 269.636V268.948C264.959 268.41 264.798 267.985 264.475 267.673C264.152 267.356 263.65 267.197 262.97 267.197C262.466 267.203 262.021 267.322 261.636 267.554C261.256 267.786 261.01 268.166 260.896 268.693H259.511C259.545 268.121 259.706 267.639 259.995 267.248C260.284 266.851 260.687 266.551 261.202 266.347C261.724 266.143 262.338 266.041 263.047 266.041C263.812 266.041 264.446 266.149 264.951 266.364C265.461 266.579 265.84 266.897 266.09 267.316C266.345 267.735 266.472 268.251 266.472 268.863V275H265.129L265.019 273.351C264.679 274.037 264.245 274.513 263.718 274.779C263.197 275.04 262.622 275.17 261.993 275.17ZM262.469 274.039C262.763 274.039 263.055 273.986 263.344 273.878C263.639 273.77 263.908 273.626 264.152 273.444C264.395 273.257 264.588 273.051 264.73 272.824C264.877 272.592 264.954 272.354 264.959 272.11V270.605L263.65 270.631C262.982 270.642 262.421 270.71 261.967 270.835C261.52 270.96 261.182 271.155 260.956 271.421C260.735 271.688 260.624 272.036 260.624 272.467C260.624 272.96 260.794 273.345 261.134 273.623C261.48 273.901 261.925 274.039 262.469 274.039ZM268.987 275V266.211H270.509V267.486C270.651 267.242 270.846 267.013 271.095 266.797C271.35 266.582 271.656 266.409 272.013 266.279C272.376 266.149 272.793 266.083 273.263 266.083C273.818 266.083 274.328 266.194 274.793 266.415C275.263 266.636 275.637 266.982 275.915 267.452C276.198 267.917 276.34 268.517 276.34 269.254V275H274.767V269.407C274.767 268.721 274.586 268.214 274.223 267.885C273.866 267.551 273.402 267.384 272.829 267.384C272.433 267.384 272.062 267.449 271.716 267.579C271.37 267.704 271.09 267.897 270.874 268.157C270.659 268.412 270.551 268.735 270.551 269.126V275H268.987ZM281.799 275.17C280.66 275.17 279.757 274.779 279.088 273.997C278.419 273.215 278.085 272.073 278.085 270.571C278.085 269.659 278.218 268.863 278.484 268.183C278.756 267.503 279.159 266.976 279.691 266.602C280.224 266.228 280.887 266.041 281.68 266.041C282.1 266.041 282.471 266.095 282.794 266.202C283.123 266.31 283.406 266.446 283.644 266.61C283.882 266.775 284.075 266.945 284.222 267.12C284.375 267.296 284.488 267.458 284.562 267.605V262.369H286.143V275H284.944L284.774 273.198C284.718 273.368 284.627 273.566 284.502 273.793C284.378 274.014 284.202 274.232 283.975 274.447C283.749 274.657 283.457 274.83 283.1 274.966C282.749 275.102 282.315 275.17 281.799 275.17ZM282.08 273.963C282.97 273.963 283.604 273.694 283.984 273.155C284.369 272.611 284.562 271.725 284.562 270.495C284.556 269.809 284.468 269.226 284.298 268.744C284.134 268.262 283.873 267.897 283.516 267.647C283.165 267.392 282.698 267.265 282.114 267.265C281.389 267.265 280.799 267.523 280.346 268.038C279.893 268.554 279.666 269.373 279.666 270.495C279.666 271.594 279.87 272.447 280.278 273.053C280.692 273.66 281.292 273.963 282.08 273.963ZM292.317 277.737V266.211H293.881L293.898 267.741C294 267.56 294.131 267.37 294.289 267.171C294.454 266.973 294.652 266.789 294.884 266.619C295.122 266.449 295.397 266.31 295.709 266.202C296.026 266.095 296.386 266.041 296.788 266.041C297.491 266.041 298.109 266.202 298.641 266.525C299.18 266.843 299.599 267.33 299.899 267.987C300.2 268.645 300.35 269.478 300.35 270.486C300.35 271.495 300.202 272.348 299.908 273.045C299.619 273.736 299.199 274.263 298.65 274.626C298.1 274.989 297.437 275.17 296.661 275.17C296.27 275.17 295.921 275.113 295.615 275C295.315 274.892 295.051 274.751 294.825 274.575C294.604 274.394 294.417 274.201 294.264 273.997C294.116 273.793 293.995 273.597 293.898 273.41V277.737H292.317ZM296.363 273.946C297.089 273.946 297.681 273.671 298.14 273.121C298.599 272.566 298.828 271.705 298.828 270.537C298.828 269.534 298.619 268.738 298.199 268.149C297.78 267.56 297.168 267.265 296.363 267.265C295.547 267.265 294.93 267.568 294.51 268.174C294.091 268.775 293.881 269.563 293.881 270.537C293.881 271.166 293.975 271.739 294.162 272.254C294.349 272.77 294.626 273.181 294.995 273.487C295.363 273.793 295.819 273.946 296.363 273.946ZM302.241 275V266.211H303.737V267.902C303.884 267.483 304.091 267.137 304.358 266.865C304.624 266.588 304.927 266.381 305.267 266.245C305.613 266.109 305.97 266.041 306.338 266.041C306.468 266.041 306.596 266.049 306.721 266.067C306.845 266.083 306.942 266.112 307.01 266.151V267.673C306.925 267.633 306.814 267.608 306.678 267.596C306.548 267.579 306.437 267.571 306.347 267.571C305.995 267.548 305.667 267.571 305.361 267.639C305.055 267.701 304.785 267.812 304.553 267.97C304.321 268.129 304.137 268.339 304.001 268.599C303.87 268.854 303.805 269.166 303.805 269.534V275H302.241ZM310.362 266.211V275H308.84V266.211H310.362ZM310.396 262.717V264.349H308.789V262.717H310.396ZM319.826 266.211L316.655 275H315.227L312.048 266.211H313.527L315.865 273.028H316.009L318.355 266.211H319.826ZM323.453 275.17C322.886 275.17 322.385 275.071 321.949 274.872C321.512 274.668 321.169 274.377 320.92 273.997C320.676 273.617 320.555 273.158 320.555 272.62C320.555 271.645 320.895 270.92 321.575 270.444C322.255 269.968 323.345 269.713 324.847 269.679L326.42 269.636V268.948C326.42 268.41 326.258 267.985 325.935 267.673C325.612 267.356 325.111 267.197 324.431 267.197C323.926 267.203 323.481 267.322 323.096 267.554C322.716 267.786 322.47 268.166 322.357 268.693H320.971C321.005 268.121 321.167 267.639 321.456 267.248C321.745 266.851 322.147 266.551 322.663 266.347C323.184 266.143 323.799 266.041 324.507 266.041C325.272 266.041 325.907 266.149 326.411 266.364C326.921 266.579 327.301 266.897 327.55 267.316C327.805 267.735 327.933 268.251 327.933 268.863V275H326.59L326.479 273.351C326.139 274.037 325.706 274.513 325.179 274.779C324.657 275.04 324.082 275.17 323.453 275.17ZM323.929 274.039C324.224 274.039 324.516 273.986 324.805 273.878C325.099 273.77 325.368 273.626 325.612 273.444C325.856 273.257 326.048 273.051 326.19 272.824C326.337 272.592 326.414 272.354 326.42 272.11V270.605L325.111 270.631C324.442 270.642 323.881 270.71 323.428 270.835C322.98 270.96 322.643 271.155 322.416 271.421C322.195 271.688 322.085 272.036 322.085 272.467C322.085 272.96 322.255 273.345 322.595 273.623C322.94 273.901 323.385 274.039 323.929 274.039ZM333.95 266.041C334.579 266.041 335.145 266.163 335.65 266.406C336.154 266.644 336.565 266.984 336.882 267.426C337.205 267.868 337.406 268.39 337.486 268.99H336.092C336.041 268.684 335.922 268.404 335.735 268.149C335.553 267.894 335.313 267.69 335.012 267.537C334.712 267.384 334.361 267.307 333.958 267.307C333.205 267.307 332.593 267.579 332.122 268.123C331.652 268.667 331.417 269.5 331.417 270.622C331.417 271.637 331.632 272.45 332.063 273.062C332.499 273.668 333.139 273.971 333.984 273.971C334.386 273.971 334.735 273.895 335.029 273.742C335.33 273.583 335.57 273.376 335.752 273.121C335.933 272.861 336.049 272.583 336.1 272.288H337.469C337.395 272.878 337.197 273.388 336.874 273.818C336.551 274.249 336.137 274.583 335.633 274.821C335.134 275.054 334.573 275.17 333.95 275.17C333.162 275.17 332.462 274.997 331.85 274.651C331.244 274.306 330.768 273.796 330.422 273.121C330.077 272.447 329.904 271.62 329.904 270.639C329.904 269.721 330.06 268.92 330.371 268.234C330.689 267.543 331.148 267.004 331.748 266.619C332.355 266.234 333.088 266.041 333.95 266.041ZM340.159 277.805C339.644 277.805 339.29 277.768 339.097 277.695C338.904 277.621 338.808 277.584 338.808 277.584V276.564L339.7 276.581C340.029 276.592 340.301 276.57 340.516 276.513C340.732 276.456 340.905 276.38 341.035 276.284C341.165 276.187 341.264 276.08 341.332 275.961C341.406 275.842 341.466 275.728 341.511 275.621L341.817 274.787L338.383 266.211H339.972L342.565 272.994L345.14 266.211H346.679L342.973 275.663C342.746 276.218 342.491 276.652 342.208 276.964C341.93 277.275 341.619 277.493 341.273 277.618C340.933 277.743 340.562 277.805 340.159 277.805ZM346.975 275V272.994H348.845V275H346.975Z" fill="black"/>
<path d="M190.5 92.5C143.333 87.6667 42.7 97.3 17.5 174.5C-14 271 19 334 76 371C121.6 400.6 246.667 394 303.5 387C360.5 388.5 480.1 378.6 502.5 327C530.5 262.5 544 202.5 502.5 152C461 101.5 414.5 92.5 355 92.5" stroke="black" stroke-width="10" stroke-linecap="round"/>
</svg>
