<svg width="535" height="398" viewBox="0 0 535 398" fill="none" xmlns="http://www.w3.org/2000/svg">
<rect y="91" width="535" height="296" rx="148" fill="white"/>
<path fill-rule="evenodd" clip-rule="evenodd" d="M276.654 127.846C277.229 127.271 277.969 126.888 278.766 126.727C307.996 120.81 330 94.9746 330 64C330 28.6538 301.346 0 266 0C230.654 0 202 28.6538 202 64C202 94.5526 223.409 120.105 252.043 126.474C252.811 126.644 253.521 127.021 254.077 127.577L262.672 136.172C264.234 137.734 266.766 137.734 268.328 136.172L276.654 127.846Z" fill="white"/>
<path d="M252.5 126.5C256.961 126.996 259.52 138.111 265.69 138.765C272.213 139.457 270.5 125.778 292.5 121.5C319.343 116.281 332.355 96.9237 333.5 66C334.746 32.3602 315.6 5 276 5C241.663 5 214.203 20.685 207 55.5C201 84.5 218.127 114.657 237.5 119.5" stroke="black" stroke-width="10" stroke-linecap="round"/>
<path d="M234.956 59.5143C242.27 52.4149 252.924 57.3233 261.78 55.925C269.71 54.6729 277.553 52.165 284.591 48.2628C289.288 45.6583 293.79 43.353 297.982 40" stroke="black" stroke-width="10" stroke-linecap="round"/>
<path d="M297.88 40.2134C302.651 46.4765 305.481 54.7689 310.488 60.5252" stroke="black" stroke-width="10" stroke-linecap="round"/>
<path d="M231 61.8877C232.616 65.8834 233.953 69.7846 235.073 73.9303C235.822 76.7032 237.028 79.3643 237.651 82.1638C237.74 82.5628 238.069 86.7013 238.648 86.6761C240.387 86.6005 242.053 85.4016 243.658 84.8302C246.494 83.8206 249.866 84.3028 252.829 84.3028C256.636 84.3028 260.381 84.7745 264.168 84.8302C274.687 84.9849 286.596 85.5021 295.403 78.5891C299.307 75.5245 302.498 72.621 304.838 68.2752C305.822 66.4481 308.754 62.1756 310.488 60.8754" stroke="black" stroke-width="10" stroke-linecap="round"/>
<path d="M273.71 61.8339C270.329 62.0869 265.57 61.8462 263.699 65.0937C261.137 69.5401 266.173 72.6634 269.86 74.7934C273.706 77.0152 279.921 76.177 282.182 72.2094C286.265 65.0438 274.092 58.2572 267.164 60.4028" stroke="black" stroke-width="10" stroke-linecap="round"/>
<path d="M291 47C291.966 48.265 293.829 48.972 295.81 48.972C296.361 48.972 297.054 49.0504 297.588 48.9447C298.102 48.8428 298.451 48.479 299 48.479" stroke="black" stroke-width="10" stroke-linecap="round"/>
<path d="M307 59C305.615 59.9425 303.271 61.0704 302.501 62.403C301.881 63.4754 301.801 65.2447 302.46 66.2985C302.774 66.8018 303.519 67.5347 304.227 67.806C304.494 67.9087 304.65 67.8095 304.781 68" stroke="black" stroke-width="10" stroke-linecap="round"/>
<path d="M238 80.5854C241.378 78.9275 245.636 77.2282 248 83" stroke="black" stroke-width="10" stroke-linecap="round"/>
<path d="M235 65C238.017 63.3241 240.175 60.6651 241 57" stroke="black" stroke-width="10" stroke-linecap="round"/>
<path d="M241.508 183.072C240.804 182.688 239.796 182.496 238.484 182.496C238.036 182.496 237.7 182.512 237.476 182.544L236.276 182.688V189.696L237.428 189.456C238.292 189.296 239.364 188.832 240.644 188.064C241.956 187.264 242.724 186.608 242.948 186.096C243.044 185.904 243.092 185.696 243.092 185.472C243.092 185.024 242.932 184.576 242.612 184.128C242.324 183.648 241.956 183.296 241.508 183.072ZM237.764 172.368C237.764 172.144 237.62 172.032 237.332 172.032C236.98 172.032 236.66 172.176 236.372 172.464C236.084 172.752 235.94 173.28 235.94 174.048C235.94 174.656 236.052 174.96 236.276 174.96C236.468 174.96 236.756 174.608 237.14 173.904C237.556 173.2 237.764 172.688 237.764 172.368ZM234.26 167.04C234.932 166.72 235.94 166.56 237.284 166.56C238.66 166.56 239.732 166.72 240.5 167.04C241.204 167.328 241.828 167.872 242.372 168.672C242.948 169.44 243.316 170.304 243.476 171.264C243.508 171.392 243.524 171.584 243.524 171.84C243.524 172.16 243.316 172.88 242.9 174C242.484 175.12 242.276 176.016 242.276 176.688C242.276 177.008 242.804 177.44 243.86 177.984C245.972 179.104 247.396 180.56 248.132 182.352C248.516 183.28 248.708 184.272 248.708 185.328C248.708 187.504 248.068 189.264 246.788 190.608C245.668 191.792 243.924 192.896 241.556 193.92C239.188 194.944 237.188 195.456 235.556 195.456C234.436 195.456 233.54 195.2 232.868 194.688C232.228 194.144 231.908 193.424 231.908 192.528C231.908 191.76 231.684 191.072 231.236 190.464C230.98 190.08 230.804 189.392 230.708 188.4C230.612 187.408 230.5 185.36 230.372 182.256C230.212 177.488 230.036 174.656 229.844 173.76C229.78 173.184 229.748 172.736 229.748 172.416C229.748 172.16 229.78 171.872 229.844 171.552C229.972 171.04 230.564 170.24 231.62 169.152C232.676 168.064 233.556 167.36 234.26 167.04ZM255.378 172.944C255.986 172.688 256.514 172.56 256.962 172.56C257.57 172.56 258.13 172.768 258.642 173.184C259.058 173.504 259.314 173.968 259.41 174.576C259.506 175.184 259.618 176.784 259.746 179.376C259.874 182.352 260.114 184.56 260.466 186C260.85 187.408 261.426 188.416 262.194 189.024C262.802 189.472 263.25 189.696 263.538 189.696C263.89 189.696 264.434 189.376 265.17 188.736C266.194 187.776 267.25 185.984 268.338 183.36C269.458 180.704 270.018 178.64 270.018 177.168C270.018 176.592 270.29 175.936 270.834 175.2C271.41 174.528 272.098 174.192 272.898 174.192C273.73 174.192 274.45 174.544 275.058 175.248C275.57 175.792 275.826 176.384 275.826 177.024C275.826 177.184 275.794 177.616 275.73 178.32C275.346 181.424 274.226 184.768 272.37 188.352C271.346 190.432 269.986 192.176 268.29 193.584C266.626 194.992 265.058 195.696 263.586 195.696C262.242 195.696 260.818 195.136 259.314 194.016C257.81 192.896 256.674 191.568 255.906 190.032C255.234 188.656 254.77 187.344 254.514 186.096C254.29 184.816 254.098 182.832 253.938 180.144C253.874 178.672 253.842 177.744 253.842 177.36C253.842 175.952 253.954 174.944 254.178 174.336C254.402 173.696 254.802 173.232 255.378 172.944ZM300.326 170.832C300.518 170.8 300.774 170.784 301.094 170.784C302.086 170.784 302.854 171.12 303.398 171.792C303.942 172.464 304.214 173.44 304.214 174.72C304.214 176.832 303.766 178.832 302.87 180.72C302.006 182.576 300.838 184.032 299.366 185.088L297.542 186.432L297.734 188.448C298.054 191.968 298.214 194.256 298.214 195.312C298.214 196.528 298.102 197.408 297.878 197.952C297.654 198.496 297.27 198.96 296.726 199.344C296.342 199.6 295.894 199.728 295.382 199.728C294.614 199.728 293.894 199.376 293.222 198.672C292.71 198.064 292.454 197.12 292.454 195.84C292.454 194.656 292.39 192.848 292.262 190.416L292.022 187.056L289.862 186.432C288.39 186.016 287.19 185.376 286.262 184.512C285.462 183.776 284.406 182.256 283.094 179.952C281.782 177.648 281.126 176.144 281.126 175.44C281.126 174.736 281.462 174.112 282.134 173.568C282.806 173.024 283.526 172.752 284.294 172.752C284.806 172.752 285.254 172.896 285.638 173.184C285.926 173.376 286.71 174.64 287.99 176.976C288.886 178.608 289.494 179.6 289.814 179.952C290.166 180.304 290.854 180.656 291.878 181.008C292.838 181.36 293.51 181.536 293.894 181.536C294.214 181.536 294.678 181.36 295.286 181.008C296.31 180.464 297.046 179.744 297.494 178.848C297.942 177.92 298.166 176.672 298.166 175.104C298.166 173.664 298.326 172.624 298.646 171.984C298.966 171.344 299.526 170.96 300.326 170.832Z" fill="black"/>
<path d="M166.802 250.709H168.375V263H166.802V250.709ZM171.124 263V254.211H172.645V255.486C172.787 255.242 172.982 255.013 173.232 254.797C173.487 254.582 173.793 254.409 174.15 254.279C174.512 254.149 174.929 254.083 175.399 254.083C175.954 254.083 176.464 254.194 176.929 254.415C177.399 254.636 177.773 254.982 178.051 255.452C178.334 255.917 178.476 256.517 178.476 257.254V263H176.904V257.407C176.904 256.721 176.722 256.214 176.36 255.885C176.003 255.551 175.538 255.384 174.966 255.384C174.569 255.384 174.198 255.449 173.852 255.579C173.506 255.704 173.226 255.897 173.011 256.157C172.795 256.412 172.688 256.735 172.688 257.126V263H171.124ZM183.752 263.17C183.14 263.17 182.57 263.077 182.043 262.889C181.522 262.697 181.088 262.399 180.743 261.997C180.397 261.589 180.179 261.07 180.088 260.441H181.516C181.596 260.787 181.737 261.076 181.941 261.308C182.151 261.535 182.412 261.708 182.723 261.827C183.035 261.94 183.375 261.997 183.743 261.997C184.333 261.997 184.809 261.886 185.171 261.665C185.534 261.444 185.715 261.104 185.715 260.645C185.715 260.322 185.619 260.065 185.426 259.872C185.239 259.674 184.947 259.529 184.551 259.438L182.732 258.988C182.023 258.818 181.457 258.552 181.032 258.189C180.607 257.826 180.394 257.319 180.394 256.667C180.389 256.152 180.51 255.698 180.76 255.307C181.009 254.916 181.383 254.608 181.882 254.381C182.38 254.154 183.001 254.041 183.743 254.041C184.695 254.041 185.463 254.256 186.047 254.687C186.636 255.112 186.942 255.738 186.965 256.565H185.579C185.523 256.146 185.333 255.815 185.01 255.571C184.692 255.322 184.265 255.197 183.726 255.197C183.165 255.197 182.709 255.31 182.358 255.537C182.006 255.758 181.831 256.104 181.831 256.574C181.831 256.886 181.955 257.132 182.205 257.313C182.454 257.489 182.822 257.636 183.31 257.755L185.069 258.198C185.477 258.305 185.812 258.447 186.072 258.622C186.339 258.798 186.548 258.994 186.701 259.209C186.86 259.424 186.97 259.651 187.033 259.889C187.101 260.121 187.135 260.345 187.135 260.56C187.135 261.099 186.999 261.563 186.727 261.954C186.46 262.34 186.075 262.64 185.571 262.855C185.072 263.065 184.466 263.17 183.752 263.17ZM193.428 255.358H191.447V260.824C191.447 261.136 191.478 261.365 191.541 261.512C191.609 261.654 191.719 261.745 191.872 261.784C192.031 261.824 192.246 261.844 192.518 261.844H193.479V262.898C193.371 262.938 193.207 262.972 192.986 263C192.77 263.028 192.501 263.043 192.178 263.043C191.572 263.043 191.101 262.96 190.767 262.796C190.433 262.632 190.198 262.388 190.062 262.065C189.931 261.742 189.866 261.345 189.866 260.875V255.358H188.438V254.211H189.909L190.291 251.652H191.447V254.202H193.428V255.358ZM197.897 263.17C197.33 263.17 196.829 263.071 196.393 262.872C195.956 262.668 195.613 262.377 195.364 261.997C195.12 261.617 194.999 261.158 194.999 260.62C194.999 259.645 195.339 258.92 196.019 258.444C196.699 257.968 197.789 257.713 199.291 257.679L200.864 257.636V256.948C200.864 256.41 200.702 255.985 200.379 255.673C200.056 255.356 199.555 255.197 198.875 255.197C198.37 255.203 197.925 255.322 197.54 255.554C197.16 255.786 196.914 256.166 196.801 256.693H195.415C195.449 256.121 195.611 255.639 195.9 255.248C196.189 254.851 196.591 254.551 197.107 254.347C197.628 254.143 198.243 254.041 198.951 254.041C199.716 254.041 200.351 254.149 200.855 254.364C201.365 254.579 201.745 254.897 201.994 255.316C202.249 255.735 202.377 256.251 202.377 256.863V263H201.034L200.923 261.351C200.583 262.037 200.15 262.513 199.623 262.779C199.101 263.04 198.526 263.17 197.897 263.17ZM198.373 262.039C198.668 262.039 198.96 261.986 199.249 261.878C199.543 261.77 199.812 261.626 200.056 261.444C200.3 261.257 200.492 261.051 200.634 260.824C200.781 260.592 200.858 260.354 200.864 260.11V258.605L199.555 258.631C198.886 258.642 198.325 258.71 197.872 258.835C197.424 258.96 197.087 259.155 196.86 259.421C196.639 259.688 196.529 260.036 196.529 260.467C196.529 260.96 196.699 261.345 197.039 261.623C197.384 261.901 197.829 262.039 198.373 262.039ZM204.892 263V254.211H206.413V255.486C206.555 255.242 206.751 255.013 207 254.797C207.255 254.582 207.561 254.409 207.918 254.279C208.281 254.149 208.697 254.083 209.167 254.083C209.723 254.083 210.233 254.194 210.697 254.415C211.168 254.636 211.542 254.982 211.819 255.452C212.103 255.917 212.244 256.517 212.244 257.254V263H210.672V257.407C210.672 256.721 210.491 256.214 210.128 255.885C209.771 255.551 209.306 255.384 208.734 255.384C208.337 255.384 207.966 255.449 207.62 255.579C207.275 255.704 206.994 255.897 206.779 256.157C206.564 256.412 206.456 256.735 206.456 257.126V263H204.892ZM218.584 255.358H216.603V260.824C216.603 261.136 216.634 261.365 216.697 261.512C216.765 261.654 216.875 261.745 217.028 261.784C217.187 261.824 217.402 261.844 217.674 261.844H218.635V262.898C218.527 262.938 218.363 262.972 218.142 263C217.926 263.028 217.657 263.043 217.334 263.043C216.728 263.043 216.257 262.96 215.923 262.796C215.589 262.632 215.354 262.388 215.218 262.065C215.087 261.742 215.022 261.345 215.022 260.875V255.358H213.594V254.211H215.065L215.447 251.652H216.603V254.202H218.584V255.358ZM226.851 263.17C226.284 263.17 225.783 263.071 225.346 262.872C224.91 262.668 224.567 262.377 224.318 261.997C224.074 261.617 223.952 261.158 223.952 260.62C223.952 259.645 224.292 258.92 224.972 258.444C225.652 257.968 226.743 257.713 228.245 257.679L229.817 257.636V256.948C229.817 256.41 229.656 255.985 229.333 255.673C229.01 255.356 228.508 255.197 227.828 255.197C227.324 255.203 226.879 255.322 226.494 255.554C226.114 255.786 225.868 256.166 225.754 256.693H224.369C224.403 256.121 224.564 255.639 224.853 255.248C225.142 254.851 225.545 254.551 226.06 254.347C226.582 254.143 227.197 254.041 227.905 254.041C228.67 254.041 229.305 254.149 229.809 254.364C230.319 254.579 230.699 254.897 230.948 255.316C231.203 255.735 231.33 256.251 231.33 256.863V263H229.987L229.877 261.351C229.537 262.037 229.103 262.513 228.576 262.779C228.055 263.04 227.48 263.17 226.851 263.17ZM227.327 262.039C227.622 262.039 227.913 261.986 228.202 261.878C228.497 261.77 228.766 261.626 229.01 261.444C229.254 261.257 229.446 261.051 229.588 260.824C229.735 260.592 229.812 260.354 229.817 260.11V258.605L228.508 258.631C227.84 258.642 227.279 258.71 226.825 258.835C226.378 258.96 226.041 259.155 225.814 259.421C225.593 259.688 225.482 260.036 225.482 260.467C225.482 260.96 225.652 261.345 225.992 261.623C226.338 261.901 226.783 262.039 227.327 262.039ZM237.348 254.041C237.977 254.041 238.543 254.163 239.048 254.406C239.552 254.644 239.963 254.984 240.28 255.426C240.603 255.868 240.804 256.39 240.884 256.99H239.49C239.439 256.684 239.32 256.404 239.133 256.149C238.951 255.894 238.71 255.69 238.41 255.537C238.11 255.384 237.758 255.307 237.356 255.307C236.602 255.307 235.99 255.579 235.52 256.123C235.05 256.667 234.815 257.5 234.815 258.622C234.815 259.637 235.03 260.45 235.461 261.062C235.897 261.668 236.537 261.971 237.382 261.971C237.784 261.971 238.132 261.895 238.427 261.742C238.727 261.583 238.968 261.376 239.15 261.121C239.331 260.861 239.447 260.583 239.498 260.288H240.867C240.793 260.878 240.595 261.388 240.272 261.818C239.949 262.249 239.535 262.583 239.031 262.821C238.532 263.054 237.971 263.17 237.348 263.17C236.56 263.17 235.86 262.997 235.248 262.651C234.642 262.306 234.166 261.796 233.82 261.121C233.474 260.447 233.302 259.62 233.302 258.639C233.302 257.721 233.457 256.92 233.769 256.234C234.086 255.543 234.545 255.004 235.146 254.619C235.752 254.234 236.486 254.041 237.348 254.041ZM246.342 254.041C246.971 254.041 247.537 254.163 248.042 254.406C248.546 254.644 248.957 254.984 249.274 255.426C249.597 255.868 249.798 256.39 249.878 256.99H248.484C248.433 256.684 248.314 256.404 248.127 256.149C247.945 255.894 247.705 255.69 247.404 255.537C247.104 255.384 246.753 255.307 246.35 255.307C245.597 255.307 244.985 255.579 244.514 256.123C244.044 256.667 243.809 257.5 243.809 258.622C243.809 259.637 244.024 260.45 244.455 261.062C244.891 261.668 245.531 261.971 246.376 261.971C246.778 261.971 247.127 261.895 247.421 261.742C247.722 261.583 247.962 261.376 248.144 261.121C248.325 260.861 248.441 260.583 248.492 260.288H249.861C249.787 260.878 249.589 261.388 249.266 261.818C248.943 262.249 248.529 262.583 248.025 262.821C247.526 263.054 246.965 263.17 246.342 263.17C245.554 263.17 244.854 262.997 244.242 262.651C243.636 262.306 243.16 261.796 242.814 261.121C242.469 260.447 242.296 259.62 242.296 258.639C242.296 257.721 242.452 256.92 242.763 256.234C243.081 255.543 243.54 255.004 244.14 254.619C244.747 254.234 245.48 254.041 246.342 254.041ZM252.956 258.971C252.956 259.526 253.046 260.031 253.228 260.484C253.415 260.932 253.695 261.289 254.069 261.555C254.449 261.821 254.922 261.954 255.489 261.954C256.05 261.954 256.531 261.824 256.934 261.563C257.342 261.303 257.602 260.926 257.716 260.433H259.203C259.096 261.028 258.858 261.529 258.489 261.938C258.121 262.345 257.676 262.654 257.155 262.864C256.633 263.068 256.089 263.17 255.523 263.17C254.701 263.17 253.979 262.992 253.355 262.634C252.732 262.277 252.245 261.765 251.893 261.096C251.542 260.427 251.366 259.625 251.366 258.69C251.366 257.767 251.525 256.956 251.842 256.259C252.16 255.562 252.619 255.018 253.219 254.627C253.826 254.236 254.554 254.041 255.404 254.041C256.231 254.041 256.931 254.219 257.503 254.576C258.076 254.933 258.509 255.438 258.804 256.089C259.104 256.735 259.254 257.503 259.254 258.393V258.971H252.956ZM252.964 257.908H257.741C257.741 257.404 257.656 256.951 257.486 256.548C257.316 256.14 257.056 255.82 256.704 255.588C256.359 255.35 255.922 255.231 255.395 255.231C254.846 255.231 254.389 255.364 254.027 255.63C253.67 255.891 253.401 256.228 253.219 256.642C253.044 257.05 252.959 257.472 252.964 257.908ZM264.313 263.17C263.701 263.17 263.131 263.077 262.604 262.889C262.083 262.697 261.649 262.399 261.304 261.997C260.958 261.589 260.74 261.07 260.649 260.441H262.077C262.156 260.787 262.298 261.076 262.502 261.308C262.712 261.535 262.972 261.708 263.284 261.827C263.596 261.94 263.936 261.997 264.304 261.997C264.893 261.997 265.369 261.886 265.732 261.665C266.095 261.444 266.276 261.104 266.276 260.645C266.276 260.322 266.18 260.065 265.987 259.872C265.8 259.674 265.508 259.529 265.112 259.438L263.293 258.988C262.584 258.818 262.018 258.552 261.593 258.189C261.168 257.826 260.955 257.319 260.955 256.667C260.949 256.152 261.071 255.698 261.321 255.307C261.57 254.916 261.944 254.608 262.443 254.381C262.941 254.154 263.562 254.041 264.304 254.041C265.256 254.041 266.024 254.256 266.608 254.687C267.197 255.112 267.503 255.738 267.526 256.565H266.14C266.083 256.146 265.894 255.815 265.571 255.571C265.253 255.322 264.825 255.197 264.287 255.197C263.726 255.197 263.27 255.31 262.919 255.537C262.567 255.758 262.392 256.104 262.392 256.574C262.392 256.886 262.516 257.132 262.766 257.313C263.015 257.489 263.383 257.636 263.871 257.755L265.63 258.198C266.038 258.305 266.372 258.447 266.633 258.622C266.899 258.798 267.109 258.994 267.262 259.209C267.421 259.424 267.531 259.651 267.594 259.889C267.662 260.121 267.696 260.345 267.696 260.56C267.696 261.099 267.56 261.563 267.288 261.954C267.021 262.34 266.636 262.64 266.132 262.855C265.633 263.065 265.027 263.17 264.313 263.17ZM272.709 263.17C272.097 263.17 271.527 263.077 271 262.889C270.479 262.697 270.046 262.399 269.7 261.997C269.354 261.589 269.136 261.07 269.045 260.441H270.473C270.553 260.787 270.694 261.076 270.898 261.308C271.108 261.535 271.369 261.708 271.68 261.827C271.992 261.94 272.332 261.997 272.7 261.997C273.29 261.997 273.766 261.886 274.128 261.665C274.491 261.444 274.672 261.104 274.672 260.645C274.672 260.322 274.576 260.065 274.383 259.872C274.196 259.674 273.905 259.529 273.508 259.438L271.689 258.988C270.981 258.818 270.414 258.552 269.989 258.189C269.564 257.826 269.351 257.319 269.351 256.667C269.346 256.152 269.468 255.698 269.717 255.307C269.966 254.916 270.34 254.608 270.839 254.381C271.338 254.154 271.958 254.041 272.7 254.041C273.652 254.041 274.42 254.256 275.004 254.687C275.593 255.112 275.899 255.738 275.922 256.565H274.536C274.48 256.146 274.29 255.815 273.967 255.571C273.65 255.322 273.222 255.197 272.683 255.197C272.122 255.197 271.666 255.31 271.315 255.537C270.964 255.758 270.788 256.104 270.788 256.574C270.788 256.886 270.913 257.132 271.162 257.313C271.411 257.489 271.78 257.636 272.267 257.755L274.026 258.198C274.434 258.305 274.769 258.447 275.029 258.622C275.296 258.798 275.505 258.994 275.658 259.209C275.817 259.424 275.928 259.651 275.99 259.889C276.058 260.121 276.092 260.345 276.092 260.56C276.092 261.099 275.956 261.563 275.684 261.954C275.418 262.34 275.032 262.64 274.528 262.855C274.029 263.065 273.423 263.17 272.709 263.17ZM286.282 255.358H284.302V260.824C284.302 261.136 284.333 261.365 284.395 261.512C284.463 261.654 284.574 261.745 284.727 261.784C284.885 261.824 285.101 261.844 285.373 261.844H286.333V262.898C286.225 262.938 286.061 262.972 285.84 263C285.625 263.028 285.356 263.043 285.033 263.043C284.426 263.043 283.956 262.96 283.622 262.796C283.287 262.632 283.052 262.388 282.916 262.065C282.786 261.742 282.721 261.345 282.721 260.875V255.358H281.293V254.211H282.763L283.146 251.652H284.302V254.202H286.282V255.358ZM291.632 263.17C290.821 263.17 290.113 262.997 289.507 262.651C288.9 262.3 288.43 261.787 288.096 261.113C287.761 260.439 287.594 259.614 287.594 258.639C287.594 257.721 287.75 256.917 288.062 256.225C288.373 255.534 288.829 254.999 289.43 254.619C290.036 254.234 290.77 254.041 291.632 254.041C292.442 254.041 293.145 254.219 293.74 254.576C294.34 254.928 294.805 255.446 295.134 256.132C295.462 256.818 295.627 257.653 295.627 258.639C295.627 259.535 295.474 260.322 295.168 261.002C294.867 261.682 294.42 262.215 293.825 262.6C293.235 262.98 292.504 263.17 291.632 263.17ZM291.632 261.929C292.159 261.929 292.603 261.796 292.966 261.529C293.329 261.263 293.604 260.881 293.791 260.382C293.978 259.883 294.071 259.291 294.071 258.605C294.071 257.976 293.989 257.413 293.825 256.914C293.66 256.41 293.397 256.01 293.034 255.715C292.677 255.421 292.21 255.273 291.632 255.273C291.099 255.273 290.648 255.407 290.28 255.673C289.912 255.934 289.631 256.313 289.439 256.812C289.252 257.311 289.158 257.908 289.158 258.605C289.158 259.223 289.243 259.784 289.413 260.288C289.583 260.793 289.849 261.192 290.212 261.487C290.575 261.782 291.048 261.929 291.632 261.929ZM305.625 263.17C304.327 263.17 303.25 262.892 302.395 262.337C301.545 261.776 301.038 260.949 300.873 259.855L302.522 259.753C302.704 260.444 303.066 260.963 303.61 261.308C304.154 261.654 304.823 261.827 305.616 261.827C306.092 261.827 306.537 261.745 306.951 261.58C307.37 261.416 307.707 261.187 307.962 260.892C308.223 260.597 308.353 260.249 308.353 259.846C308.353 259.308 308.192 258.877 307.869 258.554C307.551 258.231 307.044 257.976 306.347 257.789L304.231 257.237C303.318 257.005 302.596 256.639 302.063 256.14C301.531 255.642 301.261 254.973 301.256 254.134C301.25 253.426 301.434 252.803 301.808 252.264C302.188 251.726 302.709 251.307 303.372 251.006C304.041 250.706 304.812 250.556 305.684 250.556C306.523 250.556 307.245 250.717 307.852 251.04C308.464 251.358 308.937 251.78 309.271 252.307C309.611 252.834 309.793 253.409 309.815 254.032L308.217 254.117C308.093 253.386 307.823 252.834 307.41 252.46C307.002 252.08 306.427 251.89 305.684 251.89C305.333 251.89 304.993 251.936 304.664 252.026C304.341 252.111 304.049 252.242 303.789 252.417C303.534 252.593 303.33 252.811 303.177 253.072C303.024 253.333 302.947 253.636 302.947 253.981C302.947 254.423 303.103 254.775 303.415 255.035C303.726 255.29 304.287 255.543 305.098 255.792L307.138 256.37C308.18 256.659 308.923 257.109 309.365 257.721C309.812 258.328 310.036 259.03 310.036 259.829C310.036 260.481 309.852 261.059 309.484 261.563C309.115 262.062 308.597 262.456 307.928 262.745C307.265 263.028 306.497 263.17 305.625 263.17ZM304.962 248.873H306.415V251.066H304.962V248.873ZM304.86 262.583H306.313V264.777H304.86V262.583ZM316.678 263.17C316.1 263.17 315.539 263.099 314.995 262.957C314.451 262.81 313.958 262.592 313.516 262.303C313.074 262.014 312.706 261.657 312.411 261.232C312.122 260.801 311.941 260.303 311.867 259.736H313.516C313.618 260.201 313.819 260.592 314.12 260.909C314.426 261.226 314.797 261.464 315.233 261.623C315.675 261.782 316.154 261.861 316.67 261.861C317.248 261.861 317.763 261.782 318.217 261.623C318.676 261.459 319.036 261.226 319.296 260.926C319.563 260.626 319.696 260.266 319.696 259.846C319.696 259.478 319.611 259.158 319.441 258.886C319.276 258.614 319.036 258.387 318.718 258.206C318.401 258.025 318.016 257.883 317.562 257.781L315.148 257.22C314.242 257.022 313.53 256.667 313.015 256.157C312.505 255.647 312.244 254.973 312.233 254.134C312.233 253.426 312.42 252.803 312.794 252.264C313.173 251.726 313.692 251.307 314.349 251.006C315.012 250.706 315.769 250.556 316.619 250.556C317.599 250.556 318.424 250.723 319.092 251.057C319.761 251.392 320.265 251.831 320.605 252.375C320.945 252.919 321.118 253.5 321.124 254.117H319.5C319.449 253.562 319.285 253.123 319.007 252.8C318.735 252.471 318.392 252.239 317.979 252.103C317.565 251.961 317.115 251.89 316.627 251.89C316.276 251.89 315.936 251.936 315.607 252.026C315.284 252.111 314.992 252.242 314.732 252.417C314.477 252.593 314.273 252.811 314.12 253.072C313.967 253.333 313.89 253.636 313.89 253.981C313.89 254.423 314.04 254.783 314.341 255.061C314.647 255.339 315.199 255.577 315.998 255.775L318.336 256.336C318.948 256.466 319.446 256.659 319.832 256.914C320.223 257.169 320.523 257.458 320.733 257.781C320.948 258.104 321.095 258.441 321.175 258.792C321.26 259.144 321.302 259.489 321.302 259.829C321.302 260.447 321.118 261.011 320.75 261.521C320.381 262.025 319.852 262.428 319.16 262.728C318.475 263.023 317.647 263.17 316.678 263.17ZM331.943 257.33H325.313V263H323.74V250.709H325.313V255.945H331.943V250.709H333.515V263H331.943V257.33ZM335.668 263L340.113 250.709H341.89L346.335 263H344.729L343.522 259.634H338.498L337.266 263H335.668ZM338.898 258.189H343.105L341.014 252.264L338.898 258.189ZM357.86 263H356.084L352.25 256.684L350.117 259.124V263H348.485V250.709H350.117V257.067L355.625 250.709H357.503L353.398 255.537L357.86 263ZM359.903 263V250.709H367.655L367.646 252.094H361.484V256.106H367.034V257.483H361.475V261.58L367.816 261.597V263H359.903Z" fill="black"/>
<path d="M190.5 92.5C143.333 87.6667 42.7 97.3 17.5 174.5C-14 271 19 334 76 371C121.6 400.6 246.667 394 303.5 387C360.5 388.5 480.1 378.6 502.5 327C530.5 262.5 544 202.5 502.5 152C461 101.5 414.5 92.5 355 92.5" stroke="black" stroke-width="10" stroke-linecap="round"/>
</svg>
