<svg width="535" height="398" viewBox="0 0 535 398" fill="none" xmlns="http://www.w3.org/2000/svg">
<rect y="91" width="535" height="296" rx="148" fill="white"/>
<path fill-rule="evenodd" clip-rule="evenodd" d="M276.654 127.846C277.229 127.271 277.969 126.888 278.766 126.727C307.996 120.81 330 94.9746 330 64C330 28.6538 301.346 0 266 0C230.654 0 202 28.6538 202 64C202 94.5526 223.409 120.105 252.043 126.474C252.811 126.644 253.521 127.021 254.077 127.577L262.672 136.172C264.234 137.734 266.766 137.734 268.328 136.172L276.654 127.846Z" fill="white"/>
<path d="M252.5 126.5C256.961 126.996 259.52 138.111 265.69 138.765C272.213 139.457 270.5 125.778 292.5 121.5C319.343 116.281 332.355 96.9237 333.5 66C334.746 32.3602 315.6 5 276 5C241.663 5 214.203 20.685 207 55.5C201 84.5 218.127 114.657 237.5 119.5" stroke="#828282" stroke-width="10" stroke-linecap="round"/>
<path d="M267.232 28C269.946 30.8837 271.635 40.1627 276.199 40.4163C279.267 40.5867 284.841 35.3315 286.393 36.0476C289.667 37.5589 284.997 45.9347 289.995 45.9347C294.3 45.9347 296.716 45.1874 300.342 42.639C300.452 42.5614 302.71 41.2226 302.756 41.2594C305.042 43.0882 300.003 56.5346 299.422 59.1174C298.232 64.4122 295.07 68.6902 292.371 73.3731C288.32 80.4037 285.244 89.3677 277.962 93.8754C276.021 95.0767 275.174 97.0437 273.057 98.2057C271.524 99.0472 270.17 100.033 268.612 100.812C263.6 103.318 263.171 103.362 257.69 99.8152C252.007 96.1384 244.643 93.3955 238.261 91.1162C234.137 89.6435 241.3 82.1416 243.051 79.7346C246.268 75.3111 248.665 70.2337 250.983 65.2872C253.237 60.4792 254.663 55.5231 256.578 50.6482C258.85 44.8667 262.403 38.4421 262.403 32.1388" stroke="#828282" stroke-width="10" stroke-linecap="round"/>
<path d="M283.534 56.9241C282.914 50.7766 273.389 49.9677 270.13 54.3489C266.15 59.699 270.697 61.8459 274.636 63.6197C278.86 65.5212 277.686 71.0184 274.983 73.6345C269.804 78.6475 264.365 79.5862 257.534 79.5862" stroke="#828282" stroke-width="10" stroke-linecap="round"/>
<path d="M278.779 46.5862C272.77 60.6638 265.643 74.5613 261.534 89.3534" stroke="#828282" stroke-width="10" stroke-linecap="round"/>
<path d="M175.765 169.44C176.149 169.024 176.741 168.816 177.541 168.816C178.501 168.816 179.253 169.088 179.797 169.632C180.373 170.24 180.773 170.928 180.997 171.696C181.221 172.432 181.333 173.568 181.333 175.104C181.333 176.096 181.189 178.816 180.901 183.264C180.773 185.184 180.709 186.832 180.709 188.208C180.709 189.168 180.757 189.696 180.853 189.792C180.949 189.888 181.205 189.936 181.621 189.936C182.229 189.936 183.397 189.808 185.125 189.552C186.949 189.264 188.101 189.12 188.581 189.12C189.093 189.12 189.573 189.264 190.021 189.552C190.821 190.064 191.221 190.768 191.221 191.664C191.221 192.944 190.565 193.856 189.253 194.4C188.453 194.72 186.709 195.088 184.021 195.504C182.325 195.76 181.045 195.888 180.181 195.888C178.325 195.888 176.933 195.28 176.005 194.064C175.557 193.456 175.285 192.848 175.189 192.24C175.125 191.632 175.093 190.048 175.093 187.488C175.093 184.192 175.221 181.136 175.477 178.32C175.637 176.784 175.717 175.76 175.717 175.248C175.717 174.544 175.589 173.776 175.333 172.944C175.109 172.304 174.997 171.744 174.997 171.264C174.997 170.688 175.253 170.08 175.765 169.44ZM210.819 180.432C210.019 180.016 209.203 179.808 208.371 179.808C207.347 179.808 206.515 180.144 205.875 180.816C203.315 183.632 202.035 186.16 202.035 188.4C202.035 189.872 202.595 191.2 203.715 192.384C204.291 192.992 204.755 193.392 205.107 193.584C205.459 193.744 205.971 193.824 206.643 193.824C208.435 193.824 210.803 192.672 213.747 190.368C214.675 189.632 215.315 189.008 215.667 188.496C216.019 187.952 216.195 187.344 216.195 186.672C216.195 186.224 216.163 185.856 216.099 185.568C215.971 184.896 215.347 184.032 214.227 182.976C213.139 181.888 212.003 181.04 210.819 180.432ZM204.819 174.336C205.555 173.952 206.451 173.76 207.507 173.76C209.235 173.76 210.979 174.192 212.739 175.056C214.115 175.728 215.571 176.688 217.107 177.936C218.643 179.152 219.747 180.24 220.419 181.2C221.379 182.576 221.859 184.32 221.859 186.432C221.859 188.544 221.347 190.336 220.323 191.808C219.619 192.768 218.403 193.904 216.675 195.216C214.947 196.528 213.235 197.616 211.539 198.48C209.907 199.312 208.659 199.728 207.795 199.728C207.635 199.728 207.203 199.696 206.499 199.632C203.363 199.408 200.707 197.872 198.531 195.024C197.155 193.232 196.467 191.552 196.467 189.984C196.467 188.896 196.675 187.504 197.091 185.808C197.667 183.408 198.243 181.728 198.819 180.768C199.427 179.712 200.387 178.48 201.699 177.072C203.011 175.664 204.051 174.752 204.819 174.336ZM229.719 168.432C230.359 168.432 231.495 168.336 233.127 168.144C234.791 167.952 236.551 167.728 238.407 167.472C240.295 167.184 241.447 167.024 241.863 166.992C243.175 166.8 244.743 166.672 246.567 166.608H247.143C248.327 166.608 249.207 166.912 249.783 167.52C250.391 168.096 250.695 168.784 250.695 169.584C250.695 170.224 250.487 170.8 250.071 171.312C249.655 171.824 249.095 172.144 248.391 172.272C248.231 172.304 247.479 172.368 246.135 172.464C244.823 172.528 243.559 172.624 242.343 172.752C241.127 172.88 240.455 173.008 240.327 173.136C240.071 173.392 240.087 173.84 240.375 174.48C240.567 175.056 240.695 177.376 240.759 181.44C240.759 185.504 241.063 189.04 241.671 192.048C241.735 192.272 241.767 192.56 241.767 192.912C241.767 193.36 241.511 193.84 240.999 194.352C240.295 194.992 239.591 195.312 238.887 195.312C238.119 195.312 237.383 194.96 236.679 194.256C236.231 193.808 235.927 193.344 235.767 192.864C235.639 192.384 235.511 191.472 235.383 190.128C235.223 188.528 235.143 186.304 235.143 183.456V182.4V181.392C235.143 178.768 235.031 176.928 234.807 175.872L234.375 173.952H231.639C230.423 173.952 229.607 173.904 229.191 173.808C228.807 173.712 228.423 173.456 228.039 173.04C227.431 172.496 227.127 171.904 227.127 171.264C227.127 170.592 227.399 169.952 227.943 169.344C228.519 168.736 229.111 168.432 229.719 168.432ZM258.641 168.432C259.281 168.432 260.417 168.336 262.049 168.144C263.713 167.952 265.473 167.728 267.329 167.472C269.217 167.184 270.369 167.024 270.785 166.992C272.097 166.8 273.665 166.672 275.489 166.608H276.065C277.249 166.608 278.129 166.912 278.705 167.52C279.313 168.096 279.617 168.784 279.617 169.584C279.617 170.224 279.409 170.8 278.993 171.312C278.577 171.824 278.017 172.144 277.312 172.272C277.153 172.304 276.401 172.368 275.057 172.464C273.745 172.528 272.481 172.624 271.265 172.752C270.049 172.88 269.377 173.008 269.249 173.136C268.993 173.392 269.009 173.84 269.297 174.48C269.489 175.056 269.617 177.376 269.681 181.44C269.681 185.504 269.985 189.04 270.593 192.048C270.657 192.272 270.689 192.56 270.689 192.912C270.689 193.36 270.433 193.84 269.921 194.352C269.217 194.992 268.513 195.312 267.809 195.312C267.041 195.312 266.305 194.96 265.601 194.256C265.153 193.808 264.849 193.344 264.689 192.864C264.561 192.384 264.433 191.472 264.305 190.128C264.145 188.528 264.065 186.304 264.065 183.456V182.4V181.392C264.065 178.768 263.953 176.928 263.729 175.872L263.297 173.952H260.561C259.345 173.952 258.529 173.904 258.113 173.808C257.729 173.712 257.345 173.456 256.961 173.04C256.353 172.496 256.049 171.904 256.049 171.264C256.049 170.592 256.321 169.952 256.865 169.344C257.441 168.736 258.033 168.432 258.641 168.432ZM296.49 165.072C297.674 164.816 298.538 164.688 299.082 164.688C299.946 164.688 300.634 164.944 301.146 165.456C301.69 165.968 301.962 166.576 301.962 167.28C301.962 167.856 301.77 168.416 301.386 168.96C301.034 169.472 300.538 169.856 299.898 170.112C299.482 170.304 297.978 170.656 295.386 171.168L291.93 171.792L291.45 173.808C291.162 175.184 291.018 176.176 291.018 176.784C291.018 177.488 291.226 177.84 291.642 177.84C291.802 177.84 292.762 177.632 294.522 177.216C296.282 176.8 297.418 176.592 297.93 176.592C298.09 176.592 298.186 176.608 298.218 176.64C299.498 177.056 300.138 177.936 300.138 179.28C300.138 180.24 299.786 180.992 299.082 181.536C298.378 182.048 296.97 182.576 294.858 183.12C293.162 183.568 292.026 183.904 291.45 184.128C290.906 184.352 290.634 184.608 290.634 184.896C290.634 185.056 290.714 185.248 290.874 185.472C291.098 185.824 291.722 186 292.746 186C293.418 186 293.978 185.984 294.426 185.952C294.65 185.952 294.938 185.952 295.29 185.952C295.642 185.92 295.882 185.904 296.01 185.904C296.714 185.904 297.21 185.968 297.498 186.096C297.818 186.192 298.154 186.416 298.506 186.768C299.114 187.376 299.418 188.08 299.418 188.88C299.418 189.52 299.194 190.112 298.746 190.656C298.49 191.008 298.106 191.264 297.594 191.424C297.082 191.552 296.17 191.68 294.858 191.808C293.898 191.904 293.066 191.952 292.362 191.952C290.154 191.952 288.426 191.28 287.178 189.936C285.578 188.304 284.778 185.856 284.778 182.592C284.778 180.864 284.97 178.736 285.354 176.208C285.61 174.672 285.738 173.552 285.738 172.848C285.738 172.336 285.61 171.904 285.354 171.552C285.002 171.072 284.826 170.496 284.826 169.824C284.826 169.056 285.034 168.448 285.45 168C285.93 167.456 287.594 166.896 290.442 166.32C292.042 166 294.058 165.584 296.49 165.072ZM317.408 178.704C317.408 178.352 317.152 177.92 316.64 177.408C316.128 176.896 315.488 176.64 314.72 176.64C314.208 176.64 313.888 176.768 313.76 177.024C313.696 177.152 313.664 177.392 313.664 177.744C313.664 178.448 313.728 179.28 313.856 180.24C314.016 181.2 314.16 181.68 314.288 181.68C314.48 181.68 314.912 181.44 315.584 180.96C316.256 180.48 316.704 180.08 316.928 179.76C317.248 179.344 317.408 178.992 317.408 178.704ZM309.68 172.368C310.576 171.568 311.44 171.056 312.272 170.832C313.104 170.608 313.792 170.496 314.336 170.496C315.136 170.496 316.16 170.688 317.408 171.072C319.2 171.584 320.608 172.56 321.632 174C322.688 175.44 323.216 177.024 323.216 178.752C323.216 180.96 322.4 182.816 320.768 184.32C320.096 184.992 319.76 185.392 319.76 185.52C319.76 185.68 320.432 186.08 321.776 186.72C323.152 187.36 324.656 187.984 326.288 188.592C327.632 189.104 328.672 189.712 329.408 190.416C330.144 191.12 330.512 191.856 330.512 192.624C330.512 193.36 330.192 194.048 329.552 194.688C329.04 195.2 328.544 195.456 328.064 195.456C327.328 195.456 325.072 194.672 321.296 193.104C317.84 191.664 315.968 190.944 315.68 190.944C315.52 190.944 315.44 191.12 315.44 191.472C315.44 191.824 315.504 192.304 315.632 192.912C315.728 193.456 315.776 193.952 315.776 194.4C315.776 195.904 315.072 196.864 313.664 197.28C313.312 197.376 312.992 197.424 312.704 197.424C311.648 197.424 310.784 196.688 310.112 195.216C309.472 193.744 308.784 191.104 308.048 187.296C307.536 184.64 307.28 182.016 307.28 179.424C307.28 177.184 307.488 175.584 307.904 174.624C308.224 173.888 308.816 173.136 309.68 172.368ZM355.029 170.832C355.221 170.8 355.477 170.784 355.797 170.784C356.789 170.784 357.557 171.12 358.101 171.792C358.645 172.464 358.917 173.44 358.917 174.72C358.917 176.832 358.469 178.832 357.573 180.72C356.709 182.576 355.541 184.032 354.069 185.088L352.245 186.432L352.437 188.448C352.757 191.968 352.917 194.256 352.917 195.312C352.917 196.528 352.805 197.408 352.581 197.952C352.357 198.496 351.973 198.96 351.429 199.344C351.045 199.6 350.597 199.728 350.085 199.728C349.317 199.728 348.597 199.376 347.925 198.672C347.413 198.064 347.157 197.12 347.157 195.84C347.157 194.656 347.093 192.848 346.965 190.416L346.725 187.056L344.565 186.432C343.093 186.016 341.893 185.376 340.965 184.512C340.165 183.776 339.109 182.256 337.797 179.952C336.485 177.648 335.829 176.144 335.829 175.44C335.829 174.736 336.165 174.112 336.837 173.568C337.509 173.024 338.229 172.752 338.997 172.752C339.509 172.752 339.957 172.896 340.341 173.184C340.629 173.376 341.413 174.64 342.693 176.976C343.589 178.608 344.197 179.6 344.517 179.952C344.869 180.304 345.557 180.656 346.581 181.008C347.541 181.36 348.213 181.536 348.597 181.536C348.917 181.536 349.381 181.36 349.989 181.008C351.013 180.464 351.749 179.744 352.197 178.848C352.645 177.92 352.869 176.672 352.869 175.104C352.869 173.664 353.029 172.624 353.349 171.984C353.669 171.344 354.229 170.96 355.029 170.832Z" fill="#828282"/>
<path d="M141.206 240.154V238.709H150.505V240.154H146.757V251H145.176V240.154H141.206ZM151.492 251V242.211H152.988V243.902C153.135 243.483 153.342 243.137 153.608 242.865C153.874 242.588 154.178 242.381 154.518 242.245C154.863 242.109 155.22 242.041 155.589 242.041C155.719 242.041 155.846 242.049 155.971 242.067C156.096 242.083 156.192 242.112 156.26 242.151V243.673C156.175 243.633 156.065 243.608 155.929 243.596C155.798 243.579 155.688 243.571 155.597 243.571C155.246 243.548 154.917 243.571 154.611 243.639C154.305 243.701 154.036 243.812 153.804 243.97C153.571 244.129 153.387 244.339 153.251 244.599C153.121 244.854 153.056 245.166 153.056 245.534V251H151.492ZM159.178 253.805C158.662 253.805 158.308 253.768 158.115 253.695C157.923 253.621 157.826 253.584 157.826 253.584V252.564L158.719 252.581C159.047 252.592 159.319 252.57 159.535 252.513C159.75 252.456 159.923 252.38 160.053 252.284C160.184 252.187 160.283 252.08 160.351 251.961C160.424 251.842 160.484 251.728 160.529 251.621L160.835 250.787L157.401 242.211H158.991L161.583 248.994L164.159 242.211H165.697L161.991 251.663C161.765 252.218 161.51 252.652 161.226 252.964C160.949 253.275 160.637 253.493 160.291 253.618C159.951 253.743 159.58 253.805 159.178 253.805ZM171.654 253.805C171.139 253.805 170.784 253.768 170.592 253.695C170.399 253.621 170.303 253.584 170.303 253.584V252.564L171.195 252.581C171.524 252.592 171.796 252.57 172.011 252.513C172.227 252.456 172.399 252.38 172.53 252.284C172.66 252.187 172.759 252.08 172.827 251.961C172.901 251.842 172.96 251.728 173.006 251.621L173.312 250.787L169.878 242.211H171.467L174.06 248.994L176.635 242.211H178.174L174.468 251.663C174.241 252.218 173.986 252.652 173.703 252.964C173.425 253.275 173.113 253.493 172.768 253.618C172.428 253.743 172.057 253.805 171.654 253.805ZM182.86 251.17C182.049 251.17 181.341 250.997 180.735 250.651C180.128 250.3 179.658 249.787 179.324 249.113C178.989 248.439 178.822 247.614 178.822 246.639C178.822 245.721 178.978 244.917 179.29 244.225C179.601 243.534 180.058 242.999 180.658 242.619C181.265 242.234 181.998 242.041 182.86 242.041C183.67 242.041 184.373 242.219 184.968 242.576C185.568 242.928 186.033 243.446 186.362 244.132C186.69 244.818 186.855 245.653 186.855 246.639C186.855 247.535 186.702 248.322 186.396 249.002C186.095 249.682 185.648 250.215 185.053 250.6C184.463 250.98 183.732 251.17 182.86 251.17ZM182.86 249.929C183.387 249.929 183.832 249.796 184.194 249.529C184.557 249.263 184.832 248.881 185.019 248.382C185.206 247.883 185.299 247.291 185.299 246.605C185.299 245.976 185.217 245.413 185.053 244.914C184.888 244.41 184.625 244.01 184.262 243.715C183.905 243.421 183.438 243.273 182.86 243.273C182.327 243.273 181.877 243.407 181.508 243.673C181.14 243.934 180.859 244.313 180.667 244.812C180.48 245.311 180.386 245.908 180.386 246.605C180.386 247.223 180.471 247.784 180.641 248.288C180.811 248.793 181.078 249.192 181.44 249.487C181.803 249.782 182.276 249.929 182.86 249.929ZM191.839 251.17C191.38 251.164 190.947 251.099 190.539 250.974C190.137 250.844 189.78 250.654 189.468 250.405C189.156 250.156 188.91 249.847 188.728 249.478C188.553 249.104 188.465 248.671 188.465 248.178V242.211H190.037V248.016C190.037 248.589 190.213 249.053 190.564 249.41C190.921 249.767 191.457 249.946 192.171 249.946C192.817 249.946 193.335 249.779 193.726 249.444C194.123 249.104 194.321 248.6 194.321 247.931V242.211H195.885V251H194.636L194.474 249.317C194.367 249.759 194.183 250.116 193.922 250.388C193.667 250.66 193.358 250.861 192.995 250.991C192.638 251.116 192.253 251.176 191.839 251.17ZM198.267 251V242.211H199.763V243.902C199.911 243.483 200.118 243.137 200.384 242.865C200.65 242.588 200.953 242.381 201.293 242.245C201.639 242.109 201.996 242.041 202.364 242.041C202.495 242.041 202.622 242.049 202.747 242.067C202.872 242.083 202.968 242.112 203.036 242.151V243.673C202.951 243.633 202.84 243.608 202.704 243.596C202.574 243.579 202.464 243.571 202.373 243.571C202.022 243.548 201.693 243.571 201.387 243.639C201.081 243.701 200.812 243.812 200.579 243.97C200.347 244.129 200.163 244.339 200.027 244.599C199.897 244.854 199.831 245.166 199.831 245.534V251H198.267ZM210.655 251.111C210.179 251.111 209.793 251.045 209.499 250.915C209.21 250.785 208.986 250.609 208.827 250.388C208.674 250.167 208.569 249.915 208.513 249.631C208.462 249.342 208.436 249.045 208.436 248.739V238.369H209.983V248.586C209.983 249.028 210.068 249.359 210.238 249.58C210.414 249.801 210.658 249.923 210.969 249.946L211.445 249.954V250.974C211.315 251.014 211.179 251.045 211.037 251.068C210.896 251.096 210.768 251.111 210.655 251.111ZM216.278 251.17C215.819 251.164 215.385 251.099 214.977 250.974C214.575 250.844 214.218 250.654 213.906 250.405C213.594 250.156 213.348 249.847 213.167 249.478C212.991 249.104 212.903 248.671 212.903 248.178V242.211H214.476V248.016C214.476 248.589 214.651 249.053 215.003 249.41C215.36 249.767 215.895 249.946 216.609 249.946C217.255 249.946 217.774 249.779 218.165 249.444C218.561 249.104 218.76 248.6 218.76 247.931V242.211H220.324V251H219.074L218.913 249.317C218.805 249.759 218.621 250.116 218.36 250.388C218.105 250.66 217.796 250.861 217.434 250.991C217.077 251.116 216.691 251.176 216.278 251.17ZM226.108 242.041C226.737 242.041 227.304 242.163 227.808 242.406C228.312 242.644 228.723 242.984 229.041 243.426C229.364 243.868 229.565 244.39 229.644 244.99H228.25C228.199 244.684 228.08 244.404 227.893 244.149C227.712 243.894 227.471 243.69 227.171 243.537C226.87 243.384 226.519 243.307 226.117 243.307C225.363 243.307 224.751 243.579 224.281 244.123C223.81 244.667 223.575 245.5 223.575 246.622C223.575 247.637 223.79 248.45 224.221 249.062C224.657 249.668 225.298 249.971 226.142 249.971C226.544 249.971 226.893 249.895 227.188 249.742C227.488 249.583 227.729 249.376 227.91 249.121C228.091 248.861 228.208 248.583 228.259 248.288H229.627C229.553 248.878 229.355 249.388 229.032 249.818C228.709 250.249 228.295 250.583 227.791 250.821C227.292 251.054 226.731 251.17 226.108 251.17C225.32 251.17 224.621 250.997 224.009 250.651C223.402 250.306 222.926 249.796 222.581 249.121C222.235 248.447 222.062 247.62 222.062 246.639C222.062 245.721 222.218 244.92 222.53 244.234C222.847 243.543 223.306 243.004 223.907 242.619C224.513 242.234 225.247 242.041 226.108 242.041ZM239.318 251H237.652L234.898 246.588L233.164 248.382V251H231.6V238.369H233.164V246.605L237.295 242.211H239.097L235.927 245.56L239.318 251ZM247.205 251.17C246.638 251.17 246.137 251.071 245.7 250.872C245.264 250.668 244.921 250.377 244.672 249.997C244.428 249.617 244.306 249.158 244.306 248.62C244.306 247.645 244.646 246.92 245.326 246.444C246.006 245.968 247.097 245.713 248.599 245.679L250.171 245.636V244.948C250.171 244.41 250.01 243.985 249.687 243.673C249.364 243.356 248.862 243.197 248.182 243.197C247.678 243.203 247.233 243.322 246.848 243.554C246.468 243.786 246.222 244.166 246.108 244.693H244.723C244.757 244.121 244.918 243.639 245.207 243.248C245.496 242.851 245.899 242.551 246.414 242.347C246.936 242.143 247.55 242.041 248.259 242.041C249.024 242.041 249.658 242.149 250.163 242.364C250.673 242.579 251.052 242.897 251.302 243.316C251.557 243.735 251.684 244.251 251.684 244.863V251H250.341L250.231 249.351C249.891 250.037 249.457 250.513 248.93 250.779C248.409 251.04 247.834 251.17 247.205 251.17ZM247.681 250.039C247.975 250.039 248.267 249.986 248.556 249.878C248.851 249.77 249.12 249.626 249.364 249.444C249.607 249.257 249.8 249.051 249.942 248.824C250.089 248.592 250.166 248.354 250.171 248.11V246.605L248.862 246.631C248.194 246.642 247.633 246.71 247.179 246.835C246.732 246.96 246.394 247.155 246.168 247.421C245.947 247.688 245.836 248.036 245.836 248.467C245.836 248.96 246.006 249.345 246.346 249.623C246.692 249.901 247.137 250.039 247.681 250.039ZM254.199 251V242.211H255.721V243.486C255.863 243.242 256.058 243.013 256.307 242.797C256.562 242.582 256.868 242.409 257.225 242.279C257.588 242.149 258.005 242.083 258.475 242.083C259.03 242.083 259.54 242.194 260.005 242.415C260.475 242.636 260.849 242.982 261.127 243.452C261.41 243.917 261.552 244.517 261.552 245.254V251H259.979V245.407C259.979 244.721 259.798 244.214 259.435 243.885C259.078 243.551 258.614 243.384 258.041 243.384C257.645 243.384 257.274 243.449 256.928 243.579C256.582 243.704 256.302 243.897 256.086 244.157C255.871 244.412 255.763 244.735 255.763 245.126V251H254.199ZM267.011 251.17C265.872 251.17 264.969 250.779 264.3 249.997C263.631 249.215 263.297 248.073 263.297 246.571C263.297 245.659 263.43 244.863 263.696 244.183C263.968 243.503 264.371 242.976 264.903 242.602C265.436 242.228 266.099 242.041 266.892 242.041C267.312 242.041 267.683 242.095 268.006 242.202C268.335 242.31 268.618 242.446 268.856 242.61C269.094 242.775 269.287 242.945 269.434 243.12C269.587 243.296 269.7 243.458 269.774 243.605V238.369H271.355V251H270.156L269.986 249.198C269.93 249.368 269.839 249.566 269.714 249.793C269.59 250.014 269.414 250.232 269.187 250.447C268.961 250.657 268.669 250.83 268.312 250.966C267.961 251.102 267.527 251.17 267.011 251.17ZM267.292 249.963C268.182 249.963 268.816 249.694 269.196 249.155C269.581 248.611 269.774 247.725 269.774 246.495C269.768 245.809 269.68 245.226 269.51 244.744C269.346 244.262 269.085 243.897 268.728 243.647C268.377 243.392 267.91 243.265 267.326 243.265C266.601 243.265 266.011 243.523 265.558 244.038C265.105 244.554 264.878 245.373 264.878 246.495C264.878 247.594 265.082 248.447 265.49 249.053C265.904 249.66 266.504 249.963 267.292 249.963ZM288.99 242.211L286.329 251H284.782L282.776 244.514L280.872 251H279.334L276.622 242.211H278.076L280.09 248.968H280.226L282.207 242.211H283.397L285.454 248.951H285.59L287.519 242.211H288.99ZM292.307 242.211V251H290.786V242.211H292.307ZM292.341 238.717V240.349H290.735V238.717H292.341ZM295.003 251V242.211H296.524V243.486C296.666 243.242 296.861 243.013 297.111 242.797C297.366 242.582 297.672 242.409 298.029 242.279C298.391 242.149 298.808 242.083 299.278 242.083C299.834 242.083 300.344 242.194 300.808 242.415C301.279 242.636 301.653 242.982 301.93 243.452C302.214 243.917 302.355 244.517 302.355 245.254V251H300.783V245.407C300.783 244.721 300.601 244.214 300.239 243.885C299.882 243.551 299.417 243.384 298.845 243.384C298.448 243.384 298.077 243.449 297.731 243.579C297.386 243.704 297.105 243.897 296.89 244.157C296.674 244.412 296.567 244.735 296.567 245.126V251H295.003ZM311.512 251.17C310.9 251.17 310.33 251.077 309.803 250.889C309.282 250.697 308.848 250.399 308.503 249.997C308.157 249.589 307.939 249.07 307.848 248.441H309.276C309.356 248.787 309.497 249.076 309.701 249.308C309.911 249.535 310.172 249.708 310.483 249.827C310.795 249.94 311.135 249.997 311.503 249.997C312.093 249.997 312.569 249.886 312.931 249.665C313.294 249.444 313.475 249.104 313.475 248.645C313.475 248.322 313.379 248.065 313.186 247.872C312.999 247.674 312.707 247.529 312.311 247.438L310.492 246.988C309.783 246.818 309.217 246.552 308.792 246.189C308.367 245.826 308.154 245.319 308.154 244.667C308.149 244.152 308.27 243.698 308.52 243.307C308.769 242.916 309.143 242.608 309.642 242.381C310.14 242.154 310.761 242.041 311.503 242.041C312.455 242.041 313.223 242.256 313.807 242.687C314.396 243.112 314.702 243.738 314.725 244.565H313.339C313.283 244.146 313.093 243.815 312.77 243.571C312.452 243.322 312.025 243.197 311.486 243.197C310.925 243.197 310.469 243.31 310.118 243.537C309.766 243.758 309.591 244.104 309.591 244.574C309.591 244.886 309.715 245.132 309.965 245.313C310.214 245.489 310.582 245.636 311.07 245.755L312.829 246.198C313.237 246.305 313.572 246.447 313.832 246.622C314.099 246.798 314.308 246.994 314.461 247.209C314.62 247.424 314.73 247.651 314.793 247.889C314.861 248.121 314.895 248.345 314.895 248.56C314.895 249.099 314.759 249.563 314.487 249.954C314.22 250.34 313.835 250.64 313.331 250.855C312.832 251.065 312.226 251.17 311.512 251.17ZM320.415 251.17C319.605 251.17 318.896 250.997 318.29 250.651C317.684 250.3 317.213 249.787 316.879 249.113C316.545 248.439 316.378 247.614 316.378 246.639C316.378 245.721 316.533 244.917 316.845 244.225C317.157 243.534 317.613 242.999 318.214 242.619C318.82 242.234 319.554 242.041 320.415 242.041C321.225 242.041 321.928 242.219 322.523 242.576C323.124 242.928 323.588 243.446 323.917 244.132C324.246 244.818 324.41 245.653 324.41 246.639C324.41 247.535 324.257 248.322 323.951 249.002C323.651 249.682 323.203 250.215 322.608 250.6C322.019 250.98 321.288 251.17 320.415 251.17ZM320.415 249.929C320.942 249.929 321.387 249.796 321.75 249.529C322.112 249.263 322.387 248.881 322.574 248.382C322.761 247.883 322.855 247.291 322.855 246.605C322.855 245.976 322.772 245.413 322.608 244.914C322.444 244.41 322.18 244.01 321.818 243.715C321.461 243.421 320.993 243.273 320.415 243.273C319.882 243.273 319.432 243.407 319.064 243.673C318.695 243.934 318.415 244.313 318.222 244.812C318.035 245.311 317.942 245.908 317.942 246.605C317.942 247.223 318.027 247.784 318.197 248.288C318.367 248.793 318.633 249.192 318.996 249.487C319.358 249.782 319.831 249.929 320.415 249.929ZM326.297 251V242.211H327.81V243.486C328.054 243.101 328.388 242.763 328.813 242.474C329.238 242.185 329.791 242.041 330.471 242.041C330.788 242.041 331.111 242.095 331.44 242.202C331.774 242.31 332.08 242.472 332.358 242.687C332.636 242.902 332.851 243.166 333.004 243.477C333.276 243.047 333.644 242.701 334.109 242.44C334.574 242.174 335.098 242.041 335.681 242.041C335.987 242.041 336.308 242.089 336.642 242.185C336.976 242.276 337.285 242.44 337.568 242.678C337.857 242.911 338.093 243.237 338.274 243.656C338.455 244.07 338.546 244.602 338.546 245.254V251H336.965V245.407C336.965 244.874 336.88 244.463 336.71 244.174C336.54 243.88 336.316 243.673 336.038 243.554C335.766 243.435 335.475 243.375 335.163 243.375C334.891 243.375 334.602 243.429 334.296 243.537C333.99 243.645 333.729 243.826 333.514 244.081C333.299 244.336 333.191 244.684 333.191 245.126V251H331.627V244.948C331.627 244.602 331.533 244.313 331.346 244.081C331.165 243.849 330.936 243.673 330.658 243.554C330.386 243.435 330.114 243.375 329.842 243.375C329.542 243.375 329.238 243.435 328.932 243.554C328.632 243.673 328.377 243.863 328.167 244.123C327.963 244.378 327.861 244.713 327.861 245.126V251H326.297ZM341.958 246.971C341.958 247.526 342.049 248.031 342.23 248.484C342.417 248.932 342.698 249.289 343.072 249.555C343.452 249.821 343.925 249.954 344.491 249.954C345.052 249.954 345.534 249.824 345.936 249.563C346.344 249.303 346.605 248.926 346.718 248.433H348.206C348.098 249.028 347.86 249.529 347.492 249.938C347.124 250.345 346.679 250.654 346.157 250.864C345.636 251.068 345.092 251.17 344.525 251.17C343.704 251.17 342.981 250.992 342.358 250.634C341.735 250.277 341.247 249.765 340.896 249.096C340.545 248.427 340.369 247.625 340.369 246.69C340.369 245.767 340.528 244.956 340.845 244.259C341.162 243.562 341.621 243.018 342.222 242.627C342.828 242.236 343.556 242.041 344.406 242.041C345.234 242.041 345.934 242.219 346.506 242.576C347.078 242.933 347.512 243.438 347.806 244.089C348.107 244.735 348.257 245.503 348.257 246.393V246.971H341.958ZM341.967 245.908H346.744C346.744 245.404 346.659 244.951 346.489 244.548C346.319 244.14 346.058 243.82 345.707 243.588C345.361 243.35 344.925 243.231 344.398 243.231C343.848 243.231 343.392 243.364 343.029 243.63C342.672 243.891 342.403 244.228 342.222 244.642C342.046 245.05 341.961 245.472 341.967 245.908ZM354.429 243.358H352.448V248.824C352.448 249.136 352.479 249.365 352.542 249.512C352.61 249.654 352.72 249.745 352.873 249.784C353.032 249.824 353.247 249.844 353.519 249.844H354.48V250.898C354.372 250.938 354.208 250.972 353.987 251C353.771 251.028 353.502 251.043 353.179 251.043C352.573 251.043 352.102 250.96 351.768 250.796C351.434 250.632 351.199 250.388 351.063 250.065C350.932 249.742 350.867 249.345 350.867 248.875V243.358H349.439V242.211H350.91L351.292 239.652H352.448V242.202H354.429V243.358ZM356.517 251V238.369H358.047V243.503C358.194 243.259 358.393 243.033 358.642 242.823C358.891 242.608 359.194 242.435 359.551 242.304C359.908 242.168 360.322 242.1 360.792 242.1C361.365 242.1 361.883 242.208 362.348 242.423C362.813 242.633 363.181 242.933 363.453 243.324C363.725 243.715 363.861 244.18 363.861 244.718V251H362.288V245.033C362.288 244.506 362.107 244.101 361.744 243.817C361.387 243.528 360.92 243.384 360.342 243.384C359.951 243.384 359.583 243.449 359.237 243.579C358.891 243.704 358.611 243.897 358.395 244.157C358.186 244.412 358.081 244.738 358.081 245.135V251H356.517ZM367.842 242.211V251H366.32V242.211H367.842ZM367.876 238.717V240.349H366.269V238.717H367.876ZM370.537 251V242.211H372.059V243.486C372.2 243.242 372.396 243.013 372.645 242.797C372.9 242.582 373.206 242.409 373.563 242.279C373.926 242.149 374.342 242.083 374.813 242.083C375.368 242.083 375.878 242.194 376.343 242.415C376.813 242.636 377.187 242.982 377.465 243.452C377.748 243.917 377.89 244.517 377.89 245.254V251H376.317V245.407C376.317 244.721 376.136 244.214 375.773 243.885C375.416 243.551 374.952 243.384 374.379 243.384C373.983 243.384 373.611 243.449 373.266 243.579C372.92 243.704 372.64 243.897 372.424 244.157C372.209 244.412 372.101 244.735 372.101 245.126V251H370.537ZM383.885 253.907C382.502 253.907 381.425 253.706 380.655 253.304C379.89 252.907 379.507 252.337 379.507 251.595C379.507 251.278 379.581 251.009 379.728 250.787C379.876 250.561 380.051 250.374 380.255 250.226C380.459 250.079 380.649 249.963 380.825 249.878C381 249.787 381.114 249.722 381.165 249.682C381.068 249.626 380.947 249.555 380.799 249.47C380.658 249.385 380.533 249.272 380.425 249.13C380.318 248.988 380.264 248.804 380.264 248.577C380.264 248.3 380.394 248.045 380.655 247.812C380.915 247.58 381.301 247.407 381.811 247.294C381.295 247.033 380.893 246.688 380.604 246.257C380.315 245.826 380.17 245.359 380.17 244.854C380.17 244.288 380.323 243.795 380.629 243.375C380.941 242.956 381.383 242.636 381.955 242.415C382.528 242.188 383.208 242.075 383.995 242.075C384.568 242.075 385.049 242.143 385.44 242.279C385.831 242.409 386.194 242.596 386.528 242.84C386.619 242.8 386.761 242.741 386.953 242.661C387.152 242.576 387.37 242.486 387.608 242.389C387.846 242.293 388.067 242.202 388.271 242.117C388.48 242.027 388.648 241.959 388.772 241.913L388.764 243.367L387.225 243.656C387.31 243.837 387.378 244.036 387.429 244.251C387.486 244.466 387.514 244.667 387.514 244.854C387.514 245.37 387.378 245.838 387.106 246.257C386.84 246.676 386.435 247.011 385.891 247.26C385.347 247.509 384.667 247.634 383.851 247.634C383.783 247.634 383.695 247.634 383.587 247.634C383.485 247.628 383.397 247.623 383.324 247.617C382.723 247.634 382.309 247.702 382.083 247.821C381.856 247.934 381.743 248.062 381.743 248.203C381.743 248.368 381.87 248.481 382.125 248.543C382.38 248.606 382.814 248.66 383.426 248.705C383.647 248.716 383.919 248.73 384.242 248.747C384.57 248.764 384.933 248.787 385.33 248.816C386.253 248.872 386.965 249.107 387.463 249.521C387.962 249.935 388.211 250.493 388.211 251.196C388.211 251.995 387.854 252.646 387.14 253.151C386.426 253.655 385.341 253.907 383.885 253.907ZM384.165 252.896C384.976 252.896 385.596 252.774 386.027 252.53C386.457 252.286 386.673 251.918 386.673 251.425C386.673 251.074 386.54 250.787 386.273 250.566C386.013 250.34 385.613 250.209 385.075 250.175L382.61 250.014C382.389 250.003 382.159 250.059 381.921 250.184C381.683 250.303 381.479 250.47 381.309 250.685C381.145 250.901 381.063 251.145 381.063 251.417C381.063 251.881 381.315 252.244 381.819 252.505C382.329 252.765 383.111 252.896 384.165 252.896ZM383.893 246.622C384.528 246.622 385.038 246.475 385.423 246.18C385.814 245.886 386.01 245.449 386.01 244.871C386.01 244.276 385.814 243.823 385.423 243.511C385.038 243.2 384.528 243.044 383.893 243.044C383.253 243.044 382.734 243.203 382.338 243.52C381.947 243.832 381.751 244.282 381.751 244.871C381.751 245.427 381.938 245.857 382.312 246.163C382.686 246.469 383.213 246.622 383.893 246.622ZM183.825 275.17C183.014 275.17 182.306 274.997 181.7 274.651C181.093 274.3 180.623 273.787 180.289 273.113C179.954 272.439 179.787 271.614 179.787 270.639C179.787 269.721 179.943 268.917 180.255 268.225C180.566 267.534 181.022 266.999 181.623 266.619C182.229 266.234 182.963 266.041 183.825 266.041C184.635 266.041 185.338 266.219 185.933 266.576C186.533 266.928 186.998 267.446 187.327 268.132C187.655 268.818 187.82 269.653 187.82 270.639C187.82 271.535 187.667 272.322 187.361 273.002C187.06 273.682 186.613 274.215 186.018 274.6C185.428 274.98 184.697 275.17 183.825 275.17ZM183.825 273.929C184.352 273.929 184.796 273.796 185.159 273.529C185.522 273.263 185.797 272.881 185.984 272.382C186.171 271.883 186.264 271.291 186.264 270.605C186.264 269.976 186.182 269.413 186.018 268.914C185.853 268.41 185.59 268.01 185.227 267.715C184.87 267.421 184.403 267.273 183.825 267.273C183.292 267.273 182.841 267.407 182.473 267.673C182.105 267.934 181.824 268.313 181.632 268.812C181.445 269.311 181.351 269.908 181.351 270.605C181.351 271.223 181.436 271.784 181.606 272.288C181.776 272.793 182.042 273.192 182.405 273.487C182.768 273.782 183.241 273.929 183.825 273.929ZM193.89 267.358H191.91V272.824C191.91 273.136 191.941 273.365 192.003 273.512C192.071 273.654 192.182 273.745 192.335 273.784C192.493 273.824 192.709 273.844 192.981 273.844H193.941V274.898C193.833 274.938 193.669 274.972 193.448 275C193.233 275.028 192.964 275.043 192.641 275.043C192.034 275.043 191.564 274.96 191.23 274.796C190.895 274.632 190.66 274.388 190.524 274.065C190.394 273.742 190.329 273.345 190.329 272.875V267.358H188.901V266.211H190.371L190.754 263.652H191.91V266.202H193.89V267.358ZM195.978 275V262.369H197.508V267.503C197.656 267.259 197.854 267.033 198.103 266.823C198.353 266.608 198.656 266.435 199.013 266.304C199.37 266.168 199.784 266.1 200.254 266.1C200.826 266.1 201.345 266.208 201.809 266.423C202.274 266.633 202.642 266.933 202.914 267.324C203.186 267.715 203.322 268.18 203.322 268.718V275H201.75V269.033C201.75 268.506 201.569 268.101 201.206 267.817C200.849 267.528 200.381 267.384 199.803 267.384C199.412 267.384 199.044 267.449 198.698 267.579C198.353 267.704 198.072 267.897 197.857 268.157C197.647 268.412 197.542 268.738 197.542 269.135V275H195.978ZM206.725 270.971C206.725 271.526 206.816 272.031 206.997 272.484C207.184 272.932 207.465 273.289 207.839 273.555C208.219 273.821 208.692 273.954 209.258 273.954C209.819 273.954 210.301 273.824 210.703 273.563C211.111 273.303 211.372 272.926 211.485 272.433H212.973C212.865 273.028 212.627 273.529 212.259 273.938C211.891 274.345 211.446 274.654 210.924 274.864C210.403 275.068 209.859 275.17 209.292 275.17C208.471 275.17 207.748 274.992 207.125 274.634C206.502 274.277 206.014 273.765 205.663 273.096C205.312 272.427 205.136 271.625 205.136 270.69C205.136 269.767 205.295 268.956 205.612 268.259C205.929 267.562 206.388 267.018 206.989 266.627C207.595 266.236 208.323 266.041 209.173 266.041C210.001 266.041 210.701 266.219 211.273 266.576C211.845 266.933 212.279 267.438 212.573 268.089C212.874 268.735 213.024 269.503 213.024 270.393V270.971H206.725ZM206.734 269.908H211.511C211.511 269.404 211.426 268.951 211.256 268.548C211.086 268.14 210.825 267.82 210.474 267.588C210.128 267.35 209.692 267.231 209.165 267.231C208.615 267.231 208.159 267.364 207.796 267.63C207.439 267.891 207.17 268.228 206.989 268.642C206.813 269.05 206.728 269.472 206.734 269.908ZM215.012 275V266.211H216.508V267.902C216.656 267.483 216.863 267.137 217.129 266.865C217.395 266.588 217.698 266.381 218.038 266.245C218.384 266.109 218.741 266.041 219.109 266.041C219.24 266.041 219.367 266.049 219.492 266.067C219.617 266.083 219.713 266.112 219.781 266.151V267.673C219.696 267.633 219.585 267.608 219.449 267.596C219.319 267.579 219.209 267.571 219.118 267.571C218.767 267.548 218.438 267.571 218.132 267.639C217.826 267.701 217.557 267.812 217.324 267.97C217.092 268.129 216.908 268.339 216.772 268.599C216.642 268.854 216.576 269.166 216.576 269.534V275H215.012ZM229.663 267.358H227.683V272.824C227.683 273.136 227.714 273.365 227.776 273.512C227.844 273.654 227.955 273.745 228.108 273.784C228.266 273.824 228.482 273.844 228.754 273.844H229.714V274.898C229.606 274.938 229.442 274.972 229.221 275C229.006 275.028 228.737 275.043 228.414 275.043C227.807 275.043 227.337 274.96 227.003 274.796C226.668 274.632 226.433 274.388 226.297 274.065C226.167 273.742 226.102 273.345 226.102 272.875V267.358H224.674V266.211H226.144L226.527 263.652H227.683V266.202H229.663V267.358ZM231.752 275V262.369H233.282V267.503C233.429 267.259 233.627 267.033 233.877 266.823C234.126 266.608 234.429 266.435 234.786 266.304C235.143 266.168 235.557 266.1 236.027 266.1C236.599 266.1 237.118 266.208 237.583 266.423C238.047 266.633 238.416 266.933 238.688 267.324C238.96 267.715 239.096 268.18 239.096 268.718V275H237.523V269.033C237.523 268.506 237.342 268.101 236.979 267.817C236.622 267.528 236.155 267.384 235.577 267.384C235.186 267.384 234.817 267.449 234.472 267.579C234.126 267.704 233.845 267.897 233.63 268.157C233.42 268.412 233.316 268.738 233.316 269.135V275H231.752ZM243.774 275.17C243.208 275.17 242.706 275.071 242.27 274.872C241.833 274.668 241.491 274.377 241.241 273.997C240.998 273.617 240.876 273.158 240.876 272.62C240.876 271.645 241.216 270.92 241.896 270.444C242.576 269.968 243.667 269.713 245.168 269.679L246.741 269.636V268.948C246.741 268.41 246.579 267.985 246.256 267.673C245.933 267.356 245.432 267.197 244.752 267.197C244.247 267.203 243.803 267.322 243.417 267.554C243.038 267.786 242.791 268.166 242.678 268.693H241.292C241.326 268.121 241.488 267.639 241.777 267.248C242.066 266.851 242.468 266.551 242.984 266.347C243.505 266.143 244.12 266.041 244.828 266.041C245.593 266.041 246.228 266.149 246.732 266.364C247.242 266.579 247.622 266.897 247.871 267.316C248.126 267.735 248.254 268.251 248.254 268.863V275H246.911L246.8 273.351C246.46 274.037 246.027 274.513 245.5 274.779C244.978 275.04 244.403 275.17 243.774 275.17ZM244.25 274.039C244.545 274.039 244.837 273.986 245.126 273.878C245.42 273.77 245.69 273.626 245.933 273.444C246.177 273.257 246.37 273.051 246.511 272.824C246.659 272.592 246.735 272.354 246.741 272.11V270.605L245.432 270.631C244.763 270.642 244.202 270.71 243.749 270.835C243.301 270.96 242.964 271.155 242.737 271.421C242.516 271.688 242.406 272.036 242.406 272.467C242.406 272.96 242.576 273.345 242.916 273.623C243.261 273.901 243.706 274.039 244.25 274.039ZM250.769 275V266.211H252.29V267.486C252.432 267.242 252.628 267.013 252.877 266.797C253.132 266.582 253.438 266.409 253.795 266.279C254.158 266.149 254.574 266.083 255.044 266.083C255.6 266.083 256.11 266.194 256.574 266.415C257.045 266.636 257.419 266.982 257.696 267.452C257.98 267.917 258.121 268.517 258.121 269.254V275H256.549V269.407C256.549 268.721 256.368 268.214 256.005 267.885C255.648 267.551 255.183 267.384 254.611 267.384C254.214 267.384 253.843 267.449 253.497 267.579C253.152 267.704 252.871 267.897 252.656 268.157C252.441 268.412 252.333 268.735 252.333 269.126V275H250.769ZM265.977 275.391C265.977 276.213 265.799 276.822 265.442 277.219C265.091 277.621 264.467 277.822 263.572 277.822C263.09 277.822 262.787 277.788 262.662 277.72C262.532 277.652 262.467 277.618 262.467 277.618V276.573L263.334 276.53C263.731 276.502 264.008 276.397 264.167 276.216C264.326 276.034 264.405 275.742 264.405 275.34V266.211H265.977V275.391ZM266.02 262.717V264.349H264.354V262.717H266.02ZM271.684 275.17C271.225 275.164 270.792 275.099 270.384 274.974C269.981 274.844 269.624 274.654 269.313 274.405C269.001 274.156 268.755 273.847 268.573 273.478C268.398 273.104 268.31 272.671 268.31 272.178V266.211H269.882V272.016C269.882 272.589 270.058 273.053 270.409 273.41C270.766 273.767 271.302 273.946 272.016 273.946C272.662 273.946 273.18 273.779 273.571 273.444C273.968 273.104 274.166 272.6 274.166 271.931V266.211H275.73V275H274.481L274.319 273.317C274.212 273.759 274.027 274.116 273.767 274.388C273.512 274.66 273.203 274.861 272.84 274.991C272.483 275.116 272.098 275.176 271.684 275.17ZM281.132 275.17C280.52 275.17 279.951 275.077 279.424 274.889C278.902 274.697 278.469 274.399 278.123 273.997C277.778 273.589 277.559 273.07 277.469 272.441H278.897C278.976 272.787 279.118 273.076 279.322 273.308C279.531 273.535 279.792 273.708 280.104 273.827C280.415 273.94 280.755 273.997 281.124 273.997C281.713 273.997 282.189 273.886 282.552 273.665C282.914 273.444 283.096 273.104 283.096 272.645C283.096 272.322 282.999 272.065 282.807 271.872C282.62 271.674 282.328 271.529 281.931 271.438L280.112 270.988C279.404 270.818 278.837 270.552 278.412 270.189C277.987 269.826 277.775 269.319 277.775 268.667C277.769 268.152 277.891 267.698 278.14 267.307C278.39 266.916 278.764 266.608 279.262 266.381C279.761 266.154 280.381 266.041 281.124 266.041C282.076 266.041 282.844 266.256 283.427 266.687C284.017 267.112 284.323 267.738 284.345 268.565H282.96C282.903 268.146 282.713 267.815 282.39 267.571C282.073 267.322 281.645 267.197 281.107 267.197C280.546 267.197 280.09 267.31 279.738 267.537C279.387 267.758 279.211 268.104 279.211 268.574C279.211 268.886 279.336 269.132 279.585 269.313C279.835 269.489 280.203 269.636 280.69 269.755L282.45 270.198C282.858 270.305 283.192 270.447 283.453 270.622C283.719 270.798 283.929 270.994 284.082 271.209C284.24 271.424 284.351 271.651 284.413 271.889C284.481 272.121 284.515 272.345 284.515 272.56C284.515 273.099 284.379 273.563 284.107 273.954C283.841 274.34 283.456 274.64 282.951 274.855C282.453 275.065 281.846 275.17 281.132 275.17ZM290.808 267.358H288.828V272.824C288.828 273.136 288.859 273.365 288.921 273.512C288.989 273.654 289.1 273.745 289.253 273.784C289.411 273.824 289.627 273.844 289.899 273.844H290.859V274.898C290.751 274.938 290.587 274.972 290.366 275C290.151 275.028 289.882 275.043 289.559 275.043C288.952 275.043 288.482 274.96 288.148 274.796C287.813 274.632 287.578 274.388 287.442 274.065C287.312 273.742 287.247 273.345 287.247 272.875V267.358H285.819V266.211H287.289L287.672 263.652H288.828V266.202H290.808V267.358ZM299.075 275.17C298.509 275.17 298.007 275.071 297.571 274.872C297.135 274.668 296.792 274.377 296.542 273.997C296.299 273.617 296.177 273.158 296.177 272.62C296.177 271.645 296.517 270.92 297.197 270.444C297.877 269.968 298.968 269.713 300.469 269.679L302.042 269.636V268.948C302.042 268.41 301.88 267.985 301.557 267.673C301.234 267.356 300.733 267.197 300.053 267.197C299.549 267.203 299.104 267.322 298.718 267.554C298.339 267.786 298.092 268.166 297.979 268.693H296.593C296.627 268.121 296.789 267.639 297.078 267.248C297.367 266.851 297.769 266.551 298.285 266.347C298.806 266.143 299.421 266.041 300.129 266.041C300.894 266.041 301.529 266.149 302.033 266.364C302.543 266.579 302.923 266.897 303.172 267.316C303.427 267.735 303.555 268.251 303.555 268.863V275H302.212L302.101 273.351C301.761 274.037 301.328 274.513 300.801 274.779C300.28 275.04 299.704 275.17 299.075 275.17ZM299.551 274.039C299.846 274.039 300.138 273.986 300.427 273.878C300.722 273.77 300.991 273.626 301.234 273.444C301.478 273.257 301.671 273.051 301.812 272.824C301.96 272.592 302.036 272.354 302.042 272.11V270.605L300.733 270.631C300.064 270.642 299.503 270.71 299.05 270.835C298.602 270.96 298.265 271.155 298.038 271.421C297.817 271.688 297.707 272.036 297.707 272.467C297.707 272.96 297.877 273.345 298.217 273.623C298.563 273.901 299.007 274.039 299.551 274.039ZM306.07 275V266.211H307.592V267.486C307.733 267.242 307.929 267.013 308.178 266.797C308.433 266.582 308.739 266.409 309.096 266.279C309.459 266.149 309.875 266.083 310.346 266.083C310.901 266.083 311.411 266.194 311.876 266.415C312.346 266.636 312.72 266.982 312.998 267.452C313.281 267.917 313.423 268.517 313.423 269.254V275H311.85V269.407C311.85 268.721 311.669 268.214 311.306 267.885C310.949 267.551 310.484 267.384 309.912 267.384C309.515 267.384 309.144 267.449 308.799 267.579C308.453 267.704 308.172 267.897 307.957 268.157C307.742 268.412 307.634 268.735 307.634 269.126V275H306.07ZM323.956 275.17C323.378 275.17 322.817 275.099 322.273 274.957C321.729 274.81 321.236 274.592 320.794 274.303C320.352 274.014 319.984 273.657 319.689 273.232C319.4 272.801 319.219 272.303 319.145 271.736H320.794C320.896 272.201 321.097 272.592 321.398 272.909C321.704 273.226 322.075 273.464 322.511 273.623C322.953 273.782 323.432 273.861 323.948 273.861C324.526 273.861 325.041 273.782 325.495 273.623C325.954 273.459 326.313 273.226 326.574 272.926C326.84 272.626 326.974 272.266 326.974 271.846C326.974 271.478 326.889 271.158 326.719 270.886C326.554 270.614 326.313 270.387 325.996 270.206C325.679 270.025 325.293 269.883 324.84 269.781L322.426 269.22C321.519 269.022 320.808 268.667 320.293 268.157C319.783 267.647 319.522 266.973 319.511 266.134C319.511 265.426 319.698 264.803 320.072 264.264C320.451 263.726 320.97 263.307 321.627 263.006C322.29 262.706 323.047 262.556 323.897 262.556C324.877 262.556 325.701 262.723 326.37 263.057C327.039 263.392 327.543 263.831 327.883 264.375C328.223 264.919 328.396 265.5 328.402 266.117H326.778C326.727 265.562 326.563 265.123 326.285 264.8C326.013 264.471 325.67 264.239 325.257 264.103C324.843 263.961 324.392 263.89 323.905 263.89C323.554 263.89 323.214 263.936 322.885 264.026C322.562 264.111 322.27 264.242 322.01 264.417C321.755 264.593 321.551 264.811 321.398 265.072C321.245 265.333 321.168 265.636 321.168 265.981C321.168 266.423 321.318 266.783 321.619 267.061C321.925 267.339 322.477 267.577 323.276 267.775L325.614 268.336C326.226 268.466 326.724 268.659 327.11 268.914C327.501 269.169 327.801 269.458 328.011 269.781C328.226 270.104 328.373 270.441 328.453 270.792C328.538 271.144 328.58 271.489 328.58 271.829C328.58 272.447 328.396 273.011 328.028 273.521C327.659 274.025 327.129 274.428 326.438 274.728C325.752 275.023 324.925 275.17 323.956 275.17ZM329.553 264.154V262.709H338.852V264.154H335.103V275H333.522V264.154H329.553ZM340.709 262.709C340.749 262.709 340.868 262.712 341.066 262.717C341.27 262.717 341.517 262.717 341.806 262.717C342.095 262.712 342.395 262.712 342.707 262.717C343.018 262.717 343.304 262.72 343.565 262.726C345.072 262.749 346.294 262.995 347.229 263.465C348.169 263.93 348.858 264.607 349.294 265.497C349.736 266.387 349.957 267.48 349.957 268.778C349.957 270.138 349.719 271.28 349.243 272.203C348.773 273.127 348.053 273.824 347.084 274.294C346.121 274.765 344.894 275 343.404 275H340.709V262.709ZM342.324 264.06V273.648H343.404C344.418 273.648 345.291 273.493 346.022 273.181C346.753 272.864 347.314 272.351 347.705 271.642C348.101 270.934 348.3 269.988 348.3 268.803C348.3 267.619 348.107 266.681 347.722 265.99C347.342 265.299 346.792 264.806 346.073 264.511C345.353 264.211 344.486 264.06 343.472 264.06H342.324ZM353.729 273.019V275H351.859V273.019H353.729ZM353.737 262.709L353.329 271.88H352.275L351.859 262.709H353.737Z" fill="#828282"/>
<path d="M213.033 330.54C213.167 330.5 213.333 330.48 213.533 330.48C214.267 330.48 215.047 330.66 215.873 331.02C216.727 331.393 217.153 331.827 217.153 332.32C217.153 332.587 217.033 332.873 216.793 333.18C216.58 333.473 216.247 333.62 215.793 333.62C215.433 333.62 215.053 333.533 214.653 333.36C214.293 333.227 213.967 333.16 213.673 333.16C213.153 333.16 212.66 333.293 212.193 333.56C211.74 333.827 211.4 334.187 211.173 334.64C211.013 334.933 210.933 335.393 210.933 336.02C210.933 336.46 210.973 336.76 211.053 336.92C211.133 337.067 211.367 337.327 211.753 337.7C212.5 338.407 213.327 338.76 214.233 338.76C214.38 338.76 214.613 338.747 214.933 338.72C215.12 338.693 215.333 338.68 215.573 338.68C215.853 338.68 216.093 338.78 216.293 338.98C216.52 339.207 216.633 339.493 216.633 339.84C216.633 340.24 216.487 340.58 216.193 340.86C216.007 341.047 215.8 341.16 215.573 341.2C215.36 341.24 214.887 341.26 214.153 341.26C213.433 341.26 212.927 341.233 212.633 341.18C212.353 341.127 212 340.993 211.573 340.78C210.453 340.233 209.52 339.393 208.773 338.26C208.587 337.993 208.467 337.767 208.413 337.58C208.36 337.38 208.333 337.06 208.333 336.62C208.333 336.567 208.333 336.467 208.333 336.32C208.347 336.173 208.353 336.053 208.353 335.96C208.367 335.213 208.4 334.7 208.453 334.42C208.52 334.14 208.68 333.76 208.933 333.28C209.347 332.507 209.84 331.933 210.413 331.56C210.987 331.173 211.86 330.833 213.033 330.54ZM224.59 335.4C224.376 335.213 224.21 335.12 224.09 335.12C223.943 335.12 223.696 335.32 223.35 335.72C223.016 336.107 222.683 336.58 222.35 337.14C222.003 337.727 221.83 338.147 221.83 338.4C221.83 338.52 221.836 338.613 221.85 338.68C221.943 339.413 222.336 339.973 223.03 340.36L223.59 340.68L224.75 340.4C225.51 340.213 225.936 340.06 226.03 339.94C226.31 339.593 226.45 339.04 226.45 338.28C226.45 338.08 226.443 337.933 226.43 337.84C226.376 337.413 226.276 337.107 226.13 336.92C225.983 336.72 225.47 336.213 224.59 335.4ZM222.57 333.1C222.903 332.913 223.236 332.82 223.57 332.82C224.01 332.82 224.35 332.953 224.59 333.22C224.843 333.473 225.176 333.6 225.59 333.6C226.003 333.6 226.33 333.667 226.57 333.8C226.823 333.933 227.15 334.213 227.55 334.64C227.976 335.107 228.263 335.493 228.41 335.8C228.57 336.093 228.696 336.533 228.79 337.12C228.896 337.787 228.95 338.28 228.95 338.6C228.95 339.053 228.85 339.553 228.65 340.1C228.343 340.953 227.963 341.56 227.51 341.92C227.056 342.267 226.25 342.587 225.09 342.88C224.396 343.053 223.91 343.14 223.63 343.14C223.203 343.14 222.623 342.947 221.89 342.56C221.076 342.12 220.45 341.553 220.01 340.86C219.57 340.153 219.35 339.393 219.35 338.58C219.35 337.86 219.53 337.14 219.89 336.42C220.17 335.86 220.61 335.207 221.21 334.46C221.81 333.713 222.263 333.26 222.57 333.1ZM239.228 332.12C239.468 332.04 239.708 332 239.948 332C240.615 332 241.202 332.333 241.708 333C242.122 333.56 242.488 335.053 242.808 337.48C242.968 338.68 243.048 339.54 243.048 340.06C243.048 340.647 242.922 341.06 242.668 341.3C242.415 341.553 242.128 341.68 241.808 341.68C241.502 341.68 241.235 341.56 241.008 341.32C240.862 341.187 240.755 340.98 240.688 340.7C240.635 340.42 240.568 339.833 240.488 338.94C240.275 336.833 240.048 335.54 239.808 335.06C239.742 334.927 239.688 334.86 239.648 334.86C239.608 334.86 239.535 334.913 239.428 335.02C239.268 335.18 238.895 335.833 238.308 336.98C237.908 337.78 237.628 338.287 237.468 338.5C237.308 338.713 237.075 338.9 236.768 339.06C236.435 339.247 236.188 339.34 236.028 339.34C235.948 339.34 235.788 339.293 235.548 339.2C235.188 339.04 234.775 338.753 234.308 338.34C233.842 337.927 233.582 337.72 233.528 337.72C233.462 337.72 233.428 337.9 233.428 338.26C233.428 338.94 233.515 339.627 233.688 340.32C233.808 340.827 233.868 341.14 233.868 341.26C233.868 341.407 233.788 341.587 233.628 341.8C233.335 342.2 233.008 342.4 232.648 342.4C232.448 342.4 232.262 342.333 232.088 342.2C231.688 341.893 231.422 341.507 231.288 341.04C231.155 340.573 231.082 339.793 231.068 338.7C231.068 337.727 231.088 337.107 231.128 336.84C231.168 336.573 231.308 336.193 231.548 335.7C232.015 334.7 232.528 334.2 233.088 334.2C233.582 334.2 234.162 334.56 234.828 335.28C235.428 335.88 235.755 336.18 235.808 336.18C235.915 336.18 236.142 335.813 236.488 335.08C236.795 334.44 237.228 333.82 237.788 333.22C238.348 332.62 238.828 332.253 239.228 332.12ZM245.59 328.5C245.83 328.233 246.097 328.1 246.39 328.1C246.697 328.1 246.99 328.26 247.27 328.58C247.497 328.847 247.61 329.073 247.61 329.26C247.61 329.353 247.59 329.493 247.55 329.68C247.39 330.64 247.017 331.12 246.43 331.12C246.377 331.12 246.27 331.107 246.11 331.08C245.51 330.947 245.21 330.453 245.21 329.6C245.21 329.16 245.337 328.793 245.59 328.5ZM246.19 333.94C246.457 333.713 246.717 333.6 246.97 333.6C247.223 333.6 247.477 333.727 247.73 333.98C247.903 334.153 248.01 334.34 248.05 334.54C248.09 334.727 248.11 335.187 248.11 335.92C248.11 336.733 248.183 337.787 248.33 339.08C248.41 339.707 248.45 340.167 248.45 340.46C248.45 340.727 248.423 340.907 248.37 341C248.13 341.453 247.783 341.68 247.33 341.68C247.063 341.68 246.817 341.587 246.59 341.4C246.377 341.213 246.23 340.96 246.15 340.64C246.057 340.267 245.95 339.493 245.83 338.32C245.723 337.147 245.67 336.227 245.67 335.56C245.67 335.507 245.67 335.433 245.67 335.34C245.683 335.247 245.69 335.187 245.69 335.16C245.717 334.813 245.763 334.56 245.83 334.4C245.897 334.24 246.017 334.087 246.19 333.94ZM260.22 332.56C260.38 332.44 260.62 332.38 260.94 332.38C261.22 332.38 261.434 332.427 261.58 332.52C261.927 332.693 262.1 332.993 262.1 333.42C262.1 333.74 262.007 334.22 261.82 334.86C261.74 335.14 261.487 336.127 261.06 337.82C260.847 338.74 260.58 339.553 260.26 340.26C259.94 340.967 259.634 341.433 259.34 341.66C259.087 341.873 258.714 341.98 258.22 341.98C257.207 341.98 256.267 341.653 255.4 341C255.04 340.747 254.627 340.293 254.16 339.64C253.68 339.04 253.414 338.74 253.36 338.74C253.32 338.74 253.234 339.26 253.1 340.3C253.034 340.94 252.967 341.387 252.9 341.64C252.834 341.88 252.734 342.073 252.6 342.22C252.36 342.473 252.067 342.6 251.72 342.6C251.414 342.6 251.14 342.5 250.9 342.3C250.674 342.113 250.56 341.813 250.56 341.4C250.56 341.347 250.56 341.253 250.56 341.12C250.574 340.987 250.58 340.88 250.58 340.8C250.607 339.92 250.7 338.993 250.86 338.02C251.02 337.047 251.187 336.4 251.36 336.08C251.867 335.093 252.447 334.6 253.1 334.6C253.434 334.6 253.694 334.687 253.88 334.86C254.08 335.02 254.36 335.407 254.72 336.02C256.014 338.26 257.047 339.38 257.82 339.38C258.034 339.38 258.48 337.967 259.16 335.14C259.4 334.193 259.574 333.573 259.68 333.28C259.8 332.987 259.98 332.747 260.22 332.56ZM269.791 329.62C270.218 329.553 270.565 329.52 270.831 329.52C271.951 329.52 272.551 329.913 272.631 330.7V330.86C272.631 331.167 272.545 331.413 272.371 331.6C272.238 331.76 272.091 331.86 271.931 331.9C271.785 331.94 271.458 331.96 270.951 331.96C270.458 331.973 270.105 332.007 269.891 332.06C269.678 332.1 269.418 332.207 269.111 332.38C268.418 332.793 267.845 333.44 267.391 334.32C266.938 335.2 266.711 336.073 266.711 336.94C266.711 337.487 266.811 337.967 267.011 338.38C267.211 338.78 267.531 339.16 267.971 339.52C268.411 339.88 268.771 340.06 269.051 340.06C269.065 340.06 269.078 340.06 269.091 340.06C269.118 340.047 269.138 340.04 269.151 340.04C269.578 339.933 269.998 339.747 270.411 339.48C270.838 339.213 271.171 338.92 271.411 338.6C271.718 338.187 271.871 337.913 271.871 337.78C271.871 337.567 271.478 337.46 270.691 337.46C270.211 337.46 269.891 337.44 269.731 337.4C269.571 337.347 269.425 337.24 269.291 337.08C269.105 336.827 269.011 336.573 269.011 336.32C269.011 336.027 269.118 335.773 269.331 335.56C269.491 335.413 269.805 335.273 270.271 335.14C270.738 335.007 271.138 334.94 271.471 334.94C272.098 334.94 272.671 335.14 273.191 335.54C273.725 335.94 274.058 336.44 274.191 337.04C274.245 337.253 274.271 337.487 274.271 337.74C274.271 338.353 273.965 339.093 273.351 339.96C272.818 340.68 272.125 341.273 271.271 341.74C270.431 342.193 269.605 342.42 268.791 342.42C268.245 342.42 267.738 342.26 267.271 341.94C265.298 340.62 264.298 338.913 264.271 336.82C264.271 336.407 264.398 335.747 264.651 334.84C264.918 333.92 265.171 333.26 265.411 332.86C265.678 332.407 266.105 331.9 266.691 331.34C267.291 330.767 267.805 330.367 268.231 330.14C268.698 329.9 269.218 329.727 269.791 329.62ZM285.06 333.46C285.367 333.233 285.773 333.12 286.28 333.12C286.733 333.12 287.153 333.213 287.54 333.4C287.94 333.587 288.2 333.833 288.32 334.14C288.413 334.393 288.46 334.567 288.46 334.66C288.46 334.847 288.333 335.073 288.08 335.34C287.853 335.593 287.5 335.72 287.02 335.72C286.713 335.72 286.52 335.74 286.44 335.78C286.373 335.82 286.327 335.913 286.3 336.06V336.34C286.3 336.887 286.427 337.573 286.68 338.4C286.907 339.147 287.02 339.913 287.02 340.7C287.02 341.487 286.907 342.093 286.68 342.52C286.133 343.56 285.287 344.08 284.14 344.08C283.9 344.08 283.72 344.073 283.6 344.06C282.467 343.94 281.8 343.627 281.6 343.12C281.507 342.867 281.46 342.687 281.46 342.58C281.46 342.407 281.58 342.173 281.82 341.88C282.007 341.68 282.173 341.56 282.32 341.52C282.467 341.467 282.793 341.44 283.3 341.44H284.42L284.46 340.8V340.66C284.46 340.22 284.367 339.66 284.18 338.98C283.94 338.14 283.82 337.287 283.82 336.42V336.06C283.82 335.62 283.847 335.307 283.9 335.12C283.953 334.92 284.06 334.687 284.22 334.42C284.5 333.967 284.78 333.647 285.06 333.46ZM295.898 335.4C295.685 335.213 295.518 335.12 295.398 335.12C295.251 335.12 295.005 335.32 294.658 335.72C294.325 336.107 293.991 336.58 293.658 337.14C293.311 337.727 293.138 338.147 293.138 338.4C293.138 338.52 293.145 338.613 293.158 338.68C293.251 339.413 293.645 339.973 294.338 340.36L294.898 340.68L296.058 340.4C296.818 340.213 297.245 340.06 297.338 339.94C297.618 339.593 297.758 339.04 297.758 338.28C297.758 338.08 297.751 337.933 297.738 337.84C297.685 337.413 297.585 337.107 297.438 336.92C297.291 336.72 296.778 336.213 295.898 335.4ZM293.878 333.1C294.211 332.913 294.545 332.82 294.878 332.82C295.318 332.82 295.658 332.953 295.898 333.22C296.151 333.473 296.485 333.6 296.898 333.6C297.311 333.6 297.638 333.667 297.878 333.8C298.131 333.933 298.458 334.213 298.858 334.64C299.285 335.107 299.571 335.493 299.718 335.8C299.878 336.093 300.005 336.533 300.098 337.12C300.205 337.787 300.258 338.28 300.258 338.6C300.258 339.053 300.158 339.553 299.958 340.1C299.651 340.953 299.271 341.56 298.818 341.92C298.365 342.267 297.558 342.587 296.398 342.88C295.705 343.053 295.218 343.14 294.938 343.14C294.511 343.14 293.931 342.947 293.198 342.56C292.385 342.12 291.758 341.553 291.318 340.86C290.878 340.153 290.658 339.393 290.658 338.58C290.658 337.86 290.838 337.14 291.198 336.42C291.478 335.86 291.918 335.207 292.518 334.46C293.118 333.713 293.571 333.26 293.878 333.1ZM307.617 335.4C307.404 335.213 307.237 335.12 307.117 335.12C306.97 335.12 306.724 335.32 306.377 335.72C306.044 336.107 305.71 336.58 305.377 337.14C305.03 337.727 304.857 338.147 304.857 338.4C304.857 338.52 304.864 338.613 304.877 338.68C304.97 339.413 305.364 339.973 306.057 340.36L306.617 340.68L307.777 340.4C308.537 340.213 308.964 340.06 309.057 339.94C309.337 339.593 309.477 339.04 309.477 338.28C309.477 338.08 309.47 337.933 309.457 337.84C309.404 337.413 309.304 337.107 309.157 336.92C309.01 336.72 308.497 336.213 307.617 335.4ZM305.597 333.1C305.93 332.913 306.264 332.82 306.597 332.82C307.037 332.82 307.377 332.953 307.617 333.22C307.87 333.473 308.204 333.6 308.617 333.6C309.03 333.6 309.357 333.667 309.597 333.8C309.85 333.933 310.177 334.213 310.577 334.64C311.004 335.107 311.29 335.493 311.437 335.8C311.597 336.093 311.724 336.533 311.817 337.12C311.924 337.787 311.977 338.28 311.977 338.6C311.977 339.053 311.877 339.553 311.677 340.1C311.37 340.953 310.99 341.56 310.537 341.92C310.084 342.267 309.277 342.587 308.117 342.88C307.424 343.053 306.937 343.14 306.657 343.14C306.23 343.14 305.65 342.947 304.917 342.56C304.104 342.12 303.477 341.553 303.037 340.86C302.597 340.153 302.377 339.393 302.377 338.58C302.377 337.86 302.557 337.14 302.917 336.42C303.197 335.86 303.637 335.207 304.237 334.46C304.837 333.713 305.29 333.26 305.597 333.1ZM323.756 332.56C323.916 332.44 324.156 332.38 324.476 332.38C324.756 332.38 324.969 332.427 325.116 332.52C325.462 332.693 325.636 332.993 325.636 333.42C325.636 333.74 325.542 334.22 325.356 334.86C325.276 335.14 325.022 336.127 324.596 337.82C324.382 338.74 324.116 339.553 323.796 340.26C323.476 340.967 323.169 341.433 322.876 341.66C322.622 341.873 322.249 341.98 321.756 341.98C320.742 341.98 319.802 341.653 318.936 341C318.576 340.747 318.162 340.293 317.696 339.64C317.216 339.04 316.949 338.74 316.896 338.74C316.856 338.74 316.769 339.26 316.636 340.3C316.569 340.94 316.502 341.387 316.436 341.64C316.369 341.88 316.269 342.073 316.136 342.22C315.896 342.473 315.602 342.6 315.256 342.6C314.949 342.6 314.676 342.5 314.436 342.3C314.209 342.113 314.096 341.813 314.096 341.4C314.096 341.347 314.096 341.253 314.096 341.12C314.109 340.987 314.116 340.88 314.116 340.8C314.142 339.92 314.236 338.993 314.396 338.02C314.556 337.047 314.722 336.4 314.896 336.08C315.402 335.093 315.982 334.6 316.636 334.6C316.969 334.6 317.229 334.687 317.416 334.86C317.616 335.02 317.896 335.407 318.256 336.02C319.549 338.26 320.582 339.38 321.356 339.38C321.569 339.38 322.016 337.967 322.696 335.14C322.936 334.193 323.109 333.573 323.216 333.28C323.336 332.987 323.516 332.747 323.756 332.56Z" fill="#828282"/>
<path d="M190.5 92.5C143.333 87.6667 42.7 97.3 17.5 174.5C-14 271 19 334 76 371C121.6 400.6 246.667 394 303.5 387C360.5 388.5 480.1 378.6 502.5 327C530.5 262.5 544 202.5 502.5 152C461 101.5 414.5 92.5 355 92.5" stroke="#828282" stroke-width="10" stroke-linecap="round"/>
</svg>
