<svg width="535" height="398" viewBox="0 0 535 398" fill="none" xmlns="http://www.w3.org/2000/svg">
<rect y="91" width="535" height="296" rx="148" fill="white"/>
<path fill-rule="evenodd" clip-rule="evenodd" d="M276.654 127.846C277.229 127.271 277.969 126.888 278.766 126.727C307.996 120.81 330 94.9746 330 64C330 28.6538 301.346 0 266 0C230.654 0 202 28.6538 202 64C202 94.5526 223.409 120.105 252.043 126.474C252.811 126.644 253.521 127.021 254.077 127.577L262.672 136.172C264.234 137.734 266.766 137.734 268.328 136.172L276.654 127.846Z" fill="white"/>
<path d="M252.5 126.5C256.961 126.996 259.52 138.111 265.69 138.765C272.213 139.457 270.5 125.778 292.5 121.5C319.343 116.281 332.355 96.9237 333.5 66C334.746 32.3602 315.6 5 276 5C241.663 5 214.203 20.685 207 55.5C201 84.5 218.127 114.657 237.5 119.5" stroke="black" stroke-width="10" stroke-linecap="round"/>
<path d="M241 55.8831C242.172 55.7746 243.096 55.3791 244.054 54.7311C247.684 52.2742 251.146 49.4904 254.571 46.7978C258.335 43.8394 262.299 39.3479 266.729 37.2411C268.604 36.3496 271.088 38.1601 272.61 38.943C276.165 40.7718 279.327 43.103 282.732 45.1483C286.11 47.1772 288.659 50.185 292.119 52.0605C293.371 52.7393 295.842 52.8336 296.473 54.2075C298.06 57.665 298 63.1652 298 66.906C298 70.0392 298 73.1724 298 76.3056C298 79.0523 292.31 82.0978 290.366 83.532C286.785 86.1738 283.455 89.2142 279.735 91.6748C278.182 92.7019 276.706 95 274.646 95C270.124 95 266.766 91.8373 262.799 90.1562C259.7 88.843 256.429 87.5644 253.214 86.5168C250.806 85.732 247.946 85.5195 247.701 82.7989C247.01 75.1216 246.089 66.853 246.089 59.1822" stroke="black" stroke-width="10" stroke-linecap="round"/>
<path d="M283 70.1863C282.527 70.2312 282.154 70.3949 281.768 70.663C280.303 71.6796 278.906 72.8316 277.524 73.9457C276.005 75.1699 274.406 77.0284 272.618 77.9002C271.862 78.2691 270.859 77.5199 270.245 77.196C268.811 76.4392 267.535 75.4746 266.161 74.6283C264.798 73.7888 263.769 72.5441 262.373 71.7681C261.868 71.4872 260.871 71.4481 260.616 70.8797C259.976 69.449 260 67.173 260 65.6251C260 64.3286 260 63.0321 260 61.7356C260 60.599 262.296 59.3388 263.08 58.7454C264.525 57.6522 265.869 56.3941 267.37 55.3759C267.997 54.9509 268.592 54 269.424 54C271.248 54 272.603 55.3087 274.204 56.0043C275.454 56.5477 276.774 57.0768 278.071 57.5103C279.043 57.835 280.197 57.923 280.296 59.0487C280.575 62.2256 280.946 65.647 280.946 68.8212" stroke="black" stroke-width="10" stroke-linecap="round"/>
<path d="M239.021 171.504C239.597 170.896 240.269 170.592 241.037 170.592C242.381 170.592 243.277 171.264 243.725 172.608C243.885 173.088 243.965 173.52 243.965 173.904C243.965 174.576 243.405 177.456 242.285 182.544C241.549 185.968 240.781 188.256 239.981 189.408C239.213 190.528 238.029 191.088 236.429 191.088C235.405 191.088 233.933 190.704 232.013 189.936C230.125 189.168 228.573 188.32 227.357 187.392C225.885 186.272 225.005 185.712 224.717 185.712C224.397 185.712 224.237 186.72 224.237 188.736C224.237 190.048 224.189 190.944 224.093 191.424C223.997 191.872 223.773 192.272 223.421 192.624C222.909 193.2 222.269 193.488 221.501 193.488C220.637 193.488 219.949 193.136 219.437 192.432C218.957 191.824 218.717 190.784 218.717 189.312C218.717 188.288 218.733 187.408 218.765 186.672C218.829 183.984 219.021 182.224 219.341 181.392C219.661 180.528 220.365 179.84 221.453 179.328C221.965 179.072 222.493 178.944 223.037 178.944C224.445 178.944 226.797 180.064 230.093 182.304C232.685 184.096 234.461 184.992 235.421 184.992C235.645 184.992 236.157 183.264 236.957 179.808C237.789 176.352 238.205 174.16 238.205 173.232C238.205 172.688 238.477 172.112 239.021 171.504ZM249.571 172.704C249.731 172.256 250.387 171.68 251.539 170.976C252.691 170.24 253.555 169.872 254.131 169.872C255.155 169.872 256.947 170.096 259.507 170.544C262.099 170.992 263.587 171.328 263.971 171.552C264.739 172.064 265.123 172.784 265.123 173.712C265.123 174.128 265.027 174.544 264.835 174.96C264.579 175.568 264.259 176 263.875 176.256C263.491 176.48 262.899 176.592 262.099 176.592C261.587 176.592 260.659 176.512 259.315 176.352C257.971 176.16 256.931 176.064 256.195 176.064C255.971 176.064 255.843 176.08 255.811 176.112C255.715 176.208 255.571 176.928 255.379 178.272L255.139 180.144H257.971C260.947 180.144 262.659 180.704 263.107 181.824C263.235 182.176 263.299 182.576 263.299 183.024C263.299 183.792 263.075 184.448 262.627 184.992C262.307 185.376 261.907 185.632 261.427 185.76C260.979 185.888 260.003 185.984 258.499 186.048L255.091 186.24L254.899 190.944C254.803 193.12 254.691 194.496 254.563 195.072C254.467 195.616 254.211 196.064 253.795 196.416C253.251 196.864 252.643 197.088 251.971 197.088C251.203 197.088 250.515 196.784 249.907 196.176C249.491 195.76 249.235 195.344 249.139 194.928C249.043 194.48 248.995 193.456 248.995 191.856C248.995 189.936 249.187 187.088 249.571 183.312C249.795 181.264 249.907 179.584 249.907 178.272C249.907 177.28 249.843 176.448 249.715 175.776C249.587 175.04 249.523 174.24 249.523 173.376C249.523 173.024 249.539 172.8 249.571 172.704ZM273.109 168.432C273.749 168.432 274.885 168.336 276.517 168.144C278.181 167.952 279.941 167.728 281.797 167.472C283.685 167.184 284.837 167.024 285.253 166.992C286.565 166.8 288.133 166.672 289.957 166.608H290.533C291.717 166.608 292.597 166.912 293.173 167.52C293.781 168.096 294.085 168.784 294.085 169.584C294.085 170.224 293.877 170.8 293.461 171.312C293.045 171.824 292.485 172.144 291.781 172.272C291.621 172.304 290.869 172.368 289.525 172.464C288.213 172.528 286.949 172.624 285.733 172.752C284.517 172.88 283.845 173.008 283.717 173.136C283.461 173.392 283.477 173.84 283.765 174.48C283.957 175.056 284.085 177.376 284.149 181.44C284.149 185.504 284.453 189.04 285.061 192.048C285.125 192.272 285.157 192.56 285.157 192.912C285.157 193.36 284.901 193.84 284.389 194.352C283.685 194.992 282.981 195.312 282.277 195.312C281.509 195.312 280.773 194.96 280.069 194.256C279.621 193.808 279.317 193.344 279.157 192.864C279.029 192.384 278.901 191.472 278.773 190.128C278.613 188.528 278.533 186.304 278.533 183.456V182.4V181.392C278.533 178.768 278.421 176.928 278.197 175.872L277.765 173.952H275.029C273.813 173.952 272.997 173.904 272.581 173.808C272.197 173.712 271.813 173.456 271.429 173.04C270.821 172.496 270.517 171.904 270.517 171.264C270.517 170.592 270.789 169.952 271.333 169.344C271.909 168.736 272.501 168.432 273.109 168.432ZM308.031 173.904C308.767 173.36 309.743 173.088 310.959 173.088C312.047 173.088 313.055 173.312 313.983 173.76C314.943 174.208 315.567 174.8 315.855 175.536C316.079 176.144 316.191 176.56 316.191 176.784C316.191 177.232 315.887 177.776 315.279 178.416C314.735 179.024 313.887 179.328 312.735 179.328C311.999 179.328 311.535 179.376 311.343 179.472C311.183 179.568 311.071 179.792 311.007 180.144V180.816C311.007 182.128 311.311 183.776 311.919 185.76C312.463 187.552 312.735 189.392 312.735 191.28C312.735 193.168 312.463 194.624 311.919 195.648C310.607 198.144 308.575 199.392 305.823 199.392C305.247 199.392 304.815 199.376 304.527 199.344C301.807 199.056 300.207 198.304 299.727 197.088C299.503 196.48 299.391 196.048 299.391 195.792C299.391 195.376 299.679 194.816 300.255 194.112C300.703 193.632 301.103 193.344 301.455 193.248C301.807 193.12 302.591 193.056 303.807 193.056H306.495L306.591 191.52V191.184C306.591 190.128 306.367 188.784 305.919 187.152C305.343 185.136 305.055 183.088 305.055 181.008V180.144C305.055 179.088 305.119 178.336 305.247 177.888C305.375 177.408 305.631 176.848 306.015 176.208C306.687 175.12 307.359 174.352 308.031 173.904Z" fill="black"/>
<path d="M188.628 238.709L185.041 251H183.587L180.893 241.471L178.156 251H176.745L173.2 238.709H174.79L177.51 248.492L180.281 238.709H181.513L184.276 248.492L187.047 238.709H188.628ZM191.827 251.17C191.26 251.17 190.758 251.071 190.322 250.872C189.886 250.668 189.543 250.377 189.294 249.997C189.05 249.617 188.928 249.158 188.928 248.62C188.928 247.645 189.268 246.92 189.948 246.444C190.628 245.968 191.719 245.713 193.221 245.679L194.793 245.636V244.948C194.793 244.41 194.632 243.985 194.309 243.673C193.986 243.356 193.484 243.197 192.804 243.197C192.3 243.203 191.855 243.322 191.47 243.554C191.09 243.786 190.843 244.166 190.73 244.693H189.345C189.379 244.121 189.54 243.639 189.829 243.248C190.118 242.851 190.52 242.551 191.036 242.347C191.557 242.143 192.172 242.041 192.881 242.041C193.646 242.041 194.28 242.149 194.785 242.364C195.295 242.579 195.674 242.897 195.924 243.316C196.179 243.735 196.306 244.251 196.306 244.863V251H194.963L194.853 249.351C194.513 250.037 194.079 250.513 193.552 250.779C193.031 251.04 192.456 251.17 191.827 251.17ZM192.303 250.039C192.597 250.039 192.889 249.986 193.178 249.878C193.473 249.77 193.742 249.626 193.986 249.444C194.229 249.257 194.422 249.051 194.564 248.824C194.711 248.592 194.787 248.354 194.793 248.11V246.605L193.484 246.631C192.815 246.642 192.254 246.71 191.801 246.835C191.353 246.96 191.016 247.155 190.79 247.421C190.569 247.688 190.458 248.036 190.458 248.467C190.458 248.96 190.628 249.345 190.968 249.623C191.314 249.901 191.759 250.039 192.303 250.039ZM198.821 251V242.211H200.343V243.486C200.484 243.242 200.68 243.013 200.929 242.797C201.184 242.582 201.49 242.409 201.847 242.279C202.21 242.149 202.626 242.083 203.097 242.083C203.652 242.083 204.162 242.194 204.627 242.415C205.097 242.636 205.471 242.982 205.749 243.452C206.032 243.917 206.174 244.517 206.174 245.254V251H204.601V245.407C204.601 244.721 204.42 244.214 204.057 243.885C203.7 243.551 203.236 243.384 202.663 243.384C202.267 243.384 201.895 243.449 201.55 243.579C201.204 243.704 200.924 243.897 200.708 244.157C200.493 244.412 200.385 244.735 200.385 245.126V251H198.821ZM212.513 243.358H210.533V248.824C210.533 249.136 210.564 249.365 210.626 249.512C210.694 249.654 210.805 249.745 210.958 249.784C211.116 249.824 211.332 249.844 211.604 249.844H212.564V250.898C212.456 250.938 212.292 250.972 212.071 251C211.856 251.028 211.587 251.043 211.264 251.043C210.657 251.043 210.187 250.96 209.853 250.796C209.518 250.632 209.283 250.388 209.147 250.065C209.017 249.742 208.952 249.345 208.952 248.875V243.358H207.524V242.211H208.994L209.377 239.652H210.533V242.202H212.513V243.358ZM222.831 243.358H220.851V248.824C220.851 249.136 220.882 249.365 220.944 249.512C221.012 249.654 221.123 249.745 221.276 249.784C221.434 249.824 221.65 249.844 221.922 249.844H222.882V250.898C222.775 250.938 222.61 250.972 222.389 251C222.174 251.028 221.905 251.043 221.582 251.043C220.975 251.043 220.505 250.96 220.171 250.796C219.836 250.632 219.601 250.388 219.465 250.065C219.335 249.742 219.27 249.345 219.27 248.875V243.358H217.842V242.211H219.312L219.695 239.652H220.851V242.202H222.831V243.358ZM228.181 251.17C227.37 251.17 226.662 250.997 226.056 250.651C225.449 250.3 224.979 249.787 224.645 249.113C224.31 248.439 224.143 247.614 224.143 246.639C224.143 245.721 224.299 244.917 224.611 244.225C224.922 243.534 225.379 242.999 225.979 242.619C226.586 242.234 227.319 242.041 228.181 242.041C228.991 242.041 229.694 242.219 230.289 242.576C230.889 242.928 231.354 243.446 231.683 244.132C232.011 244.818 232.176 245.653 232.176 246.639C232.176 247.535 232.023 248.322 231.717 249.002C231.416 249.682 230.969 250.215 230.374 250.6C229.784 250.98 229.053 251.17 228.181 251.17ZM228.181 249.929C228.708 249.929 229.153 249.796 229.515 249.529C229.878 249.263 230.153 248.881 230.34 248.382C230.527 247.883 230.62 247.291 230.62 246.605C230.62 245.976 230.538 245.413 230.374 244.914C230.209 244.41 229.946 244.01 229.583 243.715C229.226 243.421 228.759 243.273 228.181 243.273C227.648 243.273 227.198 243.407 226.829 243.673C226.461 243.934 226.18 244.313 225.988 244.812C225.801 245.311 225.707 245.908 225.707 246.605C225.707 247.223 225.792 247.784 225.962 248.288C226.132 248.793 226.399 249.192 226.761 249.487C227.124 249.782 227.597 249.929 228.181 249.929ZM240.142 251.17C239.576 251.17 239.074 251.071 238.638 250.872C238.202 250.668 237.859 250.377 237.609 249.997C237.366 249.617 237.244 249.158 237.244 248.62C237.244 247.645 237.584 246.92 238.264 246.444C238.944 245.968 240.035 245.713 241.536 245.679L243.109 245.636V244.948C243.109 244.41 242.947 243.985 242.624 243.673C242.301 243.356 241.8 243.197 241.12 243.197C240.616 243.203 240.171 243.322 239.785 243.554C239.406 243.786 239.159 244.166 239.046 244.693H237.66C237.694 244.121 237.856 243.639 238.145 243.248C238.434 242.851 238.836 242.551 239.352 242.347C239.873 242.143 240.488 242.041 241.196 242.041C241.961 242.041 242.596 242.149 243.1 242.364C243.61 242.579 243.99 242.897 244.239 243.316C244.494 243.735 244.622 244.251 244.622 244.863V251H243.279L243.168 249.351C242.828 250.037 242.395 250.513 241.868 250.779C241.347 251.04 240.771 251.17 240.142 251.17ZM240.618 250.039C240.913 250.039 241.205 249.986 241.494 249.878C241.789 249.77 242.058 249.626 242.301 249.444C242.545 249.257 242.738 249.051 242.879 248.824C243.027 248.592 243.103 248.354 243.109 248.11V246.605L241.8 246.631C241.131 246.642 240.57 246.71 240.117 246.835C239.669 246.96 239.332 247.155 239.105 247.421C238.884 247.688 238.774 248.036 238.774 248.467C238.774 248.96 238.944 249.345 239.284 249.623C239.63 249.901 240.074 250.039 240.618 250.039ZM250.308 251.17C249.169 251.17 248.265 250.779 247.596 249.997C246.928 249.215 246.593 248.073 246.593 246.571C246.593 245.659 246.726 244.863 246.993 244.183C247.265 243.503 247.667 242.976 248.2 242.602C248.732 242.228 249.395 242.041 250.189 242.041C250.608 242.041 250.979 242.095 251.302 242.202C251.631 242.31 251.914 242.446 252.152 242.61C252.39 242.775 252.583 242.945 252.73 243.12C252.883 243.296 252.997 243.458 253.07 243.605V238.369H254.651V251H253.453L253.283 249.198C253.226 249.368 253.135 249.566 253.011 249.793C252.886 250.014 252.71 250.232 252.484 250.447C252.257 250.657 251.965 250.83 251.608 250.966C251.257 251.102 250.823 251.17 250.308 251.17ZM250.588 249.963C251.478 249.963 252.113 249.694 252.492 249.155C252.878 248.611 253.07 247.725 253.07 246.495C253.065 245.809 252.977 245.226 252.807 244.744C252.642 244.262 252.382 243.897 252.025 243.647C251.673 243.392 251.206 243.265 250.622 243.265C249.897 243.265 249.308 243.523 248.854 244.038C248.401 244.554 248.174 245.373 248.174 246.495C248.174 247.594 248.378 248.447 248.786 249.053C249.2 249.66 249.801 249.963 250.588 249.963ZM257.177 251V242.211H258.69V243.486C258.934 243.101 259.268 242.763 259.693 242.474C260.118 242.185 260.671 242.041 261.351 242.041C261.668 242.041 261.991 242.095 262.32 242.202C262.654 242.31 262.96 242.472 263.238 242.687C263.515 242.902 263.731 243.166 263.884 243.477C264.156 243.047 264.524 242.701 264.989 242.44C265.453 242.174 265.977 242.041 266.561 242.041C266.867 242.041 267.187 242.089 267.522 242.185C267.856 242.276 268.165 242.44 268.448 242.678C268.737 242.911 268.972 243.237 269.154 243.656C269.335 244.07 269.426 244.602 269.426 245.254V251H267.845V245.407C267.845 244.874 267.76 244.463 267.59 244.174C267.42 243.88 267.196 243.673 266.918 243.554C266.646 243.435 266.354 243.375 266.043 243.375C265.771 243.375 265.482 243.429 265.176 243.537C264.87 243.645 264.609 243.826 264.394 244.081C264.178 244.336 264.071 244.684 264.071 245.126V251H262.507V244.948C262.507 244.602 262.413 244.313 262.226 244.081C262.045 243.849 261.815 243.673 261.538 243.554C261.266 243.435 260.994 243.375 260.722 243.375C260.421 243.375 260.118 243.435 259.812 243.554C259.512 243.673 259.257 243.863 259.047 244.123C258.843 244.378 258.741 244.713 258.741 245.126V251H257.177ZM273.416 242.211V251H271.895V242.211H273.416ZM273.45 238.717V240.349H271.844V238.717H273.45ZM276.112 251V242.211H277.608V243.902C277.755 243.483 277.962 243.137 278.228 242.865C278.494 242.588 278.798 242.381 279.138 242.245C279.483 242.109 279.84 242.041 280.209 242.041C280.339 242.041 280.466 242.049 280.591 242.067C280.716 242.083 280.812 242.112 280.88 242.151V243.673C280.795 243.633 280.685 243.608 280.549 243.596C280.418 243.579 280.308 243.571 280.217 243.571C279.866 243.548 279.537 243.571 279.231 243.639C278.925 243.701 278.656 243.812 278.424 243.97C278.191 244.129 278.007 244.339 277.871 244.599C277.741 244.854 277.676 245.166 277.676 245.534V251H276.112ZM283.472 246.971C283.472 247.526 283.562 248.031 283.744 248.484C283.931 248.932 284.211 249.289 284.585 249.555C284.965 249.821 285.438 249.954 286.005 249.954C286.566 249.954 287.047 249.824 287.45 249.563C287.858 249.303 288.118 248.926 288.232 248.433H289.719C289.612 249.028 289.374 249.529 289.005 249.938C288.637 250.345 288.192 250.654 287.671 250.864C287.149 251.068 286.605 251.17 286.039 251.17C285.217 251.17 284.495 250.992 283.871 250.634C283.248 250.277 282.761 249.765 282.409 249.096C282.058 248.427 281.882 247.625 281.882 246.69C281.882 245.767 282.041 244.956 282.358 244.259C282.676 243.562 283.135 243.018 283.735 242.627C284.342 242.236 285.07 242.041 285.92 242.041C286.747 242.041 287.447 242.219 288.019 242.576C288.592 242.933 289.025 243.438 289.32 244.089C289.62 244.735 289.77 245.503 289.77 246.393V246.971H283.472ZM283.48 245.908H288.257C288.257 245.404 288.172 244.951 288.002 244.548C287.832 244.14 287.572 243.82 287.22 243.588C286.875 243.35 286.438 243.231 285.911 243.231C285.362 243.231 284.905 243.364 284.543 243.63C284.186 243.891 283.917 244.228 283.735 244.642C283.56 245.05 283.475 245.472 283.48 245.908ZM298.685 251.17C297.875 251.17 297.166 250.997 296.56 250.651C295.954 250.3 295.483 249.787 295.149 249.113C294.815 248.439 294.647 247.614 294.647 246.639C294.647 245.721 294.803 244.917 295.115 244.225C295.427 243.534 295.883 242.999 296.483 242.619C297.09 242.234 297.824 242.041 298.685 242.041C299.495 242.041 300.198 242.219 300.793 242.576C301.394 242.928 301.858 243.446 302.187 244.132C302.516 244.818 302.68 245.653 302.68 246.639C302.68 247.535 302.527 248.322 302.221 249.002C301.921 249.682 301.473 250.215 300.878 250.6C300.289 250.98 299.558 251.17 298.685 251.17ZM298.685 249.929C299.212 249.929 299.657 249.796 300.019 249.529C300.382 249.263 300.657 248.881 300.844 248.382C301.031 247.883 301.124 247.291 301.124 246.605C301.124 245.976 301.042 245.413 300.878 244.914C300.714 244.41 300.45 244.01 300.087 243.715C299.73 243.421 299.263 243.273 298.685 243.273C298.152 243.273 297.702 243.407 297.333 243.673C296.965 243.934 296.685 244.313 296.492 244.812C296.305 245.311 296.211 245.908 296.211 246.605C296.211 247.223 296.296 247.784 296.466 248.288C296.636 248.793 296.903 249.192 297.265 249.487C297.628 249.782 298.101 249.929 298.685 249.929ZM307.664 251.17C307.205 251.164 306.772 251.099 306.364 250.974C305.962 250.844 305.605 250.654 305.293 250.405C304.981 250.156 304.735 249.847 304.553 249.478C304.378 249.104 304.29 248.671 304.29 248.178V242.211H305.862V248.016C305.862 248.589 306.038 249.053 306.389 249.41C306.746 249.767 307.282 249.946 307.996 249.946C308.642 249.946 309.16 249.779 309.551 249.444C309.948 249.104 310.146 248.6 310.146 247.931V242.211H311.71V251H310.461L310.299 249.317C310.192 249.759 310.008 250.116 309.747 250.388C309.492 250.66 309.183 250.861 308.82 250.991C308.463 251.116 308.078 251.176 307.664 251.17ZM314.093 251V242.211H315.589V243.902C315.736 243.483 315.943 243.137 316.209 242.865C316.475 242.588 316.779 242.381 317.119 242.245C317.464 242.109 317.821 242.041 318.19 242.041C318.32 242.041 318.447 242.049 318.572 242.067C318.697 242.083 318.793 242.112 318.861 242.151V243.673C318.776 243.633 318.666 243.608 318.53 243.596C318.399 243.579 318.289 243.571 318.198 243.571C317.847 243.548 317.518 243.571 317.212 243.639C316.906 243.701 316.637 243.812 316.405 243.97C316.172 244.129 315.988 244.339 315.852 244.599C315.722 244.854 315.657 245.166 315.657 245.534V251H314.093ZM327.967 253.907C326.585 253.907 325.508 253.706 324.737 253.304C323.972 252.907 323.59 252.337 323.59 251.595C323.59 251.278 323.664 251.009 323.811 250.787C323.958 250.561 324.134 250.374 324.338 250.226C324.542 250.079 324.732 249.963 324.907 249.878C325.083 249.787 325.196 249.722 325.247 249.682C325.151 249.626 325.029 249.555 324.882 249.47C324.74 249.385 324.616 249.272 324.508 249.13C324.4 248.988 324.346 248.804 324.346 248.577C324.346 248.3 324.477 248.045 324.737 247.812C324.998 247.58 325.383 247.407 325.893 247.294C325.378 247.033 324.975 246.688 324.686 246.257C324.397 245.826 324.253 245.359 324.253 244.854C324.253 244.288 324.406 243.795 324.712 243.375C325.024 242.956 325.466 242.636 326.038 242.415C326.61 242.188 327.29 242.075 328.078 242.075C328.65 242.075 329.132 242.143 329.523 242.279C329.914 242.409 330.277 242.596 330.611 242.84C330.702 242.8 330.843 242.741 331.036 242.661C331.234 242.576 331.452 242.486 331.69 242.389C331.928 242.293 332.149 242.202 332.353 242.117C332.563 242.027 332.73 241.959 332.855 241.913L332.846 243.367L331.308 243.656C331.393 243.837 331.461 244.036 331.512 244.251C331.569 244.466 331.597 244.667 331.597 244.854C331.597 245.37 331.461 245.838 331.189 246.257C330.923 246.676 330.517 247.011 329.973 247.26C329.429 247.509 328.749 247.634 327.933 247.634C327.865 247.634 327.778 247.634 327.67 247.634C327.568 247.628 327.48 247.623 327.406 247.617C326.806 247.634 326.392 247.702 326.165 247.821C325.939 247.934 325.825 248.062 325.825 248.203C325.825 248.368 325.953 248.481 326.208 248.543C326.463 248.606 326.896 248.66 327.508 248.705C327.729 248.716 328.001 248.73 328.324 248.747C328.653 248.764 329.016 248.787 329.412 248.816C330.336 248.872 331.047 249.107 331.546 249.521C332.045 249.935 332.294 250.493 332.294 251.196C332.294 251.995 331.937 252.646 331.223 253.151C330.509 253.655 329.424 253.907 327.967 253.907ZM328.248 252.896C329.058 252.896 329.679 252.774 330.109 252.53C330.54 252.286 330.755 251.918 330.755 251.425C330.755 251.074 330.622 250.787 330.356 250.566C330.095 250.34 329.696 250.209 329.157 250.175L326.692 250.014C326.471 250.003 326.242 250.059 326.004 250.184C325.766 250.303 325.562 250.47 325.392 250.685C325.228 250.901 325.145 251.145 325.145 251.417C325.145 251.881 325.398 252.244 325.902 252.505C326.412 252.765 327.194 252.896 328.248 252.896ZM327.976 246.622C328.611 246.622 329.121 246.475 329.506 246.18C329.897 245.886 330.092 245.449 330.092 244.871C330.092 244.276 329.897 243.823 329.506 243.511C329.121 243.2 328.611 243.044 327.976 243.044C327.336 243.044 326.817 243.203 326.42 243.52C326.029 243.832 325.834 244.282 325.834 244.871C325.834 245.427 326.021 245.857 326.395 246.163C326.769 246.469 327.296 246.622 327.976 246.622ZM336.35 242.211V251H334.828V242.211H336.35ZM336.384 238.717V240.349H334.777V238.717H336.384ZM339.045 251V242.211H340.541V243.902C340.689 243.483 340.896 243.137 341.162 242.865C341.428 242.588 341.731 242.381 342.071 242.245C342.417 242.109 342.774 242.041 343.142 242.041C343.273 242.041 343.4 242.049 343.525 242.067C343.65 242.083 343.746 242.112 343.814 242.151V243.673C343.729 243.633 343.618 243.608 343.482 243.596C343.352 243.579 343.242 243.571 343.151 243.571C342.8 243.548 342.471 243.571 342.165 243.639C341.859 243.701 341.59 243.812 341.357 243.97C341.125 244.129 340.941 244.339 340.805 244.599C340.675 244.854 340.609 245.166 340.609 245.534V251H339.045ZM347.685 251.111C347.209 251.111 346.823 251.045 346.529 250.915C346.24 250.785 346.016 250.609 345.857 250.388C345.704 250.167 345.599 249.915 345.543 249.631C345.492 249.342 345.466 249.045 345.466 248.739V238.369H347.013V248.586C347.013 249.028 347.098 249.359 347.268 249.58C347.444 249.801 347.688 249.923 347.999 249.946L348.475 249.954V250.974C348.345 251.014 348.209 251.045 348.067 251.068C347.926 251.096 347.798 251.111 347.685 251.111ZM353.23 251.17C352.618 251.17 352.049 251.077 351.522 250.889C351 250.697 350.567 250.399 350.221 249.997C349.876 249.589 349.657 249.07 349.567 248.441H350.995C351.074 248.787 351.216 249.076 351.42 249.308C351.629 249.535 351.89 249.708 352.202 249.827C352.513 249.94 352.853 249.997 353.222 249.997C353.811 249.997 354.287 249.886 354.65 249.665C355.012 249.444 355.194 249.104 355.194 248.645C355.194 248.322 355.097 248.065 354.905 247.872C354.718 247.674 354.426 247.529 354.029 247.438L352.21 246.988C351.502 246.818 350.935 246.552 350.51 246.189C350.085 245.826 349.873 245.319 349.873 244.667C349.867 244.152 349.989 243.698 350.238 243.307C350.488 242.916 350.862 242.608 351.36 242.381C351.859 242.154 352.479 242.041 353.222 242.041C354.174 242.041 354.942 242.256 355.525 242.687C356.115 243.112 356.421 243.738 356.443 244.565H355.058C355.001 244.146 354.811 243.815 354.488 243.571C354.171 243.322 353.743 243.197 353.205 243.197C352.644 243.197 352.188 243.31 351.836 243.537C351.485 243.758 351.309 244.104 351.309 244.574C351.309 244.886 351.434 245.132 351.683 245.313C351.933 245.489 352.301 245.636 352.788 245.755L354.548 246.198C354.956 246.305 355.29 246.447 355.551 246.622C355.817 246.798 356.027 246.994 356.18 247.209C356.338 247.424 356.449 247.651 356.511 247.889C356.579 248.121 356.613 248.345 356.613 248.56C356.613 249.099 356.477 249.563 356.205 249.954C355.939 250.34 355.554 250.64 355.049 250.855C354.551 251.065 353.944 251.17 353.23 251.17ZM165.198 267.358H163.217V272.824C163.217 273.136 163.249 273.365 163.311 273.512C163.379 273.654 163.489 273.745 163.642 273.784C163.801 273.824 164.016 273.844 164.288 273.844H165.249V274.898C165.141 274.938 164.977 274.972 164.756 275C164.541 275.028 164.271 275.043 163.948 275.043C163.342 275.043 162.872 274.96 162.537 274.796C162.203 274.632 161.968 274.388 161.832 274.065C161.702 273.742 161.636 273.345 161.636 272.875V267.358H160.208V266.211H161.679L162.061 263.652H163.217V266.202H165.198V267.358ZM167.286 275V262.369H168.816V267.503C168.964 267.259 169.162 267.033 169.411 266.823C169.661 266.608 169.964 266.435 170.321 266.304C170.678 266.168 171.091 266.1 171.562 266.1C172.134 266.1 172.653 266.208 173.117 266.423C173.582 266.633 173.95 266.933 174.222 267.324C174.494 267.715 174.63 268.18 174.63 268.718V275H173.058V269.033C173.058 268.506 172.876 268.101 172.514 267.817C172.157 267.528 171.689 267.384 171.111 267.384C170.72 267.384 170.352 267.449 170.006 267.579C169.661 267.704 169.38 267.897 169.165 268.157C168.955 268.412 168.85 268.738 168.85 269.135V275H167.286ZM176.911 275V266.211H178.407V267.902C178.555 267.483 178.761 267.137 179.028 266.865C179.294 266.588 179.597 266.381 179.937 266.245C180.283 266.109 180.64 266.041 181.008 266.041C181.139 266.041 181.266 266.049 181.391 266.067C181.515 266.083 181.612 266.112 181.68 266.151V267.673C181.595 267.633 181.484 267.608 181.348 267.596C181.218 267.579 181.107 267.571 181.017 267.571C180.665 267.548 180.337 267.571 180.031 267.639C179.725 267.701 179.456 267.812 179.223 267.97C178.991 268.129 178.807 268.339 178.671 268.599C178.54 268.854 178.475 269.166 178.475 269.534V275H176.911ZM186.643 275.17C185.833 275.17 185.124 274.997 184.518 274.651C183.912 274.3 183.441 273.787 183.107 273.113C182.773 272.439 182.605 271.614 182.605 270.639C182.605 269.721 182.761 268.917 183.073 268.225C183.385 267.534 183.841 266.999 184.441 266.619C185.048 266.234 185.782 266.041 186.643 266.041C187.453 266.041 188.156 266.219 188.751 266.576C189.352 266.928 189.816 267.446 190.145 268.132C190.474 268.818 190.638 269.653 190.638 270.639C190.638 271.535 190.485 272.322 190.179 273.002C189.879 273.682 189.431 274.215 188.836 274.6C188.247 274.98 187.516 275.17 186.643 275.17ZM186.643 273.929C187.17 273.929 187.615 273.796 187.977 273.529C188.34 273.263 188.615 272.881 188.802 272.382C188.989 271.883 189.082 271.291 189.082 270.605C189.082 269.976 189 269.413 188.836 268.914C188.672 268.41 188.408 268.01 188.045 267.715C187.688 267.421 187.221 267.273 186.643 267.273C186.11 267.273 185.66 267.407 185.291 267.673C184.923 267.934 184.643 268.313 184.45 268.812C184.263 269.311 184.169 269.908 184.169 270.605C184.169 271.223 184.254 271.784 184.424 272.288C184.594 272.793 184.861 273.192 185.223 273.487C185.586 273.782 186.059 273.929 186.643 273.929ZM195.623 275.17C195.164 275.164 194.73 275.099 194.322 274.974C193.92 274.844 193.563 274.654 193.251 274.405C192.939 274.156 192.693 273.847 192.512 273.478C192.336 273.104 192.248 272.671 192.248 272.178V266.211H193.821V272.016C193.821 272.589 193.996 273.053 194.348 273.41C194.705 273.767 195.24 273.946 195.954 273.946C196.6 273.946 197.119 273.779 197.51 273.444C197.906 273.104 198.105 272.6 198.105 271.931V266.211H199.669V275H198.419L198.258 273.317C198.15 273.759 197.966 274.116 197.705 274.388C197.45 274.66 197.141 274.861 196.779 274.991C196.422 275.116 196.036 275.176 195.623 275.17ZM205.624 277.907C204.241 277.907 203.164 277.706 202.394 277.304C201.629 276.907 201.246 276.337 201.246 275.595C201.246 275.278 201.32 275.009 201.467 274.787C201.615 274.561 201.79 274.374 201.994 274.226C202.198 274.079 202.388 273.963 202.564 273.878C202.739 273.787 202.853 273.722 202.904 273.682C202.807 273.626 202.686 273.555 202.538 273.47C202.397 273.385 202.272 273.272 202.164 273.13C202.057 272.988 202.003 272.804 202.003 272.577C202.003 272.3 202.133 272.045 202.394 271.812C202.654 271.58 203.04 271.407 203.55 271.294C203.034 271.033 202.632 270.688 202.343 270.257C202.054 269.826 201.909 269.359 201.909 268.854C201.909 268.288 202.062 267.795 202.368 267.375C202.68 266.956 203.122 266.636 203.694 266.415C204.267 266.188 204.947 266.075 205.734 266.075C206.307 266.075 206.788 266.143 207.179 266.279C207.57 266.409 207.933 266.596 208.267 266.84C208.358 266.8 208.5 266.741 208.692 266.661C208.891 266.576 209.109 266.486 209.347 266.389C209.585 266.293 209.806 266.202 210.01 266.117C210.219 266.027 210.387 265.959 210.511 265.913L210.503 267.367L208.964 267.656C209.049 267.837 209.117 268.036 209.168 268.251C209.225 268.466 209.253 268.667 209.253 268.854C209.253 269.37 209.117 269.838 208.845 270.257C208.579 270.676 208.174 271.011 207.63 271.26C207.086 271.509 206.406 271.634 205.59 271.634C205.522 271.634 205.434 271.634 205.326 271.634C205.224 271.628 205.136 271.623 205.063 271.617C204.462 271.634 204.048 271.702 203.822 271.821C203.595 271.934 203.482 272.062 203.482 272.203C203.482 272.368 203.609 272.481 203.864 272.543C204.119 272.606 204.553 272.66 205.165 272.705C205.386 272.716 205.658 272.73 205.981 272.747C206.309 272.764 206.672 272.787 207.069 272.816C207.992 272.872 208.704 273.107 209.202 273.521C209.701 273.935 209.95 274.493 209.95 275.196C209.95 275.995 209.593 276.646 208.879 277.151C208.165 277.655 207.08 277.907 205.624 277.907ZM205.904 276.896C206.715 276.896 207.335 276.774 207.766 276.53C208.196 276.286 208.412 275.918 208.412 275.425C208.412 275.074 208.279 274.787 208.012 274.566C207.752 274.34 207.352 274.209 206.814 274.175L204.349 274.014C204.128 274.003 203.898 274.059 203.66 274.184C203.422 274.303 203.218 274.47 203.048 274.685C202.884 274.901 202.802 275.145 202.802 275.417C202.802 275.881 203.054 276.244 203.558 276.505C204.068 276.765 204.85 276.896 205.904 276.896ZM205.632 270.622C206.267 270.622 206.777 270.475 207.162 270.18C207.553 269.886 207.749 269.449 207.749 268.871C207.749 268.276 207.553 267.823 207.162 267.511C206.777 267.2 206.267 267.044 205.632 267.044C204.992 267.044 204.473 267.203 204.077 267.52C203.686 267.832 203.49 268.282 203.49 268.871C203.49 269.427 203.677 269.857 204.051 270.163C204.425 270.469 204.952 270.622 205.632 270.622ZM212.306 275V262.369H213.836V267.503C213.984 267.259 214.182 267.033 214.431 266.823C214.681 266.608 214.984 266.435 215.341 266.304C215.698 266.168 216.112 266.1 216.582 266.1C217.154 266.1 217.673 266.208 218.137 266.423C218.602 266.633 218.97 266.933 219.242 267.324C219.514 267.715 219.65 268.18 219.65 268.718V275H218.078V269.033C218.078 268.506 217.897 268.101 217.534 267.817C217.177 267.528 216.709 267.384 216.131 267.384C215.74 267.384 215.372 267.449 215.026 267.579C214.681 267.704 214.4 267.897 214.185 268.157C213.975 268.412 213.87 268.738 213.87 269.135V275H212.306ZM230.161 267.358H228.181V272.824C228.181 273.136 228.212 273.365 228.274 273.512C228.342 273.654 228.453 273.745 228.606 273.784C228.764 273.824 228.98 273.844 229.252 273.844H230.212V274.898C230.105 274.938 229.94 274.972 229.719 275C229.504 275.028 229.235 275.043 228.912 275.043C228.305 275.043 227.835 274.96 227.501 274.796C227.166 274.632 226.931 274.388 226.795 274.065C226.665 273.742 226.6 273.345 226.6 272.875V267.358H225.172V266.211H226.642L227.025 263.652H228.181V266.202H230.161V267.358ZM232.25 275V262.369H233.78V267.503C233.927 267.259 234.125 267.033 234.375 266.823C234.624 266.608 234.927 266.435 235.284 266.304C235.641 266.168 236.055 266.1 236.525 266.1C237.097 266.1 237.616 266.208 238.081 266.423C238.545 266.633 238.914 266.933 239.186 267.324C239.458 267.715 239.594 268.18 239.594 268.718V275H238.021V269.033C238.021 268.506 237.84 268.101 237.477 267.817C237.12 267.528 236.653 267.384 236.075 267.384C235.684 267.384 235.315 267.449 234.97 267.579C234.624 267.704 234.343 267.897 234.128 268.157C233.918 268.412 233.814 268.738 233.814 269.135V275H232.25ZM242.996 270.971C242.996 271.526 243.087 272.031 243.268 272.484C243.455 272.932 243.736 273.289 244.11 273.555C244.49 273.821 244.963 273.954 245.529 273.954C246.09 273.954 246.572 273.824 246.974 273.563C247.382 273.303 247.643 272.926 247.756 272.433H249.244C249.136 273.028 248.898 273.529 248.53 273.938C248.162 274.345 247.717 274.654 247.195 274.864C246.674 275.068 246.13 275.17 245.563 275.17C244.742 275.17 244.019 274.992 243.396 274.634C242.773 274.277 242.285 273.765 241.934 273.096C241.583 272.427 241.407 271.625 241.407 270.69C241.407 269.767 241.566 268.956 241.883 268.259C242.2 267.562 242.659 267.018 243.26 266.627C243.866 266.236 244.594 266.041 245.444 266.041C246.272 266.041 246.972 266.219 247.544 266.576C248.116 266.933 248.55 267.438 248.844 268.089C249.145 268.735 249.295 269.503 249.295 270.393V270.971H242.996ZM243.005 269.908H247.782C247.782 269.404 247.697 268.951 247.527 268.548C247.357 268.14 247.096 267.82 246.745 267.588C246.399 267.35 245.963 267.231 245.436 267.231C244.886 267.231 244.43 267.364 244.067 267.63C243.71 267.891 243.441 268.228 243.26 268.642C243.084 269.05 242.999 269.472 243.005 269.908ZM258.21 275.17C257.399 275.17 256.691 274.997 256.085 274.651C255.478 274.3 255.008 273.787 254.674 273.113C254.339 272.439 254.172 271.614 254.172 270.639C254.172 269.721 254.328 268.917 254.64 268.225C254.951 267.534 255.407 266.999 256.008 266.619C256.614 266.234 257.348 266.041 258.21 266.041C259.02 266.041 259.723 266.219 260.318 266.576C260.918 266.928 261.383 267.446 261.712 268.132C262.04 268.818 262.205 269.653 262.205 270.639C262.205 271.535 262.052 272.322 261.746 273.002C261.445 273.682 260.998 274.215 260.403 274.6C259.813 274.98 259.082 275.17 258.21 275.17ZM258.21 273.929C258.737 273.929 259.181 273.796 259.544 273.529C259.907 273.263 260.182 272.881 260.369 272.382C260.556 271.883 260.649 271.291 260.649 270.605C260.649 269.976 260.567 269.413 260.403 268.914C260.238 268.41 259.975 268.01 259.612 267.715C259.255 267.421 258.788 267.273 258.21 267.273C257.677 267.273 257.226 267.407 256.858 267.673C256.49 267.934 256.209 268.313 256.017 268.812C255.83 269.311 255.736 269.908 255.736 270.605C255.736 271.223 255.821 271.784 255.991 272.288C256.161 272.793 256.427 273.192 256.79 273.487C257.153 273.782 257.626 273.929 258.21 273.929ZM264.092 275V266.211H265.614V267.486C265.755 267.242 265.951 267.013 266.2 266.797C266.455 266.582 266.761 266.409 267.118 266.279C267.481 266.149 267.897 266.083 268.368 266.083C268.923 266.083 269.433 266.194 269.898 266.415C270.368 266.636 270.742 266.982 271.02 267.452C271.303 267.917 271.445 268.517 271.445 269.254V275H269.872V269.407C269.872 268.721 269.691 268.214 269.328 267.885C268.971 267.551 268.506 267.384 267.934 267.384C267.537 267.384 267.166 267.449 266.821 267.579C266.475 267.704 266.194 267.897 265.979 268.157C265.764 268.412 265.656 268.735 265.656 269.126V275H264.092ZM277.797 269.985V271.226L273.487 271.234V270.002L277.797 269.985ZM283.607 266.041C284.236 266.041 284.802 266.163 285.307 266.406C285.811 266.644 286.222 266.984 286.539 267.426C286.862 267.868 287.063 268.39 287.143 268.99H285.749C285.698 268.684 285.579 268.404 285.392 268.149C285.21 267.894 284.969 267.69 284.669 267.537C284.369 267.384 284.017 267.307 283.615 267.307C282.861 267.307 282.249 267.579 281.779 268.123C281.309 268.667 281.074 269.5 281.074 270.622C281.074 271.637 281.289 272.45 281.72 273.062C282.156 273.668 282.796 273.971 283.641 273.971C284.043 273.971 284.391 273.895 284.686 273.742C284.986 273.583 285.227 273.376 285.409 273.121C285.59 272.861 285.706 272.583 285.757 272.288H287.126C287.052 272.878 286.854 273.388 286.531 273.818C286.208 274.249 285.794 274.583 285.29 274.821C284.791 275.054 284.23 275.17 283.607 275.17C282.819 275.17 282.119 274.997 281.507 274.651C280.901 274.306 280.425 273.796 280.079 273.121C279.733 272.447 279.561 271.62 279.561 270.639C279.561 269.721 279.716 268.92 280.028 268.234C280.345 267.543 280.804 267.004 281.405 266.619C282.011 266.234 282.745 266.041 283.607 266.041ZM289.099 275V262.369H290.629V267.503C290.776 267.259 290.974 267.033 291.224 266.823C291.473 266.608 291.776 266.435 292.133 266.304C292.49 266.168 292.904 266.1 293.374 266.1C293.946 266.1 294.465 266.208 294.93 266.423C295.394 266.633 295.763 266.933 296.035 267.324C296.307 267.715 296.443 268.18 296.443 268.718V275H294.87V269.033C294.87 268.506 294.689 268.101 294.326 267.817C293.969 267.528 293.502 267.384 292.924 267.384C292.533 267.384 292.164 267.449 291.819 267.579C291.473 267.704 291.192 267.897 290.977 268.157C290.767 268.412 290.663 268.738 290.663 269.135V275H289.099ZM301.121 275.17C300.555 275.17 300.053 275.071 299.617 274.872C299.18 274.668 298.838 274.377 298.588 273.997C298.345 273.617 298.223 273.158 298.223 272.62C298.223 271.645 298.563 270.92 299.243 270.444C299.923 269.968 301.014 269.713 302.515 269.679L304.088 269.636V268.948C304.088 268.41 303.926 267.985 303.603 267.673C303.28 267.356 302.779 267.197 302.099 267.197C301.594 267.203 301.15 267.322 300.764 267.554C300.385 267.786 300.138 268.166 300.025 268.693H298.639C298.673 268.121 298.835 267.639 299.124 267.248C299.413 266.851 299.815 266.551 300.331 266.347C300.852 266.143 301.467 266.041 302.175 266.041C302.94 266.041 303.575 266.149 304.079 266.364C304.589 266.579 304.969 266.897 305.218 267.316C305.473 267.735 305.601 268.251 305.601 268.863V275H304.258L304.147 273.351C303.807 274.037 303.374 274.513 302.847 274.779C302.325 275.04 301.75 275.17 301.121 275.17ZM301.597 274.039C301.892 274.039 302.184 273.986 302.473 273.878C302.767 273.77 303.037 273.626 303.28 273.444C303.524 273.257 303.717 273.051 303.858 272.824C304.006 272.592 304.082 272.354 304.088 272.11V270.605L302.779 270.631C302.11 270.642 301.549 270.71 301.096 270.835C300.648 270.96 300.311 271.155 300.084 271.421C299.863 271.688 299.753 272.036 299.753 272.467C299.753 272.96 299.923 273.345 300.263 273.623C300.608 273.901 301.053 274.039 301.597 274.039ZM309.816 266.211V275H308.295V266.211H309.816ZM309.85 262.717V264.349H308.244V262.717H309.85ZM312.511 275V266.211H314.033V267.486C314.175 267.242 314.37 267.013 314.619 266.797C314.874 266.582 315.18 266.409 315.537 266.279C315.9 266.149 316.317 266.083 316.787 266.083C317.342 266.083 317.852 266.194 318.317 266.415C318.787 266.636 319.161 266.982 319.439 267.452C319.722 267.917 319.864 268.517 319.864 269.254V275H318.291V269.407C318.291 268.721 318.11 268.214 317.747 267.885C317.39 267.551 316.926 267.384 316.353 267.384C315.957 267.384 315.586 267.449 315.24 267.579C314.894 267.704 314.614 267.897 314.398 268.157C314.183 268.412 314.075 268.735 314.075 269.126V275H312.511ZM329.607 277.907C328.224 277.907 327.148 277.706 326.377 277.304C325.612 276.907 325.229 276.337 325.229 275.595C325.229 275.278 325.303 275.009 325.45 274.787C325.598 274.561 325.773 274.374 325.977 274.226C326.181 274.079 326.371 273.963 326.547 273.878C326.723 273.787 326.836 273.722 326.887 273.682C326.791 273.626 326.669 273.555 326.521 273.47C326.38 273.385 326.255 273.272 326.147 273.13C326.04 272.988 325.986 272.804 325.986 272.577C325.986 272.3 326.116 272.045 326.377 271.812C326.638 271.58 327.023 271.407 327.533 271.294C327.017 271.033 326.615 270.688 326.326 270.257C326.037 269.826 325.892 269.359 325.892 268.854C325.892 268.288 326.045 267.795 326.351 267.375C326.663 266.956 327.105 266.636 327.677 266.415C328.25 266.188 328.93 266.075 329.717 266.075C330.29 266.075 330.771 266.143 331.162 266.279C331.553 266.409 331.916 266.596 332.25 266.84C332.341 266.8 332.483 266.741 332.675 266.661C332.874 266.576 333.092 266.486 333.33 266.389C333.568 266.293 333.789 266.202 333.993 266.117C334.203 266.027 334.37 265.959 334.494 265.913L334.486 267.367L332.947 267.656C333.032 267.837 333.1 268.036 333.151 268.251C333.208 268.466 333.236 268.667 333.236 268.854C333.236 269.37 333.1 269.838 332.828 270.257C332.562 270.676 332.157 271.011 331.613 271.26C331.069 271.509 330.389 271.634 329.573 271.634C329.505 271.634 329.417 271.634 329.309 271.634C329.207 271.628 329.12 271.623 329.046 271.617C328.445 271.634 328.032 271.702 327.805 271.821C327.578 271.934 327.465 272.062 327.465 272.203C327.465 272.368 327.592 272.481 327.847 272.543C328.102 272.606 328.536 272.66 329.148 272.705C329.369 272.716 329.641 272.73 329.964 272.747C330.293 272.764 330.655 272.787 331.052 272.816C331.976 272.872 332.687 273.107 333.185 273.521C333.684 273.935 333.933 274.493 333.933 275.196C333.933 275.995 333.576 276.646 332.862 277.151C332.148 277.655 331.063 277.907 329.607 277.907ZM329.887 276.896C330.698 276.896 331.318 276.774 331.749 276.53C332.18 276.286 332.395 275.918 332.395 275.425C332.395 275.074 332.262 274.787 331.995 274.566C331.735 274.34 331.335 274.209 330.797 274.175L328.332 274.014C328.111 274.003 327.881 274.059 327.643 274.184C327.405 274.303 327.201 274.47 327.031 274.685C326.867 274.901 326.785 275.145 326.785 275.417C326.785 275.881 327.037 276.244 327.541 276.505C328.051 276.765 328.833 276.896 329.887 276.896ZM329.615 270.622C330.25 270.622 330.76 270.475 331.145 270.18C331.536 269.886 331.732 269.449 331.732 268.871C331.732 268.276 331.536 267.823 331.145 267.511C330.76 267.2 330.25 267.044 329.615 267.044C328.975 267.044 328.457 267.203 328.06 267.52C327.669 267.832 327.473 268.282 327.473 268.871C327.473 269.427 327.66 269.857 328.034 270.163C328.408 270.469 328.935 270.622 329.615 270.622ZM338.508 275.111C338.032 275.111 337.647 275.045 337.352 274.915C337.063 274.785 336.839 274.609 336.681 274.388C336.528 274.167 336.423 273.915 336.366 273.631C336.315 273.342 336.29 273.045 336.29 272.739V262.369H337.837V272.586C337.837 273.028 337.922 273.359 338.092 273.58C338.267 273.801 338.511 273.923 338.823 273.946L339.299 273.954V274.974C339.168 275.014 339.032 275.045 338.891 275.068C338.749 275.096 338.621 275.111 338.508 275.111ZM343.531 275.17C342.964 275.17 342.463 275.071 342.026 274.872C341.59 274.668 341.247 274.377 340.998 273.997C340.754 273.617 340.632 273.158 340.632 272.62C340.632 271.645 340.972 270.92 341.652 270.444C342.332 269.968 343.423 269.713 344.925 269.679L346.497 269.636V268.948C346.497 268.41 346.336 267.985 346.013 267.673C345.69 267.356 345.188 267.197 344.508 267.197C344.004 267.203 343.559 267.322 343.174 267.554C342.794 267.786 342.548 268.166 342.434 268.693H341.049C341.083 268.121 341.244 267.639 341.533 267.248C341.822 266.851 342.225 266.551 342.74 266.347C343.262 266.143 343.877 266.041 344.585 266.041C345.35 266.041 345.985 266.149 346.489 266.364C346.999 266.579 347.379 266.897 347.628 267.316C347.883 267.735 348.01 268.251 348.01 268.863V275H346.667L346.557 273.351C346.217 274.037 345.783 274.513 345.256 274.779C344.735 275.04 344.16 275.17 343.531 275.17ZM344.007 274.039C344.302 274.039 344.593 273.986 344.882 273.878C345.177 273.77 345.446 273.626 345.69 273.444C345.934 273.257 346.126 273.051 346.268 272.824C346.415 272.592 346.492 272.354 346.497 272.11V270.605L345.188 270.631C344.52 270.642 343.959 270.71 343.505 270.835C343.058 270.96 342.721 271.155 342.494 271.421C342.273 271.688 342.162 272.036 342.162 272.467C342.162 272.96 342.332 273.345 342.672 273.623C343.018 273.901 343.463 274.039 344.007 274.039ZM353.512 275.17C352.9 275.17 352.331 275.077 351.804 274.889C351.283 274.697 350.849 274.399 350.503 273.997C350.158 273.589 349.94 273.07 349.849 272.441H351.277C351.356 272.787 351.498 273.076 351.702 273.308C351.912 273.535 352.172 273.708 352.484 273.827C352.796 273.94 353.136 273.997 353.504 273.997C354.093 273.997 354.569 273.886 354.932 273.665C355.295 273.444 355.476 273.104 355.476 272.645C355.476 272.322 355.38 272.065 355.187 271.872C355 271.674 354.708 271.529 354.311 271.438L352.492 270.988C351.784 270.818 351.217 270.552 350.792 270.189C350.367 269.826 350.155 269.319 350.155 268.667C350.149 268.152 350.271 267.698 350.52 267.307C350.77 266.916 351.144 266.608 351.642 266.381C352.141 266.154 352.762 266.041 353.504 266.041C354.456 266.041 355.224 266.256 355.807 266.687C356.397 267.112 356.703 267.738 356.725 268.565H355.34C355.283 268.146 355.093 267.815 354.77 267.571C354.453 267.322 354.025 267.197 353.487 267.197C352.926 267.197 352.47 267.31 352.118 267.537C351.767 267.758 351.591 268.104 351.591 268.574C351.591 268.886 351.716 269.132 351.965 269.313C352.215 269.489 352.583 269.636 353.07 269.755L354.83 270.198C355.238 270.305 355.572 270.447 355.833 270.622C356.099 270.798 356.309 270.994 356.462 271.209C356.621 271.424 356.731 271.651 356.793 271.889C356.861 272.121 356.895 272.345 356.895 272.56C356.895 273.099 356.759 273.563 356.487 273.954C356.221 274.34 355.836 274.64 355.331 274.855C354.833 275.065 354.226 275.17 353.512 275.17ZM361.909 275.17C361.297 275.17 360.727 275.077 360.2 274.889C359.679 274.697 359.245 274.399 358.9 273.997C358.554 273.589 358.336 273.07 358.245 272.441H359.673C359.753 272.787 359.894 273.076 360.098 273.308C360.308 273.535 360.569 273.708 360.88 273.827C361.192 273.94 361.532 273.997 361.9 273.997C362.49 273.997 362.966 273.886 363.328 273.665C363.691 273.444 363.872 273.104 363.872 272.645C363.872 272.322 363.776 272.065 363.583 271.872C363.396 271.674 363.104 271.529 362.708 271.438L360.889 270.988C360.18 270.818 359.614 270.552 359.189 270.189C358.764 269.826 358.551 269.319 358.551 268.667C358.546 268.152 358.667 267.698 358.917 267.307C359.166 266.916 359.54 266.608 360.039 266.381C360.537 266.154 361.158 266.041 361.9 266.041C362.852 266.041 363.62 266.256 364.204 266.687C364.793 267.112 365.099 267.738 365.122 268.565H363.736C363.68 268.146 363.49 267.815 363.167 267.571C362.849 267.322 362.422 267.197 361.883 267.197C361.322 267.197 360.866 267.31 360.515 267.537C360.163 267.758 359.988 268.104 359.988 268.574C359.988 268.886 360.112 269.132 360.362 269.313C360.611 269.489 360.979 269.636 361.467 269.755L363.226 270.198C363.634 270.305 363.969 270.447 364.229 270.622C364.496 270.798 364.705 270.994 364.858 271.209C365.017 271.424 365.127 271.651 365.19 271.889C365.258 272.121 365.292 272.345 365.292 272.56C365.292 273.099 365.156 273.563 364.884 273.954C364.617 274.34 364.232 274.64 363.728 274.855C363.229 275.065 362.623 275.17 361.909 275.17ZM370.976 273.019V275H369.115V273.019H370.976ZM366.293 264.995C366.655 264.225 367.191 263.624 367.899 263.193C368.613 262.757 369.426 262.539 370.339 262.539C371.098 262.539 371.761 262.666 372.328 262.921C372.894 263.171 373.331 263.519 373.637 263.967C373.948 264.409 374.104 264.916 374.104 265.488C374.104 266.066 373.991 266.568 373.764 266.993C373.538 267.412 373.254 267.798 372.914 268.149C372.58 268.5 372.243 268.852 371.903 269.203C371.568 269.549 371.285 269.934 371.053 270.359C370.826 270.778 370.713 271.271 370.713 271.838H369.37C369.37 271.192 369.475 270.634 369.684 270.163C369.894 269.687 370.155 269.262 370.466 268.888C370.778 268.509 371.087 268.152 371.393 267.817C371.704 267.477 371.965 267.129 372.175 266.772C372.39 266.409 372.498 266.004 372.498 265.556C372.498 264.995 372.297 264.553 371.894 264.23C371.492 263.902 370.968 263.737 370.322 263.737C369.953 263.737 369.591 263.811 369.234 263.958C368.882 264.106 368.568 264.307 368.29 264.562C368.018 264.811 367.82 265.095 367.695 265.412L366.293 264.995Z" fill="black"/>
<path d="M190.5 92.5C143.333 87.6667 42.7 97.3 17.5 174.5C-14 271 19 334 76 371C121.6 400.6 246.667 394 303.5 387C360.5 388.5 480.1 378.6 502.5 327C530.5 262.5 544 202.5 502.5 152C461 101.5 414.5 92.5 355 92.5" stroke="black" stroke-width="10" stroke-linecap="round"/>
</svg>
