<svg width="535" height="398" viewBox="0 0 535 398" fill="none" xmlns="http://www.w3.org/2000/svg">
<rect y="91" width="535" height="296" rx="148" fill="white"/>
<path fill-rule="evenodd" clip-rule="evenodd" d="M276.654 127.846C277.229 127.271 277.969 126.888 278.766 126.727C307.996 120.81 330 94.9746 330 64C330 28.6538 301.346 0 266 0C230.654 0 202 28.6538 202 64C202 94.5526 223.409 120.105 252.043 126.474C252.811 126.644 253.521 127.021 254.077 127.577L262.672 136.172C264.234 137.734 266.766 137.734 268.328 136.172L276.654 127.846Z" fill="white"/>
<path d="M270.319 45.2978C262.767 52.0753 235.645 76.4336 242.006 84.9138C244.04 87.6266 252.666 96.4728 256.006 96.4152C265.011 96.26 289.973 78.1019 291.788 70.8423C292.773 66.9027 291.648 66.0571 288.267 63.2457C281.419 57.5508 276.886 48.9091 269.552 44.0198" stroke="black" stroke-width="10" stroke-linecap="round"/>
<path d="M274.663 43.7643C279.229 39.1985 285.844 40.5186 290.055 44.7299C296.045 50.7193 299.431 55.0575 295.11 63.7001" stroke="black" stroke-width="10" stroke-linecap="round"/>
<path d="M257 37.6453C258.903 35.5959 260.916 33.9617 263.404 32.6613C264.655 32.0072 266.267 31 267.735 31" stroke="black" stroke-width="10" stroke-linecap="round"/>
<path d="M290 92.69C294.225 90.7507 297.067 88.1225 300.223 84" stroke="black" stroke-width="10" stroke-linecap="round"/>
<path d="M252.5 126.5C256.961 126.996 259.52 138.111 265.69 138.765C272.213 139.457 270.5 125.778 292.5 121.5C319.343 116.281 332.355 96.9237 333.5 66C334.746 32.3602 315.6 5 276 5C241.663 5 214.203 20.685 207 55.5C201 84.5 218.127 114.657 237.5 119.5" stroke="black" stroke-width="10" stroke-linecap="round"/>
<path d="M167.542 168.048C168.566 167.376 169.414 167.04 170.086 167.04C170.438 167.04 170.71 167.056 170.902 167.088C172.662 167.344 174.358 168.192 175.99 169.632C176.534 170.112 176.806 170.704 176.806 171.408C176.806 172.176 176.502 172.848 175.894 173.424C175.318 174 174.71 174.288 174.07 174.288C173.558 174.288 172.998 174.112 172.39 173.76C171.814 173.408 171.27 173.232 170.758 173.232C170.15 173.232 169.718 173.552 169.462 174.192C169.238 174.8 169.126 175.264 169.126 175.584C169.126 176.192 169.67 177.2 170.758 178.608C172.23 180.528 173.254 182.176 173.83 183.552C174.438 184.928 174.79 186.528 174.886 188.352C174.886 188.512 174.886 188.72 174.886 188.976C174.918 189.232 174.934 189.424 174.934 189.552C174.934 190.96 174.726 192.096 174.31 192.96C173.926 193.824 173.206 194.736 172.15 195.696C171.126 196.592 169.718 197.184 167.926 197.472C166.582 197.696 165.782 197.808 165.526 197.808C165.014 197.808 164.502 197.664 163.99 197.376C162.518 196.576 161.782 195.6 161.782 194.448C161.782 193.84 162.022 193.216 162.502 192.576C162.79 192.192 163.062 191.952 163.318 191.856C163.574 191.728 164.006 191.664 164.614 191.664C164.71 191.664 164.87 191.68 165.094 191.712C165.318 191.712 165.51 191.712 165.67 191.712H166.438C167.174 191.712 167.686 191.664 167.974 191.568C168.262 191.44 168.534 191.2 168.79 190.848C169.174 190.368 169.366 189.76 169.366 189.024C169.366 187.008 168.054 184.352 165.43 181.056C163.958 179.2 163.222 177.472 163.222 175.872C163.222 175.168 163.318 174.432 163.51 173.664C164.15 171.232 165.494 169.36 167.542 168.048ZM194.028 168.576C194.7 168 195.34 167.712 195.948 167.712C196.588 167.712 197.196 168.016 197.772 168.624C198.22 169.072 198.476 169.536 198.54 170.016C198.636 170.496 198.684 171.744 198.684 173.76C198.684 175.616 198.716 176.848 198.78 177.456C198.876 178.064 199.084 178.576 199.404 178.992C199.884 179.568 200.124 180.16 200.124 180.768C200.124 181.408 199.884 182.016 199.404 182.592C198.956 183.168 198.732 183.84 198.732 184.608C198.732 185.344 198.764 185.984 198.828 186.528C198.924 187.424 198.972 188.08 198.972 188.496C198.972 189.168 198.7 189.776 198.156 190.32C197.548 190.928 196.892 191.232 196.188 191.232C195.484 191.232 194.844 190.928 194.268 190.32C193.724 189.68 193.388 188.832 193.26 187.776C193.132 186.656 192.924 186.096 192.636 186.096C192.348 186.096 191.484 186.384 190.044 186.96L187.836 187.776L187.788 191.424C187.788 193.184 187.74 194.272 187.644 194.688C187.548 195.072 187.26 195.472 186.78 195.888C186.044 196.496 185.516 196.8 185.196 196.8C184.748 196.8 184.188 196.592 183.516 196.176C182.876 195.76 182.492 195.376 182.364 195.024C182.236 194.48 182.14 191.088 182.076 184.848L181.98 175.296L182.988 174.48C183.66 173.904 184.204 173.616 184.62 173.616C184.908 173.616 185.356 173.744 185.964 174C186.572 174.288 187.068 174.928 187.452 175.92C187.836 176.88 188.028 178 188.028 179.28C188.028 179.696 188.028 180 188.028 180.192C188.028 180.352 188.044 180.528 188.076 180.72C188.14 180.912 188.204 181.04 188.268 181.104C188.364 181.168 188.476 181.2 188.604 181.2C188.892 181.2 189.676 180.896 190.956 180.288L192.972 179.28V169.488L194.028 168.576ZM221.022 182.736C220.83 181.296 220.654 180.496 220.494 180.336H220.446C220.19 180.336 219.566 180.96 218.574 182.208C217.614 183.456 217.134 184.24 217.134 184.56C217.134 184.752 217.822 184.848 219.198 184.848H221.262L221.022 182.736ZM227.022 185.232C227.022 185.648 227.326 187.264 227.934 190.08C228.542 192.896 228.846 194.528 228.846 194.976C228.846 195.808 228.606 196.464 228.126 196.944C227.646 197.424 226.99 197.664 226.158 197.664C224.558 197.664 223.486 196.336 222.942 193.68C222.654 192.24 222.366 191.376 222.078 191.088C221.822 190.768 221.102 190.608 219.918 190.608C219.758 190.608 219.454 190.624 219.006 190.656C218.558 190.656 218.174 190.656 217.854 190.656C215.486 190.688 214.062 190.848 213.582 191.136C213.134 191.424 212.606 192.464 211.998 194.256C211.55 195.568 210.974 196.656 210.27 197.52C209.566 198.352 208.894 198.768 208.254 198.768C207.614 198.768 206.974 198.512 206.334 198C205.726 197.456 205.422 196.896 205.422 196.32C205.422 195.776 205.694 194.72 206.238 193.152C206.814 191.552 207.39 190.224 207.966 189.168C208.478 188.208 208.734 187.504 208.734 187.056C208.734 186.64 209.07 186 209.742 185.136C210.574 184.176 211.262 183.168 211.806 182.112C212.67 180.672 213.774 179.072 215.118 177.312C216.782 175.168 217.806 173.68 218.19 172.848C218.702 171.856 219.166 171.232 219.582 170.976C220.03 170.72 220.59 170.592 221.262 170.592C222.094 170.592 222.766 170.768 223.278 171.12C223.854 171.504 224.366 172.352 224.814 173.664C225.198 174.656 225.662 176.592 226.206 179.472C226.75 182.352 227.022 184.272 227.022 185.232ZM234.83 170.88C235.438 170.24 236.158 169.92 236.99 169.92C237.758 169.92 238.398 170.192 238.91 170.736C239.39 171.248 239.63 171.92 239.63 172.752C239.63 172.848 239.614 172.992 239.582 173.184C239.582 173.376 239.582 173.536 239.582 173.664C239.55 173.888 239.534 174.192 239.534 174.576C239.534 175.376 239.598 175.84 239.726 175.968C239.758 176 239.79 176.016 239.822 176.016C240.11 176.016 240.718 175.792 241.646 175.344C242.606 174.864 243.406 174.384 244.046 173.904C244.718 173.424 245.278 172.736 245.726 171.84C246.43 170.56 247.374 169.92 248.558 169.92C249.294 169.92 249.934 170.208 250.478 170.784C251.022 171.328 251.294 172.048 251.294 172.944C251.294 173.136 251.262 173.424 251.198 173.808C250.846 175.664 248.846 177.68 245.198 179.856C242.958 181.168 241.838 181.856 241.838 181.92C241.838 182.08 242.542 182.496 243.95 183.168C245.39 183.808 246.766 184.352 248.078 184.8C250.318 185.536 251.87 186.144 252.734 186.624C253.598 187.072 254.094 187.6 254.222 188.208C254.286 188.592 254.318 188.864 254.318 189.024C254.318 190.24 253.822 191.088 252.83 191.568C252.446 191.792 252.11 191.904 251.822 191.904C251.31 191.904 250.046 191.568 248.03 190.896C245.566 190.096 243.726 189.392 242.51 188.784C241.358 188.24 240.574 187.968 240.158 187.968C239.806 187.968 239.63 188.128 239.63 188.448C239.63 188.832 239.23 189.344 238.43 189.984C237.63 190.592 236.974 190.896 236.462 190.896C235.822 190.896 235.246 190.608 234.734 190.032C234.382 189.68 234.158 189.2 234.062 188.592C233.966 187.984 233.918 186.464 233.918 184.032V180.528C233.918 176.272 233.95 173.728 234.014 172.896C234.11 172.032 234.382 171.36 234.83 170.88ZM271.178 165.072C272.362 164.816 273.226 164.688 273.77 164.688C274.634 164.688 275.322 164.944 275.834 165.456C276.378 165.968 276.65 166.576 276.65 167.28C276.65 167.856 276.458 168.416 276.074 168.96C275.722 169.472 275.226 169.856 274.586 170.112C274.17 170.304 272.666 170.656 270.074 171.168L266.618 171.792L266.138 173.808C265.85 175.184 265.706 176.176 265.706 176.784C265.706 177.488 265.914 177.84 266.33 177.84C266.49 177.84 267.45 177.632 269.21 177.216C270.97 176.8 272.106 176.592 272.618 176.592C272.778 176.592 272.874 176.608 272.906 176.64C274.186 177.056 274.826 177.936 274.826 179.28C274.826 180.24 274.474 180.992 273.77 181.536C273.066 182.048 271.658 182.576 269.546 183.12C267.85 183.568 266.714 183.904 266.138 184.128C265.594 184.352 265.322 184.608 265.322 184.896C265.322 185.056 265.402 185.248 265.562 185.472C265.786 185.824 266.41 186 267.434 186C268.106 186 268.666 185.984 269.114 185.952C269.338 185.952 269.626 185.952 269.978 185.952C270.33 185.92 270.57 185.904 270.698 185.904C271.402 185.904 271.898 185.968 272.186 186.096C272.506 186.192 272.842 186.416 273.194 186.768C273.802 187.376 274.106 188.08 274.106 188.88C274.106 189.52 273.882 190.112 273.434 190.656C273.178 191.008 272.794 191.264 272.282 191.424C271.77 191.552 270.858 191.68 269.546 191.808C268.586 191.904 267.754 191.952 267.05 191.952C264.842 191.952 263.114 191.28 261.866 189.936C260.266 188.304 259.466 185.856 259.466 182.592C259.466 180.864 259.658 178.736 260.042 176.208C260.298 174.672 260.426 173.552 260.426 172.848C260.426 172.336 260.298 171.904 260.042 171.552C259.69 171.072 259.514 170.496 259.514 169.824C259.514 169.056 259.722 168.448 260.138 168C260.618 167.456 262.282 166.896 265.13 166.32C266.73 166 268.746 165.584 271.178 165.072ZM305.727 183.072C305.023 182.688 304.015 182.496 302.703 182.496C302.255 182.496 301.919 182.512 301.695 182.544L300.495 182.688V189.696L301.647 189.456C302.511 189.296 303.583 188.832 304.863 188.064C306.175 187.264 306.943 186.608 307.167 186.096C307.263 185.904 307.311 185.696 307.311 185.472C307.311 185.024 307.151 184.576 306.831 184.128C306.543 183.648 306.175 183.296 305.727 183.072ZM301.983 172.368C301.983 172.144 301.839 172.032 301.551 172.032C301.199 172.032 300.879 172.176 300.591 172.464C300.303 172.752 300.159 173.28 300.159 174.048C300.159 174.656 300.271 174.96 300.495 174.96C300.687 174.96 300.975 174.608 301.359 173.904C301.775 173.2 301.983 172.688 301.983 172.368ZM298.479 167.04C299.151 166.72 300.159 166.56 301.503 166.56C302.879 166.56 303.951 166.72 304.719 167.04C305.423 167.328 306.047 167.872 306.591 168.672C307.167 169.44 307.535 170.304 307.695 171.264C307.727 171.392 307.743 171.584 307.743 171.84C307.743 172.16 307.535 172.88 307.119 174C306.703 175.12 306.495 176.016 306.495 176.688C306.495 177.008 307.023 177.44 308.079 177.984C310.191 179.104 311.615 180.56 312.351 182.352C312.735 183.28 312.927 184.272 312.927 185.328C312.927 187.504 312.287 189.264 311.007 190.608C309.887 191.792 308.143 192.896 305.775 193.92C303.407 194.944 301.407 195.456 299.775 195.456C298.655 195.456 297.759 195.2 297.087 194.688C296.447 194.144 296.127 193.424 296.127 192.528C296.127 191.76 295.903 191.072 295.455 190.464C295.199 190.08 295.023 189.392 294.927 188.4C294.831 187.408 294.719 185.36 294.591 182.256C294.431 177.488 294.255 174.656 294.063 173.76C293.999 173.184 293.967 172.736 293.967 172.416C293.967 172.16 293.999 171.872 294.063 171.552C294.191 171.04 294.783 170.24 295.839 169.152C296.895 168.064 297.775 167.36 298.479 167.04ZM332.413 180.432C331.613 180.016 330.797 179.808 329.965 179.808C328.941 179.808 328.109 180.144 327.469 180.816C324.909 183.632 323.629 186.16 323.629 188.4C323.629 189.872 324.189 191.2 325.309 192.384C325.885 192.992 326.349 193.392 326.701 193.584C327.053 193.744 327.565 193.824 328.237 193.824C330.029 193.824 332.397 192.672 335.341 190.368C336.269 189.632 336.909 189.008 337.261 188.496C337.613 187.952 337.789 187.344 337.789 186.672C337.789 186.224 337.757 185.856 337.693 185.568C337.565 184.896 336.941 184.032 335.821 182.976C334.733 181.888 333.597 181.04 332.413 180.432ZM326.413 174.336C327.149 173.952 328.045 173.76 329.101 173.76C330.829 173.76 332.573 174.192 334.333 175.056C335.709 175.728 337.165 176.688 338.701 177.936C340.237 179.152 341.341 180.24 342.013 181.2C342.973 182.576 343.453 184.32 343.453 186.432C343.453 188.544 342.941 190.336 341.917 191.808C341.213 192.768 339.997 193.904 338.269 195.216C336.541 196.528 334.829 197.616 333.133 198.48C331.501 199.312 330.253 199.728 329.389 199.728C329.229 199.728 328.797 199.696 328.093 199.632C324.957 199.408 322.301 197.872 320.125 195.024C318.749 193.232 318.061 191.552 318.061 189.984C318.061 188.896 318.269 187.504 318.685 185.808C319.261 183.408 319.837 181.728 320.413 180.768C321.021 179.712 321.981 178.48 323.293 177.072C324.605 175.664 325.645 174.752 326.413 174.336ZM351.312 168.432C351.952 168.432 353.088 168.336 354.72 168.144C356.384 167.952 358.144 167.728 360 167.472C361.888 167.184 363.04 167.024 363.456 166.992C364.768 166.8 366.336 166.672 368.16 166.608H368.736C369.92 166.608 370.8 166.912 371.376 167.52C371.984 168.096 372.288 168.784 372.288 169.584C372.288 170.224 372.08 170.8 371.664 171.312C371.248 171.824 370.688 172.144 369.984 172.272C369.824 172.304 369.072 172.368 367.728 172.464C366.416 172.528 365.152 172.624 363.936 172.752C362.72 172.88 362.048 173.008 361.92 173.136C361.664 173.392 361.68 173.84 361.968 174.48C362.16 175.056 362.288 177.376 362.352 181.44C362.352 185.504 362.656 189.04 363.264 192.048C363.328 192.272 363.36 192.56 363.36 192.912C363.36 193.36 363.104 193.84 362.592 194.352C361.888 194.992 361.184 195.312 360.48 195.312C359.712 195.312 358.976 194.96 358.272 194.256C357.824 193.808 357.52 193.344 357.36 192.864C357.232 192.384 357.104 191.472 356.976 190.128C356.816 188.528 356.736 186.304 356.736 183.456V182.4V181.392C356.736 178.768 356.624 176.928 356.4 175.872L355.968 173.952H353.232C352.016 173.952 351.2 173.904 350.784 173.808C350.4 173.712 350.016 173.456 349.632 173.04C349.024 172.496 348.72 171.904 348.72 171.264C348.72 170.592 348.992 169.952 349.536 169.344C350.112 168.736 350.704 168.432 351.312 168.432Z" fill="black"/>
<path d="M108.579 239.17C107.281 239.17 106.204 238.892 105.349 238.337C104.499 237.776 103.991 236.949 103.827 235.855L105.476 235.753C105.657 236.444 106.02 236.963 106.564 237.308C107.108 237.654 107.777 237.827 108.57 237.827C109.046 237.827 109.491 237.745 109.905 237.58C110.324 237.416 110.661 237.187 110.916 236.892C111.177 236.597 111.307 236.249 111.307 235.846C111.307 235.308 111.146 234.877 110.823 234.554C110.505 234.231 109.998 233.976 109.301 233.789L107.185 233.237C106.272 233.005 105.55 232.639 105.017 232.14C104.484 231.642 104.215 230.973 104.21 230.134C104.204 229.426 104.388 228.803 104.762 228.264C105.142 227.726 105.663 227.307 106.326 227.006C106.995 226.706 107.765 226.556 108.638 226.556C109.477 226.556 110.199 226.717 110.806 227.04C111.418 227.358 111.891 227.78 112.225 228.307C112.565 228.834 112.746 229.409 112.769 230.032L111.171 230.117C111.046 229.386 110.777 228.834 110.364 228.46C109.956 228.08 109.38 227.89 108.638 227.89C108.287 227.89 107.947 227.936 107.618 228.026C107.295 228.111 107.003 228.242 106.743 228.417C106.488 228.593 106.284 228.811 106.131 229.072C105.978 229.333 105.901 229.636 105.901 229.981C105.901 230.423 106.057 230.775 106.369 231.035C106.68 231.29 107.241 231.543 108.052 231.792L110.092 232.37C111.134 232.659 111.877 233.109 112.319 233.721C112.766 234.328 112.99 235.03 112.99 235.829C112.99 236.481 112.806 237.059 112.438 237.563C112.069 238.062 111.551 238.456 110.882 238.745C110.219 239.028 109.451 239.17 108.579 239.17ZM107.916 224.873H109.369V227.066H107.916V224.873ZM107.814 238.583H109.267V240.777H107.814V238.583ZM119.632 239.17C119.054 239.17 118.493 239.099 117.949 238.957C117.405 238.81 116.912 238.592 116.47 238.303C116.028 238.014 115.66 237.657 115.365 237.232C115.076 236.801 114.895 236.303 114.821 235.736H116.47C116.572 236.201 116.773 236.592 117.073 236.909C117.379 237.226 117.751 237.464 118.187 237.623C118.629 237.782 119.108 237.861 119.623 237.861C120.201 237.861 120.717 237.782 121.17 237.623C121.629 237.459 121.989 237.226 122.25 236.926C122.516 236.626 122.649 236.266 122.649 235.846C122.649 235.478 122.564 235.158 122.394 234.886C122.23 234.614 121.989 234.387 121.672 234.206C121.355 234.025 120.969 233.883 120.516 233.781L118.102 233.22C117.195 233.022 116.484 232.667 115.968 232.157C115.458 231.647 115.198 230.973 115.186 230.134C115.186 229.426 115.373 228.803 115.747 228.264C116.127 227.726 116.646 227.307 117.303 227.006C117.966 226.706 118.722 226.556 119.572 226.556C120.553 226.556 121.377 226.723 122.046 227.057C122.715 227.392 123.219 227.831 123.559 228.375C123.899 228.919 124.072 229.5 124.077 230.117H122.454C122.403 229.562 122.239 229.123 121.961 228.8C121.689 228.471 121.346 228.239 120.932 228.103C120.519 227.961 120.068 227.89 119.581 227.89C119.23 227.89 118.89 227.936 118.561 228.026C118.238 228.111 117.946 228.242 117.685 228.417C117.43 228.593 117.226 228.811 117.073 229.072C116.92 229.333 116.844 229.636 116.844 229.981C116.844 230.423 116.994 230.783 117.294 231.061C117.6 231.339 118.153 231.577 118.952 231.775L121.289 232.336C121.901 232.466 122.4 232.659 122.785 232.914C123.176 233.169 123.477 233.458 123.686 233.781C123.902 234.104 124.049 234.441 124.128 234.792C124.213 235.144 124.256 235.489 124.256 235.829C124.256 236.447 124.072 237.011 123.703 237.521C123.335 238.025 122.805 238.428 122.114 238.728C121.428 239.023 120.601 239.17 119.632 239.17ZM134.896 233.33H128.266V239H126.694V226.709H128.266V231.945H134.896V226.709H136.469V239H134.896V233.33ZM138.621 239L143.067 226.709H144.843L149.289 239H147.682L146.475 235.634H141.452L140.219 239H138.621ZM141.851 234.189H146.059L143.968 228.264L141.851 234.189ZM160.814 239H159.038L155.204 232.684L153.071 235.124V239H151.439V226.709H153.071V233.067L158.579 226.709H160.457L156.352 231.537L160.814 239ZM162.857 239V226.709H170.609L170.6 228.094H164.438V232.106H169.988V233.483H164.429V237.58L170.77 237.597V239H162.857ZM180.997 239.17C180.481 239.17 180.045 239.102 179.688 238.966C179.337 238.83 179.048 238.657 178.821 238.447C178.594 238.232 178.419 238.014 178.294 237.793C178.169 237.566 178.079 237.368 178.022 237.198L177.852 239H176.654V226.369H178.235V231.605C178.308 231.458 178.419 231.296 178.566 231.12C178.719 230.945 178.915 230.775 179.153 230.61C179.391 230.446 179.671 230.31 179.994 230.202C180.323 230.095 180.697 230.041 181.116 230.041C182.215 230.041 183.088 230.423 183.734 231.188C184.386 231.953 184.712 233.081 184.712 234.571C184.712 235.495 184.573 236.303 184.295 236.994C184.017 237.68 183.604 238.215 183.054 238.6C182.504 238.98 181.819 239.17 180.997 239.17ZM180.717 237.963C181.431 237.963 182.011 237.688 182.459 237.138C182.907 236.583 183.131 235.702 183.131 234.495C183.131 233.469 182.921 232.676 182.502 232.115C182.088 231.548 181.482 231.265 180.683 231.265C180.099 231.265 179.629 231.392 179.272 231.647C178.92 231.897 178.66 232.262 178.49 232.744C178.325 233.226 178.24 233.809 178.235 234.495C178.235 235.725 178.424 236.611 178.804 237.155C179.189 237.694 179.827 237.963 180.717 237.963ZM190.087 239.17C189.277 239.17 188.569 238.997 187.962 238.651C187.356 238.3 186.886 237.787 186.551 237.113C186.217 236.439 186.05 235.614 186.05 234.639C186.05 233.721 186.206 232.917 186.517 232.225C186.829 231.534 187.285 230.999 187.886 230.619C188.492 230.234 189.226 230.041 190.087 230.041C190.898 230.041 191.6 230.219 192.195 230.576C192.796 230.928 193.261 231.446 193.589 232.132C193.918 232.818 194.082 233.653 194.082 234.639C194.082 235.535 193.929 236.322 193.623 237.002C193.323 237.682 192.875 238.215 192.28 238.6C191.691 238.98 190.96 239.17 190.087 239.17ZM190.087 237.929C190.614 237.929 191.059 237.796 191.422 237.529C191.785 237.263 192.059 236.881 192.246 236.382C192.433 235.883 192.527 235.291 192.527 234.605C192.527 233.976 192.445 233.413 192.28 232.914C192.116 232.41 191.853 232.01 191.49 231.715C191.133 231.421 190.665 231.273 190.087 231.273C189.555 231.273 189.104 231.407 188.736 231.673C188.368 231.934 188.087 232.313 187.894 232.812C187.707 233.311 187.614 233.908 187.614 234.605C187.614 235.223 187.699 235.784 187.869 236.288C188.039 236.793 188.305 237.192 188.668 237.487C189.031 237.782 189.504 237.929 190.087 237.929ZM200.153 231.358H198.172V236.824C198.172 237.136 198.204 237.365 198.266 237.512C198.334 237.654 198.444 237.745 198.597 237.784C198.756 237.824 198.971 237.844 199.243 237.844H200.204V238.898C200.096 238.938 199.932 238.972 199.711 239C199.496 239.028 199.226 239.043 198.903 239.043C198.297 239.043 197.827 238.96 197.492 238.796C197.158 238.632 196.923 238.388 196.787 238.065C196.657 237.742 196.591 237.345 196.591 236.875V231.358H195.163V230.211H196.634L197.016 227.652H198.172V230.202H200.153V231.358ZM205.989 239V230.211H207.502V231.486C207.746 231.101 208.08 230.763 208.505 230.474C208.93 230.185 209.483 230.041 210.163 230.041C210.48 230.041 210.803 230.095 211.132 230.202C211.466 230.31 211.772 230.472 212.05 230.687C212.327 230.902 212.543 231.166 212.696 231.477C212.968 231.047 213.336 230.701 213.801 230.44C214.265 230.174 214.79 230.041 215.373 230.041C215.679 230.041 215.999 230.089 216.334 230.185C216.668 230.276 216.977 230.44 217.26 230.678C217.549 230.911 217.784 231.237 217.966 231.656C218.147 232.07 218.238 232.602 218.238 233.254V239H216.657V233.407C216.657 232.874 216.572 232.463 216.402 232.174C216.232 231.88 216.008 231.673 215.73 231.554C215.458 231.435 215.166 231.375 214.855 231.375C214.583 231.375 214.294 231.429 213.988 231.537C213.682 231.645 213.421 231.826 213.206 232.081C212.99 232.336 212.883 232.684 212.883 233.126V239H211.319V232.948C211.319 232.602 211.225 232.313 211.038 232.081C210.857 231.849 210.627 231.673 210.35 231.554C210.078 231.435 209.806 231.375 209.534 231.375C209.233 231.375 208.93 231.435 208.624 231.554C208.324 231.673 208.069 231.863 207.859 232.123C207.655 232.378 207.553 232.713 207.553 233.126V239H205.989ZM222.228 230.211V239H220.707V230.211H222.228ZM222.262 226.717V228.349H220.656V226.717H222.262ZM232.576 239H230.867L228.309 235.557L225.767 239H224.042L227.433 234.435L224.314 230.211H226.031L228.309 233.296L230.595 230.211H232.312L229.184 234.435L232.576 239ZM235.04 234.971C235.04 235.526 235.13 236.031 235.312 236.484C235.499 236.932 235.779 237.289 236.153 237.555C236.533 237.821 237.006 237.954 237.573 237.954C238.134 237.954 238.615 237.824 239.018 237.563C239.426 237.303 239.686 236.926 239.8 236.433H241.287C241.179 237.028 240.941 237.529 240.573 237.938C240.205 238.345 239.76 238.654 239.239 238.864C238.717 239.068 238.173 239.17 237.607 239.17C236.785 239.17 236.062 238.992 235.439 238.634C234.816 238.277 234.328 237.765 233.977 237.096C233.626 236.427 233.45 235.625 233.45 234.69C233.45 233.767 233.609 232.956 233.926 232.259C234.243 231.562 234.702 231.018 235.303 230.627C235.909 230.236 236.638 230.041 237.488 230.041C238.315 230.041 239.015 230.219 239.587 230.576C240.159 230.933 240.593 231.438 240.888 232.089C241.188 232.735 241.338 233.503 241.338 234.393V234.971H235.04ZM235.048 233.908H239.825C239.825 233.404 239.74 232.951 239.57 232.548C239.4 232.14 239.139 231.82 238.788 231.588C238.442 231.35 238.006 231.231 237.479 231.231C236.929 231.231 236.473 231.364 236.111 231.63C235.754 231.891 235.484 232.228 235.303 232.642C235.127 233.05 235.042 233.472 235.048 233.908ZM246.396 239.17C245.784 239.17 245.215 239.077 244.688 238.889C244.167 238.697 243.733 238.399 243.387 237.997C243.042 237.589 242.824 237.07 242.733 236.441H244.161C244.24 236.787 244.382 237.076 244.586 237.308C244.796 237.535 245.056 237.708 245.368 237.827C245.68 237.94 246.02 237.997 246.388 237.997C246.977 237.997 247.453 237.886 247.816 237.665C248.179 237.444 248.36 237.104 248.36 236.645C248.36 236.322 248.264 236.065 248.071 235.872C247.884 235.674 247.592 235.529 247.195 235.438L245.376 234.988C244.668 234.818 244.101 234.552 243.676 234.189C243.251 233.826 243.039 233.319 243.039 232.667C243.033 232.152 243.155 231.698 243.404 231.307C243.654 230.916 244.028 230.608 244.526 230.381C245.025 230.154 245.646 230.041 246.388 230.041C247.34 230.041 248.108 230.256 248.691 230.687C249.281 231.112 249.587 231.738 249.609 232.565H248.224C248.167 232.146 247.977 231.815 247.654 231.571C247.337 231.322 246.909 231.197 246.371 231.197C245.81 231.197 245.354 231.31 245.002 231.537C244.651 231.758 244.475 232.104 244.475 232.574C244.475 232.886 244.6 233.132 244.849 233.313C245.099 233.489 245.467 233.636 245.954 233.755L247.714 234.198C248.122 234.305 248.456 234.447 248.717 234.622C248.983 234.798 249.193 234.994 249.346 235.209C249.505 235.424 249.615 235.651 249.677 235.889C249.745 236.121 249.779 236.345 249.779 236.56C249.779 237.099 249.643 237.563 249.371 237.954C249.105 238.34 248.72 238.64 248.215 238.855C247.717 239.065 247.11 239.17 246.396 239.17ZM256.255 241.805C255.739 241.805 255.385 241.768 255.193 241.695C255 241.621 254.904 241.584 254.904 241.584V240.564L255.796 240.581C256.125 240.592 256.397 240.57 256.612 240.513C256.827 240.456 257 240.38 257.131 240.284C257.261 240.187 257.36 240.08 257.428 239.961C257.502 239.842 257.561 239.728 257.607 239.621L257.913 238.787L254.479 230.211H256.068L258.661 236.994L261.236 230.211H262.775L259.069 239.663C258.842 240.218 258.587 240.652 258.304 240.964C258.026 241.275 257.714 241.493 257.369 241.618C257.029 241.743 256.657 241.805 256.255 241.805ZM267.461 239.17C266.65 239.17 265.942 238.997 265.336 238.651C264.729 238.3 264.259 237.787 263.925 237.113C263.59 236.439 263.423 235.614 263.423 234.639C263.423 233.721 263.579 232.917 263.891 232.225C264.202 231.534 264.658 230.999 265.259 230.619C265.865 230.234 266.599 230.041 267.461 230.041C268.271 230.041 268.974 230.219 269.569 230.576C270.169 230.928 270.634 231.446 270.963 232.132C271.291 232.818 271.456 233.653 271.456 234.639C271.456 235.535 271.303 236.322 270.997 237.002C270.696 237.682 270.249 238.215 269.654 238.6C269.064 238.98 268.333 239.17 267.461 239.17ZM267.461 237.929C267.988 237.929 268.432 237.796 268.795 237.529C269.158 237.263 269.433 236.881 269.62 236.382C269.807 235.883 269.9 235.291 269.9 234.605C269.9 233.976 269.818 233.413 269.654 232.914C269.489 232.41 269.226 232.01 268.863 231.715C268.506 231.421 268.039 231.273 267.461 231.273C266.928 231.273 266.477 231.407 266.109 231.673C265.741 231.934 265.46 232.313 265.268 232.812C265.081 233.311 264.987 233.908 264.987 234.605C264.987 235.223 265.072 235.784 265.242 236.288C265.412 236.793 265.678 237.192 266.041 237.487C266.404 237.782 266.877 237.929 267.461 237.929ZM276.44 239.17C275.981 239.164 275.548 239.099 275.14 238.974C274.737 238.844 274.38 238.654 274.069 238.405C273.757 238.156 273.511 237.847 273.329 237.478C273.154 237.104 273.066 236.671 273.066 236.178V230.211H274.638V236.016C274.638 236.589 274.814 237.053 275.165 237.41C275.522 237.767 276.058 237.946 276.772 237.946C277.418 237.946 277.936 237.779 278.327 237.444C278.724 237.104 278.922 236.6 278.922 235.931V230.211H280.486V239H279.237L279.075 237.317C278.968 237.759 278.783 238.116 278.523 238.388C278.268 238.66 277.959 238.861 277.596 238.991C277.239 239.116 276.854 239.176 276.44 239.17ZM282.868 239V230.211H284.364V231.902C284.512 231.483 284.719 231.137 284.985 230.865C285.251 230.588 285.554 230.381 285.894 230.245C286.24 230.109 286.597 230.041 286.965 230.041C287.096 230.041 287.223 230.049 287.348 230.067C287.473 230.083 287.569 230.112 287.637 230.151V231.673C287.552 231.633 287.441 231.608 287.305 231.596C287.175 231.579 287.065 231.571 286.974 231.571C286.623 231.548 286.294 231.571 285.988 231.639C285.682 231.701 285.413 231.812 285.18 231.97C284.948 232.129 284.764 232.339 284.628 232.599C284.498 232.854 284.432 233.166 284.432 233.534V239H282.868ZM296.323 230.041C296.952 230.041 297.519 230.163 298.023 230.406C298.528 230.644 298.938 230.984 299.256 231.426C299.579 231.868 299.78 232.39 299.859 232.99H298.465C298.414 232.684 298.295 232.404 298.108 232.149C297.927 231.894 297.686 231.69 297.386 231.537C297.085 231.384 296.734 231.307 296.332 231.307C295.578 231.307 294.966 231.579 294.496 232.123C294.025 232.667 293.79 233.5 293.79 234.622C293.79 235.637 294.006 236.45 294.436 237.062C294.873 237.668 295.513 237.971 296.357 237.971C296.76 237.971 297.108 237.895 297.403 237.742C297.703 237.583 297.944 237.376 298.125 237.121C298.307 236.861 298.423 236.583 298.474 236.288H299.842C299.769 236.878 299.57 237.388 299.247 237.818C298.924 238.249 298.511 238.583 298.006 238.821C297.508 239.054 296.947 239.17 296.323 239.17C295.536 239.17 294.836 238.997 294.224 238.651C293.617 238.306 293.141 237.796 292.796 237.121C292.45 236.447 292.277 235.62 292.277 234.639C292.277 233.721 292.433 232.92 292.745 232.234C293.062 231.543 293.521 231.004 294.122 230.619C294.728 230.234 295.462 230.041 296.323 230.041ZM301.815 239V230.211H303.311V231.902C303.459 231.483 303.666 231.137 303.932 230.865C304.198 230.588 304.501 230.381 304.841 230.245C305.187 230.109 305.544 230.041 305.912 230.041C306.043 230.041 306.17 230.049 306.295 230.067C306.42 230.083 306.516 230.112 306.584 230.151V231.673C306.499 231.633 306.388 231.608 306.252 231.596C306.122 231.579 306.012 231.571 305.921 231.571C305.57 231.548 305.241 231.571 304.935 231.639C304.629 231.701 304.36 231.812 304.127 231.97C303.895 232.129 303.711 232.339 303.575 232.599C303.445 232.854 303.379 233.166 303.379 233.534V239H301.815ZM309.502 241.805C308.986 241.805 308.632 241.768 308.439 241.695C308.246 241.621 308.15 241.584 308.15 241.584V240.564L309.043 240.581C309.371 240.592 309.643 240.57 309.859 240.513C310.074 240.456 310.247 240.38 310.377 240.284C310.507 240.187 310.607 240.08 310.675 239.961C310.748 239.842 310.808 239.728 310.853 239.621L311.159 238.787L307.725 230.211H309.315L311.907 236.994L314.483 230.211H316.021L312.315 239.663C312.088 240.218 311.833 240.652 311.55 240.964C311.272 241.275 310.961 241.493 310.615 241.618C310.275 241.743 309.904 241.805 309.502 241.805ZM317.529 241.737V230.211H319.093L319.11 231.741C319.212 231.56 319.342 231.37 319.501 231.171C319.665 230.973 319.864 230.789 320.096 230.619C320.334 230.449 320.609 230.31 320.921 230.202C321.238 230.095 321.598 230.041 322 230.041C322.703 230.041 323.32 230.202 323.853 230.525C324.391 230.843 324.811 231.33 325.111 231.987C325.411 232.645 325.562 233.478 325.562 234.486C325.562 235.495 325.414 236.348 325.12 237.045C324.831 237.736 324.411 238.263 323.862 238.626C323.312 238.989 322.649 239.17 321.873 239.17C321.482 239.17 321.133 239.113 320.827 239C320.527 238.892 320.263 238.751 320.037 238.575C319.816 238.394 319.629 238.201 319.476 237.997C319.328 237.793 319.206 237.597 319.11 237.41V241.737H317.529ZM321.575 237.946C322.3 237.946 322.893 237.671 323.352 237.121C323.811 236.566 324.04 235.705 324.04 234.537C324.04 233.534 323.83 232.738 323.411 232.149C322.992 231.56 322.38 231.265 321.575 231.265C320.759 231.265 320.141 231.568 319.722 232.174C319.303 232.775 319.093 233.563 319.093 234.537C319.093 235.166 319.187 235.739 319.374 236.254C319.561 236.77 319.838 237.181 320.207 237.487C320.575 237.793 321.031 237.946 321.575 237.946ZM331.636 231.358H329.655V236.824C329.655 237.136 329.687 237.365 329.749 237.512C329.817 237.654 329.927 237.745 330.08 237.784C330.239 237.824 330.454 237.844 330.726 237.844H331.687V238.898C331.579 238.938 331.415 238.972 331.194 239C330.979 239.028 330.709 239.043 330.386 239.043C329.78 239.043 329.31 238.96 328.975 238.796C328.641 238.632 328.406 238.388 328.27 238.065C328.14 237.742 328.074 237.345 328.074 236.875V231.358H326.646V230.211H328.117L328.499 227.652H329.655V230.202H331.636V231.358ZM336.985 239.17C336.175 239.17 335.467 238.997 334.86 238.651C334.254 238.3 333.784 237.787 333.449 237.113C333.115 236.439 332.948 235.614 332.948 234.639C332.948 233.721 333.104 232.917 333.415 232.225C333.727 231.534 334.183 230.999 334.784 230.619C335.39 230.234 336.124 230.041 336.985 230.041C337.796 230.041 338.498 230.219 339.093 230.576C339.694 230.928 340.159 231.446 340.487 232.132C340.816 232.818 340.98 233.653 340.98 234.639C340.98 235.535 340.827 236.322 340.521 237.002C340.221 237.682 339.773 238.215 339.178 238.6C338.589 238.98 337.858 239.17 336.985 239.17ZM336.985 237.929C337.512 237.929 337.957 237.796 338.32 237.529C338.683 237.263 338.957 236.881 339.144 236.382C339.331 235.883 339.425 235.291 339.425 234.605C339.425 233.976 339.343 233.413 339.178 232.914C339.014 232.41 338.751 232.01 338.388 231.715C338.031 231.421 337.563 231.273 336.985 231.273C336.453 231.273 336.002 231.407 335.634 231.673C335.266 231.934 334.985 232.313 334.792 232.812C334.605 233.311 334.512 233.908 334.512 234.605C334.512 235.223 334.597 235.784 334.767 236.288C334.937 236.793 335.203 237.192 335.566 237.487C335.929 237.782 336.402 237.929 336.985 237.929ZM349.794 239.17C348.983 239.17 348.275 238.997 347.669 238.651C347.062 238.3 346.592 237.787 346.258 237.113C345.923 236.439 345.756 235.614 345.756 234.639C345.756 233.721 345.912 232.917 346.224 232.225C346.535 231.534 346.992 230.999 347.592 230.619C348.199 230.234 348.932 230.041 349.794 230.041C350.604 230.041 351.307 230.219 351.902 230.576C352.502 230.928 352.967 231.446 353.296 232.132C353.624 232.818 353.789 233.653 353.789 234.639C353.789 235.535 353.636 236.322 353.33 237.002C353.029 237.682 352.582 238.215 351.987 238.6C351.397 238.98 350.666 239.17 349.794 239.17ZM349.794 237.929C350.321 237.929 350.766 237.796 351.128 237.529C351.491 237.263 351.766 236.881 351.953 236.382C352.14 235.883 352.233 235.291 352.233 234.605C352.233 233.976 352.151 233.413 351.987 232.914C351.822 232.41 351.559 232.01 351.196 231.715C350.839 231.421 350.372 231.273 349.794 231.273C349.261 231.273 348.811 231.407 348.442 231.673C348.074 231.934 347.793 232.313 347.601 232.812C347.414 233.311 347.32 233.908 347.32 234.605C347.32 235.223 347.405 235.784 347.575 236.288C347.745 236.793 348.012 237.192 348.374 237.487C348.737 237.782 349.21 237.929 349.794 237.929ZM355.676 239V230.211H357.198V231.486C357.339 231.242 357.535 231.013 357.784 230.797C358.039 230.582 358.345 230.409 358.702 230.279C359.065 230.149 359.481 230.083 359.952 230.083C360.507 230.083 361.017 230.194 361.482 230.415C361.952 230.636 362.326 230.982 362.604 231.452C362.887 231.917 363.029 232.517 363.029 233.254V239H361.456V233.407C361.456 232.721 361.275 232.214 360.912 231.885C360.555 231.551 360.091 231.384 359.518 231.384C359.122 231.384 358.75 231.449 358.405 231.579C358.059 231.704 357.779 231.897 357.563 232.157C357.348 232.412 357.24 232.735 357.24 233.126V239H355.676ZM369.066 239V230.211H370.579V231.486C370.822 231.101 371.157 230.763 371.582 230.474C372.007 230.185 372.559 230.041 373.239 230.041C373.557 230.041 373.88 230.095 374.208 230.202C374.543 230.31 374.849 230.472 375.126 230.687C375.404 230.902 375.619 231.166 375.772 231.477C376.044 231.047 376.413 230.701 376.877 230.44C377.342 230.174 377.866 230.041 378.45 230.041C378.756 230.041 379.076 230.089 379.41 230.185C379.745 230.276 380.053 230.44 380.337 230.678C380.626 230.911 380.861 231.237 381.042 231.656C381.224 232.07 381.314 232.602 381.314 233.254V239H379.733V233.407C379.733 232.874 379.648 232.463 379.478 232.174C379.308 231.88 379.084 231.673 378.807 231.554C378.535 231.435 378.243 231.375 377.931 231.375C377.659 231.375 377.37 231.429 377.064 231.537C376.758 231.645 376.498 231.826 376.282 232.081C376.067 232.336 375.959 232.684 375.959 233.126V239H374.395V232.948C374.395 232.602 374.302 232.313 374.115 232.081C373.933 231.849 373.704 231.673 373.426 231.554C373.154 231.435 372.882 231.375 372.61 231.375C372.31 231.375 372.007 231.435 371.701 231.554C371.4 231.673 371.145 231.863 370.936 232.123C370.732 232.378 370.63 232.713 370.63 233.126V239H369.066ZM386.702 239.17C386.243 239.164 385.809 239.099 385.401 238.974C384.999 238.844 384.642 238.654 384.33 238.405C384.019 238.156 383.772 237.847 383.591 237.478C383.415 237.104 383.327 236.671 383.327 236.178V230.211H384.9V236.016C384.9 236.589 385.076 237.053 385.427 237.41C385.784 237.767 386.319 237.946 387.033 237.946C387.679 237.946 388.198 237.779 388.589 237.444C388.986 237.104 389.184 236.6 389.184 235.931V230.211H390.748V239H389.498L389.337 237.317C389.229 237.759 389.045 238.116 388.784 238.388C388.529 238.66 388.221 238.861 387.858 238.991C387.501 239.116 387.116 239.176 386.702 239.17ZM395.348 239.111C394.872 239.111 394.487 239.045 394.192 238.915C393.903 238.785 393.68 238.609 393.521 238.388C393.368 238.167 393.263 237.915 393.206 237.631C393.155 237.342 393.13 237.045 393.13 236.739V226.369H394.677V236.586C394.677 237.028 394.762 237.359 394.932 237.58C395.108 237.801 395.351 237.923 395.663 237.946L396.139 237.954V238.974C396.009 239.014 395.873 239.045 395.731 239.068C395.589 239.096 395.462 239.111 395.348 239.111ZM402.007 231.358H400.027V236.824C400.027 237.136 400.058 237.365 400.12 237.512C400.188 237.654 400.299 237.745 400.452 237.784C400.61 237.824 400.826 237.844 401.098 237.844H402.058V238.898C401.951 238.938 401.786 238.972 401.565 239C401.35 239.028 401.081 239.043 400.758 239.043C400.151 239.043 399.681 238.96 399.347 238.796C399.012 238.632 398.777 238.388 398.641 238.065C398.511 237.742 398.446 237.345 398.446 236.875V231.358H397.018V230.211H398.488L398.871 227.652H400.027V230.202H402.007V231.358ZM405.796 230.211V239H404.274V230.211H405.796ZM405.83 226.717V228.349H404.223V226.717H405.83ZM408.491 241.737V230.211H410.055L410.072 231.741C410.174 231.56 410.304 231.37 410.463 231.171C410.627 230.973 410.826 230.789 411.058 230.619C411.296 230.449 411.571 230.31 411.883 230.202C412.2 230.095 412.56 230.041 412.962 230.041C413.665 230.041 414.282 230.202 414.815 230.525C415.353 230.843 415.773 231.33 416.073 231.987C416.373 232.645 416.524 233.478 416.524 234.486C416.524 235.495 416.376 236.348 416.082 237.045C415.793 237.736 415.373 238.263 414.824 238.626C414.274 238.989 413.611 239.17 412.835 239.17C412.444 239.17 412.095 239.113 411.789 239C411.489 238.892 411.225 238.751 410.999 238.575C410.778 238.394 410.591 238.201 410.438 237.997C410.29 237.793 410.168 237.597 410.072 237.41V241.737H408.491ZM412.537 237.946C413.262 237.946 413.855 237.671 414.314 237.121C414.773 236.566 415.002 235.705 415.002 234.537C415.002 233.534 414.792 232.738 414.373 232.149C413.954 231.56 413.342 231.265 412.537 231.265C411.721 231.265 411.103 231.568 410.684 232.174C410.265 232.775 410.055 233.563 410.055 234.537C410.055 235.166 410.149 235.739 410.336 236.254C410.523 236.77 410.8 237.181 411.169 237.487C411.537 237.793 411.993 237.946 412.537 237.946ZM420.633 239.111C420.157 239.111 419.772 239.045 419.477 238.915C419.188 238.785 418.964 238.609 418.806 238.388C418.653 238.167 418.548 237.915 418.491 237.631C418.44 237.342 418.415 237.045 418.415 236.739V226.369H419.962V236.586C419.962 237.028 420.047 237.359 420.217 237.58C420.392 237.801 420.636 237.923 420.948 237.946L421.424 237.954V238.974C421.293 239.014 421.157 239.045 421.016 239.068C420.874 239.096 420.747 239.111 420.633 239.111ZM424.297 234.971C424.297 235.526 424.388 236.031 424.569 236.484C424.756 236.932 425.037 237.289 425.411 237.555C425.791 237.821 426.264 237.954 426.83 237.954C427.391 237.954 427.873 237.824 428.275 237.563C428.683 237.303 428.944 236.926 429.057 236.433H430.545C430.437 237.028 430.199 237.529 429.831 237.938C429.463 238.345 429.018 238.654 428.496 238.864C427.975 239.068 427.431 239.17 426.864 239.17C426.043 239.17 425.32 238.992 424.697 238.634C424.074 238.277 423.586 237.765 423.235 237.096C422.884 236.427 422.708 235.625 422.708 234.69C422.708 233.767 422.867 232.956 423.184 232.259C423.501 231.562 423.96 231.018 424.561 230.627C425.167 230.236 425.895 230.041 426.745 230.041C427.573 230.041 428.273 230.219 428.845 230.576C429.417 230.933 429.851 231.438 430.145 232.089C430.446 232.735 430.596 233.503 430.596 234.393V234.971H424.297ZM424.306 233.908H429.083C429.083 233.404 428.998 232.951 428.828 232.548C428.658 232.14 428.397 231.82 428.046 231.588C427.7 231.35 427.264 231.231 426.737 231.231C426.187 231.231 425.731 231.364 425.368 231.63C425.011 231.891 424.742 232.228 424.561 232.642C424.385 233.05 424.3 233.472 424.306 233.908ZM72.4537 263.17C71.9381 263.17 71.5017 263.102 71.1447 262.966C70.7934 262.83 70.5044 262.657 70.2777 262.447C70.0511 262.232 69.8754 262.014 69.7507 261.793C69.6261 261.566 69.5354 261.368 69.4787 261.198L69.3087 263H68.1102V250.369H69.6912V255.605C69.7649 255.458 69.8754 255.296 70.0227 255.12C70.1757 254.945 70.3712 254.775 70.6092 254.61C70.8472 254.446 71.1277 254.31 71.4507 254.202C71.7794 254.095 72.1534 254.041 72.5727 254.041C73.6721 254.041 74.5447 254.423 75.1907 255.188C75.8424 255.953 76.1682 257.081 76.1682 258.571C76.1682 259.495 76.0294 260.303 75.7517 260.994C75.4741 261.68 75.0604 262.215 74.5107 262.6C73.9611 262.98 73.2754 263.17 72.4537 263.17ZM72.1732 261.963C72.8872 261.963 73.4681 261.688 73.9157 261.138C74.3634 260.583 74.5872 259.702 74.5872 258.495C74.5872 257.469 74.3776 256.676 73.9582 256.115C73.5446 255.548 72.9382 255.265 72.1392 255.265C71.5556 255.265 71.0852 255.392 70.7282 255.647C70.3769 255.897 70.1162 256.262 69.9462 256.744C69.7819 257.226 69.6969 257.809 69.6912 258.495C69.6912 259.725 69.8811 260.611 70.2607 261.155C70.6461 261.694 71.2836 261.963 72.1732 261.963ZM80.2691 263.111C79.7931 263.111 79.4077 263.045 79.1131 262.915C78.8241 262.785 78.6002 262.609 78.4416 262.388C78.2886 262.167 78.1837 261.915 78.1271 261.631C78.0761 261.342 78.0506 261.045 78.0506 260.739V250.369H79.5976V260.586C79.5976 261.028 79.6826 261.359 79.8526 261.58C80.0282 261.801 80.2719 261.923 80.5836 261.946L81.0596 261.954V262.974C80.9292 263.014 80.7932 263.045 80.6516 263.068C80.5099 263.096 80.3824 263.111 80.2691 263.111ZM86.3047 263.17C85.4944 263.17 84.7861 262.997 84.1797 262.651C83.5734 262.3 83.1031 261.787 82.7687 261.113C82.4344 260.439 82.2672 259.614 82.2672 258.639C82.2672 257.721 82.4231 256.917 82.7347 256.225C83.0464 255.534 83.5026 254.999 84.1032 254.619C84.7096 254.234 85.4434 254.041 86.3047 254.041C87.1151 254.041 87.8177 254.219 88.4127 254.576C89.0134 254.928 89.4781 255.446 89.8067 256.132C90.1354 256.818 90.2997 257.653 90.2997 258.639C90.2997 259.535 90.1467 260.322 89.8407 261.002C89.5404 261.682 89.0927 262.215 88.4977 262.6C87.9084 262.98 87.1774 263.17 86.3047 263.17ZM86.3047 261.929C86.8317 261.929 87.2766 261.796 87.6392 261.529C88.0019 261.263 88.2767 260.881 88.4637 260.382C88.6507 259.883 88.7442 259.291 88.7442 258.605C88.7442 257.976 88.6621 257.413 88.4977 256.914C88.3334 256.41 88.0699 256.01 87.7072 255.715C87.3502 255.421 86.8827 255.273 86.3047 255.273C85.7721 255.273 85.3216 255.407 84.9532 255.673C84.5849 255.934 84.3044 256.313 84.1117 256.812C83.9247 257.311 83.8312 257.908 83.8312 258.605C83.8312 259.223 83.9162 259.784 84.0862 260.288C84.2562 260.793 84.5226 261.192 84.8852 261.487C85.2479 261.782 85.7211 261.929 86.3047 261.929ZM95.6891 254.041C96.3181 254.041 96.8848 254.163 97.3891 254.406C97.8935 254.644 98.3043 254.984 98.6216 255.426C98.9446 255.868 99.1458 256.39 99.2251 256.99H97.8311C97.7801 256.684 97.6611 256.404 97.4741 256.149C97.2928 255.894 97.052 255.69 96.7516 255.537C96.4513 255.384 96.1 255.307 95.6976 255.307C94.944 255.307 94.332 255.579 93.8616 256.123C93.3913 256.667 93.1561 257.5 93.1561 258.622C93.1561 259.637 93.3715 260.45 93.8021 261.062C94.2385 261.668 94.8788 261.971 95.7231 261.971C96.1255 261.971 96.474 261.895 96.7686 261.742C97.069 261.583 97.3098 261.376 97.4911 261.121C97.6725 260.861 97.7886 260.583 97.8396 260.288H99.2081C99.1345 260.878 98.9361 261.388 98.6131 261.818C98.2901 262.249 97.8765 262.583 97.3721 262.821C96.8735 263.054 96.3125 263.17 95.6891 263.17C94.9015 263.17 94.2016 262.997 93.5896 262.651C92.9833 262.306 92.5073 261.796 92.1616 261.121C91.816 260.447 91.6431 259.62 91.6431 258.639C91.6431 257.721 91.799 256.92 92.1106 256.234C92.428 255.543 92.887 255.004 93.4876 254.619C94.094 254.234 94.8278 254.041 95.6891 254.041ZM108.899 263H107.233L104.479 258.588L102.745 260.382V263H101.181V250.369H102.745V258.605L106.876 254.211H108.678L105.508 257.56L108.899 263ZM113.71 254.041C114.339 254.041 114.906 254.163 115.41 254.406C115.915 254.644 116.326 254.984 116.643 255.426C116.966 255.868 117.167 256.39 117.246 256.99H115.852C115.801 256.684 115.682 256.404 115.495 256.149C115.314 255.894 115.073 255.69 114.773 255.537C114.473 255.384 114.121 255.307 113.719 255.307C112.965 255.307 112.353 255.579 111.883 256.123C111.413 256.667 111.177 257.5 111.177 258.622C111.177 259.637 111.393 260.45 111.823 261.062C112.26 261.668 112.9 261.971 113.744 261.971C114.147 261.971 114.495 261.895 114.79 261.742C115.09 261.583 115.331 261.376 115.512 261.121C115.694 260.861 115.81 260.583 115.861 260.288H117.229C117.156 260.878 116.957 261.388 116.634 261.818C116.311 262.249 115.898 262.583 115.393 262.821C114.895 263.054 114.334 263.17 113.71 263.17C112.923 263.17 112.223 262.997 111.611 262.651C111.005 262.306 110.529 261.796 110.183 261.121C109.837 260.447 109.664 259.62 109.664 258.639C109.664 257.721 109.82 256.92 110.132 256.234C110.449 255.543 110.908 255.004 111.509 254.619C112.115 254.234 112.849 254.041 113.71 254.041ZM119.203 263V250.369H120.733V255.503C120.88 255.259 121.078 255.033 121.328 254.823C121.577 254.608 121.88 254.435 122.237 254.304C122.594 254.168 123.008 254.1 123.478 254.1C124.05 254.1 124.569 254.208 125.034 254.423C125.498 254.633 125.867 254.933 126.139 255.324C126.411 255.715 126.547 256.18 126.547 256.718V263H124.974V257.033C124.974 256.506 124.793 256.101 124.43 255.817C124.073 255.528 123.606 255.384 123.028 255.384C122.637 255.384 122.268 255.449 121.923 255.579C121.577 255.704 121.296 255.897 121.081 256.157C120.871 256.412 120.767 256.738 120.767 257.135V263H119.203ZM131.225 263.17C130.659 263.17 130.157 263.071 129.721 262.872C129.284 262.668 128.942 262.377 128.692 261.997C128.449 261.617 128.327 261.158 128.327 260.62C128.327 259.645 128.667 258.92 129.347 258.444C130.027 257.968 131.118 257.713 132.619 257.679L134.192 257.636V256.948C134.192 256.41 134.03 255.985 133.707 255.673C133.384 255.356 132.883 255.197 132.203 255.197C131.698 255.203 131.254 255.322 130.868 255.554C130.489 255.786 130.242 256.166 130.129 256.693H128.743C128.777 256.121 128.939 255.639 129.228 255.248C129.517 254.851 129.919 254.551 130.435 254.347C130.956 254.143 131.571 254.041 132.279 254.041C133.044 254.041 133.679 254.149 134.183 254.364C134.693 254.579 135.073 254.897 135.322 255.316C135.577 255.735 135.705 256.251 135.705 256.863V263H134.362L134.251 261.351C133.911 262.037 133.478 262.513 132.951 262.779C132.429 263.04 131.854 263.17 131.225 263.17ZM131.701 262.039C131.996 262.039 132.288 261.986 132.577 261.878C132.871 261.77 133.141 261.626 133.384 261.444C133.628 261.257 133.821 261.051 133.962 260.824C134.11 260.592 134.186 260.354 134.192 260.11V258.605L132.883 258.631C132.214 258.642 131.653 258.71 131.2 258.835C130.752 258.96 130.415 259.155 130.188 259.421C129.967 259.688 129.857 260.036 129.857 260.467C129.857 260.96 130.027 261.345 130.367 261.623C130.712 261.901 131.157 262.039 131.701 262.039ZM139.92 254.211V263H138.398V254.211H139.92ZM139.954 250.717V252.349H138.347V250.717H139.954ZM142.615 263V254.211H144.137V255.486C144.279 255.242 144.474 255.013 144.723 254.797C144.978 254.582 145.284 254.409 145.641 254.279C146.004 254.149 146.421 254.083 146.891 254.083C147.446 254.083 147.956 254.194 148.421 254.415C148.891 254.636 149.265 254.982 149.543 255.452C149.826 255.917 149.968 256.517 149.968 257.254V263H148.395V257.407C148.395 256.721 148.214 256.214 147.851 255.885C147.494 255.551 147.03 255.384 146.457 255.384C146.061 255.384 145.69 255.449 145.344 255.579C144.998 255.704 144.718 255.897 144.502 256.157C144.287 256.412 144.179 256.735 144.179 257.126V263H142.615ZM155.244 263.17C154.632 263.17 154.062 263.077 153.535 262.889C153.014 262.697 152.58 262.399 152.235 261.997C151.889 261.589 151.671 261.07 151.58 260.441H153.008C153.087 260.787 153.229 261.076 153.433 261.308C153.643 261.535 153.903 261.708 154.215 261.827C154.527 261.94 154.867 261.997 155.235 261.997C155.824 261.997 156.3 261.886 156.663 261.665C157.026 261.444 157.207 261.104 157.207 260.645C157.207 260.322 157.111 260.065 156.918 259.872C156.731 259.674 156.439 259.529 156.043 259.438L154.224 258.988C153.515 258.818 152.949 258.552 152.524 258.189C152.099 257.826 151.886 257.319 151.886 256.667C151.88 256.152 152.002 255.698 152.252 255.307C152.501 254.916 152.875 254.608 153.374 254.381C153.872 254.154 154.493 254.041 155.235 254.041C156.187 254.041 156.955 254.256 157.539 254.687C158.128 255.112 158.434 255.738 158.457 256.565H157.071C157.014 256.146 156.825 255.815 156.502 255.571C156.184 255.322 155.756 255.197 155.218 255.197C154.657 255.197 154.201 255.31 153.85 255.537C153.498 255.758 153.323 256.104 153.323 256.574C153.323 256.886 153.447 257.132 153.697 257.313C153.946 257.489 154.314 257.636 154.802 257.755L156.561 258.198C156.969 258.305 157.303 258.447 157.564 258.622C157.83 258.798 158.04 258.994 158.193 259.209C158.352 259.424 158.462 259.651 158.525 259.889C158.593 260.121 158.627 260.345 158.627 260.56C158.627 261.099 158.491 261.563 158.219 261.954C157.952 262.34 157.567 262.64 157.063 262.855C156.564 263.065 155.958 263.17 155.244 263.17ZM169.299 254.211V255.358H167.165V263H165.584V255.358H163.731V254.211H165.584V252.851C165.584 252.154 165.763 251.624 166.12 251.261C166.477 250.893 167.01 250.709 167.718 250.709H169.375L169.384 251.822H168.066C167.709 251.822 167.466 251.919 167.335 252.111C167.205 252.304 167.14 252.596 167.14 252.987V254.211H169.299ZM174.465 263.17C173.655 263.17 172.946 262.997 172.34 262.651C171.734 262.3 171.263 261.787 170.929 261.113C170.595 260.439 170.428 259.614 170.428 258.639C170.428 257.721 170.583 256.917 170.895 256.225C171.207 255.534 171.663 254.999 172.264 254.619C172.87 254.234 173.604 254.041 174.465 254.041C175.275 254.041 175.978 254.219 176.573 254.576C177.174 254.928 177.638 255.446 177.967 256.132C178.296 256.818 178.46 257.653 178.46 258.639C178.46 259.535 178.307 260.322 178.001 261.002C177.701 261.682 177.253 262.215 176.658 262.6C176.069 262.98 175.338 263.17 174.465 263.17ZM174.465 261.929C174.992 261.929 175.437 261.796 175.8 261.529C176.162 261.263 176.437 260.881 176.624 260.382C176.811 259.883 176.905 259.291 176.905 258.605C176.905 257.976 176.822 257.413 176.658 256.914C176.494 256.41 176.23 256.01 175.868 255.715C175.511 255.421 175.043 255.273 174.465 255.273C173.932 255.273 173.482 255.407 173.114 255.673C172.745 255.934 172.465 256.313 172.272 256.812C172.085 257.311 171.992 257.908 171.992 258.605C171.992 259.223 172.077 259.784 172.247 260.288C172.417 260.793 172.683 261.192 173.046 261.487C173.408 261.782 173.881 261.929 174.465 261.929ZM180.347 263V254.211H181.843V255.902C181.991 255.483 182.198 255.137 182.464 254.865C182.73 254.588 183.033 254.381 183.373 254.245C183.719 254.109 184.076 254.041 184.444 254.041C184.575 254.041 184.702 254.049 184.827 254.067C184.952 254.083 185.048 254.112 185.116 254.151V255.673C185.031 255.633 184.92 255.608 184.784 255.596C184.654 255.579 184.544 255.571 184.453 255.571C184.102 255.548 183.773 255.571 183.467 255.639C183.161 255.701 182.892 255.812 182.659 255.97C182.427 256.129 182.243 256.339 182.107 256.599C181.977 256.854 181.911 257.166 181.911 257.534V263H180.347ZM190.516 265.737V254.211H192.08L192.097 255.741C192.199 255.56 192.33 255.37 192.488 255.171C192.653 254.973 192.851 254.789 193.083 254.619C193.321 254.449 193.596 254.31 193.908 254.202C194.225 254.095 194.585 254.041 194.987 254.041C195.69 254.041 196.308 254.202 196.84 254.525C197.379 254.843 197.798 255.33 198.098 255.987C198.399 256.645 198.549 257.478 198.549 258.486C198.549 259.495 198.401 260.348 198.107 261.045C197.818 261.736 197.398 262.263 196.849 262.626C196.299 262.989 195.636 263.17 194.86 263.17C194.469 263.17 194.12 263.113 193.814 263C193.514 262.892 193.25 262.751 193.024 262.575C192.803 262.394 192.616 262.201 192.463 261.997C192.315 261.793 192.194 261.597 192.097 261.41V265.737H190.516ZM194.562 261.946C195.288 261.946 195.88 261.671 196.339 261.121C196.798 260.566 197.027 259.705 197.027 258.537C197.027 257.534 196.818 256.738 196.398 256.149C195.979 255.56 195.367 255.265 194.562 255.265C193.746 255.265 193.129 255.568 192.709 256.174C192.29 256.775 192.08 257.563 192.08 258.537C192.08 259.166 192.174 259.739 192.361 260.254C192.548 260.77 192.825 261.181 193.194 261.487C193.562 261.793 194.018 261.946 194.562 261.946ZM200.44 263V254.211H201.936V255.902C202.083 255.483 202.29 255.137 202.556 254.865C202.823 254.588 203.126 254.381 203.466 254.245C203.812 254.109 204.169 254.041 204.537 254.041C204.667 254.041 204.795 254.049 204.919 254.067C205.044 254.083 205.14 254.112 205.208 254.151V255.673C205.123 255.633 205.013 255.608 204.877 255.596C204.747 255.579 204.636 255.571 204.545 255.571C204.194 255.548 203.865 255.571 203.559 255.639C203.253 255.701 202.984 255.812 202.752 255.97C202.52 256.129 202.335 256.339 202.199 256.599C202.069 256.854 202.004 257.166 202.004 257.534V263H200.44ZM208.561 254.211V263H207.039V254.211H208.561ZM208.595 250.717V252.349H206.988V250.717H208.595ZM218.025 254.211L214.854 263H213.426L210.247 254.211H211.726L214.064 261.028H214.208L216.554 254.211H218.025ZM221.652 263.17C221.085 263.17 220.584 263.071 220.147 262.872C219.711 262.668 219.368 262.377 219.119 261.997C218.875 261.617 218.753 261.158 218.753 260.62C218.753 259.645 219.093 258.92 219.773 258.444C220.453 257.968 221.544 257.713 223.046 257.679L224.618 257.636V256.948C224.618 256.41 224.457 255.985 224.134 255.673C223.811 255.356 223.309 255.197 222.629 255.197C222.125 255.203 221.68 255.322 221.295 255.554C220.915 255.786 220.669 256.166 220.555 256.693H219.17C219.204 256.121 219.365 255.639 219.654 255.248C219.943 254.851 220.346 254.551 220.861 254.347C221.383 254.143 221.998 254.041 222.706 254.041C223.471 254.041 224.106 254.149 224.61 254.364C225.12 254.579 225.5 254.897 225.749 255.316C226.004 255.735 226.131 256.251 226.131 256.863V263H224.788L224.678 261.351C224.338 262.037 223.904 262.513 223.377 262.779C222.856 263.04 222.281 263.17 221.652 263.17ZM222.128 262.039C222.423 262.039 222.714 261.986 223.003 261.878C223.298 261.77 223.567 261.626 223.811 261.444C224.055 261.257 224.247 261.051 224.389 260.824C224.536 260.592 224.613 260.354 224.618 260.11V258.605L223.309 258.631C222.641 258.642 222.08 258.71 221.626 258.835C221.179 258.96 220.842 259.155 220.615 259.421C220.394 259.688 220.283 260.036 220.283 260.467C220.283 260.96 220.453 261.345 220.793 261.623C221.139 261.901 221.584 262.039 222.128 262.039ZM232.149 254.041C232.778 254.041 233.344 254.163 233.849 254.406C234.353 254.644 234.764 254.984 235.081 255.426C235.404 255.868 235.605 256.39 235.685 256.99H234.291C234.24 256.684 234.121 256.404 233.934 256.149C233.752 255.894 233.511 255.69 233.211 255.537C232.911 255.384 232.559 255.307 232.157 255.307C231.403 255.307 230.791 255.579 230.321 256.123C229.851 256.667 229.616 257.5 229.616 258.622C229.616 259.637 229.831 260.45 230.262 261.062C230.698 261.668 231.338 261.971 232.183 261.971C232.585 261.971 232.933 261.895 233.228 261.742C233.528 261.583 233.769 261.376 233.951 261.121C234.132 260.861 234.248 260.583 234.299 260.288H235.668C235.594 260.878 235.396 261.388 235.073 261.818C234.75 262.249 234.336 262.583 233.832 262.821C233.333 263.054 232.772 263.17 232.149 263.17C231.361 263.17 230.661 262.997 230.049 262.651C229.443 262.306 228.967 261.796 228.621 261.121C228.275 260.447 228.103 259.62 228.103 258.639C228.103 257.721 228.258 256.92 228.57 256.234C228.887 255.543 229.346 255.004 229.947 254.619C230.553 254.234 231.287 254.041 232.149 254.041ZM238.358 265.805C237.843 265.805 237.488 265.768 237.296 265.695C237.103 265.621 237.007 265.584 237.007 265.584V264.564L237.899 264.581C238.228 264.592 238.5 264.57 238.715 264.513C238.931 264.456 239.103 264.38 239.234 264.284C239.364 264.187 239.463 264.08 239.531 263.961C239.605 263.842 239.664 263.728 239.71 263.621L240.016 262.787L236.582 254.211H238.171L240.764 260.994L243.339 254.211H244.878L241.172 263.663C240.945 264.218 240.69 264.652 240.407 264.964C240.129 265.275 239.817 265.493 239.472 265.618C239.132 265.743 238.761 265.805 238.358 265.805ZM244.978 265.134L245.93 263.034L245.191 262.991V261.113H247.154V262.745L245.709 265.134H244.978ZM264.578 254.211L261.918 263H260.371L258.365 256.514L256.461 263H254.922L252.211 254.211H253.664L255.679 260.968H255.815L257.795 254.211H258.985L261.042 260.951H261.178L263.108 254.211H264.578ZM267.896 254.211V263H266.375V254.211H267.896ZM267.93 250.717V252.349H266.324V250.717H267.93ZM275.073 255.358H273.093V260.824C273.093 261.136 273.124 261.365 273.186 261.512C273.254 261.654 273.365 261.745 273.518 261.784C273.677 261.824 273.892 261.844 274.164 261.844H275.124V262.898C275.017 262.938 274.852 262.972 274.631 263C274.416 263.028 274.147 263.043 273.824 263.043C273.218 263.043 272.747 262.96 272.413 262.796C272.079 262.632 271.843 262.388 271.707 262.065C271.577 261.742 271.512 261.345 271.512 260.875V255.358H270.084V254.211H271.554L271.937 251.652H273.093V254.202H275.073V255.358ZM277.162 263V250.369H278.692V255.503C278.839 255.259 279.037 255.033 279.287 254.823C279.536 254.608 279.839 254.435 280.196 254.304C280.553 254.168 280.967 254.1 281.437 254.1C282.01 254.1 282.528 254.208 282.993 254.423C283.457 254.633 283.826 254.933 284.098 255.324C284.37 255.715 284.506 256.18 284.506 256.718V263H282.933V257.033C282.933 256.506 282.752 256.101 282.389 255.817C282.032 255.528 281.565 255.384 280.987 255.384C280.596 255.384 280.227 255.449 279.882 255.579C279.536 255.704 279.256 255.897 279.04 256.157C278.831 256.412 278.726 256.738 278.726 257.135V263H277.162ZM292.966 263.17C292.399 263.17 291.897 263.071 291.461 262.872C291.025 262.668 290.682 262.377 290.433 261.997C290.189 261.617 290.067 261.158 290.067 260.62C290.067 259.645 290.407 258.92 291.087 258.444C291.767 257.968 292.858 257.713 294.36 257.679L295.932 257.636V256.948C295.932 256.41 295.771 255.985 295.448 255.673C295.125 255.356 294.623 255.197 293.943 255.197C293.439 255.203 292.994 255.322 292.609 255.554C292.229 255.786 291.982 256.166 291.869 256.693H290.484C290.518 256.121 290.679 255.639 290.968 255.248C291.257 254.851 291.659 254.551 292.175 254.347C292.696 254.143 293.311 254.041 294.02 254.041C294.785 254.041 295.419 254.149 295.924 254.364C296.434 254.579 296.813 254.897 297.063 255.316C297.318 255.735 297.445 256.251 297.445 256.863V263H296.102L295.992 261.351C295.652 262.037 295.218 262.513 294.691 262.779C294.17 263.04 293.595 263.17 292.966 263.17ZM293.442 262.039C293.736 262.039 294.028 261.986 294.317 261.878C294.612 261.77 294.881 261.626 295.125 261.444C295.368 261.257 295.561 261.051 295.703 260.824C295.85 260.592 295.926 260.354 295.932 260.11V258.605L294.623 258.631C293.954 258.642 293.393 258.71 292.94 258.835C292.492 258.96 292.155 259.155 291.929 259.421C291.708 259.688 291.597 260.036 291.597 260.467C291.597 260.96 291.767 261.345 292.107 261.623C292.453 261.901 292.898 262.039 293.442 262.039ZM306.828 263.17C306.216 263.17 305.646 263.077 305.119 262.889C304.598 262.697 304.164 262.399 303.819 261.997C303.473 261.589 303.255 261.07 303.164 260.441H304.592C304.672 260.787 304.813 261.076 305.017 261.308C305.227 261.535 305.488 261.708 305.799 261.827C306.111 261.94 306.451 261.997 306.819 261.997C307.409 261.997 307.885 261.886 308.247 261.665C308.61 261.444 308.791 261.104 308.791 260.645C308.791 260.322 308.695 260.065 308.502 259.872C308.315 259.674 308.023 259.529 307.627 259.438L305.808 258.988C305.099 258.818 304.533 258.552 304.108 258.189C303.683 257.826 303.47 257.319 303.47 256.667C303.465 256.152 303.586 255.698 303.836 255.307C304.085 254.916 304.459 254.608 304.958 254.381C305.456 254.154 306.077 254.041 306.819 254.041C307.771 254.041 308.539 254.256 309.123 254.687C309.712 255.112 310.018 255.738 310.041 256.565H308.655C308.599 256.146 308.409 255.815 308.086 255.571C307.768 255.322 307.341 255.197 306.802 255.197C306.241 255.197 305.785 255.31 305.434 255.537C305.082 255.758 304.907 256.104 304.907 256.574C304.907 256.886 305.031 257.132 305.281 257.313C305.53 257.489 305.898 257.636 306.386 257.755L308.145 258.198C308.553 258.305 308.888 258.447 309.148 258.622C309.415 258.798 309.624 258.994 309.777 259.209C309.936 259.424 310.046 259.651 310.109 259.889C310.177 260.121 310.211 260.345 310.211 260.56C310.211 261.099 310.075 261.563 309.803 261.954C309.536 262.34 309.151 262.64 308.647 262.855C308.148 263.065 307.542 263.17 306.828 263.17ZM314.456 263.111C313.98 263.111 313.595 263.045 313.3 262.915C313.011 262.785 312.787 262.609 312.629 262.388C312.476 262.167 312.371 261.915 312.314 261.631C312.263 261.342 312.238 261.045 312.238 260.739V250.369H313.785V260.586C313.785 261.028 313.87 261.359 314.04 261.58C314.215 261.801 314.459 261.923 314.771 261.946L315.247 261.954V262.974C315.116 263.014 314.98 263.045 314.839 263.068C314.697 263.096 314.569 263.111 314.456 263.111ZM318.12 258.971C318.12 259.526 318.211 260.031 318.392 260.484C318.579 260.932 318.86 261.289 319.234 261.555C319.613 261.821 320.087 261.954 320.653 261.954C321.214 261.954 321.696 261.824 322.098 261.563C322.506 261.303 322.767 260.926 322.88 260.433H324.368C324.26 261.028 324.022 261.529 323.654 261.938C323.285 262.345 322.841 262.654 322.319 262.864C321.798 263.068 321.254 263.17 320.687 263.17C319.866 263.17 319.143 262.992 318.52 262.634C317.896 262.277 317.409 261.765 317.058 261.096C316.706 260.427 316.531 259.625 316.531 258.69C316.531 257.767 316.689 256.956 317.007 256.259C317.324 255.562 317.783 255.018 318.384 254.627C318.99 254.236 319.718 254.041 320.568 254.041C321.396 254.041 322.095 254.219 322.668 254.576C323.24 254.933 323.674 255.438 323.968 256.089C324.269 256.735 324.419 257.503 324.419 258.393V258.971H318.12ZM318.129 257.908H322.906C322.906 257.404 322.821 256.951 322.651 256.548C322.481 256.14 322.22 255.82 321.869 255.588C321.523 255.35 321.087 255.231 320.56 255.231C320.01 255.231 319.554 255.364 319.191 255.63C318.834 255.891 318.565 256.228 318.384 256.642C318.208 257.05 318.123 257.472 318.129 257.908ZM327.529 258.971C327.529 259.526 327.62 260.031 327.801 260.484C327.988 260.932 328.269 261.289 328.643 261.555C329.022 261.821 329.496 261.954 330.062 261.954C330.623 261.954 331.105 261.824 331.507 261.563C331.915 261.303 332.176 260.926 332.289 260.433H333.777C333.669 261.028 333.431 261.529 333.063 261.938C332.694 262.345 332.25 262.654 331.728 262.864C331.207 263.068 330.663 263.17 330.096 263.17C329.275 263.17 328.552 262.992 327.929 262.634C327.305 262.277 326.818 261.765 326.467 261.096C326.115 260.427 325.94 259.625 325.94 258.69C325.94 257.767 326.098 256.956 326.416 256.259C326.733 255.562 327.192 255.018 327.793 254.627C328.399 254.236 329.127 254.041 329.977 254.041C330.805 254.041 331.504 254.219 332.077 254.576C332.649 254.933 333.083 255.438 333.377 256.089C333.678 256.735 333.828 257.503 333.828 258.393V258.971H327.529ZM327.538 257.908H332.315C332.315 257.404 332.23 256.951 332.06 256.548C331.89 256.14 331.629 255.82 331.278 255.588C330.932 255.35 330.496 255.231 329.969 255.231C329.419 255.231 328.963 255.364 328.6 255.63C328.243 255.891 327.974 256.228 327.793 256.642C327.617 257.05 327.532 257.472 327.538 257.908ZM343.534 263H341.868L339.114 258.588L337.38 260.382V263H335.816V250.369H337.38V258.605L341.511 254.211H343.313L340.143 257.56L343.534 263ZM352.9 250.539C354.232 250.539 355.291 251.074 356.079 252.145C356.872 253.211 357.269 254.789 357.269 256.88C357.269 258.96 356.875 260.532 356.088 261.597C355.3 262.657 354.232 263.187 352.883 263.187C351.54 263.187 350.475 262.66 349.687 261.606C348.899 260.546 348.506 258.979 348.506 256.905C348.506 255.506 348.687 254.333 349.05 253.386C349.412 252.44 349.922 251.729 350.58 251.253C351.237 250.777 352.01 250.539 352.9 250.539ZM352.9 261.827C353.778 261.827 354.441 261.442 354.889 260.671C355.342 259.895 355.569 258.634 355.569 256.888C355.569 255.109 355.34 253.829 354.881 253.046C354.427 252.259 353.764 251.865 352.892 251.865C352.025 251.865 351.356 252.262 350.886 253.055C350.421 253.843 350.189 255.12 350.189 256.888C350.189 258.628 350.421 259.886 350.886 260.662C351.35 261.439 352.022 261.827 352.9 261.827ZM358.864 263V260.994H360.734V263H358.864ZM363.583 250.709H370.918L370.876 252.069H364.926L364.611 256.038C365.019 255.659 365.464 255.39 365.946 255.231C366.433 255.067 366.96 254.984 367.527 254.984C368.269 254.984 368.952 255.137 369.575 255.443C370.204 255.744 370.709 256.191 371.088 256.786C371.468 257.376 371.658 258.107 371.658 258.979C371.658 259.829 371.474 260.569 371.105 261.198C370.737 261.827 370.218 262.317 369.55 262.668C368.881 263.014 368.096 263.187 367.195 263.187C366.436 263.187 365.733 263.054 365.087 262.787C364.441 262.521 363.886 262.15 363.421 261.674C362.962 261.198 362.625 260.651 362.41 260.033L363.77 259.464C363.974 259.929 364.229 260.342 364.535 260.705C364.846 261.068 365.215 261.351 365.64 261.555C366.065 261.759 366.546 261.861 367.085 261.861C367.957 261.861 368.657 261.609 369.184 261.104C369.717 260.594 369.983 259.903 369.983 259.03C369.983 258.486 369.859 258.013 369.609 257.611C369.36 257.203 369.023 256.886 368.598 256.659C368.178 256.432 367.714 256.319 367.204 256.319C366.869 256.319 366.558 256.35 366.269 256.412C365.98 256.469 365.694 256.582 365.41 256.752C365.127 256.922 364.829 257.18 364.518 257.526C364.484 257.543 364.458 257.551 364.441 257.551C364.424 257.546 364.396 257.534 364.356 257.517L363.03 257.101L363.583 250.709ZM376.139 250.522C376.689 250.522 377.182 250.666 377.618 250.955C378.055 251.244 378.397 251.652 378.647 252.179C378.896 252.706 379.021 253.327 379.021 254.041C379.021 254.755 378.896 255.373 378.647 255.894C378.403 256.415 378.063 256.82 377.627 257.109C377.19 257.393 376.695 257.534 376.139 257.534C375.578 257.534 375.077 257.393 374.635 257.109C374.198 256.82 373.853 256.415 373.598 255.894C373.343 255.373 373.215 254.755 373.215 254.041C373.215 253.327 373.343 252.706 373.598 252.179C373.853 251.652 374.198 251.244 374.635 250.955C375.077 250.666 375.578 250.522 376.139 250.522ZM376.122 256.659C376.666 256.659 377.083 256.418 377.372 255.936C377.666 255.455 377.814 254.823 377.814 254.041C377.814 253.248 377.666 252.61 377.372 252.128C377.077 251.641 376.661 251.397 376.122 251.397C375.76 251.397 375.451 251.511 375.196 251.737C374.946 251.958 374.754 252.267 374.618 252.664C374.487 253.061 374.422 253.52 374.422 254.041C374.422 254.817 374.57 255.449 374.864 255.936C375.159 256.418 375.578 256.659 376.122 256.659ZM383.832 256.14C384.387 256.14 384.883 256.288 385.319 256.582C385.756 256.871 386.098 257.279 386.348 257.806C386.597 258.333 386.722 258.951 386.722 259.659C386.722 260.373 386.597 260.994 386.348 261.521C386.104 262.048 385.764 262.456 385.328 262.745C384.891 263.028 384.393 263.17 383.832 263.17C383.271 263.17 382.769 263.028 382.327 262.745C381.885 262.456 381.54 262.048 381.29 261.521C381.041 260.994 380.916 260.373 380.916 259.659C380.916 258.951 381.041 258.333 381.29 257.806C381.545 257.279 381.894 256.871 382.336 256.582C382.778 256.288 383.276 256.14 383.832 256.14ZM383.815 262.277C384.166 262.277 384.469 262.167 384.724 261.946C384.979 261.719 385.175 261.41 385.311 261.019C385.447 260.628 385.515 260.181 385.515 259.676C385.515 259.161 385.444 258.705 385.302 258.308C385.166 257.906 384.971 257.591 384.716 257.364C384.461 257.138 384.16 257.024 383.815 257.024C383.469 257.024 383.169 257.141 382.914 257.373C382.659 257.6 382.463 257.914 382.327 258.317C382.191 258.713 382.123 259.166 382.123 259.676C382.123 260.181 382.191 260.628 382.327 261.019C382.463 261.41 382.656 261.719 382.905 261.946C383.16 262.167 383.463 262.277 383.815 262.277ZM384.537 250.573L376.275 263.068L375.213 263.06L383.509 250.573H384.537ZM397.53 254.211V255.358H395.396V263H393.815V255.358H391.962V254.211H393.815V252.851C393.815 252.154 393.994 251.624 394.351 251.261C394.708 250.893 395.241 250.709 395.949 250.709H397.606L397.615 251.822H396.297C395.94 251.822 395.697 251.919 395.566 252.111C395.436 252.304 395.371 252.596 395.371 252.987V254.211H397.53ZM400.324 258.971C400.324 259.526 400.415 260.031 400.596 260.484C400.783 260.932 401.064 261.289 401.438 261.555C401.818 261.821 402.291 261.954 402.857 261.954C403.418 261.954 403.9 261.824 404.302 261.563C404.71 261.303 404.971 260.926 405.084 260.433H406.572C406.464 261.028 406.226 261.529 405.858 261.938C405.49 262.345 405.045 262.654 404.523 262.864C404.002 263.068 403.458 263.17 402.891 263.17C402.07 263.17 401.347 262.992 400.724 262.634C400.101 262.277 399.613 261.765 399.262 261.096C398.911 260.427 398.735 259.625 398.735 258.69C398.735 257.767 398.894 256.956 399.211 256.259C399.528 255.562 399.987 255.018 400.588 254.627C401.194 254.236 401.922 254.041 402.772 254.041C403.6 254.041 404.3 254.219 404.872 254.576C405.444 254.933 405.878 255.438 406.172 256.089C406.473 256.735 406.623 257.503 406.623 258.393V258.971H400.324ZM400.333 257.908H405.11C405.11 257.404 405.025 256.951 404.855 256.548C404.685 256.14 404.424 255.82 404.073 255.588C403.727 255.35 403.291 255.231 402.764 255.231C402.214 255.231 401.758 255.364 401.395 255.63C401.038 255.891 400.769 256.228 400.588 256.642C400.412 257.05 400.327 257.472 400.333 257.908ZM409.734 258.971C409.734 259.526 409.824 260.031 410.006 260.484C410.193 260.932 410.473 261.289 410.847 261.555C411.227 261.821 411.7 261.954 412.267 261.954C412.828 261.954 413.309 261.824 413.712 261.563C414.12 261.303 414.38 260.926 414.494 260.433H415.981C415.873 261.028 415.635 261.529 415.267 261.938C414.899 262.345 414.454 262.654 413.933 262.864C413.411 263.068 412.867 263.17 412.301 263.17C411.479 263.17 410.756 262.992 410.133 262.634C409.51 262.277 409.022 261.765 408.671 261.096C408.32 260.427 408.144 259.625 408.144 258.69C408.144 257.767 408.303 256.956 408.62 256.259C408.937 255.562 409.396 255.018 409.997 254.627C410.603 254.236 411.332 254.041 412.182 254.041C413.009 254.041 413.709 254.219 414.281 254.576C414.853 254.933 415.287 255.438 415.582 256.089C415.882 256.735 416.032 257.503 416.032 258.393V258.971H409.734ZM409.742 257.908H414.519C414.519 257.404 414.434 256.951 414.264 256.548C414.094 256.14 413.833 255.82 413.482 255.588C413.136 255.35 412.7 255.231 412.173 255.231C411.623 255.231 411.167 255.364 410.805 255.63C410.448 255.891 410.178 256.228 409.997 256.642C409.821 257.05 409.736 257.472 409.742 257.908ZM417.46 265.134L418.412 263.034L417.672 262.991V261.113H419.636V262.745L418.191 265.134H417.46ZM427.3 254.211V263H425.778V254.211H427.3ZM427.334 250.717V252.349H425.727V250.717H427.334ZM429.995 263V254.211H431.517V255.486C431.658 255.242 431.854 255.013 432.103 254.797C432.358 254.582 432.664 254.409 433.021 254.279C433.384 254.149 433.8 254.083 434.271 254.083C434.826 254.083 435.336 254.194 435.801 254.415C436.271 254.636 436.645 254.982 436.923 255.452C437.206 255.917 437.348 256.517 437.348 257.254V263H435.775V257.407C435.775 256.721 435.594 256.214 435.231 255.885C434.874 255.551 434.409 255.384 433.837 255.384C433.44 255.384 433.069 255.449 432.724 255.579C432.378 255.704 432.097 255.897 431.882 256.157C431.667 256.412 431.559 256.735 431.559 257.126V263H429.995ZM446.662 263.17C445.852 263.17 445.144 262.997 444.537 262.651C443.931 262.3 443.461 261.787 443.126 261.113C442.792 260.439 442.625 259.614 442.625 258.639C442.625 257.721 442.781 256.917 443.092 256.225C443.404 255.534 443.86 254.999 444.461 254.619C445.067 254.234 445.801 254.041 446.662 254.041C447.473 254.041 448.175 254.219 448.77 254.576C449.371 254.928 449.836 255.446 450.164 256.132C450.493 256.818 450.657 257.653 450.657 258.639C450.657 259.535 450.504 260.322 450.198 261.002C449.898 261.682 449.45 262.215 448.855 262.6C448.266 262.98 447.535 263.17 446.662 263.17ZM446.662 261.929C447.189 261.929 447.634 261.796 447.997 261.529C448.359 261.263 448.634 260.881 448.821 260.382C449.008 259.883 449.102 259.291 449.102 258.605C449.102 257.976 449.02 257.413 448.855 256.914C448.691 256.41 448.427 256.01 448.065 255.715C447.708 255.421 447.24 255.273 446.662 255.273C446.13 255.273 445.679 255.407 445.311 255.673C444.942 255.934 444.662 256.313 444.469 256.812C444.282 257.311 444.189 257.908 444.189 258.605C444.189 259.223 444.274 259.784 444.444 260.288C444.614 260.793 444.88 261.192 445.243 261.487C445.605 261.782 446.079 261.929 446.662 261.929ZM455.642 263.17C455.183 263.164 454.749 263.099 454.341 262.974C453.939 262.844 453.582 262.654 453.27 262.405C452.959 262.156 452.712 261.847 452.531 261.478C452.355 261.104 452.267 260.671 452.267 260.178V254.211H453.84V260.016C453.84 260.589 454.015 261.053 454.367 261.41C454.724 261.767 455.259 261.946 455.973 261.946C456.619 261.946 457.138 261.779 457.529 261.444C457.925 261.104 458.124 260.6 458.124 259.931V254.211H459.688V263H458.438L458.277 261.317C458.169 261.759 457.985 262.116 457.724 262.388C457.469 262.66 457.16 262.861 456.798 262.991C456.441 263.116 456.055 263.176 455.642 263.17ZM462.07 263V254.211H463.566V255.902C463.713 255.483 463.92 255.137 464.186 254.865C464.453 254.588 464.756 254.381 465.096 254.245C465.442 254.109 465.799 254.041 466.167 254.041C466.297 254.041 466.425 254.049 466.549 254.067C466.674 254.083 466.77 254.112 466.838 254.151V255.673C466.753 255.633 466.643 255.608 466.507 255.596C466.377 255.579 466.266 255.571 466.175 255.571C465.824 255.548 465.495 255.571 465.189 255.639C464.883 255.701 464.614 255.812 464.382 255.97C464.15 256.129 463.965 256.339 463.829 256.599C463.699 256.854 463.634 257.166 463.634 257.534V263H462.07ZM202.474 274.709L198.887 287H197.433L194.739 277.471L192.002 287H190.591L187.046 274.709H188.636L191.356 284.492L194.127 274.709H195.359L198.122 284.492L200.893 274.709H202.474ZM204.364 282.971C204.364 283.526 204.454 284.031 204.636 284.484C204.823 284.932 205.103 285.289 205.477 285.555C205.857 285.821 206.33 285.954 206.897 285.954C207.458 285.954 207.939 285.824 208.342 285.563C208.75 285.303 209.01 284.926 209.124 284.433H210.611C210.503 285.028 210.265 285.529 209.897 285.938C209.529 286.345 209.084 286.654 208.563 286.864C208.041 287.068 207.497 287.17 206.931 287.17C206.109 287.17 205.386 286.992 204.763 286.634C204.14 286.277 203.652 285.765 203.301 285.096C202.95 284.427 202.774 283.625 202.774 282.69C202.774 281.767 202.933 280.956 203.25 280.259C203.567 279.562 204.026 279.018 204.627 278.627C205.233 278.236 205.962 278.041 206.812 278.041C207.639 278.041 208.339 278.219 208.911 278.576C209.483 278.933 209.917 279.438 210.212 280.089C210.512 280.735 210.662 281.503 210.662 282.393V282.971H204.364ZM204.372 281.908H209.149C209.149 281.404 209.064 280.951 208.894 280.548C208.724 280.14 208.463 279.82 208.112 279.588C207.766 279.35 207.33 279.231 206.803 279.231C206.253 279.231 205.797 279.364 205.435 279.63C205.078 279.891 204.808 280.228 204.627 280.642C204.451 281.05 204.366 281.472 204.372 281.908ZM216.994 287.17C216.479 287.17 216.042 287.102 215.685 286.966C215.334 286.83 215.045 286.657 214.818 286.447C214.592 286.232 214.416 286.014 214.291 285.793C214.167 285.566 214.076 285.368 214.019 285.198L213.849 287H212.651V274.369H214.232V279.605C214.305 279.458 214.416 279.296 214.563 279.12C214.716 278.945 214.912 278.775 215.15 278.61C215.388 278.446 215.668 278.31 215.991 278.202C216.32 278.095 216.694 278.041 217.113 278.041C218.213 278.041 219.085 278.423 219.731 279.188C220.383 279.953 220.709 281.081 220.709 282.571C220.709 283.495 220.57 284.303 220.292 284.994C220.015 285.68 219.601 286.215 219.051 286.6C218.502 286.98 217.816 287.17 216.994 287.17ZM216.714 285.963C217.428 285.963 218.009 285.688 218.456 285.138C218.904 284.583 219.128 283.702 219.128 282.495C219.128 281.469 218.918 280.676 218.499 280.115C218.085 279.548 217.479 279.265 216.68 279.265C216.096 279.265 215.626 279.392 215.269 279.647C214.917 279.897 214.657 280.262 214.487 280.744C214.322 281.226 214.237 281.809 214.232 282.495C214.232 283.725 214.422 284.611 214.801 285.155C215.187 285.694 215.824 285.963 216.714 285.963ZM222.268 278.287C222.268 277.494 222.461 276.82 222.846 276.264C223.231 275.703 223.744 275.276 224.385 274.981C225.031 274.686 225.742 274.539 226.518 274.539C227.368 274.539 228.119 274.664 228.771 274.913C229.422 275.157 229.932 275.514 230.301 275.984C230.669 276.454 230.853 277.029 230.853 277.709C230.853 278.316 230.66 278.865 230.275 279.358C229.89 279.846 229.3 280.228 228.507 280.506C229.045 280.653 229.516 280.869 229.918 281.152C230.32 281.435 230.632 281.784 230.853 282.198C231.074 282.605 231.185 283.076 231.185 283.608C231.185 284.169 231.066 284.674 230.828 285.121C230.595 285.563 230.267 285.94 229.842 286.252C229.417 286.558 228.915 286.793 228.337 286.957C227.759 287.116 227.13 287.193 226.45 287.187C225.606 287.181 224.861 287.026 224.215 286.72C223.574 286.413 223.07 285.986 222.702 285.436C222.333 284.881 222.135 284.223 222.107 283.464H223.679C223.798 284.229 224.11 284.815 224.614 285.223C225.118 285.631 225.75 285.835 226.51 285.835C227.11 285.835 227.634 285.742 228.082 285.555C228.53 285.362 228.875 285.099 229.119 284.764C229.363 284.43 229.485 284.039 229.485 283.591C229.485 283.098 229.349 282.682 229.077 282.342C228.805 282.002 228.433 281.744 227.963 281.568C227.493 281.387 226.969 281.294 226.391 281.288L225.286 281.262V279.928L226.34 279.902C226.878 279.891 227.36 279.789 227.785 279.596C228.21 279.398 228.544 279.14 228.788 278.823C229.037 278.5 229.162 278.146 229.162 277.76C229.162 277.42 229.057 277.106 228.847 276.817C228.637 276.522 228.334 276.287 227.938 276.111C227.547 275.936 227.071 275.848 226.51 275.848C226.068 275.848 225.645 275.936 225.243 276.111C224.841 276.281 224.509 276.545 224.249 276.902C223.988 277.259 223.849 277.721 223.832 278.287H222.268ZM239.997 287.17C239.385 287.17 238.815 287.077 238.288 286.889C237.767 286.697 237.333 286.399 236.988 285.997C236.642 285.589 236.424 285.07 236.333 284.441H237.761C237.84 284.787 237.982 285.076 238.186 285.308C238.396 285.535 238.656 285.708 238.968 285.827C239.28 285.94 239.62 285.997 239.988 285.997C240.577 285.997 241.053 285.886 241.416 285.665C241.779 285.444 241.96 285.104 241.96 284.645C241.96 284.322 241.864 284.065 241.671 283.872C241.484 283.674 241.192 283.529 240.796 283.438L238.977 282.988C238.268 282.818 237.702 282.552 237.277 282.189C236.852 281.826 236.639 281.319 236.639 280.667C236.633 280.152 236.755 279.698 237.005 279.307C237.254 278.916 237.628 278.608 238.127 278.381C238.625 278.154 239.246 278.041 239.988 278.041C240.94 278.041 241.708 278.256 242.292 278.687C242.881 279.112 243.187 279.738 243.21 280.565H241.824C241.767 280.146 241.578 279.815 241.255 279.571C240.937 279.322 240.509 279.197 239.971 279.197C239.41 279.197 238.954 279.31 238.603 279.537C238.251 279.758 238.076 280.104 238.076 280.574C238.076 280.886 238.2 281.132 238.45 281.313C238.699 281.489 239.067 281.636 239.555 281.755L241.314 282.198C241.722 282.305 242.056 282.447 242.317 282.622C242.583 282.798 242.793 282.994 242.946 283.209C243.105 283.424 243.215 283.651 243.278 283.889C243.346 284.121 243.38 284.345 243.38 284.56C243.38 285.099 243.244 285.563 242.972 285.954C242.705 286.34 242.32 286.64 241.816 286.855C241.317 287.065 240.711 287.17 239.997 287.17ZM249.672 279.358H247.692V284.824C247.692 285.136 247.723 285.365 247.785 285.512C247.853 285.654 247.964 285.745 248.117 285.784C248.276 285.824 248.491 285.844 248.763 285.844H249.723V286.898C249.616 286.938 249.451 286.972 249.23 287C249.015 287.028 248.746 287.043 248.423 287.043C247.817 287.043 247.346 286.96 247.012 286.796C246.678 286.632 246.442 286.388 246.306 286.065C246.176 285.742 246.111 285.345 246.111 284.875V279.358H244.683V278.211H246.153L246.536 275.652H247.692V278.202H249.672V279.358ZM251.761 287V278.211H253.257V279.902C253.404 279.483 253.611 279.137 253.877 278.865C254.144 278.588 254.447 278.381 254.787 278.245C255.132 278.109 255.489 278.041 255.858 278.041C255.988 278.041 256.116 278.049 256.24 278.067C256.365 278.083 256.461 278.112 256.529 278.151V279.673C256.444 279.633 256.334 279.608 256.198 279.596C256.067 279.579 255.957 279.571 255.866 279.571C255.515 279.548 255.186 279.571 254.88 279.639C254.574 279.701 254.305 279.812 254.073 279.97C253.84 280.129 253.656 280.339 253.52 280.599C253.39 280.854 253.325 281.166 253.325 281.534V287H251.761ZM259.882 278.211V287H258.36V278.211H259.882ZM259.916 274.717V276.349H258.309V274.717H259.916ZM262.577 289.737V278.211H264.141L264.158 279.741C264.26 279.56 264.39 279.37 264.549 279.171C264.713 278.973 264.912 278.789 265.144 278.619C265.382 278.449 265.657 278.31 265.968 278.202C266.286 278.095 266.646 278.041 267.048 278.041C267.751 278.041 268.368 278.202 268.901 278.525C269.439 278.843 269.859 279.33 270.159 279.987C270.459 280.645 270.609 281.478 270.609 282.486C270.609 283.495 270.462 284.348 270.167 285.045C269.878 285.736 269.459 286.263 268.909 286.626C268.36 286.989 267.697 287.17 266.92 287.17C266.529 287.17 266.181 287.113 265.875 287C265.575 286.892 265.311 286.751 265.084 286.575C264.863 286.394 264.676 286.201 264.523 285.997C264.376 285.793 264.254 285.597 264.158 285.41V289.737H262.577ZM266.623 285.946C267.348 285.946 267.94 285.671 268.399 285.121C268.858 284.566 269.088 283.705 269.088 282.537C269.088 281.534 268.878 280.738 268.459 280.149C268.04 279.56 267.428 279.265 266.623 279.265C265.807 279.265 265.189 279.568 264.77 280.174C264.351 280.775 264.141 281.563 264.141 282.537C264.141 283.166 264.234 283.739 264.421 284.254C264.608 284.77 264.886 285.181 265.254 285.487C265.623 285.793 266.079 285.946 266.623 285.946ZM279.435 278.041C280.064 278.041 280.631 278.163 281.135 278.406C281.64 278.644 282.05 278.984 282.368 279.426C282.691 279.868 282.892 280.39 282.971 280.99H281.577C281.526 280.684 281.407 280.404 281.22 280.149C281.039 279.894 280.798 279.69 280.498 279.537C280.197 279.384 279.846 279.307 279.444 279.307C278.69 279.307 278.078 279.579 277.608 280.123C277.137 280.667 276.902 281.5 276.902 282.622C276.902 283.637 277.118 284.45 277.548 285.062C277.985 285.668 278.625 285.971 279.469 285.971C279.872 285.971 280.22 285.895 280.515 285.742C280.815 285.583 281.056 285.376 281.237 285.121C281.419 284.861 281.535 284.583 281.586 284.288H282.954C282.881 284.878 282.682 285.388 282.359 285.818C282.036 286.249 281.623 286.583 281.118 286.821C280.62 287.054 280.059 287.17 279.435 287.17C278.648 287.17 277.948 286.997 277.336 286.651C276.729 286.306 276.253 285.796 275.908 285.121C275.562 284.447 275.389 283.62 275.389 282.639C275.389 281.721 275.545 280.92 275.857 280.234C276.174 279.543 276.633 279.004 277.234 278.619C277.84 278.234 278.574 278.041 279.435 278.041ZM287.146 287.111C286.67 287.111 286.284 287.045 285.99 286.915C285.701 286.785 285.477 286.609 285.318 286.388C285.165 286.167 285.06 285.915 285.004 285.631C284.953 285.342 284.927 285.045 284.927 284.739V274.369H286.474V284.586C286.474 285.028 286.559 285.359 286.729 285.58C286.905 285.801 287.149 285.923 287.46 285.946L287.936 285.954V286.974C287.806 287.014 287.67 287.045 287.528 287.068C287.387 287.096 287.259 287.111 287.146 287.111ZM292.769 287.17C292.31 287.164 291.876 287.099 291.468 286.974C291.066 286.844 290.709 286.654 290.397 286.405C290.085 286.156 289.839 285.847 289.658 285.478C289.482 285.104 289.394 284.671 289.394 284.178V278.211H290.967V284.016C290.967 284.589 291.142 285.053 291.494 285.41C291.851 285.767 292.386 285.946 293.1 285.946C293.746 285.946 294.265 285.779 294.656 285.444C295.052 285.104 295.251 284.6 295.251 283.931V278.211H296.815V287H295.565L295.404 285.317C295.296 285.759 295.112 286.116 294.851 286.388C294.596 286.66 294.287 286.861 293.925 286.991C293.568 287.116 293.182 287.176 292.769 287.17ZM303.54 287.17C303.025 287.17 302.588 287.102 302.231 286.966C301.88 286.83 301.591 286.657 301.364 286.447C301.138 286.232 300.962 286.014 300.837 285.793C300.713 285.566 300.622 285.368 300.565 285.198L300.395 287H299.197V274.369H300.778V279.605C300.851 279.458 300.962 279.296 301.109 279.12C301.262 278.945 301.458 278.775 301.696 278.61C301.934 278.446 302.214 278.31 302.537 278.202C302.866 278.095 303.24 278.041 303.659 278.041C304.759 278.041 305.631 278.423 306.277 279.188C306.929 279.953 307.255 281.081 307.255 282.571C307.255 283.495 307.116 284.303 306.838 284.994C306.561 285.68 306.147 286.215 305.597 286.6C305.048 286.98 304.362 287.17 303.54 287.17ZM303.26 285.963C303.974 285.963 304.555 285.688 305.002 285.138C305.45 284.583 305.674 283.702 305.674 282.495C305.674 281.469 305.464 280.676 305.045 280.115C304.631 279.548 304.025 279.265 303.226 279.265C302.642 279.265 302.172 279.392 301.815 279.647C301.463 279.897 301.203 280.262 301.033 280.744C300.868 281.226 300.783 281.809 300.778 282.495C300.778 283.725 300.968 284.611 301.347 285.155C301.733 285.694 302.37 285.963 303.26 285.963ZM319.554 278.211L316.383 287H314.955L311.776 278.211H313.255L315.593 285.028H315.737L318.083 278.211H319.554ZM322.766 278.211V287H321.244V278.211H322.766ZM322.8 274.717V276.349H321.193V274.717H322.8ZM329.805 287.17C329.289 287.17 328.853 287.102 328.496 286.966C328.144 286.83 327.855 286.657 327.629 286.447C327.402 286.232 327.226 286.014 327.102 285.793C326.977 285.566 326.886 285.368 326.83 285.198L326.66 287H325.461V274.369H327.042V279.605C327.116 279.458 327.226 279.296 327.374 279.12C327.527 278.945 327.722 278.775 327.96 278.61C328.198 278.446 328.479 278.31 328.802 278.202C329.13 278.095 329.504 278.041 329.924 278.041C331.023 278.041 331.896 278.423 332.542 279.188C333.193 279.953 333.519 281.081 333.519 282.571C333.519 283.495 333.38 284.303 333.103 284.994C332.825 285.68 332.411 286.215 331.862 286.6C331.312 286.98 330.626 287.17 329.805 287.17ZM329.524 285.963C330.238 285.963 330.819 285.688 331.267 285.138C331.714 284.583 331.938 283.702 331.938 282.495C331.938 281.469 331.728 280.676 331.309 280.115C330.895 279.548 330.289 279.265 329.49 279.265C328.906 279.265 328.436 279.392 328.079 279.647C327.728 279.897 327.467 280.262 327.297 280.744C327.133 281.226 327.048 281.809 327.042 282.495C327.042 283.725 327.232 284.611 327.612 285.155C327.997 285.694 328.634 285.963 329.524 285.963ZM336.523 282.971C336.523 283.526 336.614 284.031 336.795 284.484C336.982 284.932 337.263 285.289 337.637 285.555C338.017 285.821 338.49 285.954 339.056 285.954C339.617 285.954 340.099 285.824 340.501 285.563C340.909 285.303 341.17 284.926 341.283 284.433H342.771C342.663 285.028 342.425 285.529 342.057 285.938C341.689 286.345 341.244 286.654 340.722 286.864C340.201 287.068 339.657 287.17 339.09 287.17C338.269 287.17 337.546 286.992 336.923 286.634C336.3 286.277 335.812 285.765 335.461 285.096C335.11 284.427 334.934 283.625 334.934 282.69C334.934 281.767 335.093 280.956 335.41 280.259C335.727 279.562 336.186 279.018 336.787 278.627C337.393 278.236 338.121 278.041 338.971 278.041C339.799 278.041 340.499 278.219 341.071 278.576C341.643 278.933 342.077 279.438 342.371 280.089C342.672 280.735 342.822 281.503 342.822 282.393V282.971H336.523ZM336.532 281.908H341.309C341.309 281.404 341.224 280.951 341.054 280.548C340.884 280.14 340.623 279.82 340.272 279.588C339.926 279.35 339.49 279.231 338.963 279.231C338.413 279.231 337.957 279.364 337.594 279.63C337.237 279.891 336.968 280.228 336.787 280.642C336.611 281.05 336.526 281.472 336.532 281.908ZM344.445 287V284.994H346.315V287H344.445Z" fill="black"/>
<path d="M190.5 92.5C143.333 87.6667 42.7 97.3 17.5 174.5C-14 271 19 334 76 371C121.6 400.6 246.667 394 303.5 387C360.5 388.5 480.1 378.6 502.5 327C530.5 262.5 544 202.5 502.5 152C461 101.5 414.5 92.5 355 92.5" stroke="black" stroke-width="10" stroke-linecap="round"/>
</svg>
