<svg width="187" height="291" viewBox="0 0 187 291" fill="none" xmlns="http://www.w3.org/2000/svg">
<g clip-path="url(#clip0_2_854)">
<path d="M57.0114 73.2562C75.5006 73.2562 90.4891 58.3156 90.4891 39.8855C90.4891 21.4554 75.5006 6.51489 57.0114 6.51489C38.5222 6.51489 23.5337 21.4554 23.5337 39.8855C23.5337 58.3156 38.5222 73.2562 57.0114 73.2562Z" fill="white"/>
<path d="M184.622 96.8272C180.576 97.0949 176.241 95.6409 171.793 96.096C171.241 96.1526 170.627 95.7043 170.056 95.4573C169.434 95.1883 169.062 96.5673 168.161 95.5688C167.653 95.0063 166.192 95.8635 165.498 94.7908C164.56 96.031 163.636 94.664 162.682 94.6854C159.521 94.7567 156.281 95.3417 153.186 94.1176C148.639 94.5418 144.163 93.549 139.642 93.4368C138.251 93.4023 136.83 93.7167 135.499 92.8306C135.159 92.6035 134.341 93.0867 133.625 93.2744C133.557 93.2139 133.314 92.807 133.062 92.8014C129.883 92.7314 126.728 92.7651 123.55 92.1762C120.672 91.6424 117.694 92.247 114.714 91.5371C112.112 90.9171 109.238 91.806 106.59 90.7561C101.816 91.2648 97.134 89.848 92.3711 90.0712C91.8929 90.0936 91.4064 89.9387 90.6265 89.8213C92.1376 88.415 93.3832 87.2883 94.5911 86.1225C95.8827 84.8761 97.1165 83.5694 98.415 82.3304C100.866 79.9918 103.106 77.4938 104.863 74.575C105.678 73.2207 106.395 71.2198 106.497 69.8632C106.597 68.5308 105.983 67.3484 105.851 66.1025C105.473 62.5448 104.125 59.5425 101.434 57.1579C99.9997 57.3359 98.7424 55.8519 97.3592 56.5149C96.0102 57.1612 94.6476 57.1169 93.5604 57.1387C92.5657 57.6825 91.8208 58.0683 91.0976 58.491C90.427 58.8832 89.7795 59.3147 88.9089 59.8631C89.9149 56.307 90.8424 53.0287 91.7404 49.8547C91.7737 49.8502 91.8069 49.8479 91.8404 49.8436C91.8561 49.789 91.8676 49.7358 91.8861 49.6803C92.0976 49.0462 92.2705 48.4082 92.4268 47.7683C92.4409 47.5481 92.4534 47.3275 92.4627 47.1064C92.4309 47.1135 92.399 47.1184 92.3672 47.1273V45.0884C92.4172 45.0955 92.4664 45.1025 92.5158 45.1095C92.526 44.5917 92.537 44.0785 92.5598 43.5774C92.6647 41.2567 93.4469 38.4392 93.0391 36.136C92.9697 35.7441 92.963 35.3732 93.0073 35.0258V31.2729C92.937 31.0017 92.8938 30.7102 92.8905 30.3926C92.8539 26.8983 93.4492 23.6195 92.5524 20.2184C91.9498 19.228 91.388 18.3046 90.7294 17.2219C90.7404 17.2133 90.7498 17.2062 90.7608 17.1977C90.4082 16.8159 90.127 16.3555 89.9457 15.8422C89.1214 13.5061 86.97 11.9461 85.3998 10.0567C85.3972 10.0552 85.392 10.0571 85.3894 10.0554C83.8637 9.10481 82.4167 8.0261 80.8738 7.10588C77.4721 5.07687 74.0955 3.03588 70.2683 1.77519C68.9208 1.33133 67.4307 1.90947 66.4696 1.25316C65.1544 0.355271 63.7565 1.17156 62.6752 0.604583C61.2924 -0.120481 59.9329 0.013257 58.5362 0.00451152C54.5114 -0.0205139 50.571 0.137106 46.5868 1.23587C41.8079 2.55374 37.4905 4.54696 33.7485 7.67339C30.6377 10.2725 27.8202 13.2648 25.907 16.857C24.5002 19.498 22.3867 21.9843 22.8359 25.3305C21.7448 26.7615 22.4543 28.5028 22.0213 30.0381C21.414 32.1906 20.8678 34.3725 20.8485 36.5965C20.8221 39.6476 20.6419 42.6856 21.4234 45.7457C22.3978 49.561 23.2352 53.3475 26.2097 56.217C26.1182 57.8701 25.4974 59.9032 24.2045 61.425C23.2831 62.5094 23.5487 64.19 22.1813 65.0005C22.0331 65.0883 22.2714 65.6893 22.1442 65.9677C20.9112 68.6658 20.6409 71.5219 20.836 74.2612C20.2664 74.829 19.8688 75.2252 19.4633 75.6296C19.4633 77.413 19.6747 79.2439 19.352 80.9757C19.2345 81.6065 18.539 82.3987 18.845 83.0444C19.2103 83.8154 17.4611 84.1349 18.6092 84.992C18.8163 85.1468 18.1284 86.2705 18.1429 86.9406C18.2142 90.2352 16.9712 93.4289 17.429 96.7485C17.5047 97.2983 17.6731 98.052 17.3993 98.3958C16.1965 99.9068 17.0151 101.607 16.7696 103.192C16.5244 104.777 16.1331 106.366 16.1211 107.955C16.0565 116.47 16.1354 124.987 16.0423 133.501C16.0283 134.776 16.9957 136.044 16.0908 137.315C17.6376 138.627 15.8509 140.839 17.4041 142.151V147.9C16.6955 147.9 16.0983 147.753 15.6146 147.924C11.7691 149.284 8.38334 151.533 5.48707 154.274C3.89705 155.778 2.93992 158.108 2.14923 160.232C1.6544 161.562 1.42906 163.128 1.30529 164.576C0.823824 170.209 1.68822 175.815 1.93239 181.436C1.94096 181.637 1.99698 181.873 2.11596 182.027C3.47281 183.784 3.29188 186.314 5.17008 187.858C5.7359 188.324 5.84395 189.342 6.01962 189.765C7.44323 190.848 8.61105 191.735 10.0959 192.864C9.86559 195.636 10.0338 198.884 9.22877 201.872C8.36998 205.058 8.48828 208.396 7.32195 211.488C7.80996 215.227 5.79293 218.658 5.97286 222.359C5.00581 223.962 5.7382 225.877 5.17541 227.415C4.73579 228.615 4.7775 229.723 4.61337 230.877C4.43459 232.135 3.9291 233.395 3.99747 234.631C4.16848 237.723 2.7602 240.668 3.26819 243.768C3.30247 243.978 3.33115 244.285 3.21467 244.407C1.92652 245.755 2.9464 247.408 2.58858 248.864C2.27435 250.143 1.97039 251.403 1.90479 252.736C1.74383 256.008 1.47522 259.274 1.25244 262.543C1.23746 262.765 1.33761 263.083 1.2241 263.196C-0.117572 264.526 1.24488 266.403 0.491714 267.589C-0.590329 269.294 0.439005 270.623 0.532544 272.131C0.636679 273.811 1.54784 274.896 2.61173 275.998C3.75606 277.184 5.26362 277.947 6.72576 278.239C9.47881 278.788 12.3338 278.831 14.6888 279.043C16.2335 278.249 17.3503 277.676 18.3316 277.171C18.8852 275.858 19.2499 274.643 19.8801 273.585C20.7125 272.188 19.6471 271.138 19.4131 270.058C19.7489 269.619 20.0026 269.287 20.2359 268.982C19.9131 268.398 19.6627 267.945 19.6185 267.865C19.9522 265.946 20.2297 264.397 20.4827 262.844C20.52 262.616 20.4412 262.37 20.4181 262.132C20.3242 261.162 19.7971 259.873 20.2292 259.29C21.1009 258.112 20.7706 256.957 20.786 255.803C20.8148 253.638 20.7445 251.479 21.7419 249.521C24.0747 250.907 26.6404 251.391 29.3048 251.493C29.7056 251.892 30.1031 252.289 30.6198 252.804H34.9775C34.9775 260.178 34.993 267.435 34.9481 274.692C34.9447 275.273 34.5262 275.851 34.3799 276.226C35.3419 278.934 35.2892 281.438 34.2917 283.97C34.5049 284.201 34.8954 284.425 34.9223 284.686C35.1055 286.464 35.7285 287.678 37.4648 288.713C39.1065 289.692 40.5372 290.556 42.5089 290.461C43.6456 290.406 44.7997 290.708 46.2506 290.888C46.2873 290.863 46.6367 290.629 46.9662 290.407C48.9736 291.288 49.8517 291.232 51.2978 289.935C52.4557 288.897 53.5165 287.751 54.7959 286.478C54.9307 284.321 54.989 282.048 55.2473 279.798C55.3818 278.628 54.5627 277.742 54.5846 276.712C54.609 275.568 55.0116 274.436 55.2016 273.29C55.2739 272.854 55.3994 272.149 55.1836 271.987C53.5969 270.8 55.2162 269.649 55.2429 268.664C54.9151 268.268 54.7094 268.019 54.5178 267.787C55.6316 265.35 55.5095 262.958 54.6872 260.953C55.757 258.111 54.8275 255.402 55.3112 253.016C55.6901 252.639 55.9285 252.401 56.2861 252.044H59.7651C60.1937 251.563 60.5603 251.152 61.0516 250.6C61.5704 252.785 62.0522 254.814 62.4877 256.649C62.2911 257.734 61.6948 258.884 62.0431 259.521C62.9174 261.12 62.5793 262.729 62.6142 264.331C62.6798 267.343 62.6332 270.357 62.6332 273.014C64.4072 276.861 67.751 277.167 70.9116 277.758C71.4867 277.218 71.9605 276.772 72.4353 276.326C73.4312 277.49 74.7154 276.785 75.599 276.949C76.9081 276.208 78.0433 275.64 79.0981 274.951C81.0371 273.683 81.9987 270.702 81.2908 268.353C81.1715 267.958 81.077 267.514 80.8288 267.206C80.2617 266.502 82.1608 266.151 81.0213 265.283C80.6772 265.021 80.8687 264.035 80.8506 263.38C80.8289 262.596 80.8593 261.811 80.841 261.027C80.8257 260.369 81.0378 259.432 80.6892 259.105C79.3741 257.869 80.7581 256.93 80.8581 256.163C80.5595 255.426 80.2402 254.958 80.1971 254.465C80.1094 253.464 80.0046 252.413 80.2199 251.453C80.416 250.579 79.2382 249.961 80.0728 248.897C80.4331 248.438 79.5798 247.151 79.5264 246.225C79.4231 244.438 79.5839 242.636 79.4711 240.85C79.3632 239.143 78.9939 237.454 78.8338 235.748C78.5799 233.042 79.3594 230.251 78.1472 227.624C78.6647 224.525 77.1499 221.575 77.2021 218.496C77.9223 218.91 78.5247 219.251 78.7952 219.764C79.9051 221.872 81.3516 223.737 83.6252 224.482C85.8219 225.202 88.1698 225.746 90.4668 225.809C93.5119 225.894 96.5853 225.543 99.6201 225.167C101.041 224.99 102.414 224.354 103.783 223.857C104.855 223.468 105.924 223.041 106.928 222.506C108.04 221.914 109.145 221.267 110.131 220.49C112.414 218.692 114.702 216.826 116.258 214.364C117.121 212.997 117.601 211.299 117.887 209.686C118.156 208.165 118.118 206.535 117.902 204.997C117.606 202.891 117.153 200.733 114.493 200.073C114.588 198.838 114.337 197.458 114.857 196.488C115.522 195.249 114.914 194.071 115.27 192.949C115.612 191.869 116.537 190.841 116.516 189.804C116.468 187.477 117.644 185.492 118.118 183.34C118.571 181.279 118.539 178.976 119.893 177.029C120.553 176.079 120.479 174.585 120.624 173.325C120.746 172.266 120.591 171.252 121.247 170.202C121.765 169.374 121.292 168.205 121.811 167.083C122.499 165.595 122.645 163.75 122.614 162.066C122.564 159.426 123.745 156.936 123.389 154.275C123.354 154.013 123.907 153.673 124.163 153.395C122.922 151.868 123.351 150.274 123.365 148.787C123.404 144.831 122.341 141.396 120.065 138.016C117.167 133.714 113.11 131.79 108.381 131.167C103.096 130.47 97.7512 131.251 92.4982 131.869C88.5758 132.331 84.7127 133.58 80.9341 134.816C79.5606 135.265 78.9043 134.998 78.1602 134.104C78.0274 131.038 78.0881 128.013 77.5962 124.939C77.0546 121.552 77.5605 118.011 77.4481 114.542C77.3349 111.047 77.0415 107.557 76.7877 104.067C76.7044 102.92 76.4989 101.781 76.3231 100.44C77.5859 99.4898 76.4157 98.3312 75.9771 97.1211C76.8566 96.5514 77.6558 96.0336 78.5389 95.4619C79.1139 95.4619 79.7835 95.4741 80.4523 95.459C81.5399 95.4344 82.3623 96.3742 83.5508 96.1702C84.7161 95.9701 85.8789 96.5898 86.9846 96.7045C90.0226 97.019 93.0833 96.8419 96.1491 97.4032C99.0292 97.9307 102.012 97.6338 104.979 97.9873C108.876 98.452 112.812 99.0667 116.821 98.8938C121.328 98.6996 125.816 99.9066 130.362 99.4966C130.474 99.4865 130.619 99.4496 130.694 99.5023C131.957 100.394 133.432 100.333 134.795 100.117C136.311 99.8762 137.503 100.797 138.906 100.849C143.536 101.019 148.155 100.636 152.805 101.41C156.494 102.024 160.32 101.708 164.101 102.042C168.918 102.468 173.754 103.319 178.646 102.881C180.318 102.731 182.015 102.857 183.883 102.857C184.834 101.573 185.85 100.202 187 98.6494C186.217 98.0492 185.522 97.5172 184.622 96.8272ZM31.2145 24.2022C32.1518 20.3817 35.0045 18.0121 37.7692 15.8932C41.1398 13.3098 44.6879 10.7699 48.8316 9.36281C49.1193 9.26506 49.3491 8.74921 49.5788 8.76744C52.8699 9.02927 56.1833 8.25583 59.4838 9.21084C60.8775 9.61414 62.4047 9.9359 63.8506 10.0062C65.7327 10.0977 67.46 10.7054 68.9784 11.497C72.9666 13.5759 76.8238 15.9222 80.6162 18.3438C81.6457 19.0013 82.7109 19.9122 83.0668 21.3286C83.2386 22.0121 83.7778 22.6042 84.218 23.3523V36.966C84.218 38.8689 84.3327 40.7807 84.1851 42.672C84.0432 44.4852 83.6707 46.2847 83.4374 48.0911C83.1447 50.3572 82.6615 52.6606 82.042 54.879C81.2758 57.6228 79.5373 59.8786 77.3082 61.6328C74.6533 63.722 71.4385 64.8487 68.2676 65.765C66.7461 66.2045 64.8698 66.1051 63.0924 65.4553C61.7089 64.9494 60.022 65.1799 58.4739 65.2248C54.1192 65.3514 50.0953 63.9478 46.1352 62.4647C43.9124 61.6323 41.6367 60.7805 39.7462 59.1776C37.3472 57.1435 34.7817 55.3214 33.5898 52.2013C33.2232 51.2416 32.3468 50.4872 31.7962 49.583C30.8181 47.9768 29.9106 46.328 28.9065 44.5802C28.9065 41.9297 29.0195 39.1286 28.8803 36.34C28.6676 32.082 30.2302 28.2149 31.2145 24.2022ZM13.5411 159.367C15.3919 158.432 17.0213 157.061 19.5575 157.071C19.64 157.225 20.013 157.858 20.3289 158.519C21.2667 160.48 22.4643 162.231 24.1306 163.67C25.1459 164.547 26.0469 165.555 26.9994 166.504C28.8132 168.312 31.3055 169.697 34.3142 170.783C35.5792 171.24 36.7456 171.968 38.448 172.819C39.1339 172.984 40.3909 172.677 41.6709 173.359C42.9258 174.027 44.4855 174.34 46.0628 174.158C46.9856 174.051 48.0965 173.739 48.8097 174.792C50.6086 174.44 52.5873 175.532 54.2546 174.12C55.8112 174.845 57.1395 174.148 58.7072 173.321C59.0717 173.636 59.318 173.849 59.5752 174.072C63.4096 173.159 67.2657 172.242 71.2018 171.305C71.0285 172.539 70.376 172.675 69.4675 172.838C68.5909 172.996 67.8527 173.837 66.9716 174.072C66.1361 174.294 65.1941 174.12 64.8896 174.12C63.0282 174.871 61.6813 175.415 60.6887 175.816C59.6158 175.743 58.8413 175.63 58.074 175.665C57.687 175.683 57.3205 176.088 56.931 176.114C55.9253 176.182 54.8194 176.393 53.9255 176.072C52.8139 175.672 52.3413 177.449 51.2439 176.573C50.366 175.872 49.6712 177.196 48.659 176.871C47.7439 176.577 46.6586 176.809 45.6484 176.809C44.6383 176.809 43.5935 176.976 42.6246 176.776C40.2276 176.282 37.6515 176.62 35.4266 175.49C34.5554 175.048 34.3428 176.605 33.4867 175.752C33.1262 175.393 32.241 175.597 31.6166 175.451C30.91 175.286 30.2419 174.951 29.5333 174.803C25.5195 173.968 21.5746 173.022 18.1677 170.525C16.8083 169.528 15.2968 168.753 13.9094 167.752C12.4689 166.714 11.32 165.449 9.84561 164.26C10.9599 162.512 11.3191 160.491 13.5411 159.367ZM17.9745 206.082C17.1594 207.025 17.5588 207.973 17.4476 208.913C17.075 212.057 16.471 215.186 16.7649 218.379C15.2255 220.071 17.02 222.529 15.416 224.206C15.416 226.335 15.4941 228.467 15.3865 230.589C15.3227 231.849 15.1701 233.177 14.6945 234.325C13.9492 236.124 14.1365 237.945 14.0477 239.778C13.9974 240.817 13.7553 241.847 13.5603 243.14C13.5603 243.14 13.7649 243.389 13.9611 243.628C13.7722 244.75 13.4953 245.873 13.4132 247.01C13.297 248.618 13.4087 250.198 12.779 251.794C12.2356 253.172 13.2367 254.863 12.2408 256.278C12.909 257.452 12.3885 258.486 12.1397 259.691C11.5493 262.554 11.4622 265.52 11.134 268.823C10.8965 269.041 10.5754 269.335 10.1112 269.761C9.67277 269.433 9.25462 269.121 8.6705 268.684C8.6705 265.887 8.60936 262.999 8.69723 260.114C8.73907 258.742 9.12328 257.305 9.49751 256.07C9.9623 254.535 9.92066 253.088 10.0118 251.597C10.2594 247.547 10.4693 243.495 10.6942 239.443C12.1055 238.236 10.611 236.167 12.0287 234.942C12.1397 234.846 12.0754 234.506 12.0384 234.288C11.5303 231.299 12.9622 228.465 12.7487 225.491C12.7065 224.905 13.1161 224.301 13.2255 223.688C13.7481 220.763 14.2814 217.838 14.7206 214.9C14.8989 213.708 14.4212 212.187 15.0076 211.347C15.7606 210.267 14.7011 208.77 16.0905 208.067C16.3574 205.369 16.6243 202.67 16.9034 199.85C17.0814 199.796 17.38 199.705 17.6818 199.613C18.0515 201.158 18.5189 205.452 17.9745 206.082ZM34.8888 244.063C33.1097 243.505 31.3862 242.922 29.6372 242.429C28.3288 242.06 27.1515 241.321 25.7044 241.286C25.132 241.271 24.5771 240.553 23.6076 239.869C24.8926 239.34 25.7339 238.682 26.5444 238.717C29.2932 238.838 31.6041 237.519 34.1504 236.827C34.3239 236.999 34.5623 237.237 34.8888 237.563V244.063ZM36.2045 210.628C35.5881 213.373 35.859 216.057 35.5797 219.053C33.4874 220.476 30.3012 219.961 28.3919 222.233C27.7404 223.619 29.0359 224.227 29.9663 225.285C31.4732 225.019 33.109 224.73 34.4344 224.496C36.0534 225.419 35.5424 226.606 35.6792 227.673C31.5375 228.265 27.79 230.046 23.5694 230.292C23.4702 228.318 23.2705 226.189 24.1685 224.112C24.4957 223.354 25.0674 222.077 24.7799 221.795C23.8373 220.872 24.9027 220.3 24.8747 219.588C24.8216 218.249 25.1589 216.813 24.7768 215.59C24.3799 214.319 26.0765 213.253 24.8596 212.097C25.9411 209.476 25.401 206.479 26.7135 204.003C26.4913 203.607 26.2888 203.245 26.0309 202.786C26.4821 202.332 26.8595 201.953 27.366 201.443C28.1307 202.04 28.79 202.555 29.5653 203.161C30.2156 202.918 30.8961 202.663 31.6221 202.392C33.0401 203.179 34.5281 203.474 36.3265 202.184C36.3265 205.306 36.7764 208.081 36.2045 210.628ZM45.8022 275.486C45.6743 277.25 45.7698 279.03 45.7698 280.796C42.8884 280.902 42.5055 280.268 43.6695 277.814C43.4489 276.867 43.1004 276.058 43.0963 275.247C43.0556 267.196 43.0661 259.145 43.0823 251.094C43.0836 250.468 42.8815 249.824 43.507 249.235C43.799 248.959 43.9018 248.033 43.666 247.731C42.6048 246.371 42.8854 245.143 43.9143 244.006C43.5821 243.598 43.3793 243.348 43.1737 243.095C43.4007 242.693 43.6405 242.268 43.8703 241.86C43.5345 241.498 43.3106 241.256 43.0443 240.968C43.6419 239.193 44.4503 237.366 43.1985 235.691C43.3957 234.529 43.7069 233.499 43.722 232.465C43.781 228.441 43.7174 224.414 43.7628 220.389C43.7771 219.12 43.4339 217.819 44.3517 216.591C44.6313 216.217 44.0912 215.234 43.8841 214.348C45.1816 212.017 43.932 209.176 44.6435 206.272C45.2415 206.566 45.7636 206.822 46.2666 207.068C46.2666 227.484 46.2677 247.783 46.2469 268.081C46.2468 268.239 45.9494 268.397 45.7907 268.555C46.0021 268.793 46.214 269.03 46.4179 269.258C46.1957 269.502 45.9747 269.745 45.6933 270.054C45.9392 270.605 46.2759 271.149 46.4268 271.741C46.7656 273.067 45.8931 274.231 45.8022 275.486ZM54.4816 225.892C54.6174 225.644 54.767 225.372 54.9426 225.052C54.8156 224.246 54.5641 223.368 54.5574 222.488C54.519 217.457 54.5699 212.425 54.5182 207.394C54.504 206.034 54.2384 204.678 54.072 203.173C55.6195 202.89 57.3482 202.574 59.349 202.208C59.349 207.342 59.3399 212.12 59.3759 216.898C59.3777 217.143 59.7671 217.384 59.9512 217.598C59.7074 218.352 59.0971 219.242 59.333 219.694C60.0393 221.048 59.9206 222.42 59.9322 223.814C59.9442 225.268 59.9351 226.721 59.9351 228.29C59.6528 228.517 59.3068 228.796 58.9302 229.1C57.4972 228.129 55.4125 227.89 54.4816 225.892ZM55.9945 242.994C55.2234 242.351 54.8131 242.01 54.4891 241.74C55.0263 239.963 55.5015 238.39 56.0007 236.738H59.2489C59.6837 237.795 60.1891 239.022 60.7794 240.456C59.1741 241.307 57.6341 242.124 55.9945 242.994ZM72.1773 262.149C72.5863 263.447 72.9013 264.439 72.1223 265.679C71.8381 266.131 72.0765 266.91 72.0765 267.525C71.5494 267.549 71.3291 267.559 70.8226 267.582C70.791 266.413 70.7452 265.236 70.7312 264.059C70.7151 262.717 71.1564 261.163 70.6213 260.084C69.9148 258.66 70.1687 257.324 70.0628 255.947C69.9647 254.67 70.0516 253.447 69.4712 252.158C69.0102 251.133 69.3482 249.737 69.3834 248.508C69.5667 242.098 68.2282 235.743 68.6761 229.32C68.701 228.962 68.3248 228.577 68.1177 228.17C68.2632 228.011 68.4838 227.771 68.5981 227.646C68.3971 226.398 68.1032 225.262 68.0536 224.115C67.9666 222.105 68.0923 220.086 67.9986 218.077C67.9607 217.266 67.4041 216.471 67.4041 215.669C67.4041 214.867 67.8936 214.076 67.9957 213.259C68.0564 212.773 67.9181 212.15 67.6351 211.755C66.8737 210.695 67.6916 209.963 68.0643 209.06C67.8218 208.645 67.5613 208.199 67.0866 207.386C67.5723 207.193 68.1075 206.98 68.6588 206.76C68.6954 206.795 69.0709 207.154 69.508 207.572C69.2165 208.081 68.9597 208.529 68.6696 209.035C68.904 209.458 69.1548 209.91 69.4766 210.491C69.2436 210.797 68.9912 211.128 68.7437 211.453C68.9406 211.675 69.3753 211.952 69.3458 212.165C68.9632 214.929 69.7292 217.616 70.1454 220.266C70.9054 225.106 70.1958 229.993 70.8694 234.748C71.3527 238.161 70.8795 241.575 71.4843 244.878C72.187 248.717 71.9595 252.532 72.1012 256.36C72.1233 256.954 72.4736 257.535 72.7204 258.265C71.6899 259.32 71.7868 260.909 72.1773 262.149ZM68.2541 205.717V205.045H68.479V205.717H68.2541ZM73.2309 183.471C71.9513 186.561 68.6535 188.063 65.518 189.51C62.7985 190.764 59.607 190.812 56.895 192.266C56.8078 192.312 56.6704 192.288 56.5617 192.269C53.7865 191.776 51.1738 193.096 48.4157 192.982C47.1616 192.931 45.7983 192.536 44.6163 193.574C44.3003 193.852 43.2239 193.845 43.0221 193.576C42.1745 192.449 41.1979 193.517 40.3094 193.264C39.3858 193.001 38.3691 193.086 37.4072 192.931C36.368 192.764 35.3504 192.467 34.3137 192.28C33.2744 192.092 32.0562 192.732 31.2251 191.599C28.1089 191.989 25.4929 190.218 22.6108 189.68C21.3315 189.441 20.9621 188.042 19.4751 188.128C18.46 188.187 17.4157 187.216 16.5251 186.388C15.7036 185.624 14.5974 185.164 13.5866 184.552C13.1285 183.733 12.7027 182.769 12.0984 181.934C10.6777 179.969 9.73264 177.912 9.99598 175.396C10.1318 174.1 10.0199 172.778 10.0199 171.427C10.8216 172.214 11.3762 172.937 12.091 173.429C15.3673 175.686 18.6518 177.934 22.5935 178.967C23.0626 179.09 23.3976 179.722 23.8085 180.131C25.0514 180.31 26.311 180.043 27.5772 180.772C28.626 181.377 30.2376 180.223 31.3003 181.515C33.4152 181.07 35.3403 182.238 37.423 182.206C41.5776 182.142 45.7352 182.248 49.8887 182.156C51.4845 182.121 53.0664 181.654 54.6658 181.539C56.2301 181.428 57.8808 181.809 59.3653 181.449C61.9034 180.834 64.4983 180.34 66.9506 179.454C69.3438 178.59 71.6062 177.366 73.8137 176.351C73.6361 178.521 73.4531 180.755 73.2309 183.471ZM77.2012 218.494C76.9004 217.846 76.8693 217.193 76.8383 216.54C76.9886 216.527 77.1387 216.513 77.2889 216.499C77.3756 217.16 77.4622 217.82 77.5489 218.48C77.3954 218.486 77.2424 218.491 77.2012 218.494ZM76.8913 215.661V211.926C77.1557 211.88 77.5344 211.815 77.8723 211.757C78.6556 213.349 77.7224 214.494 76.8913 215.661ZM77.1557 197.084L76.6413 196.534C77.016 196.009 77.3907 195.485 77.7837 194.935C78.2058 195.355 78.5094 195.658 78.9237 196.071C78.3108 196.422 77.733 196.753 77.1557 197.084ZM87.7763 84.0779C86.7113 84.4662 85.7939 85.2447 84.7871 85.8082C83.8791 86.3166 82.9811 86.8991 82.0028 87.2148C79.5876 87.9947 77.5918 89.6298 75.2745 90.4996C72.7453 91.4491 70.4711 93.0417 67.7336 93.4793C67.3703 93.5374 67.0813 94.0579 66.7813 94.342C66.9754 95.497 67.2985 96.6222 67.3288 97.7553C67.4068 100.666 67.2591 103.584 67.3806 106.492C67.5127 109.652 66.6688 112.91 68.0634 115.947C68.5378 116.979 66.9948 117.662 67.9423 118.836C68.4364 119.449 68.0295 120.783 68.0295 121.791C68.0295 122.912 67.9883 124.034 68.0412 125.152C68.0923 126.231 68.0871 127.352 68.3944 128.368C68.6364 129.169 67.174 130.129 68.6654 130.719C68.6783 131.834 68.6956 132.949 68.7027 134.064C68.709 135.072 68.3781 136.232 68.7648 137.061C69.9454 139.592 68.7979 142.455 70.2113 144.774C71.2117 145.58 72.2122 146.385 73.2591 147.228H76.5396C77.2577 146.295 78.0953 145.206 78.952 144.093C82.618 142.961 86.5449 142.646 90.1685 141.178C91.9641 141.635 93.5683 140.658 95.2828 140.485C96.437 140.368 97.5632 139.973 98.7174 139.857C99.8302 139.746 101.049 140.096 102.065 139.766C103.329 139.357 104.748 138.72 105.804 139.26C107.096 139.92 108.35 139.634 109.509 139.96C113.302 141.292 114.042 144.585 114.537 147.884C115.147 151.953 113.601 155.955 113.897 160.036C112.82 161.383 113.259 162.97 113.252 164.464C113.248 165.278 112.694 165.894 112.611 166.546C112.181 169.912 111.206 173.153 110.5 176.452C109.909 179.209 109.246 181.969 108.343 184.636C107.64 186.713 107.372 188.881 106.587 190.961C105.825 192.979 105.485 195.244 105 197.393C104.455 199.814 104.042 202.302 103.237 204.7C102.739 206.184 103.145 207.969 103.145 209.914C104.999 209.683 106.66 209.476 108.614 209.232C108.372 209.758 108.291 210.395 107.964 210.567C106.26 211.465 104.82 212.775 103.192 213.711C100.265 215.394 97.025 216.439 93.561 216.471C91.7627 216.488 89.964 216.474 88.1653 216.474C86.1636 215.703 84.7476 214.388 84.218 212.25C84.9013 208.543 86.3165 205.066 87.5835 201.54C88.7412 198.319 89.8995 195.095 90.9492 191.838C92.5761 186.791 94.108 181.714 95.686 176.651C96.8306 172.979 97.8853 169.273 99.2181 165.67C99.4886 164.938 99.5104 164.21 99.768 163.547C100.371 161.995 100.785 160.196 102.965 159.978C103.347 159.94 103.723 159.627 104.055 159.378C104.999 158.672 105.919 157.934 107.017 157.076V154.269C106.297 153.977 105.423 153.301 104.585 153.343C102.422 153.45 100.156 152.634 98.096 153.901C93.38 154.141 89.3085 156.661 84.8237 157.638C81.4244 158.379 78.2009 159.732 74.6733 160.086C72.0647 160.348 69.4681 161.059 66.881 161.609C66.1784 161.758 65.4437 162.001 64.7115 162.005C59.5408 162.031 54.3692 162.064 49.1995 161.988C47.8282 161.967 46.4321 161.281 45.1021 161.42C43.4779 161.59 42.1074 160.895 40.6959 160.531C39.4186 160.203 37.9549 159.87 36.8814 159.238C34.1062 157.605 31.2047 156.15 29.846 152.673C28.4562 149.116 26.8791 145.71 26.8507 141.799C26.8441 140.882 26.3945 139.975 26.2199 139.05C26.0609 138.207 26.1894 137.257 25.841 136.518C25.4708 135.732 26.9628 135.181 25.8649 134.327C25.4443 134 25.5479 132.903 25.5461 132.157C25.5265 124.427 25.1203 116.666 25.6822 108.976C26.0452 104.012 25.7058 99.0268 26.3369 94.1355C26.7183 91.179 26.7786 88.2638 26.8823 85.3226C26.9274 84.0382 27.8053 82.9529 27.603 81.5612C27.4204 80.3062 27.8851 79.0445 28.1141 77.7916C28.5303 75.5144 28.0495 73.0892 28.2831 70.7598C28.5197 68.4025 28.7254 65.9693 29.9926 63.6021C31.7986 64.8902 33.4975 65.9826 35.0605 67.2421C38.0744 69.6711 41.771 70.5857 45.2749 71.8873C47.4481 72.6947 49.7623 73.0692 52.0905 73.4472C54.7351 73.8766 57.3231 73.8151 59.936 73.9253C60.646 73.9554 61.2477 74.5434 61.6765 74.5312C63.1736 74.4886 64.7154 75.0723 66.2247 74.17C66.7772 73.8398 67.7727 74.2462 69.0796 74.3621C70.115 74.0518 71.3903 73.4329 72.706 73.3308C74.6697 73.1785 76.3831 72.4445 78.0892 71.6359C80.5339 70.4778 82.8545 69.072 85.5759 68.53C86.5642 68.3332 87.5192 67.7657 88.3854 67.207C90.2642 65.9954 92.0758 64.6805 94.1267 63.2614H97.1594C99.5775 65.6787 99.0163 68.5858 99.0606 71.5461C96.5418 75.3815 93.361 78.819 89.8991 82.0162C88.55 82.0184 88.8674 83.6801 87.7763 84.0779Z" fill="black"/>
</g>
<defs>
<clipPath id="clip0_2_854">
<rect width="187" height="291" fill="white"/>
</clipPath>
</defs>
</svg>
