<svg width="227" height="588" viewBox="0 0 227 588" fill="none" xmlns="http://www.w3.org/2000/svg">
<path d="M58.3553 179.5C47.8553 164.5 37.3553 110 20.3553 108C4.85526 112.5 18.3553 131.5 20.3553 157.5C22.3553 183.5 46.3553 199 63.8553 218C77.8553 233.2 75.0219 220.333 71.8553 212C70.8553 206.167 66.7553 191.5 58.3553 179.5Z" fill="white"/>
<path d="M226.513 121.314C225.796 119.51 226.352 117.785 225.591 116.313C222.213 109.753 216.721 106.493 209.136 106.216C208.745 106.328 207.873 106.64 206.974 106.826C204.667 107.303 202.134 107.277 200.077 108.26C195.626 110.387 190.834 111.846 186.793 114.82C184.127 116.782 181.31 118.541 178.691 120.561C176.258 122.437 173.669 124.265 171.736 126.6C168.233 130.829 164.919 135.208 161.081 139.156C160.556 139.697 160.337 140.523 159.877 141.143C157.166 144.79 154.816 148.647 152.482 152.555C148.588 159.074 145.302 165.847 142.172 173.06C141.513 172.579 140.835 172.188 140.286 171.662C137.701 169.186 135.393 166.401 132.21 164.604C127.54 161.968 122.904 159.296 117.207 159.776C115.241 159.941 113.249 159.802 111.765 159.802C110.229 160.626 109.139 161.221 108.038 161.792C107.906 161.86 107.709 161.801 107.657 161.801C106.679 161.098 105.858 160.228 104.853 159.855C103.402 159.315 101.821 159.116 100.288 158.807C98.1424 158.376 96.2279 159.435 94.2003 159.761C85.3065 161.191 79.5787 167.222 73.9317 173.415C73.3279 176.204 70.9886 178.115 70.2601 180.896C69.5601 183.567 68.4276 186.125 67.4225 188.907C66.5563 187.857 65.4928 186.991 64.9789 185.872C62.3375 180.122 58.6227 174.966 56.3954 168.937C54.2079 163.016 52.2694 157.002 50.0287 151.097C48.276 146.479 47.7225 141.386 45.8109 136.853C44.1817 132.988 43.9076 128.953 43.0687 125.02C41.9901 119.966 39.7398 111.967 36.6595 108.198C34.9654 106.125 32.8826 104.3 30.5535 102.673C27.5068 100.544 24.4817 101.027 21.4109 101.093C19.8413 101.858 18.2212 102.343 16.6057 102.842C16.0168 103.024 15.3508 103.12 14.8708 103.465C11.5144 105.879 7.95602 108.099 6.74872 112.498C6.46992 113.515 5.67252 114.39 4.99212 115.534C4.75772 117.476 5.44692 119.765 4.04092 121.882C3.58022 122.575 3.66392 123.961 4.02112 124.81C5.53532 128.409 4.79652 132.382 5.99822 135.986C7.17892 139.526 7.32142 143.333 8.94942 146.754C9.87792 148.705 10.3185 150.801 10.7468 152.869C11.7119 155.302 12.8601 157.655 13.8332 160.088C14.6262 162.07 15.2109 164.278 16.8334 165.755C17.8249 166.658 18.298 167.677 18.3922 168.687C21.7728 175.092 24.6937 181.8 28.9105 187.823C32.6856 193.216 36.151 198.828 39.9251 204.227C41.021 205.795 42.3443 207.205 43.4241 208.783C44.4981 210.352 45.7845 211.773 47.0152 213.166C50.7696 217.416 54.7618 221.513 59.8839 224.16C63.7452 226.155 68.0729 227.292 71.2403 230.532C71.4234 230.72 71.8306 230.731 72.1378 230.748C74.1983 230.864 75.1651 232.193 75.9706 233.903C76.4325 234.884 77.2985 235.674 78.0329 236.615C77.9196 238.228 78.4001 240.304 77.5764 241.403C75.2959 244.443 76.4199 248.211 74.1911 252.199C71.6896 253.969 68.2087 256.212 64.9816 258.775C61.3593 261.652 57.0331 263.617 53.9799 267.213C52.7414 268.672 51.654 270.258 50.4284 271.729C48.235 274.36 46.7162 277.168 46.9062 280.783C47.0891 284.265 46.9458 287.764 46.9458 290.66C49.6028 295.231 51.4084 299.807 55.6414 302.48C56.6404 302.819 57.5674 303.336 58.5264 303.783C59.6414 304.303 60.7847 304.762 61.6936 305.153C62.7939 309.156 64.1118 313.006 64.8665 316.963C65.6038 320.831 67.784 324.137 68.617 327.909C69.4935 331.878 72.1165 335.144 72.9112 339.017C70.065 343.702 68.1634 348.922 63.9107 353.229C62.4583 350.728 60.097 352.385 58.4993 351.575C56.0056 350.311 53.3138 350.437 50.7591 349.766C48.0018 349.043 45.0562 349.056 42.2064 348.653C41.305 348.525 40.4488 347.847 39.5692 347.841C35.8763 347.816 32.0985 346.898 28.4359 348.731C28.1351 348.37 27.8199 347.991 27.4068 347.495C21.5069 347.587 13.907 351.243 8.90922 353.549C3.18652 356.19 0.293221 359.533 0.0413208 365.934C-0.203779 372.161 0.664821 378.323 2.02812 384.421C2.97812 386.319 3.92212 388.22 4.67292 390.211C4.85532 390.695 4.92802 391.194 4.91192 391.688C5.27542 393.894 5.16042 395.855 5.74642 397.797C6.16782 399.192 6.71172 400.534 7.30692 402.053C7.55842 402.331 7.79272 402.65 8.00222 403.017C10.8355 407.983 11.9392 413.711 14.7864 418.625C17.5457 423.388 21.6394 427.194 24.3355 432.017C24.7278 432.719 24.9368 433.412 24.9961 434.076C28.6355 440.668 32.2075 447.139 35.9876 453.986C35.6541 457.493 34.6565 461.586 33.4773 465.69C32.6646 468.518 31.4126 471.17 30.8184 474.122C29.9107 478.633 28.1956 482.995 26.6492 487.358C25.2112 491.417 23.3672 495.38 24.9746 499.812C25.2869 500.673 25.8223 501.453 26.3237 502.402C29.1281 504.305 32.4248 503.342 34.8557 503.553C36.418 502.664 37.4211 502.192 38.3152 501.565C40.9048 499.749 43.928 498.261 45.8709 495.897C47.5821 493.815 49.5604 492.311 51.9261 490.464C51.9261 492.855 52.5438 495.225 51.8101 497.052C49.6243 502.497 50.2212 508.313 48.9988 513.864C48.4192 516.496 47.4124 519.132 47.9453 521.932C46.3442 523.377 46.77 525.35 47.0369 527C47.3782 529.109 45.7576 530.647 45.9534 532.596C46.0633 533.686 45.7935 534.73 46.585 535.857C47.2278 536.772 47.0301 538.278 47.1604 539.203C50.1914 541.162 52.9358 542.936 55.3281 544.482C58.6614 544.757 61.657 543.929 64.3452 545.595C65.3845 544.249 66.4306 544.194 67.4165 545.404C69.9463 543.34 72.4561 541.292 74.9311 539.272C74.9311 534.964 75.1984 530.786 74.8559 526.659C74.5126 522.525 76.6088 518.786 75.8425 514.535C82.4834 514.754 87.5114 519.602 93.8054 518.618C94.2414 522.696 93.2673 526.479 94.8366 530.105C95.0978 530.709 94.2529 531.791 94.082 532.232C94.4138 533.816 94.7851 535.015 94.9004 536.238C95.419 541.75 93.9177 547.379 95.874 552.827C96.0417 553.294 95.6164 554.019 95.3679 554.58C94.7522 555.973 94.6194 557.272 95.4844 558.666C95.8765 559.299 95.8628 560.183 95.9444 560.551C98.4695 565.551 103.601 565.41 107.595 567.345C108.912 565.818 110.685 566.61 112.242 566.58C114.845 566.531 117.114 565.856 119.452 564.62C122.9 562.797 124.996 560.417 124.905 556.406C124.858 554.332 125.259 552.184 123.906 550.325C124.477 545.404 123.133 540.614 122.918 535.748C122.844 534.086 122.906 532.418 122.906 530.752C122.906 529.087 122.668 527.376 122.974 525.768C123.271 524.206 121.699 522.881 122.566 521.451C123.61 519.729 120.851 518.665 122.395 516.597C122.547 516.49 123.181 516.003 123.852 515.574C126.997 513.565 131.05 513.566 133.964 511.026C134.133 510.878 134.415 510.86 134.687 510.767C135.107 511.306 135.562 511.78 135.884 512.331C136.271 512.993 136.545 513.721 136.899 514.487C136.899 516.405 136.801 518.41 136.927 520.4C137.045 522.274 137.399 524.133 137.669 526.148C136.339 527.045 137.31 528.762 136.826 530.039C136.281 531.476 139.108 531.837 137.544 533.536C136.555 534.61 138.518 535.885 137.909 537.575C140.362 539.244 142.847 540.936 145.212 542.547H152.048C153.197 541.783 154.117 541.161 155.047 540.555C157.472 538.974 158.821 536.869 158.935 533.852C159.045 530.903 158.151 528.201 157.277 525.519C156.207 522.237 156.358 518.703 154.945 515.495C154.576 514.658 154.894 513.521 154.888 512.522C154.883 511.694 155.212 510.496 154.793 510.103C153.147 508.56 154.691 506.342 153.702 505.052C152.365 503.308 153.394 501.507 152.848 499.873C152.289 498.197 152.128 496.488 151.789 494.797C150.986 490.792 150.113 486.816 149.422 482.776C148.572 477.811 146.674 473.072 146.806 467.864C146.882 464.881 146.27 461.832 145.608 458.894C145.06 456.468 143.856 454.183 143.906 451.62C143.959 448.872 142.336 446.39 142.832 443.528C143.095 442.011 142.444 440.455 142.077 438.914C141.237 435.381 140.177 431.707 141.133 427.695C145.929 425.934 147.546 421.28 149.892 416.758C149.892 412.69 149.595 408.174 149.974 403.716C150.368 399.079 148.176 394.739 148.915 390.428C147.446 388.072 146.716 385.565 144.659 383.875C142.699 382.264 140.907 380.448 138.912 378.603C139.165 378.136 139.834 377.466 139.848 376.782C139.943 372.288 140.169 367.767 139.792 363.302C139.577 360.751 138.534 358.183 137.438 355.821C136.594 354.001 137.49 351.404 135.038 350.315C134.866 348.197 133.867 346.531 132.618 344.805C128.661 339.335 125.141 333.533 119.729 329.156C121.19 319.877 126.072 312.009 129.688 303.398C131.267 301.927 133.557 301.086 135.674 301.853C137.168 302.395 138.175 301.799 139.395 301.702C143.639 301.365 150.829 299.187 154.99 297.13C159.244 295.026 162.906 292.051 166.826 289.452C173.653 284.925 177.803 278.128 182.795 272.057C184.612 269.848 185.78 266.982 186.76 264.243C187.696 261.628 188.83 259.081 188.995 256.126C189.162 253.13 190.332 250.19 189.646 246.691C188.189 245.731 186.488 244.611 184.693 243.429C183.287 244.548 181.449 245.276 181 246.51C179.878 249.594 177.507 251.49 175.405 253.72H170.12C169.116 252.342 167.992 250.799 166.883 249.278C166.883 247.085 166.596 244.87 166.966 242.771C167.313 240.813 165.848 239.123 166.791 237.047C167.681 235.085 166.212 233.03 165.927 231.001C165.436 227.497 165.237 223.953 164.865 220.43C164.802 219.831 164.388 219.271 164.315 218.671C164.12 217.07 164.094 215.445 163.865 213.85C163.619 212.143 163.216 210.459 162.889 208.764C162.859 208.604 162.815 208.363 162.899 208.277C164.935 206.163 164.396 202.986 166.289 200.629C167.762 198.794 167.784 195.864 169.881 194.174C171.075 188.765 174.048 184.175 176.929 179.616C181.554 172.296 186.646 165.284 192.936 159.261C197.079 155.293 200.7 150.773 205.561 147.554C207.562 146.229 209.26 144.455 211.192 143.015C213.206 141.513 215.53 140.382 217.375 138.709C220.816 135.59 224.075 132.208 225.503 127.618C226.144 125.557 227.193 123.021 226.513 121.314ZM63.8613 211.132C62.9602 210.534 62.3623 210.275 61.9577 209.838C61.3156 209.144 60.9545 208.107 60.2116 207.602C53.4318 202.992 49.6086 195.928 44.9006 189.567C40.9819 184.272 37.6911 178.618 34.5864 172.859C31.5193 167.168 28.8205 161.279 25.9563 155.479C23.2795 150.059 21.4163 144.328 20.0247 138.485C18.9039 133.779 16.4266 129.354 16.8777 124.283C16.9065 123.958 16.2639 123.573 15.8333 123.107C17.5484 119.326 18.1473 115.416 21.5105 112.888H24.3733C27.2483 114.974 29.2063 117.903 29.8792 121.388C30.5943 125.091 31.7212 128.7 32.0521 132.514C32.3172 135.572 33.1588 138.673 34.3036 141.531C35.2001 143.769 34.5094 146.311 35.975 148.321C37.3224 150.168 37.2538 152.558 38.1212 154.412C39.5233 157.407 40.138 160.577 41.3163 163.579C42.2125 165.862 43.5377 167.926 44.1732 170.394C44.7753 172.732 47.0492 174.501 46.9459 177.215C49.568 178.924 49.0697 182.337 51.037 184.545C52.8583 186.589 53.8632 189.34 55.38 191.682C56.9217 194.062 58.64 196.328 60.2982 198.632C62.8548 202.184 64.2068 206.076 63.8613 211.132ZM123.286 170.953C129.085 175.459 134.072 180.38 135.661 187.722C134.221 191.596 132.724 195.622 131.166 199.812C129.946 200.185 130.078 199.025 129.717 198.138C128.672 195.57 127.511 193.078 125.958 190.724C123.324 186.733 120.726 182.726 118.771 178.288C117.241 174.815 116.016 172.152 116.107 169.041C118.762 169.748 121.142 170.382 123.286 170.953ZM124.301 224.564C124.157 224.166 123.997 223.77 123.938 223.359C123.918 223.217 124.295 223.018 125.059 222.339C124.794 223.126 124.542 223.863 124.301 224.564ZM124.201 224.853C122.701 229.197 121.623 232.039 120.412 235.231C119.111 234.192 118.036 233.333 116.967 232.479C119.294 229.806 121.542 227.225 123.789 224.644C123.926 224.714 124.064 224.783 124.201 224.853ZM78.0612 215.871C75.8095 210.149 75.0785 203.856 76.0895 197.807C76.891 193.013 78.6222 188.27 80.9433 183.883C84.0107 178.087 91.048 171.906 97.2468 170.104C99.5039 169.448 102.112 169.999 104.738 169.999V172.055C106.348 175.357 107.918 177.889 108.859 180.637C111.527 188.429 115.947 195.162 121.015 201.794C119.187 207.044 117.963 212.664 114.909 217.597C112.33 221.763 109.112 225.402 105.458 228.632C104.709 229.294 103.445 229.348 102.456 229.77C101.458 230.196 100.508 230.732 98.4694 231.755H91.539C89.8322 230.399 88.0693 228.753 86.0759 227.463C81.781 224.685 79.7711 220.215 78.0612 215.871ZM56.3881 458.699C55.2814 461.947 53.1261 464.671 51.9792 467.859C50.7514 471.272 48.4802 474.064 46.7568 477.174C45.0722 480.214 42.8081 482.934 40.0122 485.399C40.2881 484.666 40.5933 483.943 40.8347 483.199C41.8826 479.969 42.9502 476.746 43.9363 473.498C44.8357 470.535 45.551 467.515 46.5103 464.573C47.4234 461.772 47.4649 458.782 48.8301 456.038C49.4937 454.704 48.9448 452.768 48.9448 451.202C46.6775 447.217 44.3991 443.339 42.2419 439.394C38.8969 433.278 35.3022 427.253 32.1955 421.066C27.8576 412.428 22.7819 404.094 19.8288 394.732C18.643 390.973 16.7607 387.365 15.3698 383.607C13.5077 378.575 11.9679 373.509 11.8974 368.656C13.4047 365.702 15.0715 363.829 17.562 362.351C19.7939 361.026 22.3076 360.898 24.8701 360.058C24.9472 360.098 25.4834 360.587 26.0544 360.632C27.5437 360.749 29.0524 360.596 30.5456 360.685C35.5705 360.982 40.7321 360.726 45.5773 361.835C50.8656 363.046 56.5714 362.725 61.4394 365.668C63.7468 365.247 65.8332 366.271 68.0231 366.634C69.2726 366.841 70.4452 367.191 71.6388 367.523C75.4171 368.577 79.3739 368.983 83.256 369.672C85.2746 370.03 87.2814 370.457 89.6425 370.922C90.0658 371.324 90.7787 372.002 91.4435 372.634H92.3605C92.6574 372.934 92.9794 373.205 93.3527 373.402C95.8569 374.725 98.654 373.944 100.194 371.608C100.227 371.559 100.364 371.355 100.475 371.189C100.565 371.074 100.677 370.929 100.711 370.889C101.097 370.445 101.507 370.022 101.935 369.619C102.174 369.395 102.42 369.177 102.669 368.965C102.751 368.896 102.946 368.745 103.061 368.655C103.438 368.382 103.814 368.109 104.203 367.851C106.323 366.448 108.587 365.268 110.825 364.068C113.237 362.774 115.669 361.523 118.17 360.408C118.246 360.374 118.309 360.346 118.365 360.32C118.388 360.312 118.409 360.304 118.439 360.293C118.793 360.158 119.141 360.011 119.494 359.877C120.129 359.635 120.769 359.407 121.415 359.194C122.767 358.749 124.14 358.385 125.533 358.092C126.403 360.185 127.074 362.343 126.927 364.791C126.714 368.331 127.099 371.85 125.975 375.385C124.141 381.157 121.242 385.89 115.966 389.173C111.736 391.806 107.186 392.934 102.358 393.816C99.9738 394.252 97.6393 394.708 95.2526 394.599C93.7138 394.529 92.2013 393.959 90.6686 393.656C89.2868 393.384 87.9684 393.671 86.4628 392.924C84.435 391.917 81.8466 392.678 79.4477 391.831C77.9445 391.301 76.114 390.833 74.4265 390.731C72.5552 390.618 71.0466 388.945 69.6831 389.06C66.0386 389.366 63.2498 387.159 59.9504 386.566C56.6296 385.968 53.4167 384.717 50.1955 383.636C47.8666 382.854 45.6017 381.881 42.4352 380.656H38.4538C35.5058 377.714 31.7961 378.917 28.1457 378.612V384.098C29.3034 384.947 30.5769 385.881 31.9538 386.89C31.9538 387.755 31.6459 388.749 32.0051 389.333C33.896 392.406 33.9236 396.124 35.8459 399.26C37.7521 402.369 38.5419 406.144 40.2851 409.377C42.5624 413.601 44.1398 418.169 46.3893 422.316C49.486 428.026 51.3351 434.387 55.3668 439.605C55.8006 440.167 55.6122 441.174 55.9679 441.838C57.2142 444.161 58.5729 446.425 60.0773 449.039C58.9054 452.08 57.5294 455.349 56.3881 458.699ZM93.2392 364.372C92.8454 364.101 92.4074 363.74 91.9487 363.316C91.2268 362.649 89.9602 362.572 88.9365 362.231V361.197C89.1753 361.028 89.4255 360.698 89.6797 360.694C92.1936 360.661 94.7175 360.792 97.2219 360.669C95.7805 361.767 94.4372 362.983 93.2392 364.372ZM63.9587 506.162C63.7941 506.351 63.9533 506.808 63.9345 507.139C63.5397 514.124 63.1408 521.11 62.7275 528.362C62.198 528.732 61.4362 529.264 60.6884 529.786C60.3195 529.322 59.9533 529.074 59.9648 528.845C60.2658 522.844 60.4655 516.832 61.029 510.854C61.1855 509.193 61.9802 507.588 62.0043 505.786C62.027 504.095 62.5053 502.383 62.9801 500.737C63.2069 499.951 63.8905 499.297 64.7169 498.682C64.4064 501.209 65.9912 503.828 63.9587 506.162ZM85.2949 503.446C82.4509 502.151 80.2112 501.131 77.6653 499.972C78.2373 499.182 78.6316 498.012 79.3362 497.779C81.68 497.004 83.8157 495.576 86.4238 495.56C89.3759 495.543 89.3755 495.469 92.5891 493.673C93.0076 497.43 93.3799 500.776 93.761 504.197C90.6611 505.836 87.7063 502.607 85.2949 503.446ZM82.7026 469.551C83.969 466.076 82.4316 461.838 83.507 457.675C83.5641 457.737 83.2348 457.376 82.7143 456.806C84.9023 455.562 82.965 453.515 83.7702 451.686C84.506 450.016 83.9264 447.766 83.9264 445.771V439.086C84.4274 438.656 85.1285 437.616 85.6137 437.709C88.0304 438.17 90.5917 438.299 92.7448 439.763C91.496 441.746 91.9238 443.837 91.9533 445.841C91.9865 448.101 92.3788 450.357 92.3888 452.615C92.3976 454.569 92.018 456.521 91.9413 458.479C91.8568 460.637 91.922 462.8 91.922 464.961C91.922 467.288 91.7526 469.632 91.973 471.938C92.1661 473.96 92.797 475.94 93.1117 477.379C92.3136 478.529 91.8532 479.192 91.3785 479.876C90.398 479.332 89.7266 478.96 88.9347 478.52C86.6837 479.947 84.286 481.186 81.0551 480.409C83.2463 477.112 81.3359 473.302 82.7026 469.551ZM110.654 552.399H108.31C107.932 551.663 107.507 550.837 106.914 549.684C106.914 546.759 107.035 543.433 106.88 540.119C106.73 536.921 107.743 533.586 105.915 530.554C107.382 529.001 105.579 527.49 105.847 525.884C106.144 524.104 106.064 522.221 105.88 520.411C105.602 517.697 106.79 514.837 105.106 512.262C106.766 510.821 104.865 509.536 104.953 508.183C105 507.452 105.432 506.746 105.709 505.978C105.506 505.604 105.021 505.083 104.955 504.514C104.822 503.366 104.915 502.191 104.915 501.027C104.915 499.531 104.956 498.033 104.905 496.538C104.851 494.983 105.348 493.302 104.002 491.999C105.547 490.904 105.15 489.162 104.839 487.907C103.151 481.095 104.117 474.199 103.953 467.35C103.785 460.37 103.916 453.383 103.916 446.399V443.792H106.708C106.816 444.115 106.919 444.266 106.907 444.407C106.19 452.792 108.319 461.062 107.914 469.434C110.019 479.046 108.362 488.788 108.939 498.45C109.109 501.315 109.722 504.154 109.874 507.019C110.042 510.169 109.913 513.335 109.913 516.495C109.913 519.488 109.869 522.482 109.952 525.473C109.967 526.031 110.488 526.576 110.795 527.165C110.567 527.409 110.234 527.767 110.081 527.931C110.378 529.819 110.824 531.51 110.876 533.212C110.992 537.033 110.845 540.862 110.948 544.683C110.986 546.06 111.434 547.427 111.824 549.478C111.627 549.97 111.169 551.112 110.654 552.399ZM119.887 466.453C119.853 465.37 120.064 464.336 119.226 463.212C118.709 462.52 119.369 460.949 119.509 459.704C119.279 458.004 118.642 456.487 119.022 455.292C119.502 453.78 117.391 452.735 118.585 451.486C120.108 449.892 117.304 449.506 117.813 448.007C118.267 446.669 117.909 445.055 117.909 443.562V439.105C118.758 438.67 119.583 438.248 120.768 437.641C122.476 438.063 124.99 436.527 126.728 438.944C126.787 439.251 126.879 439.556 126.899 439.866C127.092 442.895 127.094 445.868 127.727 448.941C128.877 454.524 129.443 460.266 130.048 465.973C130.313 468.475 130.918 470.962 130.961 473.535C130.974 474.357 131.681 475.167 132.039 475.918C131.567 476.44 131.252 476.787 130.702 477.394C131.406 478.097 132.095 478.786 133.017 479.708C132.563 480.252 131.977 480.955 131.296 481.773C128.106 480.92 124.971 480.081 122.17 479.332C120.063 477.392 119.794 475.241 119.889 472.92C119.977 470.768 119.956 468.607 119.887 466.453ZM122.333 501.505C121.966 501.138 121.613 500.785 121.083 500.256V491.646C125.126 492.713 128.981 493.729 133.023 494.796C130.179 498.559 125.655 499.073 122.333 501.505ZM131.242 396.826C131.914 395.48 132.62 394.15 133.357 392.736H135.54C135.682 393.102 135.937 393.421 135.875 393.655C135.524 394.96 135.097 396.245 134.686 397.569H131.229C131.229 397.279 131.15 397.01 131.242 396.826ZM136.142 404.36C136.86 405.104 137.322 405.582 138.05 406.336C137.667 408.095 137.236 410.077 136.764 412.244C132.32 417.551 125.458 418.842 118.277 421.681C117.187 421.742 115.018 421.522 112.787 422.521C110.833 423.396 108.321 421.895 106.199 423.553C105.529 424.076 104.362 422.29 102.982 423.505C102.463 423.962 100.695 423 99.4343 422.669C99.1347 422.947 98.7746 423.281 98.8171 423.241C97.448 423.001 96.4025 422.748 95.3427 422.65C94.3525 422.559 93.3434 422.683 92.349 422.617C91.2355 422.543 89.9232 422.687 89.0707 422.146C87.9567 421.44 87.3356 421.542 86.6405 422.438C78.9596 418.89 70.1537 417.655 64.0983 411.305V407.619C67.3481 407.703 69.904 409.132 72.2204 410.361C77.1403 410.801 81.9638 410.652 86.4645 411.786C91.7091 413.107 96.8893 412.175 102.067 412.661C103.802 412.824 105.512 411.395 107.234 412.637C109.026 410.883 111.358 412.173 113.288 411.563C115.029 411.012 116.871 410.142 118.514 409.85C120.677 409.466 122.891 409.119 125.048 408.613C126.998 408.156 128.901 407.666 130.678 406.497C132.311 405.422 134.384 405.016 136.142 404.36ZM137.801 284.635C137.996 283.848 138.146 283.241 138.422 282.127C139.54 283.047 140.23 283.615 141.469 284.635H137.801ZM145.069 273.291C145.295 269.68 147.188 263.338 148.697 261.638C149.195 263.747 148.959 265.778 149.699 267.773C150.322 269.453 150.872 271.224 151.507 272.958C152.023 274.366 151.807 276.043 151.911 277.549C148.224 277.957 147.408 274.499 145.069 273.291ZM149.142 260.736V258.737H149.642V260.736H149.142ZM166.799 266.937C167.59 266.434 168.06 266.135 168.721 265.715C168.762 266.395 168.928 267.193 168.795 267.247C166.074 268.339 163.547 270.136 160.373 269.672C156.902 266.428 153.34 263.179 152.693 257.82C151.905 257.773 151.122 257.727 150.332 257.68C150.185 257.41 149.908 257.137 149.913 256.869C149.942 255.133 150.076 253.508 150.736 251.761C151.419 249.952 152.385 247.993 151.957 245.764C151.687 244.352 152.778 242.904 154.49 241.517C155.158 244.013 155.356 246.242 153.355 248.273C156.472 251.433 155.872 255.671 158.325 259.04C160.69 262.29 163.786 264.261 166.799 266.937ZM203.261 132.136C198.713 135.142 194.649 138.933 190.614 142.644C186.449 146.474 182.144 150.277 178.663 154.693C173.141 161.698 167.959 168.968 163.723 176.926C161.916 180.32 159.712 183.647 158.194 187.147C154.522 195.61 150.8 204.067 147.843 212.837C145.669 219.29 144.662 226.088 141.896 232.352C142.254 235.324 140.709 237.871 139.791 240.479C138.876 243.078 139.19 246.183 136.899 248.267C136.976 251.484 135.501 254.364 134.916 257.434C134.331 260.503 132.925 263.287 132.024 266.222C129.931 273.04 126.283 279.169 123.792 285.808C122.948 288.058 120.856 289.848 120.634 292.489C117.843 293.533 119.658 296.648 117.909 298.413C116.472 299.863 115.137 302.212 115.179 304.132C115.232 306.599 112.784 307.429 112.753 309.771C112.73 311.432 111.164 313.044 110.402 314.73C108.318 319.341 106.279 323.976 106.919 328.705C110.775 334.628 114.367 340.146 118.022 345.76C116.875 348.176 114.231 348.654 112.269 349.51C109.885 350.551 106.963 350.538 104.261 350.634C99.7698 350.794 95.2627 350.82 90.7742 350.626C87.9275 350.502 85.1023 349.878 81.9842 349.438C82.294 348.003 82.7115 346.548 82.8978 345.065C83.0755 343.65 83.3519 342.318 83.7469 340.935C84.325 338.908 83.2139 336.528 82.7222 334.454C81.8782 330.895 80.8518 327.293 79.5747 323.805C78.5115 320.902 77.3279 318.057 76.8259 314.924C76.4712 312.71 75.0805 310.675 74.2824 308.512C73.9731 307.674 74.0221 306.704 73.8644 305.444C77.257 306.387 78.265 309.518 80.7125 310.67C82.9332 311.715 85.2867 312.478 88.4305 313.693H93.3597C96.8953 312.354 99.4859 311.372 103.14 309.988C103.941 309.185 105.488 307.451 107.225 305.935C110.835 302.784 111.853 298.2 113.842 294.169C114.305 293.231 113.91 291.871 113.91 290.705C113.91 287.708 114.078 284.698 113.862 281.716C113.656 278.865 113.049 276.043 112.57 272.887C112.138 272.455 111.431 271.748 110.568 270.886H106.307C106.22 271.039 105.887 271.354 105.942 271.572C106.657 274.41 104.839 276.907 104.901 279.658C104.964 282.488 105.414 285.438 104.778 288.118C104.117 290.899 102.617 293.595 100.995 295.998C99.6828 297.943 97.8076 299.485 95.1055 299.784C93.1494 300 91.2676 300.89 89.3811 301.471C86.4187 300.317 83.0518 299.492 81.2541 296.408C79.7583 292.406 78.9653 288.391 81.9848 283.519C83.9094 282.415 84.9973 278.81 88.1135 276.795C90.8862 275.002 92.852 271.963 94.9709 269.691C93.998 267.79 93.2226 266.274 92.447 264.759C92.2099 264.976 91.9743 265.194 91.5317 265.606C91.1587 265.341 90.7277 265.036 90.382 264.791C88.9611 265.17 87.4347 265.247 86.3153 265.961C84.9442 266.835 83.5538 268.061 82.838 269.473C82.1324 270.864 80.4901 270.42 79.7108 272.066C78.8255 273.937 76.3858 275.15 75.1044 277.085C73.8083 279.041 72.6698 281.102 71.0224 283.852C70.6545 286.415 70.1572 289.878 69.6491 293.417C65.862 294.942 63.2543 292.083 60.1469 290.383C58.2905 287.779 59.0842 284.615 58.9391 281.589C59.0875 281.318 59.2887 281.063 59.3788 280.773C60.7597 276.34 64.4589 274.295 68.0705 272.022C72.184 269.433 76.9929 267.928 80.257 263.97C82.3315 261.455 86.2162 253.724 86.9562 250.238C87.5731 247.331 88.3598 244.398 92.0885 243.796C92.2614 243.878 92.5336 244.025 92.8187 244.141C95.1014 245.068 97.1444 247.443 99.6937 246.62C102.144 245.829 104.284 244.04 106.518 242.624C107.975 241.7 108.566 239.481 111.339 239.764C115.076 242.601 116.329 247.575 119.083 251.577C119.917 251.239 120.676 250.931 121.97 250.406C121.779 253.022 119.404 255.364 122.293 257.54H126.688C129.553 254.212 128.508 249.91 129.807 246.226C131.05 242.699 131.506 238.895 132.409 234.744C132.6 234.554 133.188 233.965 133.373 233.78C134.402 229.176 135.33 225.045 136.246 220.911C136.483 219.839 136.565 218.719 136.917 217.689C139.21 210.982 141.238 204.189 143.838 197.577C145.865 192.423 148.274 187.422 149.946 182.116C150.727 179.64 151.724 177.054 153.303 175.056C155.101 172.781 156.334 170.26 157.339 167.7C158.315 165.215 160.849 163.57 160.885 160.673C163.794 157.711 165.299 153.81 167.69 150.503C172.488 143.869 178.084 137.959 183.894 132.207C186.893 129.238 190.417 127.106 193.877 124.861C198.037 122.162 202.834 120.768 207.388 118.9C208.529 118.433 210.023 118.83 211.356 118.83C212.334 120.107 212.835 121.915 212.859 124.254C210.032 127.299 206.795 129.799 203.261 132.136Z" fill="#6A8BF7"/>
<path d="M91.8583 331.143C91.4877 330.886 91.025 330.761 90.664 330.602C89.9399 331.2 89.3251 331.708 88.873 332.082C89.4458 335.982 92.4963 338.702 91.9216 342.62C93.9883 343.087 95.7683 343.488 97.8466 343.957C97.8466 342.341 98.2721 340.961 97.7712 340.159C95.8679 337.113 95.0304 333.342 91.8583 331.143Z" fill="#6A8BF7"/>
<path d="M94.9766 224.923C97.1214 223.088 98.8238 221.63 100.867 219.881C101.668 218.306 102.716 216.245 103.742 214.227V208.646C99.885 209.034 96.2112 209.807 92.5767 209.653C89.0767 209.505 85.6172 208.399 81.8838 207.664C81.8711 214.297 84.7222 219.217 88.1069 223.69C90.811 224.175 93.1317 224.592 94.9766 224.923Z" fill="#6A8BF7"/>
<path d="M105.744 191.952C105.067 191.535 104.295 191.059 103.518 190.58C102.699 192.685 101.978 194.539 100.894 197.326C100.932 197.799 101.054 199.318 101.22 201.381C105.1 198.879 106.51 196.017 105.744 191.952Z" fill="#6A8BF7"/>
<path d="M86.7543 200.762V188.72C84.5941 190.106 83.5204 191.973 82.9748 194.091C82.7009 195.154 82.9272 196.346 82.9272 197.383C84.0424 198.368 84.987 199.202 86.7543 200.762Z" fill="#6A8BF7"/>
<path fill-rule="evenodd" clip-rule="evenodd" d="M125.654 127.846C126.229 127.271 126.969 126.888 127.766 126.727C156.996 120.81 179 94.9746 179 64C179 28.6538 150.346 0 115 0C79.6538 0 51 28.6538 51 64C51 94.5526 72.4088 120.105 101.043 126.474C101.811 126.644 102.521 127.021 103.077 127.577L111.672 136.172C113.234 137.734 115.766 137.734 117.328 136.172L125.654 127.846Z" fill="white"/>
<path d="M101.5 126.5C105.961 126.996 108.52 138.111 114.69 138.765C121.213 139.457 119.5 125.778 141.5 121.5C168.343 116.281 181.355 96.9237 182.5 66C183.746 32.3602 164.6 5 125 5C90.6626 5 63.2028 20.685 55.9998 55.5C49.9999 84.5 67.1269 114.657 86.4999 119.5" stroke="#6A8BF7" stroke-width="10" stroke-linecap="round"/>
<path d="M113.123 41.8918C114.386 49.91 114.561 56.8578 111.979 64.5017C109.886 70.6978 107.616 76.1518 104.391 81.5943C103.061 83.8377 101.697 86.5548 100.063 88.4853C99.276 89.4146 97.1006 91.7507 95.9636 91.7507" stroke="#6A8BF7" stroke-width="10" stroke-linecap="round"/>
<path d="M95 92.1634C104.441 92.1634 114.15 89.4337 122.747 85.6801C126.494 84.044 128.592 81.1526 129.98 77.3624C132.064 71.6726 132.148 64.7626 132.148 58.7673" stroke="#6A8BF7" stroke-width="10" stroke-linecap="round"/>
<path d="M132 59C137.535 59 140.879 62.2431 143.575 64.0526C146.888 66.2757 153.149 68.4071 155 71" stroke="#6A8BF7" stroke-width="10" stroke-linecap="round"/>
<path d="M112.297 62.5233C115.536 62.5233 119.146 62.3588 121.414 50.0359C122.472 44.2908 123.207 36.5981 124.332 31.5764" stroke="#6A8BF7" stroke-width="10" stroke-linecap="round"/>
<path d="M124.644 31C128.364 32.1871 131.153 35.9261 133.733 38.6715C136.934 42.0775 139.698 46.0897 142.03 50.137C146.094 57.1919 149.928 64.3873 155.038 70.775" stroke="#6A8BF7" stroke-width="10" stroke-linecap="round"/>
</svg>
