<svg width="212" height="472" viewBox="0 0 212 472" fill="none" xmlns="http://www.w3.org/2000/svg">
<path d="M190.557 386.782C189.093 388.386 191.291 389.589 191.202 391.1C190.971 395.005 192.98 398.743 192.162 402.671C191.785 404.483 194.404 405.758 192.553 408.059C191.565 409.288 192.233 411.87 192.201 413.842C192.168 415.84 192.458 417.882 192.142 419.83C191.347 424.729 188.682 428.385 184.168 430.61C182.364 431.499 180.572 432.413 178.344 433.531H165.544C165.146 432.996 164.556 432.202 164.148 431.653C162.988 432.769 162.09 433.756 161.067 434.591C159.09 436.203 157.198 438.017 154.98 439.209C152.839 440.359 150.377 441.107 147.969 441.497C146.533 441.73 144.944 440.796 143.399 440.639C141.75 440.472 140.008 440.88 138.423 440.522C136.895 440.176 135.172 439.99 133.898 439.429C131.958 438.574 130.424 437.039 128.112 436.435C126.12 435.915 124.496 433.954 122.73 432.602C114.158 426.039 107.232 417.753 99.4949 410.316C97.8876 408.772 96.617 406.871 95.2308 405.103C91.6328 400.515 86.4905 398.378 81.2179 396.723C78.2509 395.792 75.4255 394.602 72.5779 393.431C68.078 391.58 64.0353 388.933 60.1436 386.04C59.7853 385.774 59.2919 385.689 58.649 385.437C56.6493 382.473 55.319 379.025 55.2129 375.208C58.4598 371.365 62.9894 370.196 67.4928 369.801C70.5418 369.533 73.2952 368.394 76.2484 368.426C76.3368 366.073 74.5083 366.106 73.4755 365.245C72.5694 364.489 72.1511 363.148 71.4709 361.986C72.0672 361.019 72.8036 359.825 73.5382 358.633C80.4901 358.402 86.928 361.752 93.5764 360.485C94.3891 361.297 94.978 361.886 95.592 362.5C95.8044 362.373 96.1571 362.289 96.2232 362.103C96.8029 360.473 96.9185 358.647 97.4561 357.108C99.2405 352.002 101.661 347.118 104.808 342.688C105.878 341.181 107.566 340.113 109.227 338.613C107.493 336.436 105.627 333.849 103.509 331.487C99.3707 326.872 96.4035 321.521 93.1245 316.316C88.6414 309.199 85.6018 301.312 80.6893 294.42C78.7373 291.682 77.469 288.379 75.2563 285.714C74.3588 284.634 73.4739 283.542 72.6177 282.498C69.8006 283.915 67.3164 285.165 64.2614 286.702C62.2625 286.702 59.5977 286.905 56.9738 286.665C48.3128 285.871 41.9099 281.389 37.2752 274.179C36.1492 268.842 34.9368 263.514 38.797 258.636C39.2404 258.075 39.2092 257.139 39.6226 255.471C40.4759 254.77 42.0018 253.515 43.3396 252.416C43.2213 251.696 43.2853 251.239 43.1019 251.093C39.1015 247.908 35.9098 244.016 32.8896 239.918C30.8743 237.183 28.4356 234.763 26.2224 232.171C22.2014 227.462 18.5428 222.484 15.3049 217.203C15.1557 216.96 15.4112 216.398 15.243 216.248C12.0802 213.422 11.0232 209.32 8.89561 205.872C5.21441 199.907 2.41521 193.492 0.906107 186.72C-0.340393 181.125 -0.876093 175.321 3.19701 170.126C4.59451 168.344 6.88251 167.784 7.67111 165.781C8.74971 165.781 9.80441 166.107 10.3744 165.72C12.1584 164.509 14.1613 164.353 15.9022 165.02C18.338 165.953 20.813 166.77 22.8924 168.743C27.2711 172.899 29.7911 178.201 32.0972 183.468C33.4685 186.6 35.2295 189.506 36.7293 192.528C39.2236 197.553 41.8885 202.55 45.698 206.855C46.9879 208.313 47.7182 210.319 49.2362 211.777C50.8457 213.322 52.1971 215.137 53.9764 216.683C53.0461 212.326 50.7422 208.495 50.1162 204.013C49.5035 199.626 48.5204 195.133 48.5308 190.83C48.5416 186.358 49.6233 181.737 50.5434 177.188C51.0918 176.014 51.5489 174.672 52.2924 173.513C54.3231 170.349 55.5785 166.798 58.3818 163.986C62.3153 160.039 66.8361 157.433 72.035 155.807C73.5217 155.342 75.3694 154.426 76.5601 154.914C80.5854 156.566 85.3736 155.568 88.9524 158.859C90.6657 160.435 92.909 161.356 93.836 163.79C94.1546 164.627 95.1639 165.2 95.719 165.755C97.1406 165.393 98.8635 164.44 99.4422 164.907C100.965 166.134 101.939 164.36 103.228 164.73C104.446 165.08 105.794 164.952 107.069 165.138C107.663 165.225 108.25 165.805 108.791 165.742C113.912 165.147 118.32 167.717 122.898 169.176C125.256 169.927 127.633 171.439 129.834 172.895C134.048 175.684 137.605 179.156 140.202 183.503C142.734 187.742 144.546 192.212 144.246 197.328C144.091 199.977 144.219 202.643 144.219 204.879C145.254 206.886 146.107 208.541 147.277 210.81C147.754 212.594 146.178 215.395 148.157 217.349C147.758 218.905 147.429 220.19 146.883 222.319C150.214 219.528 152.355 217.123 153.612 213.903C155.075 210.152 157.816 207.088 159.31 203.271C161.495 197.689 164.595 192.509 166.298 186.669C167.496 182.559 169.365 178.608 171.29 174.764C172.066 173.215 171.911 171.677 172.341 170.191C173.588 165.884 175.777 161.949 176.393 157.33C176.777 154.445 179.024 151.811 180.426 149.06C180.706 148.512 181.026 147.964 181.187 147.378C183.062 140.543 188.223 136.664 193.58 135.781C194.323 135.659 195.025 135.282 195.811 135C197.056 136.66 199.075 135.359 200.809 135.93C202.323 137.664 205.194 137.724 206.344 140.341C207.274 142.457 208.908 144.263 209.942 145.785C210.605 147.929 209.327 149.949 211.176 151.325C210.845 152.523 210.181 153.736 210.243 154.91C210.484 159.474 208.761 163.574 207.681 167.858C205.105 178.083 200.617 187.604 196.861 197.369C193.885 205.107 189.463 212.286 185.72 219.732C182.485 226.166 178.329 232.029 174.379 238.013C170.334 244.139 165.498 249.689 161.129 255.566C159.136 258.247 156.07 260.103 154.942 263.45C154.799 263.874 154.286 264.444 153.907 264.473C151.681 264.649 151.396 266.634 150.475 268.152C150.744 268.803 151.075 269.604 151.407 270.404C155.11 271.927 158.94 273.259 162.528 274.904C166.414 276.686 169.643 279.947 172.203 283.591C172.841 284.5 173.46 285.423 174.203 286.508C174.203 289.007 174.472 290.817 175.008 291.936C174.613 294.495 174.273 296.689 173.905 299.074C172.279 304.426 168.403 308.468 163.848 312.316C166.998 316.105 166.991 320.865 167.94 325.175C168.919 329.617 168.157 334.441 168.157 339.048C171.114 342.064 173.203 345.58 175.298 349.139C176.48 351.147 177.102 353.502 179.04 355.151C179.834 355.827 179.838 357.432 180.2 358.614C180.427 359.353 180.511 360.179 180.902 360.817C183.105 364.424 184.172 368.466 185.469 372.421C186.142 374.471 186.785 376.531 187.454 378.627M133.315 191.659C133.25 191.724 133.185 191.789 133.12 191.854C133.352 192.126 133.585 192.399 133.817 192.671C133.922 192.566 134.027 192.461 134.132 192.356C133.86 192.123 133.588 191.891 133.225 191.87C133.225 191.264 133.442 190.556 133.193 190.297C128.945 185.889 124.585 181.341 118.868 179.12C113.643 177.091 108.17 175.562 102.269 175.616C97.4213 175.66 93.3262 177.573 89.3188 179.449C85.7908 181.101 82.6547 183.848 80.7801 187.672C79.4844 190.315 77.7674 192.751 76.3002 195.178C76.0512 197.832 76.7084 200.425 75.3366 202.91C74.8539 203.785 74.8477 205.553 75.4249 206.252C76.6908 207.786 76.0718 209.383 76.2397 210.942C76.3622 212.081 75.9889 213.405 76.4452 214.354C79.336 220.365 80.2632 227.037 82.9349 233.146C83.8241 235.18 84.9311 237.574 85.0386 239.685C85.171 242.287 87.2009 243.978 87.2065 246.337C87.2125 248.883 88.9858 250.585 89.7855 252.812C90.2849 252.682 90.7331 252.564 91.3851 252.394C90.972 251.264 90.34 250.285 90.2954 249.279C90.1236 245.404 90.1668 241.566 89.4422 237.674C89.0427 235.529 88.2536 233.401 88.1899 231.135C88.128 228.935 88.0587 226.513 87.1217 224.619C86.0853 222.525 86.362 220.534 86.2674 218.478C86.1833 216.65 86.5172 214.768 86.1978 212.995C85.3546 208.312 87.2297 204.083 88.7198 200.018C90.3167 195.661 92.4558 191.358 96.2371 188.097C97.8168 186.735 100.204 186.082 100.908 183.68C101.032 183.259 101.912 183.014 102.481 182.78C103.902 182.194 105.345 181.661 106.909 181.057C108.242 182.514 109.778 181.824 111.139 180.726C113.887 181.782 116.408 183.029 119.075 183.697C121.735 184.364 123.817 186.015 126.197 187.033C128.927 188.201 129.931 191.672 133.315 191.659ZM107.394 287.714C106.493 292.195 108.168 295.907 109.29 299.681C109.943 301.875 110.61 304.461 112.165 305.915C116.477 309.944 121.173 313.671 126.4 312.79C131.195 311.429 133.383 308.858 135.224 305.903C135.224 305.237 135.2 304.57 135.228 303.905C135.407 299.623 134.228 295.912 131.621 292.364C130.366 290.657 129.037 289.07 127.568 287.61C126.24 286.29 124.612 285.273 123.138 284.094C122.81 283.831 122.577 283.448 122.508 283.367C123.322 282.351 124.044 281.451 124.762 280.556C130.855 280.739 135.966 283.121 139.455 287.643C143.121 292.393 146.739 297.417 147.418 303.681H155.357C159.119 301.995 161.513 299.294 163.111 296.113V289.785C161.734 288.78 160.283 287.775 158.888 286.696C153.426 282.466 147.297 279.269 141.584 275.439C139.803 274.245 137.282 273.259 137.212 269.889C138.428 269.361 139.813 268.76 141.22 268.149C140.807 265.882 140.383 263.547 139.9 260.896C137.274 258.383 134.787 255.081 130.57 253.943C128.637 255.437 126.497 257.092 124.192 258.874C123.402 258.583 122.535 258.263 121.596 257.917C120.185 259.698 118.635 258.431 117.135 257.697C112.371 259.852 108.561 258.324 102.547 251.881C102.031 255.029 101.519 258.155 100.954 261.599C100.263 262.616 99.3731 263.925 98.1494 265.726V268.322C96.9751 270.088 96.3355 271.05 95.8954 271.711H92.6979C90.5427 268.797 86.7802 267.622 84.3513 264.749C83.3368 263.55 82.0254 262.271 80.601 261.831C78.8198 261.281 79.0719 259.299 77.5031 258.634C76.083 258.031 74.9143 256.763 73.7389 255.675C72.1509 254.206 70.9086 251.905 69.0696 251.28C66.737 250.488 65.9057 248.435 64.4767 247.091C62.9569 245.662 61.406 243.928 60.0635 242.142C57.8229 239.161 55.1816 236.481 52.7067 233.677C51.0001 231.743 49.2582 229.864 47.6456 227.822C43.4014 222.449 39.3529 216.951 35.3683 211.388C29.9117 203.77 25.4651 195.584 21.2593 187.246C19.8686 184.49 18.4441 181.75 16.9777 178.89H12.7648C12.2265 179.38 11.7361 179.825 11.289 180.232C11.289 180.647 11.2278 180.994 11.2981 181.312C12.5152 186.802 15.7916 191.428 17.8316 196.593C19.6357 201.161 22.7078 205.237 25.2961 209.484C26.9242 212.155 28.6104 214.799 30.4188 217.351C32.623 220.461 34.9353 223.498 37.2924 226.495C38.7948 228.405 40.6688 230.046 42.015 232.05C44.8982 236.343 48.3801 240.12 51.9236 243.819C57.5677 249.711 63.4089 255.415 69.2213 261.144C70.4453 262.35 72.0946 263.15 73.2184 264.427C75.8589 267.428 78.3003 270.605 80.8222 273.71C82.9336 273.942 82.7285 276.34 84.2129 277.324C85.4546 278.148 86.151 279.788 87.103 281.055C88.1539 282.455 89.2445 283.826 90.2741 285.241C91.293 286.641 92.3068 288.05 93.236 289.51C95.3947 292.903 97.501 296.329 99.6539 299.782C100.291 299.144 100.763 298.673 101.269 298.167C98.4678 296.31 101.468 294.449 101.355 292.532C101.26 290.931 102.156 289.271 102.592 287.714L107.394 287.714ZM105.984 188.535C104.063 190.451 102.153 191.622 101.351 193.317C99.9134 196.357 97.6568 198.888 97.033 202.535C96.4567 205.904 94.9199 209.116 95.2213 212.706C95.3598 214.355 95.4745 216.065 95.1979 217.678C94.5923 221.211 97.2836 223.956 97.2796 227.321C97.279 227.88 97.7747 228.43 97.9995 229.001C99.2855 232.265 101.031 235.151 103.579 237.685C106.518 240.608 108.948 242.73 112.258 244.267C119.713 247.729 126.295 245.145 130.603 237.717C132.269 234.846 134.641 232.03 134.224 228.271C136.861 225.729 136.059 222.077 137.131 219.018C137.9 216.824 136.38 210.402 134.66 206.658C134.279 205.827 134.177 204.867 133.99 204.138C126.491 195.366 117.129 190.299 105.984 188.535ZM147.712 315.683C146.566 314.574 145.623 313.008 143.457 313.891C135.968 322.505 127.091 326.718 115.516 321.203C115.375 321.495 115.233 321.786 115.092 322.078C114.17 320.936 113.248 319.793 112.319 318.642C111.681 318.691 111.053 318.74 110.174 318.809C110.975 319.879 111.666 320.682 112.226 321.568C114.809 325.651 117.141 329.917 119.997 333.798C121.75 336.18 122.624 338.467 122.138 341.065C120.774 343.317 119.544 345.347 118.365 347.294C118.861 347.79 119.054 348.13 119.338 348.245C124.327 350.266 129.339 352.227 134.319 354.269C137.125 355.42 142.482 356.188 145.845 355.784C151.635 355.089 156.244 353.266 160.17 350.12C159.195 348.691 158.22 347.262 157.551 346.281C157.055 343.13 156.444 340.467 156.262 337.776C156.05 334.628 156.305 331.451 156.176 328.295C156.107 326.589 155.66 324.899 155.359 323.054C155.536 322.859 155.859 322.503 155.996 322.352C155.288 320.017 154.62 317.814 153.973 315.683H147.712ZM72.442 378.939C76.6055 380.011 80.6156 381.237 84.2697 383.289C85.4091 383.929 86.2726 384.602 87.7085 384.714C90.558 384.936 92.8268 386.772 95.2448 388.137C97.0831 392.688 101.677 394.858 104.385 398.778C107.074 402.67 110.873 405.819 114.318 409.156C116.64 411.404 119.273 413.328 121.622 415.55C124.757 418.515 127.801 421.383 131.993 423.065C135.113 424.317 137.75 426.774 140.416 428.57C142.654 428.604 144.352 428.906 145.509 429.478C148.359 428.258 151.561 427.862 153.474 424.457C153.087 420.754 153.06 416.486 152.108 412.434C150.987 407.658 148.9 403.117 147.57 398.38C147.02 396.422 146.31 394.837 144.701 393.702C144.318 394.016 143.923 394.611 143.571 394.587C139.765 394.328 136.505 395.86 133.348 397.653C131.783 398.541 130.1 398.727 128.53 398.645C127.528 401.002 128.597 402.789 129.525 404.326C131.949 408.34 134.671 412.174 137.05 415.742V420.226C135.678 422.087 134.061 421.659 132.568 421.443C130.608 419.833 128.628 418.426 126.908 416.752C121.231 411.228 116.188 405.208 111.581 398.71C108.305 394.088 105.164 389.397 102.322 384.532C100.581 381.549 98.6875 379.026 95.9957 377.862C92.6733 377.078 89.9912 377.949 87.5711 379.014C86.2398 379.599 84.7838 380.003 83.8866 379.543C80.0755 377.59 76.2174 379.31 72.442 378.939ZM147.474 252.724C149.979 248.682 154.078 246.37 155.378 242.066C158.803 239.269 161.093 235.554 163.481 231.936C165.799 228.423 168.117 224.894 170.164 221.221C172.196 217.576 174.544 214.12 176.27 210.277C177.975 206.479 180.383 203.001 182.148 199.226C183.904 195.468 185.441 191.604 187.121 187.805C188.797 184.014 189.458 179.751 191.307 176.069C193.193 172.312 194.319 168.312 195.848 164.461C197.378 160.606 197.951 156.372 198.971 152.192C197.497 151.06 198.939 146.752 194.544 147.97C192.753 149.792 190.667 151.589 190.091 154.786C189.495 158.092 188.438 161.437 186.909 164.419C185.262 167.632 184.882 171.186 183.437 174.481C181.918 177.943 180.37 181.574 179.372 185.256C178.512 188.427 177.413 191.572 175.925 194.313C172.9 199.884 170.408 205.708 167.381 211.282C162.306 220.629 154.984 230.655 151.421 235.135C149.843 237.118 147.719 238.43 146.133 240.328C143.886 243.017 141.68 245.739 139.655 248.203C141.407 249.687 143.223 251.225 144.993 252.724L147.474 252.724ZM166.453 420.124C167.787 421.043 168.928 421.83 169.889 422.493H175.088C176.482 420.738 177.874 418.988 178.836 417.777C180.745 408.351 180.787 399.562 178.799 390.507C173.495 392.431 167.952 391.272 162.712 391.721C160.153 393.58 160.763 396.315 161.433 398.161C163.365 403.484 163.783 409.092 165.197 414.492C165.672 416.306 166.018 418.154 166.453 420.124ZM110.2 362.265C110.39 365.941 110.333 368.984 111.085 372.212C112.216 377.067 114.449 381.186 117.247 385.128C118.034 386.236 119.057 387.078 120.839 386.552C123.609 383.085 127.743 381.536 132.085 380.746C133.919 380.413 135.585 380.085 137.123 379.042C136.141 378.06 135.339 376.874 134.224 376.249C133.068 375.602 133.518 374.153 132.008 373.44C130.387 372.674 128.668 371.852 127.052 370.947C125.292 369.96 123.663 368.726 121.865 367.822C118.192 365.974 114.444 364.275 110.2 362.265ZM154.008 383.986C157.167 379.068 161.191 377.714 165.408 375.48H173.107C173.713 371.772 171.638 369.078 170.2 366.195C168.724 363.233 167.801 359.941 165.003 357.38C164.511 357.864 164.14 358.421 163.62 358.714C157.797 362.004 154.939 367.14 154.214 373.632C152.335 375.848 154.104 378.987 152.911 380.115C153.267 381.371 153.509 382.227 154.008 383.986ZM65.0977 206.408C64.8002 205.621 64.3228 204.915 64.2958 204.193C64.1522 200.35 65.1291 196.64 66.3255 193.075C68.1049 187.773 69.6751 182.275 74.1298 178.337C74.3532 178.14 74.1585 177.47 74.1585 176.809C69.7126 176.832 65.129 175.915 61.9253 179.757C60.6518 181.285 60.2845 183.568 59.5009 185.505C59.736 185.74 59.9711 185.975 60.3746 186.379C58.7676 188.584 58.8163 191.342 59.4351 193.708C59.886 195.432 59.7196 197.31 60.39 198.766C61.2669 200.671 60.58 202.848 61.4035 204.317C62.8997 206.986 61.1817 210.175 63.2616 212.545C62.9259 216.124 65.3672 219.048 65.4569 222.684C65.5288 225.601 67.2301 228.526 68.4643 231.335C68.8074 232.116 69.6908 233.545 70.9853 232.482C67.5527 224.373 65.6041 215.949 64.4748 207.085C64.5728 206.979 64.904 206.618 65.0977 206.408ZM51.1159 259.763C49.6166 262.338 48.4076 264.107 47.5411 266.031C47.1132 266.982 47.3173 268.216 47.2521 269.097C48.8084 271.048 49.8693 273.407 51.673 274.358C53.6123 275.38 56.0783 276.419 58.5091 275.671C60.4787 275.065 62.8001 275.105 64.1584 273.279C62.2426 271.65 59.8428 270.432 58.7379 268.482C56.9026 265.242 53.8317 263.393 51.1159 259.763ZM153.976 364.319C152.612 363.652 151.015 363.166 150.067 363.744C147.415 365.362 144.643 364.558 141.963 364.567C139.81 364.575 137.083 364.512 135.628 363.28C133.094 361.132 129.946 360.798 127.276 359.245C123.284 356.921 119.188 354.774 114.968 352.459C114.184 353.052 113.45 353.607 112.363 354.43C114.057 355.853 114.995 357.09 116.23 357.589C119.217 358.794 122.402 359.506 125.396 360.696C128.242 361.827 130.955 363.297 133.711 364.651C134.542 365.059 135.305 365.602 136.123 366.04C137.339 366.691 141.322 370.771 143.083 370.628C143.493 370.594 153.106 364.43 153.976 364.319ZM73.8743 165.749C72.5153 166.643 71.3595 167.403 69.174 168.84C75.2527 168.371 80.1241 169.246 85.0333 169.894C85.5929 168.789 85.9844 168.016 86.3289 167.336C82.2303 165.195 78.1315 165.913 73.8743 165.749ZM105.906 310.686H105.573V311.686H105.906V310.686Z" fill="#5200FF"/>
<path d="M123.52 225.628C126.082 224.411 128.454 223.285 131.148 222.006C131.329 224.483 131.172 227.217 131.24 230.157C130.077 231.972 128.512 233.813 127.637 235.938C126.628 238.391 123.705 238.531 122.87 240.737C121.467 240.366 120.284 239.869 119.068 239.772C116.996 239.609 115.203 238.729 114.22 237.106C112.672 234.549 110.183 232.653 109.201 229.709C108.963 228.995 108.148 228.488 107.829 227.782C107.462 226.968 107.351 226.038 107.09 225.01C112.906 223.792 118.271 226.767 123.52 225.628Z" fill="#5200FF"/>
<path d="M108.821 202.569C110.933 205.096 113.079 207.663 115.225 210.231C115.224 211.218 115.224 212.204 115.224 213.182C114.073 215.009 112.369 214.98 110.255 214.522C108.606 211.778 106.859 208.872 104.86 205.547C106.001 204.689 107.127 203.842 108.821 202.569Z" fill="#5200FF"/>
<path d="M122.337 200.7C125.92 202.908 127.03 206.391 128.354 210.182C127.204 210.997 125.966 211.873 124.847 212.666C121.752 211.104 121.545 207.769 120.353 205.124C119.708 203.694 119.793 201.486 122.337 200.7Z" fill="#5200FF"/>
<path d="M146.683 333.507C147.983 334.073 148.959 334.497 149.95 334.929C150.481 337.862 151.674 340.911 150.142 343.79C149.285 345.401 147.683 346.615 145.911 348.564C145.218 345.763 144.346 343.752 144.321 341.731C144.295 339.593 145.075 337.444 145.523 335.2C145.838 334.74 146.292 334.079 146.683 333.507Z" fill="#5200FF"/>
<path fill-rule="evenodd" clip-rule="evenodd" d="M115.654 127.846C116.229 127.271 116.969 126.888 117.766 126.727C146.996 120.81 169 94.9746 169 64C169 28.6538 140.346 0 105 0C69.6538 0 41 28.6538 41 64C41 94.5526 62.4088 120.105 91.0433 126.474C91.8108 126.644 92.5213 127.021 93.0774 127.577L101.672 136.172C103.234 137.734 105.766 137.734 107.328 136.172L115.654 127.846Z" fill="white"/>
<path d="M91.4999 126.5C95.961 126.996 98.5196 138.111 104.69 138.765C111.213 139.457 109.5 125.778 131.5 121.5C158.343 116.281 171.355 96.9237 172.5 66C173.746 32.3602 154.6 5 115 5C80.6626 5 53.2028 20.685 45.9998 55.5C39.9999 84.5 57.1269 114.657 76.4999 119.5" stroke="#5200FF" stroke-width="10" stroke-linecap="round"/>
<path d="M106.232 28C108.946 30.8837 110.635 40.1627 115.199 40.4163C118.267 40.5867 123.841 35.3315 125.393 36.0476C128.667 37.5589 123.997 45.9347 128.995 45.9347C133.3 45.9347 135.716 45.1874 139.342 42.639C139.452 42.5614 141.71 41.2226 141.756 41.2594C144.042 43.0882 139.003 56.5346 138.422 59.1174C137.232 64.4122 134.07 68.6902 131.371 73.3731C127.32 80.4037 124.244 89.3677 116.962 93.8754C115.021 95.0767 114.174 97.0437 112.057 98.2057C110.524 99.0472 109.17 100.033 107.612 100.812C102.6 103.318 102.171 103.362 96.6898 99.8152C91.0074 96.1384 83.6428 93.3955 77.2606 91.1162C73.1371 89.6435 80.3003 82.1416 82.0509 79.7346C85.2679 75.3111 87.6648 70.2337 89.9835 65.2872C92.2373 60.4792 93.6634 55.5231 95.5785 50.6482C97.8498 44.8667 101.403 38.4421 101.403 32.1388" stroke="#5200FF" stroke-width="10" stroke-linecap="round"/>
<path d="M122.534 56.9241C121.914 50.7766 112.389 49.9677 109.13 54.3489C105.15 59.699 109.697 61.8459 113.636 63.6197C117.86 65.5212 116.686 71.0184 113.983 73.6345C108.804 78.6475 103.365 79.5862 96.5342 79.5862" stroke="#5200FF" stroke-width="10" stroke-linecap="round"/>
<path d="M117.779 46.5862C111.77 60.6638 104.643 74.5613 100.534 89.3534" stroke="#5200FF" stroke-width="10" stroke-linecap="round"/>
</svg>
