<svg width="207" height="567" viewBox="0 0 207 567" fill="none" xmlns="http://www.w3.org/2000/svg">
<circle cx="96" cy="246" r="40" fill="white"/>
<path d="M185.372 472.536C173.453 452.965 160.001 434.714 143.893 418.377V417.392C142.646 416.151 141.61 415.121 140.575 414.092C140.823 413.907 141.071 413.722 141.32 413.536C140.668 411.479 140.017 409.422 139.366 407.364C139.209 407.41 139.052 407.455 138.896 407.501C138.896 405.842 138.718 404.157 138.948 402.531C139.161 401.021 139.809 399.573 140.331 397.885C140.35 397.889 142.729 388.974 142.674 388.974C144.179 381.195 146.361 373.896 148.226 366.097C149.024 365.566 150.105 364.474 151.405 364.045C156.862 362.247 160.399 358.378 163.656 353.878C165.398 351.471 165.157 348.466 166.881 346.196C167.742 338.545 166.071 331.497 160.918 325.743C159.009 323.61 156.531 321.759 153.816 320.356C151.073 318.939 148.931 316.652 145.649 315.881C142.725 315.193 139.954 313.505 137.373 311.855C136.163 311.082 135.559 309.36 134.69 308.081C137.328 303.951 139.931 300.058 142.343 296.049C145.082 291.498 148.565 287.464 151.04 282.691C152.224 280.409 153.963 278.22 155.529 276.076C158.039 272.638 159.731 268.795 161.905 265.206C166.16 258.181 168.936 250.36 173.733 243.615C175.135 241.643 176.133 239.261 176.795 236.92C177.45 234.6 180.301 233.461 179.874 230.694C183.354 225.362 185.922 219.51 189.247 213.737C189.281 213.912 189.315 214.272 189.347 214.772C199.586 197.128 222.579 155.279 186.883 154.125C183.168 154.005 180.221 156.091 177.572 158.105C173.742 161.018 171.542 165.346 169.903 169.848C169.111 172.024 167.273 173.902 167.88 176.506C164.54 181.639 164.342 188.017 161.242 193.244C161.651 195.718 159.195 196.948 158.709 199.225C158.117 201.996 155.894 204.379 154.977 207.13C154.035 209.955 151.606 212.046 151.348 215.128C147.682 220.358 145.231 226.278 141.982 231.751C141.386 232.755 141.072 233.712 139.895 233.826V236.568C139.032 237.434 137.906 238.563 136.991 239.482C136.865 240.579 136.778 241.342 136.676 242.239C134.687 241.847 133.794 240.943 133.897 239.182C134.843 236.244 138.112 236.032 139.895 233.826C139.994 232.026 142.082 229.989 139.916 227.905C139.75 227.745 139.92 227.26 139.891 226.929C139.619 223.847 138.472 219.786 136.867 217.7C133.59 213.439 130.968 208.707 126.122 205.673C120.031 201.86 112.352 199.028 105.839 199.094C99.3118 199.161 92.7505 198.614 86.0176 200.564C85.6109 200.888 84.8653 201.988 84.0916 202.008C81.1343 202.085 79.4161 204.002 77.6805 205.883C76.1612 207.529 74.8294 209.349 73.4141 211.092C71.0069 211.1 68.6543 211.06 66.3116 212.042C62.0172 213.842 57.9981 216.048 55.0479 219.667C54.441 220.412 54.5306 221.4 53.1338 220.848C52.4317 219.149 52.8718 217.266 52.1043 215.355C49.7701 209.546 49.2269 203.211 47.9502 197.088C47.2451 193.708 46.8621 190.237 45.8599 186.951C45.1333 184.567 44.418 182.198 43.9512 179.757C42.8089 173.784 40.5926 168.132 37.8235 162.82C35.7764 158.893 33.0469 155.266 29.6216 152.171C25.3986 148.355 20.4713 147.316 15.3581 148.411C11.0561 149.333 7.08034 151.612 4.26094 155.33C2.24674 157.988 -0.180756 165.184 0.0106441 168.541C0.0890441 169.916 1.00604 171.295 0.897644 172.62C0.585644 176.442 2.59734 179.608 3.44694 183.091C4.99334 189.429 8.60444 194.938 10.6149 201.118C11.944 205.202 13.8722 209.125 14.9015 213.315C15.5328 215.884 16.3331 218.467 17.1525 220.901C18.5871 225.165 19.3776 229.585 20.8522 233.837C22.6293 238.961 23.3229 244.457 25.0612 249.598C26.2109 252.996 26.8913 256.492 27.8454 259.914C29.1774 264.693 30.6179 269.44 32.0622 274.069C29.3381 277.733 27.5317 281.656 25.9284 285.714C23.9865 290.63 23.8525 295.714 23.9091 300.887C23.9411 303.809 24.8171 306.472 25.6188 309.191C27.6928 316.225 32.0441 322.174 34.9501 329.191C34.9501 329.811 34.8468 330.823 34.9672 331.807C35.6364 337.274 33.3688 341.419 29.4704 345.05C26.0519 348.234 22.0344 348.914 17.5993 349.075C13.8867 349.209 11.5522 347.296 9.31374 344.862C8.66264 344.153 7.95634 343.496 7.43634 342.976C3.53814 342.73 4.03274 346.659 1.84554 347.575C3.79674 353.247 5.47664 358.646 10.408 362.834C10.3313 362.844 10.2608 362.842 10.1856 362.85C10.5882 363.317 10.9268 363.88 11.1661 364.559C10.6204 363.012 12.0557 364.886 12.7669 365.477C13.5521 366.129 14.2757 366.852 15.0677 367.498C16.8697 368.968 19.3621 369.807 20.9842 371.429C23.8023 374.246 23.4986 379.554 23.2076 383.709C26.9464 387.355 30.4491 390.968 34.9146 393.648C38.3182 395.691 41.6275 397.023 45.5037 397.048C47.0972 398.66 49.0555 399.034 51.2259 398.988C54.7225 398.912 58.2379 399.173 61.7149 398.903C64.5154 398.685 67.4666 398.34 69.9954 397.237C72.9424 395.951 76.1734 395.205 78.7952 393.057C79.7068 392.31 81.2688 390.84 82.8816 392.536C52.7317 414.922 58.1472 446.565 74.9617 463.551V464.97C78.4632 469.151 81.6953 473.007 84.9136 476.875C84.9954 476.973 84.9241 477.2 84.9241 477.718C84.0414 477.782 83.1043 477.794 82.1839 477.926C79.5181 478.307 76.595 478.178 74.2598 479.28C70.8593 480.885 67.4573 480.915 63.9351 480.914C63.5816 482.862 62.0682 481.821 61.139 481.861C57.9813 481.998 54.7955 482.126 51.6554 481.854C48.4647 481.576 45.9674 483.616 42.9911 483.948C42.1041 484.047 41.2772 484.826 40.402 484.869C36.2501 485.075 32.5185 486.498 28.9318 488.447C28.5805 492.554 33.7729 493.774 33.935 497.773C32.1484 497.448 30.4702 496.604 29.1828 497.007C24.6371 498.43 19.9692 499.476 15.8688 502.299C13.5373 503.903 11.5846 505.78 9.68424 507.743C7.07264 510.441 5.41424 513.622 6.06364 517.488C6.75384 518.178 7.74164 518.698 7.85684 519.368C8.21574 521.456 9.95064 521.229 11.193 522.039C14.7553 524.361 18.8627 523.518 22.5868 524.737C24.993 525.525 27.8749 524.755 30.5287 524.921C33.2313 525.091 35.9086 525.645 38.6105 525.865C44.2912 526.328 50.0829 524.937 55.6784 526.884C63.2397 526.32 70.7209 527.561 78.2416 527.906C82.7716 528.114 87.2914 528.546 91.8148 528.892C92.1146 528.915 92.4076 529.059 92.6986 529.163C95.7008 530.226 98.7228 531.164 101.979 530.901C102.245 530.88 102.534 531.145 102.887 531.312C102.85 531.736 102.81 532.188 102.727 533.132C101.436 532.727 100.022 531.775 99.3099 532.151C96.4364 533.667 93.4864 532.56 90.6058 532.856C86.9193 533.236 83.1214 532.168 79.5023 533.812C79.003 534.039 78.0919 533.359 77.204 533.039C77.1674 533.08 76.9545 533.537 76.7362 533.539C72.9557 533.583 69.1744 533.571 65.3934 533.571C65.4339 533.774 65.4745 533.977 65.515 534.18C63.6407 535.196 61.7665 536.213 59.7369 537.314C60.9754 537.939 61.9388 538.424 62.8582 538.888C63.7784 538.536 64.6258 537.978 65.5054 537.921C67.6612 537.783 69.8318 537.877 71.9964 537.877C74.161 537.877 76.3399 538.031 78.4864 537.834C80.7154 537.629 83.0947 538.704 85.1734 537.127C87.1126 538.937 89.1102 536.389 90.6732 537.029C92.3397 537.712 93.5087 536.777 94.9044 536.853C96.7307 536.952 98.5702 536.953 100.397 536.859C102.944 536.728 105.541 537.392 108.035 535.981C108.674 535.62 110.035 536.533 110.811 536.78C111.886 536.437 112.772 535.899 113.641 535.924C116.849 536.017 120.016 535.678 123.268 536.724C125.682 537.501 128.555 536.747 131.209 536.914C133.746 537.074 136.256 537.632 138.792 537.847C140.611 538 142.465 538.006 144.281 537.839C145.991 537.681 147.686 536.881 149.362 536.957C151.684 537.061 153.797 536.442 155.939 535.857C158.666 535.113 163.911 532.518 164.832 531.157C165.879 529.61 167.172 528.895 168.946 528.886C172.109 528.872 175.313 529.197 178.427 528.806C182.745 528.264 187.359 527.917 190.156 523.286C190.146 523.361 190.137 523.436 190.127 523.51C192.784 519.475 195.807 516.234 196.689 511.135C197.573 506.023 197.523 500.754 196.17 495.735C193.92 487.388 188.904 480.274 185.372 472.536ZM139.919 258.16C142.082 254.685 144.107 251.696 145.851 248.552C147.572 245.45 149.688 242.62 151.027 239.224C152.376 235.804 154.972 232.897 156.775 229.629C158.481 226.535 159.867 223.265 161.395 220.073C162.921 216.881 164.166 213.508 166.054 210.546C167.988 207.512 169.149 204.142 170.737 200.981C172.369 197.732 173.595 194.131 175.114 190.845C176.636 187.554 176.878 183.981 178.559 180.775C180.189 177.665 181.011 174.132 182.489 169.928C183.756 168.983 185.782 167.473 187.997 165.822C189.581 166.575 191.108 167.303 192.552 167.99C192.89 169.511 193.669 170.923 193.343 172C192.722 174.049 192.502 176.189 191.426 178.189C189.615 181.557 188.19 185.164 186.942 188.788C186.328 190.572 183.966 191.516 184.644 193.828C179.712 200.645 177.022 208.654 172.908 215.911C170.323 220.47 167.828 225.103 165.667 229.872C163.247 235.211 160.504 240.414 157.702 245.507C153.441 253.25 149.319 261.133 144.117 268.34C143.479 269.224 142.753 270.109 142.382 271.11C141.35 273.893 139.606 276.112 136.945 278.385C137.104 271.072 140.441 264.554 139.919 258.16ZM78.1181 215.462C80.2969 213.952 82.3752 211.846 84.8051 211.269C87.6745 210.587 90.4914 209.463 93.4047 209.172C96.8564 208.828 100.468 208.563 103.835 209.199C111.337 210.616 119.006 212.067 124.462 218.204C126.391 220.374 128.045 222.816 129.112 225.912H123.547C122.243 225.284 120.978 224.143 119.747 224.179C115.334 224.305 111.776 221.399 107.54 221.083C103.414 218.041 98.1367 218.209 93.6659 216.103C90.3019 214.518 86.6679 215.181 83.1315 215.09C82.3019 215.069 81.4713 215.087 80.5954 215.087C79.8464 215.717 79.0705 216.369 77.9562 217.306C78.0272 216.317 77.8875 215.622 78.1181 215.462ZM89.9108 278.987C86.0258 274.563 82.5072 269.829 79.4062 264.864C77.6918 262.119 77.1381 259.032 79.6066 255.688C83.0968 250.96 86.3197 245.892 88.7267 240.55C90.8639 235.807 93.4596 230.972 92.7658 224.266C96.6782 226.149 99.5926 228.259 102.8 228.899C106.089 229.556 108.487 231.911 111.969 232.294C115.17 232.645 118.169 234.824 121.466 236.291C123.242 238.725 124.152 241.812 125.36 244.809C126.215 246.93 124.849 249.458 126.902 251.149C127.325 255.488 127.748 259.827 128.031 262.733C126.694 266.875 125.742 269.635 124.917 272.431C123.758 276.357 121.87 280.088 119.206 282.952C116.882 285.451 113.615 287.396 109.943 288.068C109.364 288.174 108.854 288.653 108.15 289.052C105.669 287.887 102.499 288.058 100.125 286.041C97.6866 286.454 96.5955 284.159 94.7933 283.281C92.9813 282.399 91.5269 280.779 89.932 279.463C89.8505 279.396 89.9933 279.08 89.9108 278.987ZM82.1266 289.383C81.3012 291.14 80.3483 293.169 78.8649 296.327C75.8263 288.936 72.4447 283.049 71.7555 275.805C75.9122 276.635 75.4391 280.481 77.5302 282.362C79.4291 284.07 80.4622 286.741 82.1266 289.383ZM58.0148 239.166C58.6381 234.492 58.7428 229.596 63.133 226.295C65.1025 224.814 66.6642 222.79 67.9714 221.46C69.8833 220.887 71.2075 220.423 72.5656 220.103C73.7812 219.817 74.9616 219.98 76.2865 219.435C78.9215 218.351 81.6246 219.139 83.8566 221.531C84.1576 226.02 83.5668 230.439 81.0336 234.546C80.2475 235.821 80.1926 237.524 79.5453 238.911C77.7929 242.666 75.4215 246.037 72.4994 248.967C68.1439 253.335 66.5094 258.622 66.9711 264.641C67.026 265.357 67.8058 266.012 67.8771 266.732C67.955 267.518 67.599 268.346 67.4323 269.156C67.0678 269.136 66.7033 269.117 66.3385 269.097C64.733 264.447 62.9493 259.848 61.5768 255.13C60.4445 251.239 59.0558 247.381 58.8935 243.237C58.8398 241.866 57.8427 240.459 58.0148 239.166ZM74.1745 379.75C71.6425 380.368 70.1811 385.134 65.4675 383.515C69.3142 378.42 73.7524 373.864 72.7863 367.03C68.0065 371.556 63.841 376.464 58.4216 379.875C55.5593 381.676 52.4406 383.296 48.7385 383.014C45.8606 382.795 42.9265 383.273 40.1657 381.987C37.3324 380.668 34.3776 379.527 33.0534 376.161C37.9894 377.154 43.299 377.117 47.1249 375.583C51.7846 373.714 56.09 371.766 59.4589 367.982C62.6464 364.403 63.9801 359.898 65.5856 355.607C64.0868 351.621 65.5115 347.324 64.6471 342.65C63.9015 343.696 63.0614 344.339 62.9918 345.056C62.4325 350.819 59.4161 355.328 55.846 359.583C55.2215 360.327 54.5503 361.034 53.9561 361.801C53.8409 361.95 53.814 362.152 53.8191 362.223C51.5064 363.497 49.4885 364.608 46.5545 366.224C45.919 366.445 43.9244 365.175 42.4659 366.898C42.2511 367.151 41.3621 367.181 41.0587 366.952C39.7582 365.97 38.3993 366.562 37.0411 366.488C35.5504 366.405 34.107 365.605 32.6258 365.175C31.1361 364.743 29.5098 364.609 28.1595 363.921C27.022 363.341 26.1939 362.154 25.2225 361.229C25.1065 361.337 24.7476 361.672 24.3934 362.002C22.3298 360.79 20.7167 358.896 19.5543 356.322C21.0333 357.649 21.7633 358.304 22.4723 358.94C22.8644 358.597 23.2291 358.279 23.7941 357.785C24.414 358.177 25.0602 358.585 25.9499 359.148C26.3576 358.843 26.8007 358.374 27.3444 358.129C30.1559 356.858 33.069 356.03 35.6894 354.097C41.1147 350.095 45.57 342.99 45.9421 336.303C45.9607 335.971 45.8833 335.623 45.9548 335.307C46.2634 333.942 47.0664 332.508 46.8501 331.242C46.3838 328.515 45.5625 325.816 44.592 323.215C43.0883 319.185 41.2673 315.275 39.7126 311.262C38.0456 306.96 35.9682 302.704 35.1184 298.229C34.3608 294.24 34.428 289.899 36.7668 285.511C37.2861 286.37 37.6201 286.917 37.9482 287.466C41.6711 293.704 44.2107 300.517 47.3288 307.045C48.9982 310.541 51.0776 313.791 52.7126 317.287C54.2966 320.673 56.2937 323.812 58.3144 326.955C60.8293 330.867 63.0964 334.942 65.393 338.99C66.6096 341.135 68.5129 343.02 68.2297 345.799C70.1862 347.473 70.1228 350.009 71.0378 352.12C72.569 355.653 74.757 358.903 76.7026 362.253C77.4777 363.587 78.3436 364.868 79.0407 365.972C77.5075 370.732 77.6208 375.616 74.1745 379.75ZM79.2106 333.39C78.5119 334.076 78.8251 335.793 78.6491 337.23C78.0698 336.65 77.5302 336.358 77.3908 335.934C75.1115 329.012 70.1944 323.606 66.7609 317.351C65.1216 314.364 63.6706 311.248 61.7729 308.435C57.7636 302.49 54.9758 295.878 52.1455 289.422C48.8838 281.981 45.272 274.528 43.251 266.654C41.512 259.879 39.531 253.15 37.7388 246.396C36.4468 241.527 35.9204 236.305 33.2488 231.788C32.6465 230.77 32.5608 229.356 32.5181 228.115C32.3814 224.129 30.3445 220.63 29.8111 216.693C29.3221 213.085 27.8011 209.574 26.4471 206.134C23.7982 199.405 21.4293 192.576 18.4913 185.941C16.325 181.049 13.6847 176.217 12.9232 170.753C12.8473 170.206 12.234 169.734 12.078 169.517C12.5055 167.688 12.8612 166.166 13.243 164.532C14.2249 163.483 15.3575 162.272 16.2176 161.353C17.4842 161.045 18.3831 160.827 19.7276 160.5C20.5894 160.94 21.9063 161.613 23.6104 162.483C24.5638 164.06 25.7676 166.033 26.9524 168.017C29.0476 171.525 29.7839 175.526 30.9024 179.365C32.1216 183.551 32.7964 187.894 33.9969 192.086C35.0704 195.835 36.0272 199.665 36.597 203.448C37.2342 207.677 39.0853 211.653 39.0003 216.013C38.9805 217.034 39.69 218.05 39.9334 219.099C40.6399 222.145 41.4085 225.185 41.9178 228.266C42.7635 233.381 45.0418 238.21 44.9451 243.508C46.6458 244.154 45.604 245.857 46.2771 246.961C47.7092 249.309 48.2219 251.947 48.051 253.412C54.5906 273.81 61.9678 292.5 74.5146 308.84C75.4335 309.107 76.6167 309.452 78.028 309.863C83.1977 307.005 88.2188 303.474 91.1759 298.033H93.8448C96.3292 299.429 98.6265 300.72 101.099 302.109C101.518 301.789 102.009 301.413 102.45 301.075C103.693 301.401 104.882 301.765 106.094 302.015C107.149 302.233 108.229 302.324 109.831 302.544C112.099 301.443 114.968 300.05 117.966 298.594C118.77 299.397 119.901 300.095 119.805 300.5C119.087 303.501 122.09 305.405 121.904 308.183C124.831 311.953 126.111 316.7 130.679 319.581C135.698 322.747 140.958 325.571 145.774 329.048C149.085 331.438 153.054 333.2 154.817 337.975V345.174C152.92 347.071 151.05 348.94 149.054 350.936C146.642 350.456 144.987 353.411 142.192 353.066C139.585 352.744 136.906 352.997 134.096 352.997C133.583 349.085 133.086 345.287 132.551 341.209C131.934 340.01 131.09 338.526 130.388 336.977C128.633 333.107 126.188 329.994 122.378 327.797C120.948 326.972 120.31 324.774 119.281 323.155H117.167C117.012 323.745 116.894 324.196 116.675 325.034C113.946 324.842 111.073 325.646 108.057 323.663C107.981 324.815 107.93 325.591 107.869 326.526C110.581 328.725 112.705 331.582 115.788 333.614C118.121 335.151 120.149 337.671 121.376 340.206C122.414 342.35 123.213 344.946 122.898 347.557C122.592 350.091 121.794 352.313 120.113 354.425C117.694 357.463 114.871 359.418 111.106 360.366C108.056 361.133 105.386 360.749 100.274 360.185C97.1475 359.841 94.8336 358.414 92.6104 356.894C89.0813 354.481 86.9342 350.981 86.8907 346.402C86.8448 341.56 87.1684 336.833 88.8597 332.218C89.4286 330.665 89.2752 328.848 89.5601 326.118C89.0115 325.308 87.8667 323.617 86.7605 321.983C85.8591 322.492 85.2063 322.861 84.0842 323.496C82.0608 326.136 82.1739 330.48 79.2106 333.39ZM130.024 389.775C128.734 391.298 128.502 393.753 127.935 395.831C127.725 396.604 127.914 397.483 127.899 398.314C127.86 400.383 127.931 402.39 126.963 404.41C125.477 407.511 125.237 410.779 126.854 414.044C127.183 414.706 126.902 415.671 126.902 416.629C124.378 417.691 121.842 418.76 119.306 419.827C118.997 419.557 118.633 419.239 118.54 419.158C116.735 419.453 115.203 419.716 113.667 419.951C111.452 420.288 109.309 419.478 106.994 419.767C105.057 420.01 102.91 418.084 100.867 418.106C98.8141 418.127 98.318 416.296 96.7481 415.824C95.7325 415.518 93.6883 415.506 93.8643 413.403C90.2167 412.441 88.4495 408.647 84.9317 407.486V405.454C89.6102 403.13 94.2531 400.716 96.9175 394.343C96.9175 392.719 97.2534 389.705 96.8194 386.806C96.4151 384.104 94.8619 381.578 94.4219 378.876C93.982 376.175 91.2515 374.132 92.1573 370.713C94.2115 371.676 96.0054 372.498 97.7816 373.355C99.5128 374.192 101.243 374.925 103.175 373.984C105.059 376.342 106.941 373.863 108.829 373.973C110.753 374.084 112.6 373.898 114.417 373.027C116.208 372.167 118.274 371.856 120.019 370.929C121.815 369.976 123.454 368.668 125.006 367.335C126.619 365.948 128.046 364.345 129.846 362.545C130.847 363.153 131.719 363.784 132.675 364.234C133.644 364.69 134.697 364.967 136.105 365.459C135.711 367.202 135.238 368.991 134.911 370.807C134.137 375.1 132.884 379.274 131.869 383.508C129.656 385.064 131.712 387.783 130.024 389.775ZM81.3522 447.038C80.9972 447.516 80.8664 448.161 80.4889 449.074C78.0304 445.723 75.6765 442.443 75.0248 438.52C74.3493 434.453 72.9846 430.322 74.2738 426.124C75.4437 422.315 76.1059 418.303 78.5055 414.957C81.817 415.278 84.1378 417.585 86.66 419.308C90.2164 421.737 93.4395 424.653 96.8184 427.344C98.5179 428.697 100.246 430.015 102.554 431.809C97.9683 431.8 95.148 433.877 92.1311 436.048C87.8479 439.131 84.4357 442.881 81.3522 447.038ZM75.8908 488.867C76.4992 489.206 77.1665 489.578 77.9289 490.003C79.8293 488.24 82.1877 488.909 84.3869 488.947C87.7673 489.005 91.0181 488.715 93.8998 486.916C95.9159 488.154 97.8827 489.361 99.8996 490.6V491.568C92.4142 492.526 85.2272 495.434 77.3874 494.864C75.9807 493.407 74.4947 491.869 73.0314 490.353C73.8894 489.907 74.8419 489.412 75.8908 488.867ZM50.1254 490.05C52.7333 489.72 55.4911 490.577 58.3695 490.935C59.3492 492.058 60.4303 493.297 61.9513 495.041C58.0651 494.56 54.4408 494.111 50.3536 493.605C47.8563 492.502 44.9005 491.197 41.3614 489.633C44.846 487.822 47.3261 490.404 50.1254 490.05ZM156.574 516.76C155.754 517.853 155.268 519.196 154.535 520.615C153.521 521.09 152.271 521.691 151.009 522.264C146.694 524.223 143.768 523.902 138.523 523.196C134.426 522.644 130.559 521.257 126.471 520.699C124.268 520.398 121.884 520.018 119.624 519.294C117.67 518.668 115.232 518.876 113.251 518.443C111.299 518.016 109.112 518.689 107.611 517.762C105.838 516.668 104.173 516.959 102.45 516.918C98.8939 516.835 95.5267 515.46 91.8656 515.81C88.0699 516.173 84.2128 515.891 80.3827 515.891H69.3917C65.7279 515.891 62.0597 515.999 58.4024 515.846C56.5313 515.768 54.6734 515.256 52.8211 514.883C51.1089 514.537 49.169 515.705 47.6517 514.101C45.4132 515.436 43.3053 513.695 41.0658 513.775C37.8912 513.889 34.7821 512.594 31.4884 512.843C28.3829 513.078 25.2457 512.893 21.8863 512.893C22.3131 508.33 26.358 511.238 27.4019 508.844C27.8394 509.281 28.0391 509.584 28.3208 509.732C28.5857 509.872 28.9368 509.848 29.5261 509.938C30.0207 509.281 30.6157 508.491 31.0573 507.905C37.7016 508.069 43.7245 507.072 49.8158 503.968H56.3204C61.4222 508.527 67.3299 508.722 73.5877 506.73C74.3194 506.498 75.0115 505.972 75.742 505.93C82.4285 505.542 89.1214 505.261 95.8082 504.874C97.1913 504.794 98.5565 504.405 100.239 504.102C101.947 505.54 104.003 505.106 106.094 503.832C106.615 504.19 107.129 504.544 107.835 505.031C108.411 504.686 109.069 504.293 109.713 503.907C110.752 504.24 111.773 504.823 112.811 504.856C118.867 505.048 124.4 507.454 130.092 509.06C131.683 509.508 133.686 510.446 134.939 511.641C136.417 513.05 137.874 512.763 139.367 512.912C140.76 511.662 141.534 510.552 140.274 508.683C139.078 506.909 137.968 505.183 136.049 503.533C135.293 502.884 134.634 502.123 133.92 501.425C128.838 496.46 123.497 491.809 117.537 487.909C116.626 485.563 114.005 485.008 112.571 483.151C111.363 481.588 109.893 479.324 108.333 479.142C105.83 478.85 106.58 475.92 104.279 475.599C102.915 475.409 102.464 473.092 100.844 472.184C99.1659 471.244 97.9589 469.464 96.5458 468.051C95.2504 466.756 93.955 465.461 92.6598 464.165C91.3644 462.87 89.9817 461.649 88.8046 460.254C88.0161 459.32 87.5197 458.139 86.9162 457.108C87.3554 455.894 87.7761 454.732 88.2028 453.552C92.3188 446.968 97.9145 441.914 105.317 438.989H112.576C112.701 439.429 112.7 440.127 113.044 440.529C115.588 443.492 118.2 446.397 120.791 449.321C123.381 452.244 126.145 455.035 128.511 458.129C130.721 461.019 133.289 463.621 135.232 466.727C137.145 469.784 139.204 472.749 141.221 475.74C144.532 480.649 147.639 485.665 150.476 490.88C152.931 495.392 154.837 500.069 156.394 504.922C156.961 506.692 157.621 508.48 157.826 510.306C158.075 512.518 158.066 514.77 156.574 516.76ZM180.375 515.032C178.088 515.844 174.601 515.562 171.2 514.654C170.057 508.491 168.634 502.51 166.369 496.623C164.933 492.891 162.11 489.686 161.883 485.489C158.974 482.157 157.039 478.183 154.954 474.363C152.545 469.95 149.13 466.241 146.818 461.768C145.664 459.538 143.81 457.645 142.144 455.711C139.379 452.501 136.487 449.4 133.692 446.215C131.902 444.175 130.143 442.103 128.479 439.961C128.033 439.386 127.984 438.501 127.817 437.967C130.538 434.54 133.105 431.307 135.842 427.859C137.651 428.634 139.097 430.324 140.3 431.962C143.365 436.135 146.909 439.879 150.231 443.821C152.698 446.747 155.063 449.771 157.292 452.882C160.219 456.966 163.145 461.072 165.743 465.367C168.237 469.489 171.185 473.328 173.255 477.727C174.571 480.526 176.552 483.015 177.825 485.829C180.169 491.012 182.604 496.177 184.166 501.682C184.332 502.27 184.856 502.829 184.832 503.385C184.737 505.661 184.947 507.862 185.886 509.521C184.162 511.245 182.658 512.749 180.375 515.032Z" fill="#198FF5"/>
<path d="M63.8444 481.019C63.5722 480.786 63.3 480.554 63.0278 480.322C63.1328 480.217 63.2379 480.112 63.3429 480.007C63.5752 480.279 63.8074 480.551 64.0397 480.823C63.9746 480.888 63.9095 480.954 63.8444 481.019Z" fill="#198FF5"/>
<path d="M122.738 265.403C122.108 266.707 121.071 267.923 120.986 269.203C120.718 273.22 118.725 276.289 116.266 279.204C116.078 279.427 116.004 279.757 115.916 280.048C115.869 280.2 115.907 280.377 115.907 280.425C114.352 281.18 112.836 281.915 110.49 283.054C109.414 282.816 107.435 282.378 105.421 281.932C100.455 278.013 97.7515 272.588 96.2745 266.229C96.2689 266.235 96.5921 265.886 96.9336 265.519C100.49 266.526 104.148 266.139 107.729 265.938C109.434 265.842 111.074 264.515 112.734 263.727C114.672 262.806 116.845 262.163 118.459 260.842C119.911 259.655 121.224 260.452 122.738 259.853L122.738 265.403Z" fill="#198FF5"/>
<path d="M94.8628 244.766C96.1583 242.963 96.9145 241.91 97.7788 240.707C102.906 244.403 101.736 249.616 101.939 254.571C100.057 255.006 98.3638 257.64 96.1859 254.813C95.6986 251.112 95.2027 247.347 94.8628 244.766Z" fill="#198FF5"/>
<path d="M112.115 240.308C112.701 239.791 113.173 239.376 113.714 238.9C114.202 239.187 114.759 239.321 114.957 239.663C116.259 241.913 117.483 244.208 118.807 246.623V250.687C118.248 251.216 117.78 251.66 117.224 252.187C116.25 251.75 115.282 251.315 114.43 250.932C112.306 247.761 111.328 244.351 112.115 240.308Z" fill="#198FF5"/>
<path d="M118.681 409.638C117.635 410.151 116.811 410.555 115.659 411.119C115.09 410.583 114.427 409.958 113.977 409.534C114.318 407.007 114.231 404.671 115.014 402.678C115.813 400.646 116.717 398.802 117.086 396.537C117.405 394.571 119.264 392.855 120.472 390.982H123.51C123.63 391.357 123.94 391.812 123.876 392.208C123.24 396.189 122.358 400.113 120.904 403.889C120.188 405.749 119.467 407.606 118.681 409.638Z" fill="#198FF5"/>
<path fill-rule="evenodd" clip-rule="evenodd" d="M120.974 158.034C121.549 157.459 122.289 157.075 123.087 156.917C159.412 149.706 186.794 117.659 186.794 79.2172C186.794 35.4667 151.328 0 107.577 0C63.8267 0 28.36 35.4667 28.36 79.2172C28.36 117.134 54.9989 148.829 90.5821 156.607C91.3503 156.775 92.0609 157.152 92.6169 157.708L104.13 169.221C105.692 170.783 108.225 170.783 109.787 169.221L120.974 158.034Z" fill="white"/>
<path d="M90.7687 156.75C96.285 157.365 99.4489 171.156 107.079 171.969C115.145 172.827 113.027 155.854 140.231 150.547C173.423 144.071 189.513 120.054 190.929 81.6854C192.47 39.947 168.796 6 119.828 6C77.3678 6 43.4124 25.461 34.5055 68.6576C27.0863 104.639 48.2648 142.056 72.2204 148.065" stroke="#198FF5" stroke-width="10" stroke-linecap="round"/>
<path d="M112.319 48.2977C104.767 55.0753 77.6454 79.4336 84.0055 87.9138C86.0401 90.6265 94.6656 99.4728 98.006 99.4152C107.011 99.2599 131.973 81.1018 133.788 73.8423C134.773 69.9026 133.648 69.057 130.267 66.2456C123.419 60.5508 118.886 51.9091 111.552 47.0198" stroke="#198FF5" stroke-width="10" stroke-linecap="round"/>
<path d="M116.663 46.7643C121.229 42.1985 127.844 43.5185 132.055 47.7298C138.045 53.7193 141.431 58.0575 137.11 66.7001" stroke="#198FF5" stroke-width="10" stroke-linecap="round"/>
<path d="M99 40.6453C100.903 38.5959 102.916 36.9617 105.404 35.6613C106.655 35.0072 108.267 34 109.735 34" stroke="#198FF5" stroke-width="10" stroke-linecap="round"/>
<path d="M132 95.69C136.225 93.7507 139.067 91.1225 142.223 87" stroke="#198FF5" stroke-width="10" stroke-linecap="round"/>
<path d="M96.3665 123.92C95.9265 123.68 95.2965 123.56 94.4765 123.56C94.1965 123.56 93.9865 123.57 93.8465 123.59L93.0965 123.68V128.06L93.8165 127.91C94.3565 127.81 95.0265 127.52 95.8265 127.04C96.6465 126.54 97.1265 126.13 97.2665 125.81C97.3265 125.69 97.3565 125.56 97.3565 125.42C97.3565 125.14 97.2565 124.86 97.0565 124.58C96.8765 124.28 96.6465 124.06 96.3665 123.92ZM94.0265 117.23C94.0265 117.09 93.9365 117.02 93.7565 117.02C93.5365 117.02 93.3365 117.11 93.1565 117.29C92.9765 117.47 92.8865 117.8 92.8865 118.28C92.8865 118.66 92.9565 118.85 93.0965 118.85C93.2165 118.85 93.3965 118.63 93.6365 118.19C93.8965 117.75 94.0265 117.43 94.0265 117.23ZM91.8365 113.9C92.2565 113.7 92.8865 113.6 93.7265 113.6C94.5865 113.6 95.2565 113.7 95.7365 113.9C96.1765 114.08 96.5665 114.42 96.9065 114.92C97.2665 115.4 97.4965 115.94 97.5965 116.54C97.6165 116.62 97.6265 116.74 97.6265 116.9C97.6265 117.1 97.4965 117.55 97.2365 118.25C96.9765 118.95 96.8465 119.51 96.8465 119.93C96.8465 120.13 97.1765 120.4 97.8365 120.74C99.1565 121.44 100.046 122.35 100.506 123.47C100.746 124.05 100.866 124.67 100.866 125.33C100.866 126.69 100.466 127.79 99.6665 128.63C98.9665 129.37 97.8765 130.06 96.3965 130.7C94.9165 131.34 93.6665 131.66 92.6465 131.66C91.9465 131.66 91.3865 131.5 90.9665 131.18C90.5665 130.84 90.3665 130.39 90.3665 129.83C90.3665 129.35 90.2265 128.92 89.9465 128.54C89.7865 128.3 89.6765 127.87 89.6165 127.25C89.5565 126.63 89.4865 125.35 89.4065 123.41C89.3065 120.43 89.1965 118.66 89.0765 118.1C89.0365 117.74 89.0165 117.46 89.0165 117.26C89.0165 117.1 89.0365 116.92 89.0765 116.72C89.1565 116.4 89.5265 115.9 90.1865 115.22C90.8465 114.54 91.3965 114.1 91.8365 113.9ZM113.045 122.27C112.545 122.01 112.035 121.88 111.515 121.88C110.875 121.88 110.355 122.09 109.955 122.51C108.355 124.27 107.555 125.85 107.555 127.25C107.555 128.17 107.905 129 108.605 129.74C108.965 130.12 109.255 130.37 109.475 130.49C109.695 130.59 110.015 130.64 110.435 130.64C111.555 130.64 113.035 129.92 114.875 128.48C115.455 128.02 115.855 127.63 116.075 127.31C116.295 126.97 116.405 126.59 116.405 126.17C116.405 125.89 116.385 125.66 116.345 125.48C116.265 125.06 115.875 124.52 115.175 123.86C114.495 123.18 113.785 122.65 113.045 122.27ZM109.295 118.46C109.755 118.22 110.315 118.1 110.975 118.1C112.055 118.1 113.145 118.37 114.245 118.91C115.105 119.33 116.015 119.93 116.975 120.71C117.935 121.47 118.625 122.15 119.045 122.75C119.645 123.61 119.945 124.7 119.945 126.02C119.945 127.34 119.625 128.46 118.985 129.38C118.545 129.98 117.785 130.69 116.705 131.51C115.625 132.33 114.555 133.01 113.495 133.55C112.475 134.07 111.695 134.33 111.155 134.33C111.055 134.33 110.785 134.31 110.345 134.27C108.385 134.13 106.725 133.17 105.365 131.39C104.505 130.27 104.075 129.22 104.075 128.24C104.075 127.56 104.205 126.69 104.465 125.63C104.825 124.13 105.185 123.08 105.545 122.48C105.925 121.82 106.525 121.05 107.345 120.17C108.165 119.29 108.815 118.72 109.295 118.46ZM124.857 114.77C125.257 114.77 125.967 114.71 126.987 114.59C128.027 114.47 129.127 114.33 130.287 114.17C131.467 113.99 132.187 113.89 132.447 113.87C133.267 113.75 134.247 113.67 135.387 113.63H135.747C136.487 113.63 137.037 113.82 137.397 114.2C137.777 114.56 137.967 114.99 137.967 115.49C137.967 115.89 137.837 116.25 137.577 116.57C137.317 116.89 136.967 117.09 136.527 117.17C136.427 117.19 135.957 117.23 135.117 117.29C134.297 117.33 133.507 117.39 132.747 117.47C131.987 117.55 131.567 117.63 131.487 117.71C131.327 117.87 131.337 118.15 131.517 118.55C131.637 118.91 131.717 120.36 131.757 122.9C131.757 125.44 131.947 127.65 132.327 129.53C132.367 129.67 132.387 129.85 132.387 130.07C132.387 130.35 132.227 130.65 131.907 130.97C131.467 131.37 131.027 131.57 130.587 131.57C130.107 131.57 129.647 131.35 129.207 130.91C128.927 130.63 128.737 130.34 128.637 130.04C128.557 129.74 128.477 129.17 128.397 128.33C128.297 127.33 128.247 125.94 128.247 124.16V123.5V122.87C128.247 121.23 128.177 120.08 128.037 119.42L127.767 118.22H126.057C125.297 118.22 124.787 118.19 124.527 118.13C124.287 118.07 124.047 117.91 123.807 117.65C123.427 117.31 123.237 116.94 123.237 116.54C123.237 116.12 123.407 115.72 123.747 115.34C124.107 114.96 124.477 114.77 124.857 114.77Z" fill="#198FF5"/>
</svg>
