<svg width="210" height="616" viewBox="0 0 210 616" fill="none" xmlns="http://www.w3.org/2000/svg">
<path d="M172.545 538.885C171.207 536.676 171.145 534.378 172.038 532.008C172.2 531.576 172.487 531.159 172.528 530.718C172.964 526.035 171.595 521.222 173.54 516.657C173.134 516.006 172.729 515.355 172.36 514.764C172.871 514.203 173.196 513.845 173.509 513.5C173.179 513.136 172.851 512.775 172.726 512.637C172.973 511.071 173.187 509.72 173.4 508.369L173.225 503.837C173.332 503.215 173.734 502.435 173.499 501.996C171.179 497.655 173.855 492.624 171.546 488.311C172.883 486.589 171.326 484.884 171.495 483.138C171.679 481.233 171.824 479.409 172.432 477.526C172.994 475.783 172.855 473.827 173.35 471.93C173.732 470.462 174.998 468.536 173.545 466.814C175.255 465.013 174.24 462.765 174.563 460.736C174.907 458.568 175.394 456.422 175.861 454.049C175.862 454.049 175.863 454.049 175.865 454.049C175.746 450.298 175.288 446.565 175.337 442.808C175.345 442.2 175.442 441.65 175.61 441.158C175.382 438.339 177.105 436.101 176.593 433.523C176.308 432.08 176.544 430.535 176.544 429.036V424.539C176.544 423.04 176.616 421.536 176.522 420.043C176.439 418.736 175.538 416.926 176.101 416.239C177.575 414.436 174.626 413.591 175.577 412.315C176.569 410.983 175.663 409.852 175.561 408.62C175.185 404.098 174.875 399.57 174.548 395.045C174.512 394.551 174.725 393.782 174.482 393.603C172.926 392.457 173.813 390.843 173.533 389.465C173.255 388.093 172.574 386.734 172.605 385.381C172.687 381.798 170.169 378.874 170.275 375.328C168.186 373.508 168.978 370.605 167.618 368.42C166 365.82 164.903 362.895 163.681 360.322C165.119 353.007 168.326 346.388 169.872 339.198H171.635C173.555 340.557 175.212 342.251 177.221 343.005C179.222 343.756 181.318 344.351 183.37 345.046C186.17 345.995 188.599 344.156 190.989 343.071C195.53 341.008 198.633 335.983 198.483 330.847C198.355 326.484 199.038 322.128 197.66 317.729C196.672 314.575 197.483 310.813 196.316 307.774C195.541 305.757 195.788 303.975 195.57 302.104C195.33 300.054 193.959 298.254 194.494 296.017C194.914 294.262 194.058 292.624 193.602 290.927C192.707 287.6 192.147 284.178 191.563 280.775C191.328 279.409 188.991 269.742 188.444 268.569C187.339 266.199 186.265 263.814 185.101 261.266C191.376 253.063 195.415 244.002 197.926 233.989C201.965 239.541 202.181 239.696 205.901 240.063C209.132 236.21 209.792 231.704 209.49 227.005C209.38 225.296 208.773 223.626 208.546 221.917C208.144 218.9 208.38 215.687 207.407 212.882C205.883 208.487 204.765 203.954 203.197 199.635C201.216 194.176 199.097 188.684 196.36 183.484C194.736 180.399 192.857 177.458 190.594 174.917C185.338 169.016 179.76 163.408 172.185 160.349C168.865 159.009 165.43 158.018 161.964 157.316C157.601 156.432 153.194 157.584 148.988 158.534C146.726 159.045 143.925 159.022 142.07 161.134C141.784 161.46 140.807 161.179 140.142 161.179C137.465 163.768 134.895 166.372 134.133 170.838C132.935 169.304 132.03 168.147 131.318 167.236C130.382 167.236 129.719 167.445 129.409 167.202C127.367 165.6 124.82 165.82 122.852 166.409C120.708 167.051 118.436 167.262 116.299 168.744C111.887 171.805 108.79 176.093 104.809 179.501C104.712 182.066 100.801 182.634 101.583 185.659C98.8956 189.879 98.4727 194.714 97.4151 199.455C96.397 204.018 95.6524 208.485 95.4893 213.152C95.396 215.824 96.6582 218.198 96.5176 220.732C96.3882 223.062 96.7813 225.309 97.69 227.268C98.5709 229.166 98.6143 230.927 98.4815 232.794C95.8047 235.634 92.0323 236.257 89.0445 237.97C88.7227 237.761 88.4659 237.595 88.3345 237.509C86.7984 238.397 85.5391 239.125 84.1616 239.921C85.2065 242.249 86.0879 244.212 86.8188 245.841C89.2426 247.268 91.3774 248.526 93.2988 249.658C93.768 251.084 94.2217 252.403 94.6367 253.735C95.4033 256.195 97.7978 257.31 99.3096 259.153C100.415 260.501 102.777 260.819 104.976 261.767C99.4478 263.98 94.3535 266.172 89.1485 268.06C83.9249 269.955 78.5347 271.369 73.2701 273.58C72.7271 271.151 70.5894 270.824 69.3565 269.501C66.2935 266.212 62.962 263.174 59.8755 259.906C56.918 256.774 53.5884 254.049 50.6582 250.864C45.2495 244.986 39.4385 239.476 33.7485 233.86C32.8647 232.988 31.7334 232.365 30.5288 231.491C32.2832 225.203 32.0644 219.094 28.9189 212.766C25.7607 206.414 20.2885 203.559 14.6284 200.681V200.502C8.23482 201.258 2.72072 205.288 0.934622 211.763C0.184222 214.483 -0.0462779 217.124 0.0074221 219.737C0.128022 220.118 0.247622 220.496 0.369222 220.879C0.301322 221.01 0.191522 221.184 0.0777221 221.377C0.366322 225.903 1.38192 230.373 1.97322 235.032C4.61532 241.691 8.58942 246.506 15.2501 251.047C15.3277 251.1 15.3961 251.157 15.4693 251.212C15.67 251.165 15.8487 251.135 15.9019 251.204C17.8374 253.678 20.1783 255.978 21.4776 258.761C22.4576 260.861 24.4234 261.988 25.296 264.164C26.0943 266.155 28.087 267.637 29.3844 269.464C33.547 275.322 38.5397 280.427 43.4171 285.67C45.6681 288.09 48.0196 290.32 50.441 292.535C53.0177 294.892 55.2027 297.713 57.9307 299.858C61.4634 302.636 65.2652 305.095 69.5708 306.661C71.332 307.302 72.8765 307.262 74.6577 306.666C76.8681 305.926 79.2539 305.729 81.5176 305.124C85.103 304.166 88.9136 303.57 92.1441 301.889C95.8126 299.98 99.9234 299.521 103.815 296.934C99.522 305.744 98.5269 309.623 100.658 317.919C102.448 324.884 107.019 329.926 113.537 333.284C113.923 339.205 111.035 344.23 109.232 349.804C108.911 349.965 108.08 350.163 107.566 350.678C104.14 354.112 100.15 356.845 96.4234 359.904C92.3301 363.265 89.358 367.761 86.9366 372.415C85.2511 375.654 82.5655 378.552 82.5118 382.586C82.504 383.178 81.4083 383.754 80.7999 384.353C80.3551 387.772 79.7657 391.143 78.8121 394.49C77.9913 397.37 77.7208 400.471 77.6466 403.486C77.4825 410.139 77.5958 416.798 77.5958 423.456C77.5958 426.95 77.441 430.454 77.6412 433.938C77.8033 436.764 78.2613 439.588 78.672 442.655C79.2413 443.406 79.5758 444.292 79.5602 445.204C80.0973 446.039 80.4372 447.031 80.5597 448.031C80.879 450.633 80.8922 453.246 80.8932 455.864C80.8932 456.428 80.7789 456.952 80.6085 457.448C80.7682 460.076 80.2511 462.397 78.6549 464.637C77.0504 466.889 75.8429 469.443 74.6173 471.94C72.7872 475.67 71.3346 479.622 69.4259 483.257C67.8126 486.329 68.0499 490.043 65.6237 492.702C65.4577 492.883 65.6139 493.348 65.6003 493.681C65.3591 499.396 57.6516 518.494 57.5598 520.527C57.4582 522.783 60.573 529.823 60.6223 532.191C60.8454 542.965 60.6057 544.639 60.6047 554.999C60.6399 555.057 60.677 555.109 60.7107 555.17C62.2122 557.899 63.6946 560.675 65.0354 563.513C65.6155 563.271 66.2424 563.105 66.8933 563.027C67.2268 562.987 67.5622 562.896 67.8977 562.785C74.2634 554.453 80.5725 546.092 85.9836 537.101C85.9123 537.132 85.841 537.16 85.7702 537.193C86.1867 535.591 86.3322 534.381 86.8098 533.32C88.2624 530.089 90.1213 527.013 91.2976 523.692C92.5388 520.188 94.4446 517.017 95.7297 513.527C97.2121 509.502 99.0998 505.604 100.746 501.621C102.029 498.518 103.406 495.385 104.714 492.273C106.023 489.158 107.206 485.839 108.81 483.014C110.511 480.019 111.585 476.795 113.226 473.81C116.723 467.453 118.93 460.506 121.441 453.744C123.653 447.785 125.356 441.555 125.794 435.04C126.454 435.117 126.906 435.17 127.603 435.252C127.25 440.321 128.465 445.11 129.598 449.897C130.192 452.407 130.83 454.874 130.588 457.486C130.547 457.93 130.694 458.436 130.888 458.849C133.119 463.593 133.473 468.826 134.401 473.844C135.115 477.712 137.126 481.378 136.565 485.476C138.371 486.88 136.974 488.982 137.639 490.525C138.44 492.382 138.775 494.233 138.53 496.134C137.877 501.23 140.665 505.747 140.846 510.712C140.892 511.986 142.187 513.173 142.465 514.493C142.766 515.927 142.093 517.689 142.68 518.906C143.379 520.359 143.03 521.586 143.043 522.947C143.056 524.371 143.348 525.796 143.569 527.212C143.786 528.605 142.911 530.227 144.417 531.355C144.802 537.042 147.278 542.319 147.616 548.036C147.746 550.218 148.172 552.532 148.807 554.532C150.208 558.945 151.8 563.284 152.958 567.796C154.224 572.729 156.527 577.309 158.925 581.798C159.741 583.325 160.867 584.688 161.731 585.95H165.063C166.803 584.244 167.825 582.309 168.707 579.939C170.862 574.15 171.196 568.025 173.005 561.885C174.365 561.131 175.97 560.241 177.556 559.361C177.465 556.243 177.806 553.182 176.577 550.205C175.049 546.504 174.662 542.385 172.545 538.885ZM14.4884 236.18C14.3898 236.239 14.1886 236.129 13.632 236.016C13.6545 235.874 13.6911 235.735 13.7179 235.594C12.5856 236.161 11.2482 236.344 10.0636 236.019C8.26332 235.524 7.10072 234.15 6.66172 232.517C6.04792 231.672 5.65542 230.64 5.55962 229.53C5.09922 224.196 5.66562 218.636 9.35752 214.495C11.5011 212.091 14.4815 212.719 16.2779 214.57C16.8897 214.318 17.4757 214.078 18.085 213.828C19.0328 215.313 19.794 216.507 20.6255 217.81C20.6255 220.329 20.6206 222.984 20.6265 225.639C20.6372 230.352 18.463 233.793 14.4884 236.18ZM187.276 327.466C187.729 328.2 187.679 329.42 187.47 330.328C187.309 331.025 186.536 331.582 185.916 332.349C181.502 330.312 177.807 327.32 174.253 324.236C171.703 322.023 169.29 319.748 166.295 318.075C164.228 316.921 162.466 315.205 160.61 313.689C155.329 309.376 149.663 305.499 145.187 300.265C143.62 298.433 142.123 296.54 140.575 294.653V288.346C142.29 288.259 144.049 288.171 145.642 288.091C153.357 293.579 159.074 300.968 166.042 306.972C171.388 311.579 176.398 316.6 182.299 320.617C184.503 322.117 185.786 325.054 187.276 327.466ZM154.935 323.827C151.83 321.813 148.517 322.034 147.216 317.987C150.115 319.608 152.972 320.08 154.935 323.827ZM180.495 245.471C178.927 247.871 176.901 249.979 175.001 252.148C174.816 252.359 174.245 252.238 173.67 252.198C174.396 248.575 177.153 246.006 178.381 242.736C179.675 239.287 181.028 235.863 181.725 232.126C182.381 228.61 183.821 225.226 183.49 221.434C184.133 221.315 184.586 221.231 185.339 221.091C185.745 223.961 186.142 226.762 186.538 229.563C184.165 234.735 183.653 240.637 180.495 245.471ZM197.866 221.201H198.199V222.201H197.866V221.201ZM107.257 206.759C108.142 204.453 107.456 201.546 107.456 198.711C108.2 198.137 108.983 197.533 109.572 197.078V194.348C110.409 192.774 111.157 191.73 111.55 190.567C113.607 184.476 116.914 179.521 123.199 177.091C125.351 176.258 126.739 174.185 129.493 174.063C131.469 173.976 133.375 172.323 135.434 171.309C138.174 172.407 139.208 172.788 142.246 170.9C147.288 167.767 152.826 167.522 158.097 168.432C163.956 169.443 169.784 171.363 174.809 174.973C180.918 179.363 185.705 186.472 188.633 194.125C190.777 199.731 192.759 205.39 194.812 211.024C195.858 213.895 196.614 216.873 197.61 220.165C196.374 219.857 195.889 219.17 195.537 218.356C191.814 209.756 185.511 203.079 178.674 197.05C173.75 192.708 168.111 189.129 162.482 185.655C157.969 185.036 154.737 180.757 149.842 181.227C147.129 179.668 144.15 180.382 141.228 180.211C137.887 183.008 135.153 186.295 133.049 190.167C132.148 191.826 130.737 193.205 129.569 194.721C128.502 196.105 127.441 197.496 126.393 198.895C123.479 202.788 119.794 205.978 116.601 209.622C114.386 212.15 111.819 214.338 110.516 217.598C110.118 218.594 108.98 219.296 107.791 220.541C107.306 217.626 107.59 215.272 106.764 212.895C106.173 211.192 106.42 208.944 107.257 206.759ZM171.424 227.491C169.675 230.287 169.767 233.949 167.051 236.188C165.872 241.007 162.248 244.059 158.909 247.275C157.42 248.709 155.648 249.847 153.924 251.182C153.22 251.182 152.33 250.993 151.569 251.225C150.38 251.589 149.38 252.625 147.977 252.178C145.92 251.523 143.848 250.905 141.82 250.168C139.082 249.173 136.822 247.736 135.476 244.854C134.619 243.021 132.813 241.654 131.585 239.967C128.73 236.047 127.308 231.437 125.586 226.984C124.695 224.682 123.962 222.319 123.336 220.504C125.405 217.458 127.082 214.974 128.777 212.504C129.58 211.334 130.328 210.107 131.266 209.052C132.59 207.563 133.939 206.038 135.516 204.845C137.1 203.649 136.451 201.655 137.828 200.214C139.936 198.008 141.28 195.06 142.866 192.378C143.329 191.594 143.51 190.644 143.923 189.483C146.019 188.555 148.228 189.362 150.347 190.527C154.709 192.924 159.161 195.139 163.172 198.17C166.298 200.533 169.137 203.17 171.771 206.022C172.789 207.126 173.561 208.535 173.577 210.256C173.604 213.065 172.802 225.288 171.424 227.491ZM173.57 252.192C173.507 252.189 173.444 252.181 173.382 252.181C173.418 252.544 173.185 252.816 172.953 253.088C172.848 252.983 172.743 252.878 172.638 252.773C172.91 252.541 173.182 252.309 173.455 252.076L173.57 252.192ZM123.23 248.963H117.702C118.455 247.42 119.171 245.955 119.983 244.292C121.786 245.203 121.611 247.312 123.23 248.963ZM101.712 248.609C101.872 247.49 101.778 246.405 102.082 246.279C107.536 244.024 110.214 239.051 113.493 234.695C113.893 234.164 113.66 233.157 113.727 232.29H115.404V237.654C114.199 240.482 112.145 242.607 109.312 243.954C108.035 247.205 104.686 246.971 101.712 248.609ZM111.578 313.962C111.578 313.661 111.612 312.517 111.57 311.375C111.487 309.102 111.635 306.994 113.128 305.007C114.797 302.787 114.996 299.84 116.506 297.419C118.654 293.975 120.114 290.113 123.037 287.136C123.657 286.505 123.914 285.517 124.442 284.495V280.286C123.049 279.493 121.704 278.727 120.381 277.973C114.984 279.923 109.799 281.901 104.543 283.664C99.2711 285.432 93.7882 286.642 88.6549 288.727C83.4903 290.826 77.7277 291.106 72.8815 294.198C72.0461 293.855 71.2082 293.262 70.3346 293.204C68.4259 293.076 66.879 292.262 65.8312 290.827C63.4518 287.567 59.3058 286.122 57.381 282.436C55.4357 281.832 53.9791 280.739 53.5568 278.612C51.2975 278.322 50.8771 276.211 49.6852 274.828C48.8932 273.909 46.9967 273.544 46.7623 272.631C46.3795 271.14 45.3072 270.495 44.4762 269.568C40.8698 265.547 37.0826 261.683 33.5778 257.577C30.1486 253.559 26.9816 249.318 23.3717 244.761C24.5304 244.158 25.8346 243.479 27.6129 242.553C29.525 243.236 30.4703 246.434 32.9078 248.207C35.1739 249.855 37.0152 252.26 38.8502 254.568C40.8409 257.072 43.2154 259.489 45.6183 261.768C51.0519 266.923 56.1505 272.431 61.5988 277.57C64.4933 280.3 67.8268 282.567 70.9841 285.015C71.2014 285.184 71.6018 285.117 72.3508 285.219C78.656 282.955 85.2551 280.331 92.0163 278.227C98.9645 276.066 105.629 273.259 112.109 270.052C118.472 266.902 124.602 263.28 131.011 259.769C133.564 261.302 135.951 262.735 138.548 264.294C138.973 264.025 139.496 263.696 140.364 263.148C141.443 263.668 142.802 264.325 144.216 265.007C144.429 264.812 144.79 264.482 144.945 264.341C147.128 264.718 149.128 265.064 150.106 265.233C153.054 263.925 155.268 263.366 156.941 262.095C159.078 260.473 160.835 261.185 162.652 262.201C164.827 263.416 166.893 264.828 169.007 266.156H172.74C176.026 267.792 176.761 271.099 177.365 273.792C178.53 278.986 181.357 283.9 180.542 289.492C182.193 293.413 181.585 297.867 183.476 301.766C183.911 302.664 183.54 303.954 183.54 306.094C182.177 304.043 181.417 302.901 180.512 301.539C181.38 296.644 178.864 292.186 177.399 287.613C176.003 283.254 173.413 279.277 171.241 274.916C169.942 276.364 168.853 277.579 167.589 278.988C166.653 282.009 169.204 284.749 169.376 287.774C169.558 290.993 171.921 293.586 171.423 297.527C167.033 293.138 162.997 289.133 158.995 285.092C156.056 282.123 152.768 279.742 148.634 278.751C147.563 278.494 146.46 278.38 145.381 278.156C144.634 278.001 143.903 277.77 142.935 277.512C140.429 278.183 137.845 279.433 135.446 281.141C132.401 283.31 130.199 285.82 130.529 289.895C130.628 291.119 130.931 292.415 129.775 293.603C129.264 294.129 129.285 295.622 129.622 296.448C131.622 301.34 132.82 306.7 137.485 310.41C138.22 317.528 133.67 321.109 127.73 324.091C120.453 324.921 114.951 321.893 111.578 313.962ZM120.435 403.732C119.597 408.492 119.035 413.346 117.591 418.009C116.216 422.446 114.979 426.981 113.966 431.456C112.689 437.091 110.681 442.502 109.373 448.121C108.674 451.126 107.11 454.143 105.976 457.168C104.138 462.072 102.507 467.057 100.52 471.897C99.7179 473.85 98.2067 475.511 96.7306 477.739C95.5993 476.365 94.8468 475.451 93.6398 473.985C92.4811 474.237 90.6984 474.624 88.7243 475.052C88.2404 476.903 87.7712 478.697 87.4162 480.053C88.8942 481.668 90.0119 482.889 91.0231 483.994C91.9894 484.045 92.7677 484.086 93.9333 484.148C93.0554 487.227 92.674 490.103 91.4216 492.53C90.1394 495.014 89.2912 497.717 87.8806 500.046C86.4031 502.485 85.8083 505.208 84.49 507.661C83.1799 510.1 81.9324 512.601 80.9631 515.189C78.7487 521.1 76.132 526.859 74.2253 532.884C73.6179 534.804 73.1452 536.767 72.5959 538.706C72.1872 540.147 71.7551 541.582 71.2126 543.431C70.5876 541.617 70.1359 540.307 69.6833 538.995C69.9787 538.01 70.5646 536.972 70.5515 535.942C70.4949 531.588 71.2795 527.438 72.4919 523.248C73.3703 520.212 73.2107 516.886 73.6208 513.703C73.82 512.158 74.2951 510.651 74.592 509.116C75.9807 501.942 77.8332 494.892 80.947 488.267C81.8908 486.26 81.4636 483.965 82.9353 482.067C84.1345 480.521 85.072 478.581 85.4988 476.676C85.9602 474.614 87.9529 473.492 88.0676 471.184C88.1555 469.413 89.8357 467.818 90.3645 466.202C90.8474 464.727 93.072 465.643 92.679 463.673C92.4964 462.759 93.2894 461.649 93.6316 460.652C93.261 460.247 92.9324 459.889 92.8528 459.802C93.1311 458.717 93.8406 457.507 93.5003 456.997C92.2918 455.185 92.7508 453.255 92.5667 451.359C92.3196 448.824 91.9036 446.306 91.5936 443.776C91.2831 441.246 92.2381 438.607 90.6585 436.152C90.2039 435.445 90.5892 434.198 90.5892 433.199C90.5892 425.204 90.7303 417.207 90.5477 409.217C90.3778 401.786 92.2962 394.849 94.1825 387.75C95.6469 382.239 98.4179 378.007 102.315 373.75C106.408 376.791 111.237 378.706 113.683 383.622C114.313 384.89 115.726 385.742 116.552 386.942C120.046 392.014 121.481 397.794 120.435 403.732ZM116.075 372.349C113.111 370.974 111.128 368.459 108.224 367.205C107.873 367.053 107.711 366.463 107.508 366.149C110.656 363.524 113.589 360.864 116.749 358.508C119.462 356.484 120.521 353.323 122.169 350.692C123.441 348.661 123.408 345.67 124.513 343.212C125.455 341.116 125.894 338.795 126.544 336.611C129.331 335.528 132.134 334.729 134.829 333.516C137.723 332.215 140.022 330.403 142.321 327.725C143.127 328.555 144.064 329.181 144.513 330.057C145.366 331.72 146.509 332.79 148.3 333.43C150.322 334.152 152.153 335.461 154.201 336.032C155.412 336.369 156.883 335.77 158.48 335.56C157.486 338.839 156.691 342.426 155.299 345.764C154.093 348.656 153.979 351.764 152.805 354.717C151.661 357.592 152.144 361.346 152.68 364.587C153.15 367.426 153.868 370.492 156.865 372.798C154.64 374 152.861 374.962 151.49 375.704C147.926 376.206 144.771 376.825 141.588 377.05C138.44 377.273 135.264 377.1 132.1 377.099C127.234 377.097 121.266 374.758 116.075 372.349ZM134.469 398.101C133.486 397.607 132.661 397.193 131.541 396.63C132.038 394.315 130.786 392.319 129.582 390.281C128.488 388.432 127.507 386.516 126.072 383.888C129.593 386.067 133.588 383.808 135.928 386.977C140.783 385.969 145.483 384.993 151.383 383.769C149.393 385.759 148.23 386.985 146.997 388.137C145.682 389.366 145.086 391.138 143.247 392.063C141.698 392.841 140.744 394.723 139.281 395.776C137.933 396.747 136.258 397.264 134.469 398.101ZM147.816 477.727C147.162 475.131 146.714 472.43 146.618 469.759C146.48 465.918 145.942 462.24 144.698 458.57C143.897 456.209 143.799 453.58 143.591 451.054C143.357 448.212 142.545 445.523 141.816 442.803C141.694 442.349 141.555 441.872 141.576 441.412C141.839 435.592 139.166 430.119 139.563 424.287C137.402 421.565 139.504 418.01 137.674 415.073C136.857 413.759 138.271 411.923 139.329 410.918C143.493 406.965 147.172 402.538 151.768 398.975C154.467 396.884 156.307 393.69 158.561 391.014C159.221 390.23 159.973 389.524 161.259 388.181C161.411 389.818 161.484 390.575 161.551 391.333C162.014 396.506 163.012 401.644 162.551 406.876C164.768 414.469 162.961 422.237 163.55 429.9C161.783 431.179 164.785 433.462 162.551 434.643V441.126C162.551 443.12 162.694 445.128 162.507 447.106C162.345 448.834 163.162 450.602 161.888 452.345C161.136 453.375 162.209 454.888 161.681 456.386C161.108 458.013 162.083 460.215 161.442 461.781C160.067 465.141 160.841 468.526 160.536 471.883C160.394 473.439 161.115 475.113 159.669 476.542C159.248 476.958 159.244 478.332 159.61 478.915C161.135 481.346 160.326 483.98 160.56 486.235C159.318 487.98 158.214 489.531 157.084 491.119C154.163 490.629 151.355 490.11 149.591 487.447C149.59 484.11 148.626 480.945 147.816 477.727ZM165.136 551.611C163.955 553.57 165.776 556.05 163.562 557.47C163.166 560.808 162.77 564.146 162.352 567.676C162.123 567.755 161.688 567.906 161.05 568.127C159.284 562.831 158.555 557.244 155.554 552.186C155.554 550.163 155.677 547.83 155.526 545.515C155.306 542.158 154.76 538.82 154.591 535.462C154.425 532.149 155.091 528.703 154.392 525.536C153.79 522.808 153.734 520.154 153.523 517.447C153.331 514.963 152.176 512.659 151.673 510.276C150.852 506.39 150.778 502.347 150.287 497.333C154.979 500.424 157.958 498.223 161.344 496.254C161.9 500.239 161.301 504.444 161.635 508.598C162.222 509.185 162.81 509.772 163.317 510.279C163.734 514.192 164.307 518.007 164.504 521.841C164.709 525.816 164.01 529.907 164.701 533.769C165.396 537.649 165.534 541.467 165.535 545.339C165.536 547.466 166.097 550.017 165.136 551.611Z" fill="#1999F5"/>
<path d="M136.903 234.985V229.655C137.635 228.403 138.035 227.718 138.523 226.884C140.466 228.09 142.029 229.061 143.828 230.177C146.48 230.177 149.482 230.341 152.455 230.13C155.311 229.928 158.37 231.234 160.853 229.087C163.18 231.176 163.155 231.166 162.199 233.207C160.156 237.568 156.99 241.127 153.365 244.384C152.395 244.384 150.881 243.99 150.49 244.451C148.579 246.702 146.971 244.32 145.251 244.355C143.546 244.39 142.435 242.975 142.032 241.879C141.484 240.393 140.159 239.788 139.372 238.665C138.59 237.548 137.852 236.403 136.903 234.985Z" fill="#1999F5"/>
<path d="M139.005 220.97C138.745 220.841 138.064 220.504 137.113 220.033V213.54C137.311 213.353 137.886 212.814 138.52 212.218C139.021 212.444 139.585 212.518 139.822 212.836C140.93 214.322 141.948 215.875 142.814 217.136C141.471 218.487 140.24 219.727 139.005 220.97Z" fill="#1999F5"/>
<path d="M161.312 211.456C162.069 212.575 162.834 213.707 164.074 215.544C165.015 217.756 162.041 219.15 161.233 221.743C160.413 221.152 159.793 220.704 158.997 220.131C158.704 216.986 158.542 213.865 161.312 211.456Z" fill="#1999F5"/>
<path d="M171.688 181.787C166.101 178.169 160.381 176.334 154.712 174.351C153.325 173.866 152.131 172.826 151 171.335C153.563 171.455 156.21 171.215 158.669 171.786C161.837 172.52 164.652 174.411 167.185 176.371C168.841 177.652 171.406 178.416 171.688 181.787Z" fill="#1999F5"/>
<path d="M122.072 180.737C123.579 180.287 124.461 180.023 125.815 179.618C126.009 179.849 126.492 180.422 126.908 180.916C126.908 181.228 126.958 181.415 126.898 181.555C126.777 181.837 126.648 182.149 126.432 182.351C122.951 185.607 118.986 188.263 115.404 191.503C116.125 186.751 119.079 183.599 122.072 180.737Z" fill="#1999F5"/>
<path d="M133.854 365.726C134.171 361.563 134.626 356.565 137.967 352.418C139.734 352.384 141.436 351.583 142.897 354.237C142.847 359.517 140.149 364.453 136.598 369.18C135.892 368.291 135.223 367.449 133.854 365.726Z" fill="#1999F5"/>
<path fill-rule="evenodd" clip-rule="evenodd" d="M146.654 127.846C147.229 127.271 147.969 126.888 148.766 126.727C177.996 120.81 200 94.9746 200 64C200 28.6538 171.346 0 136 0C100.654 0 72 28.6538 72 64C72 94.5526 93.4088 120.105 122.043 126.474C122.811 126.644 123.521 127.021 124.077 127.577L132.672 136.172C134.234 137.734 136.766 137.734 138.328 136.172L146.654 127.846Z" fill="white"/>
<path d="M122.5 126.5C126.961 126.996 129.52 138.111 135.69 138.765C142.213 139.457 140.5 125.778 162.5 121.5C189.343 116.281 202.355 96.9237 203.5 66C204.746 32.3602 185.6 5 146 5C111.663 5 84.2028 20.685 76.9998 55.5C70.9999 84.5 88.1269 114.657 107.5 119.5" stroke="#1999F5" stroke-width="10" stroke-linecap="round"/>
<path d="M111 55.8831C112.172 55.7746 113.096 55.3791 114.054 54.7311C117.684 52.2742 121.146 49.4904 124.571 46.7978C128.335 43.8394 132.299 39.3479 136.729 37.2411C138.604 36.3496 141.088 38.1601 142.61 38.943C146.165 40.7718 149.327 43.103 152.732 45.1483C156.11 47.1772 158.659 50.185 162.119 52.0605C163.371 52.7393 165.842 52.8336 166.473 54.2075C168.06 57.665 168 63.1652 168 66.906C168 70.0392 168 73.1724 168 76.3056C168 79.0523 162.31 82.0978 160.366 83.532C156.785 86.1738 153.455 89.2142 149.735 91.6748C148.182 92.7019 146.706 95 144.646 95C140.124 95 136.766 91.8373 132.799 90.1562C129.7 88.843 126.429 87.5644 123.214 86.5168C120.806 85.732 117.946 85.5195 117.701 82.7989C117.01 75.1216 116.089 66.853 116.089 59.1822" stroke="#1999F5" stroke-width="10" stroke-linecap="round"/>
<path d="M153 70.1863C152.527 70.2312 152.154 70.3949 151.768 70.663C150.303 71.6796 148.906 72.8316 147.524 73.9457C146.005 75.1699 144.406 77.0284 142.618 77.9002C141.862 78.2691 140.859 77.5199 140.245 77.196C138.811 76.4392 137.535 75.4746 136.161 74.6283C134.798 73.7888 133.769 72.5441 132.373 71.7681C131.868 71.4872 130.871 71.4481 130.616 70.8797C129.976 69.449 130 67.173 130 65.6251C130 64.3286 130 63.0321 130 61.7356C130 60.599 132.296 59.3388 133.08 58.7454C134.525 57.6522 135.869 56.3941 137.37 55.3759C137.997 54.9509 138.592 54 139.424 54C141.248 54 142.603 55.3087 144.204 56.0043C145.454 56.5477 146.774 57.0768 148.071 57.5103C149.043 57.835 150.197 57.923 150.296 59.0487C150.575 62.2256 150.946 65.647 150.946 68.8212" stroke="#1999F5" stroke-width="10" stroke-linecap="round"/>
</svg>
