<svg width="210" height="547" viewBox="0 0 210 547" fill="none" xmlns="http://www.w3.org/2000/svg">
<path d="M172.545 499.885C171.207 497.676 171.145 495.378 172.038 493.008C172.2 492.576 172.487 492.159 172.528 491.718C172.964 487.035 171.595 482.222 173.54 477.657C173.134 477.006 172.729 476.355 172.36 475.764C172.871 475.203 173.196 474.845 173.509 474.5C173.179 474.136 172.851 473.775 172.726 473.637C172.973 472.071 173.187 470.72 173.4 469.369L173.225 464.837C173.332 464.215 173.734 463.435 173.499 462.996C171.179 458.655 173.855 453.624 171.546 449.311C172.883 447.589 171.326 445.884 171.495 444.138C171.679 442.233 171.824 440.409 172.432 438.526C172.994 436.783 172.855 434.827 173.35 432.93C173.732 431.462 174.998 429.536 173.545 427.814C175.255 426.013 174.24 423.765 174.563 421.736C174.907 419.568 175.394 417.422 175.861 415.049C175.862 415.049 175.863 415.049 175.865 415.049C175.746 411.298 175.288 407.565 175.337 403.808C175.345 403.2 175.442 402.65 175.61 402.158C175.382 399.339 177.105 397.101 176.593 394.523C176.308 393.08 176.544 391.535 176.544 390.036V385.539C176.544 384.04 176.616 382.536 176.522 381.043C176.439 379.736 175.538 377.926 176.101 377.239C177.575 375.436 174.626 374.591 175.577 373.315C176.569 371.983 175.663 370.852 175.561 369.62C175.185 365.098 174.875 360.57 174.548 356.045C174.512 355.551 174.725 354.782 174.482 354.603C172.926 353.457 173.813 351.843 173.533 350.465C173.255 349.093 172.574 347.734 172.605 346.381C172.687 342.798 170.169 339.874 170.275 336.328C168.186 334.508 168.978 331.605 167.618 329.42C166 326.82 164.903 323.895 163.681 321.322C165.119 314.007 168.326 307.388 169.872 300.198H171.635C173.555 301.557 175.212 303.251 177.221 304.005C179.222 304.756 181.318 305.351 183.37 306.046C186.17 306.995 188.599 305.156 190.989 304.071C195.53 302.008 198.633 296.983 198.483 291.847C198.355 287.484 199.038 283.128 197.66 278.729C196.672 275.575 197.483 271.813 196.316 268.774C195.541 266.757 195.788 264.975 195.57 263.104C195.33 261.054 193.959 259.254 194.494 257.017C194.914 255.262 194.058 253.624 193.602 251.927C192.707 248.6 192.147 245.178 191.563 241.775C191.328 240.409 188.991 230.742 188.444 229.569C187.339 227.199 186.265 224.814 185.101 222.266C191.376 214.063 195.415 205.002 197.926 194.989C201.965 200.541 202.181 200.696 205.901 201.063C209.132 197.21 209.792 192.704 209.49 188.005C209.38 186.296 208.773 184.626 208.546 182.917C208.144 179.9 208.38 176.687 207.407 173.882C205.883 169.487 204.765 164.954 203.197 160.635C201.216 155.176 199.097 149.684 196.36 144.484C194.736 141.399 192.857 138.458 190.594 135.917C185.338 130.016 179.76 124.408 172.185 121.349C168.865 120.009 165.43 119.018 161.964 118.316C157.601 117.432 153.194 118.584 148.988 119.534C146.726 120.045 143.925 120.022 142.07 122.134C141.784 122.46 140.807 122.179 140.142 122.179C137.465 124.768 134.895 127.372 134.133 131.838C132.935 130.304 132.03 129.147 131.318 128.236C130.382 128.236 129.719 128.445 129.409 128.202C127.367 126.6 124.82 126.82 122.852 127.409C120.708 128.051 118.436 128.262 116.299 129.744C111.887 132.805 108.79 137.093 104.809 140.501C104.712 143.066 100.801 143.634 101.583 146.659C98.8956 150.879 98.4727 155.714 97.4151 160.455C96.397 165.018 95.6524 169.485 95.4893 174.152C95.396 176.824 96.6582 179.198 96.5176 181.732C96.3882 184.062 96.7813 186.309 97.69 188.268C98.5709 190.166 98.6143 191.927 98.4815 193.794C95.8047 196.634 92.0323 197.257 89.0445 198.97C88.7227 198.761 88.4659 198.595 88.3345 198.509C86.7984 199.397 85.5391 200.125 84.1616 200.921C85.2065 203.249 86.0879 205.212 86.8188 206.841C89.2426 208.268 91.3774 209.526 93.2988 210.658C93.768 212.084 94.2217 213.403 94.6367 214.735C95.4033 217.195 97.7978 218.31 99.3096 220.153C100.415 221.501 102.777 221.819 104.976 222.767C99.4478 224.98 94.3535 227.172 89.1485 229.06C83.9249 230.955 78.5347 232.369 73.2701 234.58C72.7271 232.151 70.5894 231.824 69.3565 230.501C66.2935 227.212 62.962 224.174 59.8755 220.906C56.918 217.774 53.5884 215.049 50.6582 211.864C45.2495 205.986 39.4385 200.476 33.7485 194.86C32.8647 193.988 31.7334 193.365 30.5288 192.491C32.2832 186.203 32.0644 180.094 28.9189 173.766C25.7607 167.414 20.2885 164.559 14.6284 161.681V161.502C8.23482 162.258 2.72072 166.288 0.934622 172.763C0.184222 175.483 -0.0462779 178.124 0.0074221 180.737C0.128022 181.118 0.247622 181.496 0.369222 181.879C0.301322 182.01 0.191522 182.184 0.0777221 182.377C0.366322 186.903 1.38192 191.373 1.97322 196.032C4.61532 202.691 8.58942 207.506 15.2501 212.047C15.3277 212.1 15.3961 212.157 15.4693 212.212C15.67 212.165 15.8487 212.135 15.9019 212.204C17.8374 214.678 20.1783 216.978 21.4776 219.761C22.4576 221.861 24.4234 222.988 25.296 225.164C26.0943 227.155 28.087 228.637 29.3844 230.464C33.547 236.322 38.5397 241.427 43.4171 246.67C45.6681 249.09 48.0196 251.32 50.441 253.535C53.0177 255.892 55.2027 258.713 57.9307 260.858C61.4634 263.636 65.2652 266.095 69.5708 267.661C71.332 268.302 72.8765 268.262 74.6577 267.666C76.8681 266.926 79.2539 266.729 81.5176 266.124C85.103 265.166 88.9136 264.57 92.1441 262.889C95.8126 260.98 99.9234 260.521 103.815 257.934C99.522 266.744 98.5269 270.623 100.658 278.919C102.448 285.884 107.019 290.926 113.537 294.284C113.923 300.205 111.035 305.23 109.232 310.804C108.911 310.965 108.08 311.163 107.566 311.678C104.14 315.112 100.15 317.845 96.4234 320.904C92.3301 324.265 89.358 328.761 86.9366 333.415C85.2511 336.654 82.5655 339.552 82.5118 343.586C82.504 344.178 81.4083 344.754 80.7999 345.353C80.3551 348.772 79.7657 352.143 78.8121 355.49C77.9913 358.37 77.7208 361.471 77.6466 364.486C77.4825 371.139 77.5958 377.798 77.5958 384.456C77.5958 387.95 77.441 391.454 77.6412 394.938C77.8033 397.764 78.2613 400.588 78.672 403.655C79.2413 404.406 79.5758 405.292 79.5602 406.204C80.0973 407.039 80.4372 408.031 80.5597 409.031C80.879 411.633 80.8922 414.246 80.8932 416.864C80.8932 417.428 80.7789 417.952 80.6085 418.448C80.7682 421.076 80.2511 423.397 78.6549 425.637C77.0504 427.889 75.8429 430.443 74.6173 432.94C72.7872 436.67 71.3346 440.622 69.4259 444.257C67.8126 447.329 68.0499 451.043 65.6237 453.702C65.4577 453.883 65.6139 454.348 65.6003 454.681C65.3591 460.396 57.6516 479.494 57.5598 481.527C57.4582 483.783 60.573 490.823 60.6223 493.191C60.8454 503.965 60.6057 505.639 60.6047 515.999C60.6399 516.057 60.677 516.109 60.7107 516.17C62.2122 518.899 63.6946 521.675 65.0354 524.513C65.6155 524.271 66.2424 524.105 66.8933 524.027C67.2268 523.987 67.5622 523.896 67.8977 523.785C74.2634 515.453 80.5725 507.092 85.9836 498.101C85.9123 498.132 85.841 498.16 85.7702 498.193C86.1867 496.591 86.3322 495.381 86.8098 494.32C88.2624 491.089 90.1213 488.013 91.2976 484.692C92.5388 481.188 94.4446 478.017 95.7297 474.527C97.2121 470.502 99.0998 466.604 100.746 462.621C102.029 459.518 103.406 456.385 104.714 453.273C106.023 450.158 107.206 446.839 108.81 444.014C110.511 441.019 111.585 437.795 113.226 434.81C116.723 428.453 118.93 421.506 121.441 414.744C123.653 408.785 125.356 402.555 125.794 396.04C126.454 396.117 126.906 396.17 127.603 396.252C127.25 401.321 128.465 406.11 129.598 410.897C130.192 413.407 130.83 415.874 130.588 418.486C130.547 418.93 130.694 419.436 130.888 419.849C133.119 424.593 133.473 429.826 134.401 434.844C135.115 438.712 137.126 442.378 136.565 446.476C138.371 447.88 136.974 449.982 137.639 451.525C138.44 453.382 138.775 455.233 138.53 457.134C137.877 462.23 140.665 466.747 140.846 471.712C140.892 472.986 142.187 474.173 142.465 475.493C142.766 476.927 142.093 478.689 142.68 479.906C143.379 481.359 143.03 482.586 143.043 483.947C143.056 485.371 143.348 486.796 143.569 488.212C143.786 489.605 142.911 491.227 144.417 492.355C144.802 498.042 147.278 503.319 147.616 509.036C147.746 511.218 148.172 513.532 148.807 515.532C150.208 519.945 151.8 524.284 152.958 528.796C154.224 533.729 156.527 538.309 158.925 542.798C159.741 544.325 160.867 545.688 161.731 546.95H165.063C166.803 545.244 167.825 543.309 168.707 540.939C170.862 535.15 171.196 529.025 173.005 522.885C174.365 522.131 175.97 521.241 177.556 520.361C177.465 517.243 177.806 514.182 176.577 511.205C175.049 507.504 174.662 503.385 172.545 499.885ZM14.4884 197.18C14.3898 197.239 14.1886 197.129 13.632 197.016C13.6545 196.874 13.6911 196.735 13.7179 196.594C12.5856 197.161 11.2482 197.344 10.0636 197.019C8.26332 196.524 7.10072 195.15 6.66172 193.517C6.04792 192.672 5.65542 191.64 5.55962 190.53C5.09922 185.196 5.66562 179.636 9.35752 175.495C11.5011 173.091 14.4815 173.719 16.2779 175.57C16.8897 175.318 17.4757 175.078 18.085 174.828C19.0328 176.313 19.794 177.507 20.6255 178.81C20.6255 181.329 20.6206 183.984 20.6265 186.639C20.6372 191.352 18.463 194.793 14.4884 197.18ZM187.276 288.466C187.729 289.2 187.679 290.42 187.47 291.328C187.309 292.025 186.536 292.582 185.916 293.349C181.502 291.312 177.807 288.32 174.253 285.236C171.703 283.023 169.29 280.748 166.295 279.075C164.228 277.921 162.466 276.205 160.61 274.689C155.329 270.376 149.663 266.499 145.187 261.265C143.62 259.433 142.123 257.54 140.575 255.653V249.346C142.29 249.259 144.049 249.171 145.642 249.091C153.357 254.579 159.074 261.968 166.042 267.972C171.388 272.579 176.398 277.6 182.299 281.617C184.503 283.117 185.786 286.054 187.276 288.466ZM154.935 284.827C151.83 282.813 148.517 283.034 147.216 278.987C150.115 280.608 152.972 281.08 154.935 284.827ZM180.495 206.471C178.927 208.871 176.901 210.979 175.001 213.148C174.816 213.359 174.245 213.238 173.67 213.198C174.396 209.575 177.153 207.006 178.381 203.736C179.675 200.287 181.028 196.863 181.725 193.126C182.381 189.61 183.821 186.226 183.49 182.434C184.133 182.315 184.586 182.231 185.339 182.091C185.745 184.961 186.142 187.762 186.538 190.563C184.165 195.735 183.653 201.637 180.495 206.471ZM197.866 182.201H198.199V183.201H197.866V182.201ZM107.257 167.759C108.142 165.453 107.456 162.546 107.456 159.711C108.2 159.137 108.983 158.533 109.572 158.078V155.348C110.409 153.774 111.157 152.73 111.55 151.567C113.607 145.476 116.914 140.521 123.199 138.091C125.351 137.258 126.739 135.185 129.493 135.063C131.469 134.976 133.375 133.323 135.434 132.309C138.174 133.407 139.208 133.788 142.246 131.9C147.288 128.767 152.826 128.522 158.097 129.432C163.956 130.443 169.784 132.363 174.809 135.973C180.918 140.363 185.705 147.472 188.633 155.125C190.777 160.731 192.759 166.39 194.812 172.024C195.858 174.895 196.614 177.873 197.61 181.165C196.374 180.857 195.889 180.17 195.537 179.356C191.814 170.756 185.511 164.079 178.674 158.05C173.75 153.708 168.111 150.129 162.482 146.655C157.969 146.036 154.737 141.757 149.842 142.227C147.129 140.668 144.15 141.382 141.228 141.211C137.887 144.008 135.153 147.295 133.049 151.167C132.148 152.826 130.737 154.205 129.569 155.721C128.502 157.105 127.441 158.496 126.393 159.895C123.479 163.788 119.794 166.978 116.601 170.622C114.386 173.15 111.819 175.338 110.516 178.598C110.118 179.594 108.98 180.296 107.791 181.541C107.306 178.626 107.59 176.272 106.764 173.895C106.173 172.192 106.42 169.944 107.257 167.759ZM171.424 188.491C169.675 191.287 169.767 194.949 167.051 197.188C165.872 202.007 162.248 205.059 158.909 208.275C157.42 209.709 155.648 210.847 153.924 212.182C153.22 212.182 152.33 211.993 151.569 212.225C150.38 212.589 149.38 213.625 147.977 213.178C145.92 212.523 143.848 211.905 141.82 211.168C139.082 210.173 136.822 208.736 135.476 205.854C134.619 204.021 132.813 202.654 131.585 200.967C128.73 197.047 127.308 192.437 125.586 187.984C124.695 185.682 123.962 183.319 123.336 181.504C125.405 178.458 127.082 175.974 128.777 173.504C129.58 172.334 130.328 171.107 131.266 170.052C132.59 168.563 133.939 167.038 135.516 165.845C137.1 164.649 136.451 162.655 137.828 161.214C139.936 159.008 141.28 156.06 142.866 153.378C143.329 152.594 143.51 151.644 143.923 150.483C146.019 149.555 148.228 150.362 150.347 151.527C154.709 153.924 159.161 156.139 163.172 159.17C166.298 161.533 169.137 164.17 171.771 167.022C172.789 168.126 173.561 169.535 173.577 171.256C173.604 174.065 172.802 186.288 171.424 188.491ZM173.57 213.192C173.507 213.189 173.444 213.181 173.382 213.181C173.418 213.544 173.185 213.816 172.953 214.088C172.848 213.983 172.743 213.878 172.638 213.773C172.91 213.541 173.182 213.309 173.455 213.076L173.57 213.192ZM123.23 209.963H117.702C118.455 208.42 119.171 206.955 119.983 205.292C121.786 206.203 121.611 208.312 123.23 209.963ZM101.712 209.609C101.872 208.49 101.778 207.405 102.082 207.279C107.536 205.024 110.214 200.051 113.493 195.695C113.893 195.164 113.66 194.157 113.727 193.29H115.404V198.654C114.199 201.482 112.145 203.607 109.312 204.954C108.035 208.205 104.686 207.971 101.712 209.609ZM111.578 274.962C111.578 274.661 111.612 273.517 111.57 272.375C111.487 270.102 111.635 267.994 113.128 266.007C114.797 263.787 114.996 260.84 116.506 258.419C118.654 254.975 120.114 251.113 123.037 248.136C123.657 247.505 123.914 246.517 124.442 245.495V241.286C123.049 240.493 121.704 239.727 120.381 238.973C114.984 240.923 109.799 242.901 104.543 244.664C99.2711 246.432 93.7882 247.642 88.6549 249.727C83.4903 251.826 77.7277 252.106 72.8815 255.198C72.0461 254.855 71.2082 254.262 70.3346 254.204C68.4259 254.076 66.879 253.262 65.8312 251.827C63.4518 248.567 59.3058 247.122 57.381 243.436C55.4357 242.832 53.9791 241.739 53.5568 239.612C51.2975 239.322 50.8771 237.211 49.6852 235.828C48.8932 234.909 46.9967 234.544 46.7623 233.631C46.3795 232.14 45.3072 231.495 44.4762 230.568C40.8698 226.547 37.0826 222.683 33.5778 218.577C30.1486 214.559 26.9816 210.318 23.3717 205.761C24.5304 205.158 25.8346 204.479 27.6129 203.553C29.525 204.236 30.4703 207.434 32.9078 209.207C35.1739 210.855 37.0152 213.26 38.8502 215.568C40.8409 218.072 43.2154 220.489 45.6183 222.768C51.0519 227.923 56.1505 233.431 61.5988 238.57C64.4933 241.3 67.8268 243.567 70.9841 246.015C71.2014 246.184 71.6018 246.117 72.3508 246.219C78.656 243.955 85.2551 241.331 92.0163 239.227C98.9645 237.066 105.629 234.259 112.109 231.052C118.472 227.902 124.602 224.28 131.011 220.769C133.564 222.302 135.951 223.735 138.548 225.294C138.973 225.025 139.496 224.696 140.364 224.148C141.443 224.668 142.802 225.325 144.216 226.007C144.429 225.812 144.79 225.482 144.945 225.341C147.128 225.718 149.128 226.064 150.106 226.233C153.054 224.925 155.268 224.366 156.941 223.095C159.078 221.473 160.835 222.185 162.652 223.201C164.827 224.416 166.893 225.828 169.007 227.156H172.74C176.026 228.792 176.761 232.099 177.365 234.792C178.53 239.986 181.357 244.9 180.542 250.492C182.193 254.413 181.585 258.867 183.476 262.766C183.911 263.664 183.54 264.954 183.54 267.094C182.177 265.043 181.417 263.901 180.512 262.539C181.38 257.644 178.864 253.186 177.399 248.613C176.003 244.254 173.413 240.277 171.241 235.916C169.942 237.364 168.853 238.579 167.589 239.988C166.653 243.009 169.204 245.749 169.376 248.774C169.558 251.993 171.921 254.586 171.423 258.527C167.033 254.138 162.997 250.133 158.995 246.092C156.056 243.123 152.768 240.742 148.634 239.751C147.563 239.494 146.46 239.38 145.381 239.156C144.634 239.001 143.903 238.77 142.935 238.512C140.429 239.183 137.845 240.433 135.446 242.141C132.401 244.31 130.199 246.82 130.529 250.895C130.628 252.119 130.931 253.415 129.775 254.603C129.264 255.129 129.285 256.622 129.622 257.448C131.622 262.34 132.82 267.7 137.485 271.41C138.22 278.528 133.67 282.109 127.73 285.091C120.453 285.921 114.951 282.893 111.578 274.962ZM120.435 364.732C119.597 369.492 119.035 374.346 117.591 379.009C116.216 383.446 114.979 387.981 113.966 392.456C112.689 398.091 110.681 403.502 109.373 409.121C108.674 412.126 107.11 415.143 105.976 418.168C104.138 423.072 102.507 428.057 100.52 432.897C99.7179 434.85 98.2067 436.511 96.7306 438.739C95.5993 437.365 94.8468 436.451 93.6398 434.985C92.4811 435.237 90.6984 435.624 88.7243 436.052C88.2404 437.903 87.7712 439.697 87.4162 441.053C88.8942 442.668 90.0119 443.889 91.0231 444.994C91.9894 445.045 92.7677 445.086 93.9333 445.148C93.0554 448.227 92.674 451.103 91.4216 453.53C90.1394 456.014 89.2912 458.717 87.8806 461.046C86.4031 463.485 85.8083 466.208 84.49 468.661C83.1799 471.1 81.9324 473.601 80.9631 476.189C78.7487 482.1 76.132 487.859 74.2253 493.884C73.6179 495.804 73.1452 497.767 72.5959 499.706C72.1872 501.147 71.7551 502.582 71.2126 504.431C70.5876 502.617 70.1359 501.307 69.6833 499.995C69.9787 499.01 70.5646 497.972 70.5515 496.942C70.4949 492.588 71.2795 488.438 72.4919 484.248C73.3703 481.212 73.2107 477.886 73.6208 474.703C73.82 473.158 74.2951 471.651 74.592 470.116C75.9807 462.942 77.8332 455.892 80.947 449.267C81.8908 447.26 81.4636 444.965 82.9353 443.067C84.1345 441.521 85.072 439.581 85.4988 437.676C85.9602 435.614 87.9529 434.492 88.0676 432.184C88.1555 430.413 89.8357 428.818 90.3645 427.202C90.8474 425.727 93.072 426.643 92.679 424.673C92.4964 423.759 93.2894 422.649 93.6316 421.652C93.261 421.247 92.9324 420.889 92.8528 420.802C93.1311 419.717 93.8406 418.507 93.5003 417.997C92.2918 416.185 92.7508 414.255 92.5667 412.359C92.3196 409.824 91.9036 407.306 91.5936 404.776C91.2831 402.246 92.2381 399.607 90.6585 397.152C90.2039 396.445 90.5892 395.198 90.5892 394.199C90.5892 386.204 90.7303 378.207 90.5477 370.217C90.3778 362.786 92.2962 355.849 94.1825 348.75C95.6469 343.239 98.4179 339.007 102.315 334.75C106.408 337.791 111.237 339.706 113.683 344.622C114.313 345.89 115.726 346.742 116.552 347.942C120.046 353.014 121.481 358.794 120.435 364.732ZM116.075 333.349C113.111 331.974 111.128 329.459 108.224 328.205C107.873 328.053 107.711 327.463 107.508 327.149C110.656 324.524 113.589 321.864 116.749 319.508C119.462 317.484 120.521 314.323 122.169 311.692C123.441 309.661 123.408 306.67 124.513 304.212C125.455 302.116 125.894 299.795 126.544 297.611C129.331 296.528 132.134 295.729 134.829 294.516C137.723 293.215 140.022 291.403 142.321 288.725C143.127 289.555 144.064 290.181 144.513 291.057C145.366 292.72 146.509 293.79 148.3 294.43C150.322 295.152 152.153 296.461 154.201 297.032C155.412 297.369 156.883 296.77 158.48 296.56C157.486 299.839 156.691 303.426 155.299 306.764C154.093 309.656 153.979 312.764 152.805 315.717C151.661 318.592 152.144 322.346 152.68 325.587C153.15 328.426 153.868 331.492 156.865 333.798C154.64 335 152.861 335.962 151.49 336.704C147.926 337.206 144.771 337.825 141.588 338.05C138.44 338.273 135.264 338.1 132.1 338.099C127.234 338.097 121.266 335.758 116.075 333.349ZM134.469 359.101C133.486 358.607 132.661 358.193 131.541 357.63C132.038 355.315 130.786 353.319 129.582 351.281C128.488 349.432 127.507 347.516 126.072 344.888C129.593 347.067 133.588 344.808 135.928 347.977C140.783 346.969 145.483 345.993 151.383 344.769C149.393 346.759 148.23 347.985 146.997 349.137C145.682 350.366 145.086 352.138 143.247 353.063C141.698 353.841 140.744 355.723 139.281 356.776C137.933 357.747 136.258 358.264 134.469 359.101ZM147.816 438.727C147.162 436.131 146.714 433.43 146.618 430.759C146.48 426.918 145.942 423.24 144.698 419.57C143.897 417.209 143.799 414.58 143.591 412.054C143.357 409.212 142.545 406.523 141.816 403.803C141.694 403.349 141.555 402.872 141.576 402.412C141.839 396.592 139.166 391.119 139.563 385.287C137.402 382.565 139.504 379.01 137.674 376.073C136.857 374.759 138.271 372.923 139.329 371.918C143.493 367.965 147.172 363.538 151.768 359.975C154.467 357.884 156.307 354.69 158.561 352.014C159.221 351.23 159.973 350.524 161.259 349.181C161.411 350.818 161.484 351.575 161.551 352.333C162.014 357.506 163.012 362.644 162.551 367.876C164.768 375.469 162.961 383.237 163.55 390.9C161.783 392.179 164.785 394.462 162.551 395.643V402.126C162.551 404.12 162.694 406.128 162.507 408.106C162.345 409.834 163.162 411.602 161.888 413.345C161.136 414.375 162.209 415.888 161.681 417.386C161.108 419.013 162.083 421.215 161.442 422.781C160.067 426.141 160.841 429.526 160.536 432.883C160.394 434.439 161.115 436.113 159.669 437.542C159.248 437.958 159.244 439.332 159.61 439.915C161.135 442.346 160.326 444.98 160.56 447.235C159.318 448.98 158.214 450.531 157.084 452.119C154.163 451.629 151.355 451.11 149.591 448.447C149.59 445.11 148.626 441.945 147.816 438.727ZM165.136 512.611C163.955 514.57 165.776 517.05 163.562 518.47C163.166 521.808 162.77 525.146 162.352 528.676C162.123 528.755 161.688 528.906 161.05 529.127C159.284 523.831 158.555 518.244 155.554 513.186C155.554 511.163 155.677 508.83 155.526 506.515C155.306 503.158 154.76 499.82 154.591 496.462C154.425 493.149 155.091 489.703 154.392 486.536C153.79 483.808 153.734 481.154 153.523 478.447C153.331 475.963 152.176 473.659 151.673 471.276C150.852 467.39 150.778 463.347 150.287 458.333C154.979 461.424 157.958 459.223 161.344 457.254C161.9 461.239 161.301 465.444 161.635 469.598C162.222 470.185 162.81 470.772 163.317 471.279C163.734 475.192 164.307 479.007 164.504 482.841C164.709 486.816 164.01 490.907 164.701 494.769C165.396 498.649 165.534 502.467 165.535 506.339C165.536 508.466 166.097 511.017 165.136 512.611Z" fill="black"/>
<path d="M136.903 195.985V190.655C137.635 189.403 138.035 188.718 138.523 187.884C140.466 189.09 142.029 190.061 143.828 191.177C146.48 191.177 149.482 191.341 152.455 191.13C155.311 190.928 158.37 192.234 160.853 190.087C163.18 192.176 163.155 192.166 162.199 194.207C160.156 198.568 156.99 202.127 153.365 205.384C152.395 205.384 150.881 204.99 150.49 205.451C148.579 207.702 146.971 205.32 145.251 205.355C143.546 205.39 142.435 203.975 142.032 202.879C141.484 201.393 140.159 200.788 139.372 199.665C138.59 198.548 137.852 197.403 136.903 195.985Z" fill="black"/>
<path d="M139.005 181.97C138.745 181.841 138.064 181.504 137.113 181.033V174.54C137.311 174.353 137.886 173.814 138.52 173.218C139.021 173.444 139.585 173.518 139.822 173.836C140.93 175.322 141.948 176.875 142.814 178.136C141.471 179.487 140.24 180.727 139.005 181.97Z" fill="black"/>
<path d="M161.312 172.456C162.069 173.575 162.834 174.707 164.074 176.544C165.015 178.756 162.041 180.15 161.233 182.743C160.413 182.152 159.793 181.704 158.997 181.131C158.704 177.986 158.542 174.865 161.312 172.456Z" fill="black"/>
<path d="M171.688 142.787C166.101 139.169 160.381 137.334 154.712 135.351C153.325 134.866 152.131 133.826 151 132.335C153.563 132.455 156.21 132.215 158.669 132.786C161.837 133.52 164.652 135.411 167.185 137.371C168.841 138.652 171.406 139.416 171.688 142.787Z" fill="black"/>
<path d="M122.072 141.737C123.579 141.287 124.461 141.023 125.815 140.618C126.009 140.849 126.492 141.422 126.908 141.916C126.908 142.228 126.958 142.415 126.898 142.555C126.777 142.837 126.648 143.149 126.432 143.351C122.951 146.607 118.986 149.263 115.404 152.503C116.125 147.751 119.079 144.599 122.072 141.737Z" fill="black"/>
<path d="M133.854 326.726C134.171 322.563 134.626 317.565 137.967 313.418C139.734 313.384 141.436 312.582 142.897 315.237C142.847 320.517 140.149 325.453 136.598 330.18C135.892 329.291 135.223 328.449 133.854 326.726Z" fill="black"/>
<path fill-rule="evenodd" clip-rule="evenodd" d="M146.654 127.846C147.229 127.271 147.969 126.888 148.766 126.727C177.996 120.81 200 94.9746 200 64C200 28.6538 171.346 0 136 0C100.654 0 72 28.6538 72 64C72 94.5526 93.4088 120.105 122.043 126.474C122.811 126.644 123.521 127.021 124.077 127.577L132.672 136.172C134.234 137.734 136.766 137.734 138.328 136.172L146.654 127.846Z" fill="white"/>
<path d="M122.5 126.5C126.961 126.996 129.52 138.111 135.69 138.765C142.213 139.457 140.5 125.778 162.5 121.5C189.343 116.281 202.355 96.9237 203.5 66C204.746 32.3602 185.6 5 146 5C111.663 5 84.2028 20.685 76.9998 55.5C70.9999 84.5 88.1269 114.657 107.5 119.5" stroke="black" stroke-width="10" stroke-linecap="round"/>
<path d="M111 55.8831C112.172 55.7746 113.096 55.3791 114.054 54.7311C117.684 52.2742 121.146 49.4904 124.571 46.7978C128.335 43.8394 132.299 39.3479 136.729 37.2411C138.604 36.3496 141.088 38.1601 142.61 38.943C146.165 40.7718 149.327 43.103 152.732 45.1483C156.11 47.1772 158.659 50.185 162.119 52.0605C163.371 52.7393 165.842 52.8336 166.473 54.2075C168.06 57.665 168 63.1652 168 66.906C168 70.0392 168 73.1724 168 76.3056C168 79.0523 162.31 82.0978 160.366 83.532C156.785 86.1738 153.455 89.2142 149.735 91.6748C148.182 92.7019 146.706 95 144.646 95C140.124 95 136.766 91.8373 132.799 90.1562C129.7 88.843 126.429 87.5644 123.214 86.5168C120.806 85.732 117.946 85.5195 117.701 82.7989C117.01 75.1216 116.089 66.853 116.089 59.1822" stroke="black" stroke-width="10" stroke-linecap="round"/>
<path d="M153 70.1863C152.527 70.2312 152.154 70.3949 151.768 70.663C150.303 71.6796 148.906 72.8316 147.524 73.9457C146.005 75.1699 144.406 77.0284 142.618 77.9002C141.862 78.2691 140.859 77.5199 140.245 77.196C138.811 76.4392 137.535 75.4746 136.161 74.6283C134.798 73.7888 133.769 72.5441 132.373 71.7681C131.868 71.4872 130.871 71.4481 130.616 70.8797C129.976 69.449 130 67.173 130 65.6251C130 64.3286 130 63.0321 130 61.7356C130 60.599 132.296 59.3388 133.08 58.7454C134.525 57.6522 135.869 56.3941 137.37 55.3759C137.997 54.9509 138.592 54 139.424 54C141.248 54 142.603 55.3087 144.204 56.0043C145.454 56.5477 146.774 57.0768 148.071 57.5103C149.043 57.835 150.197 57.923 150.296 59.0487C150.575 62.2256 150.946 65.647 150.946 68.8212" stroke="black" stroke-width="10" stroke-linecap="round"/>
</svg>
