<svg width="197" height="413" viewBox="0 0 197 413" fill="none" xmlns="http://www.w3.org/2000/svg">
<path d="M194.535 212.371C191.844 211.941 190.557 214.837 188.372 215.226C185.798 215.684 183.079 215.333 180.604 215.333C179.634 214.419 178.789 213.623 177.987 212.867C177.987 211.784 177.901 210.775 178.019 209.79C178.089 209.205 178.586 208.681 178.712 208.092C179.498 204.414 180.572 200.756 180.91 197.034C181.51 190.435 179.983 184.256 177.437 178.03C175.41 173.075 171.718 169.986 168.518 166.351C166.766 166.516 165.487 166.108 165.227 165.208C165.641 162.551 165.931 160.697 166.237 158.734C166.769 157.79 167.922 156.694 167.899 155.624C167.792 150.75 171.526 146.794 170.993 141.878C172.651 138.674 173.614 135.281 174.229 131.715C174.833 128.218 176.715 125.074 177.406 121.542C177.874 119.151 178.876 116.864 179.986 113.474C179.986 112.798 179.699 110.913 180.032 109.144C182.22 97.5285 181.12 98.0389 175.082 92.0137C174.857 91.7893 174.584 91.6126 174.333 91.4139C173.5 91.4141 172.647 91.5292 171.839 91.3882C170.498 91.1543 166.478 90.8864 165.847 91.0507C163.546 91.6501 161.542 92.6192 159.601 94.1465C157.075 96.1336 155.55 98.9834 153.494 100.465C151.037 107.391 148.335 113.606 146.745 120.315C145.165 126.981 143.616 133.641 142.592 140.935C141.472 140.047 140.634 139.563 140.037 138.871C138.897 137.547 138.18 135.467 136.778 134.839C133.415 133.333 130.496 130.869 126.647 130.311C124.572 130.01 122.431 129.341 121.694 126.672C121.339 125.385 120.222 124.25 119.278 123.199C118.067 121.851 116.794 120.505 115.339 119.442C114.116 118.549 112.607 118.037 111.202 117.404C109.659 116.71 108.143 115.818 106.519 115.479C104.923 115.147 103.192 115.53 101.545 115.363C99.8346 115.189 98.1598 114.691 96.455 114.429C96.0414 114.365 95.5739 114.677 95.1269 114.8C94.3786 115.006 93.6328 115.341 92.8754 115.373C90.3131 115.481 87.7726 115.269 85.2777 116.354C81.8949 117.826 78.0404 118.104 74.9576 120.39C73.5645 121.422 72.1368 122.41 70.7061 123.391C64.6678 127.531 59.896 132.738 56.5335 139.315C54.8052 142.695 54.4327 146.437 53.022 149.856C51.3199 153.981 51.6006 158.381 52.291 162.402C52.8598 165.716 53.199 169.572 55.9985 172.329C56.6816 173.002 56.7173 174.332 57.0954 175.307C57.413 175.487 57.685 175.719 57.9572 175.951C57.8522 176.056 57.7472 176.161 57.6423 176.266C57.4111 175.995 57.1799 175.724 56.9487 175.453C57.0127 175.387 57.0766 175.321 57.0954 175.307C56.6511 175.127 56.2021 174.952 55.8605 174.653C50.9599 170.372 47.445 164.971 43.8573 159.643C41.1635 155.643 38.5551 151.594 36.3856 147.258C34.2462 142.982 32.6634 138.433 30.0643 134.386C30.2525 131.732 27.8221 130.336 27.0628 128.135C26.3094 125.95 25.6307 123.732 24.7261 121.61C24.2427 120.475 23.3992 119.478 22.6333 118.484C21.8101 117.416 20.9656 116.341 19.9888 115.42C18.8274 114.324 17.5152 113.388 16.4275 112.512H6.81218C5.08368 113.842 3.69618 114.909 2.41568 115.894C-0.0425155 118.862 0.0279844 122.363 8.44298e-05 125.924C-0.0109156 127.354 1.05668 128.354 1.01058 129.505C0.813584 134.403 3.92518 138.438 4.34188 143.144C7.50598 148.292 8.82069 154.302 12.034 159.45C14.2423 162.988 16.2598 166.675 17.9998 170.463C19.0291 172.704 20.9764 174.188 22.0374 176.284C25.4939 183.112 30.6499 188.743 35.1817 194.781C38.8565 199.677 43.0328 204.266 47.1888 208.776C51.0528 212.97 54.6351 217.609 59.7459 220.527C60.8633 223.033 64.0687 223.603 65.1082 226.406C64.9109 226.703 64.7398 227.208 64.388 227.452C60.9407 229.839 59.658 233.885 57.1231 236.976C56.3221 237.952 56.2608 239.622 56.0865 241.002C55.921 242.314 56.151 243.671 56.0333 244.993C55.5548 250.364 57.9129 254.474 61.433 258.275C63.8849 260.922 66.8776 262.698 69.7191 264.375C71.0414 274.954 72.0541 285.348 74.9139 295.682C72.71 300.436 70.8028 305.645 68.3902 310.649C67.6556 312.173 66.5904 313.609 66.1158 315.184C64.8177 319.492 62.5955 323.391 61.0169 327.569C59.4952 331.596 57.6397 335.496 56.0704 339.507C54.1632 344.381 52.2708 349.268 50.6153 354.231C49.0025 359.065 47.3138 363.873 45.9173 368.792C44.9901 372.059 44.3321 375.407 43.2359 378.649C41.7598 383.012 42.3558 387.787 41.1158 392.256C40.9439 392.875 41.566 393.699 41.7713 394.442C41.8919 394.878 41.9962 395.346 41.9693 395.791C41.772 399.086 42.3223 401.212 43.6509 403.331C45.8989 406.917 49.3501 409.052 52.3213 410.907C54.7173 411.192 56.8005 411.44 58.9861 411.699C60.5095 412.561 62.3626 412.845 64.2883 412.426C73.5671 410.407 80.8979 403.63 88.4048 398.276C89.761 397.309 90.8494 396.209 91.4314 394.664C99.2927 397.279 107.543 398.607 116.044 398.177C118.734 398.04 121.418 397.749 124.081 397.326C127.377 397.153 130.641 397.188 133.368 395.999C137.412 394.234 141.67 393.504 145.686 391.949C150.425 390.114 155.564 389.033 159.464 385.35C159.914 384.925 160.995 385.17 161.653 385.115C164.828 381.408 169.829 379.559 170.99 374.366V368.527C169.627 367.52 168.1 366.391 166.926 365.524C162.106 365.524 157.659 365.513 153.211 365.554C152.974 365.556 152.74 365.995 152.505 366.229C150.281 363.406 148.174 366.924 145.809 366.365C143.34 365.782 140.626 366.235 138.024 366.235V364.542C138.871 364.39 139.776 364.228 140.312 364.132C144.049 361.58 146.013 358.198 146.952 353.956C145.088 350.077 141.817 348.161 137.325 348.248C134.762 348.298 132.152 347.873 129.721 349.202C129.313 349.425 128.591 349.074 128.075 348.997C128.969 347.261 129.426 345.412 130.588 344.295C134.129 340.894 135.911 336.522 137.514 332.144C139.342 327.154 141.263 322.135 141.066 316.599C140.962 313.669 139.565 311.086 139.223 308.41C138.798 305.092 137.025 302.563 135.819 299.769C134.516 296.754 132.471 294.013 129.964 291.684C126.916 288.852 124.051 285.824 121.017 282.789C121.017 281.228 120.5 279.347 121.111 277.964C123.177 273.288 124.004 268.178 126.254 263.609C129.051 257.929 132.078 252.363 135.013 246.753C135.309 246.186 135.662 245.648 135.886 245.272C137.64 247.18 138.958 249.05 140.685 250.396C143.683 252.732 146.935 254.568 151.039 254.351C154.855 254.149 158.691 254.308 162.084 254.308C167.758 251.335 173.687 249.328 177.196 242.894C177.196 242.944 177.196 242.169 177.196 241.361C179.198 240.87 181.278 240.85 182.763 239.901C186.417 237.564 190.13 234.964 191.812 230.809C192.558 228.967 194.253 228.242 194.535 226.458C195.281 224.433 196.027 222.408 196.976 219.833C196.976 217.055 196.163 214.567 194.535 212.371ZM115.9 138.253C117.797 139.183 120.097 139.923 122.405 139.371C123.817 139.034 124.952 139.676 125.97 140.404C130.318 143.509 135.01 146.402 135.009 152.713C137.034 153.907 135.347 156.339 136.884 157.988C137.972 159.154 136.124 160.827 135.072 162.108V158.409C133.515 156.889 132.372 155.774 131.218 154.647C130.432 156.82 131.76 159.628 130.273 162.07C132.024 163.608 130.534 165.906 131.136 167.966C130.568 168.154 130.13 168.299 129.243 168.593C129.129 166.687 129.026 164.967 128.907 162.972C127.191 160.525 126.559 157.13 124.04 154.801C123.22 154.043 120.805 151.498 120.014 151.407C117.212 151.086 115.376 148.928 113.065 147.717C111.359 146.823 110.298 144.701 109.152 143.362V138.755C109.633 138.274 109.986 137.921 110.436 137.471C112.231 137.435 113.966 137.305 115.9 138.253ZM119.935 170.569C119.954 173.59 119.31 176.614 118.93 179.858C116.419 181.385 117.086 184.895 114.968 186.981C113.022 188.897 111.647 191.444 109.562 193.154C107.44 194.894 104.757 195.951 102.29 197.323C100.453 196.676 98.4293 196.255 96.6996 195.301C91.0023 192.16 87.5465 187.251 86.0255 180.946C85.8824 180.352 85.7333 179.689 85.3693 179.23C83.8268 177.286 84.2099 175.006 83.9989 172.785C83.4667 167.183 85.9352 162.325 87.6757 157.303C88.2738 155.576 89.3381 153.937 90.4823 152.489C92.5929 149.82 94.9276 147.328 97.1537 144.748C98.141 143.604 99.091 142.428 100.058 141.266C100.522 146.745 103.716 150.247 106.939 153.875C110.219 157.568 114.292 159.827 118.84 161.636C119.228 164.582 119.916 167.573 119.935 170.569ZM63.0473 154.608C64.82 152.219 63.373 148.971 65.3105 146.55C67.0544 144.371 67.1799 141.281 69.0551 139.138C71.509 136.334 73.8703 133.416 77.277 131.644C79.8742 130.293 82.3317 128.732 85.1273 127.697C88.4005 126.485 91.7213 125.716 95.1507 125.429C97.4634 125.235 99.8157 125.533 102.132 125.36C105.758 125.089 108.923 126.331 112.106 127.921C111.983 128.415 111.87 128.864 111.72 129.465C109.079 128.372 106.728 128.13 103.957 129.235C101.698 130.137 99.3121 130.639 96.994 131.724C91.8993 134.11 88.2853 138.135 84.9615 142.199C81.0689 146.96 78.1163 152.487 76.0069 158.397C73.4822 165.471 73.7071 172.795 74.19 180.025C74.4632 184.116 76.1983 188.118 77.356 192.137C77.7325 193.444 78.367 194.676 78.9004 195.984C78.5103 196.374 78.0398 196.845 77.6587 197.226C69.7827 193.392 65.1499 186.391 59.7793 179.51C62.8591 180.379 67.9602 183.778 70.8943 186.574C71.6543 184.741 72.3543 183.053 73.2019 181.008C72.46 180.599 71.5715 180.321 70.9958 179.736C70.3632 179.092 70.0163 178.167 69.5485 177.362C68.3798 175.352 67.3027 173.281 66.028 171.34C62.633 166.172 62.8901 160.389 63.0473 154.608ZM59.7541 177.386C59.8815 178.037 60.009 178.688 60.1364 179.339C59.9792 179.347 59.8222 179.355 59.6652 179.363C59.6266 179.314 59.589 179.264 59.5505 179.215C59.2185 178.746 59.1638 178.11 59.1091 177.473C59.3239 177.444 59.539 177.415 59.7541 177.386ZM59.9821 205.687C54.0651 199.767 48.7441 193.33 43.6037 186.688C40.4855 182.658 37.5285 178.535 34.4518 174.497C31.2809 170.336 28.8971 165.772 26.0824 161.441C24.9865 159.755 24.1564 157.896 23.0494 156.218C20.8145 152.83 19.7132 148.929 17.9547 145.356C15.482 140.334 13.7823 135.098 11.8365 129.907C11.0103 127.703 11.5572 125.789 10.8568 123.413H13.6307C14.3419 124.205 15.1173 125.068 16.0777 126.137C16.326 127.181 16.3157 128.491 16.9202 129.934C20.9654 139.593 25.1421 149.188 30.117 158.399C32.41 162.646 35.244 166.602 37.8716 170.665C41.5891 176.413 46.2268 181.497 50.0654 187.117C52.1469 190.164 55.1245 192.095 57.3032 194.941C59.6091 197.953 62.5053 200.557 65.3686 203.084C67.7343 205.172 70.3544 207.004 73.0136 208.712C74.0048 209.349 75.4274 209.314 76.8603 209.631C77.9636 212.612 75.4174 214.722 74.6447 217.311H72.8781C68.4687 213.364 64.0221 209.729 59.9821 205.687ZM75.1696 390.794L75.1225 390.701C70.829 393.303 66.6599 395.829 62.3337 398.451C61.7504 398.627 61.1655 398.796 60.5666 398.926C60.2839 398.988 60.0114 399.079 59.7441 399.183H58.406C53.5762 397.801 52.9324 394.759 52.9905 391.082C53.0342 388.316 54.0222 385.827 54.5891 383.22C55.4187 379.402 56.4338 375.624 57.6096 370.859C57.5735 370.884 58.3918 370.314 58.551 370.203C59.1299 368.312 59.4695 367.108 59.8664 365.924C61.3859 361.391 62.6896 356.767 64.5107 352.358C67.1584 345.947 69.3247 339.359 71.7287 332.869C73.8376 327.176 76.9865 322.057 79.4179 316.564C80.0226 315.198 81.2414 314.038 81.0947 312.386H83.5154C84.8657 314.4 85.7368 316.661 87.3748 317.94C90.6812 320.521 94.4043 322.569 97.701 324.674C96.1593 326.833 94.577 329.049 93.1138 331.098C92.5845 331.81 92.0447 332.511 91.5345 333.242C85.4649 341.939 79.9796 351.215 75.44 360.804C72.6851 366.623 70.3118 372.618 68.2515 378.716C68.2207 378.808 68.2163 378.904 68.1944 378.997C67.3919 380.758 68.1207 382.712 69.7 383.776C72.3533 385.564 75.0848 387.226 77.8836 388.744C76.981 389.426 76.0771 390.111 75.1696 390.794ZM130.959 359.194C131.139 358.877 131.371 358.604 131.604 358.332C131.709 358.437 131.814 358.542 131.919 358.647C131.646 358.879 131.374 359.112 131.102 359.344C131.037 359.279 130.972 359.214 130.959 359.194C128.932 361.563 126.852 363.888 125.09 365.856C122.955 366.461 121.312 366.926 119.381 367.472C118.203 368.638 117.212 369.835 116.366 371.059C113.621 370.126 110.836 369.443 108.016 369.012C109.048 368.012 110.057 366.989 111.045 365.945C111.056 365.965 111.069 365.987 111.08 366.007C113.749 366.55 115.88 366.224 117.872 364.907C119.82 363.619 121.745 362.211 123.872 361.305C126.135 360.341 128.622 359.905 130.959 359.194ZM128.013 311.596C128.013 313.636 127.916 315.774 128.033 317.901C128.296 322.697 125.763 326.588 124.03 330.743C122.3 331.358 123.502 333.163 122.632 334.168C121.697 335.249 120.853 336.413 120.023 337.579C117.084 341.708 114.167 345.854 111.497 349.633C111.305 350.084 111.11 350.509 110.919 350.917C109.344 352.879 107.741 354.819 106.067 356.697C103.983 359.034 101.803 361.289 99.4938 363.404C98.3947 364.411 97.2663 365.385 96.1066 366.321C95.9306 366.463 95.7528 366.603 95.5754 366.743C95.4609 366.828 95.0402 367.148 94.9265 367.232C94.2383 367.74 93.5388 368.23 92.8318 368.711C92.5344 368.913 92.2581 369.146 92.0029 369.4C90.0693 370.427 88.968 373.174 89.6152 375.174C90.5312 378.004 92.9851 379.085 95.7658 378.667C95.8303 378.657 95.8845 378.649 95.9338 378.642C96.1311 378.618 96.3283 378.595 96.5258 378.574C96.945 378.531 97.3647 378.494 97.7848 378.463C98.7653 378.391 99.7487 378.355 100.732 378.352C102.457 378.348 104.224 378.41 105.937 378.659C106.16 378.697 106.465 378.748 106.534 378.759C107.019 378.841 107.502 378.931 107.984 379.029C108.878 379.212 109.767 379.423 110.648 379.662C111.597 379.92 112.537 380.211 113.464 380.536C113.862 380.675 114.258 380.82 114.651 380.971C114.875 381.057 115.098 381.146 115.32 381.236C115.352 381.249 115.366 381.256 115.404 381.272C115.509 381.318 115.622 381.347 115.73 381.388C116.154 381.674 116.568 381.953 116.955 382.213C117.296 382.068 117.62 381.946 117.935 381.827C119.66 381.868 121.337 381.196 122.245 379.478C122.256 379.456 122.265 379.432 122.277 379.409C126.764 376.74 129.244 376.228 135.182 376.228C138.013 376.228 140.844 376.238 143.675 376.222C144.658 376.217 145.79 376.452 146.597 376.055C150.048 374.356 153.507 375.536 157.361 375.382C155.739 376.482 154.564 377.279 153.167 378.226C152.825 378.226 152.142 378.134 151.497 378.254C150.906 378.363 150.299 378.989 149.799 378.89C147.37 378.407 146.387 380.937 144.26 381.328C140.938 381.938 137.74 383.22 134.492 384.225C133.46 384.544 132.45 385.117 131.406 385.183C126.737 385.475 122.799 387.072 120.473 390.274C115.606 390.874 110.693 390.942 105.548 390.353C105.31 390.326 105.072 390.297 104.835 390.267C104.83 390.266 104.828 390.266 104.823 390.265C104.38 390.202 103.937 390.134 103.495 390.061C102.491 389.896 101.491 389.706 100.496 389.492C98.6424 389.093 96.807 388.612 94.9957 388.053C91.1239 386.859 88.3712 385.725 84.9637 384.041C82.0623 382.607 79.2533 380.998 76.5169 379.273C79.7693 369.958 83.6182 361.616 88.7083 352.782C91.4112 348.09 94.2369 343.46 97.2752 338.977C97.5818 338.525 97.8982 338.079 98.2098 337.629C99.514 335.998 100.708 334.302 101.873 332.597C101.99 332.444 102.114 332.283 102.166 332.218C102.653 331.601 103.147 330.989 103.647 330.383C105.261 328.43 106.989 326.574 108.595 324.615C108.998 324.123 109.298 323.547 109.494 322.945C111.63 320.775 114.438 317.599 116.947 316.293C118.639 315.411 120.263 314.562 121.685 313.197C123.307 311.639 125.339 310.646 128.013 311.596ZM123.363 302.436C118.659 305.381 114.369 308.189 109.95 310.775C108.111 311.851 106.012 312.495 103.997 313.244C103.344 313.487 95.5019 311.012 94.7048 310.439C92.268 308.687 89.8435 306.917 87.2075 305.005C86.5959 302.923 87.6362 300.374 86.1199 298.185C85.7849 297.702 86.521 296.476 86.8596 295.244C84.094 285.884 82.3869 275.857 80.8088 265.705C82.4834 265.083 83.9265 264.548 86.0813 263.748C86.7786 263.024 88.0432 261.711 89.427 260.273C91.3657 261.641 93.209 263.035 95.1433 264.288C99.4834 267.101 104.295 267.82 109.452 267.174C110.328 266.521 111.325 265.778 112.819 264.664C112.819 266.2 113.168 267.316 112.764 267.967C109.207 273.708 110.069 280.073 110.067 286.295C110.067 288.197 113.344 292.949 115.147 294.279C116.8 295.497 118.634 296.524 120.085 297.945C121.392 299.225 122.288 300.924 123.363 302.436ZM131.401 225.575C129.994 229.065 128.259 232.284 126.393 235.498C125.715 236.667 125.452 238.078 124.251 239.326C123.839 237.235 123.675 235.052 122.946 233.077C122.202 231.059 120.903 229.245 119.9 227.438H115.097V234.898C117.365 236.713 115.164 239.486 116.713 241.762C118.083 243.774 116.273 246.462 115.277 248.352C112.673 253.294 108.529 255.287 102.857 255.307C102.19 255.309 101.524 255.307 100.802 255.307C97.2895 252.988 94.8056 250.23 93.0405 246.417V240.024C95.6672 236.103 98.2146 232.3 100.972 228.183V225.747C99.9443 225.251 98.9729 224.783 97.7402 224.189C91.9253 228.148 86.9321 232.938 83.9658 240.733V252.163C81.1477 252.559 78.4802 253.209 75.8159 253.196C74.4133 253.189 72.9844 252.085 71.6257 251.366C70.3733 250.703 69.1989 249.892 68.0446 249.18C68.0446 248.258 68.1474 247.587 68.0285 246.957C66.8371 240.643 68.4894 237.105 74.2809 233.308C77.7672 231.021 80.9132 228.43 83.2145 224.778C84.7221 222.386 85.6859 219.754 86.8883 217.28C89.5548 211.794 89.2313 211.637 93.6561 207.213C95.6085 208.068 97.6861 208.978 100.757 210.322H103.418C108.43 209.085 110.831 205.934 113.464 203.401C116.031 202.823 116.494 204.64 117.449 206.162C118.313 207.537 119.738 208.558 120.963 209.783C120.669 210.123 120.372 210.467 120.007 210.89C120.598 211.405 121.213 211.941 121.911 212.55C121.973 213.672 122.034 214.792 122.095 215.913C122.916 216.331 123.733 216.753 124.462 217.129C127.41 216.247 128.592 213.596 129.992 211.198C131.705 208.263 132.788 205.038 134.093 201.91C136.181 196.901 137.44 191.627 139.408 186.623C140.812 183.053 141.954 179.567 142.082 175.782C142.698 175.166 143.286 174.577 143.829 174.035C144.314 171.325 144.788 168.67 145.352 165.511C145.553 165.349 146.197 164.829 146.329 164.723C147.492 159.857 148.484 155.598 149.534 151.353C150.317 148.187 151.205 145.047 151.994 141.883C153.347 136.457 154.625 131.012 156.251 125.659C156.383 125.227 156.995 124.84 156.957 124.475C156.697 121.945 157.86 119.957 158.853 117.741C159.708 115.833 160.071 113.626 160.965 111.626C162.094 109.1 163.001 106.475 163.951 104.028C165.227 103.168 166.403 102.376 167.763 101.46C168.119 102.128 168.859 102.921 168.929 103.769C169.088 105.665 168.646 107.475 168.134 109.383C166.725 114.633 164.923 119.781 163.889 125.153C163.434 127.517 162.116 129.713 161.578 132.185C161.015 134.774 160.876 137.49 159.873 139.953C158.856 142.452 157.988 144.926 157.953 147.668C157.944 148.378 157.322 149.061 157.097 149.792C156.369 152.158 155.327 154.51 155.12 156.928C154.966 158.725 154.426 160.322 154.004 162C153.321 164.717 152.599 167.427 152.018 170.167C151.304 173.525 150.145 176.751 149.532 180.164C148.939 183.469 147.949 186.916 146.628 189.913C144.88 193.876 143.621 198.001 141.883 201.941C138.404 209.827 134.621 217.587 131.401 225.575ZM164.684 221.49C163.141 219.529 161.764 217.437 160.103 215.111C159.102 215.952 158.028 216.853 156.963 217.747C159.131 219.948 157.217 222.635 158.199 224.85C159.463 227.483 160.727 230.116 162.227 233.239C161.272 233.055 160.371 233.159 160.019 232.769C157.127 229.557 153.166 227.227 151.793 222.718C151.583 222.028 150.387 221.637 149.001 220.646C149.378 224.518 148.722 227.52 149.742 230.833C150.613 233.665 152.217 236.283 153.215 240.232C150.722 238.368 149.117 237.168 146.924 235.529C146.312 233.944 145.521 231.609 144.506 229.375C143.856 227.945 143.857 226.719 144.495 225.294C145.567 222.903 147.552 220.803 147.037 217.847C147.004 217.656 147.505 217.407 147.687 217.137C149.52 214.419 150.496 211.331 151.593 208.279C153.309 203.508 155.225 198.808 156.987 194.053C158.711 189.403 160.414 184.746 161.121 179.788C161.242 178.934 162.009 178.173 162.246 177.767C163.253 177.202 163.912 176.832 164.559 176.47C165.347 177.238 166.179 178.049 166.998 178.849V181.867C168.831 183.545 169.067 185.701 169.032 188.029C169.011 189.402 169.388 190.782 169.601 192.261C169.412 193.787 169.035 195.481 169.027 197.178C169.012 200.392 168.638 203.417 167.505 206.531C166.592 209.036 167.009 212.025 166.91 213.61C168.438 219.106 172.034 221.727 175.133 224.994C170.695 226.139 167.312 224.828 164.684 221.49Z" fill="black"/>
<path d="M103.641 179.323H94.9615C93.1932 178.489 91.846 177.853 90.1717 177.063C89.3944 184.457 93.7286 188.139 98.8428 191.356C103.921 191.811 105.885 187.4 109.003 184.924C109.44 182.503 109.858 180.185 110.239 178.074C109.504 177.34 109.036 176.872 108.576 176.412C107.003 177.681 104.454 177.228 103.641 179.323Z" fill="black"/>
<path d="M107.149 171.047C108.966 172.01 110.387 171.176 110.934 169.819C111.68 167.966 111.81 165.865 112.21 163.841C111.278 163.193 110.515 162.663 109.586 162.019C108.656 163.442 107.889 164.615 107.149 165.746V171.047Z" fill="black"/>
<path d="M90.9189 163.54H88.3679C87.9641 164.873 87.623 165.999 87.3052 167.049C88.4944 168.77 88.9217 171.316 92.3157 171.279C91.8286 168.58 91.3888 166.143 90.9189 163.54Z" fill="black"/>
<path d="M93.3161 282.419C93.0248 282.724 92.5768 283.193 92.3154 283.467C92.622 285.19 92.9782 286.7 93.1477 288.232C93.6728 292.981 95.8105 297.035 98.4897 300.86C98.6198 301.046 99.0737 301.005 99.7275 301.144C100.235 299.614 100.667 298.31 101.096 297.018C99.6841 293.179 98.2629 289.313 97.1621 286.319C95.5132 284.647 94.412 283.53 93.3161 282.419Z" fill="black"/>
<path fill-rule="evenodd" clip-rule="evenodd" d="M100.654 127.846C101.229 127.271 101.969 126.888 102.766 126.727C131.996 120.81 154 94.9746 154 64C154 28.6538 125.346 0 90 0C54.6538 0 26 28.6538 26 64C26 94.5526 47.4088 120.105 76.0433 126.474C76.8108 126.644 77.5213 127.021 78.0774 127.577L86.6716 136.172C88.2337 137.734 90.7663 137.734 92.3284 136.172L100.654 127.846Z" fill="white"/>
<path d="M76.4999 126.5C80.961 126.996 83.5196 138.111 89.6901 138.765C96.2133 139.457 94.5 125.778 116.5 121.5C143.343 116.281 156.355 96.9237 157.5 66C158.746 32.3602 139.6 5 100 5C65.6626 5 38.2028 20.685 30.9998 55.5C24.9999 84.5 42.1269 114.657 61.4999 119.5" stroke="black" stroke-width="10" stroke-linecap="round"/>
<path d="M66.6225 36.4494C73.6783 36.733 80.6645 36.0675 87.7191 36.0353C92.1728 36.0149 96.6208 35.8282 101.074 35.8282C101.897 35.8282 103.064 35.5665 103.685 36.2423C104.346 36.961 104.582 38.198 104.974 39.0721C105.836 40.9969 106.576 42.9581 106.883 45.0537C107.452 48.9307 107.205 52.9263 107.205 56.8328C107.205 60.1023 107.172 63.3453 107.044 66.6104C106.873 70.9774 106.795 75.2178 106.343 79.5629C106.18 81.1234 105.972 83.1964 104.376 83.9455C102.507 84.8228 100.314 85.1707 98.2789 85.2684C92.4902 85.5463 86.7184 85.454 80.9553 86.1426C77.3153 86.5776 73.6961 87.1915 70.0619 87.6725C68.7373 87.8479 68.1778 87.979 67.8878 86.4877C67.3538 83.7415 67.6848 80.8278 67.4507 78.0445C67.1855 74.8922 66.6225 71.8915 66.6225 68.704C66.6225 64.6615 65.8956 60.6465 66.0128 56.6028C66.1101 53.2457 66.5342 49.8553 66.7835 46.5031C67.0715 42.6305 67.4507 38.8959 67.4507 35" stroke="black" stroke-width="10" stroke-linecap="round"/>
<path d="M80.0811 51.6212C84.6397 50.99 89.1507 51 93.7467 51" stroke="black" stroke-width="10" stroke-linecap="round"/>
<path d="M106.068 47.1931C108.991 46.8883 111.934 46.4602 114.878 46.4602C115.845 46.4602 116.96 46.1249 117.905 46.2701C119.643 46.5376 119.868 49.1981 120.212 50.573C120.862 53.173 121.199 55.7523 121.217 58.4321C121.258 64.7209 121.691 70.988 121.217 77.2722C120.798 82.8236 120.767 88.5084 120.728 94.0762C120.72 95.2485 120.972 96.7043 120.714 97.8633C120.649 98.1579 119.708 98.0103 119.533 98.0126C112.81 98.101 106.092 98.2569 99.3631 98.2569C94.6001 98.2569 89.8938 98.8621 85.1651 98.9899C83.7383 99.0284 82.9621 99.6666 82.8576 97.8904C82.7498 96.0577 82.6133 94.2295 82.6133 92.3931" stroke="black" stroke-width="10" stroke-linecap="round"/>
<path d="M79.2529 65C81.9634 65.3942 84.7576 65.2071 87.4891 65.2071C88.7816 65.2071 90.7178 64.8314 91.8833 65.4141" stroke="black" stroke-width="10" stroke-linecap="round"/>
</svg>
