<svg width="207" height="465" viewBox="0 0 207 465" fill="none" xmlns="http://www.w3.org/2000/svg">
<circle cx="96" cy="169" r="40" fill="white"/>
<path d="M185.372 398.536C173.453 378.965 160.001 360.714 143.893 344.377V343.392C142.646 342.151 141.61 341.121 140.575 340.092C140.823 339.907 141.071 339.722 141.32 339.536C140.668 337.479 140.017 335.422 139.366 333.364C139.209 333.41 139.052 333.455 138.896 333.501C138.896 331.842 138.718 330.157 138.948 328.531C139.161 327.021 139.809 325.573 140.331 323.885C140.35 323.889 142.729 314.974 142.674 314.974C144.179 307.195 146.361 299.896 148.226 292.097C149.024 291.566 150.105 290.474 151.405 290.045C156.862 288.247 160.399 284.378 163.656 279.878C165.398 277.471 165.157 274.466 166.881 272.196C167.742 264.545 166.071 257.497 160.918 251.743C159.009 249.61 156.531 247.759 153.816 246.356C151.073 244.939 148.931 242.652 145.649 241.881C142.725 241.193 139.954 239.505 137.373 237.855C136.163 237.082 135.559 235.36 134.69 234.081C137.328 229.951 139.931 226.058 142.343 222.049C145.082 217.498 148.565 213.464 151.04 208.691C152.224 206.409 153.963 204.22 155.529 202.076C158.039 198.638 159.731 194.795 161.905 191.206C166.16 184.181 168.936 176.36 173.733 169.615C175.135 167.643 176.133 165.261 176.795 162.92C177.45 160.6 180.301 159.461 179.874 156.694C183.354 151.362 185.922 145.51 189.247 139.737C189.281 139.912 189.315 140.272 189.347 140.772C199.586 123.128 222.579 81.2792 186.883 80.1247C183.168 80.0046 180.221 82.0908 177.572 84.1052C173.742 87.018 171.542 91.3464 169.903 95.8484C169.111 98.0239 167.273 99.9024 167.88 102.506C164.54 107.639 164.342 114.017 161.242 119.244C161.651 121.718 159.195 122.948 158.709 125.225C158.117 127.996 155.894 130.379 154.977 133.13C154.035 135.955 151.606 138.046 151.348 141.128C147.682 146.358 145.231 152.278 141.982 157.751C141.386 158.755 141.072 159.712 139.895 159.826V162.568C139.032 163.434 137.906 164.563 136.991 165.482C136.865 166.579 136.778 167.342 136.676 168.239C134.687 167.847 133.794 166.943 133.897 165.182C134.843 162.244 138.112 162.032 139.895 159.826C139.994 158.026 142.082 155.989 139.916 153.905C139.75 153.745 139.92 153.26 139.891 152.929C139.619 149.847 138.472 145.786 136.867 143.7C133.59 139.439 130.968 134.707 126.122 131.673C120.031 127.86 112.352 125.028 105.839 125.094C99.3118 125.161 92.7505 124.614 86.0176 126.564C85.6109 126.888 84.8653 127.988 84.0916 128.008C81.1343 128.085 79.4161 130.002 77.6805 131.883C76.1612 133.529 74.8294 135.349 73.4141 137.092C71.0069 137.1 68.6543 137.06 66.3116 138.042C62.0172 139.842 57.9981 142.048 55.0479 145.667C54.441 146.412 54.5306 147.4 53.1338 146.848C52.4317 145.149 52.8718 143.266 52.1043 141.355C49.7701 135.546 49.2269 129.211 47.9502 123.088C47.2451 119.708 46.8621 116.237 45.8599 112.951C45.1333 110.567 44.418 108.198 43.9512 105.757C42.8089 99.7844 40.5926 94.1316 37.8235 88.8198C35.7764 84.8928 33.0469 81.2663 29.6216 78.1711C25.3986 74.3549 20.4713 73.3161 15.3581 74.4113C11.0561 75.3327 7.08034 77.6122 4.26094 81.3305C2.24674 83.9877 -0.180756 91.184 0.0106441 94.5407C0.0890441 95.9162 1.00604 97.2953 0.897644 98.6205C0.585644 102.442 2.59734 105.608 3.44694 109.091C4.99334 115.429 8.60444 120.938 10.6149 127.118C11.944 131.202 13.8722 135.125 14.9015 139.315C15.5328 141.884 16.3331 144.467 17.1525 146.901C18.5871 151.165 19.3776 155.585 20.8522 159.837C22.6293 164.961 23.3229 170.457 25.0612 175.598C26.2109 178.996 26.8913 182.492 27.8454 185.914C29.1774 190.693 30.6179 195.44 32.0622 200.069C29.3381 203.733 27.5317 207.656 25.9284 211.714C23.9865 216.63 23.8525 221.714 23.9091 226.887C23.9411 229.809 24.8171 232.472 25.6188 235.191C27.6928 242.225 32.0441 248.174 34.9501 255.191C34.9501 255.811 34.8468 256.823 34.9672 257.807C35.6364 263.274 33.3688 267.419 29.4704 271.05C26.0519 274.234 22.0344 274.914 17.5993 275.075C13.8867 275.209 11.5522 273.296 9.31374 270.862C8.66264 270.153 7.95634 269.496 7.43634 268.976C3.53814 268.73 4.03274 272.659 1.84554 273.575C3.79674 279.247 5.47664 284.646 10.408 288.834C10.3313 288.844 10.2608 288.842 10.1856 288.85C10.5882 289.317 10.9268 289.88 11.1661 290.559C10.6204 289.012 12.0557 290.886 12.7669 291.477C13.5521 292.129 14.2757 292.852 15.0677 293.498C16.8697 294.968 19.3621 295.807 20.9842 297.429C23.8023 300.246 23.4986 305.554 23.2076 309.709C26.9464 313.355 30.4491 316.968 34.9146 319.648C38.3182 321.691 41.6275 323.023 45.5037 323.048C47.0972 324.66 49.0555 325.034 51.2259 324.988C54.7225 324.912 58.2379 325.173 61.7149 324.903C64.5154 324.685 67.4666 324.34 69.9954 323.237C72.9424 321.951 76.1734 321.205 78.7952 319.057C79.7068 318.31 81.2688 316.84 82.8816 318.536C52.7317 340.922 58.1472 372.565 74.9617 389.551V390.97C78.4632 395.151 81.6953 399.007 84.9136 402.875C84.9954 402.973 84.9241 403.2 84.9241 403.718C84.0414 403.782 83.1043 403.794 82.1839 403.926C79.5181 404.307 76.595 404.178 74.2598 405.28C70.8593 406.885 67.4573 406.915 63.9351 406.914C63.5816 408.862 62.0682 407.821 61.139 407.861C57.9813 407.998 54.7955 408.126 51.6554 407.854C48.4647 407.576 45.9674 409.616 42.9911 409.948C42.1041 410.047 41.2772 410.826 40.402 410.869C36.2501 411.075 32.5185 412.498 28.9318 414.447C28.5805 418.554 33.7729 419.774 33.935 423.773C32.1484 423.448 30.4702 422.604 29.1828 423.007C24.6371 424.43 19.9692 425.476 15.8688 428.299C13.5373 429.903 11.5846 431.78 9.68424 433.743C7.07264 436.441 5.41424 439.622 6.06364 443.488C6.75384 444.178 7.74164 444.698 7.85684 445.368C8.21574 447.456 9.95064 447.229 11.193 448.039C14.7553 450.361 18.8627 449.518 22.5868 450.737C24.993 451.525 27.8749 450.755 30.5287 450.921C33.2313 451.091 35.9086 451.645 38.6105 451.865C44.2912 452.328 50.0829 450.937 55.6784 452.884C63.2397 452.32 70.7209 453.561 78.2416 453.906C82.7716 454.114 87.2914 454.546 91.8148 454.892C92.1146 454.915 92.4076 455.059 92.6986 455.163C95.7008 456.226 98.7228 457.164 101.979 456.901C102.245 456.88 102.534 457.145 102.887 457.312C102.85 457.736 102.81 458.188 102.727 459.132C101.436 458.727 100.022 457.775 99.3099 458.151C96.4364 459.667 93.4864 458.56 90.6058 458.856C86.9193 459.236 83.1214 458.168 79.5023 459.812C79.003 460.039 78.0919 459.359 77.204 459.039C77.1674 459.08 76.9545 459.537 76.7362 459.539C72.9557 459.583 69.1744 459.571 65.3934 459.571C65.4339 459.774 65.4745 459.977 65.515 460.18C63.6407 461.196 61.7665 462.213 59.7369 463.314C60.9754 463.939 61.9388 464.424 62.8582 464.888C63.7784 464.536 64.6258 463.978 65.5054 463.921C67.6612 463.783 69.8318 463.877 71.9964 463.877C74.161 463.877 76.3399 464.031 78.4864 463.834C80.7154 463.629 83.0947 464.704 85.1734 463.127C87.1126 464.937 89.1102 462.389 90.6732 463.029C92.3397 463.712 93.5087 462.777 94.9044 462.853C96.7307 462.952 98.5702 462.953 100.397 462.859C102.944 462.728 105.541 463.392 108.035 461.981C108.674 461.62 110.035 462.533 110.811 462.78C111.886 462.437 112.772 461.899 113.641 461.924C116.849 462.017 120.016 461.678 123.268 462.724C125.682 463.501 128.555 462.747 131.209 462.914C133.746 463.074 136.256 463.632 138.792 463.847C140.611 464 142.465 464.006 144.281 463.839C145.991 463.681 147.686 462.881 149.362 462.957C151.684 463.061 153.797 462.442 155.939 461.857C158.666 461.113 163.911 458.518 164.832 457.157C165.879 455.61 167.172 454.895 168.946 454.886C172.109 454.872 175.313 455.197 178.427 454.806C182.745 454.264 187.359 453.917 190.156 449.286C190.146 449.361 190.137 449.436 190.127 449.51C192.784 445.475 195.807 442.234 196.689 437.135C197.573 432.023 197.523 426.754 196.17 421.735C193.92 413.388 188.904 406.274 185.372 398.536ZM139.919 184.16C142.082 180.685 144.107 177.696 145.851 174.552C147.572 171.45 149.688 168.62 151.027 165.224C152.376 161.804 154.972 158.897 156.775 155.629C158.481 152.535 159.867 149.265 161.395 146.073C162.921 142.881 164.166 139.508 166.054 136.546C167.988 133.512 169.149 130.142 170.737 126.981C172.369 123.732 173.595 120.131 175.114 116.845C176.636 113.554 176.878 109.981 178.559 106.775C180.189 103.665 181.011 100.132 182.489 95.9276C183.756 94.9835 185.782 93.4733 187.997 91.8216C189.581 92.5755 191.108 93.3028 192.552 93.9901C192.89 95.5109 193.669 96.9227 193.343 97.9999C192.722 100.049 192.502 102.189 191.426 104.189C189.615 107.557 188.19 111.164 186.942 114.788C186.328 116.572 183.966 117.516 184.644 119.828C179.712 126.645 177.022 134.654 172.908 141.911C170.323 146.47 167.828 151.103 165.667 155.872C163.247 161.211 160.504 166.414 157.702 171.507C153.441 179.25 149.319 187.133 144.117 194.34C143.479 195.224 142.753 196.109 142.382 197.11C141.35 199.893 139.606 202.112 136.945 204.385C137.104 197.072 140.441 190.554 139.919 184.16ZM78.1181 141.462C80.2969 139.952 82.3752 137.846 84.8051 137.269C87.6745 136.587 90.4914 135.463 93.4047 135.172C96.8564 134.828 100.468 134.563 103.835 135.199C111.337 136.616 119.006 138.067 124.462 144.204C126.391 146.374 128.045 148.816 129.112 151.912H123.547C122.243 151.284 120.978 150.143 119.747 150.179C115.334 150.305 111.776 147.399 107.54 147.083C103.414 144.041 98.1367 144.209 93.6659 142.103C90.3019 140.518 86.6679 141.181 83.1315 141.09C82.3019 141.069 81.4713 141.087 80.5954 141.087C79.8464 141.717 79.0705 142.369 77.9562 143.306C78.0272 142.317 77.8875 141.622 78.1181 141.462ZM89.9108 204.987C86.0258 200.563 82.5072 195.829 79.4062 190.864C77.6918 188.119 77.1381 185.032 79.6066 181.688C83.0968 176.96 86.3197 171.892 88.7267 166.55C90.8639 161.807 93.4596 156.972 92.7658 150.266C96.6782 152.149 99.5926 154.259 102.8 154.899C106.089 155.556 108.487 157.911 111.969 158.294C115.17 158.645 118.169 160.824 121.466 162.291C123.242 164.725 124.152 167.812 125.36 170.809C126.215 172.93 124.849 175.458 126.902 177.149C127.325 181.488 127.748 185.827 128.031 188.733C126.694 192.875 125.742 195.635 124.917 198.431C123.758 202.357 121.87 206.088 119.206 208.952C116.882 211.451 113.615 213.396 109.943 214.068C109.364 214.174 108.854 214.653 108.15 215.052C105.669 213.887 102.499 214.058 100.125 212.041C97.6866 212.454 96.5955 210.159 94.7933 209.281C92.9813 208.399 91.5269 206.779 89.932 205.463C89.8505 205.396 89.9933 205.08 89.9108 204.987ZM82.1266 215.383C81.3012 217.14 80.3483 219.169 78.8649 222.327C75.8263 214.936 72.4447 209.049 71.7555 201.805C75.9122 202.635 75.4391 206.481 77.5302 208.362C79.4291 210.07 80.4622 212.741 82.1266 215.383ZM58.0148 165.166C58.6381 160.492 58.7428 155.596 63.133 152.295C65.1025 150.814 66.6642 148.79 67.9714 147.46C69.8833 146.887 71.2075 146.423 72.5656 146.103C73.7812 145.817 74.9616 145.98 76.2865 145.435C78.9215 144.351 81.6246 145.139 83.8566 147.531C84.1576 152.02 83.5668 156.439 81.0336 160.546C80.2475 161.821 80.1926 163.524 79.5453 164.911C77.7929 168.666 75.4215 172.037 72.4994 174.967C68.1439 179.335 66.5094 184.622 66.9711 190.641C67.026 191.357 67.8058 192.012 67.8771 192.732C67.955 193.518 67.599 194.346 67.4323 195.156C67.0678 195.136 66.7033 195.117 66.3385 195.097C64.733 190.447 62.9493 185.848 61.5768 181.13C60.4445 177.239 59.0558 173.381 58.8935 169.237C58.8398 167.866 57.8427 166.459 58.0148 165.166ZM74.1745 305.75C71.6425 306.368 70.1811 311.134 65.4675 309.515C69.3142 304.42 73.7524 299.864 72.7863 293.03C68.0065 297.556 63.841 302.464 58.4216 305.875C55.5593 307.676 52.4406 309.296 48.7385 309.014C45.8606 308.795 42.9265 309.273 40.1657 307.987C37.3324 306.668 34.3776 305.527 33.0534 302.161C37.9894 303.154 43.299 303.117 47.1249 301.583C51.7846 299.714 56.09 297.766 59.4589 293.982C62.6464 290.403 63.9801 285.898 65.5856 281.607C64.0868 277.621 65.5115 273.324 64.6471 268.65C63.9015 269.696 63.0614 270.339 62.9918 271.056C62.4325 276.819 59.4161 281.328 55.846 285.583C55.2215 286.327 54.5503 287.034 53.9561 287.801C53.8409 287.95 53.814 288.152 53.8191 288.223C51.5064 289.497 49.4885 290.608 46.5545 292.224C45.919 292.445 43.9244 291.175 42.4659 292.898C42.2511 293.151 41.3621 293.181 41.0587 292.952C39.7582 291.97 38.3993 292.562 37.0411 292.488C35.5504 292.405 34.107 291.605 32.6258 291.175C31.1361 290.743 29.5098 290.609 28.1595 289.921C27.022 289.341 26.1939 288.154 25.2225 287.229C25.1065 287.337 24.7476 287.672 24.3934 288.002C22.3298 286.79 20.7167 284.896 19.5543 282.322C21.0333 283.649 21.7633 284.304 22.4723 284.94C22.8644 284.597 23.2291 284.279 23.7941 283.785C24.414 284.177 25.0602 284.585 25.9499 285.148C26.3576 284.843 26.8007 284.374 27.3444 284.129C30.1559 282.858 33.069 282.03 35.6894 280.097C41.1147 276.095 45.57 268.99 45.9421 262.303C45.9607 261.971 45.8833 261.623 45.9548 261.307C46.2634 259.942 47.0664 258.508 46.8501 257.242C46.3838 254.515 45.5625 251.816 44.592 249.215C43.0883 245.185 41.2673 241.275 39.7126 237.262C38.0456 232.96 35.9682 228.704 35.1184 224.229C34.3608 220.24 34.428 215.899 36.7668 211.511C37.2861 212.37 37.6201 212.917 37.9482 213.466C41.6711 219.704 44.2107 226.517 47.3288 233.045C48.9982 236.541 51.0776 239.791 52.7126 243.287C54.2966 246.673 56.2937 249.812 58.3144 252.955C60.8293 256.867 63.0964 260.942 65.393 264.99C66.6096 267.135 68.5129 269.02 68.2297 271.799C70.1862 273.473 70.1228 276.009 71.0378 278.12C72.569 281.653 74.757 284.903 76.7026 288.253C77.4777 289.587 78.3436 290.868 79.0407 291.972C77.5075 296.732 77.6208 301.616 74.1745 305.75ZM79.2106 259.39C78.5119 260.076 78.8251 261.793 78.6491 263.23C78.0698 262.65 77.5302 262.358 77.3908 261.934C75.1115 255.012 70.1944 249.606 66.7609 243.351C65.1216 240.364 63.6706 237.248 61.7729 234.435C57.7636 228.49 54.9758 221.878 52.1455 215.422C48.8838 207.981 45.272 200.528 43.251 192.654C41.512 185.879 39.531 179.15 37.7388 172.396C36.4468 167.527 35.9204 162.305 33.2488 157.788C32.6465 156.77 32.5608 155.356 32.5181 154.115C32.3814 150.129 30.3445 146.63 29.8111 142.693C29.3221 139.085 27.8011 135.574 26.4471 132.134C23.7982 125.405 21.4293 118.576 18.4913 111.941C16.325 107.049 13.6847 102.217 12.9232 96.7527C12.8473 96.2061 12.234 95.7344 12.078 95.5173C12.5055 93.6884 12.8612 92.1665 13.243 90.5324C14.2249 89.4828 15.3575 88.2724 16.2176 87.3534C17.4842 87.0455 18.3831 86.8268 19.7276 86.4999C20.5894 86.9401 21.9063 87.6127 23.6104 88.4831C24.5638 90.0602 25.7676 92.0329 26.9524 94.0168C29.0476 97.5246 29.7839 101.526 30.9024 105.365C32.1216 109.551 32.7964 113.894 33.9969 118.086C35.0704 121.835 36.0272 125.665 36.597 129.448C37.2342 133.677 39.0853 137.653 39.0003 142.013C38.9805 143.034 39.69 144.05 39.9334 145.099C40.6399 148.145 41.4085 151.185 41.9178 154.266C42.7635 159.381 45.0418 164.21 44.9451 169.508C46.6458 170.154 45.604 171.857 46.2771 172.961C47.7092 175.309 48.2219 177.947 48.051 179.412C54.5906 199.81 61.9678 218.5 74.5146 234.84C75.4335 235.107 76.6167 235.452 78.028 235.863C83.1977 233.005 88.2188 229.474 91.1759 224.033H93.8448C96.3292 225.429 98.6265 226.72 101.099 228.109C101.518 227.789 102.009 227.413 102.45 227.075C103.693 227.401 104.882 227.765 106.094 228.015C107.149 228.233 108.229 228.324 109.831 228.544C112.099 227.443 114.968 226.05 117.966 224.594C118.77 225.397 119.901 226.095 119.805 226.5C119.087 229.501 122.09 231.405 121.904 234.183C124.831 237.953 126.111 242.7 130.679 245.581C135.698 248.747 140.958 251.571 145.774 255.048C149.085 257.438 153.054 259.2 154.817 263.975V271.174C152.92 273.071 151.05 274.94 149.054 276.936C146.642 276.456 144.987 279.411 142.192 279.066C139.585 278.744 136.906 278.997 134.096 278.997C133.583 275.085 133.086 271.287 132.551 267.209C131.934 266.01 131.09 264.526 130.388 262.977C128.633 259.107 126.188 255.994 122.378 253.797C120.948 252.972 120.31 250.774 119.281 249.155H117.167C117.012 249.745 116.894 250.196 116.675 251.034C113.946 250.842 111.073 251.646 108.057 249.663C107.981 250.815 107.93 251.591 107.869 252.526C110.581 254.725 112.705 257.582 115.788 259.614C118.121 261.151 120.149 263.671 121.376 266.206C122.414 268.35 123.213 270.946 122.898 273.557C122.592 276.091 121.794 278.313 120.113 280.425C117.694 283.463 114.871 285.418 111.106 286.366C108.056 287.133 105.386 286.749 100.274 286.185C97.1475 285.841 94.8336 284.414 92.6104 282.894C89.0813 280.481 86.9342 276.981 86.8907 272.402C86.8448 267.56 87.1684 262.833 88.8597 258.218C89.4286 256.665 89.2752 254.848 89.5601 252.118C89.0115 251.308 87.8667 249.617 86.7605 247.983C85.8591 248.492 85.2063 248.861 84.0842 249.496C82.0608 252.136 82.1739 256.48 79.2106 259.39ZM130.024 315.775C128.734 317.298 128.502 319.753 127.935 321.831C127.725 322.604 127.914 323.483 127.899 324.314C127.86 326.383 127.931 328.39 126.963 330.41C125.477 333.511 125.237 336.779 126.854 340.044C127.183 340.706 126.902 341.671 126.902 342.629C124.378 343.691 121.842 344.76 119.306 345.827C118.997 345.557 118.633 345.239 118.54 345.158C116.735 345.453 115.203 345.716 113.667 345.951C111.452 346.288 109.309 345.478 106.994 345.767C105.057 346.01 102.91 344.084 100.867 344.106C98.8141 344.127 98.318 342.296 96.7481 341.824C95.7325 341.518 93.6883 341.506 93.8643 339.403C90.2167 338.441 88.4495 334.647 84.9317 333.486V331.454C89.6102 329.13 94.2531 326.716 96.9175 320.343C96.9175 318.719 97.2534 315.705 96.8194 312.806C96.4151 310.104 94.8619 307.578 94.4219 304.876C93.982 302.175 91.2515 300.132 92.1573 296.713C94.2115 297.676 96.0054 298.498 97.7816 299.355C99.5128 300.192 101.243 300.925 103.175 299.984C105.059 302.342 106.941 299.863 108.829 299.973C110.753 300.084 112.6 299.898 114.417 299.027C116.208 298.167 118.274 297.856 120.019 296.929C121.815 295.976 123.454 294.668 125.006 293.335C126.619 291.948 128.046 290.345 129.846 288.545C130.847 289.153 131.719 289.784 132.675 290.234C133.644 290.69 134.697 290.967 136.105 291.459C135.711 293.202 135.238 294.991 134.911 296.807C134.137 301.1 132.884 305.274 131.869 309.508C129.656 311.064 131.712 313.783 130.024 315.775ZM81.3522 373.038C80.9972 373.516 80.8664 374.161 80.4889 375.074C78.0304 371.723 75.6765 368.443 75.0248 364.52C74.3493 360.453 72.9846 356.322 74.2738 352.124C75.4437 348.315 76.1059 344.303 78.5055 340.957C81.817 341.278 84.1378 343.585 86.66 345.308C90.2164 347.737 93.4395 350.653 96.8184 353.344C98.5179 354.697 100.246 356.015 102.554 357.809C97.9683 357.8 95.148 359.877 92.1311 362.048C87.8479 365.131 84.4357 368.881 81.3522 373.038ZM75.8908 414.867C76.4992 415.206 77.1665 415.578 77.9289 416.003C79.8293 414.24 82.1877 414.909 84.3869 414.947C87.7673 415.005 91.0181 414.715 93.8998 412.916C95.9159 414.154 97.8827 415.361 99.8996 416.6V417.568C92.4142 418.526 85.2272 421.434 77.3874 420.864C75.9807 419.407 74.4947 417.869 73.0314 416.353C73.8894 415.907 74.8419 415.412 75.8908 414.867ZM50.1254 416.05C52.7333 415.72 55.4911 416.577 58.3695 416.935C59.3492 418.058 60.4303 419.297 61.9513 421.041C58.0651 420.56 54.4408 420.111 50.3536 419.605C47.8563 418.502 44.9005 417.197 41.3614 415.633C44.846 413.822 47.3261 416.404 50.1254 416.05ZM156.574 442.76C155.754 443.853 155.268 445.196 154.535 446.615C153.521 447.09 152.271 447.691 151.009 448.264C146.694 450.223 143.768 449.902 138.523 449.196C134.426 448.644 130.559 447.257 126.471 446.699C124.268 446.398 121.884 446.018 119.624 445.294C117.67 444.668 115.232 444.876 113.251 444.443C111.299 444.016 109.112 444.689 107.611 443.762C105.838 442.668 104.173 442.959 102.45 442.918C98.8939 442.835 95.5267 441.46 91.8656 441.81C88.0699 442.173 84.2128 441.891 80.3827 441.891H69.3917C65.7279 441.891 62.0597 441.999 58.4024 441.846C56.5313 441.768 54.6734 441.256 52.8211 440.883C51.1089 440.537 49.169 441.705 47.6517 440.101C45.4132 441.436 43.3053 439.695 41.0658 439.775C37.8912 439.889 34.7821 438.594 31.4884 438.843C28.3829 439.078 25.2457 438.893 21.8863 438.893C22.3131 434.33 26.358 437.238 27.4019 434.844C27.8394 435.281 28.0391 435.584 28.3208 435.732C28.5857 435.872 28.9368 435.848 29.5261 435.938C30.0207 435.281 30.6157 434.491 31.0573 433.905C37.7016 434.069 43.7245 433.072 49.8158 429.968H56.3204C61.4222 434.527 67.3299 434.722 73.5877 432.73C74.3194 432.498 75.0115 431.972 75.742 431.93C82.4285 431.542 89.1214 431.261 95.8082 430.874C97.1913 430.794 98.5565 430.405 100.239 430.102C101.947 431.54 104.003 431.106 106.094 429.832C106.615 430.19 107.129 430.544 107.835 431.031C108.411 430.686 109.069 430.293 109.713 429.907C110.752 430.24 111.773 430.823 112.811 430.856C118.867 431.048 124.4 433.454 130.092 435.06C131.683 435.508 133.686 436.446 134.939 437.641C136.417 439.05 137.874 438.763 139.367 438.912C140.76 437.662 141.534 436.552 140.274 434.683C139.078 432.909 137.968 431.183 136.049 429.533C135.293 428.884 134.634 428.123 133.92 427.425C128.838 422.46 123.497 417.809 117.537 413.909C116.626 411.563 114.005 411.008 112.571 409.151C111.363 407.588 109.893 405.324 108.333 405.142C105.83 404.85 106.58 401.92 104.279 401.599C102.915 401.409 102.464 399.092 100.844 398.184C99.1659 397.244 97.9589 395.464 96.5458 394.051C95.2504 392.756 93.955 391.461 92.6598 390.165C91.3644 388.87 89.9817 387.649 88.8046 386.254C88.0161 385.32 87.5197 384.139 86.9162 383.108C87.3554 381.894 87.7761 380.732 88.2028 379.552C92.3188 372.968 97.9145 367.914 105.317 364.989H112.576C112.701 365.429 112.7 366.127 113.044 366.529C115.588 369.492 118.2 372.397 120.791 375.321C123.381 378.244 126.145 381.035 128.511 384.129C130.721 387.019 133.289 389.621 135.232 392.727C137.145 395.784 139.204 398.749 141.221 401.74C144.532 406.649 147.639 411.665 150.476 416.88C152.931 421.392 154.837 426.069 156.394 430.922C156.961 432.692 157.621 434.48 157.826 436.306C158.075 438.518 158.066 440.77 156.574 442.76ZM180.375 441.032C178.088 441.844 174.601 441.562 171.2 440.654C170.057 434.491 168.634 428.51 166.369 422.623C164.933 418.891 162.11 415.686 161.883 411.489C158.974 408.157 157.039 404.183 154.954 400.363C152.545 395.95 149.13 392.241 146.818 387.768C145.664 385.538 143.81 383.645 142.144 381.711C139.379 378.501 136.487 375.4 133.692 372.215C131.902 370.175 130.143 368.103 128.479 365.961C128.033 365.386 127.984 364.501 127.817 363.967C130.538 360.54 133.105 357.307 135.842 353.859C137.651 354.634 139.097 356.324 140.3 357.962C143.365 362.135 146.909 365.879 150.231 369.821C152.698 372.747 155.063 375.771 157.292 378.882C160.219 382.966 163.145 387.072 165.743 391.367C168.237 395.489 171.185 399.328 173.255 403.727C174.571 406.526 176.552 409.015 177.825 411.829C180.169 417.012 182.604 422.177 184.166 427.682C184.332 428.27 184.856 428.829 184.832 429.385C184.737 431.661 184.947 433.862 185.886 435.521C184.162 437.245 182.658 438.749 180.375 441.032Z" fill="black"/>
<path d="M63.8444 407.019C63.5722 406.786 63.3 406.554 63.0278 406.322C63.1328 406.217 63.2379 406.112 63.3429 406.007C63.5752 406.279 63.8074 406.551 64.0397 406.823C63.9746 406.888 63.9095 406.954 63.8444 407.019Z" fill="black"/>
<path d="M122.738 191.403C122.108 192.707 121.071 193.923 120.986 195.203C120.718 199.22 118.725 202.289 116.266 205.204C116.078 205.427 116.004 205.757 115.916 206.048C115.869 206.2 115.907 206.377 115.907 206.425C114.352 207.18 112.836 207.915 110.49 209.054C109.414 208.816 107.435 208.378 105.421 207.932C100.455 204.013 97.7515 198.588 96.2745 192.229C96.2689 192.235 96.5921 191.886 96.9336 191.519C100.49 192.526 104.148 192.139 107.729 191.938C109.434 191.842 111.074 190.515 112.734 189.727C114.672 188.806 116.845 188.163 118.459 186.842C119.911 185.655 121.224 186.452 122.738 185.853L122.738 191.403Z" fill="black"/>
<path d="M94.8628 170.766C96.1583 168.963 96.9145 167.91 97.7788 166.707C102.906 170.403 101.736 175.616 101.939 180.571C100.057 181.006 98.3638 183.64 96.1859 180.813C95.6986 177.112 95.2027 173.347 94.8628 170.766Z" fill="black"/>
<path d="M112.115 166.308C112.701 165.791 113.173 165.376 113.714 164.9C114.202 165.187 114.759 165.321 114.957 165.663C116.259 167.913 117.483 170.208 118.807 172.623V176.687C118.248 177.216 117.78 177.66 117.224 178.187C116.25 177.75 115.282 177.315 114.43 176.932C112.306 173.761 111.328 170.351 112.115 166.308Z" fill="black"/>
<path d="M118.681 335.638C117.635 336.151 116.811 336.555 115.659 337.119C115.09 336.583 114.427 335.958 113.977 335.534C114.318 333.007 114.231 330.671 115.014 328.678C115.813 326.646 116.717 324.802 117.086 322.537C117.405 320.571 119.264 318.855 120.472 316.982H123.51C123.63 317.357 123.94 317.812 123.876 318.208C123.24 322.189 122.358 326.113 120.904 329.889C120.188 331.749 119.467 333.606 118.681 335.638Z" fill="black"/>
<path fill-rule="evenodd" clip-rule="evenodd" d="M118.654 127.846C119.229 127.271 119.969 126.888 120.766 126.727C149.996 120.81 172 94.9746 172 64C172 28.6538 143.346 0 108 0C72.6538 0 44 28.6538 44 64C44 94.5526 65.4088 120.105 94.0433 126.474C94.8108 126.644 95.5213 127.021 96.0774 127.577L104.672 136.172C106.234 137.734 108.766 137.734 110.328 136.172L118.654 127.846Z" fill="white"/>
<path d="M94.4999 126.5C98.961 126.996 101.52 138.111 107.69 138.765C114.213 139.457 112.5 125.778 134.5 121.5C161.343 116.281 174.355 96.9237 175.5 66C176.746 32.3602 157.6 5 118 5C83.6626 5 56.2028 20.685 48.9998 55.5C42.9999 84.5 60.1269 114.657 79.4999 119.5" stroke="black" stroke-width="10" stroke-linecap="round"/>
<path d="M112.319 45.2978C104.767 52.0753 77.6454 76.4336 84.0055 84.9138C86.0401 87.6266 94.6656 96.4728 98.006 96.4152C107.011 96.26 131.973 78.1019 133.788 70.8423C134.773 66.9027 133.648 66.0571 130.267 63.2457C123.419 57.5508 118.886 48.9091 111.552 44.0198" stroke="black" stroke-width="10" stroke-linecap="round"/>
<path d="M116.663 43.7643C121.229 39.1985 127.844 40.5186 132.055 44.7299C138.045 50.7193 141.431 55.0575 137.11 63.7001" stroke="black" stroke-width="10" stroke-linecap="round"/>
<path d="M99 37.6453C100.903 35.5959 102.916 33.9617 105.404 32.6613C106.655 32.0072 108.267 31 109.735 31" stroke="black" stroke-width="10" stroke-linecap="round"/>
<path d="M132 92.69C136.225 90.7507 139.067 88.1225 142.223 84" stroke="black" stroke-width="10" stroke-linecap="round"/>
</svg>
