<svg width="227" height="519" viewBox="0 0 227 519" fill="none" xmlns="http://www.w3.org/2000/svg">
<path d="M58.3553 130.5C47.8553 115.5 37.3553 61 20.3553 59C4.85526 63.5 18.3553 82.5 20.3553 108.5C22.3553 134.5 46.3553 150 63.8553 169C77.8553 184.2 75.0219 171.333 71.8553 163C70.8553 157.167 66.7553 142.5 58.3553 130.5Z" fill="white"/>
<path d="M226.513 72.3142C225.796 70.5101 226.352 68.7848 225.591 67.3135C222.213 60.7526 216.721 57.4934 209.136 57.216C208.745 57.3284 207.873 57.6398 206.974 57.8256C204.667 58.303 202.134 58.2774 200.077 59.2605C195.626 61.3872 190.834 62.8459 186.793 65.82C184.127 67.7817 181.31 69.5413 178.691 71.5611C176.258 73.4372 173.669 75.2654 171.736 77.6002C168.233 81.8294 164.919 86.2085 161.081 90.1564C160.556 90.6971 160.337 91.523 159.877 92.1425C157.166 95.7901 154.816 99.6468 152.482 103.555C148.588 110.074 145.302 116.847 142.172 124.06C141.513 123.579 140.835 123.188 140.286 122.662C137.701 120.186 135.393 117.401 132.21 115.604C127.54 112.968 122.904 110.296 117.207 110.776C115.241 110.941 113.249 110.802 111.765 110.802C110.229 111.626 109.139 112.221 108.038 112.792C107.906 112.86 107.709 112.801 107.657 112.801C106.679 112.098 105.858 111.228 104.853 110.855C103.402 110.315 101.821 110.116 100.288 109.807C98.1424 109.376 96.2279 110.435 94.2003 110.761C85.3065 112.191 79.5787 118.222 73.9317 124.415C73.3279 127.204 70.9886 129.115 70.2601 131.896C69.5601 134.567 68.4276 137.125 67.4225 139.907C66.5563 138.857 65.4928 137.991 64.9789 136.872C62.3375 131.122 58.6227 125.966 56.3954 119.937C54.2079 114.016 52.2694 108.002 50.0287 102.097C48.276 97.4785 47.7225 92.3865 45.8109 87.8527C44.1817 83.988 43.9076 79.9527 43.0687 76.0205C41.9901 70.9656 39.7398 62.9673 36.6595 59.1982C34.9654 57.1253 32.8826 55.3004 30.5535 53.673C27.5068 51.5439 24.4817 52.0266 21.4109 52.0933C19.8413 52.8583 18.2212 53.3426 16.6057 53.8424C16.0168 54.0245 15.3508 54.1197 14.8708 54.4647C11.5144 56.8789 7.95602 59.0993 6.74872 63.4985C6.46992 64.5151 5.67252 65.3896 4.99212 66.5341C4.75772 68.4756 5.44692 70.765 4.04092 72.882C3.58022 73.5755 3.66392 74.9606 4.02112 75.8097C5.53532 79.4094 4.79652 83.3817 5.99822 86.9856C7.17892 90.5262 7.32142 94.3329 8.94942 97.7537C9.87792 99.7051 10.3185 101.801 10.7468 103.869C11.7119 106.302 12.8601 108.655 13.8332 111.088C14.6262 113.07 15.2109 115.278 16.8334 116.755C17.8249 117.658 18.298 118.677 18.3922 119.687C21.7728 126.092 24.6937 132.8 28.9105 138.823C32.6856 144.216 36.151 149.828 39.9251 155.227C41.021 156.795 42.3443 158.205 43.4241 159.783C44.4981 161.352 45.7845 162.773 47.0152 164.166C50.7696 168.416 54.7618 172.513 59.8839 175.16C63.7452 177.155 68.0729 178.292 71.2403 181.532C71.4234 181.72 71.8306 181.731 72.1378 181.748C74.1983 181.864 75.1651 183.193 75.9706 184.903C76.4325 185.884 77.2985 186.674 78.0329 187.615C77.9196 189.228 78.4001 191.304 77.5764 192.403C75.2959 195.443 76.4199 199.211 74.1911 203.199C71.6896 204.969 68.2087 207.212 64.9816 209.775C61.3593 212.652 57.0331 214.617 53.9799 218.213C52.7414 219.672 51.654 221.258 50.4284 222.729C48.235 225.36 46.7162 228.168 46.9062 231.783C47.0891 235.265 46.9458 238.764 46.9458 241.66C49.6028 246.231 51.4084 250.807 55.6414 253.48C56.6404 253.819 57.5674 254.336 58.5264 254.783C59.6414 255.303 60.7847 255.762 61.6936 256.153C62.7939 260.156 64.1118 264.006 64.8665 267.963C65.6038 271.831 67.784 275.137 68.617 278.909C69.4935 282.878 72.1165 286.144 72.9112 290.017C70.065 294.702 68.1634 299.922 63.9107 304.229C62.4583 301.728 60.097 303.385 58.4993 302.575C56.0056 301.311 53.3138 301.437 50.7591 300.766C48.0018 300.043 45.0562 300.056 42.2064 299.653C41.305 299.525 40.4488 298.847 39.5692 298.841C35.8763 298.816 32.0985 297.898 28.4359 299.731C28.1351 299.37 27.8199 298.991 27.4068 298.495C21.5069 298.587 13.907 302.243 8.90922 304.549C3.18652 307.19 0.293221 310.533 0.0413208 316.934C-0.203779 323.161 0.664821 329.323 2.02812 335.421C2.97812 337.319 3.92212 339.22 4.67292 341.211C4.85532 341.695 4.92802 342.194 4.91192 342.688C5.27542 344.894 5.16042 346.855 5.74642 348.797C6.16782 350.192 6.71172 351.534 7.30692 353.053C7.55842 353.331 7.79272 353.65 8.00222 354.017C10.8355 358.983 11.9392 364.711 14.7864 369.625C17.5457 374.388 21.6394 378.194 24.3355 383.017C24.7278 383.719 24.9368 384.412 24.9961 385.076C28.6355 391.668 32.2075 398.139 35.9876 404.986C35.6541 408.493 34.6565 412.586 33.4773 416.69C32.6646 419.518 31.4126 422.17 30.8184 425.122C29.9107 429.633 28.1956 433.995 26.6492 438.358C25.2112 442.417 23.3672 446.38 24.9746 450.812C25.2869 451.673 25.8223 452.453 26.3237 453.402C29.1281 455.305 32.4248 454.342 34.8557 454.553C36.418 453.664 37.4211 453.192 38.3152 452.565C40.9048 450.749 43.928 449.261 45.8709 446.897C47.5821 444.815 49.5604 443.311 51.9261 441.464C51.9261 443.855 52.5438 446.225 51.8101 448.052C49.6243 453.497 50.2212 459.313 48.9988 464.864C48.4192 467.496 47.4124 470.132 47.9453 472.932C46.3442 474.377 46.77 476.35 47.0369 478C47.3782 480.109 45.7576 481.647 45.9534 483.596C46.0633 484.686 45.7935 485.73 46.585 486.857C47.2278 487.772 47.0301 489.278 47.1604 490.203C50.1914 492.162 52.9358 493.936 55.3281 495.482C58.6614 495.757 61.657 494.929 64.3452 496.595C65.3845 495.249 66.4306 495.194 67.4165 496.404C69.9463 494.34 72.4561 492.292 74.9311 490.272C74.9311 485.964 75.1984 481.786 74.8559 477.659C74.5126 473.525 76.6088 469.786 75.8425 465.535C82.4834 465.754 87.5114 470.602 93.8054 469.618C94.2414 473.696 93.2673 477.479 94.8366 481.105C95.0978 481.709 94.2529 482.791 94.082 483.232C94.4138 484.816 94.7851 486.015 94.9004 487.238C95.419 492.75 93.9177 498.379 95.874 503.827C96.0417 504.294 95.6164 505.019 95.3679 505.58C94.7522 506.973 94.6194 508.272 95.4844 509.666C95.8765 510.299 95.8628 511.183 95.9444 511.551C98.4695 516.551 103.601 516.41 107.595 518.345C108.912 516.818 110.685 517.61 112.242 517.58C114.845 517.531 117.114 516.856 119.452 515.62C122.9 513.797 124.996 511.417 124.905 507.406C124.858 505.332 125.259 503.184 123.906 501.325C124.477 496.404 123.133 491.614 122.918 486.748C122.844 485.086 122.906 483.418 122.906 481.752C122.906 480.087 122.668 478.376 122.974 476.768C123.271 475.206 121.699 473.881 122.566 472.451C123.61 470.729 120.851 469.665 122.395 467.597C122.547 467.49 123.181 467.003 123.852 466.574C126.997 464.565 131.05 464.566 133.964 462.026C134.133 461.878 134.415 461.86 134.687 461.767C135.107 462.306 135.562 462.78 135.884 463.331C136.271 463.993 136.545 464.721 136.899 465.487C136.899 467.405 136.801 469.41 136.927 471.4C137.045 473.274 137.399 475.133 137.669 477.148C136.339 478.045 137.31 479.762 136.826 481.039C136.281 482.476 139.108 482.837 137.544 484.536C136.555 485.61 138.518 486.885 137.909 488.575C140.362 490.244 142.847 491.936 145.212 493.547H152.048C153.197 492.783 154.117 492.161 155.047 491.555C157.472 489.974 158.821 487.869 158.935 484.852C159.045 481.903 158.151 479.201 157.277 476.519C156.207 473.237 156.358 469.703 154.945 466.495C154.576 465.658 154.894 464.521 154.888 463.522C154.883 462.694 155.212 461.496 154.793 461.103C153.147 459.56 154.691 457.342 153.702 456.052C152.365 454.308 153.394 452.507 152.848 450.873C152.289 449.197 152.128 447.488 151.789 445.797C150.986 441.792 150.113 437.816 149.422 433.776C148.572 428.811 146.674 424.072 146.806 418.864C146.882 415.881 146.27 412.832 145.608 409.894C145.06 407.468 143.856 405.183 143.906 402.62C143.959 399.872 142.336 397.39 142.832 394.528C143.095 393.011 142.444 391.455 142.077 389.914C141.237 386.381 140.177 382.707 141.133 378.695C145.929 376.934 147.546 372.28 149.892 367.758C149.892 363.69 149.595 359.174 149.974 354.716C150.368 350.079 148.176 345.739 148.915 341.428C147.446 339.072 146.716 336.565 144.659 334.875C142.699 333.264 140.907 331.448 138.912 329.603C139.165 329.136 139.834 328.466 139.848 327.782C139.943 323.288 140.169 318.767 139.792 314.302C139.577 311.751 138.534 309.183 137.438 306.821C136.594 305.001 137.49 302.404 135.038 301.315C134.866 299.197 133.867 297.531 132.618 295.805C128.661 290.335 125.141 284.533 119.729 280.156C121.19 270.877 126.072 263.009 129.688 254.398C131.267 252.927 133.557 252.086 135.674 252.853C137.168 253.395 138.175 252.799 139.395 252.702C143.639 252.365 150.829 250.187 154.99 248.13C159.244 246.026 162.906 243.051 166.826 240.452C173.653 235.925 177.803 229.128 182.795 223.057C184.612 220.848 185.78 217.982 186.76 215.243C187.696 212.628 188.83 210.081 188.995 207.126C189.162 204.13 190.332 201.19 189.646 197.691C188.189 196.731 186.488 195.611 184.693 194.429C183.287 195.548 181.449 196.276 181 197.51C179.878 200.594 177.507 202.49 175.405 204.72H170.12C169.116 203.342 167.992 201.799 166.883 200.278C166.883 198.085 166.596 195.87 166.966 193.771C167.313 191.813 165.848 190.123 166.791 188.047C167.681 186.085 166.212 184.03 165.927 182.001C165.436 178.497 165.237 174.953 164.865 171.43C164.802 170.831 164.388 170.271 164.315 169.671C164.12 168.07 164.094 166.445 163.865 164.85C163.619 163.143 163.216 161.459 162.889 159.764C162.859 159.604 162.815 159.363 162.899 159.277C164.935 157.163 164.396 153.986 166.289 151.629C167.762 149.794 167.784 146.864 169.881 145.174C171.075 139.765 174.048 135.175 176.929 130.616C181.554 123.296 186.646 116.284 192.936 110.261C197.079 106.293 200.7 101.773 205.561 98.554C207.562 97.229 209.26 95.4548 211.192 94.0146C213.206 92.5133 215.53 91.3815 217.375 89.7094C220.816 86.5904 224.075 83.2079 225.503 78.6185C226.144 76.5566 227.193 74.0211 226.513 72.3142ZM63.8613 162.132C62.9602 161.534 62.3623 161.275 61.9577 160.838C61.3156 160.144 60.9545 159.107 60.2116 158.602C53.4318 153.992 49.6086 146.928 44.9006 140.567C40.9819 135.272 37.6911 129.618 34.5864 123.859C31.5193 118.168 28.8205 112.279 25.9563 106.479C23.2795 101.059 21.4163 95.3278 20.0247 89.4849C18.9039 84.7785 16.4266 80.3537 16.8777 75.2835C16.9065 74.958 16.2639 74.5728 15.8333 74.1067C17.5484 70.3256 18.1473 66.4158 21.5105 63.8882H24.3733C27.2483 65.9738 29.2063 68.9028 29.8792 72.3881C30.5943 76.091 31.7212 79.6996 32.0521 83.5139C32.3172 86.5717 33.1588 89.6731 34.3036 92.5312C35.2001 94.7694 34.5094 97.3115 35.975 99.3211C37.3224 101.168 37.2538 103.558 38.1212 105.412C39.5233 108.407 40.138 111.577 41.3163 114.579C42.2125 116.862 43.5377 118.926 44.1732 121.394C44.7753 123.732 47.0492 125.501 46.9459 128.215C49.568 129.924 49.0697 133.337 51.037 135.545C52.8583 137.589 53.8632 140.34 55.38 142.682C56.9217 145.062 58.64 147.328 60.2982 149.632C62.8548 153.184 64.2068 157.076 63.8613 162.132ZM123.286 121.953C129.085 126.459 134.072 131.38 135.661 138.722C134.221 142.596 132.724 146.622 131.166 150.812C129.946 151.185 130.078 150.025 129.717 149.138C128.672 146.57 127.511 144.078 125.958 141.724C123.324 137.733 120.726 133.726 118.771 129.288C117.241 125.815 116.016 123.152 116.107 120.041C118.762 120.748 121.142 121.382 123.286 121.953ZM124.301 175.564C124.157 175.166 123.997 174.77 123.938 174.359C123.918 174.217 124.295 174.018 125.059 173.339C124.794 174.126 124.542 174.863 124.301 175.564ZM124.201 175.853C122.701 180.197 121.623 183.039 120.412 186.231C119.111 185.192 118.036 184.333 116.967 183.479C119.294 180.806 121.542 178.225 123.789 175.644C123.926 175.714 124.064 175.783 124.201 175.853ZM78.0612 166.871C75.8095 161.149 75.0785 154.856 76.0895 148.807C76.891 144.013 78.6222 139.27 80.9433 134.883C84.0107 129.087 91.048 122.906 97.2468 121.104C99.5039 120.448 102.112 120.999 104.738 120.999V123.055C106.348 126.357 107.918 128.889 108.859 131.637C111.527 139.429 115.947 146.162 121.015 152.794C119.187 158.044 117.963 163.664 114.909 168.597C112.33 172.763 109.112 176.402 105.458 179.632C104.709 180.294 103.445 180.348 102.456 180.77C101.458 181.196 100.508 181.732 98.4694 182.755H91.539C89.8322 181.399 88.0693 179.753 86.0759 178.463C81.781 175.685 79.7711 171.215 78.0612 166.871ZM56.3881 409.699C55.2814 412.947 53.1261 415.671 51.9792 418.859C50.7514 422.272 48.4802 425.064 46.7568 428.174C45.0722 431.214 42.8081 433.934 40.0122 436.399C40.2881 435.666 40.5933 434.943 40.8347 434.199C41.8826 430.969 42.9502 427.746 43.9363 424.498C44.8357 421.535 45.551 418.515 46.5103 415.573C47.4234 412.772 47.4649 409.782 48.8301 407.038C49.4937 405.704 48.9448 403.768 48.9448 402.202C46.6775 398.217 44.3991 394.339 42.2419 390.394C38.8969 384.278 35.3022 378.253 32.1955 372.066C27.8576 363.428 22.7819 355.094 19.8288 345.732C18.643 341.973 16.7607 338.365 15.3698 334.607C13.5077 329.575 11.9679 324.509 11.8974 319.656C13.4047 316.702 15.0715 314.829 17.562 313.351C19.7939 312.026 22.3076 311.898 24.8701 311.058C24.9472 311.098 25.4834 311.587 26.0544 311.632C27.5437 311.749 29.0524 311.596 30.5456 311.685C35.5705 311.982 40.7321 311.726 45.5773 312.835C50.8656 314.046 56.5714 313.725 61.4394 316.668C63.7468 316.247 65.8332 317.271 68.0231 317.634C69.2726 317.841 70.4452 318.191 71.6388 318.523C75.4171 319.577 79.3739 319.983 83.256 320.672C85.2746 321.03 87.2814 321.457 89.6425 321.922C90.0658 322.324 90.7787 323.002 91.4435 323.634H92.3605C92.6574 323.934 92.9794 324.205 93.3527 324.402C95.8569 325.725 98.654 324.944 100.194 322.608C100.227 322.559 100.364 322.355 100.475 322.189C100.565 322.074 100.677 321.929 100.711 321.889C101.097 321.445 101.507 321.022 101.935 320.619C102.174 320.395 102.42 320.177 102.669 319.965C102.751 319.896 102.946 319.745 103.061 319.655C103.438 319.382 103.814 319.109 104.203 318.851C106.323 317.448 108.587 316.268 110.825 315.068C113.237 313.774 115.669 312.523 118.17 311.408C118.246 311.374 118.309 311.346 118.365 311.32C118.388 311.312 118.409 311.304 118.439 311.293C118.793 311.158 119.141 311.011 119.494 310.877C120.129 310.635 120.769 310.407 121.415 310.194C122.767 309.749 124.14 309.385 125.533 309.092C126.403 311.185 127.074 313.343 126.927 315.791C126.714 319.331 127.099 322.85 125.975 326.385C124.141 332.157 121.242 336.89 115.966 340.173C111.736 342.806 107.186 343.934 102.358 344.816C99.9738 345.252 97.6393 345.708 95.2526 345.599C93.7138 345.529 92.2013 344.959 90.6686 344.656C89.2868 344.384 87.9684 344.671 86.4628 343.924C84.435 342.917 81.8466 343.678 79.4477 342.831C77.9445 342.301 76.114 341.833 74.4265 341.731C72.5552 341.618 71.0466 339.945 69.6831 340.06C66.0386 340.366 63.2498 338.159 59.9504 337.566C56.6296 336.968 53.4167 335.717 50.1955 334.636C47.8666 333.854 45.6017 332.881 42.4352 331.656H38.4538C35.5058 328.714 31.7961 329.917 28.1457 329.612V335.098C29.3034 335.947 30.5769 336.881 31.9538 337.89C31.9538 338.755 31.6459 339.749 32.0051 340.333C33.896 343.406 33.9236 347.124 35.8459 350.26C37.7521 353.369 38.5419 357.144 40.2851 360.377C42.5624 364.601 44.1398 369.169 46.3893 373.316C49.486 379.026 51.3351 385.387 55.3668 390.605C55.8006 391.167 55.6122 392.174 55.9679 392.838C57.2142 395.161 58.5729 397.425 60.0773 400.039C58.9054 403.08 57.5294 406.349 56.3881 409.699ZM93.2392 315.372C92.8454 315.101 92.4074 314.74 91.9487 314.316C91.2268 313.649 89.9602 313.572 88.9365 313.231V312.197C89.1753 312.028 89.4255 311.698 89.6797 311.694C92.1936 311.661 94.7175 311.792 97.2219 311.669C95.7805 312.767 94.4372 313.983 93.2392 315.372ZM63.9587 457.162C63.7941 457.351 63.9533 457.808 63.9345 458.139C63.5397 465.124 63.1408 472.11 62.7275 479.362C62.198 479.732 61.4362 480.264 60.6884 480.786C60.3195 480.322 59.9533 480.074 59.9648 479.845C60.2658 473.844 60.4655 467.832 61.029 461.854C61.1855 460.193 61.9802 458.588 62.0043 456.786C62.027 455.095 62.5053 453.383 62.9801 451.737C63.2069 450.951 63.8905 450.297 64.7169 449.682C64.4064 452.209 65.9912 454.828 63.9587 457.162ZM85.2949 454.446C82.4509 453.151 80.2112 452.131 77.6653 450.972C78.2373 450.182 78.6316 449.012 79.3362 448.779C81.68 448.004 83.8157 446.576 86.4238 446.56C89.3759 446.543 89.3755 446.469 92.5891 444.673C93.0076 448.43 93.3799 451.776 93.761 455.197C90.6611 456.836 87.7063 453.607 85.2949 454.446ZM82.7026 420.551C83.969 417.076 82.4316 412.838 83.507 408.675C83.5641 408.737 83.2348 408.376 82.7143 407.806C84.9023 406.562 82.965 404.515 83.7702 402.686C84.506 401.016 83.9264 398.766 83.9264 396.771V390.086C84.4274 389.656 85.1285 388.616 85.6137 388.709C88.0304 389.17 90.5917 389.299 92.7448 390.763C91.496 392.746 91.9238 394.837 91.9533 396.841C91.9865 399.101 92.3788 401.357 92.3888 403.615C92.3976 405.569 92.018 407.521 91.9413 409.479C91.8568 411.637 91.922 413.8 91.922 415.961C91.922 418.288 91.7526 420.632 91.973 422.938C92.1661 424.96 92.797 426.94 93.1117 428.379C92.3136 429.529 91.8532 430.192 91.3785 430.876C90.398 430.332 89.7266 429.96 88.9347 429.52C86.6837 430.947 84.286 432.186 81.0551 431.409C83.2463 428.112 81.3359 424.302 82.7026 420.551ZM110.654 503.399H108.31C107.932 502.663 107.507 501.837 106.914 500.684C106.914 497.759 107.035 494.433 106.88 491.119C106.73 487.921 107.743 484.586 105.915 481.554C107.382 480.001 105.579 478.49 105.847 476.884C106.144 475.104 106.064 473.221 105.88 471.411C105.602 468.697 106.79 465.837 105.106 463.262C106.766 461.821 104.865 460.536 104.953 459.183C105 458.452 105.432 457.746 105.709 456.978C105.506 456.604 105.021 456.083 104.955 455.514C104.822 454.366 104.915 453.191 104.915 452.027C104.915 450.531 104.956 449.033 104.905 447.538C104.851 445.983 105.348 444.302 104.002 442.999C105.547 441.904 105.15 440.162 104.839 438.907C103.151 432.095 104.117 425.199 103.953 418.35C103.785 411.37 103.916 404.383 103.916 397.399V394.792H106.708C106.816 395.115 106.919 395.266 106.907 395.407C106.19 403.792 108.319 412.062 107.914 420.434C110.019 430.046 108.362 439.788 108.939 449.45C109.109 452.315 109.722 455.154 109.874 458.019C110.042 461.169 109.913 464.335 109.913 467.495C109.913 470.488 109.869 473.482 109.952 476.473C109.967 477.031 110.488 477.576 110.795 478.165C110.567 478.409 110.234 478.767 110.081 478.931C110.378 480.819 110.824 482.51 110.876 484.212C110.992 488.033 110.845 491.862 110.948 495.683C110.986 497.06 111.434 498.427 111.824 500.478C111.627 500.97 111.169 502.112 110.654 503.399ZM119.887 417.453C119.853 416.37 120.064 415.336 119.226 414.212C118.709 413.52 119.369 411.949 119.509 410.704C119.279 409.004 118.642 407.487 119.022 406.292C119.502 404.78 117.391 403.735 118.585 402.486C120.108 400.892 117.304 400.506 117.813 399.007C118.267 397.669 117.909 396.055 117.909 394.562V390.105C118.758 389.67 119.583 389.248 120.768 388.641C122.476 389.063 124.99 387.527 126.728 389.944C126.787 390.251 126.879 390.556 126.899 390.866C127.092 393.895 127.094 396.868 127.727 399.941C128.877 405.524 129.443 411.266 130.048 416.973C130.313 419.475 130.918 421.962 130.961 424.535C130.974 425.357 131.681 426.167 132.039 426.918C131.567 427.44 131.252 427.787 130.702 428.394C131.406 429.097 132.095 429.786 133.017 430.708C132.563 431.252 131.977 431.955 131.296 432.773C128.106 431.92 124.971 431.081 122.17 430.332C120.063 428.392 119.794 426.241 119.889 423.92C119.977 421.768 119.956 419.607 119.887 417.453ZM122.333 452.505C121.966 452.138 121.613 451.785 121.083 451.256V442.646C125.126 443.713 128.981 444.729 133.023 445.796C130.179 449.559 125.655 450.073 122.333 452.505ZM131.242 347.826C131.914 346.48 132.62 345.15 133.357 343.736H135.54C135.682 344.102 135.937 344.421 135.875 344.655C135.524 345.96 135.097 347.245 134.686 348.569H131.229C131.229 348.279 131.15 348.01 131.242 347.826ZM136.142 355.36C136.86 356.104 137.322 356.582 138.05 357.336C137.667 359.095 137.236 361.077 136.764 363.244C132.32 368.551 125.458 369.842 118.277 372.681C117.187 372.742 115.018 372.522 112.787 373.521C110.833 374.396 108.321 372.895 106.199 374.553C105.529 375.076 104.362 373.29 102.982 374.505C102.463 374.962 100.695 374 99.4343 373.669C99.1347 373.947 98.7746 374.281 98.8171 374.241C97.448 374.001 96.4025 373.748 95.3427 373.65C94.3525 373.559 93.3434 373.683 92.349 373.617C91.2355 373.543 89.9232 373.687 89.0707 373.146C87.9567 372.44 87.3356 372.542 86.6405 373.438C78.9596 369.89 70.1537 368.655 64.0983 362.305V358.619C67.3481 358.703 69.904 360.132 72.2204 361.361C77.1403 361.801 81.9638 361.652 86.4645 362.786C91.7091 364.107 96.8893 363.175 102.067 363.661C103.802 363.824 105.512 362.395 107.234 363.637C109.026 361.883 111.358 363.173 113.288 362.563C115.029 362.012 116.871 361.142 118.514 360.85C120.677 360.466 122.891 360.119 125.048 359.613C126.998 359.156 128.901 358.666 130.678 357.497C132.311 356.422 134.384 356.016 136.142 355.36ZM137.801 235.635C137.996 234.848 138.146 234.241 138.422 233.127C139.54 234.047 140.23 234.615 141.469 235.635H137.801ZM145.069 224.291C145.295 220.68 147.188 214.338 148.697 212.638C149.195 214.747 148.959 216.778 149.699 218.773C150.322 220.453 150.872 222.224 151.507 223.958C152.023 225.366 151.807 227.043 151.911 228.549C148.224 228.957 147.408 225.499 145.069 224.291ZM149.142 211.736V209.737H149.642V211.736H149.142ZM166.799 217.937C167.59 217.434 168.06 217.135 168.721 216.715C168.762 217.395 168.928 218.193 168.795 218.247C166.074 219.339 163.547 221.136 160.373 220.672C156.902 217.428 153.34 214.179 152.693 208.82C151.905 208.773 151.122 208.727 150.332 208.68C150.185 208.41 149.908 208.137 149.913 207.869C149.942 206.133 150.076 204.508 150.736 202.761C151.419 200.952 152.385 198.993 151.957 196.764C151.687 195.352 152.778 193.904 154.49 192.517C155.158 195.013 155.356 197.242 153.355 199.273C156.472 202.433 155.872 206.671 158.325 210.04C160.69 213.29 163.786 215.261 166.799 217.937ZM203.261 83.1358C198.713 86.1425 194.649 89.9332 190.614 93.6441C186.449 97.4737 182.144 101.277 178.663 105.693C173.141 112.698 167.959 119.968 163.723 127.926C161.916 131.32 159.712 134.647 158.194 138.147C154.522 146.61 150.8 155.067 147.843 163.837C145.669 170.29 144.662 177.088 141.896 183.352C142.254 186.324 140.709 188.871 139.791 191.479C138.876 194.078 139.19 197.183 136.899 199.267C136.976 202.484 135.501 205.364 134.916 208.434C134.331 211.503 132.925 214.287 132.024 217.222C129.931 224.04 126.283 230.169 123.792 236.808C122.948 239.058 120.856 240.848 120.634 243.489C117.843 244.533 119.658 247.648 117.909 249.413C116.472 250.863 115.137 253.212 115.179 255.132C115.232 257.599 112.784 258.429 112.753 260.771C112.73 262.432 111.164 264.044 110.402 265.73C108.318 270.341 106.279 274.976 106.919 279.705C110.775 285.628 114.367 291.146 118.022 296.76C116.875 299.176 114.231 299.654 112.269 300.51C109.885 301.551 106.963 301.538 104.261 301.634C99.7698 301.794 95.2627 301.82 90.7742 301.626C87.9275 301.502 85.1023 300.878 81.9842 300.438C82.294 299.003 82.7115 297.548 82.8978 296.065C83.0755 294.65 83.3519 293.318 83.7469 291.935C84.325 289.908 83.2139 287.528 82.7222 285.454C81.8782 281.895 80.8518 278.293 79.5747 274.805C78.5115 271.902 77.3279 269.057 76.8259 265.924C76.4712 263.71 75.0805 261.675 74.2824 259.512C73.9731 258.674 74.0221 257.704 73.8644 256.444C77.257 257.387 78.265 260.518 80.7125 261.67C82.9332 262.715 85.2867 263.478 88.4305 264.693H93.3597C96.8953 263.354 99.4859 262.372 103.14 260.988C103.941 260.185 105.488 258.451 107.225 256.935C110.835 253.784 111.853 249.2 113.842 245.169C114.305 244.231 113.91 242.871 113.91 241.705C113.91 238.708 114.078 235.698 113.862 232.716C113.656 229.865 113.049 227.043 112.57 223.887C112.138 223.455 111.431 222.748 110.568 221.886H106.307C106.22 222.039 105.887 222.354 105.942 222.572C106.657 225.41 104.839 227.907 104.901 230.658C104.964 233.488 105.414 236.438 104.778 239.118C104.117 241.899 102.617 244.595 100.995 246.998C99.6828 248.943 97.8076 250.485 95.1055 250.784C93.1494 251 91.2676 251.89 89.3811 252.471C86.4187 251.317 83.0518 250.492 81.2541 247.408C79.7583 243.406 78.9653 239.391 81.9848 234.519C83.9094 233.415 84.9973 229.81 88.1135 227.795C90.8862 226.002 92.852 222.963 94.9709 220.691C93.998 218.79 93.2226 217.274 92.447 215.759C92.2099 215.976 91.9743 216.194 91.5317 216.606C91.1587 216.341 90.7277 216.036 90.382 215.791C88.9611 216.17 87.4347 216.247 86.3153 216.961C84.9442 217.835 83.5538 219.061 82.838 220.473C82.1324 221.864 80.4901 221.42 79.7108 223.066C78.8255 224.937 76.3858 226.15 75.1044 228.085C73.8083 230.041 72.6698 232.102 71.0224 234.852C70.6545 237.415 70.1572 240.878 69.6491 244.417C65.862 245.942 63.2543 243.083 60.1469 241.383C58.2905 238.779 59.0842 235.615 58.9391 232.589C59.0875 232.318 59.2887 232.063 59.3788 231.773C60.7597 227.34 64.4589 225.295 68.0705 223.022C72.184 220.433 76.9929 218.928 80.257 214.97C82.3315 212.455 86.2162 204.724 86.9562 201.238C87.5731 198.331 88.3598 195.398 92.0885 194.796C92.2614 194.878 92.5336 195.025 92.8187 195.141C95.1014 196.068 97.1444 198.443 99.6937 197.62C102.144 196.829 104.284 195.04 106.518 193.624C107.975 192.7 108.566 190.481 111.339 190.764C115.076 193.601 116.329 198.575 119.083 202.577C119.917 202.239 120.676 201.931 121.97 201.406C121.779 204.022 119.404 206.364 122.293 208.54H126.688C129.553 205.212 128.508 200.91 129.807 197.226C131.05 193.699 131.506 189.895 132.409 185.744C132.6 185.554 133.188 184.965 133.373 184.78C134.402 180.176 135.33 176.045 136.246 171.911C136.483 170.839 136.565 169.719 136.917 168.689C139.21 161.982 141.238 155.189 143.838 148.577C145.865 143.423 148.274 138.422 149.946 133.116C150.727 130.64 151.724 128.054 153.303 126.056C155.101 123.781 156.334 121.26 157.339 118.7C158.315 116.215 160.849 114.57 160.885 111.673C163.794 108.711 165.299 104.81 167.69 101.503C172.488 94.8695 178.084 88.9587 183.894 83.2068C186.893 80.238 190.417 78.1057 193.877 75.8606C198.037 73.1616 202.834 71.7676 207.388 69.9004C208.529 69.4329 210.023 69.8305 211.356 69.8305C212.334 71.1075 212.835 72.9155 212.859 75.2544C210.032 78.2994 206.795 80.7986 203.261 83.1358Z" fill="black"/>
<path d="M91.8583 282.143C91.4877 281.886 91.025 281.761 90.664 281.602C89.9399 282.2 89.3251 282.708 88.873 283.082C89.4458 286.982 92.4963 289.702 91.9216 293.62C93.9883 294.087 95.7683 294.488 97.8466 294.957C97.8466 293.341 98.2721 291.961 97.7712 291.159C95.8679 288.113 95.0304 284.342 91.8583 282.143Z" fill="black"/>
<path d="M94.9766 175.923C97.1214 174.088 98.8238 172.63 100.867 170.881C101.668 169.306 102.716 167.245 103.742 165.227V159.646C99.885 160.034 96.2112 160.807 92.5767 160.653C89.0767 160.505 85.6172 159.399 81.8838 158.664C81.8711 165.297 84.7222 170.217 88.1069 174.69C90.811 175.175 93.1317 175.592 94.9766 175.923Z" fill="black"/>
<path d="M105.744 142.952C105.067 142.535 104.295 142.059 103.518 141.58C102.699 143.685 101.978 145.539 100.894 148.326C100.932 148.799 101.054 150.318 101.22 152.381C105.1 149.879 106.51 147.017 105.744 142.952Z" fill="black"/>
<path d="M86.7543 151.762V139.72C84.5941 141.106 83.5204 142.973 82.9748 145.091C82.7009 146.154 82.9272 147.346 82.9272 148.383C84.0424 149.368 84.987 150.202 86.7543 151.762Z" fill="black"/>
<path fill-rule="evenodd" clip-rule="evenodd" d="M125.654 127.846C126.229 127.271 126.969 126.888 127.766 126.727C156.996 120.81 179 94.9746 179 64C179 28.6538 150.346 0 115 0C79.6538 0 51 28.6538 51 64C51 94.5526 72.4088 120.105 101.043 126.474C101.811 126.644 102.521 127.021 103.077 127.577L111.672 136.172C113.234 137.734 115.766 137.734 117.328 136.172L125.654 127.846Z" fill="white"/>
<path d="M101.5 126.5C105.961 126.996 108.52 138.111 114.69 138.765C121.213 139.457 119.5 125.778 141.5 121.5C168.343 116.281 181.355 96.9237 182.5 66C183.746 32.3602 164.6 5 125 5C90.6626 5 63.2028 20.685 55.9998 55.5C49.9999 84.5 67.1269 114.657 86.4999 119.5" stroke="black" stroke-width="10" stroke-linecap="round"/>
<path d="M113.123 41.8918C114.386 49.91 114.561 56.8578 111.979 64.5017C109.886 70.6978 107.616 76.1518 104.391 81.5943C103.061 83.8377 101.697 86.5548 100.063 88.4853C99.2763 89.4146 97.1009 91.7507 95.9639 91.7507" stroke="black" stroke-width="10" stroke-linecap="round"/>
<path d="M95 92.1634C104.441 92.1634 114.15 89.4337 122.747 85.6801C126.494 84.044 128.592 81.1526 129.98 77.3624C132.064 71.6726 132.148 64.7626 132.148 58.7673" stroke="black" stroke-width="10" stroke-linecap="round"/>
<path d="M132 59C137.535 59 140.879 62.2431 143.575 64.0526C146.888 66.2757 153.149 68.4071 155 71" stroke="black" stroke-width="10" stroke-linecap="round"/>
<path d="M112.297 62.5233C115.536 62.5233 119.146 62.3588 121.414 50.0359C122.472 44.2908 123.207 36.5981 124.332 31.5764" stroke="black" stroke-width="10" stroke-linecap="round"/>
<path d="M124.644 31C128.364 32.1871 131.153 35.9261 133.733 38.6715C136.934 42.0775 139.698 46.0897 142.03 50.137C146.094 57.1919 149.928 64.3873 155.038 70.775" stroke="black" stroke-width="10" stroke-linecap="round"/>
</svg>
