<svg width="212" height="403" viewBox="0 0 212 403" fill="none" xmlns="http://www.w3.org/2000/svg">
<path d="M190.557 347.782C189.093 349.386 191.291 350.589 191.202 352.1C190.971 356.005 192.98 359.743 192.162 363.671C191.785 365.483 194.404 366.758 192.553 369.059C191.565 370.288 192.233 372.87 192.201 374.842C192.168 376.84 192.458 378.882 192.142 380.83C191.347 385.729 188.682 389.385 184.168 391.61C182.364 392.499 180.572 393.413 178.344 394.531H165.544C165.146 393.996 164.556 393.202 164.148 392.653C162.988 393.769 162.09 394.756 161.067 395.591C159.09 397.203 157.198 399.017 154.98 400.209C152.839 401.359 150.377 402.107 147.969 402.497C146.533 402.73 144.944 401.796 143.399 401.639C141.75 401.472 140.008 401.88 138.423 401.522C136.895 401.176 135.172 400.99 133.898 400.429C131.958 399.574 130.424 398.039 128.112 397.435C126.12 396.915 124.496 394.954 122.73 393.602C114.158 387.039 107.232 378.753 99.4949 371.316C97.8876 369.772 96.617 367.871 95.2308 366.103C91.6328 361.515 86.4905 359.378 81.2179 357.723C78.2509 356.792 75.4255 355.602 72.5779 354.431C68.078 352.58 64.0353 349.933 60.1436 347.04C59.7853 346.774 59.2919 346.689 58.649 346.437C56.6493 343.473 55.319 340.025 55.2129 336.208C58.4598 332.365 62.9894 331.196 67.4928 330.801C70.5418 330.533 73.2952 329.394 76.2484 329.426C76.3368 327.073 74.5083 327.106 73.4755 326.245C72.5694 325.489 72.1511 324.148 71.4709 322.986C72.0672 322.019 72.8036 320.825 73.5382 319.633C80.4901 319.402 86.928 322.752 93.5764 321.485C94.3891 322.297 94.978 322.886 95.592 323.5C95.8044 323.373 96.1571 323.289 96.2232 323.103C96.8029 321.473 96.9185 319.647 97.4561 318.108C99.2405 313.002 101.661 308.118 104.808 303.688C105.878 302.181 107.566 301.113 109.227 299.613C107.493 297.436 105.627 294.849 103.509 292.487C99.3707 287.872 96.4035 282.521 93.1245 277.316C88.6414 270.199 85.6018 262.312 80.6893 255.42C78.7373 252.682 77.469 249.379 75.2563 246.714C74.3588 245.634 73.4739 244.542 72.6177 243.498C69.8006 244.915 67.3164 246.165 64.2614 247.702C62.2625 247.702 59.5977 247.905 56.9738 247.665C48.3128 246.871 41.9099 242.389 37.2752 235.179C36.1492 229.842 34.9368 224.514 38.797 219.636C39.2404 219.075 39.2092 218.139 39.6226 216.471C40.4759 215.77 42.0018 214.515 43.3396 213.416C43.2213 212.696 43.2853 212.239 43.1019 212.093C39.1015 208.908 35.9098 205.016 32.8896 200.918C30.8743 198.183 28.4356 195.763 26.2224 193.171C22.2014 188.462 18.5428 183.484 15.3049 178.203C15.1557 177.96 15.4112 177.398 15.243 177.248C12.0802 174.422 11.0232 170.32 8.89561 166.872C5.21441 160.907 2.41521 154.492 0.906107 147.72C-0.340393 142.125 -0.876093 136.321 3.19701 131.126C4.59451 129.344 6.88251 128.784 7.67111 126.781C8.74971 126.781 9.80441 127.107 10.3744 126.72C12.1584 125.509 14.1613 125.353 15.9022 126.02C18.338 126.953 20.813 127.77 22.8924 129.743C27.2711 133.899 29.7911 139.201 32.0972 144.468C33.4685 147.6 35.2295 150.506 36.7293 153.528C39.2236 158.553 41.8885 163.55 45.698 167.855C46.9879 169.313 47.7182 171.319 49.2362 172.777C50.8457 174.322 52.1971 176.137 53.9764 177.683C53.0461 173.326 50.7422 169.495 50.1162 165.013C49.5035 160.626 48.5204 156.133 48.5308 151.83C48.5416 147.358 49.6233 142.737 50.5434 138.188C51.0918 137.014 51.5489 135.672 52.2924 134.513C54.3231 131.349 55.5785 127.798 58.3818 124.986C62.3153 121.039 66.8361 118.433 72.035 116.807C73.5217 116.342 75.3694 115.426 76.5601 115.914C80.5854 117.566 85.3736 116.568 88.9524 119.859C90.6657 121.435 92.909 122.356 93.836 124.79C94.1546 125.627 95.1639 126.2 95.719 126.755C97.1406 126.393 98.8635 125.44 99.4422 125.907C100.965 127.134 101.939 125.36 103.228 125.73C104.446 126.08 105.794 125.952 107.069 126.138C107.663 126.225 108.25 126.805 108.791 126.742C113.912 126.147 118.32 128.717 122.898 130.176C125.256 130.927 127.633 132.439 129.834 133.895C134.048 136.684 137.605 140.156 140.202 144.503C142.734 148.742 144.546 153.212 144.246 158.328C144.091 160.977 144.219 163.643 144.219 165.879C145.254 167.886 146.107 169.541 147.277 171.81C147.754 173.594 146.178 176.395 148.157 178.349C147.758 179.905 147.429 181.19 146.883 183.319C150.214 180.528 152.355 178.123 153.612 174.903C155.075 171.152 157.816 168.088 159.31 164.271C161.495 158.689 164.595 153.509 166.298 147.669C167.496 143.559 169.365 139.608 171.29 135.764C172.066 134.215 171.911 132.677 172.341 131.191C173.588 126.884 175.777 122.949 176.393 118.33C176.777 115.445 179.024 112.811 180.426 110.06C180.706 109.512 181.026 108.964 181.187 108.378C183.062 101.543 188.223 97.6637 193.58 96.7812C194.323 96.6587 195.025 96.2821 195.811 96C197.056 97.6604 199.075 96.359 200.809 96.9305C202.323 98.664 205.194 98.7244 206.344 101.341C207.274 103.457 208.908 105.263 209.942 106.785C210.605 108.929 209.327 110.949 211.176 112.325C210.845 113.523 210.181 114.736 210.243 115.91C210.484 120.474 208.761 124.574 207.681 128.858C205.105 139.083 200.617 148.604 196.861 158.369C193.885 166.107 189.463 173.286 185.72 180.732C182.485 187.166 178.329 193.029 174.379 199.013C170.334 205.139 165.498 210.689 161.129 216.566C159.136 219.247 156.07 221.103 154.942 224.45C154.799 224.874 154.286 225.444 153.907 225.473C151.681 225.649 151.396 227.634 150.475 229.152C150.744 229.803 151.075 230.604 151.407 231.404C155.11 232.927 158.94 234.259 162.528 235.904C166.414 237.686 169.643 240.947 172.203 244.591C172.841 245.5 173.46 246.423 174.203 247.508C174.203 250.007 174.472 251.817 175.008 252.936C174.613 255.495 174.273 257.689 173.905 260.074C172.279 265.426 168.403 269.468 163.848 273.316C166.998 277.105 166.991 281.865 167.94 286.175C168.919 290.617 168.157 295.441 168.157 300.048C171.114 303.064 173.203 306.58 175.298 310.139C176.48 312.147 177.102 314.502 179.04 316.151C179.834 316.827 179.838 318.432 180.2 319.614C180.427 320.353 180.511 321.179 180.902 321.817C183.105 325.424 184.172 329.466 185.469 333.421C186.142 335.471 186.785 337.531 187.454 339.627M133.315 152.659C133.25 152.724 133.185 152.789 133.12 152.854C133.352 153.126 133.585 153.399 133.817 153.671C133.922 153.566 134.027 153.461 134.132 153.356C133.86 153.123 133.588 152.891 133.225 152.87C133.225 152.264 133.442 151.556 133.193 151.297C128.945 146.889 124.585 142.341 118.868 140.12C113.643 138.091 108.17 136.562 102.269 136.616C97.4213 136.66 93.3262 138.573 89.3188 140.449C85.7908 142.101 82.6547 144.848 80.7801 148.672C79.4844 151.315 77.7674 153.751 76.3002 156.178C76.0512 158.832 76.7084 161.425 75.3366 163.91C74.8539 164.785 74.8477 166.553 75.4249 167.252C76.6908 168.786 76.0718 170.383 76.2397 171.942C76.3622 173.081 75.9889 174.405 76.4452 175.354C79.336 181.365 80.2632 188.037 82.9349 194.146C83.8241 196.18 84.9311 198.574 85.0386 200.685C85.171 203.287 87.2009 204.978 87.2065 207.337C87.2125 209.883 88.9858 211.585 89.7855 213.812C90.2849 213.682 90.7331 213.564 91.3851 213.394C90.972 212.264 90.34 211.285 90.2954 210.279C90.1236 206.404 90.1668 202.566 89.4422 198.674C89.0427 196.529 88.2536 194.401 88.1899 192.135C88.128 189.935 88.0587 187.513 87.1217 185.619C86.0853 183.525 86.362 181.534 86.2674 179.478C86.1833 177.65 86.5172 175.768 86.1978 173.995C85.3546 169.312 87.2297 165.083 88.7198 161.018C90.3167 156.661 92.4558 152.358 96.2371 149.097C97.8168 147.735 100.204 147.082 100.908 144.68C101.032 144.259 101.912 144.014 102.481 143.78C103.902 143.194 105.345 142.661 106.909 142.057C108.242 143.514 109.778 142.824 111.139 141.726C113.887 142.782 116.408 144.029 119.075 144.697C121.735 145.364 123.817 147.015 126.197 148.033C128.927 149.201 129.931 152.672 133.315 152.659ZM107.394 248.714C106.493 253.195 108.168 256.907 109.29 260.681C109.943 262.875 110.61 265.461 112.165 266.915C116.477 270.944 121.173 274.671 126.4 273.79C131.195 272.429 133.383 269.858 135.224 266.903C135.224 266.237 135.2 265.57 135.228 264.905C135.407 260.623 134.228 256.912 131.621 253.364C130.366 251.657 129.037 250.07 127.568 248.61C126.24 247.29 124.612 246.273 123.138 245.094C122.81 244.831 122.577 244.448 122.508 244.367C123.322 243.351 124.044 242.451 124.762 241.556C130.855 241.739 135.966 244.121 139.455 248.643C143.121 253.393 146.739 258.417 147.418 264.681H155.357C159.119 262.995 161.513 260.294 163.111 257.113V250.785C161.734 249.78 160.283 248.775 158.888 247.696C153.426 243.466 147.297 240.269 141.584 236.439C139.803 235.245 137.282 234.259 137.212 230.889C138.428 230.361 139.813 229.76 141.22 229.149C140.807 226.882 140.383 224.547 139.9 221.896C137.274 219.383 134.787 216.081 130.57 214.943C128.637 216.437 126.497 218.092 124.192 219.874C123.402 219.583 122.535 219.263 121.596 218.917C120.185 220.698 118.635 219.431 117.135 218.697C112.371 220.852 108.561 219.324 102.547 212.881C102.031 216.029 101.519 219.155 100.954 222.599C100.263 223.616 99.3731 224.925 98.1494 226.726V229.322C96.9751 231.088 96.3355 232.05 95.8954 232.711H92.6979C90.5427 229.797 86.7802 228.622 84.3513 225.749C83.3368 224.55 82.0254 223.271 80.601 222.831C78.8198 222.281 79.0719 220.299 77.5031 219.634C76.083 219.031 74.9143 217.763 73.7389 216.675C72.1509 215.206 70.9086 212.905 69.0696 212.28C66.737 211.488 65.9057 209.435 64.4767 208.091C62.9569 206.662 61.406 204.928 60.0635 203.142C57.8229 200.161 55.1816 197.481 52.7067 194.677C51.0001 192.743 49.2582 190.864 47.6456 188.822C43.4014 183.449 39.3529 177.951 35.3683 172.388C29.9117 164.77 25.4651 156.584 21.2593 148.246C19.8686 145.49 18.4441 142.75 16.9777 139.89H12.7648C12.2265 140.38 11.7361 140.825 11.289 141.232C11.289 141.647 11.2278 141.994 11.2981 142.312C12.5152 147.802 15.7916 152.428 17.8316 157.593C19.6357 162.161 22.7078 166.237 25.2961 170.484C26.9242 173.155 28.6104 175.799 30.4188 178.351C32.623 181.461 34.9353 184.498 37.2924 187.495C38.7948 189.405 40.6688 191.046 42.015 193.05C44.8982 197.343 48.3801 201.12 51.9236 204.819C57.5677 210.711 63.4089 216.415 69.2213 222.144C70.4453 223.35 72.0946 224.15 73.2184 225.427C75.8589 228.428 78.3003 231.605 80.8222 234.71C82.9336 234.942 82.7285 237.34 84.2129 238.324C85.4546 239.148 86.151 240.788 87.103 242.055C88.1539 243.455 89.2445 244.826 90.2741 246.241C91.293 247.641 92.3068 249.05 93.236 250.51C95.3947 253.903 97.501 257.329 99.6539 260.782C100.291 260.144 100.763 259.673 101.269 259.167C98.4678 257.31 101.468 255.449 101.355 253.532C101.26 251.931 102.156 250.271 102.592 248.714L107.394 248.714ZM105.984 149.535C104.063 151.451 102.153 152.622 101.351 154.317C99.9134 157.357 97.6568 159.888 97.033 163.535C96.4567 166.904 94.9199 170.116 95.2213 173.706C95.3598 175.355 95.4745 177.065 95.1979 178.678C94.5923 182.211 97.2836 184.956 97.2796 188.321C97.279 188.88 97.7747 189.43 97.9995 190.001C99.2855 193.265 101.031 196.151 103.579 198.685C106.518 201.608 108.948 203.73 112.258 205.267C119.713 208.729 126.295 206.145 130.603 198.717C132.269 195.846 134.641 193.03 134.224 189.271C136.861 186.729 136.059 183.077 137.131 180.018C137.9 177.824 136.38 171.402 134.66 167.658C134.279 166.827 134.177 165.867 133.99 165.138C126.491 156.366 117.129 151.299 105.984 149.535ZM147.712 276.683C146.566 275.574 145.623 274.008 143.457 274.891C135.968 283.505 127.091 287.718 115.516 282.203C115.375 282.495 115.233 282.786 115.092 283.078C114.17 281.936 113.248 280.793 112.319 279.642C111.681 279.691 111.053 279.74 110.174 279.809C110.975 280.879 111.666 281.682 112.226 282.568C114.809 286.651 117.141 290.917 119.997 294.798C121.75 297.18 122.624 299.467 122.138 302.065C120.774 304.317 119.544 306.347 118.365 308.294C118.861 308.79 119.054 309.13 119.338 309.245C124.327 311.266 129.339 313.227 134.319 315.269C137.125 316.42 142.482 317.188 145.845 316.784C151.635 316.089 156.244 314.266 160.17 311.12C159.195 309.691 158.22 308.262 157.551 307.281C157.055 304.13 156.444 301.467 156.262 298.776C156.05 295.628 156.305 292.451 156.176 289.295C156.107 287.589 155.66 285.899 155.359 284.054C155.536 283.859 155.859 283.503 155.996 283.352C155.288 281.017 154.62 278.814 153.973 276.683H147.712ZM72.442 339.939C76.6055 341.011 80.6156 342.237 84.2697 344.289C85.4091 344.929 86.2726 345.602 87.7085 345.714C90.558 345.936 92.8268 347.772 95.2448 349.137C97.0831 353.688 101.677 355.858 104.385 359.778C107.074 363.67 110.873 366.819 114.318 370.156C116.64 372.404 119.273 374.328 121.622 376.55C124.757 379.515 127.801 382.383 131.993 384.065C135.113 385.317 137.75 387.774 140.416 389.57C142.654 389.604 144.352 389.906 145.509 390.478C148.359 389.258 151.561 388.862 153.474 385.457C153.087 381.754 153.06 377.486 152.108 373.434C150.987 368.658 148.9 364.117 147.57 359.38C147.02 357.422 146.31 355.837 144.701 354.702C144.318 355.016 143.923 355.611 143.571 355.587C139.765 355.328 136.505 356.86 133.348 358.653C131.783 359.541 130.1 359.727 128.53 359.645C127.528 362.002 128.597 363.789 129.525 365.326C131.949 369.34 134.671 373.174 137.05 376.742V381.226C135.678 383.087 134.061 382.659 132.568 382.443C130.608 380.833 128.628 379.426 126.908 377.752C121.231 372.228 116.188 366.208 111.581 359.71C108.305 355.088 105.164 350.397 102.322 345.532C100.581 342.549 98.6875 340.026 95.9957 338.862C92.6733 338.078 89.9912 338.949 87.5711 340.014C86.2398 340.599 84.7838 341.003 83.8866 340.543C80.0755 338.59 76.2174 340.31 72.442 339.939ZM147.474 213.724C149.979 209.682 154.078 207.37 155.378 203.066C158.803 200.269 161.093 196.554 163.481 192.936C165.799 189.423 168.117 185.894 170.164 182.221C172.196 178.576 174.544 175.12 176.27 171.277C177.975 167.479 180.383 164.001 182.148 160.226C183.904 156.468 185.441 152.604 187.121 148.805C188.797 145.014 189.458 140.751 191.307 137.069C193.193 133.312 194.319 129.312 195.848 125.461C197.378 121.606 197.951 117.372 198.971 113.192C197.497 112.06 198.939 107.752 194.544 108.97C192.753 110.792 190.667 112.589 190.091 115.786C189.495 119.092 188.438 122.437 186.909 125.419C185.262 128.632 184.882 132.186 183.437 135.481C181.918 138.943 180.37 142.574 179.372 146.256C178.512 149.427 177.413 152.572 175.925 155.313C172.9 160.884 170.408 166.708 167.381 172.282C162.306 181.629 154.984 191.655 151.421 196.135C149.843 198.118 147.719 199.43 146.133 201.328C143.886 204.017 141.68 206.739 139.655 209.203C141.407 210.687 143.223 212.225 144.993 213.724L147.474 213.724ZM166.453 381.124C167.787 382.043 168.928 382.83 169.889 383.493H175.088C176.482 381.738 177.874 379.988 178.836 378.777C180.745 369.351 180.787 360.562 178.799 351.507C173.495 353.431 167.952 352.272 162.712 352.721C160.153 354.58 160.763 357.315 161.433 359.161C163.365 364.484 163.783 370.092 165.197 375.492C165.672 377.306 166.018 379.154 166.453 381.124ZM110.2 323.265C110.39 326.941 110.333 329.984 111.085 333.212C112.216 338.067 114.449 342.186 117.247 346.128C118.034 347.236 119.057 348.078 120.839 347.552C123.609 344.085 127.743 342.536 132.085 341.746C133.919 341.413 135.585 341.085 137.123 340.042C136.141 339.06 135.339 337.874 134.224 337.249C133.068 336.602 133.518 335.153 132.008 334.44C130.387 333.674 128.668 332.852 127.052 331.947C125.292 330.96 123.663 329.726 121.865 328.822C118.192 326.974 114.444 325.275 110.2 323.265ZM154.008 344.986C157.167 340.068 161.191 338.714 165.408 336.48H173.107C173.713 332.772 171.638 330.078 170.2 327.195C168.724 324.233 167.801 320.941 165.003 318.38C164.511 318.864 164.14 319.421 163.62 319.714C157.797 323.004 154.939 328.14 154.214 334.632C152.335 336.848 154.104 339.987 152.911 341.115C153.267 342.371 153.509 343.227 154.008 344.986ZM65.0977 167.408C64.8002 166.621 64.3228 165.915 64.2958 165.193C64.1522 161.35 65.1291 157.64 66.3255 154.075C68.1049 148.773 69.6751 143.275 74.1298 139.337C74.3532 139.14 74.1585 138.47 74.1585 137.809C69.7126 137.832 65.129 136.915 61.9253 140.757C60.6518 142.285 60.2845 144.568 59.5009 146.505C59.736 146.74 59.9711 146.975 60.3746 147.379C58.7676 149.584 58.8163 152.342 59.4351 154.708C59.886 156.432 59.7196 158.31 60.39 159.766C61.2669 161.671 60.58 163.848 61.4035 165.317C62.8997 167.986 61.1817 171.175 63.2616 173.545C62.9259 177.124 65.3672 180.048 65.4569 183.684C65.5288 186.601 67.2301 189.526 68.4643 192.335C68.8074 193.116 69.6908 194.545 70.9853 193.482C67.5527 185.373 65.6041 176.949 64.4748 168.085C64.5728 167.979 64.904 167.618 65.0977 167.408ZM51.1159 220.763C49.6166 223.338 48.4076 225.107 47.5411 227.031C47.1132 227.982 47.3173 229.216 47.2521 230.097C48.8084 232.048 49.8693 234.407 51.673 235.358C53.6123 236.38 56.0783 237.419 58.5091 236.671C60.4787 236.065 62.8001 236.105 64.1584 234.279C62.2426 232.65 59.8428 231.432 58.7379 229.482C56.9026 226.242 53.8317 224.393 51.1159 220.763ZM153.976 325.319C152.612 324.652 151.015 324.166 150.067 324.744C147.415 326.362 144.643 325.558 141.963 325.567C139.81 325.575 137.083 325.512 135.628 324.28C133.094 322.132 129.946 321.798 127.276 320.245C123.284 317.921 119.188 315.774 114.968 313.459C114.184 314.052 113.45 314.607 112.363 315.43C114.057 316.853 114.995 318.09 116.23 318.589C119.217 319.794 122.402 320.506 125.396 321.696C128.242 322.827 130.955 324.297 133.711 325.651C134.542 326.059 135.305 326.602 136.123 327.04C137.339 327.691 141.322 331.771 143.083 331.628C143.493 331.594 153.106 325.43 153.976 325.319ZM73.8743 126.749C72.5153 127.643 71.3595 128.403 69.174 129.84C75.2527 129.371 80.1241 130.246 85.0333 130.894C85.5929 129.789 85.9844 129.016 86.3289 128.336C82.2303 126.195 78.1315 126.913 73.8743 126.749ZM105.906 271.686H105.573V272.686H105.906V271.686Z" fill="black"/>
<path d="M123.52 186.628C126.082 185.411 128.454 184.285 131.148 183.006C131.329 185.483 131.172 188.217 131.24 191.157C130.077 192.972 128.512 194.813 127.637 196.938C126.628 199.391 123.705 199.531 122.87 201.737C121.467 201.366 120.284 200.869 119.068 200.772C116.996 200.609 115.203 199.729 114.22 198.106C112.672 195.549 110.183 193.653 109.201 190.709C108.963 189.995 108.148 189.488 107.829 188.782C107.462 187.968 107.351 187.038 107.09 186.01C112.906 184.792 118.271 187.767 123.52 186.628Z" fill="black"/>
<path d="M108.821 163.569C110.933 166.096 113.079 168.663 115.225 171.231C115.224 172.218 115.224 173.204 115.224 174.182C114.073 176.009 112.369 175.98 110.255 175.522C108.606 172.778 106.859 169.872 104.86 166.547C106.001 165.689 107.127 164.842 108.821 163.569Z" fill="black"/>
<path d="M122.337 161.7C125.92 163.908 127.03 167.391 128.354 171.182C127.204 171.997 125.966 172.873 124.847 173.666C121.752 172.104 121.545 168.769 120.353 166.124C119.708 164.694 119.793 162.486 122.337 161.7Z" fill="black"/>
<path d="M146.683 294.507C147.983 295.073 148.959 295.497 149.95 295.929C150.481 298.862 151.674 301.911 150.142 304.79C149.285 306.401 147.683 307.615 145.911 309.564C145.218 306.763 144.346 304.752 144.321 302.731C144.295 300.593 145.075 298.444 145.523 296.2C145.838 295.74 146.292 295.079 146.683 294.507Z" fill="black"/>
<path fill-rule="evenodd" clip-rule="evenodd" d="M115.654 131.846C116.229 131.271 116.969 130.888 117.766 130.727C146.996 124.81 169 98.9746 169 68C169 32.6538 140.346 4 105 4C69.6538 4 41 32.6538 41 68C41 98.5526 62.4088 124.105 91.0433 130.474C91.8108 130.644 92.5213 131.021 93.0774 131.577L101.672 140.172C103.234 141.734 105.766 141.734 107.328 140.172L115.654 131.846Z" fill="white"/>
<path d="M91.7177 130.5C96.1787 130.996 98.7374 142.111 104.908 142.765C111.431 143.457 109.718 129.778 131.718 125.5C158.561 120.281 171.572 100.924 172.718 70C173.964 36.3602 154.818 9 115.218 9C80.8804 9 53.4206 24.685 46.2176 59.5C40.2176 88.5 57.3447 118.657 76.7176 123.5" stroke="black" stroke-width="10" stroke-linecap="round"/>
<path d="M106.232 32C108.946 34.8837 110.635 44.1627 115.199 44.4163C118.267 44.5867 123.841 39.3315 125.393 40.0476C128.667 41.5589 123.997 49.9347 128.995 49.9347C133.3 49.9347 135.716 49.1874 139.342 46.639C139.452 46.5614 141.71 45.2226 141.756 45.2594C144.042 47.0882 139.003 60.5346 138.422 63.1174C137.232 68.4122 134.07 72.6902 131.371 77.3731C127.32 84.4037 124.244 93.3677 116.962 97.8754C115.021 99.0767 114.174 101.044 112.057 102.206C110.524 103.047 109.17 104.033 107.612 104.812C102.6 107.318 102.171 107.362 96.6898 103.815C91.0074 100.138 83.6428 97.3955 77.2606 95.1162C73.1371 93.6435 80.3003 86.1416 82.0509 83.7346C85.2679 79.3111 87.6648 74.2337 89.9835 69.2872C92.2373 64.4792 93.6634 59.5231 95.5785 54.6482C97.8498 48.8667 101.403 42.4421 101.403 36.1388" stroke="black" stroke-width="10" stroke-linecap="round"/>
<path d="M122.534 60.9241C121.914 54.7766 112.389 53.9677 109.13 58.3489C105.15 63.699 109.697 65.8459 113.636 67.6197C117.86 69.5212 116.686 75.0184 113.983 77.6345C108.804 82.6475 103.365 83.5862 96.5342 83.5862" stroke="black" stroke-width="10" stroke-linecap="round"/>
<path d="M117.779 50.5862C111.77 64.6638 104.643 78.5613 100.534 93.3534" stroke="black" stroke-width="10" stroke-linecap="round"/>
</svg>
