<svg width="187" height="607" viewBox="0 0 187 607" fill="none" xmlns="http://www.w3.org/2000/svg">
<path d="M186.078 393.571C186.046 392.435 186.371 390.923 185.776 390.243C184.505 388.791 186.583 388.15 186.153 386.882C185.445 384.792 184.95 382.643 185.026 380.322C185.183 375.476 183.269 370.993 180.647 367.218C178.38 363.955 175.489 360.698 171.647 359.052C166.936 357.033 162.4 354.132 156.873 354.897C156.407 354.961 155.917 354.847 155.514 354.821C155.089 354.396 154.736 354.043 154.088 353.395C154.39 351.014 153.339 348.242 155.13 345.896C154.741 345.043 154.181 344.346 154.171 343.641C154.162 342.937 154.933 342.227 154.939 341.516C154.944 340.838 154.126 340.131 154.18 339.48C154.237 338.81 154.911 338.193 155.214 337.713C154.653 336.941 154.288 336.439 153.906 335.912C154.382 335.238 154.742 334.73 155.104 334.221C154.82 332.657 153.094 331.341 154.897 329.408C155.6 328.654 155.683 326.538 154.073 325.416C155.922 324.246 155.519 322.053 154.962 320.96C153.573 318.233 154.316 315.513 154.133 312.807C154.01 310.998 153.679 308.975 154.316 307.4C155.109 305.436 153.223 303.897 154.103 302.146C152.423 299.444 153.345 296.439 153.097 293.568C152.877 291.028 153.602 288.46 152.229 285.921C151.712 284.963 152.607 283.241 152.906 281.612C152.714 281.064 152.345 280.209 152.116 279.319C151.417 276.606 150.881 273.846 150.08 271.164C148.844 267.025 148.073 262.564 145.935 258.925C143.658 255.05 142.299 250.334 137.759 248.044C140.621 244.546 143.7 241.908 146.147 238.6C152.674 229.775 157.165 220.347 157.132 209.135C157.129 208.246 157.548 207.355 157.673 206.855C157.462 205.542 157.221 204.515 157.164 203.478C157.138 203.019 157.658 202.527 157.628 202.069C157.524 200.475 157.347 198.881 157.085 197.305C156.829 195.765 156.396 194.255 156.112 192.718C155.739 190.699 155.841 188.477 155.003 186.686C153.898 184.324 152.197 182.232 151.297 179.722C151.09 179.144 150.941 178.497 150.575 178.03C149.091 176.13 147.592 174.235 145.986 172.438C144.374 170.634 142.936 168.591 141.283 166.96C138.552 164.266 135.167 162.13 131.32 161.03C129.985 160.647 128.652 160.24 127.35 159.758C122.189 157.846 117.083 155.843 111.403 156.01C105.341 156.188 99.2092 155.466 93.3142 158.236C93.3669 158.033 93.4065 157.853 93.4514 157.662C83.5412 162.012 74.8518 167.557 68.1492 175.927C68.1492 176.001 68.1487 176.076 68.1487 176.15C67.1868 178.018 66.6062 179.686 65.5769 181.004C64.3787 182.537 63.4387 184.026 63.0979 186.003C62.7595 187.963 60.6741 189.386 61.1521 191.678C59.1077 194.614 61.197 198.405 59.1536 201.341C59.1682 210.639 58.8162 219.871 63.0306 228.715C66.1209 235.199 67.9593 239.284 72.0975 243.435C72.8807 244.221 73.6517 245.018 74.6185 246.004C73.7835 246.841 73.3221 247.632 72.6444 247.929C67.2577 250.289 63.5741 254.55 60.4911 259.256C58.2138 262.731 55.9349 266.269 54.3905 270.199C53.2089 273.204 51.952 276.194 50.4911 279.07C49.0829 281.843 47.8344 284.585 47.0438 287.654C46.1659 291.064 46.118 294.805 43.8382 297.804C43.4808 298.274 43.2684 298.923 43.179 299.518C42.3133 305.289 39.47 310.715 40.1609 316.757C40.1799 316.921 40.2058 317.103 40.157 317.254C38.2722 323.104 38.8211 325.532 41.9002 333.192C42.1883 333.909 42.1722 334.748 42.3025 335.562C43.4524 336.712 44.6951 337.834 45.7703 339.098C46.1238 339.515 46.0428 340.301 46.2054 340.866C46.5233 341.046 46.7952 341.278 47.0672 341.511C46.9622 341.616 46.8572 341.721 46.7523 341.826C46.5199 341.554 46.2879 341.281 46.0555 341.009C46.1204 340.944 46.1859 340.879 46.2054 340.866C41.4647 339.388 36.8563 337.417 32.0457 336.469C28.285 335.728 24.1687 335.678 20.4002 336.364C15.369 337.278 10.783 339.614 7.58668 343.98C7.00368 344.777 6.10958 345.343 5.50218 346.126C4.34158 347.622 2.80198 349.05 2.27468 350.768C0.758081 355.71 -1.32692 360.681 1.13748 366.007C1.77858 367.392 2.18728 369.056 2.11458 370.564C1.95398 373.875 3.33238 376.87 4.57208 379.563C8.52028 388.139 12.7533 396.634 18.2327 404.378C21.68 409.249 24.6223 414.44 28.0906 419.29C28.1077 423.983 29.2913 428.359 32.2205 432.047C33.4695 433.62 35.2967 434.734 36.8626 436.054C41.826 440.239 47.3816 442.939 54.0325 442.848C56.5955 442.812 59.2356 443.316 60.9339 442.171C61.9461 442.653 62.7064 443.015 63.4222 443.356C62.8675 444.413 62.3387 445.058 62.1844 445.782C61.7572 447.789 61.3402 449.819 61.1917 451.859C61.0286 454.092 60.4744 456.319 60.3382 458.449C60.0589 462.819 58.4036 467.067 59.1336 471.515C59.2361 472.14 59.2488 472.891 58.9979 473.445C57.6615 476.388 57.9857 479.641 57.1747 482.68C56.7738 484.183 56.5883 485.743 56.2816 487.404C56.4803 487.62 56.8104 487.978 57.0082 488.192C56.0228 490.424 55.0795 492.539 55.1337 495.008C55.1889 497.485 55.5468 500.098 54.9115 502.416C53.9384 505.97 53.7894 509.597 53.2186 513.174C52.6097 516.989 52.4896 520.882 52.159 524.741C52.1448 524.906 52.2249 525.172 52.1473 525.226C49.8978 526.782 52.4178 529.868 50.158 531.407V538.401C50.158 539.567 50.5994 541.012 50.0721 541.844C48.7039 544.003 49.0394 546.296 49.2454 548.47C49.4705 550.843 48.1228 552.849 48.2166 555.057C48.3094 557.236 48.8724 559.396 49.0594 560.533C51.637 564.992 55.2093 566.518 58.8568 567.666C60.1893 568.086 61.8988 567.308 63.7162 567.034C70.1254 570.1 73.3544 564.932 77.1439 561.239C77.1439 560.796 77.0492 560.427 77.159 560.136C77.9407 558.07 78.9788 556.036 77.1859 553.928C77.0589 553.779 77.7128 553.11 77.682 552.707C77.62 551.894 76.9203 550.66 77.2201 550.375C78.226 549.42 78.2015 548.36 78.1405 547.212C77.9003 542.67 78.4139 538.213 79.6703 533.532C83.2567 534.563 86.8246 535.588 90.4769 536.638C91.1019 536.364 91.8983 536.015 93.6302 535.256C92.3763 537.875 93.8646 539.471 93.2957 541.585C92.7566 543.586 93.5477 545.945 93.8011 548.651C93.7269 548.769 93.3187 549.416 92.9383 550.02C93.4559 550.577 93.7894 550.935 94.1136 551.284C93.785 551.639 93.4515 551.999 92.9515 552.539C93.2845 553.133 93.6429 553.772 93.7806 554.017C93.5189 555.244 93.1737 556.142 93.1615 557.044C93.1034 561.373 93.2006 565.704 93.0975 570.032C93.0648 571.409 92.5848 572.776 92.3709 573.843C92.8782 576.009 93.3406 577.965 93.7938 579.923C94.3138 582.169 96.3397 583.196 97.5838 584.719C99.5643 585.081 101.524 585.16 103.257 585.827C105.259 586.599 107.077 585.844 108.947 585.702C110.821 585.56 112.947 586.679 114.559 584.824C117.007 585.379 117.972 582.656 119.906 582.37C120.437 581.186 120.718 579.865 121.497 578.988C122.593 577.755 122.485 575.925 121.969 575.345C120.726 573.951 121.159 572.531 121.151 571.141C121.094 561.316 121.164 551.49 121.087 541.665C121.07 539.514 121.426 537.572 122.537 535.916C123.1 536.211 123.642 536.728 124.207 536.754C127.583 536.909 130.677 535.686 133.795 534.611C134.765 534.277 135.733 533.936 136.614 533.628C137.196 535.719 137.862 537.34 138.058 539.015C138.288 540.986 137.787 543.077 138.21 544.982C138.578 546.642 138.043 548.187 138.245 549.653C138.493 551.454 139.601 552.915 138.595 555.049C138.104 556.089 139.783 557.997 138.477 559.239C138.764 560.264 139.014 561.155 139.441 562.674C140.843 563.761 142.729 565.222 144.584 566.66C146.556 567.289 148.888 565.746 150.63 567.746C151.541 565.892 152.527 568.272 153.288 567.74C155.362 566.29 157.991 566.552 160.195 564.955C162.058 563.605 161.93 561.031 164.098 560.408C164.098 558.599 163.591 556.696 164.23 555.33C164.98 553.728 162.15 552.868 163.873 551.507C162.805 550.15 163.205 548.544 163.088 547.019C162.905 544.64 163.31 542.313 162.243 539.875C161.336 537.802 162.622 535.122 161.203 532.795C160.826 532.176 161.715 530.787 161.903 530.155C161.594 528.439 161.204 527.074 161.124 525.691C160.737 519.004 160.507 512.307 160.056 505.625C159.919 503.594 158.537 501.688 159.133 499.551C159.351 498.772 159.733 498.418 159.319 497.29C158.529 495.137 158.742 492.639 158.279 490.257C157.592 486.727 158.112 482.965 158.098 479.301C158.085 475.596 156.188 472.046 157.394 468.043C157.651 467.786 158.123 467.314 158.593 466.843C164.506 467.448 168.423 463.166 173.053 460.76C176.829 458.799 179.284 455.326 180.831 451.356C181.247 449.046 181.922 446.721 182.027 444.37C182.171 441.143 183.817 438.099 183.088 434.795C184.684 432.793 184.209 430.408 184.011 428.222C183.796 425.863 184.943 423.845 185.065 421.633C185.376 415.941 184.539 410.218 185.995 404.539C186.556 402.351 186.087 399.899 186.087 397.568C186.087 396.236 186.115 394.902 186.078 393.571ZM147.025 398.196V400.712H143.602C144.89 399.765 145.659 399.2 147.025 398.196ZM73.3816 216.46C72.967 214.328 73.093 212.178 72.3445 209.912C71.7268 208.045 71.885 205.639 72.9646 203.322C73.8528 201.417 73.1458 198.768 73.1458 196.817C73.9275 195.426 75.0135 194.354 75.0413 193.256C75.0916 191.238 75.6858 189.532 76.7434 187.936C79.6443 183.558 81.9153 178.651 86.2751 175.436C91.6013 171.508 97.2453 168.2 104.157 168.032C106.664 166.227 109.704 166.634 112.169 167.256C114.045 167.73 115.917 167.732 116.792 167.931C120.205 169.441 122.76 170.513 125.261 171.698C126.795 172.425 128.259 173.304 129.731 174.155C130.676 174.702 132.072 175.127 132.397 175.95C133.107 177.749 134.996 178.057 135.947 179.39C137.311 181.298 139.019 183.136 139.752 185.286C141.605 190.716 144.575 195.938 144.062 201.944C143.817 204.801 145.267 207.872 143.109 210.515C143.425 213.304 142.016 215.712 141.477 218.293C140.631 222.345 138.177 225.271 136.129 228.592C132.52 234.443 126.813 237.416 121.11 240.446C118.2 241.992 115.034 242.874 111.687 243.005C110.632 243.046 109.588 243.349 108.251 243.582C105.746 241.719 102.237 243.922 99.2043 242.588C96.2522 241.29 93.0227 240.713 90.2043 239.01C87.4353 237.337 84.967 235.36 82.6662 233.081C80.2516 230.69 78.1257 228.105 76.7477 225.034C75.4948 222.24 74.6189 219.276 73.3816 216.46ZM57.324 379.857C54.158 378.675 51.0428 377.359 47.8914 376.137C43.5931 374.469 39.3157 372.731 34.948 371.265C33.4602 370.766 31.7239 371.034 30.1067 370.888C28.9055 370.779 27.7136 370.567 26.5193 370.401C26.2918 372.206 22.9944 373.203 24.9656 377.227C26.6243 378.972 29.6389 381.069 34.0369 382.374C35.5457 385.165 39.8338 386.134 41.6502 389.761C41.9651 390.39 43.2566 390.793 44.1204 390.836C46.8011 390.971 48.4744 392.641 50.1155 394.34C50.3167 397.763 50.2962 401.099 48.4392 404.147C48.1365 404.644 48.1731 405.389 48.1702 406.021C48.1497 410.51 48.0515 415.003 48.2054 419.487C48.2801 421.662 48.9764 423.74 50.3158 425.592C50.8886 426.383 51.0121 427.5 51.3124 428.387C49.3769 429.506 49.0497 427.793 48.1273 427.374C47.2919 426.994 46.3421 426.865 45.1395 426.544C45.1957 423.714 47.806 420.516 44.3861 417.892C44.139 417.831 43.6898 417.719 43.2167 417.602V415.926C41.4481 413.614 39.9291 411.551 38.3305 409.551C32.2436 401.938 27.4701 393.444 22.2924 385.238C20.5419 382.464 19.4408 379.128 18.0898 376.033C16.978 373.485 15.6455 371.104 14.8925 368.351C14.5575 367.126 14.3852 365.915 14.1567 364.686C13.9902 363.788 13.6362 362.924 13.29 361.798C13.5068 361.242 14.0185 360.409 14.1489 359.52C15.0683 353.255 18.6494 349.952 24.747 349.927C30.1713 349.906 35.2363 351.689 40.2109 353.536C44.9633 355.3 49.6479 357.253 54.4409 358.923C56.0342 359.479 57.562 360.222 59.0625 360.856C57.8208 366.528 57.5659 371.407 59.1196 376.365C58.8447 376.666 58.5151 377.026 58.2597 377.306C58.6288 377.984 58.9882 378.645 59.54 379.659C58.5322 379.765 57.8386 380.05 57.324 379.857ZM59.6165 334.016C59.1951 333.877 58.6448 333.853 58.3382 333.568C56.9979 332.321 55.7283 330.999 54.3196 329.59C53.7088 326.842 53.0696 323.964 52.3894 320.904C52.9778 315.878 55.5901 310.942 55.1609 305.769C56.6785 302.858 57.824 300.24 58.2571 297.185C58.6633 294.322 59.7439 291.503 60.8611 288.802C62.8601 283.971 64.5935 279.051 67.0227 274.36C69.6086 269.365 71.8225 264.242 75.0032 261.744C77.802 259.545 80.197 256.537 83.7537 255.912C89.6468 259.251 95.4178 261.926 102.07 261.977C103.342 261.986 104.495 262.375 105.717 262.77C107.349 263.298 109.403 263.062 111.395 262.391C113.879 261.555 116.7 261.726 119.314 260.987C122.93 259.966 126.492 258.874 129.585 256.152C132.732 258.108 134.032 261.752 134.853 264.865C135.644 267.865 137.393 270.563 137.548 273.808C137.673 276.431 138.719 278.996 139.08 281.624C139.953 288 140.363 294.411 140.151 300.857C140.133 301.399 140.688 301.961 140.994 302.547C140.765 302.792 140.43 303.151 139.912 303.708C140.294 304.313 140.702 304.96 141.268 305.858C140.927 306.398 140.519 307.044 139.998 307.87C140.336 308.448 140.723 309.111 141.176 309.885C141.005 310.236 140.802 310.651 140.44 311.392C140.785 312.409 142.003 313.817 140.402 315.145C141.211 316.655 141.558 318.155 140.293 319.615C142.012 320.938 140.031 322.892 140.56 323.625C141.916 325.508 140.58 326.619 140.061 328.152C140.382 328.596 140.746 329.101 141.094 329.585C139.126 334.35 141.074 339.453 139.97 344.143C138.66 349.711 139.267 355.221 139.216 360.744C139.196 362.921 138.405 364.789 138.089 366.818C137.797 368.683 138.433 370.485 137.299 372.506C136.329 374.234 136.591 376.82 136.285 379.004C135.161 387.031 130.33 392.122 124.106 396.396C120.355 396.844 117.196 399.094 113.558 399.864C111.551 400.289 109.519 400.673 107.479 400.844C105.495 401.01 103.482 400.799 101.489 400.896C96.6273 401.133 92.0814 400.013 87.6995 397.987C87.1468 397.732 86.4031 397.89 86.1175 397.875C84.4232 396.73 82.8265 395.919 81.5677 394.747C78.3953 391.792 75.8275 388.569 74.972 383.974C74.5653 381.79 73.7323 379.467 73.2874 377.25C72.7088 374.369 73.1458 371.285 73.1458 368.288V356.301C73.1458 354.304 72.7483 352.196 73.2625 350.34C73.7361 348.633 72.5198 346.878 73.2601 345.715C74.4662 343.818 74.033 341.953 74.1263 340.062C74.2157 338.235 73.6707 336.236 74.2376 334.601C75.7415 330.26 74.4417 325.777 75.2596 321.52C76.1644 316.81 75.722 312.09 76.3138 307.45C76.5911 305.272 77.0135 303.083 77.182 300.853C77.3363 298.813 77.9569 296.808 78.1049 294.768C78.2724 292.45 78.1366 290.109 78.1488 287.779C78.1517 287.296 78.0341 286.611 78.2967 286.363C80.4329 284.353 78.6707 282.51 78.0882 280.69C78.512 280.113 78.8802 279.611 79.4486 278.837C78.8685 278.225 78.3348 277.662 77.7704 277.067H73.4633C72.4057 280.747 70.0527 283.731 69.0888 287.371C68.1376 290.962 67.4701 294.717 66.0112 298.071C64.5434 301.446 64.4023 305.028 63.3647 308.447C62.2651 312.07 62.9458 316.208 62.0293 319.919C61.0718 323.796 61.293 327.632 61.1455 331.039C60.5195 332.258 60.0906 333.092 59.6165 334.016ZM74.3342 457.053C74.2165 458.628 74.176 459.103 74.1462 459.579C73.9724 462.337 74.259 465.229 73.5012 467.815C72.7297 470.448 74.1018 473.316 72.219 475.782C71.7371 476.412 72.1467 477.723 72.1467 478.722C72.1467 481.218 72.365 483.739 72.0827 486.203C71.82 488.502 70.4826 490.776 70.634 492.991C70.757 494.793 70.5861 496.308 70.2683 498.057C69.5505 502.009 69.5315 506.085 69.1282 510.101C68.9065 512.304 68.3958 514.478 68.1736 516.681C67.9671 518.734 68.3469 520.761 67.2434 522.806C66.3855 524.396 68.0583 526.739 66.1746 528.321C67.9964 529.664 64.6043 531.898 66.9988 533.143C64.8147 535.865 67.4329 539.475 65.2678 542.316C64.7043 543.056 65.2654 544.585 65.1282 545.73C64.8645 547.929 64.6233 550.153 64.0462 552.278C63.8509 552.997 62.6697 553.448 61.3065 554.519C61.243 552.074 61.577 550.207 61.0545 548.623C60.4295 546.731 63.7151 545.169 61.2523 543.387C62.6717 541.908 61.9461 540.048 62.1644 538.352C62.3836 536.644 61.3636 534.688 63.1239 533.288C62.7938 532.928 62.4628 532.567 62.0277 532.094C62.3924 531.286 63.0301 530.47 63.1083 529.603C63.5326 524.923 63.7631 520.226 64.1747 515.544C64.3685 513.34 64.2685 510.858 65.2699 509.032C67.0844 505.724 64.8934 501.883 67.1493 498.811C65.8358 496.59 67.0775 494.25 67.3764 492.183C67.6933 489.995 68.4223 487.749 68.0229 485.597C67.7983 484.387 70.1606 483.483 68.206 482.384C69.5097 481.46 69.0971 480.082 69.1484 478.828C69.2002 477.556 68.8486 476.238 70.0981 475.189C70.4262 474.913 70.1328 473.916 70.1499 473.251C70.2944 467.64 72.2305 462.243 72.147 456.604C73.8677 455.07 72.7525 452.902 73.6734 451.42C73.9595 450.858 74.2462 450.295 74.6963 449.411C75.1646 451.968 75.5288 453.958 75.9976 456.516C75.5484 456.661 74.5329 456.989 74.3342 457.053ZM92.6052 523.755C89.8186 523.059 86.9197 522.334 83.4538 521.468C84.4811 520.222 85.1364 518.856 85.6393 518.91C88.6627 519.233 90.7833 515.322 94.0714 517.183C92.6632 518.279 94.2067 519.25 94.1954 520.292C94.1808 521.695 94.0324 522.875 92.6052 523.755ZM93.4461 501.961C90.2327 503.404 86.9871 504.775 83.719 506.182C83.0896 504.29 82.6028 502.827 82.0164 501.063C85.9466 500.834 88.9876 498.614 92.4842 496.41C93.1732 497.984 93.762 499.328 94.3655 500.707C93.9915 501.237 93.8084 501.798 93.4461 501.961ZM84.2629 487.431V482.17C85.8894 479.231 86.0192 479.43 93.9719 475.932V485.387C90.6208 486.092 87.4865 486.752 84.2629 487.431ZM91.9172 465.881C90.5647 466.177 88.591 466.608 86.0695 467.159C86.5099 464.268 85.3844 461.815 87.0168 459.304C87.6237 458.37 87.6755 456.262 87.0271 455.495C85.592 453.797 86.4182 452.043 86.0715 450.098H95.0632C95.7234 454.318 92.2785 458.725 95.6023 463.027C94.3489 463.998 93.3264 464.79 91.9172 465.881ZM109.04 569.381C108.622 569.845 108.11 570.413 107.418 571.18C106.586 570.537 105.973 570.063 105.375 569.601C106.096 567.675 106.049 566.892 105.196 565.124C105.526 563.808 106.049 562.614 106.087 561.404C106.202 557.746 106.704 553.968 106.007 550.444C104.617 543.414 105.306 536.386 105.161 529.362C105.016 522.374 105.031 515.379 105.174 508.392C105.236 505.362 105.86 502.347 106.079 499.314C106.129 498.625 105.56 497.891 105.273 497.173C105.614 495.572 106.079 494.366 106.094 493.154C106.169 486.83 105.975 480.5 106.183 474.182C106.318 470.053 106.978 465.942 107.643 461.855C107.804 465.117 107.683 468.426 108.21 471.627C108.707 474.654 109.439 477.627 109.096 480.711C109.032 481.289 108.567 481.822 108.332 482.286C108.586 482.956 109.088 483.667 109.092 484.38C109.143 494.866 109.054 505.354 109.231 515.837C109.25 516.99 107.633 517.688 108.81 519.176C109.471 520.012 109.085 521.696 109.119 523C109.155 524.33 109.127 525.663 109.127 526.994C109.127 528.992 109.144 530.989 109.122 532.986C109.099 535.132 109.542 537.462 108.843 539.367C108.223 541.056 110.566 543 108.169 544.245C109.704 546.105 109.537 548.036 108.404 550.006C109.813 551.369 107.817 553.198 109.055 554.7C109.341 555.047 108.64 556.127 108.54 556.889C108.424 557.778 108.293 558.727 108.479 559.582C108.821 561.146 108.827 562.348 108.078 563.995C108.404 564.453 108.765 564.961 109.296 565.706C108.946 566.26 108.536 566.906 108 567.753C108.278 568.189 108.611 568.71 109.04 569.381ZM128.139 457.852C128.038 456.205 128.117 454.547 128.117 452.894V447.952H129.745C130.98 450.651 129.389 453.576 130.95 456.443C132.155 458.655 130.322 461.868 131.916 464.53C131.752 464.709 131.423 465.067 130.925 465.611C131.199 466.086 131.485 466.582 131.54 466.677C131.171 467.735 130.888 468.548 130.606 469.361C130.288 469.33 129.97 469.298 129.652 469.267C129.401 468.42 129.15 467.572 128.899 466.725C128.555 466.936 128.212 467.146 127.868 467.357C128.153 465.816 128.633 464.279 128.67 462.731C128.708 461.111 128.239 459.485 128.139 457.852ZM130.429 483.413C129.666 483.662 129.067 483.856 128.469 484.051C128.625 484.258 128.782 484.464 128.939 484.67H120.466C119.934 484.138 119.584 483.788 119.164 483.368C119.565 481.969 119.982 480.519 120.525 478.626C122.804 482.189 126.889 481.396 130.429 483.413ZM119.634 525.248C120.313 523.782 120.706 523.18 120.864 522.521C121.026 521.847 119.728 521.125 120.955 520.333C121.138 520.214 120.615 519.002 120.346 518.035C120.576 517.857 121.086 517.465 121.66 517.023C125.058 517.763 128.263 518.46 132.226 519.322C131.999 519.044 132.344 519.405 132.612 519.816C132.861 520.198 133.027 520.633 133.287 521.164C128.929 522.467 124.722 523.726 119.634 525.248ZM131.913 505.777C130.867 505.594 129.881 505.1 128.847 504.825C127.945 504.586 126.883 504.68 126.128 504.23C125.274 503.721 124.345 505.45 123.555 503.875C123.232 503.23 121.97 503.056 121.223 502.708V497.775C125.563 497.988 129.801 497.866 133.819 495.88C136.509 498.684 134.389 502.182 135.384 505.811C133.838 505.811 132.85 505.94 131.913 505.777ZM147.94 506.63L147.32 506.673C147.238 505.456 147.156 504.239 147.074 503.022L147.94 502.979V506.63ZM148.121 498.937C148.013 499.861 148.107 500.808 148.107 501.745C146.959 498.388 145.781 495.151 146.049 491.581C146.312 488.059 144.797 484.68 144.998 481.045C145.183 477.728 144.302 474.366 144.146 471.013C143.979 467.397 144.109 463.767 144.109 458.946C145.132 460.864 145.615 461.768 146.129 462.731C145.618 464.166 144.035 465.476 145.798 467.056C145.997 467.235 146.074 467.617 146.098 467.914C146.445 472.254 147.006 476.593 147.05 480.937C147.112 486.962 148.831 492.874 148.121 498.937ZM151.956 414.894C151.067 416.634 150.366 418.007 149.218 420.255C148.304 421.169 146.658 422.814 144.609 424.864C144.24 424.864 143.103 424.529 142.744 424.917C139.817 428.068 135.673 428.956 131.967 430.255C128.814 431.36 125.583 433.181 122.074 432.761C120.573 432.582 119.852 434.725 118.103 433.512C117.42 433.038 115.946 433.783 114.825 433.839C113.333 433.914 111.824 433.755 110.343 433.902C109.621 433.974 108.947 434.514 108.013 434.955C107.625 434.679 107.121 434.319 106.357 433.774C104.947 434.227 103.221 435.962 101.522 433.858C99.3045 435.111 97.1097 433.46 94.8651 433.83C89.805 434.663 85.2303 432.106 80.3568 431.574C79.2977 430.101 77.638 431.102 76.2797 430.587C72.1864 429.037 66.4413 425.205 63.5414 421.788C62.7997 420.913 61.848 420.217 61.3515 419.766V407.672C63.6577 408.857 66.1025 409.489 67.6303 411.03C70.6176 414.042 74.6879 414.191 78.1742 415.805C81.3998 417.299 85.2992 416.699 88.4501 418.68C90.539 416.677 92.3607 419.529 94.5551 418.987C96.7485 418.445 99.1801 418.868 101.507 418.868C104.499 418.868 107.492 418.898 110.483 418.857C112.612 418.829 115.156 419.404 116.759 418.446C118.719 417.276 121.204 419.096 122.621 416.869C125.632 416.496 128.642 416.123 131.652 415.75L131.526 415.395C134.157 414.554 136.806 413.769 139.411 412.855C141.729 412.042 143.995 411.081 146.288 410.196C148.127 409.485 149.76 408.609 150.155 406.387C150.203 406.118 150.924 405.968 151.956 405.45L151.956 414.894ZM171.937 386.619C172.187 387.127 172.458 387.679 172.773 388.318C172.579 388.984 172.162 389.81 172.127 390.652C172.03 392.978 171.982 395.317 172.113 397.639C172.793 409.68 170.936 421.646 171.094 433.669C169.733 437.266 170.204 441.025 170.043 444.735C170.006 445.583 169.308 446.401 168.81 447.455C167.006 448.706 165.089 450.454 162.84 451.467C160.811 452.382 159.049 454.432 156.291 453.724C156.087 447.524 154.265 441.489 155.333 435.036C157.903 433.795 159.103 431.063 160.847 428.736C162.718 426.241 163.213 423.386 164.174 420.6C165.16 417.741 165.189 414.888 165.06 412.004C164.94 409.3 165.738 406.541 164.192 403.875C163.613 402.879 164.216 401.253 164.061 399.94C163.936 398.884 163.479 397.868 163.089 396.569C164.889 394.341 166.578 392.251 168.224 390.213C167.383 388.492 166.641 386.973 165.655 384.957C163.824 384.654 161.265 383.472 159.261 384.09C156.655 384.894 154.167 384.685 151.614 384.922C151.148 384.429 150.692 383.947 150.229 383.458C153.043 378.814 151.634 373.013 154.18 367.997C158.798 367.438 163.071 368.898 166.655 371.207C169.986 373.352 171.708 377.175 172.095 381.324C172.226 382.729 171.541 384.336 173.072 385.391C172.74 385.749 172.408 386.109 171.937 386.619Z" fill="#5731A7"/>
<path fill-rule="evenodd" clip-rule="evenodd" d="M121.654 127.846C122.229 127.271 122.969 126.888 123.766 126.727C152.996 120.81 175 94.9746 175 64C175 28.6538 146.346 0 111 0C75.6538 0 47 28.6538 47 64C47 94.5526 68.4088 120.105 97.0433 126.474C97.8108 126.644 98.5213 127.021 99.0774 127.577L107.672 136.172C109.234 137.734 111.766 137.734 113.328 136.172L121.654 127.846Z" fill="white"/>
<path d="M97.4999 126.5C101.961 126.996 104.52 138.111 110.69 138.765C117.213 139.457 115.5 125.778 137.5 121.5C164.343 116.281 177.355 96.9237 178.5 66C179.746 32.3602 160.6 5 121 5C86.6626 5 59.2028 20.685 51.9998 55.5C45.9999 84.5 63.1269 114.657 82.4999 119.5" stroke="#5731A7" stroke-width="10" stroke-linecap="round"/>
<path d="M79.9556 59.5143C87.2701 52.4149 97.9244 57.3233 106.78 55.925C114.71 54.6729 122.553 52.165 129.591 48.2628C134.288 45.6583 138.79 43.353 142.982 40" stroke="#5731A7" stroke-width="10" stroke-linecap="round"/>
<path d="M142.88 40.2134C147.651 46.4766 150.481 54.7689 155.488 60.5252" stroke="#5731A7" stroke-width="10" stroke-linecap="round"/>
<path d="M76 61.8878C77.6158 65.8835 78.9532 69.7847 80.0728 73.9304C80.8217 76.7033 82.0275 79.3644 82.6513 82.1639C82.7402 82.5628 83.069 86.7014 83.6475 86.6762C85.3868 86.6006 87.0526 85.4016 88.6579 84.8303C91.4943 83.8207 94.8657 84.3028 97.8291 84.3028C101.636 84.3028 105.381 84.7746 109.168 84.8303C119.687 84.9849 131.596 85.5021 140.403 78.5892C144.307 75.5246 147.498 72.6211 149.838 68.2753C150.822 66.4482 153.754 62.1757 155.488 60.8755" stroke="#5731A7" stroke-width="10" stroke-linecap="round"/>
<path d="M118.71 61.8339C115.329 62.0869 110.57 61.8462 108.699 65.0937C106.137 69.5401 111.173 72.6634 114.86 74.7934C118.706 77.0152 124.921 76.177 127.182 72.2094C131.265 65.0438 119.092 58.2572 112.164 60.4028" stroke="#5731A7" stroke-width="10" stroke-linecap="round"/>
<path d="M136 47C136.966 48.265 138.829 48.972 140.81 48.972C141.361 48.972 142.054 49.0504 142.588 48.9447C143.102 48.8428 143.451 48.479 144 48.479" stroke="#5731A7" stroke-width="10" stroke-linecap="round"/>
<path d="M152 59C150.615 59.9425 148.271 61.0704 147.501 62.403C146.881 63.4754 146.801 65.2447 147.46 66.2985C147.774 66.8018 148.519 67.5347 149.227 67.806C149.494 67.9087 149.65 67.8095 149.781 68" stroke="#5731A7" stroke-width="10" stroke-linecap="round"/>
<path d="M83 80.5854C86.3783 78.9275 90.6359 77.2282 93 83" stroke="#5731A7" stroke-width="10" stroke-linecap="round"/>
<path d="M80 65C83.0166 63.3241 85.1754 60.6651 86 57" stroke="#5731A7" stroke-width="10" stroke-linecap="round"/>
</svg>
