<svg width="207" height="534" viewBox="0 0 207 534" fill="none" xmlns="http://www.w3.org/2000/svg">
<circle cx="96" cy="213" r="40" fill="white"/>
<path d="M185.372 439.536C173.453 419.965 160.001 401.714 143.893 385.377V384.392C142.646 383.151 141.61 382.121 140.575 381.092C140.823 380.907 141.071 380.722 141.32 380.536C140.668 378.479 140.017 376.422 139.366 374.364C139.209 374.41 139.052 374.455 138.896 374.501C138.896 372.842 138.718 371.157 138.948 369.531C139.161 368.021 139.809 366.573 140.331 364.885C140.35 364.889 142.729 355.974 142.674 355.974C144.179 348.195 146.361 340.896 148.226 333.097C149.024 332.566 150.105 331.474 151.405 331.045C156.862 329.247 160.399 325.378 163.656 320.878C165.398 318.471 165.157 315.466 166.881 313.196C167.742 305.545 166.071 298.497 160.918 292.743C159.009 290.61 156.531 288.759 153.816 287.356C151.073 285.939 148.931 283.652 145.649 282.881C142.725 282.193 139.954 280.505 137.373 278.855C136.163 278.082 135.559 276.36 134.69 275.081C137.328 270.951 139.931 267.058 142.343 263.049C145.082 258.498 148.565 254.464 151.04 249.691C152.224 247.409 153.963 245.22 155.529 243.076C158.039 239.638 159.731 235.795 161.905 232.206C166.16 225.181 168.936 217.36 173.733 210.615C175.135 208.643 176.133 206.261 176.795 203.92C177.45 201.6 180.301 200.461 179.874 197.694C183.354 192.362 185.922 186.51 189.247 180.737C189.281 180.912 189.315 181.272 189.347 181.772C199.586 164.128 222.579 122.279 186.883 121.125C183.168 121.005 180.221 123.091 177.572 125.105C173.742 128.018 171.542 132.346 169.903 136.848C169.111 139.024 167.273 140.902 167.88 143.506C164.54 148.639 164.342 155.017 161.242 160.244C161.651 162.718 159.195 163.948 158.709 166.225C158.117 168.996 155.894 171.379 154.977 174.13C154.035 176.955 151.606 179.046 151.348 182.128C147.682 187.358 145.231 193.278 141.982 198.751C141.386 199.755 141.072 200.712 139.895 200.826V203.568C139.032 204.434 137.906 205.563 136.991 206.482C136.865 207.579 136.778 208.342 136.676 209.239C134.687 208.847 133.794 207.943 133.897 206.182C134.843 203.244 138.112 203.032 139.895 200.826C139.994 199.026 142.082 196.989 139.916 194.905C139.75 194.745 139.92 194.26 139.891 193.929C139.619 190.847 138.472 186.786 136.867 184.7C133.59 180.439 130.968 175.707 126.122 172.673C120.031 168.86 112.352 166.028 105.839 166.094C99.3118 166.161 92.7505 165.614 86.0176 167.564C85.6109 167.888 84.8653 168.988 84.0916 169.008C81.1343 169.085 79.4161 171.002 77.6805 172.883C76.1612 174.529 74.8294 176.349 73.4141 178.092C71.0069 178.1 68.6543 178.06 66.3116 179.042C62.0172 180.842 57.9981 183.048 55.0479 186.667C54.441 187.412 54.5306 188.4 53.1338 187.848C52.4317 186.149 52.8718 184.266 52.1043 182.355C49.7701 176.546 49.2269 170.211 47.9502 164.088C47.2451 160.708 46.8621 157.237 45.8599 153.951C45.1333 151.567 44.418 149.198 43.9512 146.757C42.8089 140.784 40.5926 135.132 37.8235 129.82C35.7764 125.893 33.0469 122.266 29.6216 119.171C25.3986 115.355 20.4713 114.316 15.3581 115.411C11.0561 116.333 7.08034 118.612 4.26094 122.33C2.24674 124.988 -0.180756 132.184 0.0106441 135.541C0.0890441 136.916 1.00604 138.295 0.897644 139.62C0.585644 143.442 2.59734 146.608 3.44694 150.091C4.99334 156.429 8.60444 161.938 10.6149 168.118C11.944 172.202 13.8722 176.125 14.9015 180.315C15.5328 182.884 16.3331 185.467 17.1525 187.901C18.5871 192.165 19.3776 196.585 20.8522 200.837C22.6293 205.961 23.3229 211.457 25.0612 216.598C26.2109 219.996 26.8913 223.492 27.8454 226.914C29.1774 231.693 30.6179 236.44 32.0622 241.069C29.3381 244.733 27.5317 248.656 25.9284 252.714C23.9865 257.63 23.8525 262.714 23.9091 267.887C23.9411 270.809 24.8171 273.472 25.6188 276.191C27.6928 283.225 32.0441 289.174 34.9501 296.191C34.9501 296.811 34.8468 297.823 34.9672 298.807C35.6364 304.274 33.3688 308.419 29.4704 312.05C26.0519 315.234 22.0344 315.914 17.5993 316.075C13.8867 316.209 11.5522 314.296 9.31374 311.862C8.66264 311.153 7.95634 310.496 7.43634 309.976C3.53814 309.73 4.03274 313.659 1.84554 314.575C3.79674 320.247 5.47664 325.646 10.408 329.834C10.3313 329.844 10.2608 329.842 10.1856 329.85C10.5882 330.317 10.9268 330.88 11.1661 331.559C10.6204 330.012 12.0557 331.886 12.7669 332.477C13.5521 333.129 14.2757 333.852 15.0677 334.498C16.8697 335.968 19.3621 336.807 20.9842 338.429C23.8023 341.246 23.4986 346.554 23.2076 350.709C26.9464 354.355 30.4491 357.968 34.9146 360.648C38.3182 362.691 41.6275 364.023 45.5037 364.048C47.0972 365.66 49.0555 366.034 51.2259 365.988C54.7225 365.912 58.2379 366.173 61.7149 365.903C64.5154 365.685 67.4666 365.34 69.9954 364.237C72.9424 362.951 76.1734 362.205 78.7952 360.057C79.7068 359.31 81.2688 357.84 82.8816 359.536C52.7317 381.922 58.1472 413.565 74.9617 430.551V431.97C78.4632 436.151 81.6953 440.007 84.9136 443.875C84.9954 443.973 84.9241 444.2 84.9241 444.718C84.0414 444.782 83.1043 444.794 82.1839 444.926C79.5181 445.307 76.595 445.178 74.2598 446.28C70.8593 447.885 67.4573 447.915 63.9351 447.914C63.5816 449.862 62.0682 448.821 61.139 448.861C57.9813 448.998 54.7955 449.126 51.6554 448.854C48.4647 448.576 45.9674 450.616 42.9911 450.948C42.1041 451.047 41.2772 451.826 40.402 451.869C36.2501 452.075 32.5185 453.498 28.9318 455.447C28.5805 459.554 33.7729 460.774 33.935 464.773C32.1484 464.448 30.4702 463.604 29.1828 464.007C24.6371 465.43 19.9692 466.476 15.8688 469.299C13.5373 470.903 11.5846 472.78 9.68424 474.743C7.07264 477.441 5.41424 480.622 6.06364 484.488C6.75384 485.178 7.74164 485.698 7.85684 486.368C8.21574 488.456 9.95064 488.229 11.193 489.039C14.7553 491.361 18.8627 490.518 22.5868 491.737C24.993 492.525 27.8749 491.755 30.5287 491.921C33.2313 492.091 35.9086 492.645 38.6105 492.865C44.2912 493.328 50.0829 491.937 55.6784 493.884C63.2397 493.32 70.7209 494.561 78.2416 494.906C82.7716 495.114 87.2914 495.546 91.8148 495.892C92.1146 495.915 92.4076 496.059 92.6986 496.163C95.7008 497.226 98.7228 498.164 101.979 497.901C102.245 497.88 102.534 498.145 102.887 498.312C102.85 498.736 102.81 499.188 102.727 500.132C101.436 499.727 100.022 498.775 99.3099 499.151C96.4364 500.667 93.4864 499.56 90.6058 499.856C86.9193 500.236 83.1214 499.168 79.5023 500.812C79.003 501.039 78.0919 500.359 77.204 500.039C77.1674 500.08 76.9545 500.537 76.7362 500.539C72.9557 500.583 69.1744 500.571 65.3934 500.571C65.4339 500.774 65.4745 500.977 65.515 501.18C63.6407 502.196 61.7665 503.213 59.7369 504.314C60.9754 504.939 61.9388 505.424 62.8582 505.888C63.7784 505.536 64.6258 504.978 65.5054 504.921C67.6612 504.783 69.8318 504.877 71.9964 504.877C74.161 504.877 76.3399 505.031 78.4864 504.834C80.7154 504.629 83.0947 505.704 85.1734 504.127C87.1126 505.937 89.1102 503.389 90.6732 504.029C92.3397 504.712 93.5087 503.777 94.9044 503.853C96.7307 503.952 98.5702 503.953 100.397 503.859C102.944 503.728 105.541 504.392 108.035 502.981C108.674 502.62 110.035 503.533 110.811 503.78C111.886 503.437 112.772 502.899 113.641 502.924C116.849 503.017 120.016 502.678 123.268 503.724C125.682 504.501 128.555 503.747 131.209 503.914C133.746 504.074 136.256 504.632 138.792 504.847C140.611 505 142.465 505.006 144.281 504.839C145.991 504.681 147.686 503.881 149.362 503.957C151.684 504.061 153.797 503.442 155.939 502.857C158.666 502.113 163.911 499.518 164.832 498.157C165.879 496.61 167.172 495.895 168.946 495.886C172.109 495.872 175.313 496.197 178.427 495.806C182.745 495.264 187.359 494.917 190.156 490.286C190.146 490.361 190.137 490.436 190.127 490.51C192.784 486.475 195.807 483.234 196.689 478.135C197.573 473.023 197.523 467.754 196.17 462.735C193.92 454.388 188.904 447.274 185.372 439.536ZM139.919 225.16C142.082 221.685 144.107 218.696 145.851 215.552C147.572 212.45 149.688 209.62 151.027 206.224C152.376 202.804 154.972 199.897 156.775 196.629C158.481 193.535 159.867 190.265 161.395 187.073C162.921 183.881 164.166 180.508 166.054 177.546C167.988 174.512 169.149 171.142 170.737 167.981C172.369 164.732 173.595 161.131 175.114 157.845C176.636 154.554 176.878 150.981 178.559 147.775C180.189 144.665 181.011 141.132 182.489 136.928C183.756 135.983 185.782 134.473 187.997 132.822C189.581 133.575 191.108 134.303 192.552 134.99C192.89 136.511 193.669 137.923 193.343 139C192.722 141.049 192.502 143.189 191.426 145.189C189.615 148.557 188.19 152.164 186.942 155.788C186.328 157.572 183.966 158.516 184.644 160.828C179.712 167.645 177.022 175.654 172.908 182.911C170.323 187.47 167.828 192.103 165.667 196.872C163.247 202.211 160.504 207.414 157.702 212.507C153.441 220.25 149.319 228.133 144.117 235.34C143.479 236.224 142.753 237.109 142.382 238.11C141.35 240.893 139.606 243.112 136.945 245.385C137.104 238.072 140.441 231.554 139.919 225.16ZM78.1181 182.462C80.2969 180.952 82.3752 178.846 84.8051 178.269C87.6745 177.587 90.4914 176.463 93.4047 176.172C96.8564 175.828 100.468 175.563 103.835 176.199C111.337 177.616 119.006 179.067 124.462 185.204C126.391 187.374 128.045 189.816 129.112 192.912H123.547C122.243 192.284 120.978 191.143 119.747 191.179C115.334 191.305 111.776 188.399 107.54 188.083C103.414 185.041 98.1367 185.209 93.6659 183.103C90.3019 181.518 86.6679 182.181 83.1315 182.09C82.3019 182.069 81.4713 182.087 80.5954 182.087C79.8464 182.717 79.0705 183.369 77.9562 184.306C78.0272 183.317 77.8875 182.622 78.1181 182.462ZM89.9108 245.987C86.0258 241.563 82.5072 236.829 79.4062 231.864C77.6918 229.119 77.1381 226.032 79.6066 222.688C83.0968 217.96 86.3197 212.892 88.7267 207.55C90.8639 202.807 93.4596 197.972 92.7658 191.266C96.6782 193.149 99.5926 195.259 102.8 195.899C106.089 196.556 108.487 198.911 111.969 199.294C115.17 199.645 118.169 201.824 121.466 203.291C123.242 205.725 124.152 208.812 125.36 211.809C126.215 213.93 124.849 216.458 126.902 218.149C127.325 222.488 127.748 226.827 128.031 229.733C126.694 233.875 125.742 236.635 124.917 239.431C123.758 243.357 121.87 247.088 119.206 249.952C116.882 252.451 113.615 254.396 109.943 255.068C109.364 255.174 108.854 255.653 108.15 256.052C105.669 254.887 102.499 255.058 100.125 253.041C97.6866 253.454 96.5955 251.159 94.7933 250.281C92.9813 249.399 91.5269 247.779 89.932 246.463C89.8505 246.396 89.9933 246.08 89.9108 245.987ZM82.1266 256.383C81.3012 258.14 80.3483 260.169 78.8649 263.327C75.8263 255.936 72.4447 250.049 71.7555 242.805C75.9122 243.635 75.4391 247.481 77.5302 249.362C79.4291 251.07 80.4622 253.741 82.1266 256.383ZM58.0148 206.166C58.6381 201.492 58.7428 196.596 63.133 193.295C65.1025 191.814 66.6642 189.79 67.9714 188.46C69.8833 187.887 71.2075 187.423 72.5656 187.103C73.7812 186.817 74.9616 186.98 76.2865 186.435C78.9215 185.351 81.6246 186.139 83.8566 188.531C84.1576 193.02 83.5668 197.439 81.0336 201.546C80.2475 202.821 80.1926 204.524 79.5453 205.911C77.7929 209.666 75.4215 213.037 72.4994 215.967C68.1439 220.335 66.5094 225.622 66.9711 231.641C67.026 232.357 67.8058 233.012 67.8771 233.732C67.955 234.518 67.599 235.346 67.4323 236.156C67.0678 236.136 66.7033 236.117 66.3385 236.097C64.733 231.447 62.9493 226.848 61.5768 222.13C60.4445 218.239 59.0558 214.381 58.8935 210.237C58.8398 208.866 57.8427 207.459 58.0148 206.166ZM74.1745 346.75C71.6425 347.368 70.1811 352.134 65.4675 350.515C69.3142 345.42 73.7524 340.864 72.7863 334.03C68.0065 338.556 63.841 343.464 58.4216 346.875C55.5593 348.676 52.4406 350.296 48.7385 350.014C45.8606 349.795 42.9265 350.273 40.1657 348.987C37.3324 347.668 34.3776 346.527 33.0534 343.161C37.9894 344.154 43.299 344.117 47.1249 342.583C51.7846 340.714 56.09 338.766 59.4589 334.982C62.6464 331.403 63.9801 326.898 65.5856 322.607C64.0868 318.621 65.5115 314.324 64.6471 309.65C63.9015 310.696 63.0614 311.339 62.9918 312.056C62.4325 317.819 59.4161 322.328 55.846 326.583C55.2215 327.327 54.5503 328.034 53.9561 328.801C53.8409 328.95 53.814 329.152 53.8191 329.223C51.5064 330.497 49.4885 331.608 46.5545 333.224C45.919 333.445 43.9244 332.175 42.4659 333.898C42.2511 334.151 41.3621 334.181 41.0587 333.952C39.7582 332.97 38.3993 333.562 37.0411 333.488C35.5504 333.405 34.107 332.605 32.6258 332.175C31.1361 331.743 29.5098 331.609 28.1595 330.921C27.022 330.341 26.1939 329.154 25.2225 328.229C25.1065 328.337 24.7476 328.672 24.3934 329.002C22.3298 327.79 20.7167 325.896 19.5543 323.322C21.0333 324.649 21.7633 325.304 22.4723 325.94C22.8644 325.597 23.2291 325.279 23.7941 324.785C24.414 325.177 25.0602 325.585 25.9499 326.148C26.3576 325.843 26.8007 325.374 27.3444 325.129C30.1559 323.858 33.069 323.03 35.6894 321.097C41.1147 317.095 45.57 309.99 45.9421 303.303C45.9607 302.971 45.8833 302.623 45.9548 302.307C46.2634 300.942 47.0664 299.508 46.8501 298.242C46.3838 295.515 45.5625 292.816 44.592 290.215C43.0883 286.185 41.2673 282.275 39.7126 278.262C38.0456 273.96 35.9682 269.704 35.1184 265.229C34.3608 261.24 34.428 256.899 36.7668 252.511C37.2861 253.37 37.6201 253.917 37.9482 254.466C41.6711 260.704 44.2107 267.517 47.3288 274.045C48.9982 277.541 51.0776 280.791 52.7126 284.287C54.2966 287.673 56.2937 290.812 58.3144 293.955C60.8293 297.867 63.0964 301.942 65.393 305.99C66.6096 308.135 68.5129 310.02 68.2297 312.799C70.1862 314.473 70.1228 317.009 71.0378 319.12C72.569 322.653 74.757 325.903 76.7026 329.253C77.4777 330.587 78.3436 331.868 79.0407 332.972C77.5075 337.732 77.6208 342.616 74.1745 346.75ZM79.2106 300.39C78.5119 301.076 78.8251 302.793 78.6491 304.23C78.0698 303.65 77.5302 303.358 77.3908 302.934C75.1115 296.012 70.1944 290.606 66.7609 284.351C65.1216 281.364 63.6706 278.248 61.7729 275.435C57.7636 269.49 54.9758 262.878 52.1455 256.422C48.8838 248.981 45.272 241.528 43.251 233.654C41.512 226.879 39.531 220.15 37.7388 213.396C36.4468 208.527 35.9204 203.305 33.2488 198.788C32.6465 197.77 32.5608 196.356 32.5181 195.115C32.3814 191.129 30.3445 187.63 29.8111 183.693C29.3221 180.085 27.8011 176.574 26.4471 173.134C23.7982 166.405 21.4293 159.576 18.4913 152.941C16.325 148.049 13.6847 143.217 12.9232 137.753C12.8473 137.206 12.234 136.734 12.078 136.517C12.5055 134.688 12.8612 133.166 13.243 131.532C14.2249 130.483 15.3575 129.272 16.2176 128.353C17.4842 128.045 18.3831 127.827 19.7276 127.5C20.5894 127.94 21.9063 128.613 23.6104 129.483C24.5638 131.06 25.7676 133.033 26.9524 135.017C29.0476 138.525 29.7839 142.526 30.9024 146.365C32.1216 150.551 32.7964 154.894 33.9969 159.086C35.0704 162.835 36.0272 166.665 36.597 170.448C37.2342 174.677 39.0853 178.653 39.0003 183.013C38.9805 184.034 39.69 185.05 39.9334 186.099C40.6399 189.145 41.4085 192.185 41.9178 195.266C42.7635 200.381 45.0418 205.21 44.9451 210.508C46.6458 211.154 45.604 212.857 46.2771 213.961C47.7092 216.309 48.2219 218.947 48.051 220.412C54.5906 240.81 61.9678 259.5 74.5146 275.84C75.4335 276.107 76.6167 276.452 78.028 276.863C83.1977 274.005 88.2188 270.474 91.1759 265.033H93.8448C96.3292 266.429 98.6265 267.72 101.099 269.109C101.518 268.789 102.009 268.413 102.45 268.075C103.693 268.401 104.882 268.765 106.094 269.015C107.149 269.233 108.229 269.324 109.831 269.544C112.099 268.443 114.968 267.05 117.966 265.594C118.77 266.397 119.901 267.095 119.805 267.5C119.087 270.501 122.09 272.405 121.904 275.183C124.831 278.953 126.111 283.7 130.679 286.581C135.698 289.747 140.958 292.571 145.774 296.048C149.085 298.438 153.054 300.2 154.817 304.975V312.174C152.92 314.071 151.05 315.94 149.054 317.936C146.642 317.456 144.987 320.411 142.192 320.066C139.585 319.744 136.906 319.997 134.096 319.997C133.583 316.085 133.086 312.287 132.551 308.209C131.934 307.01 131.09 305.526 130.388 303.977C128.633 300.107 126.188 296.994 122.378 294.797C120.948 293.972 120.31 291.774 119.281 290.155H117.167C117.012 290.745 116.894 291.196 116.675 292.034C113.946 291.842 111.073 292.646 108.057 290.663C107.981 291.815 107.93 292.591 107.869 293.526C110.581 295.725 112.705 298.582 115.788 300.614C118.121 302.151 120.149 304.671 121.376 307.206C122.414 309.35 123.213 311.946 122.898 314.557C122.592 317.091 121.794 319.313 120.113 321.425C117.694 324.463 114.871 326.418 111.106 327.366C108.056 328.133 105.386 327.749 100.274 327.185C97.1475 326.841 94.8336 325.414 92.6104 323.894C89.0813 321.481 86.9342 317.981 86.8907 313.402C86.8448 308.56 87.1684 303.833 88.8597 299.218C89.4286 297.665 89.2752 295.848 89.5601 293.118C89.0115 292.308 87.8667 290.617 86.7605 288.983C85.8591 289.492 85.2063 289.861 84.0842 290.496C82.0608 293.136 82.1739 297.48 79.2106 300.39ZM130.024 356.775C128.734 358.298 128.502 360.753 127.935 362.831C127.725 363.604 127.914 364.483 127.899 365.314C127.86 367.383 127.931 369.39 126.963 371.41C125.477 374.511 125.237 377.779 126.854 381.044C127.183 381.706 126.902 382.671 126.902 383.629C124.378 384.691 121.842 385.76 119.306 386.827C118.997 386.557 118.633 386.239 118.54 386.158C116.735 386.453 115.203 386.716 113.667 386.951C111.452 387.288 109.309 386.478 106.994 386.767C105.057 387.01 102.91 385.084 100.867 385.106C98.8141 385.127 98.318 383.296 96.7481 382.824C95.7325 382.518 93.6883 382.506 93.8643 380.403C90.2167 379.441 88.4495 375.647 84.9317 374.486V372.454C89.6102 370.13 94.2531 367.716 96.9175 361.343C96.9175 359.719 97.2534 356.705 96.8194 353.806C96.4151 351.104 94.8619 348.578 94.4219 345.876C93.982 343.175 91.2515 341.132 92.1573 337.713C94.2115 338.676 96.0054 339.498 97.7816 340.355C99.5128 341.192 101.243 341.925 103.175 340.984C105.059 343.342 106.941 340.863 108.829 340.973C110.753 341.084 112.6 340.898 114.417 340.027C116.208 339.167 118.274 338.856 120.019 337.929C121.815 336.976 123.454 335.668 125.006 334.335C126.619 332.948 128.046 331.345 129.846 329.545C130.847 330.153 131.719 330.784 132.675 331.234C133.644 331.69 134.697 331.967 136.105 332.459C135.711 334.202 135.238 335.991 134.911 337.807C134.137 342.1 132.884 346.274 131.869 350.508C129.656 352.064 131.712 354.783 130.024 356.775ZM81.3522 414.038C80.9972 414.516 80.8664 415.161 80.4889 416.074C78.0304 412.723 75.6765 409.443 75.0248 405.52C74.3493 401.453 72.9846 397.322 74.2738 393.124C75.4437 389.315 76.1059 385.303 78.5055 381.957C81.817 382.278 84.1378 384.585 86.66 386.308C90.2164 388.737 93.4395 391.653 96.8184 394.344C98.5179 395.697 100.246 397.015 102.554 398.809C97.9683 398.8 95.148 400.877 92.1311 403.048C87.8479 406.131 84.4357 409.881 81.3522 414.038ZM75.8908 455.867C76.4992 456.206 77.1665 456.578 77.9289 457.003C79.8293 455.24 82.1877 455.909 84.3869 455.947C87.7673 456.005 91.0181 455.715 93.8998 453.916C95.9159 455.154 97.8827 456.361 99.8996 457.6V458.568C92.4142 459.526 85.2272 462.434 77.3874 461.864C75.9807 460.407 74.4947 458.869 73.0314 457.353C73.8894 456.907 74.8419 456.412 75.8908 455.867ZM50.1254 457.05C52.7333 456.72 55.4911 457.577 58.3695 457.935C59.3492 459.058 60.4303 460.297 61.9513 462.041C58.0651 461.56 54.4408 461.111 50.3536 460.605C47.8563 459.502 44.9005 458.197 41.3614 456.633C44.846 454.822 47.3261 457.404 50.1254 457.05ZM156.574 483.76C155.754 484.853 155.268 486.196 154.535 487.615C153.521 488.09 152.271 488.691 151.009 489.264C146.694 491.223 143.768 490.902 138.523 490.196C134.426 489.644 130.559 488.257 126.471 487.699C124.268 487.398 121.884 487.018 119.624 486.294C117.67 485.668 115.232 485.876 113.251 485.443C111.299 485.016 109.112 485.689 107.611 484.762C105.838 483.668 104.173 483.959 102.45 483.918C98.8939 483.835 95.5267 482.46 91.8656 482.81C88.0699 483.173 84.2128 482.891 80.3827 482.891H69.3917C65.7279 482.891 62.0597 482.999 58.4024 482.846C56.5313 482.768 54.6734 482.256 52.8211 481.883C51.1089 481.537 49.169 482.705 47.6517 481.101C45.4132 482.436 43.3053 480.695 41.0658 480.775C37.8912 480.889 34.7821 479.594 31.4884 479.843C28.3829 480.078 25.2457 479.893 21.8863 479.893C22.3131 475.33 26.358 478.238 27.4019 475.844C27.8394 476.281 28.0391 476.584 28.3208 476.732C28.5857 476.872 28.9368 476.848 29.5261 476.938C30.0207 476.281 30.6157 475.491 31.0573 474.905C37.7016 475.069 43.7245 474.072 49.8158 470.968H56.3204C61.4222 475.527 67.3299 475.722 73.5877 473.73C74.3194 473.498 75.0115 472.972 75.742 472.93C82.4285 472.542 89.1214 472.261 95.8082 471.874C97.1913 471.794 98.5565 471.405 100.239 471.102C101.947 472.54 104.003 472.106 106.094 470.832C106.615 471.19 107.129 471.544 107.835 472.031C108.411 471.686 109.069 471.293 109.713 470.907C110.752 471.24 111.773 471.823 112.811 471.856C118.867 472.048 124.4 474.454 130.092 476.06C131.683 476.508 133.686 477.446 134.939 478.641C136.417 480.05 137.874 479.763 139.367 479.912C140.76 478.662 141.534 477.552 140.274 475.683C139.078 473.909 137.968 472.183 136.049 470.533C135.293 469.884 134.634 469.123 133.92 468.425C128.838 463.46 123.497 458.809 117.537 454.909C116.626 452.563 114.005 452.008 112.571 450.151C111.363 448.588 109.893 446.324 108.333 446.142C105.83 445.85 106.58 442.92 104.279 442.599C102.915 442.409 102.464 440.092 100.844 439.184C99.1659 438.244 97.9589 436.464 96.5458 435.051C95.2504 433.756 93.955 432.461 92.6598 431.165C91.3644 429.87 89.9817 428.649 88.8046 427.254C88.0161 426.32 87.5197 425.139 86.9162 424.108C87.3554 422.894 87.7761 421.732 88.2028 420.552C92.3188 413.968 97.9145 408.914 105.317 405.989H112.576C112.701 406.429 112.7 407.127 113.044 407.529C115.588 410.492 118.2 413.397 120.791 416.321C123.381 419.244 126.145 422.035 128.511 425.129C130.721 428.019 133.289 430.621 135.232 433.727C137.145 436.784 139.204 439.749 141.221 442.74C144.532 447.649 147.639 452.665 150.476 457.88C152.931 462.392 154.837 467.069 156.394 471.922C156.961 473.692 157.621 475.48 157.826 477.306C158.075 479.518 158.066 481.77 156.574 483.76ZM180.375 482.032C178.088 482.844 174.601 482.562 171.2 481.654C170.057 475.491 168.634 469.51 166.369 463.623C164.933 459.891 162.11 456.686 161.883 452.489C158.974 449.157 157.039 445.183 154.954 441.363C152.545 436.95 149.13 433.241 146.818 428.768C145.664 426.538 143.81 424.645 142.144 422.711C139.379 419.501 136.487 416.4 133.692 413.215C131.902 411.175 130.143 409.103 128.479 406.961C128.033 406.386 127.984 405.501 127.817 404.967C130.538 401.54 133.105 398.307 135.842 394.859C137.651 395.634 139.097 397.324 140.3 398.962C143.365 403.135 146.909 406.879 150.231 410.821C152.698 413.747 155.063 416.771 157.292 419.882C160.219 423.966 163.145 428.072 165.743 432.367C168.237 436.489 171.185 440.328 173.255 444.727C174.571 447.526 176.552 450.015 177.825 452.829C180.169 458.012 182.604 463.177 184.166 468.682C184.332 469.27 184.856 469.829 184.832 470.385C184.737 472.661 184.947 474.862 185.886 476.521C184.162 478.245 182.658 479.749 180.375 482.032Z" fill="#FF00E5"/>
<path d="M63.8444 448.019C63.5722 447.786 63.3 447.554 63.0278 447.322C63.1328 447.217 63.2379 447.112 63.3429 447.007C63.5752 447.279 63.8074 447.551 64.0397 447.823C63.9746 447.888 63.9095 447.954 63.8444 448.019Z" fill="#FF00E5"/>
<path d="M122.738 232.403C122.108 233.707 121.071 234.923 120.986 236.203C120.718 240.22 118.725 243.289 116.266 246.204C116.078 246.427 116.004 246.757 115.916 247.048C115.869 247.2 115.907 247.377 115.907 247.425C114.352 248.18 112.836 248.915 110.49 250.054C109.414 249.816 107.435 249.378 105.421 248.932C100.455 245.013 97.7515 239.588 96.2745 233.229C96.2689 233.235 96.5921 232.886 96.9336 232.519C100.49 233.526 104.148 233.139 107.729 232.938C109.434 232.842 111.074 231.515 112.734 230.727C114.672 229.806 116.845 229.163 118.459 227.842C119.911 226.655 121.224 227.452 122.738 226.853L122.738 232.403Z" fill="#FF00E5"/>
<path d="M94.8628 211.766C96.1583 209.963 96.9145 208.91 97.7788 207.707C102.906 211.403 101.736 216.616 101.939 221.571C100.057 222.006 98.3638 224.64 96.1859 221.813C95.6986 218.112 95.2027 214.347 94.8628 211.766Z" fill="#FF00E5"/>
<path d="M112.115 207.308C112.701 206.791 113.173 206.376 113.714 205.9C114.202 206.187 114.759 206.321 114.957 206.663C116.259 208.913 117.483 211.208 118.807 213.623V217.687C118.248 218.216 117.78 218.66 117.224 219.187C116.25 218.75 115.282 218.315 114.43 217.932C112.306 214.761 111.328 211.351 112.115 207.308Z" fill="#FF00E5"/>
<path d="M118.681 376.638C117.635 377.151 116.811 377.555 115.659 378.119C115.09 377.583 114.427 376.958 113.977 376.534C114.318 374.007 114.231 371.671 115.014 369.678C115.813 367.646 116.717 365.802 117.086 363.537C117.405 361.571 119.264 359.855 120.472 357.982H123.51C123.63 358.357 123.94 358.812 123.876 359.208C123.24 363.189 122.358 367.113 120.904 370.889C120.188 372.749 119.467 374.606 118.681 376.638Z" fill="#FF00E5"/>
<path fill-rule="evenodd" clip-rule="evenodd" d="M118.654 127.846C119.229 127.271 119.969 126.888 120.766 126.727C149.996 120.81 172 94.9746 172 64C172 28.6538 143.346 0 108 0C72.6538 0 44 28.6538 44 64C44 94.5526 65.4088 120.105 94.0433 126.474C94.8108 126.644 95.5213 127.021 96.0774 127.577L104.672 136.172C106.234 137.734 108.766 137.734 110.328 136.172L118.654 127.846Z" fill="white"/>
<path d="M94.4999 126.5C98.961 126.996 101.52 138.111 107.69 138.765C114.213 139.457 112.5 125.778 134.5 121.5C161.343 116.281 174.355 96.9237 175.5 66C176.746 32.3602 157.6 5 118 5C83.6626 5 56.2028 20.685 48.9998 55.5C42.9999 84.5 60.1269 114.657 79.4999 119.5" stroke="#FF00E5" stroke-width="10" stroke-linecap="round"/>
<path d="M112.319 45.2978C104.767 52.0753 77.6454 76.4336 84.0055 84.9138C86.0401 87.6266 94.6656 96.4728 98.006 96.4152C107.011 96.26 131.973 78.1019 133.788 70.8423C134.773 66.9027 133.648 66.0571 130.267 63.2457C123.419 57.5508 118.886 48.9091 111.552 44.0198" stroke="#FF00E5" stroke-width="10" stroke-linecap="round"/>
<path d="M116.663 43.7643C121.229 39.1985 127.844 40.5186 132.055 44.7299C138.045 50.7193 141.431 55.0575 137.11 63.7001" stroke="#FF00E5" stroke-width="10" stroke-linecap="round"/>
<path d="M99 37.6453C100.903 35.5959 102.916 33.9617 105.404 32.6613C106.655 32.0072 108.267 31 109.735 31" stroke="#FF00E5" stroke-width="10" stroke-linecap="round"/>
<path d="M132 92.69C136.225 90.7507 139.067 88.1225 142.223 84" stroke="#FF00E5" stroke-width="10" stroke-linecap="round"/>
</svg>
