<svg width="197" height="482" viewBox="0 0 197 482" fill="none" xmlns="http://www.w3.org/2000/svg">
<path d="M194.535 251.371C191.844 250.941 190.557 253.837 188.372 254.226C185.798 254.684 183.079 254.333 180.604 254.333C179.634 253.419 178.789 252.623 177.987 251.867C177.987 250.784 177.901 249.775 178.019 248.79C178.089 248.205 178.586 247.681 178.712 247.092C179.498 243.414 180.572 239.756 180.91 236.034C181.51 229.435 179.983 223.256 177.437 217.03C175.41 212.075 171.718 208.986 168.518 205.351C166.766 205.516 165.487 205.108 165.227 204.208C165.641 201.551 165.931 199.697 166.237 197.734C166.769 196.79 167.922 195.694 167.899 194.624C167.792 189.75 171.526 185.794 170.993 180.878C172.651 177.674 173.614 174.281 174.229 170.715C174.833 167.218 176.715 164.074 177.406 160.542C177.874 158.151 178.876 155.864 179.986 152.474C179.986 151.798 179.699 149.913 180.032 148.144C182.22 136.528 181.12 137.039 175.082 131.014C174.857 130.789 174.584 130.613 174.333 130.414C173.5 130.414 172.647 130.529 171.839 130.388C170.498 130.154 166.478 129.886 165.847 130.051C163.546 130.65 161.542 131.619 159.601 133.146C157.075 135.134 155.55 137.983 153.494 139.465C151.037 146.391 148.335 152.606 146.745 159.315C145.165 165.981 143.616 172.641 142.592 179.935C141.472 179.047 140.634 178.563 140.037 177.871C138.897 176.547 138.18 174.467 136.778 173.839C133.415 172.333 130.496 169.869 126.647 169.311C124.572 169.01 122.431 168.341 121.694 165.672C121.339 164.385 120.222 163.25 119.278 162.199C118.067 160.851 116.794 159.505 115.339 158.442C114.116 157.549 112.607 157.037 111.202 156.404C109.659 155.71 108.143 154.818 106.519 154.479C104.923 154.147 103.192 154.53 101.545 154.363C99.8346 154.189 98.1598 153.691 96.455 153.429C96.0414 153.365 95.5739 153.677 95.1269 153.8C94.3786 154.006 93.6328 154.341 92.8754 154.373C90.3131 154.481 87.7726 154.269 85.2777 155.354C81.8949 156.826 78.0404 157.104 74.9576 159.39C73.5645 160.422 72.1368 161.41 70.7061 162.391C64.6678 166.531 59.896 171.738 56.5335 178.315C54.8052 181.695 54.4327 185.437 53.022 188.856C51.3199 192.981 51.6006 197.381 52.291 201.402C52.8598 204.716 53.199 208.572 55.9985 211.329C56.6816 212.002 56.7173 213.332 57.0954 214.307C57.413 214.487 57.685 214.719 57.9572 214.951C57.8522 215.056 57.7472 215.161 57.6423 215.266C57.4111 214.995 57.1799 214.724 56.9487 214.453C57.0127 214.387 57.0766 214.321 57.0954 214.307C56.6511 214.127 56.2021 213.952 55.8605 213.653C50.9599 209.372 47.445 203.971 43.8573 198.643C41.1635 194.643 38.5551 190.594 36.3856 186.258C34.2462 181.982 32.6634 177.433 30.0643 173.386C30.2525 170.732 27.8221 169.336 27.0628 167.135C26.3094 164.95 25.6307 162.732 24.7261 160.61C24.2427 159.475 23.3992 158.478 22.6333 157.484C21.8101 156.416 20.9656 155.341 19.9888 154.42C18.8274 153.324 17.5152 152.388 16.4275 151.512H6.81218C5.08368 152.842 3.69618 153.909 2.41568 154.894C-0.0425155 157.862 0.0279844 161.363 8.44298e-05 164.924C-0.0109156 166.354 1.05668 167.354 1.01058 168.505C0.813584 173.403 3.92518 177.438 4.34188 182.144C7.50598 187.292 8.82069 193.302 12.034 198.45C14.2423 201.988 16.2598 205.675 17.9998 209.463C19.0291 211.704 20.9764 213.188 22.0374 215.284C25.4939 222.112 30.6499 227.743 35.1817 233.781C38.8565 238.677 43.0328 243.266 47.1888 247.776C51.0528 251.97 54.6351 256.609 59.7459 259.527C60.8633 262.033 64.0687 262.603 65.1082 265.406C64.9109 265.703 64.7398 266.208 64.388 266.452C60.9407 268.839 59.658 272.885 57.1231 275.976C56.3221 276.952 56.2608 278.622 56.0865 280.002C55.921 281.314 56.151 282.671 56.0333 283.993C55.5548 289.364 57.9129 293.474 61.433 297.275C63.8849 299.922 66.8776 301.698 69.7191 303.375C71.0414 313.954 72.0541 324.348 74.9139 334.682C72.71 339.436 70.8028 344.645 68.3902 349.649C67.6556 351.173 66.5904 352.609 66.1158 354.184C64.8177 358.492 62.5955 362.391 61.0169 366.569C59.4952 370.596 57.6397 374.496 56.0704 378.507C54.1632 383.381 52.2708 388.268 50.6153 393.231C49.0025 398.065 47.3138 402.873 45.9173 407.792C44.9901 411.059 44.3321 414.407 43.2359 417.649C41.7598 422.012 42.3558 426.787 41.1158 431.256C40.9439 431.875 41.566 432.699 41.7713 433.442C41.8919 433.878 41.9962 434.346 41.9693 434.791C41.772 438.086 42.3223 440.212 43.6509 442.331C45.8989 445.917 49.3501 448.052 52.3213 449.907C54.7173 450.192 56.8005 450.44 58.9861 450.699C60.5095 451.561 62.3626 451.845 64.2883 451.426C73.5671 449.407 80.8979 442.63 88.4048 437.276C89.761 436.309 90.8494 435.209 91.4314 433.664C99.2927 436.279 107.543 437.607 116.044 437.177C118.734 437.04 121.418 436.749 124.081 436.326C127.377 436.153 130.641 436.188 133.368 434.999C137.412 433.234 141.67 432.504 145.686 430.949C150.425 429.114 155.564 428.033 159.464 424.35C159.914 423.925 160.995 424.17 161.653 424.115C164.828 420.408 169.829 418.559 170.99 413.366V407.527C169.627 406.52 168.1 405.391 166.926 404.524C162.106 404.524 157.659 404.513 153.211 404.554C152.974 404.556 152.74 404.995 152.505 405.229C150.281 402.406 148.174 405.924 145.809 405.365C143.34 404.782 140.626 405.235 138.024 405.235V403.542C138.871 403.39 139.776 403.228 140.312 403.132C144.049 400.58 146.013 397.198 146.952 392.956C145.088 389.077 141.817 387.161 137.325 387.248C134.762 387.298 132.152 386.873 129.721 388.202C129.313 388.425 128.591 388.074 128.075 387.997C128.969 386.261 129.426 384.412 130.588 383.295C134.129 379.894 135.911 375.522 137.514 371.144C139.342 366.154 141.263 361.135 141.066 355.599C140.962 352.669 139.565 350.086 139.223 347.41C138.798 344.092 137.025 341.563 135.819 338.769C134.516 335.754 132.471 333.013 129.964 330.684C126.916 327.852 124.051 324.824 121.017 321.789C121.017 320.228 120.5 318.347 121.111 316.964C123.177 312.288 124.004 307.178 126.254 302.609C129.051 296.929 132.078 291.363 135.013 285.753C135.309 285.186 135.662 284.648 135.886 284.272C137.64 286.18 138.958 288.05 140.685 289.396C143.683 291.732 146.935 293.568 151.039 293.351C154.855 293.149 158.691 293.308 162.084 293.308C167.758 290.335 173.687 288.328 177.196 281.894C177.196 281.944 177.196 281.169 177.196 280.361C179.198 279.87 181.278 279.85 182.763 278.901C186.417 276.564 190.13 273.964 191.812 269.809C192.558 267.967 194.253 267.242 194.535 265.458C195.281 263.433 196.027 261.408 196.976 258.833C196.976 256.055 196.163 253.567 194.535 251.371ZM115.9 177.253C117.797 178.183 120.097 178.923 122.405 178.371C123.817 178.034 124.952 178.676 125.97 179.404C130.318 182.509 135.01 185.402 135.009 191.713C137.034 192.907 135.347 195.339 136.884 196.988C137.972 198.154 136.124 199.827 135.072 201.108V197.409C133.515 195.889 132.372 194.774 131.218 193.647C130.432 195.82 131.76 198.628 130.273 201.07C132.024 202.608 130.534 204.906 131.136 206.966C130.568 207.154 130.13 207.299 129.243 207.593C129.129 205.687 129.026 203.967 128.907 201.972C127.191 199.525 126.559 196.13 124.04 193.801C123.22 193.043 120.805 190.498 120.014 190.407C117.212 190.086 115.376 187.928 113.065 186.717C111.359 185.823 110.298 183.701 109.152 182.362V177.755C109.633 177.274 109.986 176.921 110.436 176.471C112.231 176.435 113.966 176.305 115.9 177.253ZM119.935 209.569C119.954 212.59 119.31 215.614 118.93 218.858C116.419 220.385 117.086 223.895 114.968 225.981C113.022 227.897 111.647 230.444 109.562 232.154C107.44 233.894 104.757 234.951 102.29 236.323C100.453 235.676 98.4293 235.255 96.6996 234.301C91.0023 231.16 87.5465 226.251 86.0255 219.946C85.8824 219.352 85.7333 218.689 85.3693 218.23C83.8268 216.286 84.2099 214.006 83.9989 211.785C83.4667 206.183 85.9352 201.325 87.6757 196.303C88.2738 194.576 89.3381 192.937 90.4823 191.489C92.5929 188.82 94.9276 186.328 97.1537 183.748C98.141 182.604 99.091 181.428 100.058 180.266C100.522 185.745 103.716 189.247 106.939 192.875C110.219 196.568 114.292 198.827 118.84 200.636C119.228 203.582 119.916 206.573 119.935 209.569ZM63.0473 193.608C64.82 191.219 63.373 187.971 65.3105 185.55C67.0544 183.371 67.1799 180.281 69.0551 178.138C71.509 175.334 73.8703 172.416 77.277 170.644C79.8742 169.293 82.3317 167.732 85.1273 166.697C88.4005 165.485 91.7213 164.716 95.1507 164.429C97.4634 164.235 99.8157 164.533 102.132 164.36C105.758 164.089 108.923 165.331 112.106 166.921C111.983 167.415 111.87 167.864 111.72 168.465C109.079 167.372 106.728 167.13 103.957 168.235C101.698 169.137 99.3121 169.639 96.994 170.724C91.8993 173.11 88.2853 177.135 84.9615 181.199C81.0689 185.96 78.1163 191.487 76.0069 197.397C73.4822 204.471 73.7071 211.795 74.19 219.025C74.4632 223.116 76.1983 227.118 77.356 231.137C77.7325 232.444 78.367 233.676 78.9004 234.984C78.5103 235.374 78.0398 235.845 77.6587 236.226C69.7827 232.392 65.1499 225.391 59.7793 218.51C62.8591 219.379 67.9602 222.778 70.8943 225.574C71.6543 223.741 72.3543 222.053 73.2019 220.008C72.46 219.599 71.5715 219.321 70.9958 218.736C70.3632 218.092 70.0163 217.167 69.5485 216.362C68.3798 214.352 67.3027 212.281 66.028 210.34C62.633 205.172 62.8901 199.389 63.0473 193.608ZM59.7541 216.386C59.8815 217.037 60.009 217.688 60.1364 218.339C59.9792 218.347 59.8222 218.355 59.6652 218.363C59.6266 218.314 59.589 218.264 59.5505 218.215C59.2185 217.746 59.1638 217.11 59.1091 216.473C59.3239 216.444 59.539 216.415 59.7541 216.386ZM59.9821 244.687C54.0651 238.767 48.7441 232.33 43.6037 225.688C40.4855 221.658 37.5285 217.535 34.4518 213.497C31.2809 209.336 28.8971 204.772 26.0824 200.441C24.9865 198.755 24.1564 196.896 23.0494 195.218C20.8145 191.83 19.7132 187.929 17.9547 184.356C15.482 179.334 13.7823 174.098 11.8365 168.907C11.0103 166.703 11.5572 164.789 10.8568 162.413H13.6307C14.3419 163.205 15.1173 164.068 16.0777 165.137C16.326 166.181 16.3157 167.491 16.9202 168.934C20.9654 178.593 25.1421 188.188 30.117 197.399C32.41 201.646 35.244 205.602 37.8716 209.665C41.5891 215.413 46.2268 220.497 50.0654 226.117C52.1469 229.164 55.1245 231.095 57.3032 233.941C59.6091 236.953 62.5053 239.557 65.3686 242.084C67.7343 244.172 70.3544 246.004 73.0136 247.712C74.0048 248.349 75.4274 248.314 76.8603 248.631C77.9636 251.612 75.4174 253.722 74.6447 256.311H72.8781C68.4687 252.364 64.0221 248.729 59.9821 244.687ZM75.1696 429.794L75.1225 429.701C70.829 432.303 66.6599 434.829 62.3337 437.451C61.7504 437.627 61.1655 437.796 60.5666 437.926C60.2839 437.988 60.0114 438.079 59.7441 438.183H58.406C53.5762 436.801 52.9324 433.759 52.9905 430.082C53.0342 427.316 54.0222 424.827 54.5891 422.22C55.4187 418.402 56.4338 414.624 57.6096 409.859C57.5735 409.884 58.3918 409.314 58.551 409.203C59.1299 407.312 59.4695 406.108 59.8664 404.924C61.3859 400.391 62.6896 395.767 64.5107 391.358C67.1584 384.947 69.3247 378.359 71.7287 371.869C73.8376 366.176 76.9865 361.057 79.4179 355.564C80.0226 354.198 81.2414 353.038 81.0947 351.386H83.5154C84.8657 353.4 85.7368 355.661 87.3748 356.94C90.6812 359.521 94.4043 361.569 97.701 363.674C96.1593 365.833 94.577 368.049 93.1138 370.098C92.5845 370.81 92.0447 371.511 91.5345 372.242C85.4649 380.939 79.9796 390.215 75.44 399.804C72.6851 405.623 70.3118 411.618 68.2515 417.716C68.2207 417.808 68.2163 417.904 68.1944 417.997C67.3919 419.758 68.1207 421.712 69.7 422.776C72.3533 424.564 75.0848 426.226 77.8836 427.744C76.981 428.426 76.0771 429.111 75.1696 429.794ZM130.959 398.194C131.139 397.877 131.371 397.604 131.604 397.332C131.709 397.437 131.814 397.542 131.919 397.647C131.646 397.879 131.374 398.112 131.102 398.344C131.037 398.279 130.972 398.214 130.959 398.194C128.932 400.563 126.852 402.888 125.09 404.856C122.955 405.461 121.312 405.926 119.381 406.472C118.203 407.638 117.212 408.835 116.366 410.059C113.621 409.126 110.836 408.443 108.016 408.012C109.048 407.012 110.057 405.989 111.045 404.945C111.056 404.965 111.069 404.987 111.08 405.007C113.749 405.55 115.88 405.224 117.872 403.907C119.82 402.619 121.745 401.211 123.872 400.305C126.135 399.341 128.622 398.905 130.959 398.194ZM128.013 350.596C128.013 352.636 127.916 354.774 128.033 356.901C128.296 361.697 125.763 365.588 124.03 369.743C122.3 370.358 123.502 372.163 122.632 373.168C121.697 374.249 120.853 375.413 120.023 376.579C117.084 380.708 114.167 384.854 111.497 388.633C111.305 389.084 111.11 389.509 110.919 389.917C109.344 391.879 107.741 393.819 106.067 395.697C103.983 398.034 101.803 400.289 99.4938 402.404C98.3947 403.411 97.2663 404.385 96.1066 405.321C95.9306 405.463 95.7528 405.603 95.5754 405.743C95.4609 405.828 95.0402 406.148 94.9265 406.232C94.2383 406.74 93.5388 407.23 92.8318 407.711C92.5344 407.913 92.2581 408.146 92.0029 408.4C90.0693 409.427 88.968 412.174 89.6152 414.174C90.5312 417.004 92.9851 418.085 95.7658 417.667C95.8303 417.657 95.8845 417.649 95.9338 417.642C96.1311 417.618 96.3283 417.595 96.5258 417.574C96.945 417.531 97.3647 417.494 97.7848 417.463C98.7653 417.391 99.7487 417.355 100.732 417.352C102.457 417.348 104.224 417.41 105.937 417.659C106.16 417.697 106.465 417.748 106.534 417.759C107.019 417.841 107.502 417.931 107.984 418.029C108.878 418.212 109.767 418.423 110.648 418.662C111.597 418.92 112.537 419.211 113.464 419.536C113.862 419.675 114.258 419.82 114.651 419.971C114.875 420.057 115.098 420.146 115.32 420.236C115.352 420.249 115.366 420.256 115.404 420.272C115.509 420.318 115.622 420.347 115.73 420.388C116.154 420.674 116.568 420.953 116.955 421.213C117.296 421.068 117.62 420.946 117.935 420.827C119.66 420.868 121.337 420.196 122.245 418.478C122.256 418.456 122.265 418.432 122.277 418.409C126.764 415.74 129.244 415.228 135.182 415.228C138.013 415.228 140.844 415.238 143.675 415.222C144.658 415.217 145.79 415.452 146.597 415.055C150.048 413.356 153.507 414.536 157.361 414.382C155.739 415.482 154.564 416.279 153.167 417.226C152.825 417.226 152.142 417.134 151.497 417.254C150.906 417.363 150.299 417.989 149.799 417.89C147.37 417.407 146.387 419.937 144.26 420.328C140.938 420.938 137.74 422.22 134.492 423.225C133.46 423.544 132.45 424.117 131.406 424.183C126.737 424.475 122.799 426.072 120.473 429.274C115.606 429.874 110.693 429.942 105.548 429.353C105.31 429.326 105.072 429.297 104.835 429.267C104.83 429.266 104.828 429.266 104.823 429.265C104.38 429.202 103.937 429.134 103.495 429.061C102.491 428.896 101.491 428.706 100.496 428.492C98.6424 428.093 96.807 427.612 94.9957 427.053C91.1239 425.859 88.3712 424.725 84.9637 423.041C82.0623 421.607 79.2533 419.998 76.5169 418.273C79.7693 408.958 83.6182 400.616 88.7083 391.782C91.4112 387.09 94.2369 382.46 97.2752 377.977C97.5818 377.525 97.8982 377.079 98.2098 376.629C99.514 374.998 100.708 373.302 101.873 371.597C101.99 371.444 102.114 371.283 102.166 371.218C102.653 370.601 103.147 369.989 103.647 369.383C105.261 367.43 106.989 365.574 108.595 363.615C108.998 363.123 109.298 362.547 109.494 361.945C111.63 359.775 114.438 356.599 116.947 355.293C118.639 354.411 120.263 353.562 121.685 352.197C123.307 350.639 125.339 349.646 128.013 350.596ZM123.363 341.436C118.659 344.381 114.369 347.189 109.95 349.775C108.111 350.851 106.012 351.495 103.997 352.244C103.344 352.487 95.5019 350.012 94.7048 349.439C92.268 347.687 89.8435 345.917 87.2075 344.005C86.5959 341.923 87.6362 339.374 86.1199 337.185C85.7849 336.702 86.521 335.476 86.8596 334.244C84.094 324.884 82.3869 314.857 80.8088 304.705C82.4834 304.083 83.9265 303.548 86.0813 302.748C86.7786 302.024 88.0432 300.711 89.427 299.273C91.3657 300.641 93.209 302.035 95.1433 303.288C99.4834 306.101 104.295 306.82 109.452 306.174C110.328 305.521 111.325 304.778 112.819 303.664C112.819 305.2 113.168 306.316 112.764 306.967C109.207 312.708 110.069 319.073 110.067 325.295C110.067 327.197 113.344 331.949 115.147 333.279C116.8 334.497 118.634 335.524 120.085 336.945C121.392 338.225 122.288 339.924 123.363 341.436ZM131.401 264.575C129.994 268.065 128.259 271.284 126.393 274.498C125.715 275.667 125.452 277.078 124.251 278.326C123.839 276.235 123.675 274.052 122.946 272.077C122.202 270.059 120.903 268.245 119.9 266.438H115.097V273.898C117.365 275.713 115.164 278.486 116.713 280.762C118.083 282.774 116.273 285.462 115.277 287.352C112.673 292.294 108.529 294.287 102.857 294.307C102.19 294.309 101.524 294.307 100.802 294.307C97.2895 291.988 94.8056 289.23 93.0405 285.417V279.024C95.6672 275.103 98.2146 271.3 100.972 267.183V264.747C99.9443 264.251 98.9729 263.783 97.7402 263.189C91.9253 267.148 86.9321 271.938 83.9658 279.733V291.163C81.1477 291.559 78.4802 292.209 75.8159 292.196C74.4133 292.189 72.9844 291.085 71.6257 290.366C70.3733 289.703 69.1989 288.892 68.0446 288.18C68.0446 287.258 68.1474 286.587 68.0285 285.957C66.8371 279.643 68.4894 276.105 74.2809 272.308C77.7672 270.021 80.9132 267.43 83.2145 263.778C84.7221 261.386 85.6859 258.754 86.8883 256.28C89.5548 250.794 89.2313 250.637 93.6561 246.213C95.6085 247.068 97.6861 247.978 100.757 249.322H103.418C108.43 248.085 110.831 244.934 113.464 242.401C116.031 241.823 116.494 243.64 117.449 245.162C118.313 246.537 119.738 247.558 120.963 248.783C120.669 249.123 120.372 249.467 120.007 249.89C120.598 250.405 121.213 250.941 121.911 251.55C121.973 252.672 122.034 253.792 122.095 254.913C122.916 255.331 123.733 255.753 124.462 256.129C127.41 255.247 128.592 252.596 129.992 250.198C131.705 247.263 132.788 244.038 134.093 240.91C136.181 235.901 137.44 230.627 139.408 225.623C140.812 222.053 141.954 218.567 142.082 214.782C142.698 214.166 143.286 213.577 143.829 213.035C144.314 210.325 144.788 207.67 145.352 204.511C145.553 204.349 146.197 203.829 146.329 203.723C147.492 198.857 148.484 194.598 149.534 190.353C150.317 187.187 151.205 184.047 151.994 180.883C153.347 175.457 154.625 170.012 156.251 164.659C156.383 164.227 156.995 163.84 156.957 163.475C156.697 160.945 157.86 158.957 158.853 156.741C159.708 154.833 160.071 152.626 160.965 150.626C162.094 148.1 163.001 145.475 163.951 143.028C165.227 142.168 166.403 141.376 167.763 140.46C168.119 141.128 168.859 141.921 168.929 142.769C169.088 144.665 168.646 146.475 168.134 148.383C166.725 153.633 164.923 158.781 163.889 164.153C163.434 166.517 162.116 168.713 161.578 171.185C161.015 173.774 160.876 176.49 159.873 178.953C158.856 181.452 157.988 183.926 157.953 186.668C157.944 187.378 157.322 188.061 157.097 188.792C156.369 191.158 155.327 193.51 155.12 195.928C154.966 197.725 154.426 199.322 154.004 201C153.321 203.717 152.599 206.427 152.018 209.167C151.304 212.525 150.145 215.751 149.532 219.164C148.939 222.469 147.949 225.916 146.628 228.913C144.88 232.876 143.621 237.001 141.883 240.941C138.404 248.827 134.621 256.587 131.401 264.575ZM164.684 260.49C163.141 258.529 161.764 256.437 160.103 254.111C159.102 254.952 158.028 255.853 156.963 256.747C159.131 258.948 157.217 261.635 158.199 263.85C159.463 266.483 160.727 269.116 162.227 272.239C161.272 272.055 160.371 272.159 160.019 271.769C157.127 268.557 153.166 266.227 151.793 261.718C151.583 261.028 150.387 260.637 149.001 259.646C149.378 263.518 148.722 266.52 149.742 269.833C150.613 272.665 152.217 275.283 153.215 279.232C150.722 277.368 149.117 276.168 146.924 274.529C146.312 272.944 145.521 270.609 144.506 268.375C143.856 266.945 143.857 265.719 144.495 264.294C145.567 261.903 147.552 259.803 147.037 256.847C147.004 256.656 147.505 256.407 147.687 256.137C149.52 253.419 150.496 250.331 151.593 247.279C153.309 242.508 155.225 237.808 156.987 233.053C158.711 228.403 160.414 223.746 161.121 218.788C161.242 217.934 162.009 217.173 162.246 216.767C163.253 216.202 163.912 215.832 164.559 215.47C165.347 216.238 166.179 217.049 166.998 217.849V220.867C168.831 222.545 169.067 224.701 169.032 227.029C169.011 228.402 169.388 229.782 169.601 231.261C169.412 232.787 169.035 234.481 169.027 236.178C169.012 239.392 168.638 242.417 167.505 245.531C166.592 248.036 167.009 251.025 166.91 252.61C168.438 258.106 172.034 260.727 175.133 263.994C170.695 265.139 167.312 263.828 164.684 260.49Z" fill="#DB00FF"/>
<path d="M103.641 218.323H94.9615C93.1932 217.489 91.846 216.853 90.1717 216.063C89.3944 223.457 93.7286 227.139 98.8428 230.356C103.921 230.811 105.885 226.4 109.003 223.924C109.44 221.503 109.858 219.185 110.239 217.074C109.504 216.34 109.036 215.872 108.576 215.412C107.003 216.681 104.454 216.228 103.641 218.323Z" fill="#DB00FF"/>
<path d="M107.149 210.047C108.966 211.01 110.387 210.176 110.934 208.819C111.68 206.966 111.81 204.865 112.21 202.841C111.278 202.193 110.515 201.663 109.586 201.019C108.656 202.442 107.889 203.615 107.149 204.746V210.047Z" fill="#DB00FF"/>
<path d="M90.9189 202.54H88.3679C87.9641 203.873 87.623 204.999 87.3052 206.049C88.4944 207.77 88.9217 210.316 92.3157 210.279C91.8286 207.58 91.3888 205.143 90.9189 202.54Z" fill="#DB00FF"/>
<path d="M93.3161 321.419C93.0248 321.724 92.5768 322.193 92.3154 322.467C92.622 324.19 92.9782 325.7 93.1477 327.232C93.6728 331.981 95.8105 336.035 98.4897 339.86C98.6198 340.046 99.0737 340.005 99.7275 340.144C100.235 338.614 100.667 337.31 101.096 336.018C99.6841 332.179 98.2629 328.313 97.1621 325.319C95.5132 323.647 94.412 322.53 93.3161 321.419Z" fill="#DB00FF"/>
<path fill-rule="evenodd" clip-rule="evenodd" d="M100.654 127.846C101.229 127.271 101.969 126.888 102.766 126.727C131.996 120.81 154 94.9746 154 64C154 28.6538 125.346 0 90 0C54.6538 0 26 28.6538 26 64C26 94.5526 47.4088 120.105 76.0433 126.474C76.8108 126.644 77.5213 127.021 78.0774 127.577L86.6716 136.172C88.2337 137.734 90.7663 137.734 92.3284 136.172L100.654 127.846Z" fill="white"/>
<path d="M66.6225 36.4494C73.6783 36.733 80.6645 36.0675 87.7191 36.0353C92.1728 36.0149 96.6208 35.8282 101.074 35.8282C101.897 35.8282 103.064 35.5665 103.685 36.2423C104.346 36.961 104.582 38.198 104.974 39.0721C105.836 40.9969 106.576 42.9581 106.883 45.0537C107.452 48.9307 107.205 52.9263 107.205 56.8328C107.205 60.1023 107.172 63.3453 107.044 66.6104C106.873 70.9774 106.795 75.2178 106.343 79.5629C106.18 81.1234 105.972 83.1964 104.376 83.9455C102.507 84.8228 100.314 85.1707 98.2789 85.2684C92.4902 85.5463 86.7184 85.454 80.9553 86.1426C77.3153 86.5776 73.6961 87.1915 70.0619 87.6725C68.7373 87.8479 68.1778 87.979 67.8878 86.4877C67.3538 83.7415 67.6848 80.8278 67.4507 78.0445C67.1855 74.8922 66.6225 71.8915 66.6225 68.704C66.6225 64.6615 65.8956 60.6465 66.0128 56.6028C66.1101 53.2457 66.5342 49.8553 66.7835 46.5031C67.0715 42.6305 67.4507 38.8959 67.4507 35" stroke="#DB00FF" stroke-width="10" stroke-linecap="round"/>
<path d="M80.0811 51.6212C84.6397 50.99 89.1507 51 93.7467 51" stroke="#DB00FF" stroke-width="10" stroke-linecap="round"/>
<path d="M106.068 47.1931C108.991 46.8883 111.934 46.4602 114.878 46.4602C115.845 46.4602 116.96 46.1249 117.905 46.2701C119.643 46.5376 119.868 49.1981 120.212 50.573C120.862 53.173 121.199 55.7523 121.217 58.4321C121.258 64.7209 121.691 70.988 121.217 77.2722C120.798 82.8236 120.767 88.5084 120.728 94.0762C120.72 95.2485 120.972 96.7043 120.714 97.8633C120.649 98.1579 119.708 98.0103 119.533 98.0126C112.81 98.101 106.092 98.2569 99.3631 98.2569C94.6001 98.2569 89.8938 98.8621 85.1651 98.9899C83.7383 99.0284 82.9621 99.6666 82.8576 97.8904C82.7498 96.0577 82.6133 94.2295 82.6133 92.3931" stroke="#DB00FF" stroke-width="10" stroke-linecap="round"/>
<path d="M79.2529 65C81.9634 65.3942 84.7576 65.2071 87.4891 65.2071C88.7816 65.2071 90.7178 64.8314 91.8833 65.4141" stroke="#DB00FF" stroke-width="10" stroke-linecap="round"/>
<path d="M76.4999 126.5C80.961 126.996 83.5196 138.111 89.6901 138.765C96.2133 139.457 94.5 125.778 116.5 121.5C143.343 116.281 156.355 96.9237 157.5 66C158.746 32.3602 139.6 5 100 5C65.6626 5 38.2028 20.685 30.9998 55.5C24.9999 84.5 42.1269 114.657 61.4999 119.5" stroke="#DB00FF" stroke-width="10" stroke-linecap="round"/>
</svg>
