<svg width="187" height="538" viewBox="0 0 187 538" fill="none" xmlns="http://www.w3.org/2000/svg">
<path d="M186.078 344.571C186.046 343.435 186.371 341.923 185.776 341.243C184.505 339.791 186.583 339.15 186.153 337.882C185.445 335.792 184.95 333.643 185.026 331.322C185.183 326.476 183.269 321.993 180.647 318.218C178.38 314.955 175.489 311.698 171.647 310.052C166.936 308.033 162.4 305.132 156.873 305.897C156.407 305.961 155.917 305.847 155.514 305.821C155.089 305.396 154.736 305.043 154.088 304.395C154.39 302.014 153.339 299.242 155.13 296.896C154.741 296.043 154.181 295.346 154.171 294.641C154.162 293.937 154.933 293.227 154.939 292.516C154.944 291.838 154.126 291.131 154.18 290.48C154.237 289.81 154.911 289.193 155.214 288.713C154.653 287.941 154.288 287.439 153.906 286.912C154.382 286.238 154.742 285.73 155.104 285.221C154.82 283.657 153.094 282.341 154.897 280.408C155.6 279.654 155.683 277.538 154.073 276.416C155.922 275.246 155.519 273.053 154.962 271.96C153.573 269.233 154.316 266.513 154.133 263.807C154.01 261.998 153.679 259.975 154.316 258.4C155.109 256.436 153.223 254.897 154.103 253.146C152.423 250.444 153.345 247.439 153.097 244.568C152.877 242.028 153.602 239.46 152.229 236.921C151.712 235.963 152.607 234.241 152.906 232.612C152.714 232.064 152.345 231.209 152.116 230.319C151.417 227.606 150.881 224.846 150.08 222.164C148.844 218.025 148.073 213.564 145.935 209.925C143.658 206.05 142.299 201.334 137.759 199.044C140.621 195.546 143.7 192.908 146.147 189.6C152.674 180.775 157.165 171.347 157.132 160.135C157.129 159.246 157.548 158.355 157.673 157.855C157.462 156.542 157.221 155.515 157.164 154.478C157.138 154.019 157.658 153.527 157.628 153.069C157.524 151.475 157.347 149.881 157.085 148.305C156.829 146.765 156.396 145.255 156.112 143.718C155.739 141.699 155.841 139.477 155.003 137.686C153.898 135.324 152.197 133.232 151.297 130.722C151.09 130.144 150.941 129.497 150.575 129.03C149.091 127.13 147.592 125.235 145.986 123.438C144.374 121.634 142.936 119.591 141.283 117.96C138.552 115.266 135.167 113.13 131.32 112.03C129.985 111.647 128.652 111.24 127.35 110.758C122.189 108.846 117.083 106.843 111.403 107.01C105.341 107.188 99.2092 106.466 93.3142 109.236C93.3669 109.033 93.4065 108.853 93.4514 108.662C83.5412 113.012 74.8518 118.557 68.1492 126.927C68.1492 127.001 68.1487 127.076 68.1487 127.15C67.1868 129.018 66.6062 130.686 65.5769 132.004C64.3787 133.537 63.4387 135.026 63.0979 137.003C62.7595 138.963 60.6741 140.386 61.1521 142.678C59.1077 145.614 61.197 149.405 59.1536 152.341C59.1682 161.639 58.8162 170.871 63.0306 179.715C66.1209 186.199 67.9593 190.284 72.0975 194.435C72.8807 195.221 73.6517 196.018 74.6185 197.004C73.7835 197.841 73.3221 198.632 72.6444 198.929C67.2577 201.289 63.5741 205.55 60.4911 210.256C58.2138 213.731 55.9349 217.269 54.3905 221.199C53.2089 224.204 51.952 227.194 50.4911 230.07C49.0829 232.843 47.8344 235.585 47.0438 238.654C46.1659 242.064 46.118 245.805 43.8382 248.804C43.4808 249.274 43.2684 249.923 43.179 250.518C42.3133 256.289 39.47 261.715 40.1609 267.757C40.1799 267.921 40.2058 268.103 40.157 268.254C38.2722 274.104 38.8211 276.532 41.9002 284.192C42.1883 284.909 42.1722 285.748 42.3025 286.562C43.4524 287.712 44.6951 288.834 45.7703 290.098C46.1238 290.515 46.0428 291.301 46.2054 291.866C46.5233 292.046 46.7952 292.278 47.0672 292.511C46.9622 292.616 46.8572 292.721 46.7523 292.826C46.5199 292.554 46.2879 292.281 46.0555 292.009C46.1204 291.944 46.1859 291.879 46.2054 291.866C41.4647 290.388 36.8563 288.417 32.0457 287.469C28.285 286.728 24.1687 286.678 20.4002 287.364C15.369 288.278 10.783 290.614 7.58668 294.98C7.00368 295.777 6.10958 296.343 5.50218 297.126C4.34158 298.622 2.80198 300.05 2.27468 301.768C0.758081 306.71 -1.32692 311.681 1.13748 317.007C1.77858 318.392 2.18728 320.056 2.11458 321.564C1.95398 324.875 3.33238 327.87 4.57208 330.563C8.52028 339.139 12.7533 347.634 18.2327 355.378C21.68 360.249 24.6223 365.44 28.0906 370.29C28.1077 374.983 29.2913 379.359 32.2205 383.047C33.4695 384.62 35.2967 385.734 36.8626 387.054C41.826 391.239 47.3816 393.939 54.0325 393.848C56.5955 393.812 59.2356 394.316 60.9339 393.171C61.9461 393.653 62.7064 394.015 63.4222 394.356C62.8675 395.413 62.3387 396.058 62.1844 396.782C61.7572 398.789 61.3402 400.819 61.1917 402.859C61.0286 405.092 60.4744 407.319 60.3382 409.449C60.0589 413.819 58.4036 418.067 59.1336 422.515C59.2361 423.14 59.2488 423.891 58.9979 424.445C57.6615 427.388 57.9857 430.641 57.1747 433.68C56.7738 435.183 56.5883 436.743 56.2816 438.404C56.4803 438.62 56.8104 438.978 57.0082 439.192C56.0228 441.424 55.0795 443.539 55.1337 446.008C55.1889 448.485 55.5468 451.098 54.9115 453.416C53.9384 456.97 53.7894 460.597 53.2186 464.174C52.6097 467.989 52.4896 471.882 52.159 475.741C52.1448 475.906 52.2249 476.172 52.1473 476.226C49.8978 477.782 52.4178 480.868 50.158 482.407V489.401C50.158 490.567 50.5994 492.012 50.0721 492.844C48.7039 495.003 49.0394 497.296 49.2454 499.47C49.4705 501.843 48.1228 503.849 48.2166 506.057C48.3094 508.236 48.8724 510.396 49.0594 511.533C51.637 515.992 55.2093 517.518 58.8568 518.666C60.1893 519.086 61.8988 518.308 63.7162 518.034C70.1254 521.1 73.3544 515.932 77.1439 512.239C77.1439 511.796 77.0492 511.427 77.159 511.136C77.9407 509.07 78.9788 507.036 77.1859 504.928C77.0589 504.779 77.7128 504.11 77.682 503.707C77.62 502.894 76.9203 501.66 77.2201 501.375C78.226 500.42 78.2015 499.36 78.1405 498.212C77.9003 493.67 78.4139 489.213 79.6703 484.532C83.2567 485.563 86.8246 486.588 90.4769 487.638C91.1019 487.364 91.8983 487.015 93.6302 486.256C92.3763 488.875 93.8646 490.471 93.2957 492.585C92.7566 494.586 93.5477 496.945 93.8011 499.651C93.7269 499.769 93.3187 500.416 92.9383 501.02C93.4559 501.577 93.7894 501.935 94.1136 502.284C93.785 502.639 93.4515 502.999 92.9515 503.539C93.2845 504.133 93.6429 504.772 93.7806 505.017C93.5189 506.244 93.1737 507.142 93.1615 508.044C93.1034 512.373 93.2006 516.704 93.0975 521.032C93.0648 522.409 92.5848 523.776 92.3709 524.843C92.8782 527.009 93.3406 528.965 93.7938 530.923C94.3138 533.169 96.3397 534.196 97.5838 535.719C99.5643 536.081 101.524 536.16 103.257 536.827C105.259 537.599 107.077 536.844 108.947 536.702C110.821 536.56 112.947 537.679 114.559 535.824C117.007 536.379 117.972 533.656 119.906 533.37C120.437 532.186 120.718 530.865 121.497 529.988C122.593 528.755 122.485 526.925 121.969 526.345C120.726 524.951 121.159 523.531 121.151 522.141C121.094 512.316 121.164 502.49 121.087 492.665C121.07 490.514 121.426 488.572 122.537 486.916C123.1 487.211 123.642 487.728 124.207 487.754C127.583 487.909 130.677 486.686 133.795 485.611C134.765 485.277 135.733 484.936 136.614 484.628C137.196 486.719 137.862 488.34 138.058 490.015C138.288 491.986 137.787 494.077 138.21 495.982C138.578 497.642 138.043 499.187 138.245 500.653C138.493 502.454 139.601 503.915 138.595 506.049C138.104 507.089 139.783 508.997 138.477 510.239C138.764 511.264 139.014 512.155 139.441 513.674C140.843 514.761 142.729 516.222 144.584 517.66C146.556 518.289 148.888 516.746 150.63 518.746C151.541 516.892 152.527 519.272 153.288 518.74C155.362 517.29 157.991 517.552 160.195 515.955C162.058 514.605 161.93 512.031 164.098 511.408C164.098 509.599 163.591 507.696 164.23 506.33C164.98 504.728 162.15 503.868 163.873 502.507C162.805 501.15 163.205 499.544 163.088 498.019C162.905 495.64 163.31 493.313 162.243 490.875C161.336 488.802 162.622 486.122 161.203 483.795C160.826 483.176 161.715 481.787 161.903 481.155C161.594 479.439 161.204 478.074 161.124 476.691C160.737 470.004 160.507 463.307 160.056 456.625C159.919 454.594 158.537 452.688 159.133 450.551C159.351 449.772 159.733 449.418 159.319 448.29C158.529 446.137 158.742 443.639 158.279 441.257C157.592 437.727 158.112 433.965 158.098 430.301C158.085 426.596 156.188 423.046 157.394 419.043C157.651 418.786 158.123 418.314 158.593 417.843C164.506 418.448 168.423 414.166 173.053 411.76C176.829 409.799 179.284 406.326 180.831 402.356C181.247 400.046 181.922 397.721 182.027 395.37C182.171 392.143 183.817 389.099 183.088 385.795C184.684 383.793 184.209 381.408 184.011 379.222C183.796 376.863 184.943 374.845 185.065 372.633C185.376 366.941 184.539 361.218 185.995 355.539C186.556 353.351 186.087 350.899 186.087 348.568C186.087 347.236 186.115 345.902 186.078 344.571ZM147.025 349.196V351.712H143.602C144.89 350.765 145.659 350.2 147.025 349.196ZM73.3816 167.46C72.967 165.328 73.093 163.178 72.3445 160.912C71.7268 159.045 71.885 156.639 72.9646 154.322C73.8528 152.417 73.1458 149.768 73.1458 147.817C73.9275 146.426 75.0135 145.354 75.0413 144.256C75.0916 142.238 75.6858 140.532 76.7434 138.936C79.6443 134.558 81.9153 129.651 86.2751 126.436C91.6013 122.508 97.2453 119.2 104.157 119.032C106.664 117.227 109.704 117.634 112.169 118.256C114.045 118.73 115.917 118.732 116.792 118.931C120.205 120.441 122.76 121.513 125.261 122.698C126.795 123.425 128.259 124.304 129.731 125.155C130.676 125.702 132.072 126.127 132.397 126.95C133.107 128.749 134.996 129.057 135.947 130.39C137.311 132.298 139.019 134.136 139.752 136.286C141.605 141.716 144.575 146.938 144.062 152.944C143.817 155.801 145.267 158.872 143.109 161.515C143.425 164.304 142.016 166.712 141.477 169.293C140.631 173.345 138.177 176.271 136.129 179.592C132.52 185.443 126.813 188.416 121.11 191.446C118.2 192.992 115.034 193.874 111.687 194.005C110.632 194.046 109.588 194.349 108.251 194.582C105.746 192.719 102.237 194.922 99.2043 193.588C96.2522 192.29 93.0227 191.713 90.2043 190.01C87.4353 188.337 84.967 186.36 82.6662 184.081C80.2516 181.69 78.1257 179.105 76.7477 176.034C75.4948 173.24 74.6189 170.276 73.3816 167.46ZM57.324 330.857C54.158 329.675 51.0428 328.359 47.8914 327.137C43.5931 325.469 39.3157 323.731 34.948 322.265C33.4602 321.766 31.7239 322.034 30.1067 321.888C28.9055 321.779 27.7136 321.567 26.5193 321.401C26.2918 323.206 22.9944 324.203 24.9656 328.227C26.6243 329.972 29.6389 332.069 34.0369 333.374C35.5457 336.165 39.8338 337.134 41.6502 340.761C41.9651 341.39 43.2566 341.793 44.1204 341.836C46.8011 341.971 48.4744 343.641 50.1155 345.34C50.3167 348.763 50.2962 352.099 48.4392 355.147C48.1365 355.644 48.1731 356.389 48.1702 357.021C48.1497 361.51 48.0515 366.003 48.2054 370.487C48.2801 372.662 48.9764 374.74 50.3158 376.592C50.8886 377.383 51.0121 378.5 51.3124 379.387C49.3769 380.506 49.0497 378.793 48.1273 378.374C47.2919 377.994 46.3421 377.865 45.1395 377.544C45.1957 374.714 47.806 371.516 44.3861 368.892C44.139 368.831 43.6898 368.719 43.2167 368.602V366.926C41.4481 364.614 39.9291 362.551 38.3305 360.551C32.2436 352.938 27.4701 344.444 22.2924 336.238C20.5419 333.464 19.4408 330.128 18.0898 327.033C16.978 324.485 15.6455 322.104 14.8925 319.351C14.5575 318.126 14.3852 316.915 14.1567 315.686C13.9902 314.788 13.6362 313.924 13.29 312.798C13.5068 312.242 14.0185 311.409 14.1489 310.52C15.0683 304.255 18.6494 300.952 24.747 300.927C30.1713 300.906 35.2363 302.689 40.2109 304.536C44.9633 306.3 49.6479 308.253 54.4409 309.923C56.0342 310.479 57.562 311.222 59.0625 311.856C57.8208 317.528 57.5659 322.407 59.1196 327.365C58.8447 327.666 58.5151 328.026 58.2597 328.306C58.6288 328.984 58.9882 329.645 59.54 330.659C58.5322 330.765 57.8386 331.05 57.324 330.857ZM59.6165 285.016C59.1951 284.877 58.6448 284.853 58.3382 284.568C56.9979 283.321 55.7283 281.999 54.3196 280.59C53.7088 277.842 53.0696 274.964 52.3894 271.904C52.9778 266.878 55.5901 261.942 55.1609 256.769C56.6785 253.858 57.824 251.24 58.2571 248.185C58.6633 245.322 59.7439 242.503 60.8611 239.802C62.8601 234.971 64.5935 230.051 67.0227 225.36C69.6086 220.365 71.8225 215.242 75.0032 212.744C77.802 210.545 80.197 207.537 83.7537 206.912C89.6468 210.251 95.4178 212.926 102.07 212.977C103.342 212.986 104.495 213.375 105.717 213.77C107.349 214.298 109.403 214.062 111.395 213.391C113.879 212.555 116.7 212.726 119.314 211.987C122.93 210.966 126.492 209.874 129.585 207.152C132.732 209.108 134.032 212.752 134.853 215.865C135.644 218.865 137.393 221.563 137.548 224.808C137.673 227.431 138.719 229.996 139.08 232.624C139.953 239 140.363 245.411 140.151 251.857C140.133 252.399 140.688 252.961 140.994 253.547C140.765 253.792 140.43 254.151 139.912 254.708C140.294 255.313 140.702 255.96 141.268 256.858C140.927 257.398 140.519 258.044 139.998 258.87C140.336 259.448 140.723 260.111 141.176 260.885C141.005 261.236 140.802 261.651 140.44 262.392C140.785 263.409 142.003 264.817 140.402 266.145C141.211 267.655 141.558 269.155 140.293 270.615C142.012 271.938 140.031 273.892 140.56 274.625C141.916 276.508 140.58 277.619 140.061 279.152C140.382 279.596 140.746 280.101 141.094 280.585C139.126 285.35 141.074 290.453 139.97 295.143C138.66 300.711 139.267 306.221 139.216 311.744C139.196 313.921 138.405 315.789 138.089 317.818C137.797 319.683 138.433 321.485 137.299 323.506C136.329 325.234 136.591 327.82 136.285 330.004C135.161 338.031 130.33 343.122 124.106 347.396C120.355 347.844 117.196 350.094 113.558 350.864C111.551 351.289 109.519 351.673 107.479 351.844C105.495 352.01 103.482 351.799 101.489 351.896C96.6273 352.133 92.0814 351.013 87.6995 348.987C87.1468 348.732 86.4031 348.89 86.1175 348.875C84.4232 347.73 82.8265 346.919 81.5677 345.747C78.3953 342.792 75.8275 339.569 74.972 334.974C74.5653 332.79 73.7323 330.467 73.2874 328.25C72.7088 325.369 73.1458 322.285 73.1458 319.288V307.301C73.1458 305.304 72.7483 303.196 73.2625 301.34C73.7361 299.633 72.5198 297.878 73.2601 296.715C74.4662 294.818 74.033 292.953 74.1263 291.062C74.2157 289.235 73.6707 287.236 74.2376 285.601C75.7415 281.26 74.4417 276.777 75.2596 272.52C76.1644 267.81 75.722 263.09 76.3138 258.45C76.5911 256.272 77.0135 254.083 77.182 251.853C77.3363 249.813 77.9569 247.808 78.1049 245.768C78.2724 243.45 78.1366 241.109 78.1488 238.779C78.1517 238.296 78.0341 237.611 78.2967 237.363C80.4329 235.353 78.6707 233.51 78.0882 231.69C78.512 231.113 78.8802 230.611 79.4486 229.837C78.8685 229.225 78.3348 228.662 77.7704 228.067H73.4633C72.4057 231.747 70.0527 234.731 69.0888 238.371C68.1376 241.962 67.4701 245.717 66.0112 249.071C64.5434 252.446 64.4023 256.028 63.3647 259.447C62.2651 263.07 62.9458 267.208 62.0293 270.919C61.0718 274.796 61.293 278.632 61.1455 282.039C60.5195 283.258 60.0906 284.092 59.6165 285.016ZM74.3342 408.053C74.2165 409.628 74.176 410.103 74.1462 410.579C73.9724 413.337 74.259 416.229 73.5012 418.815C72.7297 421.448 74.1018 424.316 72.219 426.782C71.7371 427.412 72.1467 428.723 72.1467 429.722C72.1467 432.218 72.365 434.739 72.0827 437.203C71.82 439.502 70.4826 441.776 70.634 443.991C70.757 445.793 70.5861 447.308 70.2683 449.057C69.5505 453.009 69.5315 457.085 69.1282 461.101C68.9065 463.304 68.3958 465.478 68.1736 467.681C67.9671 469.734 68.3469 471.761 67.2434 473.806C66.3855 475.396 68.0583 477.739 66.1746 479.321C67.9964 480.664 64.6043 482.898 66.9988 484.143C64.8147 486.865 67.4329 490.475 65.2678 493.316C64.7043 494.056 65.2654 495.585 65.1282 496.73C64.8645 498.929 64.6233 501.153 64.0462 503.278C63.8509 503.997 62.6697 504.448 61.3065 505.519C61.243 503.074 61.577 501.207 61.0545 499.623C60.4295 497.731 63.7151 496.169 61.2523 494.387C62.6717 492.908 61.9461 491.048 62.1644 489.352C62.3836 487.644 61.3636 485.688 63.1239 484.288C62.7938 483.928 62.4628 483.567 62.0277 483.094C62.3924 482.286 63.0301 481.47 63.1083 480.603C63.5326 475.923 63.7631 471.226 64.1747 466.544C64.3685 464.34 64.2685 461.858 65.2699 460.032C67.0844 456.724 64.8934 452.883 67.1493 449.811C65.8358 447.59 67.0775 445.25 67.3764 443.183C67.6933 440.995 68.4223 438.749 68.0229 436.597C67.7983 435.387 70.1606 434.483 68.206 433.384C69.5097 432.46 69.0971 431.082 69.1484 429.828C69.2002 428.556 68.8486 427.238 70.0981 426.189C70.4262 425.913 70.1328 424.916 70.1499 424.251C70.2944 418.64 72.2305 413.243 72.147 407.604C73.8677 406.07 72.7525 403.902 73.6734 402.42C73.9595 401.858 74.2462 401.295 74.6963 400.411C75.1646 402.968 75.5288 404.958 75.9976 407.516C75.5484 407.661 74.5329 407.989 74.3342 408.053ZM92.6052 474.755C89.8186 474.059 86.9197 473.334 83.4538 472.468C84.4811 471.222 85.1364 469.856 85.6393 469.91C88.6627 470.233 90.7833 466.322 94.0714 468.183C92.6632 469.279 94.2067 470.25 94.1954 471.292C94.1808 472.695 94.0324 473.875 92.6052 474.755ZM93.4461 452.961C90.2327 454.404 86.9871 455.775 83.719 457.182C83.0896 455.29 82.6028 453.827 82.0164 452.063C85.9466 451.834 88.9876 449.614 92.4842 447.41C93.1732 448.984 93.762 450.328 94.3655 451.707C93.9915 452.237 93.8084 452.798 93.4461 452.961ZM84.2629 438.431V433.17C85.8894 430.231 86.0192 430.43 93.9719 426.932V436.387C90.6208 437.092 87.4865 437.752 84.2629 438.431ZM91.9172 416.881C90.5647 417.177 88.591 417.608 86.0695 418.159C86.5099 415.268 85.3844 412.815 87.0168 410.304C87.6237 409.37 87.6755 407.262 87.0271 406.495C85.592 404.797 86.4182 403.043 86.0715 401.098H95.0632C95.7234 405.318 92.2785 409.725 95.6023 414.027C94.3489 414.998 93.3264 415.79 91.9172 416.881ZM109.04 520.381C108.622 520.845 108.11 521.413 107.418 522.18C106.586 521.537 105.973 521.063 105.375 520.601C106.096 518.675 106.049 517.892 105.196 516.124C105.526 514.808 106.049 513.614 106.087 512.404C106.202 508.746 106.704 504.968 106.007 501.444C104.617 494.414 105.306 487.386 105.161 480.362C105.016 473.374 105.031 466.379 105.174 459.392C105.236 456.362 105.86 453.347 106.079 450.314C106.129 449.625 105.56 448.891 105.273 448.173C105.614 446.572 106.079 445.366 106.094 444.154C106.169 437.83 105.975 431.5 106.183 425.182C106.318 421.053 106.978 416.942 107.643 412.855C107.804 416.117 107.683 419.426 108.21 422.627C108.707 425.654 109.439 428.627 109.096 431.711C109.032 432.289 108.567 432.822 108.332 433.286C108.586 433.956 109.088 434.667 109.092 435.38C109.143 445.866 109.054 456.354 109.231 466.837C109.25 467.99 107.633 468.688 108.81 470.176C109.471 471.012 109.085 472.696 109.119 474C109.155 475.33 109.127 476.663 109.127 477.994C109.127 479.992 109.144 481.989 109.122 483.986C109.099 486.132 109.542 488.462 108.843 490.367C108.223 492.056 110.566 494 108.169 495.245C109.704 497.105 109.537 499.036 108.404 501.006C109.813 502.369 107.817 504.198 109.055 505.7C109.341 506.047 108.64 507.127 108.54 507.889C108.424 508.778 108.293 509.727 108.479 510.582C108.821 512.146 108.827 513.348 108.078 514.995C108.404 515.453 108.765 515.961 109.296 516.706C108.946 517.26 108.536 517.906 108 518.753C108.278 519.189 108.611 519.71 109.04 520.381ZM128.139 408.852C128.038 407.205 128.117 405.547 128.117 403.894V398.952H129.745C130.98 401.651 129.389 404.576 130.95 407.443C132.155 409.655 130.322 412.868 131.916 415.53C131.752 415.709 131.423 416.067 130.925 416.611C131.199 417.086 131.485 417.582 131.54 417.677C131.171 418.735 130.888 419.548 130.606 420.361C130.288 420.33 129.97 420.298 129.652 420.267C129.401 419.42 129.15 418.572 128.899 417.725C128.555 417.936 128.212 418.146 127.868 418.357C128.153 416.816 128.633 415.279 128.67 413.731C128.708 412.111 128.239 410.485 128.139 408.852ZM130.429 434.413C129.666 434.662 129.067 434.856 128.469 435.051C128.625 435.258 128.782 435.464 128.939 435.67H120.466C119.934 435.138 119.584 434.788 119.164 434.368C119.565 432.969 119.982 431.519 120.525 429.626C122.804 433.189 126.889 432.396 130.429 434.413ZM119.634 476.248C120.313 474.782 120.706 474.18 120.864 473.521C121.026 472.847 119.728 472.125 120.955 471.333C121.138 471.214 120.615 470.002 120.346 469.035C120.576 468.857 121.086 468.465 121.66 468.023C125.058 468.763 128.263 469.46 132.226 470.322C131.999 470.044 132.344 470.405 132.612 470.816C132.861 471.198 133.027 471.633 133.287 472.164C128.929 473.467 124.722 474.726 119.634 476.248ZM131.913 456.777C130.867 456.594 129.881 456.1 128.847 455.825C127.945 455.586 126.883 455.68 126.128 455.23C125.274 454.721 124.345 456.45 123.555 454.875C123.232 454.23 121.97 454.056 121.223 453.708V448.775C125.563 448.988 129.801 448.866 133.819 446.88C136.509 449.684 134.389 453.182 135.384 456.811C133.838 456.811 132.85 456.94 131.913 456.777ZM147.94 457.63L147.32 457.673C147.238 456.456 147.156 455.239 147.074 454.022L147.94 453.979V457.63ZM148.121 449.937C148.013 450.861 148.107 451.808 148.107 452.745C146.959 449.388 145.781 446.151 146.049 442.581C146.312 439.059 144.797 435.68 144.998 432.045C145.183 428.728 144.302 425.366 144.146 422.013C143.979 418.397 144.109 414.767 144.109 409.946C145.132 411.864 145.615 412.768 146.129 413.731C145.618 415.166 144.035 416.476 145.798 418.056C145.997 418.235 146.074 418.617 146.098 418.914C146.445 423.254 147.006 427.593 147.05 431.937C147.112 437.962 148.831 443.874 148.121 449.937ZM151.956 365.894C151.067 367.634 150.366 369.007 149.218 371.255C148.304 372.169 146.658 373.814 144.609 375.864C144.24 375.864 143.103 375.529 142.744 375.917C139.817 379.068 135.673 379.956 131.967 381.255C128.814 382.36 125.583 384.181 122.074 383.761C120.573 383.582 119.852 385.725 118.103 384.512C117.42 384.038 115.946 384.783 114.825 384.839C113.333 384.914 111.824 384.755 110.343 384.902C109.621 384.974 108.947 385.514 108.013 385.955C107.625 385.679 107.121 385.319 106.357 384.774C104.947 385.227 103.221 386.962 101.522 384.858C99.3045 386.111 97.1097 384.46 94.8651 384.83C89.805 385.663 85.2303 383.106 80.3568 382.574C79.2977 381.101 77.638 382.102 76.2797 381.587C72.1864 380.037 66.4413 376.205 63.5414 372.788C62.7997 371.913 61.848 371.217 61.3515 370.766V358.672C63.6577 359.857 66.1025 360.489 67.6303 362.03C70.6176 365.042 74.6879 365.191 78.1742 366.805C81.3998 368.299 85.2992 367.699 88.4501 369.68C90.539 367.677 92.3607 370.529 94.5551 369.987C96.7485 369.445 99.1801 369.868 101.507 369.868C104.499 369.868 107.492 369.898 110.483 369.857C112.612 369.829 115.156 370.404 116.759 369.446C118.719 368.276 121.204 370.096 122.621 367.869C125.632 367.496 128.642 367.123 131.652 366.75L131.526 366.395C134.157 365.554 136.806 364.769 139.411 363.855C141.729 363.042 143.995 362.081 146.288 361.196C148.127 360.485 149.76 359.609 150.155 357.387C150.203 357.118 150.924 356.968 151.956 356.45L151.956 365.894ZM171.937 337.619C172.187 338.127 172.458 338.679 172.773 339.318C172.579 339.984 172.162 340.81 172.127 341.652C172.03 343.978 171.982 346.317 172.113 348.639C172.793 360.68 170.936 372.646 171.094 384.669C169.733 388.266 170.204 392.025 170.043 395.735C170.006 396.583 169.308 397.401 168.81 398.455C167.006 399.706 165.089 401.454 162.84 402.467C160.811 403.382 159.049 405.432 156.291 404.724C156.087 398.524 154.265 392.489 155.333 386.036C157.903 384.795 159.103 382.063 160.847 379.736C162.718 377.241 163.213 374.386 164.174 371.6C165.16 368.741 165.189 365.888 165.06 363.004C164.94 360.3 165.738 357.541 164.192 354.875C163.613 353.879 164.216 352.253 164.061 350.94C163.936 349.884 163.479 348.868 163.089 347.569C164.889 345.341 166.578 343.251 168.224 341.213C167.383 339.492 166.641 337.973 165.655 335.957C163.824 335.654 161.265 334.472 159.261 335.09C156.655 335.894 154.167 335.685 151.614 335.922C151.148 335.429 150.692 334.947 150.229 334.458C153.043 329.814 151.634 324.013 154.18 318.997C158.798 318.438 163.071 319.898 166.655 322.207C169.986 324.352 171.708 328.175 172.095 332.324C172.226 333.729 171.541 335.336 173.072 336.391C172.74 336.749 172.408 337.109 171.937 337.619Z" fill="black"/>
<path fill-rule="evenodd" clip-rule="evenodd" d="M121.654 127.846C122.229 127.271 122.969 126.888 123.766 126.727C152.996 120.81 175 94.9746 175 64C175 28.6538 146.346 0 111 0C75.6538 0 47 28.6538 47 64C47 94.5526 68.4088 120.105 97.0433 126.474C97.8108 126.644 98.5213 127.021 99.0774 127.577L107.672 136.172C109.234 137.734 111.766 137.734 113.328 136.172L121.654 127.846Z" fill="white"/>
<path d="M97.4999 126.5C101.961 126.996 104.52 138.111 110.69 138.765C117.213 139.457 115.5 125.778 137.5 121.5C164.343 116.281 177.355 96.9237 178.5 66C179.746 32.3602 160.6 5 121 5C86.6626 5 59.2028 20.685 51.9998 55.5C45.9999 84.5 63.1269 114.657 82.4999 119.5" stroke="black" stroke-width="10" stroke-linecap="round"/>
<path d="M79.9556 59.5143C87.2701 52.4149 97.9244 57.3233 106.78 55.925C114.71 54.6729 122.553 52.165 129.591 48.2628C134.288 45.6583 138.79 43.353 142.982 40" stroke="black" stroke-width="10" stroke-linecap="round"/>
<path d="M142.88 40.2134C147.651 46.4766 150.481 54.7689 155.488 60.5252" stroke="black" stroke-width="10" stroke-linecap="round"/>
<path d="M76 61.8878C77.6158 65.8835 78.9532 69.7847 80.0728 73.9304C80.8217 76.7033 82.0275 79.3644 82.6513 82.1639C82.7402 82.5628 83.069 86.7014 83.6475 86.6762C85.3868 86.6006 87.0526 85.4016 88.6579 84.8303C91.4943 83.8207 94.8657 84.3028 97.8291 84.3028C101.636 84.3028 105.381 84.7746 109.168 84.8303C119.687 84.9849 131.596 85.5021 140.403 78.5892C144.307 75.5246 147.498 72.6211 149.838 68.2753C150.822 66.4482 153.754 62.1757 155.488 60.8755" stroke="black" stroke-width="10" stroke-linecap="round"/>
<path d="M118.71 61.8339C115.329 62.0869 110.57 61.8462 108.699 65.0937C106.137 69.5401 111.173 72.6634 114.86 74.7934C118.706 77.0152 124.921 76.177 127.182 72.2094C131.265 65.0438 119.092 58.2572 112.164 60.4028" stroke="black" stroke-width="10" stroke-linecap="round"/>
<path d="M136 47C136.966 48.265 138.829 48.972 140.81 48.972C141.361 48.972 142.054 49.0504 142.588 48.9447C143.102 48.8428 143.451 48.479 144 48.479" stroke="black" stroke-width="10" stroke-linecap="round"/>
<path d="M152 59C150.615 59.9425 148.271 61.0704 147.501 62.403C146.881 63.4754 146.801 65.2447 147.46 66.2985C147.774 66.8018 148.519 67.5347 149.227 67.806C149.494 67.9087 149.65 67.8095 149.781 68" stroke="black" stroke-width="10" stroke-linecap="round"/>
<path d="M83 80.5854C86.3783 78.9275 90.6359 77.2282 93 83" stroke="black" stroke-width="10" stroke-linecap="round"/>
<path d="M80 65C83.0166 63.3241 85.1754 60.6651 86 57" stroke="black" stroke-width="10" stroke-linecap="round"/>
</svg>
