<svg width="208" height="535" viewBox="0 0 208 535" fill="none" xmlns="http://www.w3.org/2000/svg">
<path d="M141.7 310.894C140.099 311.982 138.199 312.764 137.041 314.16C134.084 317.726 130.304 318.33 125.687 317.769C127.742 320.396 129.315 322.928 131.387 324.946C135.529 328.98 136.21 334.638 138.706 339.429C138.192 344.108 139.198 348.758 137.833 353.539C134.595 364.883 132.791 367.865 128.469 374.669C124.687 380.622 120.418 386.141 115.703 391.354C113.313 393.997 112.991 395.904 114.754 399.087C116.789 402.762 119.226 406.215 121.242 409.9C122.956 413.032 124.835 416.083 126.469 419.231C128.125 422.419 129.848 425.511 131.839 428.496C133.116 430.41 133.929 432.628 135.083 434.632C135.949 436.137 137.027 437.519 137.909 438.808H143.219C143.942 439.53 144.649 440.237 145.356 440.943C148.216 452.969 148.579 462.627 146.523 471.436C145.495 471.798 144.283 471.915 143.493 472.555C139.936 475.435 135.762 477.179 131.744 479.212C131.2 479.487 130.575 479.701 129.974 479.743C128.231 479.865 126.541 479.668 124.822 480.637C124.046 481.074 122.495 480.135 121.363 479.839C120.019 478.048 119.549 476.137 119.689 473.984C119.818 471.994 119.7 469.989 119.721 467.991C119.741 466.078 120.15 464.261 120.568 462.378C121.579 457.825 119.756 453.469 117.187 449.912C111.575 442.14 106.015 434.371 101.34 425.979C99.3055 422.326 97.5853 418.508 95.059 414.797C94.835 415.255 94.5578 415.823 93.7844 417.406C93.8908 419.259 93.1987 422.224 92.022 425.257C91.2823 427.164 90.9242 429.549 90.8017 431.725C90.5859 435.559 89.108 439.066 88.137 442.662C87.6113 444.608 88.7817 447.014 86.7337 448.55C86.3236 452.064 85.9136 455.578 85.5161 458.983C90.0808 463.189 91.6226 468.381 91.7215 474.128C91.7759 477.291 91.56 480.468 91.7853 483.616C91.9661 486.14 92.6281 488.63 92.9788 490.588C91.8095 492.288 91.0051 493.457 89.9628 494.972C89.0269 494.625 87.8883 494.202 86.8331 493.81C86.5123 490.805 87.4097 487.9 85.0093 485.701C81.9366 486.148 82.2641 489.167 81.8958 490.915C80.7996 496.115 78.3915 499.618 73.3766 501.891C69.8356 503.496 66.6231 505.457 61.7932 504.465C59.548 503.636 57.614 501.528 56.9322 499.499C57.2839 496.422 57.5979 494.394 57.7335 492.354C58.1114 486.667 57.8396 480.86 58.9389 475.321C59.7521 471.224 59.0464 467.151 59.8561 463.23C60.8286 458.523 60.6356 453.843 60.7914 449.136C60.8201 448.266 61.4222 447.415 61.7881 446.483C61.5041 446.133 61.2034 445.762 61.053 445.576C61.2957 443.411 61.791 441.383 61.6763 439.389C61.5426 437.062 62.3266 434.987 62.7356 432.803C63.144 430.623 61.9533 428.234 63.6987 426.185C64.0276 425.799 63.7531 424.893 63.7446 424.227C63.7017 420.859 64.5162 417.655 65.5447 414.482C65.7386 413.884 65.6842 413.206 65.7447 412.565C66.0778 409.04 66.0831 405.441 66.8492 402.012C67.4503 399.322 68.385 396.663 69.1766 393.994C69.8257 391.805 70.018 389.493 71.4165 387.399C72.2397 386.167 72.0655 383.74 71.4659 382.188C69.9158 378.175 68.5991 374.185 68.7432 369.83C65.482 361.142 66.8559 352.082 66.8866 343.182C66.8997 339.374 68.7825 335.609 69.2512 331.756C69.7174 327.923 72.083 324.91 73.0274 321.28C73.5869 319.129 73.7288 317.601 72.9653 315.434C71.2173 310.472 70.1288 305.28 68.7228 300.195C68.52 299.462 68.0422 298.805 67.9692 298.661C63.7779 297.234 60.1229 295.99 56.3037 294.69C51.5495 291.476 48.1892 286.872 45.8528 280.818C44.6865 274.469 46.5658 268.044 50.7223 262.618C54.8382 257.244 60.7834 254.064 67.7051 251.309C68.8855 250.413 70.6746 249.053 72.5885 247.6C73.2619 245.124 72.2462 243.091 70.5622 241.228C69.5883 240.15 68.742 238.953 67.7247 237.921C66.8913 237.076 65.7455 236.517 64.9901 235.62C62.5145 232.679 60.154 229.641 57.7487 226.641C57.4475 226.265 57.1562 225.88 56.8357 225.521C52.1244 220.251 46.2274 216.09 42.3528 210.037C38.9786 208.722 37.1884 205.584 34.6732 203.289C33.2925 202.029 32.3452 200.304 31.0151 198.977C29.6545 197.619 28.0028 196.557 26.5895 195.246C24.2303 193.057 22.5293 190.34 20.7506 187.686C20.2109 186.881 19.4865 186.191 18.7988 185.495C13.1698 179.801 8.6417 173.305 4.774 166.323C3.0458 163.203 1.57501 160.074 0.647409 156.521C-1.20619 149.422 0.903696 143.29 7.1938 140.08C7.8761 139.731 8.61077 139.486 9.78797 139H14.9634C16.0635 139.743 16.9493 140.826 17.9105 140.898C20.6454 141.102 21.3316 144.206 23.767 144.666C25.0348 147.871 27.4263 150.39 28.9763 153.488C32.0073 159.546 35.4907 165.428 40.4709 170.239C41.9547 171.672 43.1377 173.431 44.3722 175.104C45.4623 176.582 47.595 176.986 48.2117 178.919C52.7192 181.032 54.9984 185.766 59.3372 188.208C62.1059 189.767 64.2963 192.349 66.7586 194.457C67.4645 195.062 68.2139 195.616 69.0218 196.255C69.8973 194.127 70.6519 192.293 71.7418 189.644C71.7418 187.406 71.7322 184.256 71.7452 181.105C71.754 179 73.135 176.222 74.0252 174.058C75.4389 170.623 77.8307 168.062 80.5037 165.776C86.0189 161.059 92.1533 157.608 99.3704 155.815C103.32 154.834 107.14 154.989 110.984 155.101C113.359 155.17 115.686 156.435 117.906 157.587C119.275 158.298 121.103 158.128 121.997 159.758C122.368 160.435 122.718 161.122 123.181 162.001C125.254 161.716 127.583 162.654 129.575 160.97C131.01 161.527 132.432 162.119 133.882 162.636C139.523 164.649 142.928 169.031 145.669 173.992C147.78 177.812 148.973 181.923 149.896 186.265C150.79 190.463 150.265 194.637 150.954 199.406C154.62 193.772 159.601 189.932 162.801 184.563C163.286 183.748 164.351 182.93 165.151 182.151C171.367 176.097 175.885 168.543 182.396 162.775C184.449 160.957 186.438 158.995 188.741 157.553C190.252 156.607 192.246 156.302 194.072 156.028C195.701 155.783 197.396 155.976 199.061 155.976C200.819 157.363 202.778 158.564 204.274 160.19C205.619 161.654 206.457 163.584 207.657 165.532C208.217 173.852 204.859 180.864 199.794 187.495C197.08 191.048 193.84 194.002 190.876 197.261C186.57 201.998 182.295 206.762 177.588 211.978C177.929 212.897 178.139 214.591 179.066 215.669C180.243 217.037 180.639 218.83 181.741 220.064C185.125 223.856 185.386 228.908 187.38 233.247C188.018 234.635 187.672 236.476 187.827 238.908C190.522 241.997 193.675 245.61 196.676 249.049C196.676 250.716 196.526 252.066 196.711 253.368C197.002 255.419 196.232 257.146 195.27 258.782C192.768 263.037 189.309 266.396 185.057 268.871C183.348 269.866 181.435 270.51 179.433 271.394C179.77 272.111 180.032 272.668 180.368 273.383C180.186 273.983 179.724 274.809 179.717 275.639C179.648 284.512 175.553 291.617 169.978 298.086C169.544 298.589 169.01 299.006 168.575 299.508C164.85 303.809 160.489 307.173 155.038 309.054C147.872 311.526 148.394 312.788 141.7 310.894ZM115.718 425.8C115.869 426.558 115.223 427.713 116.718 427.799C116.718 428.123 116.592 428.525 116.737 428.761C119.201 432.775 121.678 436.782 124.218 440.748C124.52 441.221 125.205 441.449 126.489 441.763C126.201 441.778 125.913 441.793 125.625 441.807C125.753 442.458 125.88 443.109 126.008 443.761C126.223 443.731 126.438 443.702 126.653 443.673C126.598 443.036 126.544 442.4 125.713 441.79C125.608 441.184 125.645 440.504 125.373 439.986C123.881 437.156 122.25 434.422 120.344 431.827C119.252 430.34 118.574 428.571 116.718 427.799C116.567 427.041 117.214 425.885 115.718 425.8C115.568 425.043 116.214 423.887 114.719 423.801C114.568 423.044 115.215 421.888 113.719 421.803C113.386 421.47 113.053 421.136 112.72 420.803C112.881 419.253 112.299 418.197 111.102 417.558C110.511 416.648 109.92 415.737 109.104 414.48C108.269 416.791 109.61 417.225 110.721 417.805C110.561 419.356 111.142 420.412 112.72 420.803C113.053 421.136 113.386 421.47 113.719 421.803C113.87 422.56 113.224 423.716 114.719 423.801C114.87 424.559 114.223 425.715 115.718 425.8ZM132.589 455.527C130.995 456.611 131.995 458.14 131.819 459.363C131.813 459.401 132.231 459.501 132.589 459.617C132.589 458.275 132.589 457.028 132.605 455.69L132.8 455.885C133.072 455.653 133.344 455.421 133.617 455.189C133.512 455.083 133.406 454.978 133.301 454.874C133.069 455.146 132.837 455.418 132.589 455.527ZM114.44 269.123C116.236 266.314 118.298 263.743 119.654 260.841C123.144 253.369 128.919 247.616 133.924 241.297C137.064 237.332 140.892 233.91 144.006 229.927C144.986 228.672 146.513 228.117 147.184 226.868C149.69 222.209 154.713 219.704 157.127 215.007C165.254 206.548 173.393 198.102 181.499 189.625C184.314 186.681 187.533 184.121 189.673 180.533C190.729 178.762 192.083 177.112 193.548 175.655C195.99 173.229 197.465 170.621 196.218 166.621C194.016 167.502 191.903 168.348 189.95 169.129C189.617 169.892 189.504 170.583 189.105 171C186.055 174.183 182.962 177.291 180.215 180.787C177.196 184.626 173.476 187.878 170.285 191.639C166.392 196.227 162.075 200.488 158.078 205.022C154.616 208.949 150.452 212.203 147.432 216.589C145.947 218.747 143.685 220.359 141.863 222.301C140.085 224.196 138.704 226.61 136.627 228.034C134.613 229.413 132.941 231.242 131.568 232.924C129.931 234.931 128.167 236.526 126.15 238.024C124.704 239.098 124.204 240.981 122.372 241.946C120.715 242.82 119.595 244.709 118.527 245.844H115.145C113.658 244.357 112.245 242.944 110.832 241.531C111.158 241.038 111.483 240.545 111.779 240.095C110.499 237.903 110.747 234.85 107.502 233.85C104.149 234.478 101.769 237.204 98.5102 239.103C95.5994 238.314 92.4414 237.458 89.3524 236.62C87.8941 239.604 86.3745 242.101 85.1293 244.778C83.1684 248.993 80.1857 252.75 77.4773 256.589C76.7806 257.577 75.5208 258.189 74.4703 258.902C70.1831 261.807 66.066 265.037 61.5251 267.475C56.8432 269.988 56.0306 273.958 55.8035 276.374C56.7378 282.42 60.8138 282.615 63.1076 284.757H69.213C70.9395 283.818 71.1779 282.258 70.6534 281.177C69.7247 279.263 70.8813 277.766 71.0824 276.098C71.1491 275.544 71.6464 275.041 71.8546 274.677C71.302 273.931 70.932 273.432 70.7576 273.197C71.8683 269.865 73.1514 267.148 75.26 264.619C77.2201 262.268 79.2189 260.247 81.6279 258.347C85.7213 255.119 86.3938 254.345 88.3194 254.052C89.582 254.69 90.3296 255.068 90.9728 255.393C89.2769 259.692 86.7666 262.956 84.0551 265.988C81.2283 269.149 80.3338 273.117 78.7803 276.816C78.483 277.524 78.4047 278.693 78.7941 279.257C80.7101 282.034 81.3229 285.901 85.3052 287.023C86.4606 287.349 87.4523 288.255 87.8671 288.504C94.9104 289.961 100.368 288.294 104.729 283.335C104.97 282.153 104.385 280.893 105.346 279.616C105.909 278.867 105.85 277.39 105.613 276.344C104.659 272.144 104.771 272.194 105.492 268.56C105.974 266.128 106.233 263.549 104.931 261.095C106.222 259.928 107.524 258.751 108.889 257.517C110.309 259.054 111.433 260.27 112.855 261.808V267.538C113.384 268.067 113.737 268.421 114.44 269.123ZM164.211 227.911C160.101 232.02 156.091 236.199 151.856 240.137C150.885 241.041 151.245 242.801 149.182 243.148C147.844 243.372 146.797 245.323 145.619 246.501C144.442 247.678 142.759 248.662 142.215 250.082C141.548 251.827 139.638 251.797 138.989 253.162C137.673 255.93 135.471 258.049 133.788 260.518C128.902 267.689 125.325 275.618 121.872 283.54C121.103 285.303 119.833 287.175 119.793 289.139C119.713 293.022 117.865 296.377 117.044 300.024C116.582 302.077 116.611 305.227 117.408 307.618C117.757 306.643 117.822 305.168 118.542 304.699C120.574 303.375 121.631 301.503 122.789 299.499C123.839 297.683 125.521 296.234 127.524 293.933C127.524 296.436 127.74 298.043 127.46 299.559C127.2 300.968 126.41 302.278 125.858 303.622C126.827 304.022 127.625 304.352 128.312 304.636C131.563 302.038 134.461 299.039 135.535 295.133C136.081 293.148 137.134 292.101 138.102 291.124H142.252C141.607 292.502 140.963 293.427 140.757 294.44C140.53 295.56 140.784 296.768 140.681 297.925C140.594 298.898 140.295 299.852 139.998 301.249C142.235 299.941 143.774 298.688 144.806 296.463C145.723 294.487 147.674 293.019 148.875 291.139C150.028 289.333 150.825 287.296 151.741 285.343C152.656 283.39 153.524 281.415 154.748 278.709V275.17C154.908 275.271 155.068 275.372 155.227 275.473C155.513 274.91 155.798 274.347 155.957 274.032C156.705 274.579 157.228 274.961 157.462 275.132C157.178 276.169 156.962 276.96 156.666 278.041H159.606V286.481C158.934 287.152 158.346 287.741 157.928 288.158C157.467 290.489 157.055 292.573 156.613 294.805C159.736 294.334 160.383 291.773 161.974 290.188C166.783 285.398 168.206 279.277 168.574 272.958C168.815 268.809 167.935 264.595 167.568 260.531C168.174 259.925 168.645 259.454 168.882 259.218C171.296 259.729 173.534 260.202 176.119 260.749C177.734 260.066 180.022 259.599 181.622 258.291C183.397 256.841 184.544 254.624 185.989 252.709C181.945 250.678 179.96 247.209 177.651 243.978C175.067 240.364 175.821 236.29 175.677 232.417C175.004 231.743 174.415 231.155 174.073 230.813C174.227 229.736 174.351 228.866 174.619 226.984C173.008 228.351 172.221 229.019 171.284 229.814C172.5 232.813 173.6 235.527 174.759 238.388C174.1 238.963 173.407 239.568 172.835 240.066C167.715 237.363 166.997 232.002 164.211 227.911ZM93.2635 225.978C99.4504 226.042 104.147 222.913 108.679 219.451C110.33 218.19 111.41 216.303 113.539 215.496C114.453 215.151 115.054 213.883 115.709 212.971C117.539 210.423 118.808 207.391 121.681 205.866C123.559 206.568 123.928 207.877 123.83 208.694C126.741 211.605 129.303 214.166 132.107 216.97C134.992 214.212 138.354 211.497 139.706 206.22C139.706 205.465 139.781 203.797 139.692 202.138C139.405 196.781 140.381 191.389 138.813 186.045C138.3 184.296 137.881 182.33 137.451 180.561C137.042 178.876 135.312 177.241 134.525 175.327C133.949 173.926 131.644 174.212 131.329 172.215C131.246 171.687 129.822 171.16 128.948 171.006C125.998 170.487 123.018 170.137 120.41 169.772C118.568 171.614 116.606 172.789 115.871 174.493C114.737 177.124 112.519 178.155 110.55 179.725C108.562 181.31 106.856 183.046 104.338 184.063C100.245 185.717 96.2194 187.301 91.5666 187.049C92.3436 188.635 92.7205 190.774 92.6973 193.467C91.869 194.303 91.0497 195.13 90.4141 195.771H86.8018C86.5671 192.129 86.6645 188.855 90.809 187.406C87.5331 185.734 85.502 188.745 83.1263 189.153C82.3087 190.75 81.6059 192.123 80.7834 193.73C81.1393 196.851 79.1969 200.016 79.7078 203.488C80.1969 206.815 80.442 210.177 80.7977 213.555C81.9748 215.376 83.1815 217.199 84.3422 219.051C85.5996 221.057 89.0413 220.863 89.0496 223.93H91.2351C91.8163 224.517 92.4015 225.108 93.2635 225.978ZM75.7394 463.276C75.7394 461.01 75.7191 458.686 75.745 456.364C75.7717 453.964 75.8178 451.639 76.6143 449.244C77.2901 447.212 77.2186 444.868 77.5429 442.678C78.1929 438.287 78.9341 433.912 79.7593 429.554C80.31 426.645 80.9659 423.746 81.7631 420.895C82.7211 417.469 84.8364 414.379 84.7347 410.641C87.0705 407.86 86.8524 403.848 89.7145 401.162C92.2309 398.8 93.9131 395.575 96.19 392.925C98.4098 390.342 101.19 388.244 102.866 385.186C104.909 384.915 105 382.729 106.283 381.65C107.673 380.482 108.64 378.809 109.69 377.486C104.214 373.713 97.6976 371.867 94.0314 366.159C93.4383 367.365 93.0185 368.758 92.1837 369.826C88.1991 374.923 87.0287 381.386 83.7875 386.848C82.7851 388.537 82.533 390.653 81.7099 392.47C79.8433 396.592 79.1663 401.075 77.9188 405.363C77.062 408.308 76.348 411.407 75.7587 414.476C75.3096 416.814 75.9993 419.141 74.9289 421.631C73.9932 423.808 74.5231 426.588 73.8698 429.161C72.6206 434.081 72.394 439.263 71.9399 444.301C71.3333 451.03 70.7995 457.737 70.0052 464.464C69.2471 470.882 69.1968 477.482 68.7484 483.998C68.6397 485.579 69.0205 487.193 67.8188 488.64C67.526 488.993 68.1665 490.12 68.378 490.891C71.4311 485.919 73.6502 480.914 75.6758 475.831C76.0157 474.979 75.9417 474.063 76.6952 473.235C78.4983 471.256 78.8302 468.751 78.7271 466.263C77.6804 465.216 76.7384 464.274 75.7394 463.276ZM116.483 326.139C114.884 324.537 113.935 322.992 112.561 322.335C109.93 321.078 108.09 318.987 106.384 316.898C104.08 314.075 101.062 311.145 103.725 306.882C103.592 303.893 105.897 301.068 104.294 297.911C101.574 298.9 98.9174 300.333 96.1065 300.765C92.8654 301.265 89.4883 300.882 86.1701 300.882C83.6933 300.047 81.9238 296.998 78.4986 298.307C79.3238 300.1 80.4921 301.589 80.6525 303.179C81.1924 308.528 84.5245 313.306 83.7729 318.899C83.7245 319.259 84.3677 319.671 84.4278 320.095C84.5837 321.199 85.0852 322.771 84.5605 323.346C83.4517 324.562 83.9194 325.808 83.7243 327.045C83.507 328.424 83.2054 329.789 82.8731 331.509C86.9325 335.704 92.3655 337.764 97.8568 339.015C103.991 334.5 108.945 329.225 116.483 326.139ZM125.466 353.163C126.195 351.182 125.286 349.327 126.465 347.315C127.257 345.963 127.085 343.635 126.146 341.694C125.082 339.494 124.528 337.05 123.705 334.728C123.211 333.335 121.598 332.207 120.777 332.935C118.955 334.551 116.352 334.564 114.665 336.365C113.246 337.881 111.689 339.211 109.884 340.378C107.871 341.68 106.098 343.644 104.795 345.686C102.478 349.316 100.595 353.223 98.57 356.942C109.162 369.086 110.061 366.888 117.102 368.837C120.259 363.895 123.488 358.993 125.466 353.163ZM12.1283 149.727C11.11 153.172 11.7793 156.206 13.1219 158.53C14.1922 160.382 15.347 162.278 16.512 164.128C21.3159 171.759 27.3368 178.455 33.4471 185.028C36.1344 187.919 38.8588 190.817 41.6693 193.611C43.4394 195.372 44.8703 197.635 46.7532 199.399C47.658 200.246 49.1906 200.611 49.7567 201.589C50.6548 203.141 52.1031 203.899 53.2701 205.046C54.622 206.375 55.5671 208.108 56.8546 209.514C61.3959 214.472 66.0115 219.362 70.5915 224.285C71.8979 225.69 73.4806 226.828 74.1992 228.779C74.4186 229.375 75.5817 229.623 76.3126 230.03C73.9247 223.457 69.6791 217.991 68.5816 211.289C65.2158 208.26 62.1511 205.039 58.6257 202.445C54.1846 199.177 50.1276 195.473 46.1778 191.712C41.0783 186.858 35.9534 182.009 31.5112 176.437C28.7187 172.934 25.8073 169.478 23.2619 165.814C20.7219 162.158 18.8929 158.006 16.7789 154.057C16.2719 153.11 15.8706 152.107 15.4469 151.186C14.4199 150.735 13.4365 150.302 12.1283 149.727ZM86.2337 177.962C89.0708 177.962 91.9302 178.213 94.72 177.88C96.8238 177.629 98.8003 176.348 100.906 176.065C102.252 175.883 102.981 175.235 103.742 174.423C104.782 173.313 105.654 172.037 106.748 170.99C107.899 169.887 109.227 168.969 110.385 168.045C111.904 167.953 113.325 167.867 114.703 167.783V166.302C114.275 166.194 113.792 166.154 113.394 165.95C112.972 165.733 112.63 165.361 112.215 165.026C101.101 164.048 92.1045 168.255 84.7601 176.488C85.1799 176.908 85.5329 177.261 86.2337 177.962ZM85.7913 355.4C86.9754 353.382 88.2151 351.269 89.6311 348.857C87.8987 347.615 86.0993 345.979 84.0039 344.938C82.4609 344.171 81.4292 343.259 80.7106 341.765C80.3704 341.058 79.7505 340.486 78.8288 339.302V352.274C79.6792 353.194 80.4603 354.039 81.0198 354.644C82.6571 354.904 84.0103 355.118 85.7913 355.4ZM122.349 227.769C122.866 225.688 123.275 224.044 123.763 222.083C122.813 222.023 121.917 221.965 120.605 221.881C119.994 224.832 116.928 226.414 116.783 229.56C119.515 231.202 120.307 227.66 122.349 227.769ZM78.4986 360.392C78.7483 363.469 78.9196 365.58 79.0909 367.691C79.2086 367.671 79.3262 367.651 79.7499 367.58C80.6442 365.887 81.6265 364.028 82.8237 361.762C81.486 361.338 80.3464 360.977 78.4986 360.392ZM141.875 468.589C142.161 468.57 142.446 468.552 142.731 468.534C142.61 467.977 142.489 467.421 142.368 466.864C142.203 466.886 142.039 466.909 141.875 466.931V468.589Z" fill="#FF0090"/>
<path d="M134.595 204.499C133.341 206.611 131.372 208.117 128.689 209.018C127.201 207.874 125.606 206.648 123.593 205.099C123.886 204.158 124.291 202.857 124.713 201.498C124.713 201.236 124.838 200.834 124.695 200.583C121.262 194.544 119.45 187.833 116.787 181.476C116.06 179.741 117.053 178.013 117.792 176.484C118.269 175.497 119.369 174.812 120.15 174.031C122.907 175.603 122.27 179.049 124.272 181.261C126.153 183.34 126.921 186.406 128.269 188.991C129.549 191.443 131.073 193.733 131.768 196.504C132.436 199.167 133.586 201.71 134.595 204.499Z" fill="#FF0090"/>
<path d="M89.7633 219.856C88.2292 217.46 86.6131 214.936 84.8667 212.208V203.74C90.9004 206.044 96.8785 207.406 103.235 206.866C103.643 207.364 104.06 207.875 104.497 208.409C102.337 215.098 99.0581 220.65 89.7633 219.856Z" fill="#FF0090"/>
<path d="M105.641 201.164C104.767 200.377 103.839 199.542 102.831 198.634V195.453C104.252 194.204 104.974 191.846 107.346 191.076L108.883 192.612C106.699 194.917 108.857 198.755 105.641 201.164Z" fill="#FF0090"/>
<path d="M93.6006 323.222C93.2496 323.911 92.7605 324.87 92.2164 325.937C91.7958 325.813 91.1709 325.823 90.9501 325.529C89.8204 324.027 88.7058 322.499 87.7681 320.875C87.2414 319.962 86.8462 318.861 86.7791 317.819C86.6326 315.549 86.7337 313.263 86.7337 310.239C88.6684 312.738 90.0987 314.585 91.0453 315.808C92.0259 318.653 92.7794 320.839 93.6006 323.222Z" fill="#FF0090"/>
<path fill-rule="evenodd" clip-rule="evenodd" d="M140.654 127.846C141.229 127.271 141.969 126.888 142.766 126.727C171.996 120.81 194 94.9746 194 64C194 28.6538 165.346 0 130 0C94.6538 0 66 28.6538 66 64C66 94.5526 87.4088 120.105 116.043 126.474C116.811 126.644 117.521 127.021 118.077 127.577L126.672 136.172C128.234 137.734 130.766 137.734 132.328 136.172L140.654 127.846Z" fill="white"/>
<path d="M116.5 126.5C120.961 126.996 123.52 138.111 129.69 138.765C136.213 139.457 134.5 125.778 156.5 121.5C183.343 116.281 196.355 96.9237 197.5 66C198.746 32.3602 179.6 5 140 5C105.663 5 78.2028 20.685 70.9998 55.5C64.9999 84.5 82.1269 114.657 101.5 119.5" stroke="#FF0090" stroke-width="10" stroke-linecap="round"/>
<path d="M130.002 87.561C131.757 83.0311 134.205 78.8809 135.812 74.2585C138.191 67.4162 140.918 60.5602 143.771 53.9106C144.623 51.9257 145.628 49.9757 146.557 48.0234C147.135 46.8088 147.388 47.0005 148.785 47.0262C153.954 47.1211 158.933 48.6628 163.955 49.7767C166.599 50.3633 169.159 51.798 171.834 51.9482C172.706 51.9972 169.924 57.8729 169.606 58.4467C166.841 63.4399 164.17 68.4801 161.615 73.5829C158.238 80.3296 155.389 87.2031 151.555 93.7056C149.679 96.8878 144.989 93.3643 143.023 92.0488C140.4 90.293 137.163 88.2112 133.95 87.8505C133.26 87.773 132.173 87.7278 131.722 87.2715" stroke="#FF0090" stroke-width="10" stroke-linecap="round"/>
<path d="M134.318 73C130.454 73 125.457 71.2715 122.334 69.3056C119.54 67.5458 119.906 35 122.366 35C131.952 35 144.502 35 146.502 36.5C148.502 38 146.502 48.5 146.502 48.5" stroke="#FF0090" stroke-width="10" stroke-linecap="round"/>
<path d="M117.51 48C114.919 48.0901 103.802 48.2618 104.003 52C104.209 55.844 106.737 82.5507 107.623 82.4833C116.471 81.8102 122.314 82.0001 131.002 80.1233" stroke="#FF0090" stroke-width="10" stroke-linecap="round"/>
</svg>
