<svg width="208" height="466" viewBox="0 0 208 466" fill="none" xmlns="http://www.w3.org/2000/svg">
<path d="M141.7 271.894C140.099 272.982 138.199 273.764 137.041 275.16C134.084 278.726 130.304 279.33 125.687 278.769C127.742 281.396 129.315 283.928 131.387 285.946C135.529 289.98 136.21 295.638 138.706 300.429C138.192 305.108 139.198 309.758 137.833 314.539C134.595 325.883 132.791 328.865 128.469 335.669C124.687 341.622 120.418 347.141 115.703 352.354C113.313 354.997 112.991 356.904 114.754 360.087C116.789 363.762 119.226 367.215 121.242 370.9C122.956 374.032 124.835 377.083 126.469 380.231C128.125 383.419 129.848 386.511 131.839 389.496C133.116 391.41 133.929 393.628 135.083 395.632C135.949 397.137 137.027 398.519 137.909 399.808H143.219C143.942 400.53 144.649 401.237 145.356 401.943C148.216 413.969 148.579 423.627 146.523 432.436C145.495 432.798 144.283 432.915 143.493 433.555C139.936 436.435 135.762 438.179 131.744 440.212C131.2 440.487 130.575 440.701 129.974 440.743C128.231 440.865 126.541 440.668 124.822 441.637C124.046 442.074 122.495 441.135 121.363 440.839C120.019 439.048 119.549 437.137 119.689 434.984C119.818 432.994 119.7 430.989 119.721 428.991C119.741 427.078 120.15 425.261 120.568 423.378C121.579 418.825 119.756 414.469 117.187 410.912C111.575 403.14 106.015 395.371 101.34 386.979C99.3055 383.326 97.5853 379.508 95.059 375.797C94.835 376.255 94.5578 376.823 93.7844 378.406C93.8908 380.259 93.1987 383.224 92.022 386.257C91.2823 388.164 90.9242 390.549 90.8017 392.725C90.5859 396.559 89.108 400.066 88.137 403.662C87.6113 405.608 88.7817 408.014 86.7337 409.55C86.3236 413.064 85.9136 416.578 85.5161 419.983C90.0808 424.189 91.6226 429.381 91.7215 435.128C91.7759 438.291 91.56 441.468 91.7853 444.616C91.9661 447.14 92.6281 449.63 92.9788 451.588C91.8095 453.288 91.0051 454.457 89.9628 455.972C89.0269 455.625 87.8883 455.202 86.8331 454.81C86.5123 451.805 87.4097 448.9 85.0093 446.701C81.9366 447.148 82.2641 450.167 81.8958 451.915C80.7996 457.115 78.3915 460.618 73.3766 462.891C69.8356 464.496 66.6231 466.457 61.7932 465.465C59.548 464.636 57.614 462.528 56.9322 460.499C57.2839 457.422 57.5979 455.394 57.7335 453.354C58.1114 447.667 57.8396 441.86 58.9389 436.321C59.7521 432.224 59.0464 428.151 59.8561 424.23C60.8286 419.523 60.6356 414.843 60.7914 410.136C60.8201 409.266 61.4222 408.415 61.7881 407.483C61.5041 407.133 61.2034 406.762 61.053 406.576C61.2957 404.411 61.791 402.383 61.6763 400.389C61.5426 398.062 62.3266 395.987 62.7356 393.803C63.144 391.623 61.9533 389.234 63.6987 387.185C64.0276 386.799 63.7531 385.893 63.7446 385.227C63.7017 381.859 64.5162 378.655 65.5447 375.482C65.7386 374.884 65.6842 374.206 65.7447 373.565C66.0778 370.04 66.0831 366.441 66.8492 363.012C67.4503 360.322 68.385 357.663 69.1766 354.994C69.8257 352.805 70.018 350.493 71.4165 348.399C72.2397 347.167 72.0655 344.74 71.4659 343.188C69.9158 339.175 68.5991 335.185 68.7432 330.83C65.482 322.142 66.8559 313.082 66.8866 304.182C66.8997 300.374 68.7825 296.609 69.2512 292.756C69.7174 288.923 72.083 285.91 73.0274 282.28C73.5869 280.129 73.7288 278.601 72.9653 276.434C71.2173 271.472 70.1288 266.28 68.7228 261.195C68.52 260.462 68.0422 259.805 67.9692 259.661C63.7779 258.234 60.1229 256.99 56.3037 255.69C51.5495 252.476 48.1892 247.872 45.8528 241.818C44.6865 235.469 46.5658 229.044 50.7223 223.618C54.8382 218.244 60.7834 215.064 67.7051 212.309C68.8855 211.413 70.6746 210.053 72.5885 208.6C73.2619 206.124 72.2462 204.091 70.5622 202.228C69.5883 201.15 68.742 199.953 67.7247 198.921C66.8913 198.076 65.7455 197.517 64.9901 196.62C62.5145 193.679 60.154 190.641 57.7487 187.641C57.4475 187.265 57.1562 186.88 56.8357 186.521C52.1244 181.251 46.2274 177.09 42.3528 171.037C38.9786 169.722 37.1884 166.584 34.6732 164.289C33.2925 163.029 32.3452 161.304 31.0151 159.977C29.6545 158.619 28.0028 157.557 26.5895 156.246C24.2303 154.057 22.5293 151.34 20.7506 148.686C20.2109 147.881 19.4865 147.191 18.7988 146.495C13.1698 140.801 8.6417 134.305 4.774 127.323C3.0458 124.203 1.57501 121.074 0.647409 117.521C-1.20619 110.422 0.903696 104.29 7.1938 101.08C7.8761 100.731 8.61077 100.486 9.78797 100H14.9634C16.0635 100.743 16.9493 101.826 17.9105 101.898C20.6454 102.102 21.3316 105.206 23.767 105.666C25.0348 108.871 27.4263 111.39 28.9763 114.488C32.0073 120.546 35.4907 126.428 40.4709 131.239C41.9547 132.672 43.1377 134.431 44.3722 136.104C45.4623 137.582 47.595 137.986 48.2117 139.919C52.7192 142.032 54.9984 146.766 59.3372 149.208C62.1059 150.767 64.2963 153.349 66.7586 155.457C67.4645 156.062 68.2139 156.616 69.0218 157.255C69.8973 155.127 70.6519 153.293 71.7418 150.644C71.7418 148.406 71.7322 145.256 71.7452 142.105C71.754 140 73.135 137.222 74.0252 135.058C75.4389 131.623 77.8307 129.062 80.5037 126.776C86.0189 122.059 92.1533 118.608 99.3704 116.815C103.32 115.834 107.14 115.989 110.984 116.101C113.359 116.17 115.686 117.435 117.906 118.587C119.275 119.298 121.103 119.128 121.997 120.758C122.368 121.435 122.718 122.122 123.181 123.001C125.254 122.716 127.583 123.654 129.575 121.97C131.01 122.527 132.432 123.119 133.882 123.636C139.523 125.649 142.928 130.031 145.669 134.992C147.78 138.812 148.973 142.923 149.896 147.265C150.79 151.463 150.265 155.637 150.954 160.406C154.62 154.772 159.601 150.932 162.801 145.563C163.286 144.748 164.351 143.93 165.151 143.151C171.367 137.097 175.885 129.543 182.396 123.775C184.449 121.957 186.438 119.995 188.741 118.553C190.252 117.607 192.246 117.302 194.072 117.028C195.701 116.783 197.396 116.976 199.061 116.976C200.819 118.363 202.778 119.564 204.274 121.19C205.619 122.654 206.457 124.584 207.657 126.532C208.217 134.852 204.859 141.864 199.794 148.495C197.08 152.048 193.84 155.002 190.876 158.261C186.57 162.998 182.295 167.762 177.588 172.978C177.929 173.897 178.139 175.591 179.066 176.669C180.243 178.037 180.639 179.83 181.741 181.064C185.125 184.856 185.386 189.908 187.38 194.247C188.018 195.635 187.672 197.476 187.827 199.908C190.522 202.997 193.675 206.61 196.676 210.049C196.676 211.716 196.526 213.066 196.711 214.368C197.002 216.419 196.232 218.146 195.27 219.782C192.768 224.037 189.309 227.396 185.057 229.871C183.348 230.866 181.435 231.51 179.433 232.394C179.77 233.111 180.032 233.668 180.368 234.383C180.186 234.983 179.724 235.809 179.717 236.639C179.648 245.512 175.553 252.617 169.978 259.086C169.544 259.589 169.01 260.006 168.575 260.508C164.85 264.809 160.489 268.173 155.038 270.054C147.872 272.526 148.394 273.788 141.7 271.894ZM115.718 386.8C115.869 387.558 115.223 388.713 116.718 388.799C116.718 389.123 116.592 389.525 116.737 389.761C119.201 393.775 121.678 397.782 124.218 401.748C124.52 402.221 125.205 402.449 126.489 402.763C126.201 402.778 125.913 402.793 125.625 402.807C125.753 403.458 125.88 404.109 126.008 404.761C126.223 404.731 126.438 404.702 126.653 404.673C126.598 404.036 126.544 403.4 125.713 402.79C125.608 402.184 125.645 401.504 125.373 400.986C123.881 398.156 122.25 395.422 120.344 392.827C119.252 391.34 118.574 389.571 116.718 388.799C116.567 388.041 117.214 386.885 115.718 386.8C115.568 386.043 116.214 384.887 114.719 384.801C114.568 384.044 115.215 382.888 113.719 382.803C113.386 382.47 113.053 382.136 112.72 381.803C112.881 380.253 112.299 379.197 111.102 378.558C110.511 377.648 109.92 376.737 109.104 375.48C108.269 377.791 109.61 378.225 110.721 378.805C110.561 380.356 111.142 381.412 112.72 381.803C113.053 382.136 113.386 382.47 113.719 382.803C113.87 383.56 113.224 384.716 114.719 384.801C114.87 385.559 114.223 386.715 115.718 386.8ZM132.589 416.527C130.995 417.611 131.995 419.14 131.819 420.363C131.813 420.401 132.231 420.501 132.589 420.617C132.589 419.275 132.589 418.028 132.605 416.69L132.8 416.885C133.072 416.653 133.344 416.421 133.617 416.189C133.512 416.083 133.406 415.978 133.301 415.874C133.069 416.146 132.837 416.418 132.589 416.527ZM114.44 230.123C116.236 227.314 118.298 224.743 119.654 221.841C123.144 214.369 128.919 208.616 133.924 202.297C137.064 198.332 140.892 194.91 144.006 190.927C144.986 189.672 146.513 189.117 147.184 187.868C149.69 183.209 154.713 180.704 157.127 176.007C165.254 167.548 173.393 159.102 181.499 150.625C184.314 147.681 187.533 145.121 189.673 141.533C190.729 139.762 192.083 138.112 193.548 136.655C195.99 134.229 197.465 131.621 196.218 127.621C194.016 128.502 191.903 129.348 189.95 130.129C189.617 130.892 189.504 131.583 189.105 132C186.055 135.183 182.962 138.291 180.215 141.787C177.196 145.626 173.476 148.878 170.285 152.639C166.392 157.227 162.075 161.488 158.078 166.022C154.616 169.949 150.452 173.203 147.432 177.589C145.947 179.747 143.685 181.359 141.863 183.301C140.085 185.196 138.704 187.61 136.627 189.034C134.613 190.413 132.941 192.242 131.568 193.924C129.931 195.931 128.167 197.526 126.15 199.024C124.704 200.098 124.204 201.981 122.372 202.946C120.715 203.82 119.595 205.709 118.527 206.844H115.145C113.658 205.357 112.245 203.944 110.832 202.531C111.158 202.038 111.483 201.545 111.779 201.095C110.499 198.903 110.747 195.85 107.502 194.85C104.149 195.478 101.769 198.204 98.5102 200.103C95.5994 199.314 92.4414 198.458 89.3524 197.62C87.8941 200.604 86.3745 203.101 85.1293 205.778C83.1684 209.993 80.1857 213.75 77.4773 217.589C76.7806 218.577 75.5208 219.189 74.4703 219.902C70.1831 222.807 66.066 226.037 61.5251 228.475C56.8432 230.988 56.0306 234.958 55.8035 237.374C56.7378 243.42 60.8138 243.615 63.1076 245.757H69.213C70.9395 244.818 71.1779 243.258 70.6534 242.177C69.7247 240.263 70.8813 238.766 71.0824 237.098C71.1491 236.544 71.6464 236.041 71.8546 235.677C71.302 234.931 70.932 234.432 70.7576 234.197C71.8683 230.865 73.1514 228.148 75.26 225.619C77.2201 223.268 79.2189 221.247 81.6279 219.347C85.7213 216.119 86.3938 215.345 88.3194 215.052C89.582 215.69 90.3296 216.068 90.9728 216.393C89.2769 220.692 86.7666 223.956 84.0551 226.988C81.2283 230.149 80.3338 234.117 78.7803 237.816C78.483 238.524 78.4047 239.693 78.7941 240.257C80.7101 243.034 81.3229 246.901 85.3052 248.023C86.4606 248.349 87.4523 249.255 87.8671 249.504C94.9104 250.961 100.368 249.294 104.729 244.335C104.97 243.153 104.385 241.893 105.346 240.616C105.909 239.867 105.85 238.39 105.613 237.344C104.659 233.144 104.771 233.194 105.492 229.56C105.974 227.128 106.233 224.549 104.931 222.095C106.222 220.928 107.524 219.751 108.889 218.517C110.309 220.054 111.433 221.27 112.855 222.808V228.538C113.384 229.067 113.737 229.421 114.44 230.123ZM164.211 188.911C160.101 193.02 156.091 197.199 151.856 201.137C150.885 202.041 151.245 203.801 149.182 204.148C147.844 204.372 146.797 206.323 145.619 207.501C144.442 208.678 142.759 209.662 142.215 211.082C141.548 212.827 139.638 212.797 138.989 214.162C137.673 216.93 135.471 219.049 133.788 221.518C128.902 228.689 125.325 236.618 121.872 244.54C121.103 246.303 119.833 248.175 119.793 250.139C119.713 254.022 117.865 257.377 117.044 261.024C116.582 263.077 116.611 266.227 117.408 268.618C117.757 267.643 117.822 266.168 118.542 265.699C120.574 264.375 121.631 262.503 122.789 260.499C123.839 258.683 125.521 257.234 127.524 254.933C127.524 257.436 127.74 259.043 127.46 260.559C127.2 261.968 126.41 263.278 125.858 264.622C126.827 265.022 127.625 265.352 128.312 265.636C131.563 263.038 134.461 260.039 135.535 256.133C136.081 254.148 137.134 253.101 138.102 252.124H142.252C141.607 253.502 140.963 254.427 140.757 255.44C140.53 256.56 140.784 257.768 140.681 258.925C140.594 259.898 140.295 260.852 139.998 262.249C142.235 260.941 143.774 259.688 144.806 257.463C145.723 255.487 147.674 254.019 148.875 252.139C150.028 250.333 150.825 248.296 151.741 246.343C152.656 244.39 153.524 242.415 154.748 239.709V236.17C154.908 236.271 155.068 236.372 155.227 236.473C155.513 235.91 155.798 235.347 155.957 235.032C156.705 235.579 157.228 235.961 157.462 236.132C157.178 237.169 156.962 237.96 156.666 239.041H159.606V247.481C158.934 248.152 158.346 248.741 157.928 249.158C157.467 251.489 157.055 253.573 156.613 255.805C159.736 255.334 160.383 252.773 161.974 251.188C166.783 246.398 168.206 240.277 168.574 233.958C168.815 229.809 167.935 225.595 167.568 221.531C168.174 220.925 168.645 220.454 168.882 220.218C171.296 220.729 173.534 221.202 176.119 221.749C177.734 221.066 180.022 220.599 181.622 219.291C183.397 217.841 184.544 215.624 185.989 213.709C181.945 211.678 179.96 208.209 177.651 204.978C175.067 201.364 175.821 197.29 175.677 193.417C175.004 192.743 174.415 192.155 174.073 191.813C174.227 190.736 174.351 189.866 174.619 187.984C173.008 189.351 172.221 190.019 171.284 190.814C172.5 193.813 173.6 196.527 174.759 199.388C174.1 199.963 173.407 200.568 172.835 201.066C167.715 198.363 166.997 193.002 164.211 188.911ZM93.2635 186.978C99.4504 187.042 104.147 183.913 108.679 180.451C110.33 179.19 111.41 177.303 113.539 176.496C114.453 176.151 115.054 174.883 115.709 173.971C117.539 171.423 118.808 168.391 121.681 166.866C123.559 167.568 123.928 168.877 123.83 169.694C126.741 172.605 129.303 175.166 132.107 177.97C134.992 175.212 138.354 172.497 139.706 167.22C139.706 166.465 139.781 164.797 139.692 163.138C139.405 157.781 140.381 152.389 138.813 147.045C138.3 145.296 137.881 143.33 137.451 141.561C137.042 139.876 135.312 138.241 134.525 136.327C133.949 134.926 131.644 135.212 131.329 133.215C131.246 132.687 129.822 132.16 128.948 132.006C125.998 131.487 123.018 131.137 120.41 130.772C118.568 132.614 116.606 133.789 115.871 135.493C114.737 138.124 112.519 139.155 110.55 140.725C108.562 142.31 106.856 144.046 104.338 145.063C100.245 146.717 96.2194 148.301 91.5666 148.049C92.3436 149.635 92.7205 151.774 92.6973 154.467C91.869 155.303 91.0497 156.13 90.4141 156.771H86.8018C86.5671 153.129 86.6645 149.855 90.809 148.406C87.5331 146.734 85.502 149.745 83.1263 150.153C82.3087 151.75 81.6059 153.123 80.7834 154.73C81.1393 157.851 79.1969 161.016 79.7078 164.488C80.1969 167.815 80.442 171.177 80.7977 174.555C81.9748 176.376 83.1815 178.199 84.3422 180.051C85.5996 182.057 89.0413 181.863 89.0496 184.93H91.2351C91.8163 185.517 92.4015 186.108 93.2635 186.978ZM75.7394 424.276C75.7394 422.01 75.7191 419.686 75.745 417.364C75.7717 414.964 75.8178 412.639 76.6143 410.244C77.2901 408.212 77.2186 405.868 77.5429 403.678C78.1929 399.287 78.9341 394.912 79.7593 390.554C80.31 387.645 80.9659 384.746 81.7631 381.895C82.7211 378.469 84.8364 375.379 84.7347 371.641C87.0705 368.86 86.8524 364.848 89.7145 362.162C92.2309 359.8 93.9131 356.575 96.19 353.925C98.4098 351.342 101.19 349.244 102.866 346.186C104.909 345.915 105 343.729 106.283 342.65C107.673 341.482 108.64 339.809 109.69 338.486C104.214 334.713 97.6976 332.867 94.0314 327.159C93.4383 328.365 93.0185 329.758 92.1837 330.826C88.1991 335.923 87.0287 342.386 83.7875 347.848C82.7851 349.537 82.533 351.653 81.7099 353.47C79.8433 357.592 79.1663 362.075 77.9188 366.363C77.062 369.308 76.348 372.407 75.7587 375.476C75.3096 377.814 75.9993 380.141 74.9289 382.631C73.9932 384.808 74.5231 387.588 73.8698 390.161C72.6206 395.081 72.394 400.263 71.9399 405.301C71.3333 412.03 70.7995 418.737 70.0052 425.464C69.2471 431.882 69.1968 438.482 68.7484 444.998C68.6397 446.579 69.0205 448.193 67.8188 449.64C67.526 449.993 68.1665 451.12 68.378 451.891C71.4311 446.919 73.6502 441.914 75.6758 436.831C76.0157 435.979 75.9417 435.063 76.6952 434.235C78.4983 432.256 78.8302 429.751 78.7271 427.263C77.6804 426.216 76.7384 425.274 75.7394 424.276ZM116.483 287.139C114.884 285.537 113.935 283.992 112.561 283.335C109.93 282.078 108.09 279.987 106.384 277.898C104.08 275.075 101.062 272.145 103.725 267.882C103.592 264.893 105.897 262.068 104.294 258.911C101.574 259.9 98.9174 261.333 96.1065 261.765C92.8654 262.265 89.4883 261.882 86.1701 261.882C83.6933 261.047 81.9238 257.998 78.4986 259.307C79.3238 261.1 80.4921 262.589 80.6525 264.179C81.1924 269.528 84.5245 274.306 83.7729 279.899C83.7245 280.259 84.3677 280.671 84.4278 281.095C84.5837 282.199 85.0852 283.771 84.5605 284.346C83.4517 285.562 83.9194 286.808 83.7243 288.045C83.507 289.424 83.2054 290.789 82.8731 292.509C86.9325 296.704 92.3655 298.764 97.8568 300.015C103.991 295.5 108.945 290.225 116.483 287.139ZM125.466 314.163C126.195 312.182 125.286 310.327 126.465 308.315C127.257 306.963 127.085 304.635 126.146 302.694C125.082 300.494 124.528 298.05 123.705 295.728C123.211 294.335 121.598 293.207 120.777 293.935C118.955 295.551 116.352 295.564 114.665 297.365C113.246 298.881 111.689 300.211 109.884 301.378C107.871 302.68 106.098 304.644 104.795 306.686C102.478 310.316 100.595 314.223 98.57 317.942C109.162 330.086 110.061 327.888 117.102 329.837C120.259 324.895 123.488 319.993 125.466 314.163ZM12.1283 110.727C11.11 114.172 11.7793 117.206 13.1219 119.53C14.1922 121.382 15.347 123.278 16.512 125.128C21.3159 132.759 27.3368 139.455 33.4471 146.028C36.1344 148.919 38.8588 151.817 41.6693 154.611C43.4394 156.372 44.8703 158.635 46.7532 160.399C47.658 161.246 49.1906 161.611 49.7567 162.589C50.6548 164.141 52.1031 164.899 53.2701 166.046C54.622 167.375 55.5671 169.108 56.8546 170.514C61.3959 175.472 66.0115 180.362 70.5915 185.285C71.8979 186.69 73.4806 187.828 74.1992 189.779C74.4186 190.375 75.5817 190.623 76.3126 191.03C73.9247 184.457 69.6791 178.991 68.5816 172.289C65.2158 169.26 62.1511 166.039 58.6257 163.445C54.1846 160.177 50.1276 156.473 46.1778 152.712C41.0783 147.858 35.9534 143.009 31.5112 137.437C28.7187 133.934 25.8073 130.478 23.2619 126.814C20.7219 123.158 18.8929 119.006 16.7789 115.057C16.2719 114.11 15.8706 113.107 15.4469 112.186C14.4199 111.735 13.4365 111.302 12.1283 110.727ZM86.2337 138.962C89.0708 138.962 91.9302 139.213 94.72 138.88C96.8238 138.629 98.8003 137.348 100.906 137.065C102.252 136.883 102.981 136.235 103.742 135.423C104.782 134.313 105.654 133.037 106.748 131.99C107.899 130.887 109.227 129.969 110.385 129.045C111.904 128.953 113.325 128.867 114.703 128.783V127.302C114.275 127.194 113.792 127.154 113.394 126.95C112.972 126.733 112.63 126.361 112.215 126.026C101.101 125.048 92.1045 129.255 84.7601 137.488C85.1799 137.908 85.5329 138.261 86.2337 138.962ZM85.7913 316.4C86.9754 314.382 88.2151 312.269 89.6311 309.857C87.8987 308.615 86.0993 306.979 84.0039 305.938C82.4609 305.171 81.4292 304.259 80.7106 302.765C80.3704 302.058 79.7505 301.486 78.8288 300.302V313.274C79.6792 314.194 80.4603 315.039 81.0198 315.644C82.6571 315.904 84.0103 316.118 85.7913 316.4ZM122.349 188.769C122.866 186.688 123.275 185.044 123.763 183.083C122.813 183.023 121.917 182.965 120.605 182.881C119.994 185.832 116.928 187.414 116.783 190.56C119.515 192.202 120.307 188.66 122.349 188.769ZM78.4986 321.392C78.7483 324.469 78.9196 326.58 79.0909 328.691C79.2086 328.671 79.3262 328.651 79.7499 328.58C80.6442 326.887 81.6265 325.028 82.8237 322.762C81.486 322.338 80.3464 321.977 78.4986 321.392ZM141.875 429.589C142.161 429.57 142.446 429.552 142.731 429.534C142.61 428.977 142.489 428.421 142.368 427.864C142.203 427.886 142.039 427.909 141.875 427.931V429.589Z" fill="black"/>
<path d="M134.595 165.499C133.341 167.611 131.372 169.117 128.689 170.018C127.201 168.874 125.606 167.648 123.593 166.099C123.886 165.158 124.291 163.857 124.713 162.498C124.713 162.236 124.838 161.834 124.695 161.583C121.262 155.544 119.45 148.833 116.787 142.476C116.06 140.741 117.053 139.013 117.792 137.484C118.269 136.497 119.369 135.812 120.15 135.031C122.907 136.603 122.27 140.049 124.272 142.261C126.153 144.34 126.921 147.406 128.269 149.991C129.549 152.443 131.073 154.733 131.768 157.504C132.436 160.167 133.586 162.71 134.595 165.499Z" fill="black"/>
<path d="M89.7633 180.856C88.2292 178.46 86.6131 175.936 84.8667 173.208V164.74C90.9004 167.044 96.8785 168.406 103.235 167.866C103.643 168.364 104.06 168.875 104.497 169.409C102.337 176.098 99.0581 181.65 89.7633 180.856Z" fill="black"/>
<path d="M105.641 162.164C104.767 161.377 103.839 160.542 102.831 159.634V156.453C104.252 155.204 104.974 152.846 107.346 152.076L108.883 153.612C106.699 155.917 108.857 159.755 105.641 162.164Z" fill="black"/>
<path d="M93.6006 284.222C93.2496 284.911 92.7605 285.87 92.2164 286.937C91.7958 286.813 91.1709 286.823 90.9501 286.529C89.8204 285.027 88.7058 283.499 87.7681 281.875C87.2414 280.962 86.8462 279.861 86.7791 278.819C86.6326 276.549 86.7337 274.263 86.7337 271.239C88.6684 273.738 90.0987 275.585 91.0453 276.808C92.0259 279.653 92.7794 281.839 93.6006 284.222Z" fill="black"/>
<path fill-rule="evenodd" clip-rule="evenodd" d="M140.654 131.846C141.229 131.271 141.969 130.888 142.766 130.727C171.996 124.81 194 98.9746 194 68C194 32.6538 165.346 4 130 4C94.6538 4 66 32.6538 66 68C66 98.5526 87.4088 124.105 116.043 130.474C116.811 130.644 117.521 131.021 118.077 131.577L126.672 140.172C128.234 141.734 130.766 141.734 132.328 140.172L140.654 131.846Z" fill="white"/>
<path d="M116.5 130.5C120.961 130.996 123.52 142.111 129.69 142.765C136.213 143.457 134.5 129.778 156.5 125.5C183.343 120.281 196.355 100.924 197.5 70C198.746 36.3602 179.6 9 140 9C105.663 9 78.2028 24.685 70.9998 59.5C64.9999 88.5 82.1269 118.657 101.5 123.5" stroke="black" stroke-width="10" stroke-linecap="round"/>
<path d="M130.002 91.561C131.757 87.0311 134.205 82.8809 135.812 78.2585C138.191 71.4162 140.918 64.5602 143.771 57.9106C144.623 55.9257 145.628 53.9757 146.557 52.0234C147.135 50.8088 147.388 51.0005 148.785 51.0262C153.954 51.1211 158.933 52.6628 163.955 53.7767C166.599 54.3633 169.159 55.798 171.834 55.9482C172.706 55.9972 169.924 61.8729 169.606 62.4467C166.841 67.4399 164.17 72.4801 161.615 77.5829C158.238 84.3296 155.389 91.2031 151.555 97.7056C149.679 100.888 144.989 97.3643 143.023 96.0488C140.4 94.293 137.163 92.2112 133.95 91.8505C133.26 91.773 132.173 91.7278 131.722 91.2715" stroke="black" stroke-width="10" stroke-linecap="round"/>
<path d="M134.318 77C130.454 77 125.457 75.2715 122.334 73.3056C119.54 71.5458 119.906 39 122.366 39C131.952 39 144.502 39 146.502 40.5C148.502 42 146.502 52.5 146.502 52.5" stroke="black" stroke-width="10" stroke-linecap="round"/>
<path d="M117.51 52C114.919 52.0901 103.802 52.2618 104.003 56C104.209 59.844 106.737 86.5507 107.623 86.4833C116.471 85.8102 122.314 86.0001 131.002 84.1233" stroke="black" stroke-width="10" stroke-linecap="round"/>
</svg>
